<svg version="1.1" xmlns="http://www.w3.org/2000/svg" xmlns:xlink="http://www.w3.org/1999/xlink" width="1200" height="630" viewBox="0,0,1200,630"><g fill="none" fill-rule="nonzero" stroke="none" stroke-width="1" stroke-linecap="butt" stroke-linejoin="miter" stroke-miterlimit="10" stroke-dasharray="" stroke-dashoffset="0" font-family="none" font-weight="none" font-size="none" text-anchor="none" style="mix-blend-mode: normal"><g><g><path d="M-126,-243.87506l96.8,-55.88751l96.8,55.88751v111.77501l-96.8,55.88751l-96.8,-55.88751z" fill="#000000"/><path d="M-126,-243.87506l96.8,-55.88751l96.8,55.88751l-96.8,55.88751z" fill="#ffffff"/><path d="M67.6,-243.87506v111.77501l-96.8,55.88751v-111.77501z" fill="#000000"/></g><g><path d="M67.6,-243.87506l96.8,-55.88751l96.8,55.88751v111.77501l-96.8,55.88751l-96.8,-55.88751z" fill="#000000"/><path d="M67.6,-243.87506l96.8,-55.88751l96.8,55.88751l-96.8,55.88751z" fill="#ffffff"/><path d="M261.2,-243.87506v111.77501l-96.8,55.88751v-111.77501z" fill="#000000"/></g><g><path d="M261.2,-243.87506l96.8,-55.88751l96.8,55.88751v111.77501l-96.8,55.88751l-96.8,-55.88751z" fill="#000000"/><path d="M261.2,-243.87506l96.8,-55.88751l96.8,55.88751l-96.8,55.88751z" fill="#ffffff"/><path d="M454.8,-243.87506v111.77501l-96.8,55.88751v-111.77501z" fill="#000000"/></g><g><path d="M454.8,-243.87506l96.8,-55.88751l96.8,55.88751v111.77501l-96.8,55.88751l-96.8,-55.88751z" fill="#000000"/><path d="M454.8,-243.87506l96.8,-55.88751l96.8,55.88751l-96.8,55.88751z" fill="#ffffff"/><path d="M648.4,-243.87506v111.77501l-96.8,55.88751v-111.77501z" fill="#000000"/></g><g><path d="M648.4,-243.87506l96.8,-55.88751l96.8,55.88751v111.77501l-96.8,55.88751l-96.8,-55.88751z" fill="#000000"/><path d="M648.4,-243.87506l96.8,-55.88751l96.8,55.88751l-96.8,55.88751z" fill="#ffffff"/><path d="M842,-243.87506v111.77501l-96.8,55.88751v-111.77501z" fill="#000000"/></g><g><path d="M842,-243.87506l96.8,-55.88751l96.8,55.88751v111.77501l-96.8,55.88751l-96.8,-55.88751z" fill="#000000"/><path d="M842,-243.87506l96.8,-55.88751l96.8,55.88751l-96.8,55.88751z" fill="#ffffff"/><path d="M1035.6,-243.87506v111.77501l-96.8,55.88751v-111.77501z" fill="#000000"/></g><g><path d="M1035.6,-243.87506l96.8,-55.88751l96.8,55.88751v111.77501l-96.8,55.88751l-96.8,-55.88751z" fill="#000000"/><path d="M1035.6,-243.87506l96.8,-55.88751l96.8,55.88751l-96.8,55.88751z" fill="#ffffff"/><path d="M1229.2,-243.87506v111.77501l-96.8,55.88751v-111.77501z" fill="#000000"/></g><g><path d="M-29.2,-76.21254l96.8,-55.88751l96.8,55.88751v111.77501l-96.8,55.88751l-96.8,-55.88751z" fill="#ad7ab6"/><path d="M-29.2,-76.21254l96.8,-55.88751l96.8,55.88751l-96.8,55.88751z" fill="#ffb6ff"/><path d="M164.4,-76.21254v111.77501l-96.8,55.88751v-111.77501z" fill="#573d5b"/></g><g><path d="M164.4,-76.21254l96.8,-55.88751l96.8,55.88751v111.77501l-96.8,55.88751l-96.8,-55.88751z" fill="#b279b7"/><path d="M164.4,-76.21254l96.8,-55.88751l96.8,55.88751l-96.8,55.88751z" fill="#ffb5ff"/><path d="M358,-76.21254v111.77501l-96.8,55.88751v-111.77501z" fill="#593c5b"/></g><g><path d="M358,-76.21254l96.8,-55.88751l96.8,55.88751v111.77501l-96.8,55.88751l-96.8,-55.88751z" fill="#af7aaf"/><path d="M358,-76.21254l96.8,-55.88751l96.8,55.88751l-96.8,55.88751z" fill="#ffb6ff"/><path d="M551.6,-76.21254v111.77501l-96.8,55.88751v-111.77501z" fill="#573d57"/></g><g><path d="M551.6,-76.21254l96.8,-55.88751l96.8,55.88751v111.77501l-96.8,55.88751l-96.8,-55.88751z" fill="#998799"/><path d="M551.6,-76.21254l96.8,-55.88751l96.8,55.88751l-96.8,55.88751z" fill="#e5cbe5"/><path d="M745.2,-76.21254v111.77501l-96.8,55.88751v-111.77501z" fill="#4c444c"/></g><g><path d="M745.2,-76.21254l96.8,-55.88751l96.8,55.88751v111.77501l-96.8,55.88751l-96.8,-55.88751z" fill="#8f9191"/><path d="M745.2,-76.21254l96.8,-55.88751l96.8,55.88751l-96.8,55.88751z" fill="#d7d9d9"/><path d="M938.8,-76.21254v111.77501l-96.8,55.88751v-111.77501z" fill="#484848"/></g><g><path d="M938.8,-76.21254l96.8,-55.88751l96.8,55.88751v111.77501l-96.8,55.88751l-96.8,-55.88751z" fill="#909090"/><path d="M938.8,-76.21254l96.8,-55.88751l96.8,55.88751l-96.8,55.88751z" fill="#d8d8d8"/><path d="M1132.4,-76.21254v111.77501l-96.8,55.88751v-111.77501z" fill="#484848"/></g><g><path d="M1132.4,-76.21254l96.8,-55.88751l96.8,55.88751v111.77501l-96.8,55.88751l-96.8,-55.88751z" fill="#8f8f8f"/><path d="M1132.4,-76.21254l96.8,-55.88751l96.8,55.88751l-96.8,55.88751z" fill="#d7d7d7"/><path d="M1326,-76.21254v111.77501l-96.8,55.88751v-111.77501z" fill="#484848"/></g><g><path d="M-126,91.44998l96.8,-55.88751l96.8,55.88751v111.77501l-96.8,55.88751l-96.8,-55.88751z" fill="#66589c"/><path d="M-126,91.44998l96.8,-55.88751l96.8,55.88751l-96.8,55.88751z" fill="#9a84ea"/><path d="M67.6,91.44998v111.77501l-96.8,55.88751v-111.77501z" fill="#332c4e"/></g><g><path d="M67.6,91.44998l96.8,-55.88751l96.8,55.88751v111.77501l-96.8,55.88751l-96.8,-55.88751z" fill="#8686e5"/><path d="M67.6,91.44998l96.8,-55.88751l96.8,55.88751l-96.8,55.88751z" fill="#c9c9ff"/><path d="M261.2,91.44998v111.77501l-96.8,55.88751v-111.77501z" fill="#434372"/></g><g><path d="M261.2,91.44998l96.8,-55.88751l96.8,55.88751v111.77501l-96.8,55.88751l-96.8,-55.88751z" fill="#867dcd"/><path d="M261.2,91.44998l96.8,-55.88751l96.8,55.88751l-96.8,55.88751z" fill="#c9bbff"/><path d="M454.8,91.44998v111.77501l-96.8,55.88751v-111.77501z" fill="#433e67"/></g><g><path d="M454.8,91.44998l96.8,-55.88751l96.8,55.88751v111.77501l-96.8,55.88751l-96.8,-55.88751z" fill="#8777ca"/><path d="M454.8,91.44998l96.8,-55.88751l96.8,55.88751l-96.8,55.88751z" fill="#cbb2ff"/><path d="M648.4,91.44998v111.77501l-96.8,55.88751v-111.77501z" fill="#443b65"/></g><g><path d="M648.4,91.44998l96.8,-55.88751l96.8,55.88751v111.77501l-96.8,55.88751l-96.8,-55.88751z" fill="#8971ae"/><path d="M648.4,91.44998l96.8,-55.88751l96.8,55.88751l-96.8,55.88751z" fill="#cda9ff"/><path d="M842,91.44998v111.77501l-96.8,55.88751v-111.77501z" fill="#443857"/></g><g><path d="M842,91.44998l96.8,-55.88751l96.8,55.88751v111.77501l-96.8,55.88751l-96.8,-55.88751z" fill="#5b9496"/><path d="M842,91.44998l96.8,-55.88751l96.8,55.88751l-96.8,55.88751z" fill="#89dee1"/><path d="M1035.6,91.44998v111.77501l-96.8,55.88751v-111.77501z" fill="#2e4a4b"/></g><g><path d="M1035.6,91.44998l96.8,-55.88751l96.8,55.88751v111.77501l-96.8,55.88751l-96.8,-55.88751z" fill="#747474"/><path d="M1035.6,91.44998l96.8,-55.88751l96.8,55.88751l-96.8,55.88751z" fill="#aeaeae"/><path d="M1229.2,91.44998v111.77501l-96.8,55.88751v-111.77501z" fill="#3a3a3a"/></g><g><path d="M-29.2,259.11249l96.8,-55.88751l96.8,55.88751v111.77501l-96.8,55.88751l-96.8,-55.88751z" fill="#3bc6d8"/><path d="M-29.2,259.11249l96.8,-55.88751l96.8,55.88751l-96.8,55.88751z" fill="#59ffff"/><path d="M164.4,259.11249v111.77501l-96.8,55.88751v-111.77501z" fill="#1e636c"/></g><g><path d="M164.4,259.11249l96.8,-55.88751l96.8,55.88751v111.77501l-96.8,55.88751l-96.8,-55.88751z" fill="#5bb8ed"/><path d="M164.4,259.11249l96.8,-55.88751l96.8,55.88751l-96.8,55.88751z" fill="#88ffff"/><path d="M358,259.11249v111.77501l-96.8,55.88751v-111.77501z" fill="#2d5c76"/></g><g><path d="M358,259.11249l96.8,-55.88751l96.8,55.88751v111.77501l-96.8,55.88751l-96.8,-55.88751z" fill="#39d7ec"/><path d="M358,259.11249l96.8,-55.88751l96.8,55.88751l-96.8,55.88751z" fill="#55ffff"/><path d="M551.6,259.11249v111.77501l-96.8,55.88751v-111.77501z" fill="#1c6c76"/></g><g><path d="M551.6,259.11249l96.8,-55.88751l96.8,55.88751v111.77501l-96.8,55.88751l-96.8,-55.88751z" fill="#4fb0d2"/><path d="M551.6,259.11249l96.8,-55.88751l96.8,55.88751l-96.8,55.88751z" fill="#76ffff"/><path d="M745.2,259.11249v111.77501l-96.8,55.88751v-111.77501z" fill="#275869"/></g><g><path d="M745.2,259.11249l96.8,-55.88751l96.8,55.88751v111.77501l-96.8,55.88751l-96.8,-55.88751z" fill="#45b5cb"/><path d="M745.2,259.11249l96.8,-55.88751l96.8,55.88751l-96.8,55.88751z" fill="#68ffff"/><path d="M938.8,259.11249v111.77501l-96.8,55.88751v-111.77501z" fill="#235b65"/></g><g><path d="M938.8,259.11249l96.8,-55.88751l96.8,55.88751v111.77501l-96.8,55.88751l-96.8,-55.88751z" fill="#3dcaca"/><path d="M938.8,259.11249l96.8,-55.88751l96.8,55.88751l-96.8,55.88751z" fill="#5cffff"/><path d="M1132.4,259.11249v111.77501l-96.8,55.88751v-111.77501z" fill="#1f6565"/></g><g><path d="M1132.4,259.11249l96.8,-55.88751l96.8,55.88751v111.77501l-96.8,55.88751l-96.8,-55.88751z" fill="#44c0c0"/><path d="M1132.4,259.11249l96.8,-55.88751l96.8,55.88751l-96.8,55.88751z" fill="#66ffff"/><path d="M1326,259.11249v111.77501l-96.8,55.88751v-111.77501z" fill="#226060"/></g><g><path d="M-126,426.77501l96.8,-55.88751l96.8,55.88751v111.77501l-96.8,55.88751l-96.8,-55.88751z" fill="#346c6c"/><path d="M-126,426.77501l96.8,-55.88751l96.8,55.88751l-96.8,55.88751z" fill="#4ea2a2"/><path d="M67.6,426.77501v111.77501l-96.8,55.88751v-111.77501z" fill="#1a3636"/></g><g><path d="M67.6,426.77501l96.8,-55.88751l96.8,55.88751v111.77501l-96.8,55.88751l-96.8,-55.88751z" fill="#49e2ee"/><path d="M67.6,426.77501l96.8,-55.88751l96.8,55.88751l-96.8,55.88751z" fill="#6effff"/><path d="M261.2,426.77501v111.77501l-96.8,55.88751v-111.77501z" fill="#257177"/></g><g><path d="M261.2,426.77501l96.8,-55.88751l96.8,55.88751v111.77501l-96.8,55.88751l-96.8,-55.88751z" fill="#3bf0f1"/><path d="M261.2,426.77501l96.8,-55.88751l96.8,55.88751l-96.8,55.88751z" fill="#58ffff"/><path d="M454.8,426.77501v111.77501l-96.8,55.88751v-111.77501z" fill="#1d7879"/></g><g><path d="M454.8,426.77501l96.8,-55.88751l96.8,55.88751v111.77501l-96.8,55.88751l-96.8,-55.88751z" fill="#47ccce"/><path d="M454.8,426.77501l96.8,-55.88751l96.8,55.88751l-96.8,55.88751z" fill="#6bffff"/><path d="M648.4,426.77501v111.77501l-96.8,55.88751v-111.77501z" fill="#246667"/></g><g><path d="M648.4,426.77501l96.8,-55.88751l96.8,55.88751v111.77501l-96.8,55.88751l-96.8,-55.88751z" fill="#3ff1f4"/><path d="M648.4,426.77501l96.8,-55.88751l96.8,55.88751l-96.8,55.88751z" fill="#5effff"/><path d="M842,426.77501v111.77501l-96.8,55.88751v-111.77501z" fill="#1f797a"/></g><g><path d="M842,426.77501l96.8,-55.88751l96.8,55.88751v111.77501l-96.8,55.88751l-96.8,-55.88751z" fill="#40eaea"/><path d="M842,426.77501l96.8,-55.88751l96.8,55.88751l-96.8,55.88751z" fill="#5fffff"/><path d="M1035.6,426.77501v111.77501l-96.8,55.88751v-111.77501z" fill="#207575"/></g><g><path d="M1035.6,426.77501l96.8,-55.88751l96.8,55.88751v111.77501l-96.8,55.88751l-96.8,-55.88751z" fill="#48dcde"/><path d="M1035.6,426.77501l96.8,-55.88751l96.8,55.88751l-96.8,55.88751z" fill="#6cffff"/><path d="M1229.2,426.77501v111.77501l-96.8,55.88751v-111.77501z" fill="#246e6f"/></g><g><path d="M-29.2,594.43753l96.8,-55.88751l96.8,55.88751v111.77501l-96.8,55.88751l-96.8,-55.88751z" fill="#8376d7"/><path d="M-29.2,594.43753l96.8,-55.88751l96.8,55.88751l-96.8,55.88751z" fill="#c4b0ff"/><path d="M164.4,594.43753v111.77501l-96.8,55.88751v-111.77501z" fill="#413b6c"/></g><g><path d="M164.4,594.43753l96.8,-55.88751l96.8,55.88751v111.77501l-96.8,55.88751l-96.8,-55.88751z" fill="#7c82da"/><path d="M164.4,594.43753l96.8,-55.88751l96.8,55.88751l-96.8,55.88751z" fill="#bac3ff"/><path d="M358,594.43753v111.77501l-96.8,55.88751v-111.77501z" fill="#3e416d"/></g><g><path d="M358,594.43753l96.8,-55.88751l96.8,55.88751v111.77501l-96.8,55.88751l-96.8,-55.88751z" fill="#66acef"/><path d="M358,594.43753l96.8,-55.88751l96.8,55.88751l-96.8,55.88751z" fill="#9affff"/><path d="M551.6,594.43753v111.77501l-96.8,55.88751v-111.77501z" fill="#335678"/></g><g><path d="M551.6,594.43753l96.8,-55.88751l96.8,55.88751v111.77501l-96.8,55.88751l-96.8,-55.88751z" fill="#5bbaea"/><path d="M551.6,594.43753l96.8,-55.88751l96.8,55.88751l-96.8,55.88751z" fill="#88ffff"/><path d="M745.2,594.43753v111.77501l-96.8,55.88751v-111.77501z" fill="#2d5d75"/></g><g><path d="M745.2,594.43753l96.8,-55.88751l96.8,55.88751v111.77501l-96.8,55.88751l-96.8,-55.88751z" fill="#769ced"/><path d="M745.2,594.43753l96.8,-55.88751l96.8,55.88751l-96.8,55.88751z" fill="#b1eaff"/><path d="M938.8,594.43753v111.77501l-96.8,55.88751v-111.77501z" fill="#3b4e76"/></g><g><path d="M938.8,594.43753l96.8,-55.88751l96.8,55.88751v111.77501l-96.8,55.88751l-96.8,-55.88751z" fill="#6cacef"/><path d="M938.8,594.43753l96.8,-55.88751l96.8,55.88751l-96.8,55.88751z" fill="#a1ffff"/><path d="M1132.4,594.43753v111.77501l-96.8,55.88751v-111.77501z" fill="#365678"/></g><g><path d="M1132.4,594.43753l96.8,-55.88751l96.8,55.88751v111.77501l-96.8,55.88751l-96.8,-55.88751z" fill="#6fb2ef"/><path d="M1132.4,594.43753l96.8,-55.88751l96.8,55.88751l-96.8,55.88751z" fill="#a6ffff"/><path d="M1326,594.43753v111.77501l-96.8,55.88751v-111.77501z" fill="#375977"/></g><g><path d="M-126,762.10005l96.8,-55.88751l96.8,55.88751v111.77501l-96.8,55.88751l-96.8,-55.88751z" fill="#000000"/><path d="M-126,762.10005l96.8,-55.88751l96.8,55.88751l-96.8,55.88751z" fill="#ffffff"/><path d="M67.6,762.10005v111.77501l-96.8,55.88751v-111.77501z" fill="#000000"/></g><g><path d="M67.6,762.10005l96.8,-55.88751l96.8,55.88751v111.77501l-96.8,55.88751l-96.8,-55.88751z" fill="#000000"/><path d="M67.6,762.10005l96.8,-55.88751l96.8,55.88751l-96.8,55.88751z" fill="#ffffff"/><path d="M261.2,762.10005v111.77501l-96.8,55.88751v-111.77501z" fill="#000000"/></g><g><path d="M261.2,762.10005l96.8,-55.88751l96.8,55.88751v111.77501l-96.8,55.88751l-96.8,-55.88751z" fill="#000000"/><path d="M261.2,762.10005l96.8,-55.88751l96.8,55.88751l-96.8,55.88751z" fill="#ffffff"/><path d="M454.8,762.10005v111.77501l-96.8,55.88751v-111.77501z" fill="#000000"/></g><g><path d="M454.8,762.10005l96.8,-55.88751l96.8,55.88751v111.77501l-96.8,55.88751l-96.8,-55.88751z" fill="#000000"/><path d="M454.8,762.10005l96.8,-55.88751l96.8,55.88751l-96.8,55.88751z" fill="#ffffff"/><path d="M648.4,762.10005v111.77501l-96.8,55.88751v-111.77501z" fill="#000000"/></g><g><path d="M648.4,762.10005l96.8,-55.88751l96.8,55.88751v111.77501l-96.8,55.88751l-96.8,-55.88751z" fill="#000000"/><path d="M648.4,762.10005l96.8,-55.88751l96.8,55.88751l-96.8,55.88751z" fill="#ffffff"/><path d="M842,762.10005v111.77501l-96.8,55.88751v-111.77501z" fill="#000000"/></g><g><path d="M842,762.10005l96.8,-55.88751l96.8,55.88751v111.77501l-96.8,55.88751l-96.8,-55.88751z" fill="#000000"/><path d="M842,762.10005l96.8,-55.88751l96.8,55.88751l-96.8,55.88751z" fill="#ffffff"/><path d="M1035.6,762.10005v111.77501l-96.8,55.88751v-111.77501z" fill="#000000"/></g><g><path d="M1035.6,762.10005l96.8,-55.88751l96.8,55.88751v111.77501l-96.8,55.88751l-96.8,-55.88751z" fill="#000000"/><path d="M1035.6,762.10005l96.8,-55.88751l96.8,55.88751l-96.8,55.88751z" fill="#ffffff"/><path d="M1229.2,762.10005v111.77501l-96.8,55.88751v-111.77501z" fill="#000000"/></g></g></g></svg>