<svg version="1.1" xmlns="http://www.w3.org/2000/svg" xmlns:xlink="http://www.w3.org/1999/xlink" width="1200" height="675" viewBox="0,0,1200,675"><g fill="none" fill-rule="nonzero" stroke="none" stroke-width="1" stroke-linecap="butt" stroke-linejoin="miter" stroke-miterlimit="10" stroke-dasharray="" stroke-dashoffset="0" font-family="none" font-weight="none" font-size="none" text-anchor="none" style="mix-blend-mode: normal"><g><g><path d="M-60,-198.79425l48.88889,-28.22601l48.88889,28.22601v56.45203l-48.88889,28.22601l-48.88889,-28.22601z" fill="#000000"/><path d="M-60,-198.79425l48.88889,-28.22601l48.88889,28.22601l-48.88889,28.22601z" fill="#ffffff"/><path d="M37.77778,-198.79425v56.45203l-48.88889,28.22601v-56.45203z" fill="#000000"/></g><g><path d="M37.77778,-198.79425l48.88889,-28.22601l48.88889,28.22601v56.45203l-48.88889,28.22601l-48.88889,-28.22601z" fill="#000000"/><path d="M37.77778,-198.79425l48.88889,-28.22601l48.88889,28.22601l-48.88889,28.22601z" fill="#ffffff"/><path d="M135.55556,-198.79425v56.45203l-48.88889,28.22601v-56.45203z" fill="#000000"/></g><g><path d="M135.55556,-198.79425l48.88889,-28.22601l48.88889,28.22601v56.45203l-48.88889,28.22601l-48.88889,-28.22601z" fill="#000000"/><path d="M135.55556,-198.79425l48.88889,-28.22601l48.88889,28.22601l-48.88889,28.22601z" fill="#ffffff"/><path d="M233.33333,-198.79425v56.45203l-48.88889,28.22601v-56.45203z" fill="#000000"/></g><g><path d="M233.33333,-198.79425l48.88889,-28.22601l48.88889,28.22601v56.45203l-48.88889,28.22601l-48.88889,-28.22601z" fill="#000000"/><path d="M233.33333,-198.79425l48.88889,-28.22601l48.88889,28.22601l-48.88889,28.22601z" fill="#ffffff"/><path d="M331.11111,-198.79425v56.45203l-48.88889,28.22601v-56.45203z" fill="#000000"/></g><g><path d="M331.11111,-198.79425l48.88889,-28.22601l48.88889,28.22601v56.45203l-48.88889,28.22601l-48.88889,-28.22601z" fill="#000000"/><path d="M331.11111,-198.79425l48.88889,-28.22601l48.88889,28.22601l-48.88889,28.22601z" fill="#ffffff"/><path d="M428.88889,-198.79425v56.45203l-48.88889,28.22601v-56.45203z" fill="#000000"/></g><g><path d="M428.88889,-198.79425l48.88889,-28.22601l48.88889,28.22601v56.45203l-48.88889,28.22601l-48.88889,-28.22601z" fill="#000000"/><path d="M428.88889,-198.79425l48.88889,-28.22601l48.88889,28.22601l-48.88889,28.22601z" fill="#ffffff"/><path d="M526.66667,-198.79425v56.45203l-48.88889,28.22601v-56.45203z" fill="#000000"/></g><g><path d="M526.66667,-198.79425l48.88889,-28.22601l48.88889,28.22601v56.45203l-48.88889,28.22601l-48.88889,-28.22601z" fill="#000000"/><path d="M526.66667,-198.79425l48.88889,-28.22601l48.88889,28.22601l-48.88889,28.22601z" fill="#ffffff"/><path d="M624.44444,-198.79425v56.45203l-48.88889,28.22601v-56.45203z" fill="#000000"/></g><g><path d="M624.44444,-198.79425l48.88889,-28.22601l48.88889,28.22601v56.45203l-48.88889,28.22601l-48.88889,-28.22601z" fill="#000000"/><path d="M624.44444,-198.79425l48.88889,-28.22601l48.88889,28.22601l-48.88889,28.22601z" fill="#ffffff"/><path d="M722.22222,-198.79425v56.45203l-48.88889,28.22601v-56.45203z" fill="#000000"/></g><g><path d="M722.22222,-198.79425l48.88889,-28.22601l48.88889,28.22601v56.45203l-48.88889,28.22601l-48.88889,-28.22601z" fill="#000000"/><path d="M722.22222,-198.79425l48.88889,-28.22601l48.88889,28.22601l-48.88889,28.22601z" fill="#ffffff"/><path d="M820,-198.79425v56.45203l-48.88889,28.22601v-56.45203z" fill="#000000"/></g><g><path d="M820,-198.79425l48.88889,-28.22601l48.88889,28.22601v56.45203l-48.88889,28.22601l-48.88889,-28.22601z" fill="#000000"/><path d="M820,-198.79425l48.88889,-28.22601l48.88889,28.22601l-48.88889,28.22601z" fill="#ffffff"/><path d="M917.77778,-198.79425v56.45203l-48.88889,28.22601v-56.45203z" fill="#000000"/></g><g><path d="M917.77778,-198.79425l48.88889,-28.22601l48.88889,28.22601v56.45203l-48.88889,28.22601l-48.88889,-28.22601z" fill="#000000"/><path d="M917.77778,-198.79425l48.88889,-28.22601l48.88889,28.22601l-48.88889,28.22601z" fill="#ffffff"/><path d="M1015.55556,-198.79425v56.45203l-48.88889,28.22601v-56.45203z" fill="#000000"/></g><g><path d="M1015.55556,-198.79425l48.88889,-28.22601l48.88889,28.22601v56.45203l-48.88889,28.22601l-48.88889,-28.22601z" fill="#000000"/><path d="M1015.55556,-198.79425l48.88889,-28.22601l48.88889,28.22601l-48.88889,28.22601z" fill="#ffffff"/><path d="M1113.33333,-198.79425v56.45203l-48.88889,28.22601v-56.45203z" fill="#000000"/></g><g><path d="M1113.33333,-198.79425l48.88889,-28.22601l48.88889,28.22601v56.45203l-48.88889,28.22601l-48.88889,-28.22601z" fill="#000000"/><path d="M1113.33333,-198.79425l48.88889,-28.22601l48.88889,28.22601l-48.88889,28.22601z" fill="#ffffff"/><path d="M1211.11111,-198.79425v56.45203l-48.88889,28.22601v-56.45203z" fill="#000000"/></g><g><path d="M-11.11111,-114.11621l48.88889,-28.22601l48.88889,28.22601v56.45203l-48.88889,28.22601l-48.88889,-28.22601z" fill="#000000"/><path d="M-11.11111,-114.11621l48.88889,-28.22601l48.88889,28.22601l-48.88889,28.22601z" fill="#ffffff"/><path d="M86.66667,-114.11621v56.45203l-48.88889,28.22601v-56.45203z" fill="#000000"/></g><g><path d="M86.66667,-114.11621l48.88889,-28.22601l48.88889,28.22601v56.45203l-48.88889,28.22601l-48.88889,-28.22601z" fill="#000000"/><path d="M86.66667,-114.11621l48.88889,-28.22601l48.88889,28.22601l-48.88889,28.22601z" fill="#ffffff"/><path d="M184.44444,-114.11621v56.45203l-48.88889,28.22601v-56.45203z" fill="#000000"/></g><g><path d="M184.44444,-114.11621l48.88889,-28.22601l48.88889,28.22601v56.45203l-48.88889,28.22601l-48.88889,-28.22601z" fill="#000000"/><path d="M184.44444,-114.11621l48.88889,-28.22601l48.88889,28.22601l-48.88889,28.22601z" fill="#ffffff"/><path d="M282.22222,-114.11621v56.45203l-48.88889,28.22601v-56.45203z" fill="#000000"/></g><g><path d="M282.22222,-114.11621l48.88889,-28.22601l48.88889,28.22601v56.45203l-48.88889,28.22601l-48.88889,-28.22601z" fill="#000000"/><path d="M282.22222,-114.11621l48.88889,-28.22601l48.88889,28.22601l-48.88889,28.22601z" fill="#ffffff"/><path d="M380,-114.11621v56.45203l-48.88889,28.22601v-56.45203z" fill="#000000"/></g><g><path d="M380,-114.11621l48.88889,-28.22601l48.88889,28.22601v56.45203l-48.88889,28.22601l-48.88889,-28.22601z" fill="#000000"/><path d="M380,-114.11621l48.88889,-28.22601l48.88889,28.22601l-48.88889,28.22601z" fill="#ffffff"/><path d="M477.77778,-114.11621v56.45203l-48.88889,28.22601v-56.45203z" fill="#000000"/></g><g><path d="M477.77778,-114.11621l48.88889,-28.22601l48.88889,28.22601v56.45203l-48.88889,28.22601l-48.88889,-28.22601z" fill="#000000"/><path d="M477.77778,-114.11621l48.88889,-28.22601l48.88889,28.22601l-48.88889,28.22601z" fill="#ffffff"/><path d="M575.55556,-114.11621v56.45203l-48.88889,28.22601v-56.45203z" fill="#000000"/></g><g><path d="M575.55556,-114.11621l48.88889,-28.22601l48.88889,28.22601v56.45203l-48.88889,28.22601l-48.88889,-28.22601z" fill="#000000"/><path d="M575.55556,-114.11621l48.88889,-28.22601l48.88889,28.22601l-48.88889,28.22601z" fill="#ffffff"/><path d="M673.33333,-114.11621v56.45203l-48.88889,28.22601v-56.45203z" fill="#000000"/></g><g><path d="M673.33333,-114.11621l48.88889,-28.22601l48.88889,28.22601v56.45203l-48.88889,28.22601l-48.88889,-28.22601z" fill="#000000"/><path d="M673.33333,-114.11621l48.88889,-28.22601l48.88889,28.22601l-48.88889,28.22601z" fill="#ffffff"/><path d="M771.11111,-114.11621v56.45203l-48.88889,28.22601v-56.45203z" fill="#000000"/></g><g><path d="M771.11111,-114.11621l48.88889,-28.22601l48.88889,28.22601v56.45203l-48.88889,28.22601l-48.88889,-28.22601z" fill="#000000"/><path d="M771.11111,-114.11621l48.88889,-28.22601l48.88889,28.22601l-48.88889,28.22601z" fill="#ffffff"/><path d="M868.88889,-114.11621v56.45203l-48.88889,28.22601v-56.45203z" fill="#000000"/></g><g><path d="M868.88889,-114.11621l48.88889,-28.22601l48.88889,28.22601v56.45203l-48.88889,28.22601l-48.88889,-28.22601z" fill="#000000"/><path d="M868.88889,-114.11621l48.88889,-28.22601l48.88889,28.22601l-48.88889,28.22601z" fill="#ffffff"/><path d="M966.66667,-114.11621v56.45203l-48.88889,28.22601v-56.45203z" fill="#000000"/></g><g><path d="M966.66667,-114.11621l48.88889,-28.22601l48.88889,28.22601v56.45203l-48.88889,28.22601l-48.88889,-28.22601z" fill="#000000"/><path d="M966.66667,-114.11621l48.88889,-28.22601l48.88889,28.22601l-48.88889,28.22601z" fill="#ffffff"/><path d="M1064.44444,-114.11621v56.45203l-48.88889,28.22601v-56.45203z" fill="#000000"/></g><g><path d="M1064.44444,-114.11621l48.88889,-28.22601l48.88889,28.22601v56.45203l-48.88889,28.22601l-48.88889,-28.22601z" fill="#000000"/><path d="M1064.44444,-114.11621l48.88889,-28.22601l48.88889,28.22601l-48.88889,28.22601z" fill="#ffffff"/><path d="M1162.22222,-114.11621v56.45203l-48.88889,28.22601v-56.45203z" fill="#000000"/></g><g><path d="M1162.22222,-114.11621l48.88889,-28.22601l48.88889,28.22601v56.45203l-48.88889,28.22601l-48.88889,-28.22601z" fill="#000000"/><path d="M1162.22222,-114.11621l48.88889,-28.22601l48.88889,28.22601l-48.88889,28.22601z" fill="#ffffff"/><path d="M1260,-114.11621v56.45203l-48.88889,28.22601v-56.45203z" fill="#000000"/></g><g><path d="M-60,-29.43817l48.88889,-28.22601l48.88889,28.22601v56.45203l-48.88889,28.22601l-48.88889,-28.22601z" fill="#816982"/><path d="M-60,-29.43817l48.88889,-28.22601l48.88889,28.22601l-48.88889,28.22601z" fill="#c29dc3"/><path d="M37.77778,-29.43817v56.45203l-48.88889,28.22601v-56.45203z" fill="#413441"/></g><g><path d="M37.77778,-29.43817l48.88889,-28.22601l48.88889,28.22601v56.45203l-48.88889,28.22601l-48.88889,-28.22601z" fill="#cea3db"/><path d="M37.77778,-29.43817l48.88889,-28.22601l48.88889,28.22601l-48.88889,28.22601z" fill="#fff4ff"/><path d="M135.55556,-29.43817v56.45203l-48.88889,28.22601v-56.45203z" fill="#67516d"/></g><g><path d="M135.55556,-29.43817l48.88889,-28.22601l48.88889,28.22601v56.45203l-48.88889,28.22601l-48.88889,-28.22601z" fill="#c2add7"/><path d="M135.55556,-29.43817l48.88889,-28.22601l48.88889,28.22601l-48.88889,28.22601z" fill="#ffffff"/><path d="M233.33333,-29.43817v56.45203l-48.88889,28.22601v-56.45203z" fill="#61566b"/></g><g><path d="M233.33333,-29.43817l48.88889,-28.22601l48.88889,28.22601v56.45203l-48.88889,28.22601l-48.88889,-28.22601z" fill="#beb2d3"/><path d="M233.33333,-29.43817l48.88889,-28.22601l48.88889,28.22601l-48.88889,28.22601z" fill="#ffffff"/><path d="M331.11111,-29.43817v56.45203l-48.88889,28.22601v-56.45203z" fill="#5f596a"/></g><g><path d="M331.11111,-29.43817l48.88889,-28.22601l48.88889,28.22601v56.45203l-48.88889,28.22601l-48.88889,-28.22601z" fill="#caa4d7"/><path d="M331.11111,-29.43817l48.88889,-28.22601l48.88889,28.22601l-48.88889,28.22601z" fill="#fff7ff"/><path d="M428.88889,-29.43817v56.45203l-48.88889,28.22601v-56.45203z" fill="#65526b"/></g><g><path d="M428.88889,-29.43817l48.88889,-28.22601l48.88889,28.22601v56.45203l-48.88889,28.22601l-48.88889,-28.22601z" fill="#c4a0c4"/><path d="M428.88889,-29.43817l48.88889,-28.22601l48.88889,28.22601l-48.88889,28.22601z" fill="#fff0ff"/><path d="M526.66667,-29.43817v56.45203l-48.88889,28.22601v-56.45203z" fill="#625062"/></g><g><path d="M526.66667,-29.43817l48.88889,-28.22601l48.88889,28.22601v56.45203l-48.88889,28.22601l-48.88889,-28.22601z" fill="#c79dc7"/><path d="M526.66667,-29.43817l48.88889,-28.22601l48.88889,28.22601l-48.88889,28.22601z" fill="#ffecff"/><path d="M624.44444,-29.43817v56.45203l-48.88889,28.22601v-56.45203z" fill="#644f64"/></g><g><path d="M624.44444,-29.43817l48.88889,-28.22601l48.88889,28.22601v56.45203l-48.88889,28.22601l-48.88889,-28.22601z" fill="#c89ec8"/><path d="M624.44444,-29.43817l48.88889,-28.22601l48.88889,28.22601l-48.88889,28.22601z" fill="#ffedff"/><path d="M722.22222,-29.43817v56.45203l-48.88889,28.22601v-56.45203z" fill="#644f64"/></g><g><path d="M722.22222,-29.43817l48.88889,-28.22601l48.88889,28.22601v56.45203l-48.88889,28.22601l-48.88889,-28.22601z" fill="#c59bc5"/><path d="M722.22222,-29.43817l48.88889,-28.22601l48.88889,28.22601l-48.88889,28.22601z" fill="#ffe9ff"/><path d="M820,-29.43817v56.45203l-48.88889,28.22601v-56.45203z" fill="#624e62"/></g><g><path d="M820,-29.43817l48.88889,-28.22601l48.88889,28.22601v56.45203l-48.88889,28.22601l-48.88889,-28.22601z" fill="#c19cc1"/><path d="M820,-29.43817l48.88889,-28.22601l48.88889,28.22601l-48.88889,28.22601z" fill="#ffebff"/><path d="M917.77778,-29.43817v56.45203l-48.88889,28.22601v-56.45203z" fill="#614e61"/></g><g><path d="M917.77778,-29.43817l48.88889,-28.22601l48.88889,28.22601v56.45203l-48.88889,28.22601l-48.88889,-28.22601z" fill="#baa8ba"/><path d="M917.77778,-29.43817l48.88889,-28.22601l48.88889,28.22601l-48.88889,28.22601z" fill="#fffcff"/><path d="M1015.55556,-29.43817v56.45203l-48.88889,28.22601v-56.45203z" fill="#5d545d"/></g><g><path d="M1015.55556,-29.43817l48.88889,-28.22601l48.88889,28.22601v56.45203l-48.88889,28.22601l-48.88889,-28.22601z" fill="#bfa0bf"/><path d="M1015.55556,-29.43817l48.88889,-28.22601l48.88889,28.22601l-48.88889,28.22601z" fill="#fff0ff"/><path d="M1113.33333,-29.43817v56.45203l-48.88889,28.22601v-56.45203z" fill="#5f505f"/></g><g><path d="M1113.33333,-29.43817l48.88889,-28.22601l48.88889,28.22601v56.45203l-48.88889,28.22601l-48.88889,-28.22601z" fill="#bba7bb"/><path d="M1113.33333,-29.43817l48.88889,-28.22601l48.88889,28.22601l-48.88889,28.22601z" fill="#fffaff"/><path d="M1211.11111,-29.43817v56.45203l-48.88889,28.22601v-56.45203z" fill="#5d535d"/></g><g><path d="M-11.11111,55.23987l48.88889,-28.22601l48.88889,28.22601v56.45203l-48.88889,28.22601l-48.88889,-28.22601z" fill="#ae5dae"/><path d="M-11.11111,55.23987l48.88889,-28.22601l48.88889,28.22601l-48.88889,28.22601z" fill="#ff8cff"/><path d="M86.66667,55.23987v56.45203l-48.88889,28.22601v-56.45203z" fill="#572f57"/></g><g><path d="M86.66667,55.23987l48.88889,-28.22601l48.88889,28.22601v56.45203l-48.88889,28.22601l-48.88889,-28.22601z" fill="#d26bd2"/><path d="M86.66667,55.23987l48.88889,-28.22601l48.88889,28.22601l-48.88889,28.22601z" fill="#ffa1ff"/><path d="M184.44444,55.23987v56.45203l-48.88889,28.22601v-56.45203z" fill="#693669"/></g><g><path d="M184.44444,55.23987l48.88889,-28.22601l48.88889,28.22601v56.45203l-48.88889,28.22601l-48.88889,-28.22601z" fill="#cf6bcf"/><path d="M184.44444,55.23987l48.88889,-28.22601l48.88889,28.22601l-48.88889,28.22601z" fill="#ffa0ff"/><path d="M282.22222,55.23987v56.45203l-48.88889,28.22601v-56.45203z" fill="#683568"/></g><g><path d="M282.22222,55.23987l48.88889,-28.22601l48.88889,28.22601v56.45203l-48.88889,28.22601l-48.88889,-28.22601z" fill="#d368d4"/><path d="M282.22222,55.23987l48.88889,-28.22601l48.88889,28.22601l-48.88889,28.22601z" fill="#ff9bff"/><path d="M380,55.23987v56.45203l-48.88889,28.22601v-56.45203z" fill="#6a346a"/></g><g><path d="M380,55.23987l48.88889,-28.22601l48.88889,28.22601v56.45203l-48.88889,28.22601l-48.88889,-28.22601z" fill="#cf68cf"/><path d="M380,55.23987l48.88889,-28.22601l48.88889,28.22601l-48.88889,28.22601z" fill="#ff9cff"/><path d="M477.77778,55.23987v56.45203l-48.88889,28.22601v-56.45203z" fill="#683468"/></g><g><path d="M477.77778,55.23987l48.88889,-28.22601l48.88889,28.22601v56.45203l-48.88889,28.22601l-48.88889,-28.22601z" fill="#d16ad1"/><path d="M477.77778,55.23987l48.88889,-28.22601l48.88889,28.22601l-48.88889,28.22601z" fill="#ff9fff"/><path d="M575.55556,55.23987v56.45203l-48.88889,28.22601v-56.45203z" fill="#693569"/></g><g><path d="M575.55556,55.23987l48.88889,-28.22601l48.88889,28.22601v56.45203l-48.88889,28.22601l-48.88889,-28.22601z" fill="#cf6bcf"/><path d="M575.55556,55.23987l48.88889,-28.22601l48.88889,28.22601l-48.88889,28.22601z" fill="#ffa1ff"/><path d="M673.33333,55.23987v56.45203l-48.88889,28.22601v-56.45203z" fill="#673667"/></g><g><path d="M673.33333,55.23987l48.88889,-28.22601l48.88889,28.22601v56.45203l-48.88889,28.22601l-48.88889,-28.22601z" fill="#d16ad1"/><path d="M673.33333,55.23987l48.88889,-28.22601l48.88889,28.22601l-48.88889,28.22601z" fill="#ff9eff"/><path d="M771.11111,55.23987v56.45203l-48.88889,28.22601v-56.45203z" fill="#683568"/></g><g><path d="M771.11111,55.23987l48.88889,-28.22601l48.88889,28.22601v56.45203l-48.88889,28.22601l-48.88889,-28.22601z" fill="#e146e1"/><path d="M771.11111,55.23987l48.88889,-28.22601l48.88889,28.22601l-48.88889,28.22601z" fill="#ff69ff"/><path d="M868.88889,55.23987v56.45203l-48.88889,28.22601v-56.45203z" fill="#712371"/></g><g><path d="M868.88889,55.23987l48.88889,-28.22601l48.88889,28.22601v56.45203l-48.88889,28.22601l-48.88889,-28.22601z" fill="#e14ae1"/><path d="M868.88889,55.23987l48.88889,-28.22601l48.88889,28.22601l-48.88889,28.22601z" fill="#ff6eff"/><path d="M966.66667,55.23987v56.45203l-48.88889,28.22601v-56.45203z" fill="#702570"/></g><g><path d="M966.66667,55.23987l48.88889,-28.22601l48.88889,28.22601v56.45203l-48.88889,28.22601l-48.88889,-28.22601z" fill="#dd53dd"/><path d="M966.66667,55.23987l48.88889,-28.22601l48.88889,28.22601l-48.88889,28.22601z" fill="#ff7dff"/><path d="M1064.44444,55.23987v56.45203l-48.88889,28.22601v-56.45203z" fill="#6e2a6e"/></g><g><path d="M1064.44444,55.23987l48.88889,-28.22601l48.88889,28.22601v56.45203l-48.88889,28.22601l-48.88889,-28.22601z" fill="#d068d0"/><path d="M1064.44444,55.23987l48.88889,-28.22601l48.88889,28.22601l-48.88889,28.22601z" fill="#ff9bff"/><path d="M1162.22222,55.23987v56.45203l-48.88889,28.22601v-56.45203z" fill="#683468"/></g><g><path d="M1162.22222,55.23987l48.88889,-28.22601l48.88889,28.22601v56.45203l-48.88889,28.22601l-48.88889,-28.22601z" fill="#db50db"/><path d="M1162.22222,55.23987l48.88889,-28.22601l48.88889,28.22601l-48.88889,28.22601z" fill="#ff78ff"/><path d="M1260,55.23987v56.45203l-48.88889,28.22601v-56.45203z" fill="#6e286e"/></g><g><path d="M-60,139.91791l48.88889,-28.22601l48.88889,28.22601v56.45203l-48.88889,28.22601l-48.88889,-28.22601z" fill="#7b327b"/><path d="M-60,139.91791l48.88889,-28.22601l48.88889,28.22601l-48.88889,28.22601z" fill="#b94cb9"/><path d="M37.77778,139.91791v56.45203l-48.88889,28.22601v-56.45203z" fill="#3e193e"/></g><g><path d="M37.77778,139.91791l48.88889,-28.22601l48.88889,28.22601v56.45203l-48.88889,28.22601l-48.88889,-28.22601z" fill="#e159e1"/><path d="M37.77778,139.91791l48.88889,-28.22601l48.88889,28.22601l-48.88889,28.22601z" fill="#ff85ff"/><path d="M135.55556,139.91791v56.45203l-48.88889,28.22601v-56.45203z" fill="#712c71"/></g><g><path d="M135.55556,139.91791l48.88889,-28.22601l48.88889,28.22601v56.45203l-48.88889,28.22601l-48.88889,-28.22601z" fill="#dd57dd"/><path d="M135.55556,139.91791l48.88889,-28.22601l48.88889,28.22601l-48.88889,28.22601z" fill="#ff82ff"/><path d="M233.33333,139.91791v56.45203l-48.88889,28.22601v-56.45203z" fill="#6e2b6e"/></g><g><path d="M233.33333,139.91791l48.88889,-28.22601l48.88889,28.22601v56.45203l-48.88889,28.22601l-48.88889,-28.22601z" fill="#e552e5"/><path d="M233.33333,139.91791l48.88889,-28.22601l48.88889,28.22601l-48.88889,28.22601z" fill="#ff7bff"/><path d="M331.11111,139.91791v56.45203l-48.88889,28.22601v-56.45203z" fill="#732973"/></g><g><path d="M331.11111,139.91791l48.88889,-28.22601l48.88889,28.22601v56.45203l-48.88889,28.22601l-48.88889,-28.22601z" fill="#d15dd1"/><path d="M331.11111,139.91791l48.88889,-28.22601l48.88889,28.22601l-48.88889,28.22601z" fill="#ff8cff"/><path d="M428.88889,139.91791v56.45203l-48.88889,28.22601v-56.45203z" fill="#692f69"/></g><g><path d="M428.88889,139.91791l48.88889,-28.22601l48.88889,28.22601v56.45203l-48.88889,28.22601l-48.88889,-28.22601z" fill="#d15ed1"/><path d="M428.88889,139.91791l48.88889,-28.22601l48.88889,28.22601l-48.88889,28.22601z" fill="#ff8dff"/><path d="M526.66667,139.91791v56.45203l-48.88889,28.22601v-56.45203z" fill="#682f68"/></g><g><path d="M526.66667,139.91791l48.88889,-28.22601l48.88889,28.22601v56.45203l-48.88889,28.22601l-48.88889,-28.22601z" fill="#d15dd1"/><path d="M526.66667,139.91791l48.88889,-28.22601l48.88889,28.22601l-48.88889,28.22601z" fill="#ff8cff"/><path d="M624.44444,139.91791v56.45203l-48.88889,28.22601v-56.45203z" fill="#692f69"/></g><g><path d="M624.44444,139.91791l48.88889,-28.22601l48.88889,28.22601v56.45203l-48.88889,28.22601l-48.88889,-28.22601z" fill="#d459d4"/><path d="M624.44444,139.91791l48.88889,-28.22601l48.88889,28.22601l-48.88889,28.22601z" fill="#ff85ff"/><path d="M722.22222,139.91791v56.45203l-48.88889,28.22601v-56.45203z" fill="#6a2c6a"/></g><g><path d="M722.22222,139.91791l48.88889,-28.22601l48.88889,28.22601v56.45203l-48.88889,28.22601l-48.88889,-28.22601z" fill="#d359d3"/><path d="M722.22222,139.91791l48.88889,-28.22601l48.88889,28.22601l-48.88889,28.22601z" fill="#ff85ff"/><path d="M820,139.91791v56.45203l-48.88889,28.22601v-56.45203z" fill="#692c69"/></g><g><path d="M820,139.91791l48.88889,-28.22601l48.88889,28.22601v56.45203l-48.88889,28.22601l-48.88889,-28.22601z" fill="#dc48dc"/><path d="M820,139.91791l48.88889,-28.22601l48.88889,28.22601l-48.88889,28.22601z" fill="#ff6cff"/><path d="M917.77778,139.91791v56.45203l-48.88889,28.22601v-56.45203z" fill="#6e246e"/></g><g><path d="M917.77778,139.91791l48.88889,-28.22601l48.88889,28.22601v56.45203l-48.88889,28.22601l-48.88889,-28.22601z" fill="#dc4adc"/><path d="M917.77778,139.91791l48.88889,-28.22601l48.88889,28.22601l-48.88889,28.22601z" fill="#ff6fff"/><path d="M1015.55556,139.91791v56.45203l-48.88889,28.22601v-56.45203z" fill="#6e256e"/></g><g><path d="M1015.55556,139.91791l48.88889,-28.22601l48.88889,28.22601v56.45203l-48.88889,28.22601l-48.88889,-28.22601z" fill="#d15cd1"/><path d="M1015.55556,139.91791l48.88889,-28.22601l48.88889,28.22601l-48.88889,28.22601z" fill="#ff8aff"/><path d="M1113.33333,139.91791v56.45203l-48.88889,28.22601v-56.45203z" fill="#682e68"/></g><g><path d="M1113.33333,139.91791l48.88889,-28.22601l48.88889,28.22601v56.45203l-48.88889,28.22601l-48.88889,-28.22601z" fill="#c074c0"/><path d="M1113.33333,139.91791l48.88889,-28.22601l48.88889,28.22601l-48.88889,28.22601z" fill="#ffadff"/><path d="M1211.11111,139.91791v56.45203l-48.88889,28.22601v-56.45203z" fill="#603a60"/></g><g><path d="M-11.11111,224.59595l48.88889,-28.22601l48.88889,28.22601v56.45203l-48.88889,28.22601l-48.88889,-28.22601z" fill="#bb4bc0"/><path d="M-11.11111,224.59595l48.88889,-28.22601l48.88889,28.22601l-48.88889,28.22601z" fill="#ff70ff"/><path d="M86.66667,224.59595v56.45203l-48.88889,28.22601v-56.45203z" fill="#5d2560"/></g><g><path d="M86.66667,224.59595l48.88889,-28.22601l48.88889,28.22601v56.45203l-48.88889,28.22601l-48.88889,-28.22601z" fill="#d361e1"/><path d="M86.66667,224.59595l48.88889,-28.22601l48.88889,28.22601l-48.88889,28.22601z" fill="#ff91ff"/><path d="M184.44444,224.59595v56.45203l-48.88889,28.22601v-56.45203z" fill="#693071"/></g><g><path d="M184.44444,224.59595l48.88889,-28.22601l48.88889,28.22601v56.45203l-48.88889,28.22601l-48.88889,-28.22601z" fill="#cf64e0"/><path d="M184.44444,224.59595l48.88889,-28.22601l48.88889,28.22601l-48.88889,28.22601z" fill="#ff96ff"/><path d="M282.22222,224.59595v56.45203l-48.88889,28.22601v-56.45203z" fill="#673270"/></g><g><path d="M282.22222,224.59595l48.88889,-28.22601l48.88889,28.22601v56.45203l-48.88889,28.22601l-48.88889,-28.22601z" fill="#c36cd2"/><path d="M282.22222,224.59595l48.88889,-28.22601l48.88889,28.22601l-48.88889,28.22601z" fill="#ffa2ff"/><path d="M380,224.59595v56.45203l-48.88889,28.22601v-56.45203z" fill="#613669"/></g><g><path d="M380,224.59595l48.88889,-28.22601l48.88889,28.22601v56.45203l-48.88889,28.22601l-48.88889,-28.22601z" fill="#c866d5"/><path d="M380,224.59595l48.88889,-28.22601l48.88889,28.22601l-48.88889,28.22601z" fill="#ff99ff"/><path d="M477.77778,224.59595v56.45203l-48.88889,28.22601v-56.45203z" fill="#64336b"/></g><g><path d="M477.77778,224.59595l48.88889,-28.22601l48.88889,28.22601v56.45203l-48.88889,28.22601l-48.88889,-28.22601z" fill="#c661c8"/><path d="M477.77778,224.59595l48.88889,-28.22601l48.88889,28.22601l-48.88889,28.22601z" fill="#ff91ff"/><path d="M575.55556,224.59595v56.45203l-48.88889,28.22601v-56.45203z" fill="#633064"/></g><g><path d="M575.55556,224.59595l48.88889,-28.22601l48.88889,28.22601v56.45203l-48.88889,28.22601l-48.88889,-28.22601z" fill="#cb59cb"/><path d="M575.55556,224.59595l48.88889,-28.22601l48.88889,28.22601l-48.88889,28.22601z" fill="#ff86ff"/><path d="M673.33333,224.59595v56.45203l-48.88889,28.22601v-56.45203z" fill="#652d65"/></g><g><path d="M673.33333,224.59595l48.88889,-28.22601l48.88889,28.22601v56.45203l-48.88889,28.22601l-48.88889,-28.22601z" fill="#c85dc8"/><path d="M673.33333,224.59595l48.88889,-28.22601l48.88889,28.22601l-48.88889,28.22601z" fill="#ff8cff"/><path d="M771.11111,224.59595v56.45203l-48.88889,28.22601v-56.45203z" fill="#642f64"/></g><g><path d="M771.11111,224.59595l48.88889,-28.22601l48.88889,28.22601v56.45203l-48.88889,28.22601l-48.88889,-28.22601z" fill="#c95fc9"/><path d="M771.11111,224.59595l48.88889,-28.22601l48.88889,28.22601l-48.88889,28.22601z" fill="#ff8eff"/><path d="M868.88889,224.59595v56.45203l-48.88889,28.22601v-56.45203z" fill="#642f64"/></g><g><path d="M868.88889,224.59595l48.88889,-28.22601l48.88889,28.22601v56.45203l-48.88889,28.22601l-48.88889,-28.22601z" fill="#c85fc8"/><path d="M868.88889,224.59595l48.88889,-28.22601l48.88889,28.22601l-48.88889,28.22601z" fill="#ff8fff"/><path d="M966.66667,224.59595v56.45203l-48.88889,28.22601v-56.45203z" fill="#643064"/></g><g><path d="M966.66667,224.59595l48.88889,-28.22601l48.88889,28.22601v56.45203l-48.88889,28.22601l-48.88889,-28.22601z" fill="#c662c8"/><path d="M966.66667,224.59595l48.88889,-28.22601l48.88889,28.22601l-48.88889,28.22601z" fill="#ff93ff"/><path d="M1064.44444,224.59595v56.45203l-48.88889,28.22601v-56.45203z" fill="#633164"/></g><g><path d="M1064.44444,224.59595l48.88889,-28.22601l48.88889,28.22601v56.45203l-48.88889,28.22601l-48.88889,-28.22601z" fill="#c170c4"/><path d="M1064.44444,224.59595l48.88889,-28.22601l48.88889,28.22601l-48.88889,28.22601z" fill="#ffa8ff"/><path d="M1162.22222,224.59595v56.45203l-48.88889,28.22601v-56.45203z" fill="#613862"/></g><g><path d="M1162.22222,224.59595l48.88889,-28.22601l48.88889,28.22601v56.45203l-48.88889,28.22601l-48.88889,-28.22601z" fill="#bf87d8"/><path d="M1162.22222,224.59595l48.88889,-28.22601l48.88889,28.22601l-48.88889,28.22601z" fill="#ffcbff"/><path d="M1260,224.59595v56.45203l-48.88889,28.22601v-56.45203z" fill="#5f446c"/></g><g><path d="M-60,309.27399l48.88889,-28.22601l48.88889,28.22601v56.45203l-48.88889,28.22601l-48.88889,-28.22601z" fill="#554155"/><path d="M-60,309.27399l48.88889,-28.22601l48.88889,28.22601l-48.88889,28.22601z" fill="#7f617f"/><path d="M37.77778,309.27399v56.45203l-48.88889,28.22601v-56.45203z" fill="#2a202a"/></g><g><path d="M37.77778,309.27399l48.88889,-28.22601l48.88889,28.22601v56.45203l-48.88889,28.22601l-48.88889,-28.22601z" fill="#ba81e2"/><path d="M37.77778,309.27399l48.88889,-28.22601l48.88889,28.22601l-48.88889,28.22601z" fill="#ffc2ff"/><path d="M135.55556,309.27399v56.45203l-48.88889,28.22601v-56.45203z" fill="#5d4171"/></g><g><path d="M135.55556,309.27399l48.88889,-28.22601l48.88889,28.22601v56.45203l-48.88889,28.22601l-48.88889,-28.22601z" fill="#aaa0ec"/><path d="M135.55556,309.27399l48.88889,-28.22601l48.88889,28.22601l-48.88889,28.22601z" fill="#fef0ff"/><path d="M233.33333,309.27399v56.45203l-48.88889,28.22601v-56.45203z" fill="#555076"/></g><g><path d="M233.33333,309.27399l48.88889,-28.22601l48.88889,28.22601v56.45203l-48.88889,28.22601l-48.88889,-28.22601z" fill="#a9acf7"/><path d="M233.33333,309.27399l48.88889,-28.22601l48.88889,28.22601l-48.88889,28.22601z" fill="#fdffff"/><path d="M331.11111,309.27399v56.45203l-48.88889,28.22601v-56.45203z" fill="#54567c"/></g><g><path d="M331.11111,309.27399l48.88889,-28.22601l48.88889,28.22601v56.45203l-48.88889,28.22601l-48.88889,-28.22601z" fill="#a88eca"/><path d="M331.11111,309.27399l48.88889,-28.22601l48.88889,28.22601l-48.88889,28.22601z" fill="#fcd5ff"/><path d="M428.88889,309.27399v56.45203l-48.88889,28.22601v-56.45203z" fill="#544765"/></g><g><path d="M428.88889,309.27399l48.88889,-28.22601l48.88889,28.22601v56.45203l-48.88889,28.22601l-48.88889,-28.22601z" fill="#a39fe3"/><path d="M428.88889,309.27399l48.88889,-28.22601l48.88889,28.22601l-48.88889,28.22601z" fill="#f5efff"/><path d="M526.66667,309.27399v56.45203l-48.88889,28.22601v-56.45203z" fill="#525072"/></g><g><path d="M526.66667,309.27399l48.88889,-28.22601l48.88889,28.22601v56.45203l-48.88889,28.22601l-48.88889,-28.22601z" fill="#ac7cbd"/><path d="M526.66667,309.27399l48.88889,-28.22601l48.88889,28.22601l-48.88889,28.22601z" fill="#ffbaff"/><path d="M624.44444,309.27399v56.45203l-48.88889,28.22601v-56.45203z" fill="#563e5e"/></g><g><path d="M624.44444,309.27399l48.88889,-28.22601l48.88889,28.22601v56.45203l-48.88889,28.22601l-48.88889,-28.22601z" fill="#af6cb1"/><path d="M624.44444,309.27399l48.88889,-28.22601l48.88889,28.22601l-48.88889,28.22601z" fill="#ffa3ff"/><path d="M722.22222,309.27399v56.45203l-48.88889,28.22601v-56.45203z" fill="#583658"/></g><g><path d="M722.22222,309.27399l48.88889,-28.22601l48.88889,28.22601v56.45203l-48.88889,28.22601l-48.88889,-28.22601z" fill="#a586bc"/><path d="M722.22222,309.27399l48.88889,-28.22601l48.88889,28.22601l-48.88889,28.22601z" fill="#f7c9ff"/><path d="M820,309.27399v56.45203l-48.88889,28.22601v-56.45203z" fill="#52435e"/></g><g><path d="M820,309.27399l48.88889,-28.22601l48.88889,28.22601v56.45203l-48.88889,28.22601l-48.88889,-28.22601z" fill="#ab7cbc"/><path d="M820,309.27399l48.88889,-28.22601l48.88889,28.22601l-48.88889,28.22601z" fill="#ffbaff"/><path d="M917.77778,309.27399v56.45203l-48.88889,28.22601v-56.45203z" fill="#563e5e"/></g><g><path d="M917.77778,309.27399l48.88889,-28.22601l48.88889,28.22601v56.45203l-48.88889,28.22601l-48.88889,-28.22601z" fill="#a499d3"/><path d="M917.77778,309.27399l48.88889,-28.22601l48.88889,28.22601l-48.88889,28.22601z" fill="#f6e6ff"/><path d="M1015.55556,309.27399v56.45203l-48.88889,28.22601v-56.45203z" fill="#524d69"/></g><g><path d="M1015.55556,309.27399l48.88889,-28.22601l48.88889,28.22601v56.45203l-48.88889,28.22601l-48.88889,-28.22601z" fill="#a687c0"/><path d="M1015.55556,309.27399l48.88889,-28.22601l48.88889,28.22601l-48.88889,28.22601z" fill="#f8caff"/><path d="M1113.33333,309.27399v56.45203l-48.88889,28.22601v-56.45203z" fill="#534360"/></g><g><path d="M1113.33333,309.27399l48.88889,-28.22601l48.88889,28.22601v56.45203l-48.88889,28.22601l-48.88889,-28.22601z" fill="#9da0d8"/><path d="M1113.33333,309.27399l48.88889,-28.22601l48.88889,28.22601l-48.88889,28.22601z" fill="#ecf0ff"/><path d="M1211.11111,309.27399v56.45203l-48.88889,28.22601v-56.45203z" fill="#4f506c"/></g><g><path d="M-11.11111,393.95203l48.88889,-28.22601l48.88889,28.22601v56.45203l-48.88889,28.22601l-48.88889,-28.22601z" fill="#8c5998"/><path d="M-11.11111,393.95203l48.88889,-28.22601l48.88889,28.22601l-48.88889,28.22601z" fill="#d285e4"/><path d="M86.66667,393.95203v56.45203l-48.88889,28.22601v-56.45203z" fill="#462c4c"/></g><g><path d="M86.66667,393.95203l48.88889,-28.22601l48.88889,28.22601v56.45203l-48.88889,28.22601l-48.88889,-28.22601z" fill="#9aaafe"/><path d="M86.66667,393.95203l48.88889,-28.22601l48.88889,28.22601l-48.88889,28.22601z" fill="#e7ffff"/><path d="M184.44444,393.95203v56.45203l-48.88889,28.22601v-56.45203z" fill="#4d557f"/></g><g><path d="M184.44444,393.95203l48.88889,-28.22601l48.88889,28.22601v56.45203l-48.88889,28.22601l-48.88889,-28.22601z" fill="#9aa7f4"/><path d="M184.44444,393.95203l48.88889,-28.22601l48.88889,28.22601l-48.88889,28.22601z" fill="#e7fbff"/><path d="M282.22222,393.95203v56.45203l-48.88889,28.22601v-56.45203z" fill="#4d547a"/></g><g><path d="M282.22222,393.95203l48.88889,-28.22601l48.88889,28.22601v56.45203l-48.88889,28.22601l-48.88889,-28.22601z" fill="#a198ea"/><path d="M282.22222,393.95203l48.88889,-28.22601l48.88889,28.22601l-48.88889,28.22601z" fill="#f2e3ff"/><path d="M380,393.95203v56.45203l-48.88889,28.22601v-56.45203z" fill="#514c75"/></g><g><path d="M380,393.95203l48.88889,-28.22601l48.88889,28.22601v56.45203l-48.88889,28.22601l-48.88889,-28.22601z" fill="#96b7ff"/><path d="M380,393.95203l48.88889,-28.22601l48.88889,28.22601l-48.88889,28.22601z" fill="#e0ffff"/><path d="M477.77778,393.95203v56.45203l-48.88889,28.22601v-56.45203z" fill="#4b5b7f"/></g><g><path d="M477.77778,393.95203l48.88889,-28.22601l48.88889,28.22601v56.45203l-48.88889,28.22601l-48.88889,-28.22601z" fill="#9c93d9"/><path d="M477.77778,393.95203l48.88889,-28.22601l48.88889,28.22601l-48.88889,28.22601z" fill="#e9ddff"/><path d="M575.55556,393.95203v56.45203l-48.88889,28.22601v-56.45203z" fill="#4e4a6d"/></g><g><path d="M575.55556,393.95203l48.88889,-28.22601l48.88889,28.22601v56.45203l-48.88889,28.22601l-48.88889,-28.22601z" fill="#97b4ff"/><path d="M575.55556,393.95203l48.88889,-28.22601l48.88889,28.22601l-48.88889,28.22601z" fill="#e3ffff"/><path d="M673.33333,393.95203v56.45203l-48.88889,28.22601v-56.45203z" fill="#4c5a80"/></g><g><path d="M673.33333,393.95203l48.88889,-28.22601l48.88889,28.22601v56.45203l-48.88889,28.22601l-48.88889,-28.22601z" fill="#9caeff"/><path d="M673.33333,393.95203l48.88889,-28.22601l48.88889,28.22601l-48.88889,28.22601z" fill="#eaffff"/><path d="M771.11111,393.95203v56.45203l-48.88889,28.22601v-56.45203z" fill="#4e577f"/></g><g><path d="M771.11111,393.95203l48.88889,-28.22601l48.88889,28.22601v56.45203l-48.88889,28.22601l-48.88889,-28.22601z" fill="#9d93e1"/><path d="M771.11111,393.95203l48.88889,-28.22601l48.88889,28.22601l-48.88889,28.22601z" fill="#ecddff"/><path d="M868.88889,393.95203v56.45203l-48.88889,28.22601v-56.45203z" fill="#4f4a70"/></g><g><path d="M868.88889,393.95203l48.88889,-28.22601l48.88889,28.22601v56.45203l-48.88889,28.22601l-48.88889,-28.22601z" fill="#9badf8"/><path d="M868.88889,393.95203l48.88889,-28.22601l48.88889,28.22601l-48.88889,28.22601z" fill="#e9ffff"/><path d="M966.66667,393.95203v56.45203l-48.88889,28.22601v-56.45203z" fill="#4e577c"/></g><g><path d="M966.66667,393.95203l48.88889,-28.22601l48.88889,28.22601v56.45203l-48.88889,28.22601l-48.88889,-28.22601z" fill="#9ab3ff"/><path d="M966.66667,393.95203l48.88889,-28.22601l48.88889,28.22601l-48.88889,28.22601z" fill="#e7ffff"/><path d="M1064.44444,393.95203v56.45203l-48.88889,28.22601v-56.45203z" fill="#4d5980"/></g><g><path d="M1064.44444,393.95203l48.88889,-28.22601l48.88889,28.22601v56.45203l-48.88889,28.22601l-48.88889,-28.22601z" fill="#94aae8"/><path d="M1064.44444,393.95203l48.88889,-28.22601l48.88889,28.22601l-48.88889,28.22601z" fill="#deffff"/><path d="M1162.22222,393.95203v56.45203l-48.88889,28.22601v-56.45203z" fill="#4a5574"/></g><g><path d="M1162.22222,393.95203l48.88889,-28.22601l48.88889,28.22601v56.45203l-48.88889,28.22601l-48.88889,-28.22601z" fill="#89c4ff"/><path d="M1162.22222,393.95203l48.88889,-28.22601l48.88889,28.22601l-48.88889,28.22601z" fill="#cdffff"/><path d="M1260,393.95203v56.45203l-48.88889,28.22601v-56.45203z" fill="#446280"/></g><g><path d="M-60,478.63007l48.88889,-28.22601l48.88889,28.22601v56.45203l-48.88889,28.22601l-48.88889,-28.22601z" fill="#612661"/><path d="M-60,478.63007l48.88889,-28.22601l48.88889,28.22601l-48.88889,28.22601z" fill="#923a92"/><path d="M37.77778,478.63007v56.45203l-48.88889,28.22601v-56.45203z" fill="#311331"/></g><g><path d="M37.77778,478.63007l48.88889,-28.22601l48.88889,28.22601v56.45203l-48.88889,28.22601l-48.88889,-28.22601z" fill="#ac75e9"/><path d="M37.77778,478.63007l48.88889,-28.22601l48.88889,28.22601l-48.88889,28.22601z" fill="#ffb0ff"/><path d="M135.55556,478.63007v56.45203l-48.88889,28.22601v-56.45203z" fill="#563b74"/></g><g><path d="M135.55556,478.63007l48.88889,-28.22601l48.88889,28.22601v56.45203l-48.88889,28.22601l-48.88889,-28.22601z" fill="#a48cf5"/><path d="M135.55556,478.63007l48.88889,-28.22601l48.88889,28.22601l-48.88889,28.22601z" fill="#f6d2ff"/><path d="M233.33333,478.63007v56.45203l-48.88889,28.22601v-56.45203z" fill="#52467a"/></g><g><path d="M233.33333,478.63007l48.88889,-28.22601l48.88889,28.22601v56.45203l-48.88889,28.22601l-48.88889,-28.22601z" fill="#a87dea"/><path d="M233.33333,478.63007l48.88889,-28.22601l48.88889,28.22601l-48.88889,28.22601z" fill="#fcbcff"/><path d="M331.11111,478.63007v56.45203l-48.88889,28.22601v-56.45203z" fill="#543f75"/></g><g><path d="M331.11111,478.63007l48.88889,-28.22601l48.88889,28.22601v56.45203l-48.88889,28.22601l-48.88889,-28.22601z" fill="#a48dfe"/><path d="M331.11111,478.63007l48.88889,-28.22601l48.88889,28.22601l-48.88889,28.22601z" fill="#f5d4ff"/><path d="M428.88889,478.63007v56.45203l-48.88889,28.22601v-56.45203z" fill="#52477f"/></g><g><path d="M428.88889,478.63007l48.88889,-28.22601l48.88889,28.22601v56.45203l-48.88889,28.22601l-48.88889,-28.22601z" fill="#ae75e9"/><path d="M428.88889,478.63007l48.88889,-28.22601l48.88889,28.22601l-48.88889,28.22601z" fill="#ffb0ff"/><path d="M526.66667,478.63007v56.45203l-48.88889,28.22601v-56.45203z" fill="#573b74"/></g><g><path d="M526.66667,478.63007l48.88889,-28.22601l48.88889,28.22601v56.45203l-48.88889,28.22601l-48.88889,-28.22601z" fill="#af6ddc"/><path d="M526.66667,478.63007l48.88889,-28.22601l48.88889,28.22601l-48.88889,28.22601z" fill="#ffa4ff"/><path d="M624.44444,478.63007v56.45203l-48.88889,28.22601v-56.45203z" fill="#57376e"/></g><g><path d="M624.44444,478.63007l48.88889,-28.22601l48.88889,28.22601v56.45203l-48.88889,28.22601l-48.88889,-28.22601z" fill="#a193ff"/><path d="M624.44444,478.63007l48.88889,-28.22601l48.88889,28.22601l-48.88889,28.22601z" fill="#f1ddff"/><path d="M722.22222,478.63007v56.45203l-48.88889,28.22601v-56.45203z" fill="#504a7f"/></g><g><path d="M722.22222,478.63007l48.88889,-28.22601l48.88889,28.22601v56.45203l-48.88889,28.22601l-48.88889,-28.22601z" fill="#a58af6"/><path d="M722.22222,478.63007l48.88889,-28.22601l48.88889,28.22601l-48.88889,28.22601z" fill="#f8cfff"/><path d="M820,478.63007v56.45203l-48.88889,28.22601v-56.45203z" fill="#53457b"/></g><g><path d="M820,478.63007l48.88889,-28.22601l48.88889,28.22601v56.45203l-48.88889,28.22601l-48.88889,-28.22601z" fill="#a785f0"/><path d="M820,478.63007l48.88889,-28.22601l48.88889,28.22601l-48.88889,28.22601z" fill="#fbc7ff"/><path d="M917.77778,478.63007v56.45203l-48.88889,28.22601v-56.45203z" fill="#544278"/></g><g><path d="M917.77778,478.63007l48.88889,-28.22601l48.88889,28.22601v56.45203l-48.88889,28.22601l-48.88889,-28.22601z" fill="#a193ff"/><path d="M917.77778,478.63007l48.88889,-28.22601l48.88889,28.22601l-48.88889,28.22601z" fill="#f1ddff"/><path d="M1015.55556,478.63007v56.45203l-48.88889,28.22601v-56.45203z" fill="#504a7f"/></g><g><path d="M1015.55556,478.63007l48.88889,-28.22601l48.88889,28.22601v56.45203l-48.88889,28.22601l-48.88889,-28.22601z" fill="#a492fa"/><path d="M1015.55556,478.63007l48.88889,-28.22601l48.88889,28.22601l-48.88889,28.22601z" fill="#f7dbff"/><path d="M1113.33333,478.63007v56.45203l-48.88889,28.22601v-56.45203z" fill="#52497d"/></g><g><path d="M1113.33333,478.63007l48.88889,-28.22601l48.88889,28.22601v56.45203l-48.88889,28.22601l-48.88889,-28.22601z" fill="#79b6d9"/><path d="M1113.33333,478.63007l48.88889,-28.22601l48.88889,28.22601l-48.88889,28.22601z" fill="#b6ffff"/><path d="M1211.11111,478.63007v56.45203l-48.88889,28.22601v-56.45203z" fill="#3d5b6d"/></g><g><path d="M-11.11111,563.30811l48.88889,-28.22601l48.88889,28.22601v56.45203l-48.88889,28.22601l-48.88889,-28.22601z" fill="#ab33b0"/><path d="M-11.11111,563.30811l48.88889,-28.22601l48.88889,28.22601l-48.88889,28.22601z" fill="#ff4cff"/><path d="M86.66667,563.30811v56.45203l-48.88889,28.22601v-56.45203z" fill="#551958"/></g><g><path d="M86.66667,563.30811l48.88889,-28.22601l48.88889,28.22601v56.45203l-48.88889,28.22601l-48.88889,-28.22601z" fill="#c94ce2"/><path d="M86.66667,563.30811l48.88889,-28.22601l48.88889,28.22601l-48.88889,28.22601z" fill="#ff73ff"/><path d="M184.44444,563.30811v56.45203l-48.88889,28.22601v-56.45203z" fill="#642671"/></g><g><path d="M184.44444,563.30811l48.88889,-28.22601l48.88889,28.22601v56.45203l-48.88889,28.22601l-48.88889,-28.22601z" fill="#bc5edf"/><path d="M184.44444,563.30811l48.88889,-28.22601l48.88889,28.22601l-48.88889,28.22601z" fill="#ff8cff"/><path d="M282.22222,563.30811v56.45203l-48.88889,28.22601v-56.45203z" fill="#5e2f6f"/></g><g><path d="M282.22222,563.30811l48.88889,-28.22601l48.88889,28.22601v56.45203l-48.88889,28.22601l-48.88889,-28.22601z" fill="#ab6fe3"/><path d="M282.22222,563.30811l48.88889,-28.22601l48.88889,28.22601l-48.88889,28.22601z" fill="#ffa6ff"/><path d="M380,563.30811v56.45203l-48.88889,28.22601v-56.45203z" fill="#563772"/></g><g><path d="M380,563.30811l48.88889,-28.22601l48.88889,28.22601v56.45203l-48.88889,28.22601l-48.88889,-28.22601z" fill="#ae7eff"/><path d="M380,563.30811l48.88889,-28.22601l48.88889,28.22601l-48.88889,28.22601z" fill="#ffbdff"/><path d="M477.77778,563.30811v56.45203l-48.88889,28.22601v-56.45203z" fill="#573f7f"/></g><g><path d="M477.77778,563.30811l48.88889,-28.22601l48.88889,28.22601v56.45203l-48.88889,28.22601l-48.88889,-28.22601z" fill="#c151de"/><path d="M477.77778,563.30811l48.88889,-28.22601l48.88889,28.22601l-48.88889,28.22601z" fill="#ff7aff"/><path d="M575.55556,563.30811v56.45203l-48.88889,28.22601v-56.45203z" fill="#61296f"/></g><g><path d="M575.55556,563.30811l48.88889,-28.22601l48.88889,28.22601v56.45203l-48.88889,28.22601l-48.88889,-28.22601z" fill="#b17efe"/><path d="M575.55556,563.30811l48.88889,-28.22601l48.88889,28.22601l-48.88889,28.22601z" fill="#ffbcff"/><path d="M673.33333,563.30811v56.45203l-48.88889,28.22601v-56.45203z" fill="#583f7f"/></g><g><path d="M673.33333,563.30811l48.88889,-28.22601l48.88889,28.22601v56.45203l-48.88889,28.22601l-48.88889,-28.22601z" fill="#a886fc"/><path d="M673.33333,563.30811l48.88889,-28.22601l48.88889,28.22601l-48.88889,28.22601z" fill="#fdc8ff"/><path d="M771.11111,563.30811v56.45203l-48.88889,28.22601v-56.45203z" fill="#54437e"/></g><g><path d="M771.11111,563.30811l48.88889,-28.22601l48.88889,28.22601v56.45203l-48.88889,28.22601l-48.88889,-28.22601z" fill="#b560de"/><path d="M771.11111,563.30811l48.88889,-28.22601l48.88889,28.22601l-48.88889,28.22601z" fill="#ff90ff"/><path d="M868.88889,563.30811v56.45203l-48.88889,28.22601v-56.45203z" fill="#5a306f"/></g><g><path d="M868.88889,563.30811l48.88889,-28.22601l48.88889,28.22601v56.45203l-48.88889,28.22601l-48.88889,-28.22601z" fill="#b37bfd"/><path d="M868.88889,563.30811l48.88889,-28.22601l48.88889,28.22601l-48.88889,28.22601z" fill="#ffb9ff"/><path d="M966.66667,563.30811v56.45203l-48.88889,28.22601v-56.45203z" fill="#5a3e7e"/></g><g><path d="M966.66667,563.30811l48.88889,-28.22601l48.88889,28.22601v56.45203l-48.88889,28.22601l-48.88889,-28.22601z" fill="#bb78ff"/><path d="M966.66667,563.30811l48.88889,-28.22601l48.88889,28.22601l-48.88889,28.22601z" fill="#ffb4ff"/><path d="M1064.44444,563.30811v56.45203l-48.88889,28.22601v-56.45203z" fill="#5d3c7f"/></g><g><path d="M1064.44444,563.30811l48.88889,-28.22601l48.88889,28.22601v56.45203l-48.88889,28.22601l-48.88889,-28.22601z" fill="#9596ed"/><path d="M1064.44444,563.30811l48.88889,-28.22601l48.88889,28.22601l-48.88889,28.22601z" fill="#dfe0ff"/><path d="M1162.22222,563.30811v56.45203l-48.88889,28.22601v-56.45203z" fill="#4a4b77"/></g><g><path d="M1162.22222,563.30811l48.88889,-28.22601l48.88889,28.22601v56.45203l-48.88889,28.22601l-48.88889,-28.22601z" fill="#72d0ff"/><path d="M1162.22222,563.30811l48.88889,-28.22601l48.88889,28.22601l-48.88889,28.22601z" fill="#abffff"/><path d="M1260,563.30811v56.45203l-48.88889,28.22601v-56.45203z" fill="#396880"/></g><g><path d="M-60,647.98614l48.88889,-28.22601l48.88889,28.22601v56.45203l-48.88889,28.22601l-48.88889,-28.22601z" fill="#313131"/><path d="M-60,647.98614l48.88889,-28.22601l48.88889,28.22601l-48.88889,28.22601z" fill="#4a4a4a"/><path d="M37.77778,647.98614v56.45203l-48.88889,28.22601v-56.45203z" fill="#191919"/></g><g><path d="M37.77778,647.98614l48.88889,-28.22601l48.88889,28.22601v56.45203l-48.88889,28.22601l-48.88889,-28.22601z" fill="#b163cc"/><path d="M37.77778,647.98614l48.88889,-28.22601l48.88889,28.22601l-48.88889,28.22601z" fill="#ff95ff"/><path d="M135.55556,647.98614v56.45203l-48.88889,28.22601v-56.45203z" fill="#583266"/></g><g><path d="M135.55556,647.98614l48.88889,-28.22601l48.88889,28.22601v56.45203l-48.88889,28.22601l-48.88889,-28.22601z" fill="#a36cbc"/><path d="M135.55556,647.98614l48.88889,-28.22601l48.88889,28.22601l-48.88889,28.22601z" fill="#f4a2ff"/><path d="M233.33333,647.98614v56.45203l-48.88889,28.22601v-56.45203z" fill="#51365e"/></g><g><path d="M233.33333,647.98614l48.88889,-28.22601l48.88889,28.22601v56.45203l-48.88889,28.22601l-48.88889,-28.22601z" fill="#a855a8"/><path d="M233.33333,647.98614l48.88889,-28.22601l48.88889,28.22601l-48.88889,28.22601z" fill="#fd80fd"/><path d="M331.11111,647.98614v56.45203l-48.88889,28.22601v-56.45203z" fill="#542b54"/></g><g><path d="M331.11111,647.98614l48.88889,-28.22601l48.88889,28.22601v56.45203l-48.88889,28.22601l-48.88889,-28.22601z" fill="#a166b4"/><path d="M331.11111,647.98614l48.88889,-28.22601l48.88889,28.22601l-48.88889,28.22601z" fill="#f299ff"/><path d="M428.88889,647.98614v56.45203l-48.88889,28.22601v-56.45203z" fill="#51335a"/></g><g><path d="M428.88889,647.98614l48.88889,-28.22601l48.88889,28.22601v56.45203l-48.88889,28.22601l-48.88889,-28.22601z" fill="#9681cd"/><path d="M428.88889,647.98614l48.88889,-28.22601l48.88889,28.22601l-48.88889,28.22601z" fill="#e1c2ff"/><path d="M526.66667,647.98614v56.45203l-48.88889,28.22601v-56.45203z" fill="#4b4167"/></g><g><path d="M526.66667,647.98614l48.88889,-28.22601l48.88889,28.22601v56.45203l-48.88889,28.22601l-48.88889,-28.22601z" fill="#9d7cd0"/><path d="M526.66667,647.98614l48.88889,-28.22601l48.88889,28.22601l-48.88889,28.22601z" fill="#ebbaff"/><path d="M624.44444,647.98614v56.45203l-48.88889,28.22601v-56.45203z" fill="#4e3e68"/></g><g><path d="M624.44444,647.98614l48.88889,-28.22601l48.88889,28.22601v56.45203l-48.88889,28.22601l-48.88889,-28.22601z" fill="#a75eb1"/><path d="M624.44444,647.98614l48.88889,-28.22601l48.88889,28.22601l-48.88889,28.22601z" fill="#fb8cff"/><path d="M722.22222,647.98614v56.45203l-48.88889,28.22601v-56.45203z" fill="#542f59"/></g><g><path d="M722.22222,647.98614l48.88889,-28.22601l48.88889,28.22601v56.45203l-48.88889,28.22601l-48.88889,-28.22601z" fill="#937ec4"/><path d="M722.22222,647.98614l48.88889,-28.22601l48.88889,28.22601l-48.88889,28.22601z" fill="#ddbdff"/><path d="M820,647.98614v56.45203l-48.88889,28.22601v-56.45203z" fill="#4a3f62"/></g><g><path d="M820,647.98614l48.88889,-28.22601l48.88889,28.22601v56.45203l-48.88889,28.22601l-48.88889,-28.22601z" fill="#9680c8"/><path d="M820,647.98614l48.88889,-28.22601l48.88889,28.22601l-48.88889,28.22601z" fill="#e2c0ff"/><path d="M917.77778,647.98614v56.45203l-48.88889,28.22601v-56.45203z" fill="#4b4064"/></g><g><path d="M917.77778,647.98614l48.88889,-28.22601l48.88889,28.22601v56.45203l-48.88889,28.22601l-48.88889,-28.22601z" fill="#b354b7"/><path d="M917.77778,647.98614l48.88889,-28.22601l48.88889,28.22601l-48.88889,28.22601z" fill="#ff7dff"/><path d="M1015.55556,647.98614v56.45203l-48.88889,28.22601v-56.45203z" fill="#5a2a5c"/></g><g><path d="M1015.55556,647.98614l48.88889,-28.22601l48.88889,28.22601v56.45203l-48.88889,28.22601l-48.88889,-28.22601z" fill="#957ec6"/><path d="M1015.55556,647.98614l48.88889,-28.22601l48.88889,28.22601l-48.88889,28.22601z" fill="#dfbeff"/><path d="M1113.33333,647.98614v56.45203l-48.88889,28.22601v-56.45203z" fill="#4a3f63"/></g><g><path d="M1113.33333,647.98614l48.88889,-28.22601l48.88889,28.22601v56.45203l-48.88889,28.22601l-48.88889,-28.22601z" fill="#a27bd4"/><path d="M1113.33333,647.98614l48.88889,-28.22601l48.88889,28.22601l-48.88889,28.22601z" fill="#f2b8ff"/><path d="M1211.11111,647.98614v56.45203l-48.88889,28.22601v-56.45203z" fill="#513d6a"/></g><g><path d="M-11.11111,732.66418l48.88889,-28.22601l48.88889,28.22601v56.45203l-48.88889,28.22601l-48.88889,-28.22601z" fill="#000000"/><path d="M-11.11111,732.66418l48.88889,-28.22601l48.88889,28.22601l-48.88889,28.22601z" fill="#ffffff"/><path d="M86.66667,732.66418v56.45203l-48.88889,28.22601v-56.45203z" fill="#000000"/></g><g><path d="M86.66667,732.66418l48.88889,-28.22601l48.88889,28.22601v56.45203l-48.88889,28.22601l-48.88889,-28.22601z" fill="#000000"/><path d="M86.66667,732.66418l48.88889,-28.22601l48.88889,28.22601l-48.88889,28.22601z" fill="#ffffff"/><path d="M184.44444,732.66418v56.45203l-48.88889,28.22601v-56.45203z" fill="#000000"/></g><g><path d="M184.44444,732.66418l48.88889,-28.22601l48.88889,28.22601v56.45203l-48.88889,28.22601l-48.88889,-28.22601z" fill="#000000"/><path d="M184.44444,732.66418l48.88889,-28.22601l48.88889,28.22601l-48.88889,28.22601z" fill="#ffffff"/><path d="M282.22222,732.66418v56.45203l-48.88889,28.22601v-56.45203z" fill="#000000"/></g><g><path d="M282.22222,732.66418l48.88889,-28.22601l48.88889,28.22601v56.45203l-48.88889,28.22601l-48.88889,-28.22601z" fill="#000000"/><path d="M282.22222,732.66418l48.88889,-28.22601l48.88889,28.22601l-48.88889,28.22601z" fill="#ffffff"/><path d="M380,732.66418v56.45203l-48.88889,28.22601v-56.45203z" fill="#000000"/></g><g><path d="M380,732.66418l48.88889,-28.22601l48.88889,28.22601v56.45203l-48.88889,28.22601l-48.88889,-28.22601z" fill="#000000"/><path d="M380,732.66418l48.88889,-28.22601l48.88889,28.22601l-48.88889,28.22601z" fill="#ffffff"/><path d="M477.77778,732.66418v56.45203l-48.88889,28.22601v-56.45203z" fill="#000000"/></g><g><path d="M477.77778,732.66418l48.88889,-28.22601l48.88889,28.22601v56.45203l-48.88889,28.22601l-48.88889,-28.22601z" fill="#000000"/><path d="M477.77778,732.66418l48.88889,-28.22601l48.88889,28.22601l-48.88889,28.22601z" fill="#ffffff"/><path d="M575.55556,732.66418v56.45203l-48.88889,28.22601v-56.45203z" fill="#000000"/></g><g><path d="M575.55556,732.66418l48.88889,-28.22601l48.88889,28.22601v56.45203l-48.88889,28.22601l-48.88889,-28.22601z" fill="#000000"/><path d="M575.55556,732.66418l48.88889,-28.22601l48.88889,28.22601l-48.88889,28.22601z" fill="#ffffff"/><path d="M673.33333,732.66418v56.45203l-48.88889,28.22601v-56.45203z" fill="#000000"/></g><g><path d="M673.33333,732.66418l48.88889,-28.22601l48.88889,28.22601v56.45203l-48.88889,28.22601l-48.88889,-28.22601z" fill="#000000"/><path d="M673.33333,732.66418l48.88889,-28.22601l48.88889,28.22601l-48.88889,28.22601z" fill="#ffffff"/><path d="M771.11111,732.66418v56.45203l-48.88889,28.22601v-56.45203z" fill="#000000"/></g><g><path d="M771.11111,732.66418l48.88889,-28.22601l48.88889,28.22601v56.45203l-48.88889,28.22601l-48.88889,-28.22601z" fill="#000000"/><path d="M771.11111,732.66418l48.88889,-28.22601l48.88889,28.22601l-48.88889,28.22601z" fill="#ffffff"/><path d="M868.88889,732.66418v56.45203l-48.88889,28.22601v-56.45203z" fill="#000000"/></g><g><path d="M868.88889,732.66418l48.88889,-28.22601l48.88889,28.22601v56.45203l-48.88889,28.22601l-48.88889,-28.22601z" fill="#000000"/><path d="M868.88889,732.66418l48.88889,-28.22601l48.88889,28.22601l-48.88889,28.22601z" fill="#ffffff"/><path d="M966.66667,732.66418v56.45203l-48.88889,28.22601v-56.45203z" fill="#000000"/></g><g><path d="M966.66667,732.66418l48.88889,-28.22601l48.88889,28.22601v56.45203l-48.88889,28.22601l-48.88889,-28.22601z" fill="#000000"/><path d="M966.66667,732.66418l48.88889,-28.22601l48.88889,28.22601l-48.88889,28.22601z" fill="#ffffff"/><path d="M1064.44444,732.66418v56.45203l-48.88889,28.22601v-56.45203z" fill="#000000"/></g><g><path d="M1064.44444,732.66418l48.88889,-28.22601l48.88889,28.22601v56.45203l-48.88889,28.22601l-48.88889,-28.22601z" fill="#000000"/><path d="M1064.44444,732.66418l48.88889,-28.22601l48.88889,28.22601l-48.88889,28.22601z" fill="#ffffff"/><path d="M1162.22222,732.66418v56.45203l-48.88889,28.22601v-56.45203z" fill="#000000"/></g><g><path d="M1162.22222,732.66418l48.88889,-28.22601l48.88889,28.22601v56.45203l-48.88889,28.22601l-48.88889,-28.22601z" fill="#000000"/><path d="M1162.22222,732.66418l48.88889,-28.22601l48.88889,28.22601l-48.88889,28.22601z" fill="#ffffff"/><path d="M1260,732.66418v56.45203l-48.88889,28.22601v-56.45203z" fill="#000000"/></g><g><path d="M-60,817.34222l48.88889,-28.22601l48.88889,28.22601v56.45203l-48.88889,28.22601l-48.88889,-28.22601z" fill="#000000"/><path d="M-60,817.34222l48.88889,-28.22601l48.88889,28.22601l-48.88889,28.22601z" fill="#ffffff"/><path d="M37.77778,817.34222v56.45203l-48.88889,28.22601v-56.45203z" fill="#000000"/></g><g><path d="M37.77778,817.34222l48.88889,-28.22601l48.88889,28.22601v56.45203l-48.88889,28.22601l-48.88889,-28.22601z" fill="#000000"/><path d="M37.77778,817.34222l48.88889,-28.22601l48.88889,28.22601l-48.88889,28.22601z" fill="#ffffff"/><path d="M135.55556,817.34222v56.45203l-48.88889,28.22601v-56.45203z" fill="#000000"/></g><g><path d="M135.55556,817.34222l48.88889,-28.22601l48.88889,28.22601v56.45203l-48.88889,28.22601l-48.88889,-28.22601z" fill="#000000"/><path d="M135.55556,817.34222l48.88889,-28.22601l48.88889,28.22601l-48.88889,28.22601z" fill="#ffffff"/><path d="M233.33333,817.34222v56.45203l-48.88889,28.22601v-56.45203z" fill="#000000"/></g><g><path d="M233.33333,817.34222l48.88889,-28.22601l48.88889,28.22601v56.45203l-48.88889,28.22601l-48.88889,-28.22601z" fill="#000000"/><path d="M233.33333,817.34222l48.88889,-28.22601l48.88889,28.22601l-48.88889,28.22601z" fill="#ffffff"/><path d="M331.11111,817.34222v56.45203l-48.88889,28.22601v-56.45203z" fill="#000000"/></g><g><path d="M331.11111,817.34222l48.88889,-28.22601l48.88889,28.22601v56.45203l-48.88889,28.22601l-48.88889,-28.22601z" fill="#000000"/><path d="M331.11111,817.34222l48.88889,-28.22601l48.88889,28.22601l-48.88889,28.22601z" fill="#ffffff"/><path d="M428.88889,817.34222v56.45203l-48.88889,28.22601v-56.45203z" fill="#000000"/></g><g><path d="M428.88889,817.34222l48.88889,-28.22601l48.88889,28.22601v56.45203l-48.88889,28.22601l-48.88889,-28.22601z" fill="#000000"/><path d="M428.88889,817.34222l48.88889,-28.22601l48.88889,28.22601l-48.88889,28.22601z" fill="#ffffff"/><path d="M526.66667,817.34222v56.45203l-48.88889,28.22601v-56.45203z" fill="#000000"/></g><g><path d="M526.66667,817.34222l48.88889,-28.22601l48.88889,28.22601v56.45203l-48.88889,28.22601l-48.88889,-28.22601z" fill="#000000"/><path d="M526.66667,817.34222l48.88889,-28.22601l48.88889,28.22601l-48.88889,28.22601z" fill="#ffffff"/><path d="M624.44444,817.34222v56.45203l-48.88889,28.22601v-56.45203z" fill="#000000"/></g><g><path d="M624.44444,817.34222l48.88889,-28.22601l48.88889,28.22601v56.45203l-48.88889,28.22601l-48.88889,-28.22601z" fill="#000000"/><path d="M624.44444,817.34222l48.88889,-28.22601l48.88889,28.22601l-48.88889,28.22601z" fill="#ffffff"/><path d="M722.22222,817.34222v56.45203l-48.88889,28.22601v-56.45203z" fill="#000000"/></g><g><path d="M722.22222,817.34222l48.88889,-28.22601l48.88889,28.22601v56.45203l-48.88889,28.22601l-48.88889,-28.22601z" fill="#000000"/><path d="M722.22222,817.34222l48.88889,-28.22601l48.88889,28.22601l-48.88889,28.22601z" fill="#ffffff"/><path d="M820,817.34222v56.45203l-48.88889,28.22601v-56.45203z" fill="#000000"/></g><g><path d="M820,817.34222l48.88889,-28.22601l48.88889,28.22601v56.45203l-48.88889,28.22601l-48.88889,-28.22601z" fill="#000000"/><path d="M820,817.34222l48.88889,-28.22601l48.88889,28.22601l-48.88889,28.22601z" fill="#ffffff"/><path d="M917.77778,817.34222v56.45203l-48.88889,28.22601v-56.45203z" fill="#000000"/></g><g><path d="M917.77778,817.34222l48.88889,-28.22601l48.88889,28.22601v56.45203l-48.88889,28.22601l-48.88889,-28.22601z" fill="#000000"/><path d="M917.77778,817.34222l48.88889,-28.22601l48.88889,28.22601l-48.88889,28.22601z" fill="#ffffff"/><path d="M1015.55556,817.34222v56.45203l-48.88889,28.22601v-56.45203z" fill="#000000"/></g><g><path d="M1015.55556,817.34222l48.88889,-28.22601l48.88889,28.22601v56.45203l-48.88889,28.22601l-48.88889,-28.22601z" fill="#000000"/><path d="M1015.55556,817.34222l48.88889,-28.22601l48.88889,28.22601l-48.88889,28.22601z" fill="#ffffff"/><path d="M1113.33333,817.34222v56.45203l-48.88889,28.22601v-56.45203z" fill="#000000"/></g><g><path d="M1113.33333,817.34222l48.88889,-28.22601l48.88889,28.22601v56.45203l-48.88889,28.22601l-48.88889,-28.22601z" fill="#000000"/><path d="M1113.33333,817.34222l48.88889,-28.22601l48.88889,28.22601l-48.88889,28.22601z" fill="#ffffff"/><path d="M1211.11111,817.34222v56.45203l-48.88889,28.22601v-56.45203z" fill="#000000"/></g></g></g></svg>