<svg version="1.1" xmlns="http://www.w3.org/2000/svg" xmlns:xlink="http://www.w3.org/1999/xlink" width="1200" height="675" viewBox="0,0,1200,675"><g fill="none" fill-rule="nonzero" stroke="none" stroke-width="1" stroke-linecap="butt" stroke-linejoin="miter" stroke-miterlimit="10" stroke-dasharray="" stroke-dashoffset="0" font-family="none" font-weight="none" font-size="none" text-anchor="none" style="mix-blend-mode: normal"><g><g><path d="M-126,-252.42368l53.77778,-31.04861l53.77778,31.04861v62.09723l-53.77778,31.04861l-53.77778,-31.04861z" fill="#000000"/><path d="M-126,-252.42368l53.77778,-31.04861l53.77778,31.04861l-53.77778,31.04861z" fill="#ffffff"/><path d="M-18.44444,-252.42368v62.09723l-53.77778,31.04861v-62.09723z" fill="#000000"/></g><g><path d="M-18.44444,-252.42368l53.77778,-31.04861l53.77778,31.04861v62.09723l-53.77778,31.04861l-53.77778,-31.04861z" fill="#000000"/><path d="M-18.44444,-252.42368l53.77778,-31.04861l53.77778,31.04861l-53.77778,31.04861z" fill="#ffffff"/><path d="M89.11111,-252.42368v62.09723l-53.77778,31.04861v-62.09723z" fill="#000000"/></g><g><path d="M89.11111,-252.42368l53.77778,-31.04861l53.77778,31.04861v62.09723l-53.77778,31.04861l-53.77778,-31.04861z" fill="#000000"/><path d="M89.11111,-252.42368l53.77778,-31.04861l53.77778,31.04861l-53.77778,31.04861z" fill="#ffffff"/><path d="M196.66667,-252.42368v62.09723l-53.77778,31.04861v-62.09723z" fill="#000000"/></g><g><path d="M196.66667,-252.42368l53.77778,-31.04861l53.77778,31.04861v62.09723l-53.77778,31.04861l-53.77778,-31.04861z" fill="#000000"/><path d="M196.66667,-252.42368l53.77778,-31.04861l53.77778,31.04861l-53.77778,31.04861z" fill="#ffffff"/><path d="M304.22222,-252.42368v62.09723l-53.77778,31.04861v-62.09723z" fill="#000000"/></g><g><path d="M304.22222,-252.42368l53.77778,-31.04861l53.77778,31.04861v62.09723l-53.77778,31.04861l-53.77778,-31.04861z" fill="#000000"/><path d="M304.22222,-252.42368l53.77778,-31.04861l53.77778,31.04861l-53.77778,31.04861z" fill="#ffffff"/><path d="M411.77778,-252.42368v62.09723l-53.77778,31.04861v-62.09723z" fill="#000000"/></g><g><path d="M411.77778,-252.42368l53.77778,-31.04861l53.77778,31.04861v62.09723l-53.77778,31.04861l-53.77778,-31.04861z" fill="#000000"/><path d="M411.77778,-252.42368l53.77778,-31.04861l53.77778,31.04861l-53.77778,31.04861z" fill="#ffffff"/><path d="M519.33333,-252.42368v62.09723l-53.77778,31.04861v-62.09723z" fill="#000000"/></g><g><path d="M519.33333,-252.42368l53.77778,-31.04861l53.77778,31.04861v62.09723l-53.77778,31.04861l-53.77778,-31.04861z" fill="#000000"/><path d="M519.33333,-252.42368l53.77778,-31.04861l53.77778,31.04861l-53.77778,31.04861z" fill="#ffffff"/><path d="M626.88889,-252.42368v62.09723l-53.77778,31.04861v-62.09723z" fill="#000000"/></g><g><path d="M626.88889,-252.42368l53.77778,-31.04861l53.77778,31.04861v62.09723l-53.77778,31.04861l-53.77778,-31.04861z" fill="#000000"/><path d="M626.88889,-252.42368l53.77778,-31.04861l53.77778,31.04861l-53.77778,31.04861z" fill="#ffffff"/><path d="M734.44444,-252.42368v62.09723l-53.77778,31.04861v-62.09723z" fill="#000000"/></g><g><path d="M734.44444,-252.42368l53.77778,-31.04861l53.77778,31.04861v62.09723l-53.77778,31.04861l-53.77778,-31.04861z" fill="#000000"/><path d="M734.44444,-252.42368l53.77778,-31.04861l53.77778,31.04861l-53.77778,31.04861z" fill="#ffffff"/><path d="M842,-252.42368v62.09723l-53.77778,31.04861v-62.09723z" fill="#000000"/></g><g><path d="M842,-252.42368l53.77778,-31.04861l53.77778,31.04861v62.09723l-53.77778,31.04861l-53.77778,-31.04861z" fill="#000000"/><path d="M842,-252.42368l53.77778,-31.04861l53.77778,31.04861l-53.77778,31.04861z" fill="#ffffff"/><path d="M949.55556,-252.42368v62.09723l-53.77778,31.04861v-62.09723z" fill="#000000"/></g><g><path d="M949.55556,-252.42368l53.77778,-31.04861l53.77778,31.04861v62.09723l-53.77778,31.04861l-53.77778,-31.04861z" fill="#000000"/><path d="M949.55556,-252.42368l53.77778,-31.04861l53.77778,31.04861l-53.77778,31.04861z" fill="#ffffff"/><path d="M1057.11111,-252.42368v62.09723l-53.77778,31.04861v-62.09723z" fill="#000000"/></g><g><path d="M1057.11111,-252.42368l53.77778,-31.04861l53.77778,31.04861v62.09723l-53.77778,31.04861l-53.77778,-31.04861z" fill="#000000"/><path d="M1057.11111,-252.42368l53.77778,-31.04861l53.77778,31.04861l-53.77778,31.04861z" fill="#ffffff"/><path d="M1164.66667,-252.42368v62.09723l-53.77778,31.04861v-62.09723z" fill="#000000"/></g><g><path d="M1164.66667,-252.42368l53.77778,-31.04861l53.77778,31.04861v62.09723l-53.77778,31.04861l-53.77778,-31.04861z" fill="#000000"/><path d="M1164.66667,-252.42368l53.77778,-31.04861l53.77778,31.04861l-53.77778,31.04861z" fill="#ffffff"/><path d="M1272.22222,-252.42368v62.09723l-53.77778,31.04861v-62.09723z" fill="#000000"/></g><g><path d="M-72.22222,-159.27783l53.77778,-31.04861l53.77778,31.04861v62.09723l-53.77778,31.04861l-53.77778,-31.04861z" fill="#000000"/><path d="M-72.22222,-159.27783l53.77778,-31.04861l53.77778,31.04861l-53.77778,31.04861z" fill="#ffffff"/><path d="M35.33333,-159.27783v62.09723l-53.77778,31.04861v-62.09723z" fill="#000000"/></g><g><path d="M35.33333,-159.27783l53.77778,-31.04861l53.77778,31.04861v62.09723l-53.77778,31.04861l-53.77778,-31.04861z" fill="#000000"/><path d="M35.33333,-159.27783l53.77778,-31.04861l53.77778,31.04861l-53.77778,31.04861z" fill="#ffffff"/><path d="M142.88889,-159.27783v62.09723l-53.77778,31.04861v-62.09723z" fill="#000000"/></g><g><path d="M142.88889,-159.27783l53.77778,-31.04861l53.77778,31.04861v62.09723l-53.77778,31.04861l-53.77778,-31.04861z" fill="#000000"/><path d="M142.88889,-159.27783l53.77778,-31.04861l53.77778,31.04861l-53.77778,31.04861z" fill="#ffffff"/><path d="M250.44444,-159.27783v62.09723l-53.77778,31.04861v-62.09723z" fill="#000000"/></g><g><path d="M250.44444,-159.27783l53.77778,-31.04861l53.77778,31.04861v62.09723l-53.77778,31.04861l-53.77778,-31.04861z" fill="#000000"/><path d="M250.44444,-159.27783l53.77778,-31.04861l53.77778,31.04861l-53.77778,31.04861z" fill="#ffffff"/><path d="M358,-159.27783v62.09723l-53.77778,31.04861v-62.09723z" fill="#000000"/></g><g><path d="M358,-159.27783l53.77778,-31.04861l53.77778,31.04861v62.09723l-53.77778,31.04861l-53.77778,-31.04861z" fill="#000000"/><path d="M358,-159.27783l53.77778,-31.04861l53.77778,31.04861l-53.77778,31.04861z" fill="#ffffff"/><path d="M465.55556,-159.27783v62.09723l-53.77778,31.04861v-62.09723z" fill="#000000"/></g><g><path d="M465.55556,-159.27783l53.77778,-31.04861l53.77778,31.04861v62.09723l-53.77778,31.04861l-53.77778,-31.04861z" fill="#000000"/><path d="M465.55556,-159.27783l53.77778,-31.04861l53.77778,31.04861l-53.77778,31.04861z" fill="#ffffff"/><path d="M573.11111,-159.27783v62.09723l-53.77778,31.04861v-62.09723z" fill="#000000"/></g><g><path d="M573.11111,-159.27783l53.77778,-31.04861l53.77778,31.04861v62.09723l-53.77778,31.04861l-53.77778,-31.04861z" fill="#000000"/><path d="M573.11111,-159.27783l53.77778,-31.04861l53.77778,31.04861l-53.77778,31.04861z" fill="#ffffff"/><path d="M680.66667,-159.27783v62.09723l-53.77778,31.04861v-62.09723z" fill="#000000"/></g><g><path d="M680.66667,-159.27783l53.77778,-31.04861l53.77778,31.04861v62.09723l-53.77778,31.04861l-53.77778,-31.04861z" fill="#000000"/><path d="M680.66667,-159.27783l53.77778,-31.04861l53.77778,31.04861l-53.77778,31.04861z" fill="#ffffff"/><path d="M788.22222,-159.27783v62.09723l-53.77778,31.04861v-62.09723z" fill="#000000"/></g><g><path d="M788.22222,-159.27783l53.77778,-31.04861l53.77778,31.04861v62.09723l-53.77778,31.04861l-53.77778,-31.04861z" fill="#000000"/><path d="M788.22222,-159.27783l53.77778,-31.04861l53.77778,31.04861l-53.77778,31.04861z" fill="#ffffff"/><path d="M895.77778,-159.27783v62.09723l-53.77778,31.04861v-62.09723z" fill="#000000"/></g><g><path d="M895.77778,-159.27783l53.77778,-31.04861l53.77778,31.04861v62.09723l-53.77778,31.04861l-53.77778,-31.04861z" fill="#000000"/><path d="M895.77778,-159.27783l53.77778,-31.04861l53.77778,31.04861l-53.77778,31.04861z" fill="#ffffff"/><path d="M1003.33333,-159.27783v62.09723l-53.77778,31.04861v-62.09723z" fill="#000000"/></g><g><path d="M1003.33333,-159.27783l53.77778,-31.04861l53.77778,31.04861v62.09723l-53.77778,31.04861l-53.77778,-31.04861z" fill="#000000"/><path d="M1003.33333,-159.27783l53.77778,-31.04861l53.77778,31.04861l-53.77778,31.04861z" fill="#ffffff"/><path d="M1110.88889,-159.27783v62.09723l-53.77778,31.04861v-62.09723z" fill="#000000"/></g><g><path d="M1110.88889,-159.27783l53.77778,-31.04861l53.77778,31.04861v62.09723l-53.77778,31.04861l-53.77778,-31.04861z" fill="#000000"/><path d="M1110.88889,-159.27783l53.77778,-31.04861l53.77778,31.04861l-53.77778,31.04861z" fill="#ffffff"/><path d="M1218.44444,-159.27783v62.09723l-53.77778,31.04861v-62.09723z" fill="#000000"/></g><g><path d="M1218.44444,-159.27783l53.77778,-31.04861l53.77778,31.04861v62.09723l-53.77778,31.04861l-53.77778,-31.04861z" fill="#000000"/><path d="M1218.44444,-159.27783l53.77778,-31.04861l53.77778,31.04861l-53.77778,31.04861z" fill="#ffffff"/><path d="M1326,-159.27783v62.09723l-53.77778,31.04861v-62.09723z" fill="#000000"/></g><g><path d="M-126,-66.13199l53.77778,-31.04861l53.77778,31.04861v62.09723l-53.77778,31.04861l-53.77778,-31.04861z" fill="#675567"/><path d="M-126,-66.13199l53.77778,-31.04861l53.77778,31.04861l-53.77778,31.04861z" fill="#9b809b"/><path d="M-18.44444,-66.13199v62.09723l-53.77778,31.04861v-62.09723z" fill="#342b34"/></g><g><path d="M-18.44444,-66.13199l53.77778,-31.04861l53.77778,31.04861v62.09723l-53.77778,31.04861l-53.77778,-31.04861z" fill="#b2a1c6"/><path d="M-18.44444,-66.13199l53.77778,-31.04861l53.77778,31.04861l-53.77778,31.04861z" fill="#fff1ff"/><path d="M89.11111,-66.13199v62.09723l-53.77778,31.04861v-62.09723z" fill="#595063"/></g><g><path d="M89.11111,-66.13199l53.77778,-31.04861l53.77778,31.04861v62.09723l-53.77778,31.04861l-53.77778,-31.04861z" fill="#b59cc8"/><path d="M89.11111,-66.13199l53.77778,-31.04861l53.77778,31.04861l-53.77778,31.04861z" fill="#ffeaff"/><path d="M196.66667,-66.13199v62.09723l-53.77778,31.04861v-62.09723z" fill="#5b4e64"/></g><g><path d="M196.66667,-66.13199l53.77778,-31.04861l53.77778,31.04861v62.09723l-53.77778,31.04861l-53.77778,-31.04861z" fill="#b09dba"/><path d="M196.66667,-66.13199l53.77778,-31.04861l53.77778,31.04861l-53.77778,31.04861z" fill="#ffebff"/><path d="M304.22222,-66.13199v62.09723l-53.77778,31.04861v-62.09723z" fill="#584e5d"/></g><g><path d="M304.22222,-66.13199l53.77778,-31.04861l53.77778,31.04861v62.09723l-53.77778,31.04861l-53.77778,-31.04861z" fill="#b791b7"/><path d="M304.22222,-66.13199l53.77778,-31.04861l53.77778,31.04861l-53.77778,31.04861z" fill="#ffd9ff"/><path d="M411.77778,-66.13199v62.09723l-53.77778,31.04861v-62.09723z" fill="#5c485c"/></g><g><path d="M411.77778,-66.13199l53.77778,-31.04861l53.77778,31.04861v62.09723l-53.77778,31.04861l-53.77778,-31.04861z" fill="#b394b3"/><path d="M411.77778,-66.13199l53.77778,-31.04861l53.77778,31.04861l-53.77778,31.04861z" fill="#ffdeff"/><path d="M519.33333,-66.13199v62.09723l-53.77778,31.04861v-62.09723z" fill="#5a4a5a"/></g><g><path d="M519.33333,-66.13199l53.77778,-31.04861l53.77778,31.04861v62.09723l-53.77778,31.04861l-53.77778,-31.04861z" fill="#b393b3"/><path d="M519.33333,-66.13199l53.77778,-31.04861l53.77778,31.04861l-53.77778,31.04861z" fill="#ffddff"/><path d="M626.88889,-66.13199v62.09723l-53.77778,31.04861v-62.09723z" fill="#5a4a5a"/></g><g><path d="M626.88889,-66.13199l53.77778,-31.04861l53.77778,31.04861v62.09723l-53.77778,31.04861l-53.77778,-31.04861z" fill="#b096b0"/><path d="M626.88889,-66.13199l53.77778,-31.04861l53.77778,31.04861l-53.77778,31.04861z" fill="#ffe1ff"/><path d="M734.44444,-66.13199v62.09723l-53.77778,31.04861v-62.09723z" fill="#584b58"/></g><g><path d="M734.44444,-66.13199l53.77778,-31.04861l53.77778,31.04861v62.09723l-53.77778,31.04861l-53.77778,-31.04861z" fill="#b98cb9"/><path d="M734.44444,-66.13199l53.77778,-31.04861l53.77778,31.04861l-53.77778,31.04861z" fill="#ffd1ff"/><path d="M842,-66.13199v62.09723l-53.77778,31.04861v-62.09723z" fill="#5c465c"/></g><g><path d="M842,-66.13199l53.77778,-31.04861l53.77778,31.04861v62.09723l-53.77778,31.04861l-53.77778,-31.04861z" fill="#b88bb8"/><path d="M842,-66.13199l53.77778,-31.04861l53.77778,31.04861l-53.77778,31.04861z" fill="#ffd1ff"/><path d="M949.55556,-66.13199v62.09723l-53.77778,31.04861v-62.09723z" fill="#5c465c"/></g><g><path d="M949.55556,-66.13199l53.77778,-31.04861l53.77778,31.04861v62.09723l-53.77778,31.04861l-53.77778,-31.04861z" fill="#af99af"/><path d="M949.55556,-66.13199l53.77778,-31.04861l53.77778,31.04861l-53.77778,31.04861z" fill="#ffe5ff"/><path d="M1057.11111,-66.13199v62.09723l-53.77778,31.04861v-62.09723z" fill="#574c57"/></g><g><path d="M1057.11111,-66.13199l53.77778,-31.04861l53.77778,31.04861v62.09723l-53.77778,31.04861l-53.77778,-31.04861z" fill="#b490b4"/><path d="M1057.11111,-66.13199l53.77778,-31.04861l53.77778,31.04861l-53.77778,31.04861z" fill="#ffd9ff"/><path d="M1164.66667,-66.13199v62.09723l-53.77778,31.04861v-62.09723z" fill="#5a485a"/></g><g><path d="M1164.66667,-66.13199l53.77778,-31.04861l53.77778,31.04861v62.09723l-53.77778,31.04861l-53.77778,-31.04861z" fill="#b098b0"/><path d="M1164.66667,-66.13199l53.77778,-31.04861l53.77778,31.04861l-53.77778,31.04861z" fill="#ffe4ff"/><path d="M1272.22222,-66.13199v62.09723l-53.77778,31.04861v-62.09723z" fill="#584c58"/></g><g><path d="M-72.22222,27.01386l53.77778,-31.04861l53.77778,31.04861v62.09723l-53.77778,31.04861l-53.77778,-31.04861z" fill="#a54da5"/><path d="M-72.22222,27.01386l53.77778,-31.04861l53.77778,31.04861l-53.77778,31.04861z" fill="#f773f7"/><path d="M35.33333,27.01386v62.09723l-53.77778,31.04861v-62.09723z" fill="#522652"/></g><g><path d="M35.33333,27.01386l53.77778,-31.04861l53.77778,31.04861v62.09723l-53.77778,31.04861l-53.77778,-31.04861z" fill="#ca5cca"/><path d="M35.33333,27.01386l53.77778,-31.04861l53.77778,31.04861l-53.77778,31.04861z" fill="#ff89ff"/><path d="M142.88889,27.01386v62.09723l-53.77778,31.04861v-62.09723z" fill="#652e65"/></g><g><path d="M142.88889,27.01386l53.77778,-31.04861l53.77778,31.04861v62.09723l-53.77778,31.04861l-53.77778,-31.04861z" fill="#c35cc3"/><path d="M142.88889,27.01386l53.77778,-31.04861l53.77778,31.04861l-53.77778,31.04861z" fill="#ff8aff"/><path d="M250.44444,27.01386v62.09723l-53.77778,31.04861v-62.09723z" fill="#622e62"/></g><g><path d="M250.44444,27.01386l53.77778,-31.04861l53.77778,31.04861v62.09723l-53.77778,31.04861l-53.77778,-31.04861z" fill="#ce56ce"/><path d="M250.44444,27.01386l53.77778,-31.04861l53.77778,31.04861l-53.77778,31.04861z" fill="#ff81ff"/><path d="M358,27.01386v62.09723l-53.77778,31.04861v-62.09723z" fill="#672b67"/></g><g><path d="M358,27.01386l53.77778,-31.04861l53.77778,31.04861v62.09723l-53.77778,31.04861l-53.77778,-31.04861z" fill="#c559c5"/><path d="M358,27.01386l53.77778,-31.04861l53.77778,31.04861l-53.77778,31.04861z" fill="#ff85ff"/><path d="M465.55556,27.01386v62.09723l-53.77778,31.04861v-62.09723z" fill="#622c62"/></g><g><path d="M465.55556,27.01386l53.77778,-31.04861l53.77778,31.04861v62.09723l-53.77778,31.04861l-53.77778,-31.04861z" fill="#c55bc5"/><path d="M465.55556,27.01386l53.77778,-31.04861l53.77778,31.04861l-53.77778,31.04861z" fill="#ff89ff"/><path d="M573.11111,27.01386v62.09723l-53.77778,31.04861v-62.09723z" fill="#632e63"/></g><g><path d="M573.11111,27.01386l53.77778,-31.04861l53.77778,31.04861v62.09723l-53.77778,31.04861l-53.77778,-31.04861z" fill="#c45dc4"/><path d="M573.11111,27.01386l53.77778,-31.04861l53.77778,31.04861l-53.77778,31.04861z" fill="#ff8bff"/><path d="M680.66667,27.01386v62.09723l-53.77778,31.04861v-62.09723z" fill="#622e62"/></g><g><path d="M680.66667,27.01386l53.77778,-31.04861l53.77778,31.04861v62.09723l-53.77778,31.04861l-53.77778,-31.04861z" fill="#c65ac6"/><path d="M680.66667,27.01386l53.77778,-31.04861l53.77778,31.04861l-53.77778,31.04861z" fill="#ff88ff"/><path d="M788.22222,27.01386v62.09723l-53.77778,31.04861v-62.09723z" fill="#632d63"/></g><g><path d="M788.22222,27.01386l53.77778,-31.04861l53.77778,31.04861v62.09723l-53.77778,31.04861l-53.77778,-31.04861z" fill="#c55bc5"/><path d="M788.22222,27.01386l53.77778,-31.04861l53.77778,31.04861l-53.77778,31.04861z" fill="#ff89ff"/><path d="M895.77778,27.01386v62.09723l-53.77778,31.04861v-62.09723z" fill="#632e63"/></g><g><path d="M895.77778,27.01386l53.77778,-31.04861l53.77778,31.04861v62.09723l-53.77778,31.04861l-53.77778,-31.04861z" fill="#c55bc5"/><path d="M895.77778,27.01386l53.77778,-31.04861l53.77778,31.04861l-53.77778,31.04861z" fill="#ff89ff"/><path d="M1003.33333,27.01386v62.09723l-53.77778,31.04861v-62.09723z" fill="#622e62"/></g><g><path d="M1003.33333,27.01386l53.77778,-31.04861l53.77778,31.04861v62.09723l-53.77778,31.04861l-53.77778,-31.04861z" fill="#c460c4"/><path d="M1003.33333,27.01386l53.77778,-31.04861l53.77778,31.04861l-53.77778,31.04861z" fill="#ff90ff"/><path d="M1110.88889,27.01386v62.09723l-53.77778,31.04861v-62.09723z" fill="#623062"/></g><g><path d="M1110.88889,27.01386l53.77778,-31.04861l53.77778,31.04861v62.09723l-53.77778,31.04861l-53.77778,-31.04861z" fill="#bd68bd"/><path d="M1110.88889,27.01386l53.77778,-31.04861l53.77778,31.04861l-53.77778,31.04861z" fill="#ff9cff"/><path d="M1218.44444,27.01386v62.09723l-53.77778,31.04861v-62.09723z" fill="#5f345f"/></g><g><path d="M1218.44444,27.01386l53.77778,-31.04861l53.77778,31.04861v62.09723l-53.77778,31.04861l-53.77778,-31.04861z" fill="#b574b5"/><path d="M1218.44444,27.01386l53.77778,-31.04861l53.77778,31.04861l-53.77778,31.04861z" fill="#ffaeff"/><path d="M1326,27.01386v62.09723l-53.77778,31.04861v-62.09723z" fill="#5b3a5b"/></g><g><path d="M-126,120.1597l53.77778,-31.04861l53.77778,31.04861v62.09723l-53.77778,31.04861l-53.77778,-31.04861z" fill="#752a75"/><path d="M-126,120.1597l53.77778,-31.04861l53.77778,31.04861l-53.77778,31.04861z" fill="#af3faf"/><path d="M-18.44444,120.1597v62.09723l-53.77778,31.04861v-62.09723z" fill="#3a153a"/></g><g><path d="M-18.44444,120.1597l53.77778,-31.04861l53.77778,31.04861v62.09723l-53.77778,31.04861l-53.77778,-31.04861z" fill="#d54fd5"/><path d="M-18.44444,120.1597l53.77778,-31.04861l53.77778,31.04861l-53.77778,31.04861z" fill="#ff77ff"/><path d="M89.11111,120.1597v62.09723l-53.77778,31.04861v-62.09723z" fill="#6a286a"/></g><g><path d="M89.11111,120.1597l53.77778,-31.04861l53.77778,31.04861v62.09723l-53.77778,31.04861l-53.77778,-31.04861z" fill="#de48de"/><path d="M89.11111,120.1597l53.77778,-31.04861l53.77778,31.04861l-53.77778,31.04861z" fill="#ff6dff"/><path d="M196.66667,120.1597v62.09723l-53.77778,31.04861v-62.09723z" fill="#6f246f"/></g><g><path d="M196.66667,120.1597l53.77778,-31.04861l53.77778,31.04861v62.09723l-53.77778,31.04861l-53.77778,-31.04861z" fill="#da49da"/><path d="M196.66667,120.1597l53.77778,-31.04861l53.77778,31.04861l-53.77778,31.04861z" fill="#ff6dff"/><path d="M304.22222,120.1597v62.09723l-53.77778,31.04861v-62.09723z" fill="#6d246d"/></g><g><path d="M304.22222,120.1597l53.77778,-31.04861l53.77778,31.04861v62.09723l-53.77778,31.04861l-53.77778,-31.04861z" fill="#cb51cb"/><path d="M304.22222,120.1597l53.77778,-31.04861l53.77778,31.04861l-53.77778,31.04861z" fill="#ff79ff"/><path d="M411.77778,120.1597v62.09723l-53.77778,31.04861v-62.09723z" fill="#662866"/></g><g><path d="M411.77778,120.1597l53.77778,-31.04861l53.77778,31.04861v62.09723l-53.77778,31.04861l-53.77778,-31.04861z" fill="#ca52ca"/><path d="M411.77778,120.1597l53.77778,-31.04861l53.77778,31.04861l-53.77778,31.04861z" fill="#ff7bff"/><path d="M519.33333,120.1597v62.09723l-53.77778,31.04861v-62.09723z" fill="#652965"/></g><g><path d="M519.33333,120.1597l53.77778,-31.04861l53.77778,31.04861v62.09723l-53.77778,31.04861l-53.77778,-31.04861z" fill="#cb51cb"/><path d="M519.33333,120.1597l53.77778,-31.04861l53.77778,31.04861l-53.77778,31.04861z" fill="#ff79ff"/><path d="M626.88889,120.1597v62.09723l-53.77778,31.04861v-62.09723z" fill="#652865"/></g><g><path d="M626.88889,120.1597l53.77778,-31.04861l53.77778,31.04861v62.09723l-53.77778,31.04861l-53.77778,-31.04861z" fill="#ce4cce"/><path d="M626.88889,120.1597l53.77778,-31.04861l53.77778,31.04861l-53.77778,31.04861z" fill="#ff73ff"/><path d="M734.44444,120.1597v62.09723l-53.77778,31.04861v-62.09723z" fill="#672667"/></g><g><path d="M734.44444,120.1597l53.77778,-31.04861l53.77778,31.04861v62.09723l-53.77778,31.04861l-53.77778,-31.04861z" fill="#c855c8"/><path d="M734.44444,120.1597l53.77778,-31.04861l53.77778,31.04861l-53.77778,31.04861z" fill="#ff7fff"/><path d="M842,120.1597v62.09723l-53.77778,31.04861v-62.09723z" fill="#642a64"/></g><g><path d="M842,120.1597l53.77778,-31.04861l53.77778,31.04861v62.09723l-53.77778,31.04861l-53.77778,-31.04861z" fill="#cc50cc"/><path d="M842,120.1597l53.77778,-31.04861l53.77778,31.04861l-53.77778,31.04861z" fill="#ff79ff"/><path d="M949.55556,120.1597v62.09723l-53.77778,31.04861v-62.09723z" fill="#662866"/></g><g><path d="M949.55556,120.1597l53.77778,-31.04861l53.77778,31.04861v62.09723l-53.77778,31.04861l-53.77778,-31.04861z" fill="#cc51cc"/><path d="M949.55556,120.1597l53.77778,-31.04861l53.77778,31.04861l-53.77778,31.04861z" fill="#ff79ff"/><path d="M1057.11111,120.1597v62.09723l-53.77778,31.04861v-62.09723z" fill="#662866"/></g><g><path d="M1057.11111,120.1597l53.77778,-31.04861l53.77778,31.04861v62.09723l-53.77778,31.04861l-53.77778,-31.04861z" fill="#c855c8"/><path d="M1057.11111,120.1597l53.77778,-31.04861l53.77778,31.04861l-53.77778,31.04861z" fill="#ff7fff"/><path d="M1164.66667,120.1597v62.09723l-53.77778,31.04861v-62.09723z" fill="#642a64"/></g><g><path d="M1164.66667,120.1597l53.77778,-31.04861l53.77778,31.04861v62.09723l-53.77778,31.04861l-53.77778,-31.04861z" fill="#b173b1"/><path d="M1164.66667,120.1597l53.77778,-31.04861l53.77778,31.04861l-53.77778,31.04861z" fill="#ffacff"/><path d="M1272.22222,120.1597v62.09723l-53.77778,31.04861v-62.09723z" fill="#583958"/></g><g><path d="M-72.22222,213.30554l53.77778,-31.04861l53.77778,31.04861v62.09723l-53.77778,31.04861l-53.77778,-31.04861z" fill="#a54cac"/><path d="M-72.22222,213.30554l53.77778,-31.04861l53.77778,31.04861l-53.77778,31.04861z" fill="#f872ff"/><path d="M35.33333,213.30554v62.09723l-53.77778,31.04861v-62.09723z" fill="#532656"/></g><g><path d="M35.33333,213.30554l53.77778,-31.04861l53.77778,31.04861v62.09723l-53.77778,31.04861l-53.77778,-31.04861z" fill="#cd5fdb"/><path d="M35.33333,213.30554l53.77778,-31.04861l53.77778,31.04861l-53.77778,31.04861z" fill="#ff8eff"/><path d="M142.88889,213.30554v62.09723l-53.77778,31.04861v-62.09723z" fill="#672f6d"/></g><g><path d="M142.88889,213.30554l53.77778,-31.04861l53.77778,31.04861v62.09723l-53.77778,31.04861l-53.77778,-31.04861z" fill="#cf61e2"/><path d="M142.88889,213.30554l53.77778,-31.04861l53.77778,31.04861l-53.77778,31.04861z" fill="#ff92ff"/><path d="M250.44444,213.30554v62.09723l-53.77778,31.04861v-62.09723z" fill="#673171"/></g><g><path d="M250.44444,213.30554l53.77778,-31.04861l53.77778,31.04861v62.09723l-53.77778,31.04861l-53.77778,-31.04861z" fill="#d35ddd"/><path d="M250.44444,213.30554l53.77778,-31.04861l53.77778,31.04861l-53.77778,31.04861z" fill="#ff8bff"/><path d="M358,213.30554v62.09723l-53.77778,31.04861v-62.09723z" fill="#6a2e6e"/></g><g><path d="M358,213.30554l53.77778,-31.04861l53.77778,31.04861v62.09723l-53.77778,31.04861l-53.77778,-31.04861z" fill="#c463d3"/><path d="M358,213.30554l53.77778,-31.04861l53.77778,31.04861l-53.77778,31.04861z" fill="#ff95ff"/><path d="M465.55556,213.30554v62.09723l-53.77778,31.04861v-62.09723z" fill="#62326a"/></g><g><path d="M465.55556,213.30554l53.77778,-31.04861l53.77778,31.04861v62.09723l-53.77778,31.04861l-53.77778,-31.04861z" fill="#c25dc4"/><path d="M465.55556,213.30554l53.77778,-31.04861l53.77778,31.04861l-53.77778,31.04861z" fill="#ff8cff"/><path d="M573.11111,213.30554v62.09723l-53.77778,31.04861v-62.09723z" fill="#612f62"/></g><g><path d="M573.11111,213.30554l53.77778,-31.04861l53.77778,31.04861v62.09723l-53.77778,31.04861l-53.77778,-31.04861z" fill="#c856c8"/><path d="M573.11111,213.30554l53.77778,-31.04861l53.77778,31.04861l-53.77778,31.04861z" fill="#ff81ff"/><path d="M680.66667,213.30554v62.09723l-53.77778,31.04861v-62.09723z" fill="#642b64"/></g><g><path d="M680.66667,213.30554l53.77778,-31.04861l53.77778,31.04861v62.09723l-53.77778,31.04861l-53.77778,-31.04861z" fill="#c55ac5"/><path d="M680.66667,213.30554l53.77778,-31.04861l53.77778,31.04861l-53.77778,31.04861z" fill="#ff86ff"/><path d="M788.22222,213.30554v62.09723l-53.77778,31.04861v-62.09723z" fill="#622d62"/></g><g><path d="M788.22222,213.30554l53.77778,-31.04861l53.77778,31.04861v62.09723l-53.77778,31.04861l-53.77778,-31.04861z" fill="#c55bc5"/><path d="M788.22222,213.30554l53.77778,-31.04861l53.77778,31.04861l-53.77778,31.04861z" fill="#ff89ff"/><path d="M895.77778,213.30554v62.09723l-53.77778,31.04861v-62.09723z" fill="#632e63"/></g><g><path d="M895.77778,213.30554l53.77778,-31.04861l53.77778,31.04861v62.09723l-53.77778,31.04861l-53.77778,-31.04861z" fill="#c55cc5"/><path d="M895.77778,213.30554l53.77778,-31.04861l53.77778,31.04861l-53.77778,31.04861z" fill="#ff8aff"/><path d="M1003.33333,213.30554v62.09723l-53.77778,31.04861v-62.09723z" fill="#622e62"/></g><g><path d="M1003.33333,213.30554l53.77778,-31.04861l53.77778,31.04861v62.09723l-53.77778,31.04861l-53.77778,-31.04861z" fill="#c25fc5"/><path d="M1003.33333,213.30554l53.77778,-31.04861l53.77778,31.04861l-53.77778,31.04861z" fill="#ff8eff"/><path d="M1110.88889,213.30554v62.09723l-53.77778,31.04861v-62.09723z" fill="#612f63"/></g><g><path d="M1110.88889,213.30554l53.77778,-31.04861l53.77778,31.04861v62.09723l-53.77778,31.04861l-53.77778,-31.04861z" fill="#bd6cc1"/><path d="M1110.88889,213.30554l53.77778,-31.04861l53.77778,31.04861l-53.77778,31.04861z" fill="#ffa2ff"/><path d="M1218.44444,213.30554v62.09723l-53.77778,31.04861v-62.09723z" fill="#5e3660"/></g><g><path d="M1218.44444,213.30554l53.77778,-31.04861l53.77778,31.04861v62.09723l-53.77778,31.04861l-53.77778,-31.04861z" fill="#bb85d6"/><path d="M1218.44444,213.30554l53.77778,-31.04861l53.77778,31.04861l-53.77778,31.04861z" fill="#ffc7ff"/><path d="M1326,213.30554v62.09723l-53.77778,31.04861v-62.09723z" fill="#5e426b"/></g><g><path d="M-126,306.45139l53.77778,-31.04861l53.77778,31.04861v62.09723l-53.77778,31.04861l-53.77778,-31.04861z" fill="#4e3a4e"/><path d="M-126,306.45139l53.77778,-31.04861l53.77778,31.04861l-53.77778,31.04861z" fill="#755775"/><path d="M-18.44444,306.45139v62.09723l-53.77778,31.04861v-62.09723z" fill="#271d27"/></g><g><path d="M-18.44444,306.45139l53.77778,-31.04861l53.77778,31.04861v62.09723l-53.77778,31.04861l-53.77778,-31.04861z" fill="#a191da"/><path d="M-18.44444,306.45139l53.77778,-31.04861l53.77778,31.04861l-53.77778,31.04861z" fill="#f1daff"/><path d="M89.11111,306.45139v62.09723l-53.77778,31.04861v-62.09723z" fill="#50496d"/></g><g><path d="M89.11111,306.45139l53.77778,-31.04861l53.77778,31.04861v62.09723l-53.77778,31.04861l-53.77778,-31.04861z" fill="#b593f1"/><path d="M89.11111,306.45139l53.77778,-31.04861l53.77778,31.04861l-53.77778,31.04861z" fill="#ffdcff"/><path d="M196.66667,306.45139v62.09723l-53.77778,31.04861v-62.09723z" fill="#5b4979"/></g><g><path d="M196.66667,306.45139l53.77778,-31.04861l53.77778,31.04861v62.09723l-53.77778,31.04861l-53.77778,-31.04861z" fill="#a0aff5"/><path d="M196.66667,306.45139l53.77778,-31.04861l53.77778,31.04861l-53.77778,31.04861z" fill="#f0ffff"/><path d="M304.22222,306.45139v62.09723l-53.77778,31.04861v-62.09723z" fill="#50587b"/></g><g><path d="M304.22222,306.45139l53.77778,-31.04861l53.77778,31.04861v62.09723l-53.77778,31.04861l-53.77778,-31.04861z" fill="#a38cc7"/><path d="M304.22222,306.45139l53.77778,-31.04861l53.77778,31.04861l-53.77778,31.04861z" fill="#f4d2ff"/><path d="M411.77778,306.45139v62.09723l-53.77778,31.04861v-62.09723z" fill="#514663"/></g><g><path d="M411.77778,306.45139l53.77778,-31.04861l53.77778,31.04861v62.09723l-53.77778,31.04861l-53.77778,-31.04861z" fill="#9da0e1"/><path d="M411.77778,306.45139l53.77778,-31.04861l53.77778,31.04861l-53.77778,31.04861z" fill="#ecf0ff"/><path d="M519.33333,306.45139v62.09723l-53.77778,31.04861v-62.09723z" fill="#4f5071"/></g><g><path d="M519.33333,306.45139l53.77778,-31.04861l53.77778,31.04861v62.09723l-53.77778,31.04861l-53.77778,-31.04861z" fill="#a67ab9"/><path d="M519.33333,306.45139l53.77778,-31.04861l53.77778,31.04861l-53.77778,31.04861z" fill="#f9b7ff"/><path d="M626.88889,306.45139v62.09723l-53.77778,31.04861v-62.09723z" fill="#533d5c"/></g><g><path d="M626.88889,306.45139l53.77778,-31.04861l53.77778,31.04861v62.09723l-53.77778,31.04861l-53.77778,-31.04861z" fill="#aa6aac"/><path d="M626.88889,306.45139l53.77778,-31.04861l53.77778,31.04861l-53.77778,31.04861z" fill="#fe9fff"/><path d="M734.44444,306.45139v62.09723l-53.77778,31.04861v-62.09723z" fill="#553556"/></g><g><path d="M734.44444,306.45139l53.77778,-31.04861l53.77778,31.04861v62.09723l-53.77778,31.04861l-53.77778,-31.04861z" fill="#9e84b8"/><path d="M734.44444,306.45139l53.77778,-31.04861l53.77778,31.04861l-53.77778,31.04861z" fill="#edc6ff"/><path d="M842,306.45139v62.09723l-53.77778,31.04861v-62.09723z" fill="#4f425c"/></g><g><path d="M842,306.45139l53.77778,-31.04861l53.77778,31.04861v62.09723l-53.77778,31.04861l-53.77778,-31.04861z" fill="#a57ab9"/><path d="M842,306.45139l53.77778,-31.04861l53.77778,31.04861l-53.77778,31.04861z" fill="#f8b7ff"/><path d="M949.55556,306.45139v62.09723l-53.77778,31.04861v-62.09723z" fill="#533d5c"/></g><g><path d="M949.55556,306.45139l53.77778,-31.04861l53.77778,31.04861v62.09723l-53.77778,31.04861l-53.77778,-31.04861z" fill="#9e99d1"/><path d="M949.55556,306.45139l53.77778,-31.04861l53.77778,31.04861l-53.77778,31.04861z" fill="#ede5ff"/><path d="M1057.11111,306.45139v62.09723l-53.77778,31.04861v-62.09723z" fill="#4f4c68"/></g><g><path d="M1057.11111,306.45139l53.77778,-31.04861l53.77778,31.04861v62.09723l-53.77778,31.04861l-53.77778,-31.04861z" fill="#a085bc"/><path d="M1057.11111,306.45139l53.77778,-31.04861l53.77778,31.04861l-53.77778,31.04861z" fill="#efc8ff"/><path d="M1164.66667,306.45139v62.09723l-53.77778,31.04861v-62.09723z" fill="#50435e"/></g><g><path d="M1164.66667,306.45139l53.77778,-31.04861l53.77778,31.04861v62.09723l-53.77778,31.04861l-53.77778,-31.04861z" fill="#97a0d6"/><path d="M1164.66667,306.45139l53.77778,-31.04861l53.77778,31.04861l-53.77778,31.04861z" fill="#e2efff"/><path d="M1272.22222,306.45139v62.09723l-53.77778,31.04861v-62.09723z" fill="#4b506b"/></g><g><path d="M-72.22222,399.59723l53.77778,-31.04861l53.77778,31.04861v62.09723l-53.77778,31.04861l-53.77778,-31.04861z" fill="#855291"/><path d="M-72.22222,399.59723l53.77778,-31.04861l53.77778,31.04861l-53.77778,31.04861z" fill="#c77ada"/><path d="M35.33333,399.59723v62.09723l-53.77778,31.04861v-62.09723z" fill="#422949"/></g><g><path d="M35.33333,399.59723l53.77778,-31.04861l53.77778,31.04861v62.09723l-53.77778,31.04861l-53.77778,-31.04861z" fill="#95aafe"/><path d="M35.33333,399.59723l53.77778,-31.04861l53.77778,31.04861l-53.77778,31.04861z" fill="#dffeff"/><path d="M142.88889,399.59723v62.09723l-53.77778,31.04861v-62.09723z" fill="#4a557f"/></g><g><path d="M142.88889,399.59723l53.77778,-31.04861l53.77778,31.04861v62.09723l-53.77778,31.04861l-53.77778,-31.04861z" fill="#95a6f4"/><path d="M142.88889,399.59723l53.77778,-31.04861l53.77778,31.04861l-53.77778,31.04861z" fill="#e0f8ff"/><path d="M250.44444,399.59723v62.09723l-53.77778,31.04861v-62.09723z" fill="#4b537a"/></g><g><path d="M250.44444,399.59723l53.77778,-31.04861l53.77778,31.04861v62.09723l-53.77778,31.04861l-53.77778,-31.04861z" fill="#9c96e9"/><path d="M250.44444,399.59723l53.77778,-31.04861l53.77778,31.04861l-53.77778,31.04861z" fill="#eae1ff"/><path d="M358,399.59723v62.09723l-53.77778,31.04861v-62.09723z" fill="#4e4b75"/></g><g><path d="M358,399.59723l53.77778,-31.04861l53.77778,31.04861v62.09723l-53.77778,31.04861l-53.77778,-31.04861z" fill="#90b6ff"/><path d="M358,399.59723l53.77778,-31.04861l53.77778,31.04861l-53.77778,31.04861z" fill="#d9ffff"/><path d="M465.55556,399.59723v62.09723l-53.77778,31.04861v-62.09723z" fill="#485b80"/></g><g><path d="M465.55556,399.59723l53.77778,-31.04861l53.77778,31.04861v62.09723l-53.77778,31.04861l-53.77778,-31.04861z" fill="#9790d7"/><path d="M465.55556,399.59723l53.77778,-31.04861l53.77778,31.04861l-53.77778,31.04861z" fill="#e2d8ff"/><path d="M573.11111,399.59723v62.09723l-53.77778,31.04861v-62.09723z" fill="#4b486b"/></g><g><path d="M573.11111,399.59723l53.77778,-31.04861l53.77778,31.04861v62.09723l-53.77778,31.04861l-53.77778,-31.04861z" fill="#92b4ff"/><path d="M573.11111,399.59723l53.77778,-31.04861l53.77778,31.04861l-53.77778,31.04861z" fill="#dbffff"/><path d="M680.66667,399.59723v62.09723l-53.77778,31.04861v-62.09723z" fill="#495a80"/></g><g><path d="M680.66667,399.59723l53.77778,-31.04861l53.77778,31.04861v62.09723l-53.77778,31.04861l-53.77778,-31.04861z" fill="#97adff"/><path d="M680.66667,399.59723l53.77778,-31.04861l53.77778,31.04861l-53.77778,31.04861z" fill="#e3ffff"/><path d="M788.22222,399.59723v62.09723l-53.77778,31.04861v-62.09723z" fill="#4c577f"/></g><g><path d="M788.22222,399.59723l53.77778,-31.04861l53.77778,31.04861v62.09723l-53.77778,31.04861l-53.77778,-31.04861z" fill="#9991de"/><path d="M788.22222,399.59723l53.77778,-31.04861l53.77778,31.04861l-53.77778,31.04861z" fill="#e5d9ff"/><path d="M895.77778,399.59723v62.09723l-53.77778,31.04861v-62.09723z" fill="#4c486f"/></g><g><path d="M895.77778,399.59723l53.77778,-31.04861l53.77778,31.04861v62.09723l-53.77778,31.04861l-53.77778,-31.04861z" fill="#96acf8"/><path d="M895.77778,399.59723l53.77778,-31.04861l53.77778,31.04861l-53.77778,31.04861z" fill="#e2ffff"/><path d="M1003.33333,399.59723v62.09723l-53.77778,31.04861v-62.09723z" fill="#4b567c"/></g><g><path d="M1003.33333,399.59723l53.77778,-31.04861l53.77778,31.04861v62.09723l-53.77778,31.04861l-53.77778,-31.04861z" fill="#95b2ff"/><path d="M1003.33333,399.59723l53.77778,-31.04861l53.77778,31.04861l-53.77778,31.04861z" fill="#e0ffff"/><path d="M1110.88889,399.59723v62.09723l-53.77778,31.04861v-62.09723z" fill="#4b5980"/></g><g><path d="M1110.88889,399.59723l53.77778,-31.04861l53.77778,31.04861v62.09723l-53.77778,31.04861l-53.77778,-31.04861z" fill="#8ea8e7"/><path d="M1110.88889,399.59723l53.77778,-31.04861l53.77778,31.04861l-53.77778,31.04861z" fill="#d5fcff"/><path d="M1218.44444,399.59723v62.09723l-53.77778,31.04861v-62.09723z" fill="#475473"/></g><g><path d="M1218.44444,399.59723l53.77778,-31.04861l53.77778,31.04861v62.09723l-53.77778,31.04861l-53.77778,-31.04861z" fill="#83c4ff"/><path d="M1218.44444,399.59723l53.77778,-31.04861l53.77778,31.04861l-53.77778,31.04861z" fill="#c4ffff"/><path d="M1326,399.59723v62.09723l-53.77778,31.04861v-62.09723z" fill="#416280"/></g><g><path d="M-126,492.74307l53.77778,-31.04861l53.77778,31.04861v62.09723l-53.77778,31.04861l-53.77778,-31.04861z" fill="#5d245d"/><path d="M-126,492.74307l53.77778,-31.04861l53.77778,31.04861l-53.77778,31.04861z" fill="#8c368c"/><path d="M-18.44444,492.74307v62.09723l-53.77778,31.04861v-62.09723z" fill="#2f122f"/></g><g><path d="M-18.44444,492.74307l53.77778,-31.04861l53.77778,31.04861v62.09723l-53.77778,31.04861l-53.77778,-31.04861z" fill="#a47be7"/><path d="M-18.44444,492.74307l53.77778,-31.04861l53.77778,31.04861l-53.77778,31.04861z" fill="#f6b8ff"/><path d="M89.11111,492.74307v62.09723l-53.77778,31.04861v-62.09723z" fill="#523d73"/></g><g><path d="M89.11111,492.74307l53.77778,-31.04861l53.77778,31.04861v62.09723l-53.77778,31.04861l-53.77778,-31.04861z" fill="#a58af5"/><path d="M89.11111,492.74307l53.77778,-31.04861l53.77778,31.04861l-53.77778,31.04861z" fill="#f7cfff"/><path d="M196.66667,492.74307v62.09723l-53.77778,31.04861v-62.09723z" fill="#52457a"/></g><g><path d="M196.66667,492.74307l53.77778,-31.04861l53.77778,31.04861v62.09723l-53.77778,31.04861l-53.77778,-31.04861z" fill="#a77ce8"/><path d="M196.66667,492.74307l53.77778,-31.04861l53.77778,31.04861l-53.77778,31.04861z" fill="#fabaff"/><path d="M304.22222,492.74307v62.09723l-53.77778,31.04861v-62.09723z" fill="#533e74"/></g><g><path d="M304.22222,492.74307l53.77778,-31.04861l53.77778,31.04861v62.09723l-53.77778,31.04861l-53.77778,-31.04861z" fill="#a18ffe"/><path d="M304.22222,492.74307l53.77778,-31.04861l53.77778,31.04861l-53.77778,31.04861z" fill="#f2d6ff"/><path d="M411.77778,492.74307v62.09723l-53.77778,31.04861v-62.09723z" fill="#51477f"/></g><g><path d="M411.77778,492.74307l53.77778,-31.04861l53.77778,31.04861v62.09723l-53.77778,31.04861l-53.77778,-31.04861z" fill="#ac76e8"/><path d="M411.77778,492.74307l53.77778,-31.04861l53.77778,31.04861l-53.77778,31.04861z" fill="#ffb1ff"/><path d="M519.33333,492.74307v62.09723l-53.77778,31.04861v-62.09723z" fill="#563b74"/></g><g><path d="M519.33333,492.74307l53.77778,-31.04861l53.77778,31.04861v62.09723l-53.77778,31.04861l-53.77778,-31.04861z" fill="#ad6edb"/><path d="M519.33333,492.74307l53.77778,-31.04861l53.77778,31.04861l-53.77778,31.04861z" fill="#ffa5ff"/><path d="M626.88889,492.74307v62.09723l-53.77778,31.04861v-62.09723z" fill="#56376e"/></g><g><path d="M626.88889,492.74307l53.77778,-31.04861l53.77778,31.04861v62.09723l-53.77778,31.04861l-53.77778,-31.04861z" fill="#9e95ff"/><path d="M626.88889,492.74307l53.77778,-31.04861l53.77778,31.04861l-53.77778,31.04861z" fill="#eddfff"/><path d="M734.44444,492.74307v62.09723l-53.77778,31.04861v-62.09723z" fill="#4f4a7f"/></g><g><path d="M734.44444,492.74307l53.77778,-31.04861l53.77778,31.04861v62.09723l-53.77778,31.04861l-53.77778,-31.04861z" fill="#a38bf5"/><path d="M734.44444,492.74307l53.77778,-31.04861l53.77778,31.04861l-53.77778,31.04861z" fill="#f5d1ff"/><path d="M842,492.74307v62.09723l-53.77778,31.04861v-62.09723z" fill="#52467b"/></g><g><path d="M842,492.74307l53.77778,-31.04861l53.77778,31.04861v62.09723l-53.77778,31.04861l-53.77778,-31.04861z" fill="#a586f0"/><path d="M842,492.74307l53.77778,-31.04861l53.77778,31.04861l-53.77778,31.04861z" fill="#f7c9ff"/><path d="M949.55556,492.74307v62.09723l-53.77778,31.04861v-62.09723z" fill="#524378"/></g><g><path d="M949.55556,492.74307l53.77778,-31.04861l53.77778,31.04861v62.09723l-53.77778,31.04861l-53.77778,-31.04861z" fill="#9d96ff"/><path d="M949.55556,492.74307l53.77778,-31.04861l53.77778,31.04861l-53.77778,31.04861z" fill="#ece1ff"/><path d="M1057.11111,492.74307v62.09723l-53.77778,31.04861v-62.09723z" fill="#4f4b7f"/></g><g><path d="M1057.11111,492.74307l53.77778,-31.04861l53.77778,31.04861v62.09723l-53.77778,31.04861l-53.77778,-31.04861z" fill="#a293f9"/><path d="M1057.11111,492.74307l53.77778,-31.04861l53.77778,31.04861l-53.77778,31.04861z" fill="#f3dcff"/><path d="M1164.66667,492.74307v62.09723l-53.77778,31.04861v-62.09723z" fill="#51497d"/></g><g><path d="M1164.66667,492.74307l53.77778,-31.04861l53.77778,31.04861v62.09723l-53.77778,31.04861l-53.77778,-31.04861z" fill="#76b5d8"/><path d="M1164.66667,492.74307l53.77778,-31.04861l53.77778,31.04861l-53.77778,31.04861z" fill="#b1ffff"/><path d="M1272.22222,492.74307v62.09723l-53.77778,31.04861v-62.09723z" fill="#3b5b6c"/></g><g><path d="M-72.22222,585.88892l53.77778,-31.04861l53.77778,31.04861v62.09723l-53.77778,31.04861l-53.77778,-31.04861z" fill="#88459a"/><path d="M-72.22222,585.88892l53.77778,-31.04861l53.77778,31.04861l-53.77778,31.04861z" fill="#cc67e7"/><path d="M35.33333,585.88892v62.09723l-53.77778,31.04861v-62.09723z" fill="#44224d"/></g><g><path d="M35.33333,585.88892l53.77778,-31.04861l53.77778,31.04861v62.09723l-53.77778,31.04861l-53.77778,-31.04861z" fill="#d743eb"/><path d="M35.33333,585.88892l53.77778,-31.04861l53.77778,31.04861l-53.77778,31.04861z" fill="#ff65ff"/><path d="M142.88889,585.88892v62.09723l-53.77778,31.04861v-62.09723z" fill="#6c2276"/></g><g><path d="M142.88889,585.88892l53.77778,-31.04861l53.77778,31.04861v62.09723l-53.77778,31.04861l-53.77778,-31.04861z" fill="#b95ad7"/><path d="M142.88889,585.88892l53.77778,-31.04861l53.77778,31.04861l-53.77778,31.04861z" fill="#ff88ff"/><path d="M250.44444,585.88892v62.09723l-53.77778,31.04861v-62.09723z" fill="#5d2d6b"/></g><g><path d="M250.44444,585.88892l53.77778,-31.04861l53.77778,31.04861v62.09723l-53.77778,31.04861l-53.77778,-31.04861z" fill="#b569e8"/><path d="M250.44444,585.88892l53.77778,-31.04861l53.77778,31.04861l-53.77778,31.04861z" fill="#ff9dff"/><path d="M358,585.88892v62.09723l-53.77778,31.04861v-62.09723z" fill="#5a3474"/></g><g><path d="M358,585.88892l53.77778,-31.04861l53.77778,31.04861v62.09723l-53.77778,31.04861l-53.77778,-31.04861z" fill="#b577fe"/><path d="M358,585.88892l53.77778,-31.04861l53.77778,31.04861l-53.77778,31.04861z" fill="#ffb2ff"/><path d="M465.55556,585.88892v62.09723l-53.77778,31.04861v-62.09723z" fill="#5b3b7f"/></g><g><path d="M465.55556,585.88892l53.77778,-31.04861l53.77778,31.04861v62.09723l-53.77778,31.04861l-53.77778,-31.04861z" fill="#b85adb"/><path d="M465.55556,585.88892l53.77778,-31.04861l53.77778,31.04861l-53.77778,31.04861z" fill="#ff87ff"/><path d="M573.11111,585.88892v62.09723l-53.77778,31.04861v-62.09723z" fill="#5c2d6e"/></g><g><path d="M573.11111,585.88892l53.77778,-31.04861l53.77778,31.04861v62.09723l-53.77778,31.04861l-53.77778,-31.04861z" fill="#ac83fe"/><path d="M573.11111,585.88892l53.77778,-31.04861l53.77778,31.04861l-53.77778,31.04861z" fill="#ffc5ff"/><path d="M680.66667,585.88892v62.09723l-53.77778,31.04861v-62.09723z" fill="#56427f"/></g><g><path d="M680.66667,585.88892l53.77778,-31.04861l53.77778,31.04861v62.09723l-53.77778,31.04861l-53.77778,-31.04861z" fill="#b27cfc"/><path d="M680.66667,585.88892l53.77778,-31.04861l53.77778,31.04861l-53.77778,31.04861z" fill="#ffbaff"/><path d="M788.22222,585.88892v62.09723l-53.77778,31.04861v-62.09723z" fill="#593e7e"/></g><g><path d="M788.22222,585.88892l53.77778,-31.04861l53.77778,31.04861v62.09723l-53.77778,31.04861l-53.77778,-31.04861z" fill="#b85edf"/><path d="M788.22222,585.88892l53.77778,-31.04861l53.77778,31.04861l-53.77778,31.04861z" fill="#ff8dff"/><path d="M895.77778,585.88892v62.09723l-53.77778,31.04861v-62.09723z" fill="#5c2f70"/></g><g><path d="M895.77778,585.88892l53.77778,-31.04861l53.77778,31.04861v62.09723l-53.77778,31.04861l-53.77778,-31.04861z" fill="#b17efd"/><path d="M895.77778,585.88892l53.77778,-31.04861l53.77778,31.04861l-53.77778,31.04861z" fill="#ffbdff"/><path d="M1003.33333,585.88892v62.09723l-53.77778,31.04861v-62.09723z" fill="#593f7f"/></g><g><path d="M1003.33333,585.88892l53.77778,-31.04861l53.77778,31.04861v62.09723l-53.77778,31.04861l-53.77778,-31.04861z" fill="#ae83ff"/><path d="M1003.33333,585.88892l53.77778,-31.04861l53.77778,31.04861l-53.77778,31.04861z" fill="#ffc5ff"/><path d="M1110.88889,585.88892v62.09723l-53.77778,31.04861v-62.09723z" fill="#57427f"/></g><g><path d="M1110.88889,585.88892l53.77778,-31.04861l53.77778,31.04861v62.09723l-53.77778,31.04861l-53.77778,-31.04861z" fill="#a585ee"/><path d="M1110.88889,585.88892l53.77778,-31.04861l53.77778,31.04861l-53.77778,31.04861z" fill="#f8c8ff"/><path d="M1218.44444,585.88892v62.09723l-53.77778,31.04861v-62.09723z" fill="#534377"/></g><g><path d="M1218.44444,585.88892l53.77778,-31.04861l53.77778,31.04861v62.09723l-53.77778,31.04861l-53.77778,-31.04861z" fill="#4bf8ff"/><path d="M1218.44444,585.88892l53.77778,-31.04861l53.77778,31.04861l-53.77778,31.04861z" fill="#71ffff"/><path d="M1326,585.88892v62.09723l-53.77778,31.04861v-62.09723z" fill="#267c80"/></g><g><path d="M-126,679.03476l53.77778,-31.04861l53.77778,31.04861v62.09723l-53.77778,31.04861l-53.77778,-31.04861z" fill="#2c2c2c"/><path d="M-126,679.03476l53.77778,-31.04861l53.77778,31.04861l-53.77778,31.04861z" fill="#434343"/><path d="M-18.44444,679.03476v62.09723l-53.77778,31.04861v-62.09723z" fill="#161616"/></g><g><path d="M-18.44444,679.03476l53.77778,-31.04861l53.77778,31.04861v62.09723l-53.77778,31.04861l-53.77778,-31.04861z" fill="#7d7da3"/><path d="M-18.44444,679.03476l53.77778,-31.04861l53.77778,31.04861l-53.77778,31.04861z" fill="#bcbbf4"/><path d="M89.11111,679.03476v62.09723l-53.77778,31.04861v-62.09723z" fill="#3f3e51"/></g><g><path d="M89.11111,679.03476l53.77778,-31.04861l53.77778,31.04861v62.09723l-53.77778,31.04861l-53.77778,-31.04861z" fill="#ae6ece"/><path d="M89.11111,679.03476l53.77778,-31.04861l53.77778,31.04861l-53.77778,31.04861z" fill="#ffa5ff"/><path d="M196.66667,679.03476v62.09723l-53.77778,31.04861v-62.09723z" fill="#573767"/></g><g><path d="M196.66667,679.03476l53.77778,-31.04861l53.77778,31.04861v62.09723l-53.77778,31.04861l-53.77778,-31.04861z" fill="#a855a8"/><path d="M196.66667,679.03476l53.77778,-31.04861l53.77778,31.04861l-53.77778,31.04861z" fill="#fc80fc"/><path d="M304.22222,679.03476v62.09723l-53.77778,31.04861v-62.09723z" fill="#542b54"/></g><g><path d="M304.22222,679.03476l53.77778,-31.04861l53.77778,31.04861v62.09723l-53.77778,31.04861l-53.77778,-31.04861z" fill="#b064c9"/><path d="M304.22222,679.03476l53.77778,-31.04861l53.77778,31.04861l-53.77778,31.04861z" fill="#ff96ff"/><path d="M411.77778,679.03476v62.09723l-53.77778,31.04861v-62.09723z" fill="#583265"/></g><g><path d="M411.77778,679.03476l53.77778,-31.04861l53.77778,31.04861v62.09723l-53.77778,31.04861l-53.77778,-31.04861z" fill="#8588bd"/><path d="M411.77778,679.03476l53.77778,-31.04861l53.77778,31.04861l-53.77778,31.04861z" fill="#c8cbff"/><path d="M519.33333,679.03476v62.09723l-53.77778,31.04861v-62.09723z" fill="#43445e"/></g><g><path d="M519.33333,679.03476l53.77778,-31.04861l53.77778,31.04861v62.09723l-53.77778,31.04861l-53.77778,-31.04861z" fill="#9d74c5"/><path d="M519.33333,679.03476l53.77778,-31.04861l53.77778,31.04861l-53.77778,31.04861z" fill="#ebafff"/><path d="M626.88889,679.03476v62.09723l-53.77778,31.04861v-62.09723z" fill="#4e3a62"/></g><g><path d="M626.88889,679.03476l53.77778,-31.04861l53.77778,31.04861v62.09723l-53.77778,31.04861l-53.77778,-31.04861z" fill="#a85aae"/><path d="M626.88889,679.03476l53.77778,-31.04861l53.77778,31.04861l-53.77778,31.04861z" fill="#fc87ff"/><path d="M734.44444,679.03476v62.09723l-53.77778,31.04861v-62.09723z" fill="#542d57"/></g><g><path d="M734.44444,679.03476l53.77778,-31.04861l53.77778,31.04861v62.09723l-53.77778,31.04861l-53.77778,-31.04861z" fill="#aa74d9"/><path d="M734.44444,679.03476l53.77778,-31.04861l53.77778,31.04861l-53.77778,31.04861z" fill="#ffadff"/><path d="M842,679.03476v62.09723l-53.77778,31.04861v-62.09723z" fill="#553a6c"/></g><g><path d="M842,679.03476l53.77778,-31.04861l53.77778,31.04861v62.09723l-53.77778,31.04861l-53.77778,-31.04861z" fill="#957dc3"/><path d="M842,679.03476l53.77778,-31.04861l53.77778,31.04861l-53.77778,31.04861z" fill="#e0bcff"/><path d="M949.55556,679.03476v62.09723l-53.77778,31.04861v-62.09723z" fill="#4b3f61"/></g><g><path d="M949.55556,679.03476l53.77778,-31.04861l53.77778,31.04861v62.09723l-53.77778,31.04861l-53.77778,-31.04861z" fill="#9d5ca1"/><path d="M949.55556,679.03476l53.77778,-31.04861l53.77778,31.04861l-53.77778,31.04861z" fill="#ec8af1"/><path d="M1057.11111,679.03476v62.09723l-53.77778,31.04861v-62.09723z" fill="#4f2e50"/></g><g><path d="M1057.11111,679.03476l53.77778,-31.04861l53.77778,31.04861v62.09723l-53.77778,31.04861l-53.77778,-31.04861z" fill="#9a78c3"/><path d="M1057.11111,679.03476l53.77778,-31.04861l53.77778,31.04861l-53.77778,31.04861z" fill="#e6b3ff"/><path d="M1164.66667,679.03476v62.09723l-53.77778,31.04861v-62.09723z" fill="#4d3c62"/></g><g><path d="M1164.66667,679.03476l53.77778,-31.04861l53.77778,31.04861v62.09723l-53.77778,31.04861l-53.77778,-31.04861z" fill="#a67dde"/><path d="M1164.66667,679.03476l53.77778,-31.04861l53.77778,31.04861l-53.77778,31.04861z" fill="#f9bbff"/><path d="M1272.22222,679.03476v62.09723l-53.77778,31.04861v-62.09723z" fill="#533e6f"/></g><g><path d="M-72.22222,772.1806l53.77778,-31.04861l53.77778,31.04861v62.09723l-53.77778,31.04861l-53.77778,-31.04861z" fill="#000000"/><path d="M-72.22222,772.1806l53.77778,-31.04861l53.77778,31.04861l-53.77778,31.04861z" fill="#ffffff"/><path d="M35.33333,772.1806v62.09723l-53.77778,31.04861v-62.09723z" fill="#000000"/></g><g><path d="M35.33333,772.1806l53.77778,-31.04861l53.77778,31.04861v62.09723l-53.77778,31.04861l-53.77778,-31.04861z" fill="#000000"/><path d="M35.33333,772.1806l53.77778,-31.04861l53.77778,31.04861l-53.77778,31.04861z" fill="#ffffff"/><path d="M142.88889,772.1806v62.09723l-53.77778,31.04861v-62.09723z" fill="#000000"/></g><g><path d="M142.88889,772.1806l53.77778,-31.04861l53.77778,31.04861v62.09723l-53.77778,31.04861l-53.77778,-31.04861z" fill="#000000"/><path d="M142.88889,772.1806l53.77778,-31.04861l53.77778,31.04861l-53.77778,31.04861z" fill="#ffffff"/><path d="M250.44444,772.1806v62.09723l-53.77778,31.04861v-62.09723z" fill="#000000"/></g><g><path d="M250.44444,772.1806l53.77778,-31.04861l53.77778,31.04861v62.09723l-53.77778,31.04861l-53.77778,-31.04861z" fill="#000000"/><path d="M250.44444,772.1806l53.77778,-31.04861l53.77778,31.04861l-53.77778,31.04861z" fill="#ffffff"/><path d="M358,772.1806v62.09723l-53.77778,31.04861v-62.09723z" fill="#000000"/></g><g><path d="M358,772.1806l53.77778,-31.04861l53.77778,31.04861v62.09723l-53.77778,31.04861l-53.77778,-31.04861z" fill="#000000"/><path d="M358,772.1806l53.77778,-31.04861l53.77778,31.04861l-53.77778,31.04861z" fill="#ffffff"/><path d="M465.55556,772.1806v62.09723l-53.77778,31.04861v-62.09723z" fill="#000000"/></g><g><path d="M465.55556,772.1806l53.77778,-31.04861l53.77778,31.04861v62.09723l-53.77778,31.04861l-53.77778,-31.04861z" fill="#000000"/><path d="M465.55556,772.1806l53.77778,-31.04861l53.77778,31.04861l-53.77778,31.04861z" fill="#ffffff"/><path d="M573.11111,772.1806v62.09723l-53.77778,31.04861v-62.09723z" fill="#000000"/></g><g><path d="M573.11111,772.1806l53.77778,-31.04861l53.77778,31.04861v62.09723l-53.77778,31.04861l-53.77778,-31.04861z" fill="#000000"/><path d="M573.11111,772.1806l53.77778,-31.04861l53.77778,31.04861l-53.77778,31.04861z" fill="#ffffff"/><path d="M680.66667,772.1806v62.09723l-53.77778,31.04861v-62.09723z" fill="#000000"/></g><g><path d="M680.66667,772.1806l53.77778,-31.04861l53.77778,31.04861v62.09723l-53.77778,31.04861l-53.77778,-31.04861z" fill="#000000"/><path d="M680.66667,772.1806l53.77778,-31.04861l53.77778,31.04861l-53.77778,31.04861z" fill="#ffffff"/><path d="M788.22222,772.1806v62.09723l-53.77778,31.04861v-62.09723z" fill="#000000"/></g><g><path d="M788.22222,772.1806l53.77778,-31.04861l53.77778,31.04861v62.09723l-53.77778,31.04861l-53.77778,-31.04861z" fill="#000000"/><path d="M788.22222,772.1806l53.77778,-31.04861l53.77778,31.04861l-53.77778,31.04861z" fill="#ffffff"/><path d="M895.77778,772.1806v62.09723l-53.77778,31.04861v-62.09723z" fill="#000000"/></g><g><path d="M895.77778,772.1806l53.77778,-31.04861l53.77778,31.04861v62.09723l-53.77778,31.04861l-53.77778,-31.04861z" fill="#000000"/><path d="M895.77778,772.1806l53.77778,-31.04861l53.77778,31.04861l-53.77778,31.04861z" fill="#ffffff"/><path d="M1003.33333,772.1806v62.09723l-53.77778,31.04861v-62.09723z" fill="#000000"/></g><g><path d="M1003.33333,772.1806l53.77778,-31.04861l53.77778,31.04861v62.09723l-53.77778,31.04861l-53.77778,-31.04861z" fill="#000000"/><path d="M1003.33333,772.1806l53.77778,-31.04861l53.77778,31.04861l-53.77778,31.04861z" fill="#ffffff"/><path d="M1110.88889,772.1806v62.09723l-53.77778,31.04861v-62.09723z" fill="#000000"/></g><g><path d="M1110.88889,772.1806l53.77778,-31.04861l53.77778,31.04861v62.09723l-53.77778,31.04861l-53.77778,-31.04861z" fill="#000000"/><path d="M1110.88889,772.1806l53.77778,-31.04861l53.77778,31.04861l-53.77778,31.04861z" fill="#ffffff"/><path d="M1218.44444,772.1806v62.09723l-53.77778,31.04861v-62.09723z" fill="#000000"/></g><g><path d="M1218.44444,772.1806l53.77778,-31.04861l53.77778,31.04861v62.09723l-53.77778,31.04861l-53.77778,-31.04861z" fill="#000000"/><path d="M1218.44444,772.1806l53.77778,-31.04861l53.77778,31.04861l-53.77778,31.04861z" fill="#ffffff"/><path d="M1326,772.1806v62.09723l-53.77778,31.04861v-62.09723z" fill="#000000"/></g><g><path d="M-126,865.32645l53.77778,-31.04861l53.77778,31.04861v62.09723l-53.77778,31.04861l-53.77778,-31.04861z" fill="#000000"/><path d="M-126,865.32645l53.77778,-31.04861l53.77778,31.04861l-53.77778,31.04861z" fill="#ffffff"/><path d="M-18.44444,865.32645v62.09723l-53.77778,31.04861v-62.09723z" fill="#000000"/></g><g><path d="M-18.44444,865.32645l53.77778,-31.04861l53.77778,31.04861v62.09723l-53.77778,31.04861l-53.77778,-31.04861z" fill="#000000"/><path d="M-18.44444,865.32645l53.77778,-31.04861l53.77778,31.04861l-53.77778,31.04861z" fill="#ffffff"/><path d="M89.11111,865.32645v62.09723l-53.77778,31.04861v-62.09723z" fill="#000000"/></g><g><path d="M89.11111,865.32645l53.77778,-31.04861l53.77778,31.04861v62.09723l-53.77778,31.04861l-53.77778,-31.04861z" fill="#000000"/><path d="M89.11111,865.32645l53.77778,-31.04861l53.77778,31.04861l-53.77778,31.04861z" fill="#ffffff"/><path d="M196.66667,865.32645v62.09723l-53.77778,31.04861v-62.09723z" fill="#000000"/></g><g><path d="M196.66667,865.32645l53.77778,-31.04861l53.77778,31.04861v62.09723l-53.77778,31.04861l-53.77778,-31.04861z" fill="#000000"/><path d="M196.66667,865.32645l53.77778,-31.04861l53.77778,31.04861l-53.77778,31.04861z" fill="#ffffff"/><path d="M304.22222,865.32645v62.09723l-53.77778,31.04861v-62.09723z" fill="#000000"/></g><g><path d="M304.22222,865.32645l53.77778,-31.04861l53.77778,31.04861v62.09723l-53.77778,31.04861l-53.77778,-31.04861z" fill="#000000"/><path d="M304.22222,865.32645l53.77778,-31.04861l53.77778,31.04861l-53.77778,31.04861z" fill="#ffffff"/><path d="M411.77778,865.32645v62.09723l-53.77778,31.04861v-62.09723z" fill="#000000"/></g><g><path d="M411.77778,865.32645l53.77778,-31.04861l53.77778,31.04861v62.09723l-53.77778,31.04861l-53.77778,-31.04861z" fill="#000000"/><path d="M411.77778,865.32645l53.77778,-31.04861l53.77778,31.04861l-53.77778,31.04861z" fill="#ffffff"/><path d="M519.33333,865.32645v62.09723l-53.77778,31.04861v-62.09723z" fill="#000000"/></g><g><path d="M519.33333,865.32645l53.77778,-31.04861l53.77778,31.04861v62.09723l-53.77778,31.04861l-53.77778,-31.04861z" fill="#000000"/><path d="M519.33333,865.32645l53.77778,-31.04861l53.77778,31.04861l-53.77778,31.04861z" fill="#ffffff"/><path d="M626.88889,865.32645v62.09723l-53.77778,31.04861v-62.09723z" fill="#000000"/></g><g><path d="M626.88889,865.32645l53.77778,-31.04861l53.77778,31.04861v62.09723l-53.77778,31.04861l-53.77778,-31.04861z" fill="#000000"/><path d="M626.88889,865.32645l53.77778,-31.04861l53.77778,31.04861l-53.77778,31.04861z" fill="#ffffff"/><path d="M734.44444,865.32645v62.09723l-53.77778,31.04861v-62.09723z" fill="#000000"/></g><g><path d="M734.44444,865.32645l53.77778,-31.04861l53.77778,31.04861v62.09723l-53.77778,31.04861l-53.77778,-31.04861z" fill="#000000"/><path d="M734.44444,865.32645l53.77778,-31.04861l53.77778,31.04861l-53.77778,31.04861z" fill="#ffffff"/><path d="M842,865.32645v62.09723l-53.77778,31.04861v-62.09723z" fill="#000000"/></g><g><path d="M842,865.32645l53.77778,-31.04861l53.77778,31.04861v62.09723l-53.77778,31.04861l-53.77778,-31.04861z" fill="#000000"/><path d="M842,865.32645l53.77778,-31.04861l53.77778,31.04861l-53.77778,31.04861z" fill="#ffffff"/><path d="M949.55556,865.32645v62.09723l-53.77778,31.04861v-62.09723z" fill="#000000"/></g><g><path d="M949.55556,865.32645l53.77778,-31.04861l53.77778,31.04861v62.09723l-53.77778,31.04861l-53.77778,-31.04861z" fill="#000000"/><path d="M949.55556,865.32645l53.77778,-31.04861l53.77778,31.04861l-53.77778,31.04861z" fill="#ffffff"/><path d="M1057.11111,865.32645v62.09723l-53.77778,31.04861v-62.09723z" fill="#000000"/></g><g><path d="M1057.11111,865.32645l53.77778,-31.04861l53.77778,31.04861v62.09723l-53.77778,31.04861l-53.77778,-31.04861z" fill="#000000"/><path d="M1057.11111,865.32645l53.77778,-31.04861l53.77778,31.04861l-53.77778,31.04861z" fill="#ffffff"/><path d="M1164.66667,865.32645v62.09723l-53.77778,31.04861v-62.09723z" fill="#000000"/></g><g><path d="M1164.66667,865.32645l53.77778,-31.04861l53.77778,31.04861v62.09723l-53.77778,31.04861l-53.77778,-31.04861z" fill="#000000"/><path d="M1164.66667,865.32645l53.77778,-31.04861l53.77778,31.04861l-53.77778,31.04861z" fill="#ffffff"/><path d="M1272.22222,865.32645v62.09723l-53.77778,31.04861v-62.09723z" fill="#000000"/></g></g></g></svg>