<svg version="1.1" xmlns="http://www.w3.org/2000/svg" xmlns:xlink="http://www.w3.org/1999/xlink" width="1200" height="675" viewBox="0,0,1200,675"><g fill="none" fill-rule="nonzero" stroke="none" stroke-width="1" stroke-linecap="butt" stroke-linejoin="miter" stroke-miterlimit="10" stroke-dasharray="" stroke-dashoffset="0" font-family="none" font-weight="none" font-size="none" text-anchor="none" style="mix-blend-mode: normal"><g><g><path d="M-60,-198.79425l48.88889,-28.22601l48.88889,28.22601v56.45203l-48.88889,28.22601l-48.88889,-28.22601z" fill="#000000"/><path d="M-60,-198.79425l48.88889,-28.22601l48.88889,28.22601l-48.88889,28.22601z" fill="#ffffff"/><path d="M37.77778,-198.79425v56.45203l-48.88889,28.22601v-56.45203z" fill="#000000"/></g><g><path d="M37.77778,-198.79425l48.88889,-28.22601l48.88889,28.22601v56.45203l-48.88889,28.22601l-48.88889,-28.22601z" fill="#000000"/><path d="M37.77778,-198.79425l48.88889,-28.22601l48.88889,28.22601l-48.88889,28.22601z" fill="#ffffff"/><path d="M135.55556,-198.79425v56.45203l-48.88889,28.22601v-56.45203z" fill="#000000"/></g><g><path d="M135.55556,-198.79425l48.88889,-28.22601l48.88889,28.22601v56.45203l-48.88889,28.22601l-48.88889,-28.22601z" fill="#000000"/><path d="M135.55556,-198.79425l48.88889,-28.22601l48.88889,28.22601l-48.88889,28.22601z" fill="#ffffff"/><path d="M233.33333,-198.79425v56.45203l-48.88889,28.22601v-56.45203z" fill="#000000"/></g><g><path d="M233.33333,-198.79425l48.88889,-28.22601l48.88889,28.22601v56.45203l-48.88889,28.22601l-48.88889,-28.22601z" fill="#000000"/><path d="M233.33333,-198.79425l48.88889,-28.22601l48.88889,28.22601l-48.88889,28.22601z" fill="#ffffff"/><path d="M331.11111,-198.79425v56.45203l-48.88889,28.22601v-56.45203z" fill="#000000"/></g><g><path d="M331.11111,-198.79425l48.88889,-28.22601l48.88889,28.22601v56.45203l-48.88889,28.22601l-48.88889,-28.22601z" fill="#000000"/><path d="M331.11111,-198.79425l48.88889,-28.22601l48.88889,28.22601l-48.88889,28.22601z" fill="#ffffff"/><path d="M428.88889,-198.79425v56.45203l-48.88889,28.22601v-56.45203z" fill="#000000"/></g><g><path d="M428.88889,-198.79425l48.88889,-28.22601l48.88889,28.22601v56.45203l-48.88889,28.22601l-48.88889,-28.22601z" fill="#000000"/><path d="M428.88889,-198.79425l48.88889,-28.22601l48.88889,28.22601l-48.88889,28.22601z" fill="#ffffff"/><path d="M526.66667,-198.79425v56.45203l-48.88889,28.22601v-56.45203z" fill="#000000"/></g><g><path d="M526.66667,-198.79425l48.88889,-28.22601l48.88889,28.22601v56.45203l-48.88889,28.22601l-48.88889,-28.22601z" fill="#000000"/><path d="M526.66667,-198.79425l48.88889,-28.22601l48.88889,28.22601l-48.88889,28.22601z" fill="#ffffff"/><path d="M624.44444,-198.79425v56.45203l-48.88889,28.22601v-56.45203z" fill="#000000"/></g><g><path d="M624.44444,-198.79425l48.88889,-28.22601l48.88889,28.22601v56.45203l-48.88889,28.22601l-48.88889,-28.22601z" fill="#000000"/><path d="M624.44444,-198.79425l48.88889,-28.22601l48.88889,28.22601l-48.88889,28.22601z" fill="#ffffff"/><path d="M722.22222,-198.79425v56.45203l-48.88889,28.22601v-56.45203z" fill="#000000"/></g><g><path d="M722.22222,-198.79425l48.88889,-28.22601l48.88889,28.22601v56.45203l-48.88889,28.22601l-48.88889,-28.22601z" fill="#000000"/><path d="M722.22222,-198.79425l48.88889,-28.22601l48.88889,28.22601l-48.88889,28.22601z" fill="#ffffff"/><path d="M820,-198.79425v56.45203l-48.88889,28.22601v-56.45203z" fill="#000000"/></g><g><path d="M820,-198.79425l48.88889,-28.22601l48.88889,28.22601v56.45203l-48.88889,28.22601l-48.88889,-28.22601z" fill="#000000"/><path d="M820,-198.79425l48.88889,-28.22601l48.88889,28.22601l-48.88889,28.22601z" fill="#ffffff"/><path d="M917.77778,-198.79425v56.45203l-48.88889,28.22601v-56.45203z" fill="#000000"/></g><g><path d="M917.77778,-198.79425l48.88889,-28.22601l48.88889,28.22601v56.45203l-48.88889,28.22601l-48.88889,-28.22601z" fill="#000000"/><path d="M917.77778,-198.79425l48.88889,-28.22601l48.88889,28.22601l-48.88889,28.22601z" fill="#ffffff"/><path d="M1015.55556,-198.79425v56.45203l-48.88889,28.22601v-56.45203z" fill="#000000"/></g><g><path d="M1015.55556,-198.79425l48.88889,-28.22601l48.88889,28.22601v56.45203l-48.88889,28.22601l-48.88889,-28.22601z" fill="#000000"/><path d="M1015.55556,-198.79425l48.88889,-28.22601l48.88889,28.22601l-48.88889,28.22601z" fill="#ffffff"/><path d="M1113.33333,-198.79425v56.45203l-48.88889,28.22601v-56.45203z" fill="#000000"/></g><g><path d="M1113.33333,-198.79425l48.88889,-28.22601l48.88889,28.22601v56.45203l-48.88889,28.22601l-48.88889,-28.22601z" fill="#000000"/><path d="M1113.33333,-198.79425l48.88889,-28.22601l48.88889,28.22601l-48.88889,28.22601z" fill="#ffffff"/><path d="M1211.11111,-198.79425v56.45203l-48.88889,28.22601v-56.45203z" fill="#000000"/></g><g><path d="M-11.11111,-114.11621l48.88889,-28.22601l48.88889,28.22601v56.45203l-48.88889,28.22601l-48.88889,-28.22601z" fill="#000000"/><path d="M-11.11111,-114.11621l48.88889,-28.22601l48.88889,28.22601l-48.88889,28.22601z" fill="#ffffff"/><path d="M86.66667,-114.11621v56.45203l-48.88889,28.22601v-56.45203z" fill="#000000"/></g><g><path d="M86.66667,-114.11621l48.88889,-28.22601l48.88889,28.22601v56.45203l-48.88889,28.22601l-48.88889,-28.22601z" fill="#000000"/><path d="M86.66667,-114.11621l48.88889,-28.22601l48.88889,28.22601l-48.88889,28.22601z" fill="#ffffff"/><path d="M184.44444,-114.11621v56.45203l-48.88889,28.22601v-56.45203z" fill="#000000"/></g><g><path d="M184.44444,-114.11621l48.88889,-28.22601l48.88889,28.22601v56.45203l-48.88889,28.22601l-48.88889,-28.22601z" fill="#000000"/><path d="M184.44444,-114.11621l48.88889,-28.22601l48.88889,28.22601l-48.88889,28.22601z" fill="#ffffff"/><path d="M282.22222,-114.11621v56.45203l-48.88889,28.22601v-56.45203z" fill="#000000"/></g><g><path d="M282.22222,-114.11621l48.88889,-28.22601l48.88889,28.22601v56.45203l-48.88889,28.22601l-48.88889,-28.22601z" fill="#000000"/><path d="M282.22222,-114.11621l48.88889,-28.22601l48.88889,28.22601l-48.88889,28.22601z" fill="#ffffff"/><path d="M380,-114.11621v56.45203l-48.88889,28.22601v-56.45203z" fill="#000000"/></g><g><path d="M380,-114.11621l48.88889,-28.22601l48.88889,28.22601v56.45203l-48.88889,28.22601l-48.88889,-28.22601z" fill="#000000"/><path d="M380,-114.11621l48.88889,-28.22601l48.88889,28.22601l-48.88889,28.22601z" fill="#ffffff"/><path d="M477.77778,-114.11621v56.45203l-48.88889,28.22601v-56.45203z" fill="#000000"/></g><g><path d="M477.77778,-114.11621l48.88889,-28.22601l48.88889,28.22601v56.45203l-48.88889,28.22601l-48.88889,-28.22601z" fill="#000000"/><path d="M477.77778,-114.11621l48.88889,-28.22601l48.88889,28.22601l-48.88889,28.22601z" fill="#ffffff"/><path d="M575.55556,-114.11621v56.45203l-48.88889,28.22601v-56.45203z" fill="#000000"/></g><g><path d="M575.55556,-114.11621l48.88889,-28.22601l48.88889,28.22601v56.45203l-48.88889,28.22601l-48.88889,-28.22601z" fill="#000000"/><path d="M575.55556,-114.11621l48.88889,-28.22601l48.88889,28.22601l-48.88889,28.22601z" fill="#ffffff"/><path d="M673.33333,-114.11621v56.45203l-48.88889,28.22601v-56.45203z" fill="#000000"/></g><g><path d="M673.33333,-114.11621l48.88889,-28.22601l48.88889,28.22601v56.45203l-48.88889,28.22601l-48.88889,-28.22601z" fill="#000000"/><path d="M673.33333,-114.11621l48.88889,-28.22601l48.88889,28.22601l-48.88889,28.22601z" fill="#ffffff"/><path d="M771.11111,-114.11621v56.45203l-48.88889,28.22601v-56.45203z" fill="#000000"/></g><g><path d="M771.11111,-114.11621l48.88889,-28.22601l48.88889,28.22601v56.45203l-48.88889,28.22601l-48.88889,-28.22601z" fill="#000000"/><path d="M771.11111,-114.11621l48.88889,-28.22601l48.88889,28.22601l-48.88889,28.22601z" fill="#ffffff"/><path d="M868.88889,-114.11621v56.45203l-48.88889,28.22601v-56.45203z" fill="#000000"/></g><g><path d="M868.88889,-114.11621l48.88889,-28.22601l48.88889,28.22601v56.45203l-48.88889,28.22601l-48.88889,-28.22601z" fill="#000000"/><path d="M868.88889,-114.11621l48.88889,-28.22601l48.88889,28.22601l-48.88889,28.22601z" fill="#ffffff"/><path d="M966.66667,-114.11621v56.45203l-48.88889,28.22601v-56.45203z" fill="#000000"/></g><g><path d="M966.66667,-114.11621l48.88889,-28.22601l48.88889,28.22601v56.45203l-48.88889,28.22601l-48.88889,-28.22601z" fill="#000000"/><path d="M966.66667,-114.11621l48.88889,-28.22601l48.88889,28.22601l-48.88889,28.22601z" fill="#ffffff"/><path d="M1064.44444,-114.11621v56.45203l-48.88889,28.22601v-56.45203z" fill="#000000"/></g><g><path d="M1064.44444,-114.11621l48.88889,-28.22601l48.88889,28.22601v56.45203l-48.88889,28.22601l-48.88889,-28.22601z" fill="#000000"/><path d="M1064.44444,-114.11621l48.88889,-28.22601l48.88889,28.22601l-48.88889,28.22601z" fill="#ffffff"/><path d="M1162.22222,-114.11621v56.45203l-48.88889,28.22601v-56.45203z" fill="#000000"/></g><g><path d="M1162.22222,-114.11621l48.88889,-28.22601l48.88889,28.22601v56.45203l-48.88889,28.22601l-48.88889,-28.22601z" fill="#000000"/><path d="M1162.22222,-114.11621l48.88889,-28.22601l48.88889,28.22601l-48.88889,28.22601z" fill="#ffffff"/><path d="M1260,-114.11621v56.45203l-48.88889,28.22601v-56.45203z" fill="#000000"/></g><g><path d="M-60,-29.43817l48.88889,-28.22601l48.88889,28.22601v56.45203l-48.88889,28.22601l-48.88889,-28.22601z" fill="#836784"/><path d="M-60,-29.43817l48.88889,-28.22601l48.88889,28.22601l-48.88889,28.22601z" fill="#c59ac6"/><path d="M37.77778,-29.43817v56.45203l-48.88889,28.22601v-56.45203z" fill="#423342"/></g><g><path d="M37.77778,-29.43817l48.88889,-28.22601l48.88889,28.22601v56.45203l-48.88889,28.22601l-48.88889,-28.22601z" fill="#d09fdb"/><path d="M37.77778,-29.43817l48.88889,-28.22601l48.88889,28.22601l-48.88889,28.22601z" fill="#ffefff"/><path d="M135.55556,-29.43817v56.45203l-48.88889,28.22601v-56.45203z" fill="#68506e"/></g><g><path d="M135.55556,-29.43817l48.88889,-28.22601l48.88889,28.22601v56.45203l-48.88889,28.22601l-48.88889,-28.22601z" fill="#c4aad8"/><path d="M135.55556,-29.43817l48.88889,-28.22601l48.88889,28.22601l-48.88889,28.22601z" fill="#ffffff"/><path d="M233.33333,-29.43817v56.45203l-48.88889,28.22601v-56.45203z" fill="#62556c"/></g><g><path d="M233.33333,-29.43817l48.88889,-28.22601l48.88889,28.22601v56.45203l-48.88889,28.22601l-48.88889,-28.22601z" fill="#bfb0d4"/><path d="M233.33333,-29.43817l48.88889,-28.22601l48.88889,28.22601l-48.88889,28.22601z" fill="#ffffff"/><path d="M331.11111,-29.43817v56.45203l-48.88889,28.22601v-56.45203z" fill="#60586a"/></g><g><path d="M331.11111,-29.43817l48.88889,-28.22601l48.88889,28.22601v56.45203l-48.88889,28.22601l-48.88889,-28.22601z" fill="#cca1d7"/><path d="M331.11111,-29.43817l48.88889,-28.22601l48.88889,28.22601l-48.88889,28.22601z" fill="#fff2ff"/><path d="M428.88889,-29.43817v56.45203l-48.88889,28.22601v-56.45203z" fill="#66516c"/></g><g><path d="M428.88889,-29.43817l48.88889,-28.22601l48.88889,28.22601v56.45203l-48.88889,28.22601l-48.88889,-28.22601z" fill="#c69ec6"/><path d="M428.88889,-29.43817l48.88889,-28.22601l48.88889,28.22601l-48.88889,28.22601z" fill="#ffedff"/><path d="M526.66667,-29.43817v56.45203l-48.88889,28.22601v-56.45203z" fill="#634f63"/></g><g><path d="M526.66667,-29.43817l48.88889,-28.22601l48.88889,28.22601v56.45203l-48.88889,28.22601l-48.88889,-28.22601z" fill="#c89cc8"/><path d="M526.66667,-29.43817l48.88889,-28.22601l48.88889,28.22601l-48.88889,28.22601z" fill="#ffe9ff"/><path d="M624.44444,-29.43817v56.45203l-48.88889,28.22601v-56.45203z" fill="#644e64"/></g><g><path d="M624.44444,-29.43817l48.88889,-28.22601l48.88889,28.22601v56.45203l-48.88889,28.22601l-48.88889,-28.22601z" fill="#c99cc9"/><path d="M624.44444,-29.43817l48.88889,-28.22601l48.88889,28.22601l-48.88889,28.22601z" fill="#ffeaff"/><path d="M722.22222,-29.43817v56.45203l-48.88889,28.22601v-56.45203z" fill="#654e65"/></g><g><path d="M722.22222,-29.43817l48.88889,-28.22601l48.88889,28.22601v56.45203l-48.88889,28.22601l-48.88889,-28.22601z" fill="#c699c6"/><path d="M722.22222,-29.43817l48.88889,-28.22601l48.88889,28.22601l-48.88889,28.22601z" fill="#ffe5ff"/><path d="M820,-29.43817v56.45203l-48.88889,28.22601v-56.45203z" fill="#634c63"/></g><g><path d="M820,-29.43817l48.88889,-28.22601l48.88889,28.22601v56.45203l-48.88889,28.22601l-48.88889,-28.22601z" fill="#c29ac2"/><path d="M820,-29.43817l48.88889,-28.22601l48.88889,28.22601l-48.88889,28.22601z" fill="#ffe7ff"/><path d="M917.77778,-29.43817v56.45203l-48.88889,28.22601v-56.45203z" fill="#614d61"/></g><g><path d="M917.77778,-29.43817l48.88889,-28.22601l48.88889,28.22601v56.45203l-48.88889,28.22601l-48.88889,-28.22601z" fill="#bba7bb"/><path d="M917.77778,-29.43817l48.88889,-28.22601l48.88889,28.22601l-48.88889,28.22601z" fill="#fffaff"/><path d="M1015.55556,-29.43817v56.45203l-48.88889,28.22601v-56.45203z" fill="#5d535d"/></g><g><path d="M1015.55556,-29.43817l48.88889,-28.22601l48.88889,28.22601v56.45203l-48.88889,28.22601l-48.88889,-28.22601z" fill="#bf9fbf"/><path d="M1015.55556,-29.43817l48.88889,-28.22601l48.88889,28.22601l-48.88889,28.22601z" fill="#ffeeff"/><path d="M1113.33333,-29.43817v56.45203l-48.88889,28.22601v-56.45203z" fill="#604f60"/></g><g><path d="M1113.33333,-29.43817l48.88889,-28.22601l48.88889,28.22601v56.45203l-48.88889,28.22601l-48.88889,-28.22601z" fill="#bca6bc"/><path d="M1113.33333,-29.43817l48.88889,-28.22601l48.88889,28.22601l-48.88889,28.22601z" fill="#fff9ff"/><path d="M1211.11111,-29.43817v56.45203l-48.88889,28.22601v-56.45203z" fill="#5e535e"/></g><g><path d="M-11.11111,55.23987l48.88889,-28.22601l48.88889,28.22601v56.45203l-48.88889,28.22601l-48.88889,-28.22601z" fill="#ad5fad"/><path d="M-11.11111,55.23987l48.88889,-28.22601l48.88889,28.22601l-48.88889,28.22601z" fill="#ff8eff"/><path d="M86.66667,55.23987v56.45203l-48.88889,28.22601v-56.45203z" fill="#562f56"/></g><g><path d="M86.66667,55.23987l48.88889,-28.22601l48.88889,28.22601v56.45203l-48.88889,28.22601l-48.88889,-28.22601z" fill="#d06dd1"/><path d="M86.66667,55.23987l48.88889,-28.22601l48.88889,28.22601l-48.88889,28.22601z" fill="#ffa4ff"/><path d="M184.44444,55.23987v56.45203l-48.88889,28.22601v-56.45203z" fill="#683768"/></g><g><path d="M184.44444,55.23987l48.88889,-28.22601l48.88889,28.22601v56.45203l-48.88889,28.22601l-48.88889,-28.22601z" fill="#cd6dce"/><path d="M184.44444,55.23987l48.88889,-28.22601l48.88889,28.22601l-48.88889,28.22601z" fill="#ffa3ff"/><path d="M282.22222,55.23987v56.45203l-48.88889,28.22601v-56.45203z" fill="#673667"/></g><g><path d="M282.22222,55.23987l48.88889,-28.22601l48.88889,28.22601v56.45203l-48.88889,28.22601l-48.88889,-28.22601z" fill="#d269d2"/><path d="M282.22222,55.23987l48.88889,-28.22601l48.88889,28.22601l-48.88889,28.22601z" fill="#ff9eff"/><path d="M380,55.23987v56.45203l-48.88889,28.22601v-56.45203z" fill="#693569"/></g><g><path d="M380,55.23987l48.88889,-28.22601l48.88889,28.22601v56.45203l-48.88889,28.22601l-48.88889,-28.22601z" fill="#ce6ace"/><path d="M380,55.23987l48.88889,-28.22601l48.88889,28.22601l-48.88889,28.22601z" fill="#ff9fff"/><path d="M477.77778,55.23987v56.45203l-48.88889,28.22601v-56.45203z" fill="#673567"/></g><g><path d="M477.77778,55.23987l48.88889,-28.22601l48.88889,28.22601v56.45203l-48.88889,28.22601l-48.88889,-28.22601z" fill="#d06cd0"/><path d="M477.77778,55.23987l48.88889,-28.22601l48.88889,28.22601l-48.88889,28.22601z" fill="#ffa1ff"/><path d="M575.55556,55.23987v56.45203l-48.88889,28.22601v-56.45203z" fill="#683668"/></g><g><path d="M575.55556,55.23987l48.88889,-28.22601l48.88889,28.22601v56.45203l-48.88889,28.22601l-48.88889,-28.22601z" fill="#cd6dcd"/><path d="M575.55556,55.23987l48.88889,-28.22601l48.88889,28.22601l-48.88889,28.22601z" fill="#ffa4ff"/><path d="M673.33333,55.23987v56.45203l-48.88889,28.22601v-56.45203z" fill="#673767"/></g><g><path d="M673.33333,55.23987l48.88889,-28.22601l48.88889,28.22601v56.45203l-48.88889,28.22601l-48.88889,-28.22601z" fill="#cf6ccf"/><path d="M673.33333,55.23987l48.88889,-28.22601l48.88889,28.22601l-48.88889,28.22601z" fill="#ffa1ff"/><path d="M771.11111,55.23987v56.45203l-48.88889,28.22601v-56.45203z" fill="#683668"/></g><g><path d="M771.11111,55.23987l48.88889,-28.22601l48.88889,28.22601v56.45203l-48.88889,28.22601l-48.88889,-28.22601z" fill="#e047e0"/><path d="M771.11111,55.23987l48.88889,-28.22601l48.88889,28.22601l-48.88889,28.22601z" fill="#ff6bff"/><path d="M868.88889,55.23987v56.45203l-48.88889,28.22601v-56.45203z" fill="#702470"/></g><g><path d="M868.88889,55.23987l48.88889,-28.22601l48.88889,28.22601v56.45203l-48.88889,28.22601l-48.88889,-28.22601z" fill="#e04be0"/><path d="M868.88889,55.23987l48.88889,-28.22601l48.88889,28.22601l-48.88889,28.22601z" fill="#ff71ff"/><path d="M966.66667,55.23987v56.45203l-48.88889,28.22601v-56.45203z" fill="#702670"/></g><g><path d="M966.66667,55.23987l48.88889,-28.22601l48.88889,28.22601v56.45203l-48.88889,28.22601l-48.88889,-28.22601z" fill="#dc54dc"/><path d="M966.66667,55.23987l48.88889,-28.22601l48.88889,28.22601l-48.88889,28.22601z" fill="#ff7fff"/><path d="M1064.44444,55.23987v56.45203l-48.88889,28.22601v-56.45203z" fill="#6e2a6e"/></g><g><path d="M1064.44444,55.23987l48.88889,-28.22601l48.88889,28.22601v56.45203l-48.88889,28.22601l-48.88889,-28.22601z" fill="#cf69cf"/><path d="M1064.44444,55.23987l48.88889,-28.22601l48.88889,28.22601l-48.88889,28.22601z" fill="#ff9eff"/><path d="M1162.22222,55.23987v56.45203l-48.88889,28.22601v-56.45203z" fill="#673567"/></g><g><path d="M1162.22222,55.23987l48.88889,-28.22601l48.88889,28.22601v56.45203l-48.88889,28.22601l-48.88889,-28.22601z" fill="#db51db"/><path d="M1162.22222,55.23987l48.88889,-28.22601l48.88889,28.22601l-48.88889,28.22601z" fill="#ff79ff"/><path d="M1260,55.23987v56.45203l-48.88889,28.22601v-56.45203z" fill="#6d286d"/></g><g><path d="M-60,139.91791l48.88889,-28.22601l48.88889,28.22601v56.45203l-48.88889,28.22601l-48.88889,-28.22601z" fill="#7c337c"/><path d="M-60,139.91791l48.88889,-28.22601l48.88889,28.22601l-48.88889,28.22601z" fill="#b94cb9"/><path d="M37.77778,139.91791v56.45203l-48.88889,28.22601v-56.45203z" fill="#3e193e"/></g><g><path d="M37.77778,139.91791l48.88889,-28.22601l48.88889,28.22601v56.45203l-48.88889,28.22601l-48.88889,-28.22601z" fill="#e159e1"/><path d="M37.77778,139.91791l48.88889,-28.22601l48.88889,28.22601l-48.88889,28.22601z" fill="#ff86ff"/><path d="M135.55556,139.91791v56.45203l-48.88889,28.22601v-56.45203z" fill="#702d70"/></g><g><path d="M135.55556,139.91791l48.88889,-28.22601l48.88889,28.22601v56.45203l-48.88889,28.22601l-48.88889,-28.22601z" fill="#dd57dd"/><path d="M135.55556,139.91791l48.88889,-28.22601l48.88889,28.22601l-48.88889,28.22601z" fill="#ff83ff"/><path d="M233.33333,139.91791v56.45203l-48.88889,28.22601v-56.45203z" fill="#6e2c6e"/></g><g><path d="M233.33333,139.91791l48.88889,-28.22601l48.88889,28.22601v56.45203l-48.88889,28.22601l-48.88889,-28.22601z" fill="#e552e5"/><path d="M233.33333,139.91791l48.88889,-28.22601l48.88889,28.22601l-48.88889,28.22601z" fill="#ff7bff"/><path d="M331.11111,139.91791v56.45203l-48.88889,28.22601v-56.45203z" fill="#722972"/></g><g><path d="M331.11111,139.91791l48.88889,-28.22601l48.88889,28.22601v56.45203l-48.88889,28.22601l-48.88889,-28.22601z" fill="#d15dd1"/><path d="M331.11111,139.91791l48.88889,-28.22601l48.88889,28.22601l-48.88889,28.22601z" fill="#ff8cff"/><path d="M428.88889,139.91791v56.45203l-48.88889,28.22601v-56.45203z" fill="#692f69"/></g><g><path d="M428.88889,139.91791l48.88889,-28.22601l48.88889,28.22601v56.45203l-48.88889,28.22601l-48.88889,-28.22601z" fill="#d05ed0"/><path d="M428.88889,139.91791l48.88889,-28.22601l48.88889,28.22601l-48.88889,28.22601z" fill="#ff8eff"/><path d="M526.66667,139.91791v56.45203l-48.88889,28.22601v-56.45203z" fill="#682f68"/></g><g><path d="M526.66667,139.91791l48.88889,-28.22601l48.88889,28.22601v56.45203l-48.88889,28.22601l-48.88889,-28.22601z" fill="#d15ed1"/><path d="M526.66667,139.91791l48.88889,-28.22601l48.88889,28.22601l-48.88889,28.22601z" fill="#ff8cff"/><path d="M624.44444,139.91791v56.45203l-48.88889,28.22601v-56.45203z" fill="#682f68"/></g><g><path d="M624.44444,139.91791l48.88889,-28.22601l48.88889,28.22601v56.45203l-48.88889,28.22601l-48.88889,-28.22601z" fill="#d459d4"/><path d="M624.44444,139.91791l48.88889,-28.22601l48.88889,28.22601l-48.88889,28.22601z" fill="#ff86ff"/><path d="M722.22222,139.91791v56.45203l-48.88889,28.22601v-56.45203z" fill="#6a2d6a"/></g><g><path d="M722.22222,139.91791l48.88889,-28.22601l48.88889,28.22601v56.45203l-48.88889,28.22601l-48.88889,-28.22601z" fill="#d259d2"/><path d="M722.22222,139.91791l48.88889,-28.22601l48.88889,28.22601l-48.88889,28.22601z" fill="#ff86ff"/><path d="M820,139.91791v56.45203l-48.88889,28.22601v-56.45203z" fill="#692d69"/></g><g><path d="M820,139.91791l48.88889,-28.22601l48.88889,28.22601v56.45203l-48.88889,28.22601l-48.88889,-28.22601z" fill="#db49db"/><path d="M820,139.91791l48.88889,-28.22601l48.88889,28.22601l-48.88889,28.22601z" fill="#ff6dff"/><path d="M917.77778,139.91791v56.45203l-48.88889,28.22601v-56.45203z" fill="#6e246e"/></g><g><path d="M917.77778,139.91791l48.88889,-28.22601l48.88889,28.22601v56.45203l-48.88889,28.22601l-48.88889,-28.22601z" fill="#db4bdb"/><path d="M917.77778,139.91791l48.88889,-28.22601l48.88889,28.22601l-48.88889,28.22601z" fill="#ff70ff"/><path d="M1015.55556,139.91791v56.45203l-48.88889,28.22601v-56.45203z" fill="#6e256e"/></g><g><path d="M1015.55556,139.91791l48.88889,-28.22601l48.88889,28.22601v56.45203l-48.88889,28.22601l-48.88889,-28.22601z" fill="#d15cd1"/><path d="M1015.55556,139.91791l48.88889,-28.22601l48.88889,28.22601l-48.88889,28.22601z" fill="#ff8aff"/><path d="M1113.33333,139.91791v56.45203l-48.88889,28.22601v-56.45203z" fill="#682e68"/></g><g><path d="M1113.33333,139.91791l48.88889,-28.22601l48.88889,28.22601v56.45203l-48.88889,28.22601l-48.88889,-28.22601z" fill="#c073c0"/><path d="M1113.33333,139.91791l48.88889,-28.22601l48.88889,28.22601l-48.88889,28.22601z" fill="#ffadff"/><path d="M1211.11111,139.91791v56.45203l-48.88889,28.22601v-56.45203z" fill="#603a60"/></g><g><path d="M-11.11111,224.59595l48.88889,-28.22601l48.88889,28.22601v56.45203l-48.88889,28.22601l-48.88889,-28.22601z" fill="#ba4bc0"/><path d="M-11.11111,224.59595l48.88889,-28.22601l48.88889,28.22601l-48.88889,28.22601z" fill="#ff70ff"/><path d="M86.66667,224.59595v56.45203l-48.88889,28.22601v-56.45203z" fill="#5d2560"/></g><g><path d="M86.66667,224.59595l48.88889,-28.22601l48.88889,28.22601v56.45203l-48.88889,28.22601l-48.88889,-28.22601z" fill="#d361e2"/><path d="M86.66667,224.59595l48.88889,-28.22601l48.88889,28.22601l-48.88889,28.22601z" fill="#ff92ff"/><path d="M184.44444,224.59595v56.45203l-48.88889,28.22601v-56.45203z" fill="#693171"/></g><g><path d="M184.44444,224.59595l48.88889,-28.22601l48.88889,28.22601v56.45203l-48.88889,28.22601l-48.88889,-28.22601z" fill="#cf65e0"/><path d="M184.44444,224.59595l48.88889,-28.22601l48.88889,28.22601l-48.88889,28.22601z" fill="#ff97ff"/><path d="M282.22222,224.59595v56.45203l-48.88889,28.22601v-56.45203z" fill="#673270"/></g><g><path d="M282.22222,224.59595l48.88889,-28.22601l48.88889,28.22601v56.45203l-48.88889,28.22601l-48.88889,-28.22601z" fill="#c36cd3"/><path d="M282.22222,224.59595l48.88889,-28.22601l48.88889,28.22601l-48.88889,28.22601z" fill="#ffa2ff"/><path d="M380,224.59595v56.45203l-48.88889,28.22601v-56.45203z" fill="#613669"/></g><g><path d="M380,224.59595l48.88889,-28.22601l48.88889,28.22601v56.45203l-48.88889,28.22601l-48.88889,-28.22601z" fill="#c866d6"/><path d="M380,224.59595l48.88889,-28.22601l48.88889,28.22601l-48.88889,28.22601z" fill="#ff99ff"/><path d="M477.77778,224.59595v56.45203l-48.88889,28.22601v-56.45203z" fill="#64336b"/></g><g><path d="M477.77778,224.59595l48.88889,-28.22601l48.88889,28.22601v56.45203l-48.88889,28.22601l-48.88889,-28.22601z" fill="#c661c8"/><path d="M477.77778,224.59595l48.88889,-28.22601l48.88889,28.22601l-48.88889,28.22601z" fill="#ff91ff"/><path d="M575.55556,224.59595v56.45203l-48.88889,28.22601v-56.45203z" fill="#633064"/></g><g><path d="M575.55556,224.59595l48.88889,-28.22601l48.88889,28.22601v56.45203l-48.88889,28.22601l-48.88889,-28.22601z" fill="#cb59cb"/><path d="M575.55556,224.59595l48.88889,-28.22601l48.88889,28.22601l-48.88889,28.22601z" fill="#ff86ff"/><path d="M673.33333,224.59595v56.45203l-48.88889,28.22601v-56.45203z" fill="#662d66"/></g><g><path d="M673.33333,224.59595l48.88889,-28.22601l48.88889,28.22601v56.45203l-48.88889,28.22601l-48.88889,-28.22601z" fill="#c95dc9"/><path d="M673.33333,224.59595l48.88889,-28.22601l48.88889,28.22601l-48.88889,28.22601z" fill="#ff8cff"/><path d="M771.11111,224.59595v56.45203l-48.88889,28.22601v-56.45203z" fill="#642f64"/></g><g><path d="M771.11111,224.59595l48.88889,-28.22601l48.88889,28.22601v56.45203l-48.88889,28.22601l-48.88889,-28.22601z" fill="#c95fc9"/><path d="M771.11111,224.59595l48.88889,-28.22601l48.88889,28.22601l-48.88889,28.22601z" fill="#ff8eff"/><path d="M868.88889,224.59595v56.45203l-48.88889,28.22601v-56.45203z" fill="#642f64"/></g><g><path d="M868.88889,224.59595l48.88889,-28.22601l48.88889,28.22601v56.45203l-48.88889,28.22601l-48.88889,-28.22601z" fill="#c85fc8"/><path d="M868.88889,224.59595l48.88889,-28.22601l48.88889,28.22601l-48.88889,28.22601z" fill="#ff8fff"/><path d="M966.66667,224.59595v56.45203l-48.88889,28.22601v-56.45203z" fill="#643064"/></g><g><path d="M966.66667,224.59595l48.88889,-28.22601l48.88889,28.22601v56.45203l-48.88889,28.22601l-48.88889,-28.22601z" fill="#c662c9"/><path d="M966.66667,224.59595l48.88889,-28.22601l48.88889,28.22601l-48.88889,28.22601z" fill="#ff93ff"/><path d="M1064.44444,224.59595v56.45203l-48.88889,28.22601v-56.45203z" fill="#633164"/></g><g><path d="M1064.44444,224.59595l48.88889,-28.22601l48.88889,28.22601v56.45203l-48.88889,28.22601l-48.88889,-28.22601z" fill="#c170c4"/><path d="M1064.44444,224.59595l48.88889,-28.22601l48.88889,28.22601l-48.88889,28.22601z" fill="#ffa8ff"/><path d="M1162.22222,224.59595v56.45203l-48.88889,28.22601v-56.45203z" fill="#603862"/></g><g><path d="M1162.22222,224.59595l48.88889,-28.22601l48.88889,28.22601v56.45203l-48.88889,28.22601l-48.88889,-28.22601z" fill="#bf87d9"/><path d="M1162.22222,224.59595l48.88889,-28.22601l48.88889,28.22601l-48.88889,28.22601z" fill="#ffcbff"/><path d="M1260,224.59595v56.45203l-48.88889,28.22601v-56.45203z" fill="#60446c"/></g><g><path d="M-60,309.27399l48.88889,-28.22601l48.88889,28.22601v56.45203l-48.88889,28.22601l-48.88889,-28.22601z" fill="#554155"/><path d="M-60,309.27399l48.88889,-28.22601l48.88889,28.22601l-48.88889,28.22601z" fill="#806180"/><path d="M37.77778,309.27399v56.45203l-48.88889,28.22601v-56.45203z" fill="#2b202b"/></g><g><path d="M37.77778,309.27399l48.88889,-28.22601l48.88889,28.22601v56.45203l-48.88889,28.22601l-48.88889,-28.22601z" fill="#b983e2"/><path d="M37.77778,309.27399l48.88889,-28.22601l48.88889,28.22601l-48.88889,28.22601z" fill="#ffc5ff"/><path d="M135.55556,309.27399v56.45203l-48.88889,28.22601v-56.45203z" fill="#5c4271"/></g><g><path d="M135.55556,309.27399l48.88889,-28.22601l48.88889,28.22601v56.45203l-48.88889,28.22601l-48.88889,-28.22601z" fill="#a8a2ec"/><path d="M135.55556,309.27399l48.88889,-28.22601l48.88889,28.22601l-48.88889,28.22601z" fill="#fdf3ff"/><path d="M233.33333,309.27399v56.45203l-48.88889,28.22601v-56.45203z" fill="#545176"/></g><g><path d="M233.33333,309.27399l48.88889,-28.22601l48.88889,28.22601v56.45203l-48.88889,28.22601l-48.88889,-28.22601z" fill="#a8adf7"/><path d="M233.33333,309.27399l48.88889,-28.22601l48.88889,28.22601l-48.88889,28.22601z" fill="#fdffff"/><path d="M331.11111,309.27399v56.45203l-48.88889,28.22601v-56.45203z" fill="#54577b"/></g><g><path d="M331.11111,309.27399l48.88889,-28.22601l48.88889,28.22601v56.45203l-48.88889,28.22601l-48.88889,-28.22601z" fill="#a790c9"/><path d="M331.11111,309.27399l48.88889,-28.22601l48.88889,28.22601l-48.88889,28.22601z" fill="#fbd8ff"/><path d="M428.88889,309.27399v56.45203l-48.88889,28.22601v-56.45203z" fill="#544865"/></g><g><path d="M428.88889,309.27399l48.88889,-28.22601l48.88889,28.22601v56.45203l-48.88889,28.22601l-48.88889,-28.22601z" fill="#a2a1e3"/><path d="M428.88889,309.27399l48.88889,-28.22601l48.88889,28.22601l-48.88889,28.22601z" fill="#f3f2ff"/><path d="M526.66667,309.27399v56.45203l-48.88889,28.22601v-56.45203z" fill="#515171"/></g><g><path d="M526.66667,309.27399l48.88889,-28.22601l48.88889,28.22601v56.45203l-48.88889,28.22601l-48.88889,-28.22601z" fill="#aa7ebc"/><path d="M526.66667,309.27399l48.88889,-28.22601l48.88889,28.22601l-48.88889,28.22601z" fill="#ffbdff"/><path d="M624.44444,309.27399v56.45203l-48.88889,28.22601v-56.45203z" fill="#553f5e"/></g><g><path d="M624.44444,309.27399l48.88889,-28.22601l48.88889,28.22601v56.45203l-48.88889,28.22601l-48.88889,-28.22601z" fill="#ae6eb0"/><path d="M624.44444,309.27399l48.88889,-28.22601l48.88889,28.22601l-48.88889,28.22601z" fill="#ffa6ff"/><path d="M722.22222,309.27399v56.45203l-48.88889,28.22601v-56.45203z" fill="#573758"/></g><g><path d="M722.22222,309.27399l48.88889,-28.22601l48.88889,28.22601v56.45203l-48.88889,28.22601l-48.88889,-28.22601z" fill="#a388bb"/><path d="M722.22222,309.27399l48.88889,-28.22601l48.88889,28.22601l-48.88889,28.22601z" fill="#f5ccff"/><path d="M820,309.27399v56.45203l-48.88889,28.22601v-56.45203z" fill="#52445e"/></g><g><path d="M820,309.27399l48.88889,-28.22601l48.88889,28.22601v56.45203l-48.88889,28.22601l-48.88889,-28.22601z" fill="#aa7ebc"/><path d="M820,309.27399l48.88889,-28.22601l48.88889,28.22601l-48.88889,28.22601z" fill="#ffbdff"/><path d="M917.77778,309.27399v56.45203l-48.88889,28.22601v-56.45203z" fill="#553f5e"/></g><g><path d="M917.77778,309.27399l48.88889,-28.22601l48.88889,28.22601v56.45203l-48.88889,28.22601l-48.88889,-28.22601z" fill="#a39bd3"/><path d="M917.77778,309.27399l48.88889,-28.22601l48.88889,28.22601l-48.88889,28.22601z" fill="#f4e9ff"/><path d="M1015.55556,309.27399v56.45203l-48.88889,28.22601v-56.45203z" fill="#514e69"/></g><g><path d="M1015.55556,309.27399l48.88889,-28.22601l48.88889,28.22601v56.45203l-48.88889,28.22601l-48.88889,-28.22601z" fill="#a489bf"/><path d="M1015.55556,309.27399l48.88889,-28.22601l48.88889,28.22601l-48.88889,28.22601z" fill="#f7cdff"/><path d="M1113.33333,309.27399v56.45203l-48.88889,28.22601v-56.45203z" fill="#524460"/></g><g><path d="M1113.33333,309.27399l48.88889,-28.22601l48.88889,28.22601v56.45203l-48.88889,28.22601l-48.88889,-28.22601z" fill="#9ca2d8"/><path d="M1113.33333,309.27399l48.88889,-28.22601l48.88889,28.22601l-48.88889,28.22601z" fill="#eaf2ff"/><path d="M1211.11111,309.27399v56.45203l-48.88889,28.22601v-56.45203z" fill="#4e516c"/></g><g><path d="M-11.11111,393.95203l48.88889,-28.22601l48.88889,28.22601v56.45203l-48.88889,28.22601l-48.88889,-28.22601z" fill="#8c5998"/><path d="M-11.11111,393.95203l48.88889,-28.22601l48.88889,28.22601l-48.88889,28.22601z" fill="#d285e4"/><path d="M86.66667,393.95203v56.45203l-48.88889,28.22601v-56.45203z" fill="#462c4c"/></g><g><path d="M86.66667,393.95203l48.88889,-28.22601l48.88889,28.22601v56.45203l-48.88889,28.22601l-48.88889,-28.22601z" fill="#9aaafe"/><path d="M86.66667,393.95203l48.88889,-28.22601l48.88889,28.22601l-48.88889,28.22601z" fill="#e7feff"/><path d="M184.44444,393.95203v56.45203l-48.88889,28.22601v-56.45203z" fill="#4d557f"/></g><g><path d="M184.44444,393.95203l48.88889,-28.22601l48.88889,28.22601v56.45203l-48.88889,28.22601l-48.88889,-28.22601z" fill="#9ba6f5"/><path d="M184.44444,393.95203l48.88889,-28.22601l48.88889,28.22601l-48.88889,28.22601z" fill="#e8f9ff"/><path d="M282.22222,393.95203v56.45203l-48.88889,28.22601v-56.45203z" fill="#4d537a"/></g><g><path d="M282.22222,393.95203l48.88889,-28.22601l48.88889,28.22601v56.45203l-48.88889,28.22601l-48.88889,-28.22601z" fill="#a197eb"/><path d="M282.22222,393.95203l48.88889,-28.22601l48.88889,28.22601l-48.88889,28.22601z" fill="#f2e3ff"/><path d="M380,393.95203v56.45203l-48.88889,28.22601v-56.45203z" fill="#514c75"/></g><g><path d="M380,393.95203l48.88889,-28.22601l48.88889,28.22601v56.45203l-48.88889,28.22601l-48.88889,-28.22601z" fill="#96b6ff"/><path d="M380,393.95203l48.88889,-28.22601l48.88889,28.22601l-48.88889,28.22601z" fill="#e1ffff"/><path d="M477.77778,393.95203v56.45203l-48.88889,28.22601v-56.45203z" fill="#4b5b80"/></g><g><path d="M477.77778,393.95203l48.88889,-28.22601l48.88889,28.22601v56.45203l-48.88889,28.22601l-48.88889,-28.22601z" fill="#9c92d9"/><path d="M477.77778,393.95203l48.88889,-28.22601l48.88889,28.22601l-48.88889,28.22601z" fill="#eadbff"/><path d="M575.55556,393.95203v56.45203l-48.88889,28.22601v-56.45203z" fill="#4e496c"/></g><g><path d="M575.55556,393.95203l48.88889,-28.22601l48.88889,28.22601v56.45203l-48.88889,28.22601l-48.88889,-28.22601z" fill="#98b4ff"/><path d="M575.55556,393.95203l48.88889,-28.22601l48.88889,28.22601l-48.88889,28.22601z" fill="#e3ffff"/><path d="M673.33333,393.95203v56.45203l-48.88889,28.22601v-56.45203z" fill="#4c5a80"/></g><g><path d="M673.33333,393.95203l48.88889,-28.22601l48.88889,28.22601v56.45203l-48.88889,28.22601l-48.88889,-28.22601z" fill="#9dadff"/><path d="M673.33333,393.95203l48.88889,-28.22601l48.88889,28.22601l-48.88889,28.22601z" fill="#ebffff"/><path d="M771.11111,393.95203v56.45203l-48.88889,28.22601v-56.45203z" fill="#4e577f"/></g><g><path d="M771.11111,393.95203l48.88889,-28.22601l48.88889,28.22601v56.45203l-48.88889,28.22601l-48.88889,-28.22601z" fill="#9e92e0"/><path d="M771.11111,393.95203l48.88889,-28.22601l48.88889,28.22601l-48.88889,28.22601z" fill="#eddbff"/><path d="M868.88889,393.95203v56.45203l-48.88889,28.22601v-56.45203z" fill="#4f4970"/></g><g><path d="M868.88889,393.95203l48.88889,-28.22601l48.88889,28.22601v56.45203l-48.88889,28.22601l-48.88889,-28.22601z" fill="#9cacf8"/><path d="M868.88889,393.95203l48.88889,-28.22601l48.88889,28.22601l-48.88889,28.22601z" fill="#eaffff"/><path d="M966.66667,393.95203v56.45203l-48.88889,28.22601v-56.45203z" fill="#4e567c"/></g><g><path d="M966.66667,393.95203l48.88889,-28.22601l48.88889,28.22601v56.45203l-48.88889,28.22601l-48.88889,-28.22601z" fill="#9bb2ff"/><path d="M966.66667,393.95203l48.88889,-28.22601l48.88889,28.22601l-48.88889,28.22601z" fill="#e8ffff"/><path d="M1064.44444,393.95203v56.45203l-48.88889,28.22601v-56.45203z" fill="#4d5980"/></g><g><path d="M1064.44444,393.95203l48.88889,-28.22601l48.88889,28.22601v56.45203l-48.88889,28.22601l-48.88889,-28.22601z" fill="#94a9e8"/><path d="M1064.44444,393.95203l48.88889,-28.22601l48.88889,28.22601l-48.88889,28.22601z" fill="#defeff"/><path d="M1162.22222,393.95203v56.45203l-48.88889,28.22601v-56.45203z" fill="#4a5574"/></g><g><path d="M1162.22222,393.95203l48.88889,-28.22601l48.88889,28.22601v56.45203l-48.88889,28.22601l-48.88889,-28.22601z" fill="#89c4ff"/><path d="M1162.22222,393.95203l48.88889,-28.22601l48.88889,28.22601l-48.88889,28.22601z" fill="#cdffff"/><path d="M1260,393.95203v56.45203l-48.88889,28.22601v-56.45203z" fill="#446280"/></g><g><path d="M-60,478.63007l48.88889,-28.22601l48.88889,28.22601v56.45203l-48.88889,28.22601l-48.88889,-28.22601z" fill="#602760"/><path d="M-60,478.63007l48.88889,-28.22601l48.88889,28.22601l-48.88889,28.22601z" fill="#913b91"/><path d="M37.77778,478.63007v56.45203l-48.88889,28.22601v-56.45203z" fill="#301430"/></g><g><path d="M37.77778,478.63007l48.88889,-28.22601l48.88889,28.22601v56.45203l-48.88889,28.22601l-48.88889,-28.22601z" fill="#ab77e8"/><path d="M37.77778,478.63007l48.88889,-28.22601l48.88889,28.22601l-48.88889,28.22601z" fill="#ffb2ff"/><path d="M135.55556,478.63007v56.45203l-48.88889,28.22601v-56.45203z" fill="#553b74"/></g><g><path d="M135.55556,478.63007l48.88889,-28.22601l48.88889,28.22601v56.45203l-48.88889,28.22601l-48.88889,-28.22601z" fill="#a38cf4"/><path d="M135.55556,478.63007l48.88889,-28.22601l48.88889,28.22601l-48.88889,28.22601z" fill="#f5d3ff"/><path d="M233.33333,478.63007v56.45203l-48.88889,28.22601v-56.45203z" fill="#52467a"/></g><g><path d="M233.33333,478.63007l48.88889,-28.22601l48.88889,28.22601v56.45203l-48.88889,28.22601l-48.88889,-28.22601z" fill="#a87ce8"/><path d="M233.33333,478.63007l48.88889,-28.22601l48.88889,28.22601l-48.88889,28.22601z" fill="#fcbaff"/><path d="M331.11111,478.63007v56.45203l-48.88889,28.22601v-56.45203z" fill="#543e74"/></g><g><path d="M331.11111,478.63007l48.88889,-28.22601l48.88889,28.22601v56.45203l-48.88889,28.22601l-48.88889,-28.22601z" fill="#a28ffe"/><path d="M331.11111,478.63007l48.88889,-28.22601l48.88889,28.22601l-48.88889,28.22601z" fill="#f3d7ff"/><path d="M428.88889,478.63007v56.45203l-48.88889,28.22601v-56.45203z" fill="#51487f"/></g><g><path d="M428.88889,478.63007l48.88889,-28.22601l48.88889,28.22601v56.45203l-48.88889,28.22601l-48.88889,-28.22601z" fill="#ac77e9"/><path d="M428.88889,478.63007l48.88889,-28.22601l48.88889,28.22601l-48.88889,28.22601z" fill="#ffb2ff"/><path d="M526.66667,478.63007v56.45203l-48.88889,28.22601v-56.45203z" fill="#563b74"/></g><g><path d="M526.66667,478.63007l48.88889,-28.22601l48.88889,28.22601v56.45203l-48.88889,28.22601l-48.88889,-28.22601z" fill="#ae6edc"/><path d="M526.66667,478.63007l48.88889,-28.22601l48.88889,28.22601l-48.88889,28.22601z" fill="#ffa5ff"/><path d="M624.44444,478.63007v56.45203l-48.88889,28.22601v-56.45203z" fill="#57376e"/></g><g><path d="M624.44444,478.63007l48.88889,-28.22601l48.88889,28.22601v56.45203l-48.88889,28.22601l-48.88889,-28.22601z" fill="#9f95ff"/><path d="M624.44444,478.63007l48.88889,-28.22601l48.88889,28.22601l-48.88889,28.22601z" fill="#efdfff"/><path d="M722.22222,478.63007v56.45203l-48.88889,28.22601v-56.45203z" fill="#504a7f"/></g><g><path d="M722.22222,478.63007l48.88889,-28.22601l48.88889,28.22601v56.45203l-48.88889,28.22601l-48.88889,-28.22601z" fill="#a48cf5"/><path d="M722.22222,478.63007l48.88889,-28.22601l48.88889,28.22601l-48.88889,28.22601z" fill="#f6d1ff"/><path d="M820,478.63007v56.45203l-48.88889,28.22601v-56.45203z" fill="#52467b"/></g><g><path d="M820,478.63007l48.88889,-28.22601l48.88889,28.22601v56.45203l-48.88889,28.22601l-48.88889,-28.22601z" fill="#a686f0"/><path d="M820,478.63007l48.88889,-28.22601l48.88889,28.22601l-48.88889,28.22601z" fill="#f9caff"/><path d="M917.77778,478.63007v56.45203l-48.88889,28.22601v-56.45203z" fill="#534378"/></g><g><path d="M917.77778,478.63007l48.88889,-28.22601l48.88889,28.22601v56.45203l-48.88889,28.22601l-48.88889,-28.22601z" fill="#a095ff"/><path d="M917.77778,478.63007l48.88889,-28.22601l48.88889,28.22601l-48.88889,28.22601z" fill="#f0dfff"/><path d="M1015.55556,478.63007v56.45203l-48.88889,28.22601v-56.45203z" fill="#504a7f"/></g><g><path d="M1015.55556,478.63007l48.88889,-28.22601l48.88889,28.22601v56.45203l-48.88889,28.22601l-48.88889,-28.22601z" fill="#a493fa"/><path d="M1015.55556,478.63007l48.88889,-28.22601l48.88889,28.22601l-48.88889,28.22601z" fill="#f5ddff"/><path d="M1113.33333,478.63007v56.45203l-48.88889,28.22601v-56.45203z" fill="#524a7d"/></g><g><path d="M1113.33333,478.63007l48.88889,-28.22601l48.88889,28.22601v56.45203l-48.88889,28.22601l-48.88889,-28.22601z" fill="#79b6d9"/><path d="M1113.33333,478.63007l48.88889,-28.22601l48.88889,28.22601l-48.88889,28.22601z" fill="#b6ffff"/><path d="M1211.11111,478.63007v56.45203l-48.88889,28.22601v-56.45203z" fill="#3d5b6c"/></g><g><path d="M-11.11111,563.30811l48.88889,-28.22601l48.88889,28.22601v56.45203l-48.88889,28.22601l-48.88889,-28.22601z" fill="#aa34b0"/><path d="M-11.11111,563.30811l48.88889,-28.22601l48.88889,28.22601l-48.88889,28.22601z" fill="#ff4eff"/><path d="M86.66667,563.30811v56.45203l-48.88889,28.22601v-56.45203z" fill="#551a58"/></g><g><path d="M86.66667,563.30811l48.88889,-28.22601l48.88889,28.22601v56.45203l-48.88889,28.22601l-48.88889,-28.22601z" fill="#c74ee0"/><path d="M86.66667,563.30811l48.88889,-28.22601l48.88889,28.22601l-48.88889,28.22601z" fill="#ff75ff"/><path d="M184.44444,563.30811v56.45203l-48.88889,28.22601v-56.45203z" fill="#632770"/></g><g><path d="M184.44444,563.30811l48.88889,-28.22601l48.88889,28.22601v56.45203l-48.88889,28.22601l-48.88889,-28.22601z" fill="#bc5ee0"/><path d="M184.44444,563.30811l48.88889,-28.22601l48.88889,28.22601l-48.88889,28.22601z" fill="#ff8dff"/><path d="M282.22222,563.30811v56.45203l-48.88889,28.22601v-56.45203z" fill="#5e2f70"/></g><g><path d="M282.22222,563.30811l48.88889,-28.22601l48.88889,28.22601v56.45203l-48.88889,28.22601l-48.88889,-28.22601z" fill="#ab6fe2"/><path d="M282.22222,563.30811l48.88889,-28.22601l48.88889,28.22601l-48.88889,28.22601z" fill="#ffa6ff"/><path d="M380,563.30811v56.45203l-48.88889,28.22601v-56.45203z" fill="#563771"/></g><g><path d="M380,563.30811l48.88889,-28.22601l48.88889,28.22601v56.45203l-48.88889,28.22601l-48.88889,-28.22601z" fill="#af7eff"/><path d="M380,563.30811l48.88889,-28.22601l48.88889,28.22601l-48.88889,28.22601z" fill="#ffbdff"/><path d="M477.77778,563.30811v56.45203l-48.88889,28.22601v-56.45203z" fill="#573f7f"/></g><g><path d="M477.77778,563.30811l48.88889,-28.22601l48.88889,28.22601v56.45203l-48.88889,28.22601l-48.88889,-28.22601z" fill="#c153df"/><path d="M477.77778,563.30811l48.88889,-28.22601l48.88889,28.22601l-48.88889,28.22601z" fill="#ff7cff"/><path d="M575.55556,563.30811v56.45203l-48.88889,28.22601v-56.45203z" fill="#61296f"/></g><g><path d="M575.55556,563.30811l48.88889,-28.22601l48.88889,28.22601v56.45203l-48.88889,28.22601l-48.88889,-28.22601z" fill="#b17eff"/><path d="M575.55556,563.30811l48.88889,-28.22601l48.88889,28.22601l-48.88889,28.22601z" fill="#ffbdff"/><path d="M673.33333,563.30811v56.45203l-48.88889,28.22601v-56.45203z" fill="#593f7f"/></g><g><path d="M673.33333,563.30811l48.88889,-28.22601l48.88889,28.22601v56.45203l-48.88889,28.22601l-48.88889,-28.22601z" fill="#a787fc"/><path d="M673.33333,563.30811l48.88889,-28.22601l48.88889,28.22601l-48.88889,28.22601z" fill="#fbcaff"/><path d="M771.11111,563.30811v56.45203l-48.88889,28.22601v-56.45203z" fill="#54437e"/></g><g><path d="M771.11111,563.30811l48.88889,-28.22601l48.88889,28.22601v56.45203l-48.88889,28.22601l-48.88889,-28.22601z" fill="#b561df"/><path d="M771.11111,563.30811l48.88889,-28.22601l48.88889,28.22601l-48.88889,28.22601z" fill="#ff92ff"/><path d="M868.88889,563.30811v56.45203l-48.88889,28.22601v-56.45203z" fill="#5a3170"/></g><g><path d="M868.88889,563.30811l48.88889,-28.22601l48.88889,28.22601v56.45203l-48.88889,28.22601l-48.88889,-28.22601z" fill="#b37cfd"/><path d="M868.88889,563.30811l48.88889,-28.22601l48.88889,28.22601l-48.88889,28.22601z" fill="#ffbbff"/><path d="M966.66667,563.30811v56.45203l-48.88889,28.22601v-56.45203z" fill="#593e7f"/></g><g><path d="M966.66667,563.30811l48.88889,-28.22601l48.88889,28.22601v56.45203l-48.88889,28.22601l-48.88889,-28.22601z" fill="#bb78ff"/><path d="M966.66667,563.30811l48.88889,-28.22601l48.88889,28.22601l-48.88889,28.22601z" fill="#ffb4ff"/><path d="M1064.44444,563.30811v56.45203l-48.88889,28.22601v-56.45203z" fill="#5e3c7f"/></g><g><path d="M1064.44444,563.30811l48.88889,-28.22601l48.88889,28.22601v56.45203l-48.88889,28.22601l-48.88889,-28.22601z" fill="#9497ee"/><path d="M1064.44444,563.30811l48.88889,-28.22601l48.88889,28.22601l-48.88889,28.22601z" fill="#dee3ff"/><path d="M1162.22222,563.30811v56.45203l-48.88889,28.22601v-56.45203z" fill="#4a4c77"/></g><g><path d="M1162.22222,563.30811l48.88889,-28.22601l48.88889,28.22601v56.45203l-48.88889,28.22601l-48.88889,-28.22601z" fill="#72d0ff"/><path d="M1162.22222,563.30811l48.88889,-28.22601l48.88889,28.22601l-48.88889,28.22601z" fill="#abffff"/><path d="M1260,563.30811v56.45203l-48.88889,28.22601v-56.45203z" fill="#396880"/></g><g><path d="M-60,647.98614l48.88889,-28.22601l48.88889,28.22601v56.45203l-48.88889,28.22601l-48.88889,-28.22601z" fill="#323232"/><path d="M-60,647.98614l48.88889,-28.22601l48.88889,28.22601l-48.88889,28.22601z" fill="#4b4b4b"/><path d="M37.77778,647.98614v56.45203l-48.88889,28.22601v-56.45203z" fill="#191919"/></g><g><path d="M37.77778,647.98614l48.88889,-28.22601l48.88889,28.22601v56.45203l-48.88889,28.22601l-48.88889,-28.22601z" fill="#b164cb"/><path d="M37.77778,647.98614l48.88889,-28.22601l48.88889,28.22601l-48.88889,28.22601z" fill="#ff95ff"/><path d="M135.55556,647.98614v56.45203l-48.88889,28.22601v-56.45203z" fill="#583266"/></g><g><path d="M135.55556,647.98614l48.88889,-28.22601l48.88889,28.22601v56.45203l-48.88889,28.22601l-48.88889,-28.22601z" fill="#a36bba"/><path d="M135.55556,647.98614l48.88889,-28.22601l48.88889,28.22601l-48.88889,28.22601z" fill="#f4a1ff"/><path d="M233.33333,647.98614v56.45203l-48.88889,28.22601v-56.45203z" fill="#51365d"/></g><g><path d="M233.33333,647.98614l48.88889,-28.22601l48.88889,28.22601v56.45203l-48.88889,28.22601l-48.88889,-28.22601z" fill="#a855a8"/><path d="M233.33333,647.98614l48.88889,-28.22601l48.88889,28.22601l-48.88889,28.22601z" fill="#fd80fd"/><path d="M331.11111,647.98614v56.45203l-48.88889,28.22601v-56.45203z" fill="#542b54"/></g><g><path d="M331.11111,647.98614l48.88889,-28.22601l48.88889,28.22601v56.45203l-48.88889,28.22601l-48.88889,-28.22601z" fill="#a264b1"/><path d="M331.11111,647.98614l48.88889,-28.22601l48.88889,28.22601l-48.88889,28.22601z" fill="#f295ff"/><path d="M428.88889,647.98614v56.45203l-48.88889,28.22601v-56.45203z" fill="#513259"/></g><g><path d="M428.88889,647.98614l48.88889,-28.22601l48.88889,28.22601v56.45203l-48.88889,28.22601l-48.88889,-28.22601z" fill="#9680cb"/><path d="M428.88889,647.98614l48.88889,-28.22601l48.88889,28.22601l-48.88889,28.22601z" fill="#e1c0ff"/><path d="M526.66667,647.98614v56.45203l-48.88889,28.22601v-56.45203z" fill="#4b4066"/></g><g><path d="M526.66667,647.98614l48.88889,-28.22601l48.88889,28.22601v56.45203l-48.88889,28.22601l-48.88889,-28.22601z" fill="#9c7bce"/><path d="M526.66667,647.98614l48.88889,-28.22601l48.88889,28.22601l-48.88889,28.22601z" fill="#eab8ff"/><path d="M624.44444,647.98614v56.45203l-48.88889,28.22601v-56.45203z" fill="#4e3d67"/></g><g><path d="M624.44444,647.98614l48.88889,-28.22601l48.88889,28.22601v56.45203l-48.88889,28.22601l-48.88889,-28.22601z" fill="#a85cb0"/><path d="M624.44444,647.98614l48.88889,-28.22601l48.88889,28.22601l-48.88889,28.22601z" fill="#fc8aff"/><path d="M722.22222,647.98614v56.45203l-48.88889,28.22601v-56.45203z" fill="#542e58"/></g><g><path d="M722.22222,647.98614l48.88889,-28.22601l48.88889,28.22601v56.45203l-48.88889,28.22601l-48.88889,-28.22601z" fill="#947cc2"/><path d="M722.22222,647.98614l48.88889,-28.22601l48.88889,28.22601l-48.88889,28.22601z" fill="#debaff"/><path d="M820,647.98614v56.45203l-48.88889,28.22601v-56.45203z" fill="#4a3e61"/></g><g><path d="M820,647.98614l48.88889,-28.22601l48.88889,28.22601v56.45203l-48.88889,28.22601l-48.88889,-28.22601z" fill="#977dc6"/><path d="M820,647.98614l48.88889,-28.22601l48.88889,28.22601l-48.88889,28.22601z" fill="#e3bcff"/><path d="M917.77778,647.98614v56.45203l-48.88889,28.22601v-56.45203z" fill="#4c3f63"/></g><g><path d="M917.77778,647.98614l48.88889,-28.22601l48.88889,28.22601v56.45203l-48.88889,28.22601l-48.88889,-28.22601z" fill="#b353b6"/><path d="M917.77778,647.98614l48.88889,-28.22601l48.88889,28.22601l-48.88889,28.22601z" fill="#ff7dff"/><path d="M1015.55556,647.98614v56.45203l-48.88889,28.22601v-56.45203z" fill="#5a2a5b"/></g><g><path d="M1015.55556,647.98614l48.88889,-28.22601l48.88889,28.22601v56.45203l-48.88889,28.22601l-48.88889,-28.22601z" fill="#967cc3"/><path d="M1015.55556,647.98614l48.88889,-28.22601l48.88889,28.22601l-48.88889,28.22601z" fill="#e0baff"/><path d="M1113.33333,647.98614v56.45203l-48.88889,28.22601v-56.45203z" fill="#4b3e62"/></g><g><path d="M1113.33333,647.98614l48.88889,-28.22601l48.88889,28.22601v56.45203l-48.88889,28.22601l-48.88889,-28.22601z" fill="#a279d2"/><path d="M1113.33333,647.98614l48.88889,-28.22601l48.88889,28.22601l-48.88889,28.22601z" fill="#f3b5ff"/><path d="M1211.11111,647.98614v56.45203l-48.88889,28.22601v-56.45203z" fill="#513c69"/></g><g><path d="M-11.11111,732.66418l48.88889,-28.22601l48.88889,28.22601v56.45203l-48.88889,28.22601l-48.88889,-28.22601z" fill="#000000"/><path d="M-11.11111,732.66418l48.88889,-28.22601l48.88889,28.22601l-48.88889,28.22601z" fill="#ffffff"/><path d="M86.66667,732.66418v56.45203l-48.88889,28.22601v-56.45203z" fill="#000000"/></g><g><path d="M86.66667,732.66418l48.88889,-28.22601l48.88889,28.22601v56.45203l-48.88889,28.22601l-48.88889,-28.22601z" fill="#000000"/><path d="M86.66667,732.66418l48.88889,-28.22601l48.88889,28.22601l-48.88889,28.22601z" fill="#ffffff"/><path d="M184.44444,732.66418v56.45203l-48.88889,28.22601v-56.45203z" fill="#000000"/></g><g><path d="M184.44444,732.66418l48.88889,-28.22601l48.88889,28.22601v56.45203l-48.88889,28.22601l-48.88889,-28.22601z" fill="#000000"/><path d="M184.44444,732.66418l48.88889,-28.22601l48.88889,28.22601l-48.88889,28.22601z" fill="#ffffff"/><path d="M282.22222,732.66418v56.45203l-48.88889,28.22601v-56.45203z" fill="#000000"/></g><g><path d="M282.22222,732.66418l48.88889,-28.22601l48.88889,28.22601v56.45203l-48.88889,28.22601l-48.88889,-28.22601z" fill="#000000"/><path d="M282.22222,732.66418l48.88889,-28.22601l48.88889,28.22601l-48.88889,28.22601z" fill="#ffffff"/><path d="M380,732.66418v56.45203l-48.88889,28.22601v-56.45203z" fill="#000000"/></g><g><path d="M380,732.66418l48.88889,-28.22601l48.88889,28.22601v56.45203l-48.88889,28.22601l-48.88889,-28.22601z" fill="#000000"/><path d="M380,732.66418l48.88889,-28.22601l48.88889,28.22601l-48.88889,28.22601z" fill="#ffffff"/><path d="M477.77778,732.66418v56.45203l-48.88889,28.22601v-56.45203z" fill="#000000"/></g><g><path d="M477.77778,732.66418l48.88889,-28.22601l48.88889,28.22601v56.45203l-48.88889,28.22601l-48.88889,-28.22601z" fill="#000000"/><path d="M477.77778,732.66418l48.88889,-28.22601l48.88889,28.22601l-48.88889,28.22601z" fill="#ffffff"/><path d="M575.55556,732.66418v56.45203l-48.88889,28.22601v-56.45203z" fill="#000000"/></g><g><path d="M575.55556,732.66418l48.88889,-28.22601l48.88889,28.22601v56.45203l-48.88889,28.22601l-48.88889,-28.22601z" fill="#000000"/><path d="M575.55556,732.66418l48.88889,-28.22601l48.88889,28.22601l-48.88889,28.22601z" fill="#ffffff"/><path d="M673.33333,732.66418v56.45203l-48.88889,28.22601v-56.45203z" fill="#000000"/></g><g><path d="M673.33333,732.66418l48.88889,-28.22601l48.88889,28.22601v56.45203l-48.88889,28.22601l-48.88889,-28.22601z" fill="#000000"/><path d="M673.33333,732.66418l48.88889,-28.22601l48.88889,28.22601l-48.88889,28.22601z" fill="#ffffff"/><path d="M771.11111,732.66418v56.45203l-48.88889,28.22601v-56.45203z" fill="#000000"/></g><g><path d="M771.11111,732.66418l48.88889,-28.22601l48.88889,28.22601v56.45203l-48.88889,28.22601l-48.88889,-28.22601z" fill="#000000"/><path d="M771.11111,732.66418l48.88889,-28.22601l48.88889,28.22601l-48.88889,28.22601z" fill="#ffffff"/><path d="M868.88889,732.66418v56.45203l-48.88889,28.22601v-56.45203z" fill="#000000"/></g><g><path d="M868.88889,732.66418l48.88889,-28.22601l48.88889,28.22601v56.45203l-48.88889,28.22601l-48.88889,-28.22601z" fill="#000000"/><path d="M868.88889,732.66418l48.88889,-28.22601l48.88889,28.22601l-48.88889,28.22601z" fill="#ffffff"/><path d="M966.66667,732.66418v56.45203l-48.88889,28.22601v-56.45203z" fill="#000000"/></g><g><path d="M966.66667,732.66418l48.88889,-28.22601l48.88889,28.22601v56.45203l-48.88889,28.22601l-48.88889,-28.22601z" fill="#000000"/><path d="M966.66667,732.66418l48.88889,-28.22601l48.88889,28.22601l-48.88889,28.22601z" fill="#ffffff"/><path d="M1064.44444,732.66418v56.45203l-48.88889,28.22601v-56.45203z" fill="#000000"/></g><g><path d="M1064.44444,732.66418l48.88889,-28.22601l48.88889,28.22601v56.45203l-48.88889,28.22601l-48.88889,-28.22601z" fill="#000000"/><path d="M1064.44444,732.66418l48.88889,-28.22601l48.88889,28.22601l-48.88889,28.22601z" fill="#ffffff"/><path d="M1162.22222,732.66418v56.45203l-48.88889,28.22601v-56.45203z" fill="#000000"/></g><g><path d="M1162.22222,732.66418l48.88889,-28.22601l48.88889,28.22601v56.45203l-48.88889,28.22601l-48.88889,-28.22601z" fill="#000000"/><path d="M1162.22222,732.66418l48.88889,-28.22601l48.88889,28.22601l-48.88889,28.22601z" fill="#ffffff"/><path d="M1260,732.66418v56.45203l-48.88889,28.22601v-56.45203z" fill="#000000"/></g><g><path d="M-60,817.34222l48.88889,-28.22601l48.88889,28.22601v56.45203l-48.88889,28.22601l-48.88889,-28.22601z" fill="#000000"/><path d="M-60,817.34222l48.88889,-28.22601l48.88889,28.22601l-48.88889,28.22601z" fill="#ffffff"/><path d="M37.77778,817.34222v56.45203l-48.88889,28.22601v-56.45203z" fill="#000000"/></g><g><path d="M37.77778,817.34222l48.88889,-28.22601l48.88889,28.22601v56.45203l-48.88889,28.22601l-48.88889,-28.22601z" fill="#000000"/><path d="M37.77778,817.34222l48.88889,-28.22601l48.88889,28.22601l-48.88889,28.22601z" fill="#ffffff"/><path d="M135.55556,817.34222v56.45203l-48.88889,28.22601v-56.45203z" fill="#000000"/></g><g><path d="M135.55556,817.34222l48.88889,-28.22601l48.88889,28.22601v56.45203l-48.88889,28.22601l-48.88889,-28.22601z" fill="#000000"/><path d="M135.55556,817.34222l48.88889,-28.22601l48.88889,28.22601l-48.88889,28.22601z" fill="#ffffff"/><path d="M233.33333,817.34222v56.45203l-48.88889,28.22601v-56.45203z" fill="#000000"/></g><g><path d="M233.33333,817.34222l48.88889,-28.22601l48.88889,28.22601v56.45203l-48.88889,28.22601l-48.88889,-28.22601z" fill="#000000"/><path d="M233.33333,817.34222l48.88889,-28.22601l48.88889,28.22601l-48.88889,28.22601z" fill="#ffffff"/><path d="M331.11111,817.34222v56.45203l-48.88889,28.22601v-56.45203z" fill="#000000"/></g><g><path d="M331.11111,817.34222l48.88889,-28.22601l48.88889,28.22601v56.45203l-48.88889,28.22601l-48.88889,-28.22601z" fill="#000000"/><path d="M331.11111,817.34222l48.88889,-28.22601l48.88889,28.22601l-48.88889,28.22601z" fill="#ffffff"/><path d="M428.88889,817.34222v56.45203l-48.88889,28.22601v-56.45203z" fill="#000000"/></g><g><path d="M428.88889,817.34222l48.88889,-28.22601l48.88889,28.22601v56.45203l-48.88889,28.22601l-48.88889,-28.22601z" fill="#000000"/><path d="M428.88889,817.34222l48.88889,-28.22601l48.88889,28.22601l-48.88889,28.22601z" fill="#ffffff"/><path d="M526.66667,817.34222v56.45203l-48.88889,28.22601v-56.45203z" fill="#000000"/></g><g><path d="M526.66667,817.34222l48.88889,-28.22601l48.88889,28.22601v56.45203l-48.88889,28.22601l-48.88889,-28.22601z" fill="#000000"/><path d="M526.66667,817.34222l48.88889,-28.22601l48.88889,28.22601l-48.88889,28.22601z" fill="#ffffff"/><path d="M624.44444,817.34222v56.45203l-48.88889,28.22601v-56.45203z" fill="#000000"/></g><g><path d="M624.44444,817.34222l48.88889,-28.22601l48.88889,28.22601v56.45203l-48.88889,28.22601l-48.88889,-28.22601z" fill="#000000"/><path d="M624.44444,817.34222l48.88889,-28.22601l48.88889,28.22601l-48.88889,28.22601z" fill="#ffffff"/><path d="M722.22222,817.34222v56.45203l-48.88889,28.22601v-56.45203z" fill="#000000"/></g><g><path d="M722.22222,817.34222l48.88889,-28.22601l48.88889,28.22601v56.45203l-48.88889,28.22601l-48.88889,-28.22601z" fill="#000000"/><path d="M722.22222,817.34222l48.88889,-28.22601l48.88889,28.22601l-48.88889,28.22601z" fill="#ffffff"/><path d="M820,817.34222v56.45203l-48.88889,28.22601v-56.45203z" fill="#000000"/></g><g><path d="M820,817.34222l48.88889,-28.22601l48.88889,28.22601v56.45203l-48.88889,28.22601l-48.88889,-28.22601z" fill="#000000"/><path d="M820,817.34222l48.88889,-28.22601l48.88889,28.22601l-48.88889,28.22601z" fill="#ffffff"/><path d="M917.77778,817.34222v56.45203l-48.88889,28.22601v-56.45203z" fill="#000000"/></g><g><path d="M917.77778,817.34222l48.88889,-28.22601l48.88889,28.22601v56.45203l-48.88889,28.22601l-48.88889,-28.22601z" fill="#000000"/><path d="M917.77778,817.34222l48.88889,-28.22601l48.88889,28.22601l-48.88889,28.22601z" fill="#ffffff"/><path d="M1015.55556,817.34222v56.45203l-48.88889,28.22601v-56.45203z" fill="#000000"/></g><g><path d="M1015.55556,817.34222l48.88889,-28.22601l48.88889,28.22601v56.45203l-48.88889,28.22601l-48.88889,-28.22601z" fill="#000000"/><path d="M1015.55556,817.34222l48.88889,-28.22601l48.88889,28.22601l-48.88889,28.22601z" fill="#ffffff"/><path d="M1113.33333,817.34222v56.45203l-48.88889,28.22601v-56.45203z" fill="#000000"/></g><g><path d="M1113.33333,817.34222l48.88889,-28.22601l48.88889,28.22601v56.45203l-48.88889,28.22601l-48.88889,-28.22601z" fill="#000000"/><path d="M1113.33333,817.34222l48.88889,-28.22601l48.88889,28.22601l-48.88889,28.22601z" fill="#ffffff"/><path d="M1211.11111,817.34222v56.45203l-48.88889,28.22601v-56.45203z" fill="#000000"/></g></g></g></svg>