<svg version="1.1" xmlns="http://www.w3.org/2000/svg" xmlns:xlink="http://www.w3.org/1999/xlink" width="1200" height="675" viewBox="0,0,1200,675"><g fill="none" fill-rule="nonzero" stroke="none" stroke-width="1" stroke-linecap="butt" stroke-linejoin="miter" stroke-miterlimit="10" stroke-dasharray="" stroke-dashoffset="0" font-family="none" font-weight="none" font-size="none" text-anchor="none" style="mix-blend-mode: normal"><g><g><path d="M-60,-198.79425l48.88889,-28.22601l48.88889,28.22601v56.45203l-48.88889,28.22601l-48.88889,-28.22601z" fill="#000000"/><path d="M-60,-198.79425l48.88889,-28.22601l48.88889,28.22601l-48.88889,28.22601z" fill="#ffffff"/><path d="M37.77778,-198.79425v56.45203l-48.88889,28.22601v-56.45203z" fill="#000000"/></g><g><path d="M37.77778,-198.79425l48.88889,-28.22601l48.88889,28.22601v56.45203l-48.88889,28.22601l-48.88889,-28.22601z" fill="#000000"/><path d="M37.77778,-198.79425l48.88889,-28.22601l48.88889,28.22601l-48.88889,28.22601z" fill="#ffffff"/><path d="M135.55556,-198.79425v56.45203l-48.88889,28.22601v-56.45203z" fill="#000000"/></g><g><path d="M135.55556,-198.79425l48.88889,-28.22601l48.88889,28.22601v56.45203l-48.88889,28.22601l-48.88889,-28.22601z" fill="#000000"/><path d="M135.55556,-198.79425l48.88889,-28.22601l48.88889,28.22601l-48.88889,28.22601z" fill="#ffffff"/><path d="M233.33333,-198.79425v56.45203l-48.88889,28.22601v-56.45203z" fill="#000000"/></g><g><path d="M233.33333,-198.79425l48.88889,-28.22601l48.88889,28.22601v56.45203l-48.88889,28.22601l-48.88889,-28.22601z" fill="#000000"/><path d="M233.33333,-198.79425l48.88889,-28.22601l48.88889,28.22601l-48.88889,28.22601z" fill="#ffffff"/><path d="M331.11111,-198.79425v56.45203l-48.88889,28.22601v-56.45203z" fill="#000000"/></g><g><path d="M331.11111,-198.79425l48.88889,-28.22601l48.88889,28.22601v56.45203l-48.88889,28.22601l-48.88889,-28.22601z" fill="#000000"/><path d="M331.11111,-198.79425l48.88889,-28.22601l48.88889,28.22601l-48.88889,28.22601z" fill="#ffffff"/><path d="M428.88889,-198.79425v56.45203l-48.88889,28.22601v-56.45203z" fill="#000000"/></g><g><path d="M428.88889,-198.79425l48.88889,-28.22601l48.88889,28.22601v56.45203l-48.88889,28.22601l-48.88889,-28.22601z" fill="#000000"/><path d="M428.88889,-198.79425l48.88889,-28.22601l48.88889,28.22601l-48.88889,28.22601z" fill="#ffffff"/><path d="M526.66667,-198.79425v56.45203l-48.88889,28.22601v-56.45203z" fill="#000000"/></g><g><path d="M526.66667,-198.79425l48.88889,-28.22601l48.88889,28.22601v56.45203l-48.88889,28.22601l-48.88889,-28.22601z" fill="#000000"/><path d="M526.66667,-198.79425l48.88889,-28.22601l48.88889,28.22601l-48.88889,28.22601z" fill="#ffffff"/><path d="M624.44444,-198.79425v56.45203l-48.88889,28.22601v-56.45203z" fill="#000000"/></g><g><path d="M624.44444,-198.79425l48.88889,-28.22601l48.88889,28.22601v56.45203l-48.88889,28.22601l-48.88889,-28.22601z" fill="#000000"/><path d="M624.44444,-198.79425l48.88889,-28.22601l48.88889,28.22601l-48.88889,28.22601z" fill="#ffffff"/><path d="M722.22222,-198.79425v56.45203l-48.88889,28.22601v-56.45203z" fill="#000000"/></g><g><path d="M722.22222,-198.79425l48.88889,-28.22601l48.88889,28.22601v56.45203l-48.88889,28.22601l-48.88889,-28.22601z" fill="#000000"/><path d="M722.22222,-198.79425l48.88889,-28.22601l48.88889,28.22601l-48.88889,28.22601z" fill="#ffffff"/><path d="M820,-198.79425v56.45203l-48.88889,28.22601v-56.45203z" fill="#000000"/></g><g><path d="M820,-198.79425l48.88889,-28.22601l48.88889,28.22601v56.45203l-48.88889,28.22601l-48.88889,-28.22601z" fill="#000000"/><path d="M820,-198.79425l48.88889,-28.22601l48.88889,28.22601l-48.88889,28.22601z" fill="#ffffff"/><path d="M917.77778,-198.79425v56.45203l-48.88889,28.22601v-56.45203z" fill="#000000"/></g><g><path d="M917.77778,-198.79425l48.88889,-28.22601l48.88889,28.22601v56.45203l-48.88889,28.22601l-48.88889,-28.22601z" fill="#000000"/><path d="M917.77778,-198.79425l48.88889,-28.22601l48.88889,28.22601l-48.88889,28.22601z" fill="#ffffff"/><path d="M1015.55556,-198.79425v56.45203l-48.88889,28.22601v-56.45203z" fill="#000000"/></g><g><path d="M1015.55556,-198.79425l48.88889,-28.22601l48.88889,28.22601v56.45203l-48.88889,28.22601l-48.88889,-28.22601z" fill="#000000"/><path d="M1015.55556,-198.79425l48.88889,-28.22601l48.88889,28.22601l-48.88889,28.22601z" fill="#ffffff"/><path d="M1113.33333,-198.79425v56.45203l-48.88889,28.22601v-56.45203z" fill="#000000"/></g><g><path d="M1113.33333,-198.79425l48.88889,-28.22601l48.88889,28.22601v56.45203l-48.88889,28.22601l-48.88889,-28.22601z" fill="#000000"/><path d="M1113.33333,-198.79425l48.88889,-28.22601l48.88889,28.22601l-48.88889,28.22601z" fill="#ffffff"/><path d="M1211.11111,-198.79425v56.45203l-48.88889,28.22601v-56.45203z" fill="#000000"/></g><g><path d="M-11.11111,-114.11621l48.88889,-28.22601l48.88889,28.22601v56.45203l-48.88889,28.22601l-48.88889,-28.22601z" fill="#000000"/><path d="M-11.11111,-114.11621l48.88889,-28.22601l48.88889,28.22601l-48.88889,28.22601z" fill="#ffffff"/><path d="M86.66667,-114.11621v56.45203l-48.88889,28.22601v-56.45203z" fill="#000000"/></g><g><path d="M86.66667,-114.11621l48.88889,-28.22601l48.88889,28.22601v56.45203l-48.88889,28.22601l-48.88889,-28.22601z" fill="#000000"/><path d="M86.66667,-114.11621l48.88889,-28.22601l48.88889,28.22601l-48.88889,28.22601z" fill="#ffffff"/><path d="M184.44444,-114.11621v56.45203l-48.88889,28.22601v-56.45203z" fill="#000000"/></g><g><path d="M184.44444,-114.11621l48.88889,-28.22601l48.88889,28.22601v56.45203l-48.88889,28.22601l-48.88889,-28.22601z" fill="#000000"/><path d="M184.44444,-114.11621l48.88889,-28.22601l48.88889,28.22601l-48.88889,28.22601z" fill="#ffffff"/><path d="M282.22222,-114.11621v56.45203l-48.88889,28.22601v-56.45203z" fill="#000000"/></g><g><path d="M282.22222,-114.11621l48.88889,-28.22601l48.88889,28.22601v56.45203l-48.88889,28.22601l-48.88889,-28.22601z" fill="#000000"/><path d="M282.22222,-114.11621l48.88889,-28.22601l48.88889,28.22601l-48.88889,28.22601z" fill="#ffffff"/><path d="M380,-114.11621v56.45203l-48.88889,28.22601v-56.45203z" fill="#000000"/></g><g><path d="M380,-114.11621l48.88889,-28.22601l48.88889,28.22601v56.45203l-48.88889,28.22601l-48.88889,-28.22601z" fill="#000000"/><path d="M380,-114.11621l48.88889,-28.22601l48.88889,28.22601l-48.88889,28.22601z" fill="#ffffff"/><path d="M477.77778,-114.11621v56.45203l-48.88889,28.22601v-56.45203z" fill="#000000"/></g><g><path d="M477.77778,-114.11621l48.88889,-28.22601l48.88889,28.22601v56.45203l-48.88889,28.22601l-48.88889,-28.22601z" fill="#000000"/><path d="M477.77778,-114.11621l48.88889,-28.22601l48.88889,28.22601l-48.88889,28.22601z" fill="#ffffff"/><path d="M575.55556,-114.11621v56.45203l-48.88889,28.22601v-56.45203z" fill="#000000"/></g><g><path d="M575.55556,-114.11621l48.88889,-28.22601l48.88889,28.22601v56.45203l-48.88889,28.22601l-48.88889,-28.22601z" fill="#000000"/><path d="M575.55556,-114.11621l48.88889,-28.22601l48.88889,28.22601l-48.88889,28.22601z" fill="#ffffff"/><path d="M673.33333,-114.11621v56.45203l-48.88889,28.22601v-56.45203z" fill="#000000"/></g><g><path d="M673.33333,-114.11621l48.88889,-28.22601l48.88889,28.22601v56.45203l-48.88889,28.22601l-48.88889,-28.22601z" fill="#000000"/><path d="M673.33333,-114.11621l48.88889,-28.22601l48.88889,28.22601l-48.88889,28.22601z" fill="#ffffff"/><path d="M771.11111,-114.11621v56.45203l-48.88889,28.22601v-56.45203z" fill="#000000"/></g><g><path d="M771.11111,-114.11621l48.88889,-28.22601l48.88889,28.22601v56.45203l-48.88889,28.22601l-48.88889,-28.22601z" fill="#000000"/><path d="M771.11111,-114.11621l48.88889,-28.22601l48.88889,28.22601l-48.88889,28.22601z" fill="#ffffff"/><path d="M868.88889,-114.11621v56.45203l-48.88889,28.22601v-56.45203z" fill="#000000"/></g><g><path d="M868.88889,-114.11621l48.88889,-28.22601l48.88889,28.22601v56.45203l-48.88889,28.22601l-48.88889,-28.22601z" fill="#000000"/><path d="M868.88889,-114.11621l48.88889,-28.22601l48.88889,28.22601l-48.88889,28.22601z" fill="#ffffff"/><path d="M966.66667,-114.11621v56.45203l-48.88889,28.22601v-56.45203z" fill="#000000"/></g><g><path d="M966.66667,-114.11621l48.88889,-28.22601l48.88889,28.22601v56.45203l-48.88889,28.22601l-48.88889,-28.22601z" fill="#000000"/><path d="M966.66667,-114.11621l48.88889,-28.22601l48.88889,28.22601l-48.88889,28.22601z" fill="#ffffff"/><path d="M1064.44444,-114.11621v56.45203l-48.88889,28.22601v-56.45203z" fill="#000000"/></g><g><path d="M1064.44444,-114.11621l48.88889,-28.22601l48.88889,28.22601v56.45203l-48.88889,28.22601l-48.88889,-28.22601z" fill="#000000"/><path d="M1064.44444,-114.11621l48.88889,-28.22601l48.88889,28.22601l-48.88889,28.22601z" fill="#ffffff"/><path d="M1162.22222,-114.11621v56.45203l-48.88889,28.22601v-56.45203z" fill="#000000"/></g><g><path d="M1162.22222,-114.11621l48.88889,-28.22601l48.88889,28.22601v56.45203l-48.88889,28.22601l-48.88889,-28.22601z" fill="#000000"/><path d="M1162.22222,-114.11621l48.88889,-28.22601l48.88889,28.22601l-48.88889,28.22601z" fill="#ffffff"/><path d="M1260,-114.11621v56.45203l-48.88889,28.22601v-56.45203z" fill="#000000"/></g><g><path d="M-60,-29.43817l48.88889,-28.22601l48.88889,28.22601v56.45203l-48.88889,28.22601l-48.88889,-28.22601z" fill="#846e85"/><path d="M-60,-29.43817l48.88889,-28.22601l48.88889,28.22601l-48.88889,28.22601z" fill="#c6a5c7"/><path d="M37.77778,-29.43817v56.45203l-48.88889,28.22601v-56.45203z" fill="#423742"/></g><g><path d="M37.77778,-29.43817l48.88889,-28.22601l48.88889,28.22601v56.45203l-48.88889,28.22601l-48.88889,-28.22601z" fill="#d3acde"/><path d="M37.77778,-29.43817l48.88889,-28.22601l48.88889,28.22601l-48.88889,28.22601z" fill="#ffffff"/><path d="M135.55556,-29.43817v56.45203l-48.88889,28.22601v-56.45203z" fill="#6a566f"/></g><g><path d="M135.55556,-29.43817l48.88889,-28.22601l48.88889,28.22601v56.45203l-48.88889,28.22601l-48.88889,-28.22601z" fill="#c8b5db"/><path d="M135.55556,-29.43817l48.88889,-28.22601l48.88889,28.22601l-48.88889,28.22601z" fill="#ffffff"/><path d="M233.33333,-29.43817v56.45203l-48.88889,28.22601v-56.45203z" fill="#645a6d"/></g><g><path d="M233.33333,-29.43817l48.88889,-28.22601l48.88889,28.22601v56.45203l-48.88889,28.22601l-48.88889,-28.22601z" fill="#c5bad8"/><path d="M233.33333,-29.43817l48.88889,-28.22601l48.88889,28.22601l-48.88889,28.22601z" fill="#ffffff"/><path d="M331.11111,-29.43817v56.45203l-48.88889,28.22601v-56.45203z" fill="#625d6c"/></g><g><path d="M331.11111,-29.43817l48.88889,-28.22601l48.88889,28.22601v56.45203l-48.88889,28.22601l-48.88889,-28.22601z" fill="#d0addb"/><path d="M331.11111,-29.43817l48.88889,-28.22601l48.88889,28.22601l-48.88889,28.22601z" fill="#ffffff"/><path d="M428.88889,-29.43817v56.45203l-48.88889,28.22601v-56.45203z" fill="#68576d"/></g><g><path d="M428.88889,-29.43817l48.88889,-28.22601l48.88889,28.22601v56.45203l-48.88889,28.22601l-48.88889,-28.22601z" fill="#caaaca"/><path d="M428.88889,-29.43817l48.88889,-28.22601l48.88889,28.22601l-48.88889,28.22601z" fill="#fffeff"/><path d="M526.66667,-29.43817v56.45203l-48.88889,28.22601v-56.45203z" fill="#655565"/></g><g><path d="M526.66667,-29.43817l48.88889,-28.22601l48.88889,28.22601v56.45203l-48.88889,28.22601l-48.88889,-28.22601z" fill="#caa9ca"/><path d="M526.66667,-29.43817l48.88889,-28.22601l48.88889,28.22601l-48.88889,28.22601z" fill="#fffdff"/><path d="M624.44444,-29.43817v56.45203l-48.88889,28.22601v-56.45203z" fill="#655465"/></g><g><path d="M624.44444,-29.43817l48.88889,-28.22601l48.88889,28.22601v56.45203l-48.88889,28.22601l-48.88889,-28.22601z" fill="#cba9cb"/><path d="M624.44444,-29.43817l48.88889,-28.22601l48.88889,28.22601l-48.88889,28.22601z" fill="#fffeff"/><path d="M722.22222,-29.43817v56.45203l-48.88889,28.22601v-56.45203z" fill="#655565"/></g><g><path d="M722.22222,-29.43817l48.88889,-28.22601l48.88889,28.22601v56.45203l-48.88889,28.22601l-48.88889,-28.22601z" fill="#d1a1d1"/><path d="M722.22222,-29.43817l48.88889,-28.22601l48.88889,28.22601l-48.88889,28.22601z" fill="#fff1ff"/><path d="M820,-29.43817v56.45203l-48.88889,28.22601v-56.45203z" fill="#685068"/></g><g><path d="M820,-29.43817l48.88889,-28.22601l48.88889,28.22601v56.45203l-48.88889,28.22601l-48.88889,-28.22601z" fill="#c7a6c7"/><path d="M820,-29.43817l48.88889,-28.22601l48.88889,28.22601l-48.88889,28.22601z" fill="#fffaff"/><path d="M917.77778,-29.43817v56.45203l-48.88889,28.22601v-56.45203z" fill="#645364"/></g><g><path d="M917.77778,-29.43817l48.88889,-28.22601l48.88889,28.22601v56.45203l-48.88889,28.22601l-48.88889,-28.22601z" fill="#c1b1c1"/><path d="M917.77778,-29.43817l48.88889,-28.22601l48.88889,28.22601l-48.88889,28.22601z" fill="#ffffff"/><path d="M1015.55556,-29.43817v56.45203l-48.88889,28.22601v-56.45203z" fill="#605860"/></g><g><path d="M1015.55556,-29.43817l48.88889,-28.22601l48.88889,28.22601v56.45203l-48.88889,28.22601l-48.88889,-28.22601z" fill="#c5aac5"/><path d="M1015.55556,-29.43817l48.88889,-28.22601l48.88889,28.22601l-48.88889,28.22601z" fill="#fffeff"/><path d="M1113.33333,-29.43817v56.45203l-48.88889,28.22601v-56.45203z" fill="#635563"/></g><g><path d="M1113.33333,-29.43817l48.88889,-28.22601l48.88889,28.22601v56.45203l-48.88889,28.22601l-48.88889,-28.22601z" fill="#c2b0c2"/><path d="M1113.33333,-29.43817l48.88889,-28.22601l48.88889,28.22601l-48.88889,28.22601z" fill="#ffffff"/><path d="M1211.11111,-29.43817v56.45203l-48.88889,28.22601v-56.45203z" fill="#615861"/></g><g><path d="M-11.11111,55.23987l48.88889,-28.22601l48.88889,28.22601v56.45203l-48.88889,28.22601l-48.88889,-28.22601z" fill="#b957c4"/><path d="M-11.11111,55.23987l48.88889,-28.22601l48.88889,28.22601l-48.88889,28.22601z" fill="#ff83ff"/><path d="M86.66667,55.23987v56.45203l-48.88889,28.22601v-56.45203z" fill="#5c2c62"/></g><g><path d="M86.66667,55.23987l48.88889,-28.22601l48.88889,28.22601v56.45203l-48.88889,28.22601l-48.88889,-28.22601z" fill="#d475dd"/><path d="M86.66667,55.23987l48.88889,-28.22601l48.88889,28.22601l-48.88889,28.22601z" fill="#ffafff"/><path d="M184.44444,55.23987v56.45203l-48.88889,28.22601v-56.45203z" fill="#6a3a6f"/></g><g><path d="M184.44444,55.23987l48.88889,-28.22601l48.88889,28.22601v56.45203l-48.88889,28.22601l-48.88889,-28.22601z" fill="#e357e6"/><path d="M184.44444,55.23987l48.88889,-28.22601l48.88889,28.22601l-48.88889,28.22601z" fill="#ff83ff"/><path d="M282.22222,55.23987v56.45203l-48.88889,28.22601v-56.45203z" fill="#722c73"/></g><g><path d="M282.22222,55.23987l48.88889,-28.22601l48.88889,28.22601v56.45203l-48.88889,28.22601l-48.88889,-28.22601z" fill="#e55bea"/><path d="M282.22222,55.23987l48.88889,-28.22601l48.88889,28.22601l-48.88889,28.22601z" fill="#ff88ff"/><path d="M380,55.23987v56.45203l-48.88889,28.22601v-56.45203z" fill="#732d75"/></g><g><path d="M380,55.23987l48.88889,-28.22601l48.88889,28.22601v56.45203l-48.88889,28.22601l-48.88889,-28.22601z" fill="#e160e1"/><path d="M380,55.23987l48.88889,-28.22601l48.88889,28.22601l-48.88889,28.22601z" fill="#ff90ff"/><path d="M477.77778,55.23987v56.45203l-48.88889,28.22601v-56.45203z" fill="#703070"/></g><g><path d="M477.77778,55.23987l48.88889,-28.22601l48.88889,28.22601v56.45203l-48.88889,28.22601l-48.88889,-28.22601z" fill="#e45ee4"/><path d="M477.77778,55.23987l48.88889,-28.22601l48.88889,28.22601l-48.88889,28.22601z" fill="#ff8dff"/><path d="M575.55556,55.23987v56.45203l-48.88889,28.22601v-56.45203z" fill="#722f72"/></g><g><path d="M575.55556,55.23987l48.88889,-28.22601l48.88889,28.22601v56.45203l-48.88889,28.22601l-48.88889,-28.22601z" fill="#e161e1"/><path d="M575.55556,55.23987l48.88889,-28.22601l48.88889,28.22601l-48.88889,28.22601z" fill="#ff92ff"/><path d="M673.33333,55.23987v56.45203l-48.88889,28.22601v-56.45203z" fill="#713171"/></g><g><path d="M673.33333,55.23987l48.88889,-28.22601l48.88889,28.22601v56.45203l-48.88889,28.22601l-48.88889,-28.22601z" fill="#d677d6"/><path d="M673.33333,55.23987l48.88889,-28.22601l48.88889,28.22601l-48.88889,28.22601z" fill="#ffb2ff"/><path d="M771.11111,55.23987v56.45203l-48.88889,28.22601v-56.45203z" fill="#6b3b6b"/></g><g><path d="M771.11111,55.23987l48.88889,-28.22601l48.88889,28.22601v56.45203l-48.88889,28.22601l-48.88889,-28.22601z" fill="#e053e6"/><path d="M771.11111,55.23987l48.88889,-28.22601l48.88889,28.22601l-48.88889,28.22601z" fill="#ff7dff"/><path d="M868.88889,55.23987v56.45203l-48.88889,28.22601v-56.45203z" fill="#702a73"/></g><g><path d="M868.88889,55.23987l48.88889,-28.22601l48.88889,28.22601v56.45203l-48.88889,28.22601l-48.88889,-28.22601z" fill="#e456e4"/><path d="M868.88889,55.23987l48.88889,-28.22601l48.88889,28.22601l-48.88889,28.22601z" fill="#ff81ff"/><path d="M966.66667,55.23987v56.45203l-48.88889,28.22601v-56.45203z" fill="#722b72"/></g><g><path d="M966.66667,55.23987l48.88889,-28.22601l48.88889,28.22601v56.45203l-48.88889,28.22601l-48.88889,-28.22601z" fill="#e05fe0"/><path d="M966.66667,55.23987l48.88889,-28.22601l48.88889,28.22601l-48.88889,28.22601z" fill="#ff8fff"/><path d="M1064.44444,55.23987v56.45203l-48.88889,28.22601v-56.45203z" fill="#703070"/></g><g><path d="M1064.44444,55.23987l48.88889,-28.22601l48.88889,28.22601v56.45203l-48.88889,28.22601l-48.88889,-28.22601z" fill="#d474d4"/><path d="M1064.44444,55.23987l48.88889,-28.22601l48.88889,28.22601l-48.88889,28.22601z" fill="#ffaeff"/><path d="M1162.22222,55.23987v56.45203l-48.88889,28.22601v-56.45203z" fill="#6a3a6a"/></g><g><path d="M1162.22222,55.23987l48.88889,-28.22601l48.88889,28.22601v56.45203l-48.88889,28.22601l-48.88889,-28.22601z" fill="#df59df"/><path d="M1162.22222,55.23987l48.88889,-28.22601l48.88889,28.22601l-48.88889,28.22601z" fill="#ff86ff"/><path d="M1260,55.23987v56.45203l-48.88889,28.22601v-56.45203z" fill="#6f2d6f"/></g><g><path d="M-60,139.91791l48.88889,-28.22601l48.88889,28.22601v56.45203l-48.88889,28.22601l-48.88889,-28.22601z" fill="#694c82"/><path d="M-60,139.91791l48.88889,-28.22601l48.88889,28.22601l-48.88889,28.22601z" fill="#9d71c3"/><path d="M37.77778,139.91791v56.45203l-48.88889,28.22601v-56.45203z" fill="#342641"/></g><g><path d="M37.77778,139.91791l48.88889,-28.22601l48.88889,28.22601v56.45203l-48.88889,28.22601l-48.88889,-28.22601z" fill="#a791ed"/><path d="M37.77778,139.91791l48.88889,-28.22601l48.88889,28.22601l-48.88889,28.22601z" fill="#fbdaff"/><path d="M135.55556,139.91791v56.45203l-48.88889,28.22601v-56.45203z" fill="#544976"/></g><g><path d="M135.55556,139.91791l48.88889,-28.22601l48.88889,28.22601v56.45203l-48.88889,28.22601l-48.88889,-28.22601z" fill="#9f90eb"/><path d="M135.55556,139.91791l48.88889,-28.22601l48.88889,28.22601l-48.88889,28.22601z" fill="#efd8ff"/><path d="M233.33333,139.91791v56.45203l-48.88889,28.22601v-56.45203z" fill="#504875"/></g><g><path d="M233.33333,139.91791l48.88889,-28.22601l48.88889,28.22601v56.45203l-48.88889,28.22601l-48.88889,-28.22601z" fill="#81aaf3"/><path d="M233.33333,139.91791l48.88889,-28.22601l48.88889,28.22601l-48.88889,28.22601z" fill="#c2ffff"/><path d="M331.11111,139.91791v56.45203l-48.88889,28.22601v-56.45203z" fill="#41557a"/></g><g><path d="M331.11111,139.91791l48.88889,-28.22601l48.88889,28.22601v56.45203l-48.88889,28.22601l-48.88889,-28.22601z" fill="#b37ce8"/><path d="M331.11111,139.91791l48.88889,-28.22601l48.88889,28.22601l-48.88889,28.22601z" fill="#ffb9ff"/><path d="M428.88889,139.91791v56.45203l-48.88889,28.22601v-56.45203z" fill="#5a3e74"/></g><g><path d="M428.88889,139.91791l48.88889,-28.22601l48.88889,28.22601v56.45203l-48.88889,28.22601l-48.88889,-28.22601z" fill="#b778e8"/><path d="M428.88889,139.91791l48.88889,-28.22601l48.88889,28.22601l-48.88889,28.22601z" fill="#ffb4ff"/><path d="M526.66667,139.91791v56.45203l-48.88889,28.22601v-56.45203z" fill="#5c3c74"/></g><g><path d="M526.66667,139.91791l48.88889,-28.22601l48.88889,28.22601v56.45203l-48.88889,28.22601l-48.88889,-28.22601z" fill="#bd74e5"/><path d="M526.66667,139.91791l48.88889,-28.22601l48.88889,28.22601l-48.88889,28.22601z" fill="#ffaeff"/><path d="M624.44444,139.91791v56.45203l-48.88889,28.22601v-56.45203z" fill="#5e3a73"/></g><g><path d="M624.44444,139.91791l48.88889,-28.22601l48.88889,28.22601v56.45203l-48.88889,28.22601l-48.88889,-28.22601z" fill="#b27ee6"/><path d="M624.44444,139.91791l48.88889,-28.22601l48.88889,28.22601l-48.88889,28.22601z" fill="#ffbdff"/><path d="M722.22222,139.91791v56.45203l-48.88889,28.22601v-56.45203z" fill="#593f73"/></g><g><path d="M722.22222,139.91791l48.88889,-28.22601l48.88889,28.22601v56.45203l-48.88889,28.22601l-48.88889,-28.22601z" fill="#d06cd9"/><path d="M722.22222,139.91791l48.88889,-28.22601l48.88889,28.22601l-48.88889,28.22601z" fill="#ffa2ff"/><path d="M820,139.91791v56.45203l-48.88889,28.22601v-56.45203z" fill="#68366d"/></g><g><path d="M820,139.91791l48.88889,-28.22601l48.88889,28.22601v56.45203l-48.88889,28.22601l-48.88889,-28.22601z" fill="#b770ec"/><path d="M820,139.91791l48.88889,-28.22601l48.88889,28.22601l-48.88889,28.22601z" fill="#ffa8ff"/><path d="M917.77778,139.91791v56.45203l-48.88889,28.22601v-56.45203z" fill="#5c3876"/></g><g><path d="M917.77778,139.91791l48.88889,-28.22601l48.88889,28.22601v56.45203l-48.88889,28.22601l-48.88889,-28.22601z" fill="#c16de9"/><path d="M917.77778,139.91791l48.88889,-28.22601l48.88889,28.22601l-48.88889,28.22601z" fill="#ffa3ff"/><path d="M1015.55556,139.91791v56.45203l-48.88889,28.22601v-56.45203z" fill="#603675"/></g><g><path d="M1015.55556,139.91791l48.88889,-28.22601l48.88889,28.22601v56.45203l-48.88889,28.22601l-48.88889,-28.22601z" fill="#d56ad5"/><path d="M1015.55556,139.91791l48.88889,-28.22601l48.88889,28.22601l-48.88889,28.22601z" fill="#ffa0ff"/><path d="M1113.33333,139.91791v56.45203l-48.88889,28.22601v-56.45203z" fill="#6b356b"/></g><g><path d="M1113.33333,139.91791l48.88889,-28.22601l48.88889,28.22601v56.45203l-48.88889,28.22601l-48.88889,-28.22601z" fill="#c680c6"/><path d="M1113.33333,139.91791l48.88889,-28.22601l48.88889,28.22601l-48.88889,28.22601z" fill="#ffbfff"/><path d="M1211.11111,139.91791v56.45203l-48.88889,28.22601v-56.45203z" fill="#634063"/></g><g><path d="M-11.11111,224.59595l48.88889,-28.22601l48.88889,28.22601v56.45203l-48.88889,28.22601l-48.88889,-28.22601z" fill="#8a74ca"/><path d="M-11.11111,224.59595l48.88889,-28.22601l48.88889,28.22601l-48.88889,28.22601z" fill="#d0aeff"/><path d="M86.66667,224.59595v56.45203l-48.88889,28.22601v-56.45203z" fill="#453a65"/></g><g><path d="M86.66667,224.59595l48.88889,-28.22601l48.88889,28.22601v56.45203l-48.88889,28.22601l-48.88889,-28.22601z" fill="#9892f0"/><path d="M86.66667,224.59595l48.88889,-28.22601l48.88889,28.22601l-48.88889,28.22601z" fill="#e4dbff"/><path d="M184.44444,224.59595v56.45203l-48.88889,28.22601v-56.45203z" fill="#4c4978"/></g><g><path d="M184.44444,224.59595l48.88889,-28.22601l48.88889,28.22601v56.45203l-48.88889,28.22601l-48.88889,-28.22601z" fill="#88a1ef"/><path d="M184.44444,224.59595l48.88889,-28.22601l48.88889,28.22601l-48.88889,28.22601z" fill="#ccf1ff"/><path d="M282.22222,224.59595v56.45203l-48.88889,28.22601v-56.45203z" fill="#445077"/></g><g><path d="M282.22222,224.59595l48.88889,-28.22601l48.88889,28.22601v56.45203l-48.88889,28.22601l-48.88889,-28.22601z" fill="#8e9be2"/><path d="M282.22222,224.59595l48.88889,-28.22601l48.88889,28.22601l-48.88889,28.22601z" fill="#d4e8ff"/><path d="M380,224.59595v56.45203l-48.88889,28.22601v-56.45203z" fill="#474d71"/></g><g><path d="M380,224.59595l48.88889,-28.22601l48.88889,28.22601v56.45203l-48.88889,28.22601l-48.88889,-28.22601z" fill="#68b2ea"/><path d="M380,224.59595l48.88889,-28.22601l48.88889,28.22601l-48.88889,28.22601z" fill="#9cffff"/><path d="M477.77778,224.59595v56.45203l-48.88889,28.22601v-56.45203z" fill="#345975"/></g><g><path d="M477.77778,224.59595l48.88889,-28.22601l48.88889,28.22601v56.45203l-48.88889,28.22601l-48.88889,-28.22601z" fill="#8a92e4"/><path d="M477.77778,224.59595l48.88889,-28.22601l48.88889,28.22601l-48.88889,28.22601z" fill="#cedcff"/><path d="M575.55556,224.59595v56.45203l-48.88889,28.22601v-56.45203z" fill="#454972"/></g><g><path d="M575.55556,224.59595l48.88889,-28.22601l48.88889,28.22601v56.45203l-48.88889,28.22601l-48.88889,-28.22601z" fill="#9091df"/><path d="M575.55556,224.59595l48.88889,-28.22601l48.88889,28.22601l-48.88889,28.22601z" fill="#d7d9ff"/><path d="M673.33333,224.59595v56.45203l-48.88889,28.22601v-56.45203z" fill="#484870"/></g><g><path d="M673.33333,224.59595l48.88889,-28.22601l48.88889,28.22601v56.45203l-48.88889,28.22601l-48.88889,-28.22601z" fill="#9192d9"/><path d="M673.33333,224.59595l48.88889,-28.22601l48.88889,28.22601l-48.88889,28.22601z" fill="#d9dbff"/><path d="M771.11111,224.59595v56.45203l-48.88889,28.22601v-56.45203z" fill="#48496c"/></g><g><path d="M771.11111,224.59595l48.88889,-28.22601l48.88889,28.22601v56.45203l-48.88889,28.22601l-48.88889,-28.22601z" fill="#8d95dc"/><path d="M771.11111,224.59595l48.88889,-28.22601l48.88889,28.22601l-48.88889,28.22601z" fill="#d4dfff"/><path d="M868.88889,224.59595v56.45203l-48.88889,28.22601v-56.45203z" fill="#474a6e"/></g><g><path d="M868.88889,224.59595l48.88889,-28.22601l48.88889,28.22601v56.45203l-48.88889,28.22601l-48.88889,-28.22601z" fill="#8b97de"/><path d="M868.88889,224.59595l48.88889,-28.22601l48.88889,28.22601l-48.88889,28.22601z" fill="#d1e3ff"/><path d="M966.66667,224.59595v56.45203l-48.88889,28.22601v-56.45203z" fill="#464c6f"/></g><g><path d="M966.66667,224.59595l48.88889,-28.22601l48.88889,28.22601v56.45203l-48.88889,28.22601l-48.88889,-28.22601z" fill="#c271cc"/><path d="M966.66667,224.59595l48.88889,-28.22601l48.88889,28.22601l-48.88889,28.22601z" fill="#ffa9ff"/><path d="M1064.44444,224.59595v56.45203l-48.88889,28.22601v-56.45203z" fill="#613866"/></g><g><path d="M1064.44444,224.59595l48.88889,-28.22601l48.88889,28.22601v56.45203l-48.88889,28.22601l-48.88889,-28.22601z" fill="#c577c8"/><path d="M1064.44444,224.59595l48.88889,-28.22601l48.88889,28.22601l-48.88889,28.22601z" fill="#ffb3ff"/><path d="M1162.22222,224.59595v56.45203l-48.88889,28.22601v-56.45203z" fill="#623c64"/></g><g><path d="M1162.22222,224.59595l48.88889,-28.22601l48.88889,28.22601v56.45203l-48.88889,28.22601l-48.88889,-28.22601z" fill="#c28eda"/><path d="M1162.22222,224.59595l48.88889,-28.22601l48.88889,28.22601l-48.88889,28.22601z" fill="#ffd4ff"/><path d="M1260,224.59595v56.45203l-48.88889,28.22601v-56.45203z" fill="#61476d"/></g><g><path d="M-60,309.27399l48.88889,-28.22601l48.88889,28.22601v56.45203l-48.88889,28.22601l-48.88889,-28.22601z" fill="#36686f"/><path d="M-60,309.27399l48.88889,-28.22601l48.88889,28.22601l-48.88889,28.22601z" fill="#519ca6"/><path d="M37.77778,309.27399v56.45203l-48.88889,28.22601v-56.45203z" fill="#1b3437"/></g><g><path d="M37.77778,309.27399l48.88889,-28.22601l48.88889,28.22601v56.45203l-48.88889,28.22601l-48.88889,-28.22601z" fill="#64bdf0"/><path d="M37.77778,309.27399l48.88889,-28.22601l48.88889,28.22601l-48.88889,28.22601z" fill="#96ffff"/><path d="M135.55556,309.27399v56.45203l-48.88889,28.22601v-56.45203z" fill="#325f78"/></g><g><path d="M135.55556,309.27399l48.88889,-28.22601l48.88889,28.22601v56.45203l-48.88889,28.22601l-48.88889,-28.22601z" fill="#60c7f2"/><path d="M135.55556,309.27399l48.88889,-28.22601l48.88889,28.22601l-48.88889,28.22601z" fill="#91ffff"/><path d="M233.33333,309.27399v56.45203l-48.88889,28.22601v-56.45203z" fill="#306479"/></g><g><path d="M233.33333,309.27399l48.88889,-28.22601l48.88889,28.22601v56.45203l-48.88889,28.22601l-48.88889,-28.22601z" fill="#6dc5fc"/><path d="M233.33333,309.27399l48.88889,-28.22601l48.88889,28.22601l-48.88889,28.22601z" fill="#a3ffff"/><path d="M331.11111,309.27399v56.45203l-48.88889,28.22601v-56.45203z" fill="#36637e"/></g><g><path d="M331.11111,309.27399l48.88889,-28.22601l48.88889,28.22601v56.45203l-48.88889,28.22601l-48.88889,-28.22601z" fill="#6ab6e1"/><path d="M331.11111,309.27399l48.88889,-28.22601l48.88889,28.22601l-48.88889,28.22601z" fill="#a0ffff"/><path d="M428.88889,309.27399v56.45203l-48.88889,28.22601v-56.45203z" fill="#355b71"/></g><g><path d="M428.88889,309.27399l48.88889,-28.22601l48.88889,28.22601v56.45203l-48.88889,28.22601l-48.88889,-28.22601z" fill="#53d0f6"/><path d="M428.88889,309.27399l48.88889,-28.22601l48.88889,28.22601l-48.88889,28.22601z" fill="#7cffff"/><path d="M526.66667,309.27399v56.45203l-48.88889,28.22601v-56.45203z" fill="#29687b"/></g><g><path d="M526.66667,309.27399l48.88889,-28.22601l48.88889,28.22601v56.45203l-48.88889,28.22601l-48.88889,-28.22601z" fill="#5cb7de"/><path d="M526.66667,309.27399l48.88889,-28.22601l48.88889,28.22601l-48.88889,28.22601z" fill="#8affff"/><path d="M624.44444,309.27399v56.45203l-48.88889,28.22601v-56.45203z" fill="#2e5b6f"/></g><g><path d="M624.44444,309.27399l48.88889,-28.22601l48.88889,28.22601v56.45203l-48.88889,28.22601l-48.88889,-28.22601z" fill="#6fa7d7"/><path d="M624.44444,309.27399l48.88889,-28.22601l48.88889,28.22601l-48.88889,28.22601z" fill="#a7faff"/><path d="M722.22222,309.27399v56.45203l-48.88889,28.22601v-56.45203z" fill="#38536c"/></g><g><path d="M722.22222,309.27399l48.88889,-28.22601l48.88889,28.22601v56.45203l-48.88889,28.22601l-48.88889,-28.22601z" fill="#77a5d2"/><path d="M722.22222,309.27399l48.88889,-28.22601l48.88889,28.22601l-48.88889,28.22601z" fill="#b2f8ff"/><path d="M820,309.27399v56.45203l-48.88889,28.22601v-56.45203z" fill="#3b5369"/></g><g><path d="M820,309.27399l48.88889,-28.22601l48.88889,28.22601v56.45203l-48.88889,28.22601l-48.88889,-28.22601z" fill="#59b8e0"/><path d="M820,309.27399l48.88889,-28.22601l48.88889,28.22601l-48.88889,28.22601z" fill="#86ffff"/><path d="M917.77778,309.27399v56.45203l-48.88889,28.22601v-56.45203z" fill="#2d5c70"/></g><g><path d="M917.77778,309.27399l48.88889,-28.22601l48.88889,28.22601v56.45203l-48.88889,28.22601l-48.88889,-28.22601z" fill="#64c9f0"/><path d="M917.77778,309.27399l48.88889,-28.22601l48.88889,28.22601l-48.88889,28.22601z" fill="#96ffff"/><path d="M1015.55556,309.27399v56.45203l-48.88889,28.22601v-56.45203z" fill="#326578"/></g><g><path d="M1015.55556,309.27399l48.88889,-28.22601l48.88889,28.22601v56.45203l-48.88889,28.22601l-48.88889,-28.22601z" fill="#aa8dc3"/><path d="M1015.55556,309.27399l48.88889,-28.22601l48.88889,28.22601l-48.88889,28.22601z" fill="#ffd3ff"/><path d="M1113.33333,309.27399v56.45203l-48.88889,28.22601v-56.45203z" fill="#554661"/></g><g><path d="M1113.33333,309.27399l48.88889,-28.22601l48.88889,28.22601v56.45203l-48.88889,28.22601l-48.88889,-28.22601z" fill="#a2a5da"/><path d="M1113.33333,309.27399l48.88889,-28.22601l48.88889,28.22601l-48.88889,28.22601z" fill="#f3f8ff"/><path d="M1211.11111,309.27399v56.45203l-48.88889,28.22601v-56.45203z" fill="#51536d"/></g><g><path d="M-11.11111,393.95203l48.88889,-28.22601l48.88889,28.22601v56.45203l-48.88889,28.22601l-48.88889,-28.22601z" fill="#8f609b"/><path d="M-11.11111,393.95203l48.88889,-28.22601l48.88889,28.22601l-48.88889,28.22601z" fill="#d790e9"/><path d="M86.66667,393.95203v56.45203l-48.88889,28.22601v-56.45203z" fill="#48304e"/></g><g><path d="M86.66667,393.95203l48.88889,-28.22601l48.88889,28.22601v56.45203l-48.88889,28.22601l-48.88889,-28.22601z" fill="#9faffe"/><path d="M86.66667,393.95203l48.88889,-28.22601l48.88889,28.22601l-48.88889,28.22601z" fill="#eeffff"/><path d="M184.44444,393.95203v56.45203l-48.88889,28.22601v-56.45203z" fill="#4f587f"/></g><g><path d="M184.44444,393.95203l48.88889,-28.22601l48.88889,28.22601v56.45203l-48.88889,28.22601l-48.88889,-28.22601z" fill="#9facf5"/><path d="M184.44444,393.95203l48.88889,-28.22601l48.88889,28.22601l-48.88889,28.22601z" fill="#eeffff"/><path d="M282.22222,393.95203v56.45203l-48.88889,28.22601v-56.45203z" fill="#4f567b"/></g><g><path d="M282.22222,393.95203l48.88889,-28.22601l48.88889,28.22601v56.45203l-48.88889,28.22601l-48.88889,-28.22601z" fill="#a59deb"/><path d="M282.22222,393.95203l48.88889,-28.22601l48.88889,28.22601l-48.88889,28.22601z" fill="#f8ecff"/><path d="M380,393.95203v56.45203l-48.88889,28.22601v-56.45203z" fill="#534f76"/></g><g><path d="M380,393.95203l48.88889,-28.22601l48.88889,28.22601v56.45203l-48.88889,28.22601l-48.88889,-28.22601z" fill="#9bbbff"/><path d="M380,393.95203l48.88889,-28.22601l48.88889,28.22601l-48.88889,28.22601z" fill="#e8ffff"/><path d="M477.77778,393.95203v56.45203l-48.88889,28.22601v-56.45203z" fill="#4d5d7f"/></g><g><path d="M477.77778,393.95203l48.88889,-28.22601l48.88889,28.22601v56.45203l-48.88889,28.22601l-48.88889,-28.22601z" fill="#a099db"/><path d="M477.77778,393.95203l48.88889,-28.22601l48.88889,28.22601l-48.88889,28.22601z" fill="#f0e5ff"/><path d="M575.55556,393.95203v56.45203l-48.88889,28.22601v-56.45203z" fill="#504c6e"/></g><g><path d="M575.55556,393.95203l48.88889,-28.22601l48.88889,28.22601v56.45203l-48.88889,28.22601l-48.88889,-28.22601z" fill="#9cb8ff"/><path d="M575.55556,393.95203l48.88889,-28.22601l48.88889,28.22601l-48.88889,28.22601z" fill="#eaffff"/><path d="M673.33333,393.95203v56.45203l-48.88889,28.22601v-56.45203z" fill="#4e5c80"/></g><g><path d="M673.33333,393.95203l48.88889,-28.22601l48.88889,28.22601v56.45203l-48.88889,28.22601l-48.88889,-28.22601z" fill="#a1b3ff"/><path d="M673.33333,393.95203l48.88889,-28.22601l48.88889,28.22601l-48.88889,28.22601z" fill="#f1ffff"/><path d="M771.11111,393.95203v56.45203l-48.88889,28.22601v-56.45203z" fill="#50597f"/></g><g><path d="M771.11111,393.95203l48.88889,-28.22601l48.88889,28.22601v56.45203l-48.88889,28.22601l-48.88889,-28.22601z" fill="#a299e2"/><path d="M771.11111,393.95203l48.88889,-28.22601l48.88889,28.22601l-48.88889,28.22601z" fill="#f3e6ff"/><path d="M868.88889,393.95203v56.45203l-48.88889,28.22601v-56.45203z" fill="#514d71"/></g><g><path d="M868.88889,393.95203l48.88889,-28.22601l48.88889,28.22601v56.45203l-48.88889,28.22601l-48.88889,-28.22601z" fill="#a0b1f9"/><path d="M868.88889,393.95203l48.88889,-28.22601l48.88889,28.22601l-48.88889,28.22601z" fill="#f0ffff"/><path d="M966.66667,393.95203v56.45203l-48.88889,28.22601v-56.45203z" fill="#50597c"/></g><g><path d="M966.66667,393.95203l48.88889,-28.22601l48.88889,28.22601v56.45203l-48.88889,28.22601l-48.88889,-28.22601z" fill="#a0b7ff"/><path d="M966.66667,393.95203l48.88889,-28.22601l48.88889,28.22601l-48.88889,28.22601z" fill="#efffff"/><path d="M1064.44444,393.95203v56.45203l-48.88889,28.22601v-56.45203z" fill="#505b80"/></g><g><path d="M1064.44444,393.95203l48.88889,-28.22601l48.88889,28.22601v56.45203l-48.88889,28.22601l-48.88889,-28.22601z" fill="#99aee9"/><path d="M1064.44444,393.95203l48.88889,-28.22601l48.88889,28.22601l-48.88889,28.22601z" fill="#e6ffff"/><path d="M1162.22222,393.95203v56.45203l-48.88889,28.22601v-56.45203z" fill="#4d5775"/></g><g><path d="M1162.22222,393.95203l48.88889,-28.22601l48.88889,28.22601v56.45203l-48.88889,28.22601l-48.88889,-28.22601z" fill="#8fc7ff"/><path d="M1162.22222,393.95203l48.88889,-28.22601l48.88889,28.22601l-48.88889,28.22601z" fill="#d7ffff"/><path d="M1260,393.95203v56.45203l-48.88889,28.22601v-56.45203z" fill="#486480"/></g><g><path d="M-60,478.63007l48.88889,-28.22601l48.88889,28.22601v56.45203l-48.88889,28.22601l-48.88889,-28.22601z" fill="#642c64"/><path d="M-60,478.63007l48.88889,-28.22601l48.88889,28.22601l-48.88889,28.22601z" fill="#964296"/><path d="M37.77778,478.63007v56.45203l-48.88889,28.22601v-56.45203z" fill="#321632"/></g><g><path d="M37.77778,478.63007l48.88889,-28.22601l48.88889,28.22601v56.45203l-48.88889,28.22601l-48.88889,-28.22601z" fill="#b07cea"/><path d="M37.77778,478.63007l48.88889,-28.22601l48.88889,28.22601l-48.88889,28.22601z" fill="#ffbbff"/><path d="M135.55556,478.63007v56.45203l-48.88889,28.22601v-56.45203z" fill="#583e75"/></g><g><path d="M135.55556,478.63007l48.88889,-28.22601l48.88889,28.22601v56.45203l-48.88889,28.22601l-48.88889,-28.22601z" fill="#a992f5"/><path d="M135.55556,478.63007l48.88889,-28.22601l48.88889,28.22601l-48.88889,28.22601z" fill="#fddaff"/><path d="M233.33333,478.63007v56.45203l-48.88889,28.22601v-56.45203z" fill="#54497b"/></g><g><path d="M233.33333,478.63007l48.88889,-28.22601l48.88889,28.22601v56.45203l-48.88889,28.22601l-48.88889,-28.22601z" fill="#ad84eb"/><path d="M233.33333,478.63007l48.88889,-28.22601l48.88889,28.22601l-48.88889,28.22601z" fill="#ffc5ff"/><path d="M331.11111,478.63007v56.45203l-48.88889,28.22601v-56.45203z" fill="#564275"/></g><g><path d="M331.11111,478.63007l48.88889,-28.22601l48.88889,28.22601v56.45203l-48.88889,28.22601l-48.88889,-28.22601z" fill="#a793fe"/><path d="M331.11111,478.63007l48.88889,-28.22601l48.88889,28.22601l-48.88889,28.22601z" fill="#fbddff"/><path d="M428.88889,478.63007v56.45203l-48.88889,28.22601v-56.45203z" fill="#544a7f"/></g><g><path d="M428.88889,478.63007l48.88889,-28.22601l48.88889,28.22601v56.45203l-48.88889,28.22601l-48.88889,-28.22601z" fill="#b27cea"/><path d="M428.88889,478.63007l48.88889,-28.22601l48.88889,28.22601l-48.88889,28.22601z" fill="#ffbaff"/><path d="M526.66667,478.63007v56.45203l-48.88889,28.22601v-56.45203z" fill="#593e75"/></g><g><path d="M526.66667,478.63007l48.88889,-28.22601l48.88889,28.22601v56.45203l-48.88889,28.22601l-48.88889,-28.22601z" fill="#b375de"/><path d="M526.66667,478.63007l48.88889,-28.22601l48.88889,28.22601l-48.88889,28.22601z" fill="#ffafff"/><path d="M624.44444,478.63007v56.45203l-48.88889,28.22601v-56.45203z" fill="#593a6f"/></g><g><path d="M624.44444,478.63007l48.88889,-28.22601l48.88889,28.22601v56.45203l-48.88889,28.22601l-48.88889,-28.22601z" fill="#a699ff"/><path d="M624.44444,478.63007l48.88889,-28.22601l48.88889,28.22601l-48.88889,28.22601z" fill="#f8e5ff"/><path d="M722.22222,478.63007v56.45203l-48.88889,28.22601v-56.45203z" fill="#534c7f"/></g><g><path d="M722.22222,478.63007l48.88889,-28.22601l48.88889,28.22601v56.45203l-48.88889,28.22601l-48.88889,-28.22601z" fill="#aa90f6"/><path d="M722.22222,478.63007l48.88889,-28.22601l48.88889,28.22601l-48.88889,28.22601z" fill="#ffd8ff"/><path d="M820,478.63007v56.45203l-48.88889,28.22601v-56.45203z" fill="#55487b"/></g><g><path d="M820,478.63007l48.88889,-28.22601l48.88889,28.22601v56.45203l-48.88889,28.22601l-48.88889,-28.22601z" fill="#ac8bf1"/><path d="M820,478.63007l48.88889,-28.22601l48.88889,28.22601l-48.88889,28.22601z" fill="#ffd0ff"/><path d="M917.77778,478.63007v56.45203l-48.88889,28.22601v-56.45203z" fill="#564579"/></g><g><path d="M917.77778,478.63007l48.88889,-28.22601l48.88889,28.22601v56.45203l-48.88889,28.22601l-48.88889,-28.22601z" fill="#a699ff"/><path d="M917.77778,478.63007l48.88889,-28.22601l48.88889,28.22601l-48.88889,28.22601z" fill="#f8e5ff"/><path d="M1015.55556,478.63007v56.45203l-48.88889,28.22601v-56.45203z" fill="#534c7f"/></g><g><path d="M1015.55556,478.63007l48.88889,-28.22601l48.88889,28.22601v56.45203l-48.88889,28.22601l-48.88889,-28.22601z" fill="#a997fa"/><path d="M1015.55556,478.63007l48.88889,-28.22601l48.88889,28.22601l-48.88889,28.22601z" fill="#fee3ff"/><path d="M1113.33333,478.63007v56.45203l-48.88889,28.22601v-56.45203z" fill="#554c7d"/></g><g><path d="M1113.33333,478.63007l48.88889,-28.22601l48.88889,28.22601v56.45203l-48.88889,28.22601l-48.88889,-28.22601z" fill="#80badb"/><path d="M1113.33333,478.63007l48.88889,-28.22601l48.88889,28.22601l-48.88889,28.22601z" fill="#c0ffff"/><path d="M1211.11111,478.63007v56.45203l-48.88889,28.22601v-56.45203z" fill="#405d6d"/></g><g><path d="M-11.11111,563.30811l48.88889,-28.22601l48.88889,28.22601v56.45203l-48.88889,28.22601l-48.88889,-28.22601z" fill="#8c58b5"/><path d="M-11.11111,563.30811l48.88889,-28.22601l48.88889,28.22601l-48.88889,28.22601z" fill="#d284ff"/><path d="M86.66667,563.30811v56.45203l-48.88889,28.22601v-56.45203z" fill="#462c5a"/></g><g><path d="M86.66667,563.30811l48.88889,-28.22601l48.88889,28.22601v56.45203l-48.88889,28.22601l-48.88889,-28.22601z" fill="#bd5fe5"/><path d="M86.66667,563.30811l48.88889,-28.22601l48.88889,28.22601l-48.88889,28.22601z" fill="#ff8eff"/><path d="M184.44444,563.30811v56.45203l-48.88889,28.22601v-56.45203z" fill="#5f2f72"/></g><g><path d="M184.44444,563.30811l48.88889,-28.22601l48.88889,28.22601v56.45203l-48.88889,28.22601l-48.88889,-28.22601z" fill="#9686e2"/><path d="M184.44444,563.30811l48.88889,-28.22601l48.88889,28.22601l-48.88889,28.22601z" fill="#e1c9ff"/><path d="M282.22222,563.30811v56.45203l-48.88889,28.22601v-56.45203z" fill="#4b4371"/></g><g><path d="M282.22222,563.30811l48.88889,-28.22601l48.88889,28.22601v56.45203l-48.88889,28.22601l-48.88889,-28.22601z" fill="#68acec"/><path d="M282.22222,563.30811l48.88889,-28.22601l48.88889,28.22601l-48.88889,28.22601z" fill="#9cffff"/><path d="M380,563.30811v56.45203l-48.88889,28.22601v-56.45203z" fill="#345676"/></g><g><path d="M380,563.30811l48.88889,-28.22601l48.88889,28.22601v56.45203l-48.88889,28.22601l-48.88889,-28.22601z" fill="#6db9ff"/><path d="M380,563.30811l48.88889,-28.22601l48.88889,28.22601l-48.88889,28.22601z" fill="#a4ffff"/><path d="M477.77778,563.30811v56.45203l-48.88889,28.22601v-56.45203z" fill="#375d7f"/></g><g><path d="M477.77778,563.30811l48.88889,-28.22601l48.88889,28.22601v56.45203l-48.88889,28.22601l-48.88889,-28.22601z" fill="#b567df"/><path d="M477.77778,563.30811l48.88889,-28.22601l48.88889,28.22601l-48.88889,28.22601z" fill="#ff9aff"/><path d="M575.55556,563.30811v56.45203l-48.88889,28.22601v-56.45203z" fill="#5a3370"/></g><g><path d="M575.55556,563.30811l48.88889,-28.22601l48.88889,28.22601v56.45203l-48.88889,28.22601l-48.88889,-28.22601z" fill="#a591fe"/><path d="M575.55556,563.30811l48.88889,-28.22601l48.88889,28.22601l-48.88889,28.22601z" fill="#f7daff"/><path d="M673.33333,563.30811v56.45203l-48.88889,28.22601v-56.45203z" fill="#52497f"/></g><g><path d="M673.33333,563.30811l48.88889,-28.22601l48.88889,28.22601v56.45203l-48.88889,28.22601l-48.88889,-28.22601z" fill="#8da3fd"/><path d="M673.33333,563.30811l48.88889,-28.22601l48.88889,28.22601l-48.88889,28.22601z" fill="#d3f4ff"/><path d="M771.11111,563.30811v56.45203l-48.88889,28.22601v-56.45203z" fill="#46517e"/></g><g><path d="M771.11111,563.30811l48.88889,-28.22601l48.88889,28.22601v56.45203l-48.88889,28.22601l-48.88889,-28.22601z" fill="#a576e0"/><path d="M771.11111,563.30811l48.88889,-28.22601l48.88889,28.22601l-48.88889,28.22601z" fill="#f8b2ff"/><path d="M868.88889,563.30811v56.45203l-48.88889,28.22601v-56.45203z" fill="#533b70"/></g><g><path d="M868.88889,563.30811l48.88889,-28.22601l48.88889,28.22601v56.45203l-48.88889,28.22601l-48.88889,-28.22601z" fill="#979bfd"/><path d="M868.88889,563.30811l48.88889,-28.22601l48.88889,28.22601l-48.88889,28.22601z" fill="#e3e8ff"/><path d="M966.66667,563.30811v56.45203l-48.88889,28.22601v-56.45203z" fill="#4c4d7f"/></g><g><path d="M966.66667,563.30811l48.88889,-28.22601l48.88889,28.22601v56.45203l-48.88889,28.22601l-48.88889,-28.22601z" fill="#9b99ff"/><path d="M966.66667,563.30811l48.88889,-28.22601l48.88889,28.22601l-48.88889,28.22601z" fill="#e8e6ff"/><path d="M1064.44444,563.30811v56.45203l-48.88889,28.22601v-56.45203z" fill="#4d4d7f"/></g><g><path d="M1064.44444,563.30811l48.88889,-28.22601l48.88889,28.22601v56.45203l-48.88889,28.22601l-48.88889,-28.22601z" fill="#9a9bee"/><path d="M1064.44444,563.30811l48.88889,-28.22601l48.88889,28.22601l-48.88889,28.22601z" fill="#e7e8ff"/><path d="M1162.22222,563.30811v56.45203l-48.88889,28.22601v-56.45203z" fill="#4d4d77"/></g><g><path d="M1162.22222,563.30811l48.88889,-28.22601l48.88889,28.22601v56.45203l-48.88889,28.22601l-48.88889,-28.22601z" fill="#79d2ff"/><path d="M1162.22222,563.30811l48.88889,-28.22601l48.88889,28.22601l-48.88889,28.22601z" fill="#b5ffff"/><path d="M1260,563.30811v56.45203l-48.88889,28.22601v-56.45203z" fill="#3c6980"/></g><g><path d="M-60,647.98614l48.88889,-28.22601l48.88889,28.22601v56.45203l-48.88889,28.22601l-48.88889,-28.22601z" fill="#294f4f"/><path d="M-60,647.98614l48.88889,-28.22601l48.88889,28.22601l-48.88889,28.22601z" fill="#3d7777"/><path d="M37.77778,647.98614v56.45203l-48.88889,28.22601v-56.45203z" fill="#142828"/></g><g><path d="M37.77778,647.98614l48.88889,-28.22601l48.88889,28.22601v56.45203l-48.88889,28.22601l-48.88889,-28.22601z" fill="#8992e7"/><path d="M37.77778,647.98614l48.88889,-28.22601l48.88889,28.22601l-48.88889,28.22601z" fill="#cddaff"/><path d="M135.55556,647.98614v56.45203l-48.88889,28.22601v-56.45203z" fill="#444974"/></g><g><path d="M135.55556,647.98614l48.88889,-28.22601l48.88889,28.22601v56.45203l-48.88889,28.22601l-48.88889,-28.22601z" fill="#7e93da"/><path d="M135.55556,647.98614l48.88889,-28.22601l48.88889,28.22601l-48.88889,28.22601z" fill="#bdddff"/><path d="M233.33333,647.98614v56.45203l-48.88889,28.22601v-56.45203z" fill="#3f4a6d"/></g><g><path d="M233.33333,647.98614l48.88889,-28.22601l48.88889,28.22601v56.45203l-48.88889,28.22601l-48.88889,-28.22601z" fill="#818ed5"/><path d="M233.33333,647.98614l48.88889,-28.22601l48.88889,28.22601l-48.88889,28.22601z" fill="#c2d4ff"/><path d="M331.11111,647.98614v56.45203l-48.88889,28.22601v-56.45203z" fill="#41476b"/></g><g><path d="M331.11111,647.98614l48.88889,-28.22601l48.88889,28.22601v56.45203l-48.88889,28.22601l-48.88889,-28.22601z" fill="#7f94d8"/><path d="M331.11111,647.98614l48.88889,-28.22601l48.88889,28.22601l-48.88889,28.22601z" fill="#bfdeff"/><path d="M428.88889,647.98614v56.45203l-48.88889,28.22601v-56.45203z" fill="#404a6c"/></g><g><path d="M428.88889,647.98614l48.88889,-28.22601l48.88889,28.22601v56.45203l-48.88889,28.22601l-48.88889,-28.22601z" fill="#79a2e6"/><path d="M428.88889,647.98614l48.88889,-28.22601l48.88889,28.22601l-48.88889,28.22601z" fill="#b5f3ff"/><path d="M526.66667,647.98614v56.45203l-48.88889,28.22601v-56.45203z" fill="#3c5173"/></g><g><path d="M526.66667,647.98614l48.88889,-28.22601l48.88889,28.22601v56.45203l-48.88889,28.22601l-48.88889,-28.22601z" fill="#56b8e2"/><path d="M526.66667,647.98614l48.88889,-28.22601l48.88889,28.22601l-48.88889,28.22601z" fill="#80ffff"/><path d="M624.44444,647.98614v56.45203l-48.88889,28.22601v-56.45203z" fill="#2b5c71"/></g><g><path d="M624.44444,647.98614l48.88889,-28.22601l48.88889,28.22601v56.45203l-48.88889,28.22601l-48.88889,-28.22601z" fill="#7699d6"/><path d="M624.44444,647.98614l48.88889,-28.22601l48.88889,28.22601l-48.88889,28.22601z" fill="#b0e6ff"/><path d="M722.22222,647.98614v56.45203l-48.88889,28.22601v-56.45203z" fill="#3b4d6b"/></g><g><path d="M722.22222,647.98614l48.88889,-28.22601l48.88889,28.22601v56.45203l-48.88889,28.22601l-48.88889,-28.22601z" fill="#68a9dc"/><path d="M722.22222,647.98614l48.88889,-28.22601l48.88889,28.22601l-48.88889,28.22601z" fill="#9dfdff"/><path d="M820,647.98614v56.45203l-48.88889,28.22601v-56.45203z" fill="#34546e"/></g><g><path d="M820,647.98614l48.88889,-28.22601l48.88889,28.22601v56.45203l-48.88889,28.22601l-48.88889,-28.22601z" fill="#5bb5d6"/><path d="M820,647.98614l48.88889,-28.22601l48.88889,28.22601l-48.88889,28.22601z" fill="#88ffff"/><path d="M917.77778,647.98614v56.45203l-48.88889,28.22601v-56.45203z" fill="#2d5b6b"/></g><g><path d="M917.77778,647.98614l48.88889,-28.22601l48.88889,28.22601v56.45203l-48.88889,28.22601l-48.88889,-28.22601z" fill="#6f9ad2"/><path d="M917.77778,647.98614l48.88889,-28.22601l48.88889,28.22601l-48.88889,28.22601z" fill="#a6e8ff"/><path d="M1015.55556,647.98614v56.45203l-48.88889,28.22601v-56.45203z" fill="#374d69"/></g><g><path d="M1015.55556,647.98614l48.88889,-28.22601l48.88889,28.22601v56.45203l-48.88889,28.22601l-48.88889,-28.22601z" fill="#869add"/><path d="M1015.55556,647.98614l48.88889,-28.22601l48.88889,28.22601l-48.88889,28.22601z" fill="#c8e6ff"/><path d="M1113.33333,647.98614v56.45203l-48.88889,28.22601v-56.45203z" fill="#434d6f"/></g><g><path d="M1113.33333,647.98614l48.88889,-28.22601l48.88889,28.22601v56.45203l-48.88889,28.22601l-48.88889,-28.22601z" fill="#a682d6"/><path d="M1113.33333,647.98614l48.88889,-28.22601l48.88889,28.22601l-48.88889,28.22601z" fill="#fac3ff"/><path d="M1211.11111,647.98614v56.45203l-48.88889,28.22601v-56.45203z" fill="#53416b"/></g><g><path d="M-11.11111,732.66418l48.88889,-28.22601l48.88889,28.22601v56.45203l-48.88889,28.22601l-48.88889,-28.22601z" fill="#000000"/><path d="M-11.11111,732.66418l48.88889,-28.22601l48.88889,28.22601l-48.88889,28.22601z" fill="#ffffff"/><path d="M86.66667,732.66418v56.45203l-48.88889,28.22601v-56.45203z" fill="#000000"/></g><g><path d="M86.66667,732.66418l48.88889,-28.22601l48.88889,28.22601v56.45203l-48.88889,28.22601l-48.88889,-28.22601z" fill="#000000"/><path d="M86.66667,732.66418l48.88889,-28.22601l48.88889,28.22601l-48.88889,28.22601z" fill="#ffffff"/><path d="M184.44444,732.66418v56.45203l-48.88889,28.22601v-56.45203z" fill="#000000"/></g><g><path d="M184.44444,732.66418l48.88889,-28.22601l48.88889,28.22601v56.45203l-48.88889,28.22601l-48.88889,-28.22601z" fill="#000000"/><path d="M184.44444,732.66418l48.88889,-28.22601l48.88889,28.22601l-48.88889,28.22601z" fill="#ffffff"/><path d="M282.22222,732.66418v56.45203l-48.88889,28.22601v-56.45203z" fill="#000000"/></g><g><path d="M282.22222,732.66418l48.88889,-28.22601l48.88889,28.22601v56.45203l-48.88889,28.22601l-48.88889,-28.22601z" fill="#000000"/><path d="M282.22222,732.66418l48.88889,-28.22601l48.88889,28.22601l-48.88889,28.22601z" fill="#ffffff"/><path d="M380,732.66418v56.45203l-48.88889,28.22601v-56.45203z" fill="#000000"/></g><g><path d="M380,732.66418l48.88889,-28.22601l48.88889,28.22601v56.45203l-48.88889,28.22601l-48.88889,-28.22601z" fill="#000000"/><path d="M380,732.66418l48.88889,-28.22601l48.88889,28.22601l-48.88889,28.22601z" fill="#ffffff"/><path d="M477.77778,732.66418v56.45203l-48.88889,28.22601v-56.45203z" fill="#000000"/></g><g><path d="M477.77778,732.66418l48.88889,-28.22601l48.88889,28.22601v56.45203l-48.88889,28.22601l-48.88889,-28.22601z" fill="#000000"/><path d="M477.77778,732.66418l48.88889,-28.22601l48.88889,28.22601l-48.88889,28.22601z" fill="#ffffff"/><path d="M575.55556,732.66418v56.45203l-48.88889,28.22601v-56.45203z" fill="#000000"/></g><g><path d="M575.55556,732.66418l48.88889,-28.22601l48.88889,28.22601v56.45203l-48.88889,28.22601l-48.88889,-28.22601z" fill="#000000"/><path d="M575.55556,732.66418l48.88889,-28.22601l48.88889,28.22601l-48.88889,28.22601z" fill="#ffffff"/><path d="M673.33333,732.66418v56.45203l-48.88889,28.22601v-56.45203z" fill="#000000"/></g><g><path d="M673.33333,732.66418l48.88889,-28.22601l48.88889,28.22601v56.45203l-48.88889,28.22601l-48.88889,-28.22601z" fill="#000000"/><path d="M673.33333,732.66418l48.88889,-28.22601l48.88889,28.22601l-48.88889,28.22601z" fill="#ffffff"/><path d="M771.11111,732.66418v56.45203l-48.88889,28.22601v-56.45203z" fill="#000000"/></g><g><path d="M771.11111,732.66418l48.88889,-28.22601l48.88889,28.22601v56.45203l-48.88889,28.22601l-48.88889,-28.22601z" fill="#000000"/><path d="M771.11111,732.66418l48.88889,-28.22601l48.88889,28.22601l-48.88889,28.22601z" fill="#ffffff"/><path d="M868.88889,732.66418v56.45203l-48.88889,28.22601v-56.45203z" fill="#000000"/></g><g><path d="M868.88889,732.66418l48.88889,-28.22601l48.88889,28.22601v56.45203l-48.88889,28.22601l-48.88889,-28.22601z" fill="#000000"/><path d="M868.88889,732.66418l48.88889,-28.22601l48.88889,28.22601l-48.88889,28.22601z" fill="#ffffff"/><path d="M966.66667,732.66418v56.45203l-48.88889,28.22601v-56.45203z" fill="#000000"/></g><g><path d="M966.66667,732.66418l48.88889,-28.22601l48.88889,28.22601v56.45203l-48.88889,28.22601l-48.88889,-28.22601z" fill="#000000"/><path d="M966.66667,732.66418l48.88889,-28.22601l48.88889,28.22601l-48.88889,28.22601z" fill="#ffffff"/><path d="M1064.44444,732.66418v56.45203l-48.88889,28.22601v-56.45203z" fill="#000000"/></g><g><path d="M1064.44444,732.66418l48.88889,-28.22601l48.88889,28.22601v56.45203l-48.88889,28.22601l-48.88889,-28.22601z" fill="#000000"/><path d="M1064.44444,732.66418l48.88889,-28.22601l48.88889,28.22601l-48.88889,28.22601z" fill="#ffffff"/><path d="M1162.22222,732.66418v56.45203l-48.88889,28.22601v-56.45203z" fill="#000000"/></g><g><path d="M1162.22222,732.66418l48.88889,-28.22601l48.88889,28.22601v56.45203l-48.88889,28.22601l-48.88889,-28.22601z" fill="#000000"/><path d="M1162.22222,732.66418l48.88889,-28.22601l48.88889,28.22601l-48.88889,28.22601z" fill="#ffffff"/><path d="M1260,732.66418v56.45203l-48.88889,28.22601v-56.45203z" fill="#000000"/></g><g><path d="M-60,817.34222l48.88889,-28.22601l48.88889,28.22601v56.45203l-48.88889,28.22601l-48.88889,-28.22601z" fill="#000000"/><path d="M-60,817.34222l48.88889,-28.22601l48.88889,28.22601l-48.88889,28.22601z" fill="#ffffff"/><path d="M37.77778,817.34222v56.45203l-48.88889,28.22601v-56.45203z" fill="#000000"/></g><g><path d="M37.77778,817.34222l48.88889,-28.22601l48.88889,28.22601v56.45203l-48.88889,28.22601l-48.88889,-28.22601z" fill="#000000"/><path d="M37.77778,817.34222l48.88889,-28.22601l48.88889,28.22601l-48.88889,28.22601z" fill="#ffffff"/><path d="M135.55556,817.34222v56.45203l-48.88889,28.22601v-56.45203z" fill="#000000"/></g><g><path d="M135.55556,817.34222l48.88889,-28.22601l48.88889,28.22601v56.45203l-48.88889,28.22601l-48.88889,-28.22601z" fill="#000000"/><path d="M135.55556,817.34222l48.88889,-28.22601l48.88889,28.22601l-48.88889,28.22601z" fill="#ffffff"/><path d="M233.33333,817.34222v56.45203l-48.88889,28.22601v-56.45203z" fill="#000000"/></g><g><path d="M233.33333,817.34222l48.88889,-28.22601l48.88889,28.22601v56.45203l-48.88889,28.22601l-48.88889,-28.22601z" fill="#000000"/><path d="M233.33333,817.34222l48.88889,-28.22601l48.88889,28.22601l-48.88889,28.22601z" fill="#ffffff"/><path d="M331.11111,817.34222v56.45203l-48.88889,28.22601v-56.45203z" fill="#000000"/></g><g><path d="M331.11111,817.34222l48.88889,-28.22601l48.88889,28.22601v56.45203l-48.88889,28.22601l-48.88889,-28.22601z" fill="#000000"/><path d="M331.11111,817.34222l48.88889,-28.22601l48.88889,28.22601l-48.88889,28.22601z" fill="#ffffff"/><path d="M428.88889,817.34222v56.45203l-48.88889,28.22601v-56.45203z" fill="#000000"/></g><g><path d="M428.88889,817.34222l48.88889,-28.22601l48.88889,28.22601v56.45203l-48.88889,28.22601l-48.88889,-28.22601z" fill="#000000"/><path d="M428.88889,817.34222l48.88889,-28.22601l48.88889,28.22601l-48.88889,28.22601z" fill="#ffffff"/><path d="M526.66667,817.34222v56.45203l-48.88889,28.22601v-56.45203z" fill="#000000"/></g><g><path d="M526.66667,817.34222l48.88889,-28.22601l48.88889,28.22601v56.45203l-48.88889,28.22601l-48.88889,-28.22601z" fill="#000000"/><path d="M526.66667,817.34222l48.88889,-28.22601l48.88889,28.22601l-48.88889,28.22601z" fill="#ffffff"/><path d="M624.44444,817.34222v56.45203l-48.88889,28.22601v-56.45203z" fill="#000000"/></g><g><path d="M624.44444,817.34222l48.88889,-28.22601l48.88889,28.22601v56.45203l-48.88889,28.22601l-48.88889,-28.22601z" fill="#000000"/><path d="M624.44444,817.34222l48.88889,-28.22601l48.88889,28.22601l-48.88889,28.22601z" fill="#ffffff"/><path d="M722.22222,817.34222v56.45203l-48.88889,28.22601v-56.45203z" fill="#000000"/></g><g><path d="M722.22222,817.34222l48.88889,-28.22601l48.88889,28.22601v56.45203l-48.88889,28.22601l-48.88889,-28.22601z" fill="#000000"/><path d="M722.22222,817.34222l48.88889,-28.22601l48.88889,28.22601l-48.88889,28.22601z" fill="#ffffff"/><path d="M820,817.34222v56.45203l-48.88889,28.22601v-56.45203z" fill="#000000"/></g><g><path d="M820,817.34222l48.88889,-28.22601l48.88889,28.22601v56.45203l-48.88889,28.22601l-48.88889,-28.22601z" fill="#000000"/><path d="M820,817.34222l48.88889,-28.22601l48.88889,28.22601l-48.88889,28.22601z" fill="#ffffff"/><path d="M917.77778,817.34222v56.45203l-48.88889,28.22601v-56.45203z" fill="#000000"/></g><g><path d="M917.77778,817.34222l48.88889,-28.22601l48.88889,28.22601v56.45203l-48.88889,28.22601l-48.88889,-28.22601z" fill="#000000"/><path d="M917.77778,817.34222l48.88889,-28.22601l48.88889,28.22601l-48.88889,28.22601z" fill="#ffffff"/><path d="M1015.55556,817.34222v56.45203l-48.88889,28.22601v-56.45203z" fill="#000000"/></g><g><path d="M1015.55556,817.34222l48.88889,-28.22601l48.88889,28.22601v56.45203l-48.88889,28.22601l-48.88889,-28.22601z" fill="#000000"/><path d="M1015.55556,817.34222l48.88889,-28.22601l48.88889,28.22601l-48.88889,28.22601z" fill="#ffffff"/><path d="M1113.33333,817.34222v56.45203l-48.88889,28.22601v-56.45203z" fill="#000000"/></g><g><path d="M1113.33333,817.34222l48.88889,-28.22601l48.88889,28.22601v56.45203l-48.88889,28.22601l-48.88889,-28.22601z" fill="#000000"/><path d="M1113.33333,817.34222l48.88889,-28.22601l48.88889,28.22601l-48.88889,28.22601z" fill="#ffffff"/><path d="M1211.11111,817.34222v56.45203l-48.88889,28.22601v-56.45203z" fill="#000000"/></g></g></g></svg>