<svg version="1.1" xmlns="http://www.w3.org/2000/svg" xmlns:xlink="http://www.w3.org/1999/xlink" width="1200" height="675" viewBox="0,0,1200,675"><g fill="none" fill-rule="nonzero" stroke="none" stroke-width="1" stroke-linecap="butt" stroke-linejoin="miter" stroke-miterlimit="10" stroke-dasharray="" stroke-dashoffset="0" font-family="none" font-weight="none" font-size="none" text-anchor="none" style="mix-blend-mode: normal"><g><g><path d="M-126,-221.37506l96.8,-55.88751l96.8,55.88751v111.77501l-96.8,55.88751l-96.8,-55.88751z" fill="#000000"/><path d="M-126,-221.37506l96.8,-55.88751l96.8,55.88751l-96.8,55.88751z" fill="#ffffff"/><path d="M67.6,-221.37506v111.77501l-96.8,55.88751v-111.77501z" fill="#000000"/></g><g><path d="M67.6,-221.37506l96.8,-55.88751l96.8,55.88751v111.77501l-96.8,55.88751l-96.8,-55.88751z" fill="#000000"/><path d="M67.6,-221.37506l96.8,-55.88751l96.8,55.88751l-96.8,55.88751z" fill="#ffffff"/><path d="M261.2,-221.37506v111.77501l-96.8,55.88751v-111.77501z" fill="#000000"/></g><g><path d="M261.2,-221.37506l96.8,-55.88751l96.8,55.88751v111.77501l-96.8,55.88751l-96.8,-55.88751z" fill="#000000"/><path d="M261.2,-221.37506l96.8,-55.88751l96.8,55.88751l-96.8,55.88751z" fill="#ffffff"/><path d="M454.8,-221.37506v111.77501l-96.8,55.88751v-111.77501z" fill="#000000"/></g><g><path d="M454.8,-221.37506l96.8,-55.88751l96.8,55.88751v111.77501l-96.8,55.88751l-96.8,-55.88751z" fill="#000000"/><path d="M454.8,-221.37506l96.8,-55.88751l96.8,55.88751l-96.8,55.88751z" fill="#ffffff"/><path d="M648.4,-221.37506v111.77501l-96.8,55.88751v-111.77501z" fill="#000000"/></g><g><path d="M648.4,-221.37506l96.8,-55.88751l96.8,55.88751v111.77501l-96.8,55.88751l-96.8,-55.88751z" fill="#000000"/><path d="M648.4,-221.37506l96.8,-55.88751l96.8,55.88751l-96.8,55.88751z" fill="#ffffff"/><path d="M842,-221.37506v111.77501l-96.8,55.88751v-111.77501z" fill="#000000"/></g><g><path d="M842,-221.37506l96.8,-55.88751l96.8,55.88751v111.77501l-96.8,55.88751l-96.8,-55.88751z" fill="#000000"/><path d="M842,-221.37506l96.8,-55.88751l96.8,55.88751l-96.8,55.88751z" fill="#ffffff"/><path d="M1035.6,-221.37506v111.77501l-96.8,55.88751v-111.77501z" fill="#000000"/></g><g><path d="M1035.6,-221.37506l96.8,-55.88751l96.8,55.88751v111.77501l-96.8,55.88751l-96.8,-55.88751z" fill="#000000"/><path d="M1035.6,-221.37506l96.8,-55.88751l96.8,55.88751l-96.8,55.88751z" fill="#ffffff"/><path d="M1229.2,-221.37506v111.77501l-96.8,55.88751v-111.77501z" fill="#000000"/></g><g><path d="M-29.2,-53.71254l96.8,-55.88751l96.8,55.88751v111.77501l-96.8,55.88751l-96.8,-55.88751z" fill="#c66bce"/><path d="M-29.2,-53.71254l96.8,-55.88751l96.8,55.88751l-96.8,55.88751z" fill="#ffa0ff"/><path d="M164.4,-53.71254v111.77501l-96.8,55.88751v-111.77501z" fill="#633567"/></g><g><path d="M164.4,-53.71254l96.8,-55.88751l96.8,55.88751v111.77501l-96.8,55.88751l-96.8,-55.88751z" fill="#c967cc"/><path d="M164.4,-53.71254l96.8,-55.88751l96.8,55.88751l-96.8,55.88751z" fill="#ff9aff"/><path d="M358,-53.71254v111.77501l-96.8,55.88751v-111.77501z" fill="#643366"/></g><g><path d="M358,-53.71254l96.8,-55.88751l96.8,55.88751v111.77501l-96.8,55.88751l-96.8,-55.88751z" fill="#c667c6"/><path d="M358,-53.71254l96.8,-55.88751l96.8,55.88751l-96.8,55.88751z" fill="#ff9aff"/><path d="M551.6,-53.71254v111.77501l-96.8,55.88751v-111.77501z" fill="#633363"/></g><g><path d="M551.6,-53.71254l96.8,-55.88751l96.8,55.88751v111.77501l-96.8,55.88751l-96.8,-55.88751z" fill="#c766c7"/><path d="M551.6,-53.71254l96.8,-55.88751l96.8,55.88751l-96.8,55.88751z" fill="#ff99ff"/><path d="M745.2,-53.71254v111.77501l-96.8,55.88751v-111.77501z" fill="#633363"/></g><g><path d="M745.2,-53.71254l96.8,-55.88751l96.8,55.88751v111.77501l-96.8,55.88751l-96.8,-55.88751z" fill="#c963c9"/><path d="M745.2,-53.71254l96.8,-55.88751l96.8,55.88751l-96.8,55.88751z" fill="#ff95ff"/><path d="M938.8,-53.71254v111.77501l-96.8,55.88751v-111.77501z" fill="#643264"/></g><g><path d="M938.8,-53.71254l96.8,-55.88751l96.8,55.88751v111.77501l-96.8,55.88751l-96.8,-55.88751z" fill="#c569c5"/><path d="M938.8,-53.71254l96.8,-55.88751l96.8,55.88751l-96.8,55.88751z" fill="#ff9eff"/><path d="M1132.4,-53.71254v111.77501l-96.8,55.88751v-111.77501z" fill="#633563"/></g><g><path d="M1132.4,-53.71254l96.8,-55.88751l96.8,55.88751v111.77501l-96.8,55.88751l-96.8,-55.88751z" fill="#bb77bb"/><path d="M1132.4,-53.71254l96.8,-55.88751l96.8,55.88751l-96.8,55.88751z" fill="#ffb3ff"/><path d="M1326,-53.71254v111.77501l-96.8,55.88751v-111.77501z" fill="#5e3c5e"/></g><g><path d="M-126,113.94998l96.8,-55.88751l96.8,55.88751v111.77501l-96.8,55.88751l-96.8,-55.88751z" fill="#a452a6"/><path d="M-126,113.94998l96.8,-55.88751l96.8,55.88751l-96.8,55.88751z" fill="#f67bfa"/><path d="M67.6,113.94998v111.77501l-96.8,55.88751v-111.77501z" fill="#522953"/></g><g><path d="M67.6,113.94998l96.8,-55.88751l96.8,55.88751v111.77501l-96.8,55.88751l-96.8,-55.88751z" fill="#c565cd"/><path d="M67.6,113.94998l96.8,-55.88751l96.8,55.88751l-96.8,55.88751z" fill="#ff97ff"/><path d="M261.2,113.94998v111.77501l-96.8,55.88751v-111.77501z" fill="#633266"/></g><g><path d="M261.2,113.94998l96.8,-55.88751l96.8,55.88751v111.77501l-96.8,55.88751l-96.8,-55.88751z" fill="#c265c6"/><path d="M261.2,113.94998l96.8,-55.88751l96.8,55.88751l-96.8,55.88751z" fill="#ff97ff"/><path d="M454.8,113.94998v111.77501l-96.8,55.88751v-111.77501z" fill="#613263"/></g><g><path d="M454.8,113.94998l96.8,-55.88751l96.8,55.88751v111.77501l-96.8,55.88751l-96.8,-55.88751z" fill="#bb64bb"/><path d="M454.8,113.94998l96.8,-55.88751l96.8,55.88751l-96.8,55.88751z" fill="#ff96ff"/><path d="M648.4,113.94998v111.77501l-96.8,55.88751v-111.77501z" fill="#5d325d"/></g><g><path d="M648.4,113.94998l96.8,-55.88751l96.8,55.88751v111.77501l-96.8,55.88751l-96.8,-55.88751z" fill="#ba65ba"/><path d="M648.4,113.94998l96.8,-55.88751l96.8,55.88751l-96.8,55.88751z" fill="#ff97ff"/><path d="M842,113.94998v111.77501l-96.8,55.88751v-111.77501z" fill="#5d325d"/></g><g><path d="M842,113.94998l96.8,-55.88751l96.8,55.88751v111.77501l-96.8,55.88751l-96.8,-55.88751z" fill="#bb64bb"/><path d="M842,113.94998l96.8,-55.88751l96.8,55.88751l-96.8,55.88751z" fill="#ff97ff"/><path d="M1035.6,113.94998v111.77501l-96.8,55.88751v-111.77501z" fill="#5d325d"/></g><g><path d="M1035.6,113.94998l96.8,-55.88751l96.8,55.88751v111.77501l-96.8,55.88751l-96.8,-55.88751z" fill="#b56bb5"/><path d="M1035.6,113.94998l96.8,-55.88751l96.8,55.88751l-96.8,55.88751z" fill="#ffa1ff"/><path d="M1229.2,113.94998v111.77501l-96.8,55.88751v-111.77501z" fill="#5b365b"/></g><g><path d="M-29.2,281.61249l96.8,-55.88751l96.8,55.88751v111.77501l-96.8,55.88751l-96.8,-55.88751z" fill="#c368e9"/><path d="M-29.2,281.61249l96.8,-55.88751l96.8,55.88751l-96.8,55.88751z" fill="#ff9dff"/><path d="M164.4,281.61249v111.77501l-96.8,55.88751v-111.77501z" fill="#613475"/></g><g><path d="M164.4,281.61249l96.8,-55.88751l96.8,55.88751v111.77501l-96.8,55.88751l-96.8,-55.88751z" fill="#be78ef"/><path d="M164.4,281.61249l96.8,-55.88751l96.8,55.88751l-96.8,55.88751z" fill="#ffb4ff"/><path d="M358,281.61249v111.77501l-96.8,55.88751v-111.77501z" fill="#5f3c78"/></g><g><path d="M358,281.61249l96.8,-55.88751l96.8,55.88751v111.77501l-96.8,55.88751l-96.8,-55.88751z" fill="#b67ae6"/><path d="M358,281.61249l96.8,-55.88751l96.8,55.88751l-96.8,55.88751z" fill="#ffb7ff"/><path d="M551.6,281.61249v111.77501l-96.8,55.88751v-111.77501z" fill="#5b3d73"/></g><g><path d="M551.6,281.61249l96.8,-55.88751l96.8,55.88751v111.77501l-96.8,55.88751l-96.8,-55.88751z" fill="#c05bd0"/><path d="M551.6,281.61249l96.8,-55.88751l96.8,55.88751l-96.8,55.88751z" fill="#ff89ff"/><path d="M745.2,281.61249v111.77501l-96.8,55.88751v-111.77501z" fill="#602e68"/></g><g><path d="M745.2,281.61249l96.8,-55.88751l96.8,55.88751v111.77501l-96.8,55.88751l-96.8,-55.88751z" fill="#bb65d2"/><path d="M745.2,281.61249l96.8,-55.88751l96.8,55.88751l-96.8,55.88751z" fill="#ff98ff"/><path d="M938.8,281.61249v111.77501l-96.8,55.88751v-111.77501z" fill="#5d3369"/></g><g><path d="M938.8,281.61249l96.8,-55.88751l96.8,55.88751v111.77501l-96.8,55.88751l-96.8,-55.88751z" fill="#b972de"/><path d="M938.8,281.61249l96.8,-55.88751l96.8,55.88751l-96.8,55.88751z" fill="#ffabff"/><path d="M1132.4,281.61249v111.77501l-96.8,55.88751v-111.77501z" fill="#5c396f"/></g><g><path d="M1132.4,281.61249l96.8,-55.88751l96.8,55.88751v111.77501l-96.8,55.88751l-96.8,-55.88751z" fill="#ae86e0"/><path d="M1132.4,281.61249l96.8,-55.88751l96.8,55.88751l-96.8,55.88751z" fill="#ffcaff"/><path d="M1326,281.61249v111.77501l-96.8,55.88751v-111.77501z" fill="#574370"/></g><g><path d="M-126,449.27501l96.8,-55.88751l96.8,55.88751v111.77501l-96.8,55.88751l-96.8,-55.88751z" fill="#7b619c"/><path d="M-126,449.27501l96.8,-55.88751l96.8,55.88751l-96.8,55.88751z" fill="#b992ea"/><path d="M67.6,449.27501v111.77501l-96.8,55.88751v-111.77501z" fill="#3e314e"/></g><g><path d="M67.6,449.27501l96.8,-55.88751l96.8,55.88751v111.77501l-96.8,55.88751l-96.8,-55.88751z" fill="#959ff0"/><path d="M67.6,449.27501l96.8,-55.88751l96.8,55.88751l-96.8,55.88751z" fill="#dfeeff"/><path d="M261.2,449.27501v111.77501l-96.8,55.88751v-111.77501z" fill="#4a4f78"/></g><g><path d="M261.2,449.27501l96.8,-55.88751l96.8,55.88751v111.77501l-96.8,55.88751l-96.8,-55.88751z" fill="#8caef8"/><path d="M261.2,449.27501l96.8,-55.88751l96.8,55.88751l-96.8,55.88751z" fill="#d2ffff"/><path d="M454.8,449.27501v111.77501l-96.8,55.88751v-111.77501z" fill="#46577c"/></g><g><path d="M454.8,449.27501l96.8,-55.88751l96.8,55.88751v111.77501l-96.8,55.88751l-96.8,-55.88751z" fill="#958fd7"/><path d="M454.8,449.27501l96.8,-55.88751l96.8,55.88751l-96.8,55.88751z" fill="#dfd6ff"/><path d="M648.4,449.27501v111.77501l-96.8,55.88751v-111.77501z" fill="#4a476c"/></g><g><path d="M648.4,449.27501l96.8,-55.88751l96.8,55.88751v111.77501l-96.8,55.88751l-96.8,-55.88751z" fill="#8caff7"/><path d="M648.4,449.27501l96.8,-55.88751l96.8,55.88751l-96.8,55.88751z" fill="#d2ffff"/><path d="M842,449.27501v111.77501l-96.8,55.88751v-111.77501z" fill="#46587b"/></g><g><path d="M842,449.27501l96.8,-55.88751l96.8,55.88751v111.77501l-96.8,55.88751l-96.8,-55.88751z" fill="#8eabf2"/><path d="M842,449.27501l96.8,-55.88751l96.8,55.88751l-96.8,55.88751z" fill="#d4ffff"/><path d="M1035.6,449.27501v111.77501l-96.8,55.88751v-111.77501z" fill="#475579"/></g><g><path d="M1035.6,449.27501l96.8,-55.88751l96.8,55.88751v111.77501l-96.8,55.88751l-96.8,-55.88751z" fill="#87afe7"/><path d="M1035.6,449.27501l96.8,-55.88751l96.8,55.88751l-96.8,55.88751z" fill="#caffff"/><path d="M1229.2,449.27501v111.77501l-96.8,55.88751v-111.77501z" fill="#435873"/></g><g><path d="M-29.2,616.93753l96.8,-55.88751l96.8,55.88751v111.77501l-96.8,55.88751l-96.8,-55.88751z" fill="#b957d8"/><path d="M-29.2,616.93753l96.8,-55.88751l96.8,55.88751l-96.8,55.88751z" fill="#ff83ff"/><path d="M164.4,616.93753v111.77501l-96.8,55.88751v-111.77501z" fill="#5c2c6c"/></g><g><path d="M164.4,616.93753l96.8,-55.88751l96.8,55.88751v111.77501l-96.8,55.88751l-96.8,-55.88751z" fill="#ba50cb"/><path d="M164.4,616.93753l96.8,-55.88751l96.8,55.88751l-96.8,55.88751z" fill="#ff78ff"/><path d="M358,616.93753v111.77501l-96.8,55.88751v-111.77501z" fill="#5d2866"/></g><g><path d="M358,616.93753l96.8,-55.88751l96.8,55.88751v111.77501l-96.8,55.88751l-96.8,-55.88751z" fill="#b269e4"/><path d="M358,616.93753l96.8,-55.88751l96.8,55.88751l-96.8,55.88751z" fill="#ff9eff"/><path d="M551.6,616.93753v111.77501l-96.8,55.88751v-111.77501z" fill="#593572"/></g><g><path d="M551.6,616.93753l96.8,-55.88751l96.8,55.88751v111.77501l-96.8,55.88751l-96.8,-55.88751z" fill="#b664e3"/><path d="M551.6,616.93753l96.8,-55.88751l96.8,55.88751l-96.8,55.88751z" fill="#ff96ff"/><path d="M745.2,616.93753v111.77501l-96.8,55.88751v-111.77501z" fill="#5b3272"/></g><g><path d="M745.2,616.93753l96.8,-55.88751l96.8,55.88751v111.77501l-96.8,55.88751l-96.8,-55.88751z" fill="#ba5fe3"/><path d="M745.2,616.93753l96.8,-55.88751l96.8,55.88751l-96.8,55.88751z" fill="#ff8fff"/><path d="M938.8,616.93753v111.77501l-96.8,55.88751v-111.77501z" fill="#5d3072"/></g><g><path d="M938.8,616.93753l96.8,-55.88751l96.8,55.88751v111.77501l-96.8,55.88751l-96.8,-55.88751z" fill="#b369e3"/><path d="M938.8,616.93753l96.8,-55.88751l96.8,55.88751l-96.8,55.88751z" fill="#ff9dff"/><path d="M1132.4,616.93753v111.77501l-96.8,55.88751v-111.77501z" fill="#593471"/></g><g><path d="M1132.4,616.93753l96.8,-55.88751l96.8,55.88751v111.77501l-96.8,55.88751l-96.8,-55.88751z" fill="#9499ed"/><path d="M1132.4,616.93753l96.8,-55.88751l96.8,55.88751l-96.8,55.88751z" fill="#dde5ff"/><path d="M1326,616.93753v111.77501l-96.8,55.88751v-111.77501z" fill="#4a4c77"/></g><g><path d="M-126,784.60005l96.8,-55.88751l96.8,55.88751v111.77501l-96.8,55.88751l-96.8,-55.88751z" fill="#000000"/><path d="M-126,784.60005l96.8,-55.88751l96.8,55.88751l-96.8,55.88751z" fill="#ffffff"/><path d="M67.6,784.60005v111.77501l-96.8,55.88751v-111.77501z" fill="#000000"/></g><g><path d="M67.6,784.60005l96.8,-55.88751l96.8,55.88751v111.77501l-96.8,55.88751l-96.8,-55.88751z" fill="#000000"/><path d="M67.6,784.60005l96.8,-55.88751l96.8,55.88751l-96.8,55.88751z" fill="#ffffff"/><path d="M261.2,784.60005v111.77501l-96.8,55.88751v-111.77501z" fill="#000000"/></g><g><path d="M261.2,784.60005l96.8,-55.88751l96.8,55.88751v111.77501l-96.8,55.88751l-96.8,-55.88751z" fill="#000000"/><path d="M261.2,784.60005l96.8,-55.88751l96.8,55.88751l-96.8,55.88751z" fill="#ffffff"/><path d="M454.8,784.60005v111.77501l-96.8,55.88751v-111.77501z" fill="#000000"/></g><g><path d="M454.8,784.60005l96.8,-55.88751l96.8,55.88751v111.77501l-96.8,55.88751l-96.8,-55.88751z" fill="#000000"/><path d="M454.8,784.60005l96.8,-55.88751l96.8,55.88751l-96.8,55.88751z" fill="#ffffff"/><path d="M648.4,784.60005v111.77501l-96.8,55.88751v-111.77501z" fill="#000000"/></g><g><path d="M648.4,784.60005l96.8,-55.88751l96.8,55.88751v111.77501l-96.8,55.88751l-96.8,-55.88751z" fill="#000000"/><path d="M648.4,784.60005l96.8,-55.88751l96.8,55.88751l-96.8,55.88751z" fill="#ffffff"/><path d="M842,784.60005v111.77501l-96.8,55.88751v-111.77501z" fill="#000000"/></g><g><path d="M842,784.60005l96.8,-55.88751l96.8,55.88751v111.77501l-96.8,55.88751l-96.8,-55.88751z" fill="#000000"/><path d="M842,784.60005l96.8,-55.88751l96.8,55.88751l-96.8,55.88751z" fill="#ffffff"/><path d="M1035.6,784.60005v111.77501l-96.8,55.88751v-111.77501z" fill="#000000"/></g><g><path d="M1035.6,784.60005l96.8,-55.88751l96.8,55.88751v111.77501l-96.8,55.88751l-96.8,-55.88751z" fill="#000000"/><path d="M1035.6,784.60005l96.8,-55.88751l96.8,55.88751l-96.8,55.88751z" fill="#ffffff"/><path d="M1229.2,784.60005v111.77501l-96.8,55.88751v-111.77501z" fill="#000000"/></g></g></g></svg>