<svg version="1.1" xmlns="http://www.w3.org/2000/svg" xmlns:xlink="http://www.w3.org/1999/xlink" width="1200" height="675" viewBox="0,0,1200,675"><g fill="none" fill-rule="nonzero" stroke="none" stroke-width="1" stroke-linecap="butt" stroke-linejoin="miter" stroke-miterlimit="10" stroke-dasharray="" stroke-dashoffset="0" font-family="none" font-weight="none" font-size="none" text-anchor="none" style="mix-blend-mode: normal"><g><g><path d="M-60,-198.79425l48.88889,-28.22601l48.88889,28.22601v56.45203l-48.88889,28.22601l-48.88889,-28.22601z" fill="#000000"/><path d="M-60,-198.79425l48.88889,-28.22601l48.88889,28.22601l-48.88889,28.22601z" fill="#ffffff"/><path d="M37.77778,-198.79425v56.45203l-48.88889,28.22601v-56.45203z" fill="#000000"/></g><g><path d="M37.77778,-198.79425l48.88889,-28.22601l48.88889,28.22601v56.45203l-48.88889,28.22601l-48.88889,-28.22601z" fill="#000000"/><path d="M37.77778,-198.79425l48.88889,-28.22601l48.88889,28.22601l-48.88889,28.22601z" fill="#ffffff"/><path d="M135.55556,-198.79425v56.45203l-48.88889,28.22601v-56.45203z" fill="#000000"/></g><g><path d="M135.55556,-198.79425l48.88889,-28.22601l48.88889,28.22601v56.45203l-48.88889,28.22601l-48.88889,-28.22601z" fill="#000000"/><path d="M135.55556,-198.79425l48.88889,-28.22601l48.88889,28.22601l-48.88889,28.22601z" fill="#ffffff"/><path d="M233.33333,-198.79425v56.45203l-48.88889,28.22601v-56.45203z" fill="#000000"/></g><g><path d="M233.33333,-198.79425l48.88889,-28.22601l48.88889,28.22601v56.45203l-48.88889,28.22601l-48.88889,-28.22601z" fill="#000000"/><path d="M233.33333,-198.79425l48.88889,-28.22601l48.88889,28.22601l-48.88889,28.22601z" fill="#ffffff"/><path d="M331.11111,-198.79425v56.45203l-48.88889,28.22601v-56.45203z" fill="#000000"/></g><g><path d="M331.11111,-198.79425l48.88889,-28.22601l48.88889,28.22601v56.45203l-48.88889,28.22601l-48.88889,-28.22601z" fill="#000000"/><path d="M331.11111,-198.79425l48.88889,-28.22601l48.88889,28.22601l-48.88889,28.22601z" fill="#ffffff"/><path d="M428.88889,-198.79425v56.45203l-48.88889,28.22601v-56.45203z" fill="#000000"/></g><g><path d="M428.88889,-198.79425l48.88889,-28.22601l48.88889,28.22601v56.45203l-48.88889,28.22601l-48.88889,-28.22601z" fill="#000000"/><path d="M428.88889,-198.79425l48.88889,-28.22601l48.88889,28.22601l-48.88889,28.22601z" fill="#ffffff"/><path d="M526.66667,-198.79425v56.45203l-48.88889,28.22601v-56.45203z" fill="#000000"/></g><g><path d="M526.66667,-198.79425l48.88889,-28.22601l48.88889,28.22601v56.45203l-48.88889,28.22601l-48.88889,-28.22601z" fill="#000000"/><path d="M526.66667,-198.79425l48.88889,-28.22601l48.88889,28.22601l-48.88889,28.22601z" fill="#ffffff"/><path d="M624.44444,-198.79425v56.45203l-48.88889,28.22601v-56.45203z" fill="#000000"/></g><g><path d="M624.44444,-198.79425l48.88889,-28.22601l48.88889,28.22601v56.45203l-48.88889,28.22601l-48.88889,-28.22601z" fill="#000000"/><path d="M624.44444,-198.79425l48.88889,-28.22601l48.88889,28.22601l-48.88889,28.22601z" fill="#ffffff"/><path d="M722.22222,-198.79425v56.45203l-48.88889,28.22601v-56.45203z" fill="#000000"/></g><g><path d="M722.22222,-198.79425l48.88889,-28.22601l48.88889,28.22601v56.45203l-48.88889,28.22601l-48.88889,-28.22601z" fill="#000000"/><path d="M722.22222,-198.79425l48.88889,-28.22601l48.88889,28.22601l-48.88889,28.22601z" fill="#ffffff"/><path d="M820,-198.79425v56.45203l-48.88889,28.22601v-56.45203z" fill="#000000"/></g><g><path d="M820,-198.79425l48.88889,-28.22601l48.88889,28.22601v56.45203l-48.88889,28.22601l-48.88889,-28.22601z" fill="#000000"/><path d="M820,-198.79425l48.88889,-28.22601l48.88889,28.22601l-48.88889,28.22601z" fill="#ffffff"/><path d="M917.77778,-198.79425v56.45203l-48.88889,28.22601v-56.45203z" fill="#000000"/></g><g><path d="M917.77778,-198.79425l48.88889,-28.22601l48.88889,28.22601v56.45203l-48.88889,28.22601l-48.88889,-28.22601z" fill="#000000"/><path d="M917.77778,-198.79425l48.88889,-28.22601l48.88889,28.22601l-48.88889,28.22601z" fill="#ffffff"/><path d="M1015.55556,-198.79425v56.45203l-48.88889,28.22601v-56.45203z" fill="#000000"/></g><g><path d="M1015.55556,-198.79425l48.88889,-28.22601l48.88889,28.22601v56.45203l-48.88889,28.22601l-48.88889,-28.22601z" fill="#000000"/><path d="M1015.55556,-198.79425l48.88889,-28.22601l48.88889,28.22601l-48.88889,28.22601z" fill="#ffffff"/><path d="M1113.33333,-198.79425v56.45203l-48.88889,28.22601v-56.45203z" fill="#000000"/></g><g><path d="M1113.33333,-198.79425l48.88889,-28.22601l48.88889,28.22601v56.45203l-48.88889,28.22601l-48.88889,-28.22601z" fill="#000000"/><path d="M1113.33333,-198.79425l48.88889,-28.22601l48.88889,28.22601l-48.88889,28.22601z" fill="#ffffff"/><path d="M1211.11111,-198.79425v56.45203l-48.88889,28.22601v-56.45203z" fill="#000000"/></g><g><path d="M-11.11111,-114.11621l48.88889,-28.22601l48.88889,28.22601v56.45203l-48.88889,28.22601l-48.88889,-28.22601z" fill="#000000"/><path d="M-11.11111,-114.11621l48.88889,-28.22601l48.88889,28.22601l-48.88889,28.22601z" fill="#ffffff"/><path d="M86.66667,-114.11621v56.45203l-48.88889,28.22601v-56.45203z" fill="#000000"/></g><g><path d="M86.66667,-114.11621l48.88889,-28.22601l48.88889,28.22601v56.45203l-48.88889,28.22601l-48.88889,-28.22601z" fill="#000000"/><path d="M86.66667,-114.11621l48.88889,-28.22601l48.88889,28.22601l-48.88889,28.22601z" fill="#ffffff"/><path d="M184.44444,-114.11621v56.45203l-48.88889,28.22601v-56.45203z" fill="#000000"/></g><g><path d="M184.44444,-114.11621l48.88889,-28.22601l48.88889,28.22601v56.45203l-48.88889,28.22601l-48.88889,-28.22601z" fill="#000000"/><path d="M184.44444,-114.11621l48.88889,-28.22601l48.88889,28.22601l-48.88889,28.22601z" fill="#ffffff"/><path d="M282.22222,-114.11621v56.45203l-48.88889,28.22601v-56.45203z" fill="#000000"/></g><g><path d="M282.22222,-114.11621l48.88889,-28.22601l48.88889,28.22601v56.45203l-48.88889,28.22601l-48.88889,-28.22601z" fill="#000000"/><path d="M282.22222,-114.11621l48.88889,-28.22601l48.88889,28.22601l-48.88889,28.22601z" fill="#ffffff"/><path d="M380,-114.11621v56.45203l-48.88889,28.22601v-56.45203z" fill="#000000"/></g><g><path d="M380,-114.11621l48.88889,-28.22601l48.88889,28.22601v56.45203l-48.88889,28.22601l-48.88889,-28.22601z" fill="#000000"/><path d="M380,-114.11621l48.88889,-28.22601l48.88889,28.22601l-48.88889,28.22601z" fill="#ffffff"/><path d="M477.77778,-114.11621v56.45203l-48.88889,28.22601v-56.45203z" fill="#000000"/></g><g><path d="M477.77778,-114.11621l48.88889,-28.22601l48.88889,28.22601v56.45203l-48.88889,28.22601l-48.88889,-28.22601z" fill="#000000"/><path d="M477.77778,-114.11621l48.88889,-28.22601l48.88889,28.22601l-48.88889,28.22601z" fill="#ffffff"/><path d="M575.55556,-114.11621v56.45203l-48.88889,28.22601v-56.45203z" fill="#000000"/></g><g><path d="M575.55556,-114.11621l48.88889,-28.22601l48.88889,28.22601v56.45203l-48.88889,28.22601l-48.88889,-28.22601z" fill="#000000"/><path d="M575.55556,-114.11621l48.88889,-28.22601l48.88889,28.22601l-48.88889,28.22601z" fill="#ffffff"/><path d="M673.33333,-114.11621v56.45203l-48.88889,28.22601v-56.45203z" fill="#000000"/></g><g><path d="M673.33333,-114.11621l48.88889,-28.22601l48.88889,28.22601v56.45203l-48.88889,28.22601l-48.88889,-28.22601z" fill="#000000"/><path d="M673.33333,-114.11621l48.88889,-28.22601l48.88889,28.22601l-48.88889,28.22601z" fill="#ffffff"/><path d="M771.11111,-114.11621v56.45203l-48.88889,28.22601v-56.45203z" fill="#000000"/></g><g><path d="M771.11111,-114.11621l48.88889,-28.22601l48.88889,28.22601v56.45203l-48.88889,28.22601l-48.88889,-28.22601z" fill="#000000"/><path d="M771.11111,-114.11621l48.88889,-28.22601l48.88889,28.22601l-48.88889,28.22601z" fill="#ffffff"/><path d="M868.88889,-114.11621v56.45203l-48.88889,28.22601v-56.45203z" fill="#000000"/></g><g><path d="M868.88889,-114.11621l48.88889,-28.22601l48.88889,28.22601v56.45203l-48.88889,28.22601l-48.88889,-28.22601z" fill="#000000"/><path d="M868.88889,-114.11621l48.88889,-28.22601l48.88889,28.22601l-48.88889,28.22601z" fill="#ffffff"/><path d="M966.66667,-114.11621v56.45203l-48.88889,28.22601v-56.45203z" fill="#000000"/></g><g><path d="M966.66667,-114.11621l48.88889,-28.22601l48.88889,28.22601v56.45203l-48.88889,28.22601l-48.88889,-28.22601z" fill="#000000"/><path d="M966.66667,-114.11621l48.88889,-28.22601l48.88889,28.22601l-48.88889,28.22601z" fill="#ffffff"/><path d="M1064.44444,-114.11621v56.45203l-48.88889,28.22601v-56.45203z" fill="#000000"/></g><g><path d="M1064.44444,-114.11621l48.88889,-28.22601l48.88889,28.22601v56.45203l-48.88889,28.22601l-48.88889,-28.22601z" fill="#000000"/><path d="M1064.44444,-114.11621l48.88889,-28.22601l48.88889,28.22601l-48.88889,28.22601z" fill="#ffffff"/><path d="M1162.22222,-114.11621v56.45203l-48.88889,28.22601v-56.45203z" fill="#000000"/></g><g><path d="M1162.22222,-114.11621l48.88889,-28.22601l48.88889,28.22601v56.45203l-48.88889,28.22601l-48.88889,-28.22601z" fill="#000000"/><path d="M1162.22222,-114.11621l48.88889,-28.22601l48.88889,28.22601l-48.88889,28.22601z" fill="#ffffff"/><path d="M1260,-114.11621v56.45203l-48.88889,28.22601v-56.45203z" fill="#000000"/></g><g><path d="M-60,-29.43817l48.88889,-28.22601l48.88889,28.22601v56.45203l-48.88889,28.22601l-48.88889,-28.22601z" fill="#856c86"/><path d="M-60,-29.43817l48.88889,-28.22601l48.88889,28.22601l-48.88889,28.22601z" fill="#c8a2c9"/><path d="M37.77778,-29.43817v56.45203l-48.88889,28.22601v-56.45203z" fill="#433643"/></g><g><path d="M37.77778,-29.43817l48.88889,-28.22601l48.88889,28.22601v56.45203l-48.88889,28.22601l-48.88889,-28.22601z" fill="#d5a9df"/><path d="M37.77778,-29.43817l48.88889,-28.22601l48.88889,28.22601l-48.88889,28.22601z" fill="#fffdff"/><path d="M135.55556,-29.43817v56.45203l-48.88889,28.22601v-56.45203z" fill="#6a546f"/></g><g><path d="M135.55556,-29.43817l48.88889,-28.22601l48.88889,28.22601v56.45203l-48.88889,28.22601l-48.88889,-28.22601z" fill="#cab2dc"/><path d="M135.55556,-29.43817l48.88889,-28.22601l48.88889,28.22601l-48.88889,28.22601z" fill="#ffffff"/><path d="M233.33333,-29.43817v56.45203l-48.88889,28.22601v-56.45203z" fill="#65596e"/></g><g><path d="M233.33333,-29.43817l48.88889,-28.22601l48.88889,28.22601v56.45203l-48.88889,28.22601l-48.88889,-28.22601z" fill="#c6b8d8"/><path d="M233.33333,-29.43817l48.88889,-28.22601l48.88889,28.22601l-48.88889,28.22601z" fill="#ffffff"/><path d="M331.11111,-29.43817v56.45203l-48.88889,28.22601v-56.45203z" fill="#635c6c"/></g><g><path d="M331.11111,-29.43817l48.88889,-28.22601l48.88889,28.22601v56.45203l-48.88889,28.22601l-48.88889,-28.22601z" fill="#d1abdb"/><path d="M331.11111,-29.43817l48.88889,-28.22601l48.88889,28.22601l-48.88889,28.22601z" fill="#ffffff"/><path d="M428.88889,-29.43817v56.45203l-48.88889,28.22601v-56.45203z" fill="#69556d"/></g><g><path d="M428.88889,-29.43817l48.88889,-28.22601l48.88889,28.22601v56.45203l-48.88889,28.22601l-48.88889,-28.22601z" fill="#cca8cc"/><path d="M428.88889,-29.43817l48.88889,-28.22601l48.88889,28.22601l-48.88889,28.22601z" fill="#fffbff"/><path d="M526.66667,-29.43817v56.45203l-48.88889,28.22601v-56.45203z" fill="#665466"/></g><g><path d="M526.66667,-29.43817l48.88889,-28.22601l48.88889,28.22601v56.45203l-48.88889,28.22601l-48.88889,-28.22601z" fill="#cba7cb"/><path d="M526.66667,-29.43817l48.88889,-28.22601l48.88889,28.22601l-48.88889,28.22601z" fill="#fffbff"/><path d="M624.44444,-29.43817v56.45203l-48.88889,28.22601v-56.45203z" fill="#665466"/></g><g><path d="M624.44444,-29.43817l48.88889,-28.22601l48.88889,28.22601v56.45203l-48.88889,28.22601l-48.88889,-28.22601z" fill="#cca8cc"/><path d="M624.44444,-29.43817l48.88889,-28.22601l48.88889,28.22601l-48.88889,28.22601z" fill="#fffcff"/><path d="M722.22222,-29.43817v56.45203l-48.88889,28.22601v-56.45203z" fill="#665466"/></g><g><path d="M722.22222,-29.43817l48.88889,-28.22601l48.88889,28.22601v56.45203l-48.88889,28.22601l-48.88889,-28.22601z" fill="#d29fd2"/><path d="M722.22222,-29.43817l48.88889,-28.22601l48.88889,28.22601l-48.88889,28.22601z" fill="#ffeeff"/><path d="M820,-29.43817v56.45203l-48.88889,28.22601v-56.45203z" fill="#694f69"/></g><g><path d="M820,-29.43817l48.88889,-28.22601l48.88889,28.22601v56.45203l-48.88889,28.22601l-48.88889,-28.22601z" fill="#c8a4c8"/><path d="M820,-29.43817l48.88889,-28.22601l48.88889,28.22601l-48.88889,28.22601z" fill="#fff7ff"/><path d="M917.77778,-29.43817v56.45203l-48.88889,28.22601v-56.45203z" fill="#645264"/></g><g><path d="M917.77778,-29.43817l48.88889,-28.22601l48.88889,28.22601v56.45203l-48.88889,28.22601l-48.88889,-28.22601z" fill="#c1b0c1"/><path d="M917.77778,-29.43817l48.88889,-28.22601l48.88889,28.22601l-48.88889,28.22601z" fill="#ffffff"/><path d="M1015.55556,-29.43817v56.45203l-48.88889,28.22601v-56.45203z" fill="#615861"/></g><g><path d="M1015.55556,-29.43817l48.88889,-28.22601l48.88889,28.22601v56.45203l-48.88889,28.22601l-48.88889,-28.22601z" fill="#c6a9c6"/><path d="M1015.55556,-29.43817l48.88889,-28.22601l48.88889,28.22601l-48.88889,28.22601z" fill="#fffdff"/><path d="M1113.33333,-29.43817v56.45203l-48.88889,28.22601v-56.45203z" fill="#635463"/></g><g><path d="M1113.33333,-29.43817l48.88889,-28.22601l48.88889,28.22601v56.45203l-48.88889,28.22601l-48.88889,-28.22601z" fill="#c2afc2"/><path d="M1113.33333,-29.43817l48.88889,-28.22601l48.88889,28.22601l-48.88889,28.22601z" fill="#ffffff"/><path d="M1211.11111,-29.43817v56.45203l-48.88889,28.22601v-56.45203z" fill="#615761"/></g><g><path d="M-11.11111,55.23987l48.88889,-28.22601l48.88889,28.22601v56.45203l-48.88889,28.22601l-48.88889,-28.22601z" fill="#b858c3"/><path d="M-11.11111,55.23987l48.88889,-28.22601l48.88889,28.22601l-48.88889,28.22601z" fill="#ff84ff"/><path d="M86.66667,55.23987v56.45203l-48.88889,28.22601v-56.45203z" fill="#5c2c62"/></g><g><path d="M86.66667,55.23987l48.88889,-28.22601l48.88889,28.22601v56.45203l-48.88889,28.22601l-48.88889,-28.22601z" fill="#d376dc"/><path d="M86.66667,55.23987l48.88889,-28.22601l48.88889,28.22601l-48.88889,28.22601z" fill="#ffb2ff"/><path d="M184.44444,55.23987v56.45203l-48.88889,28.22601v-56.45203z" fill="#6a3b6e"/></g><g><path d="M184.44444,55.23987l48.88889,-28.22601l48.88889,28.22601v56.45203l-48.88889,28.22601l-48.88889,-28.22601z" fill="#e258e5"/><path d="M184.44444,55.23987l48.88889,-28.22601l48.88889,28.22601l-48.88889,28.22601z" fill="#ff85ff"/><path d="M282.22222,55.23987v56.45203l-48.88889,28.22601v-56.45203z" fill="#712c72"/></g><g><path d="M282.22222,55.23987l48.88889,-28.22601l48.88889,28.22601v56.45203l-48.88889,28.22601l-48.88889,-28.22601z" fill="#e45ce8"/><path d="M282.22222,55.23987l48.88889,-28.22601l48.88889,28.22601l-48.88889,28.22601z" fill="#ff8aff"/><path d="M380,55.23987v56.45203l-48.88889,28.22601v-56.45203z" fill="#722e74"/></g><g><path d="M380,55.23987l48.88889,-28.22601l48.88889,28.22601v56.45203l-48.88889,28.22601l-48.88889,-28.22601z" fill="#df62df"/><path d="M380,55.23987l48.88889,-28.22601l48.88889,28.22601l-48.88889,28.22601z" fill="#ff93ff"/><path d="M477.77778,55.23987v56.45203l-48.88889,28.22601v-56.45203z" fill="#703170"/></g><g><path d="M477.77778,55.23987l48.88889,-28.22601l48.88889,28.22601v56.45203l-48.88889,28.22601l-48.88889,-28.22601z" fill="#e35fe3"/><path d="M477.77778,55.23987l48.88889,-28.22601l48.88889,28.22601l-48.88889,28.22601z" fill="#ff8fff"/><path d="M575.55556,55.23987v56.45203l-48.88889,28.22601v-56.45203z" fill="#723072"/></g><g><path d="M575.55556,55.23987l48.88889,-28.22601l48.88889,28.22601v56.45203l-48.88889,28.22601l-48.88889,-28.22601z" fill="#e063e0"/><path d="M575.55556,55.23987l48.88889,-28.22601l48.88889,28.22601l-48.88889,28.22601z" fill="#ff94ff"/><path d="M673.33333,55.23987v56.45203l-48.88889,28.22601v-56.45203z" fill="#703170"/></g><g><path d="M673.33333,55.23987l48.88889,-28.22601l48.88889,28.22601v56.45203l-48.88889,28.22601l-48.88889,-28.22601z" fill="#d479d4"/><path d="M673.33333,55.23987l48.88889,-28.22601l48.88889,28.22601l-48.88889,28.22601z" fill="#ffb5ff"/><path d="M771.11111,55.23987v56.45203l-48.88889,28.22601v-56.45203z" fill="#6a3c6a"/></g><g><path d="M771.11111,55.23987l48.88889,-28.22601l48.88889,28.22601v56.45203l-48.88889,28.22601l-48.88889,-28.22601z" fill="#df54e5"/><path d="M771.11111,55.23987l48.88889,-28.22601l48.88889,28.22601l-48.88889,28.22601z" fill="#ff7fff"/><path d="M868.88889,55.23987v56.45203l-48.88889,28.22601v-56.45203z" fill="#702a72"/></g><g><path d="M868.88889,55.23987l48.88889,-28.22601l48.88889,28.22601v56.45203l-48.88889,28.22601l-48.88889,-28.22601z" fill="#e358e3"/><path d="M868.88889,55.23987l48.88889,-28.22601l48.88889,28.22601l-48.88889,28.22601z" fill="#ff84ff"/><path d="M966.66667,55.23987v56.45203l-48.88889,28.22601v-56.45203z" fill="#712c71"/></g><g><path d="M966.66667,55.23987l48.88889,-28.22601l48.88889,28.22601v56.45203l-48.88889,28.22601l-48.88889,-28.22601z" fill="#df61df"/><path d="M966.66667,55.23987l48.88889,-28.22601l48.88889,28.22601l-48.88889,28.22601z" fill="#ff91ff"/><path d="M1064.44444,55.23987v56.45203l-48.88889,28.22601v-56.45203z" fill="#6f306f"/></g><g><path d="M1064.44444,55.23987l48.88889,-28.22601l48.88889,28.22601v56.45203l-48.88889,28.22601l-48.88889,-28.22601z" fill="#d375d3"/><path d="M1064.44444,55.23987l48.88889,-28.22601l48.88889,28.22601l-48.88889,28.22601z" fill="#ffb0ff"/><path d="M1162.22222,55.23987v56.45203l-48.88889,28.22601v-56.45203z" fill="#6a3b6a"/></g><g><path d="M1162.22222,55.23987l48.88889,-28.22601l48.88889,28.22601v56.45203l-48.88889,28.22601l-48.88889,-28.22601z" fill="#de5ade"/><path d="M1162.22222,55.23987l48.88889,-28.22601l48.88889,28.22601l-48.88889,28.22601z" fill="#ff87ff"/><path d="M1260,55.23987v56.45203l-48.88889,28.22601v-56.45203z" fill="#6f2d6f"/></g><g><path d="M-60,139.91791l48.88889,-28.22601l48.88889,28.22601v56.45203l-48.88889,28.22601l-48.88889,-28.22601z" fill="#694c82"/><path d="M-60,139.91791l48.88889,-28.22601l48.88889,28.22601l-48.88889,28.22601z" fill="#9d72c3"/><path d="M37.77778,139.91791v56.45203l-48.88889,28.22601v-56.45203z" fill="#342641"/></g><g><path d="M37.77778,139.91791l48.88889,-28.22601l48.88889,28.22601v56.45203l-48.88889,28.22601l-48.88889,-28.22601z" fill="#a791ec"/><path d="M37.77778,139.91791l48.88889,-28.22601l48.88889,28.22601l-48.88889,28.22601z" fill="#fbdaff"/><path d="M135.55556,139.91791v56.45203l-48.88889,28.22601v-56.45203z" fill="#544976"/></g><g><path d="M135.55556,139.91791l48.88889,-28.22601l48.88889,28.22601v56.45203l-48.88889,28.22601l-48.88889,-28.22601z" fill="#9f91eb"/><path d="M135.55556,139.91791l48.88889,-28.22601l48.88889,28.22601l-48.88889,28.22601z" fill="#eed9ff"/><path d="M233.33333,139.91791v56.45203l-48.88889,28.22601v-56.45203z" fill="#4f4875"/></g><g><path d="M233.33333,139.91791l48.88889,-28.22601l48.88889,28.22601v56.45203l-48.88889,28.22601l-48.88889,-28.22601z" fill="#81aaf3"/><path d="M233.33333,139.91791l48.88889,-28.22601l48.88889,28.22601l-48.88889,28.22601z" fill="#c2ffff"/><path d="M331.11111,139.91791v56.45203l-48.88889,28.22601v-56.45203z" fill="#41557a"/></g><g><path d="M331.11111,139.91791l48.88889,-28.22601l48.88889,28.22601v56.45203l-48.88889,28.22601l-48.88889,-28.22601z" fill="#b47be8"/><path d="M331.11111,139.91791l48.88889,-28.22601l48.88889,28.22601l-48.88889,28.22601z" fill="#ffb8ff"/><path d="M428.88889,139.91791v56.45203l-48.88889,28.22601v-56.45203z" fill="#5a3d74"/></g><g><path d="M428.88889,139.91791l48.88889,-28.22601l48.88889,28.22601v56.45203l-48.88889,28.22601l-48.88889,-28.22601z" fill="#b778e8"/><path d="M428.88889,139.91791l48.88889,-28.22601l48.88889,28.22601l-48.88889,28.22601z" fill="#ffb4ff"/><path d="M526.66667,139.91791v56.45203l-48.88889,28.22601v-56.45203z" fill="#5c3c74"/></g><g><path d="M526.66667,139.91791l48.88889,-28.22601l48.88889,28.22601v56.45203l-48.88889,28.22601l-48.88889,-28.22601z" fill="#bd74e5"/><path d="M526.66667,139.91791l48.88889,-28.22601l48.88889,28.22601l-48.88889,28.22601z" fill="#ffaeff"/><path d="M624.44444,139.91791v56.45203l-48.88889,28.22601v-56.45203z" fill="#5e3a73"/></g><g><path d="M624.44444,139.91791l48.88889,-28.22601l48.88889,28.22601v56.45203l-48.88889,28.22601l-48.88889,-28.22601z" fill="#b27de7"/><path d="M624.44444,139.91791l48.88889,-28.22601l48.88889,28.22601l-48.88889,28.22601z" fill="#ffbcff"/><path d="M722.22222,139.91791v56.45203l-48.88889,28.22601v-56.45203z" fill="#593f73"/></g><g><path d="M722.22222,139.91791l48.88889,-28.22601l48.88889,28.22601v56.45203l-48.88889,28.22601l-48.88889,-28.22601z" fill="#d06dd9"/><path d="M722.22222,139.91791l48.88889,-28.22601l48.88889,28.22601l-48.88889,28.22601z" fill="#ffa3ff"/><path d="M820,139.91791v56.45203l-48.88889,28.22601v-56.45203z" fill="#68366c"/></g><g><path d="M820,139.91791l48.88889,-28.22601l48.88889,28.22601v56.45203l-48.88889,28.22601l-48.88889,-28.22601z" fill="#b770ec"/><path d="M820,139.91791l48.88889,-28.22601l48.88889,28.22601l-48.88889,28.22601z" fill="#ffa8ff"/><path d="M917.77778,139.91791v56.45203l-48.88889,28.22601v-56.45203z" fill="#5c3876"/></g><g><path d="M917.77778,139.91791l48.88889,-28.22601l48.88889,28.22601v56.45203l-48.88889,28.22601l-48.88889,-28.22601z" fill="#c06de9"/><path d="M917.77778,139.91791l48.88889,-28.22601l48.88889,28.22601l-48.88889,28.22601z" fill="#ffa4ff"/><path d="M1015.55556,139.91791v56.45203l-48.88889,28.22601v-56.45203z" fill="#603774"/></g><g><path d="M1015.55556,139.91791l48.88889,-28.22601l48.88889,28.22601v56.45203l-48.88889,28.22601l-48.88889,-28.22601z" fill="#d56bd5"/><path d="M1015.55556,139.91791l48.88889,-28.22601l48.88889,28.22601l-48.88889,28.22601z" fill="#ffa0ff"/><path d="M1113.33333,139.91791v56.45203l-48.88889,28.22601v-56.45203z" fill="#6b356b"/></g><g><path d="M1113.33333,139.91791l48.88889,-28.22601l48.88889,28.22601v56.45203l-48.88889,28.22601l-48.88889,-28.22601z" fill="#c67fc6"/><path d="M1113.33333,139.91791l48.88889,-28.22601l48.88889,28.22601l-48.88889,28.22601z" fill="#ffbfff"/><path d="M1211.11111,139.91791v56.45203l-48.88889,28.22601v-56.45203z" fill="#634063"/></g><g><path d="M-11.11111,224.59595l48.88889,-28.22601l48.88889,28.22601v56.45203l-48.88889,28.22601l-48.88889,-28.22601z" fill="#8a75ca"/><path d="M-11.11111,224.59595l48.88889,-28.22601l48.88889,28.22601l-48.88889,28.22601z" fill="#cfafff"/><path d="M86.66667,224.59595v56.45203l-48.88889,28.22601v-56.45203z" fill="#453a65"/></g><g><path d="M86.66667,224.59595l48.88889,-28.22601l48.88889,28.22601v56.45203l-48.88889,28.22601l-48.88889,-28.22601z" fill="#9893f0"/><path d="M86.66667,224.59595l48.88889,-28.22601l48.88889,28.22601l-48.88889,28.22601z" fill="#e4dcff"/><path d="M184.44444,224.59595v56.45203l-48.88889,28.22601v-56.45203z" fill="#4c4978"/></g><g><path d="M184.44444,224.59595l48.88889,-28.22601l48.88889,28.22601v56.45203l-48.88889,28.22601l-48.88889,-28.22601z" fill="#87a1ef"/><path d="M184.44444,224.59595l48.88889,-28.22601l48.88889,28.22601l-48.88889,28.22601z" fill="#cbf2ff"/><path d="M282.22222,224.59595v56.45203l-48.88889,28.22601v-56.45203z" fill="#445178"/></g><g><path d="M282.22222,224.59595l48.88889,-28.22601l48.88889,28.22601v56.45203l-48.88889,28.22601l-48.88889,-28.22601z" fill="#8e9be2"/><path d="M282.22222,224.59595l48.88889,-28.22601l48.88889,28.22601l-48.88889,28.22601z" fill="#d5e8ff"/><path d="M380,224.59595v56.45203l-48.88889,28.22601v-56.45203z" fill="#474d71"/></g><g><path d="M380,224.59595l48.88889,-28.22601l48.88889,28.22601v56.45203l-48.88889,28.22601l-48.88889,-28.22601z" fill="#68b2ea"/><path d="M380,224.59595l48.88889,-28.22601l48.88889,28.22601l-48.88889,28.22601z" fill="#9cffff"/><path d="M477.77778,224.59595v56.45203l-48.88889,28.22601v-56.45203z" fill="#345975"/></g><g><path d="M477.77778,224.59595l48.88889,-28.22601l48.88889,28.22601v56.45203l-48.88889,28.22601l-48.88889,-28.22601z" fill="#8993e4"/><path d="M477.77778,224.59595l48.88889,-28.22601l48.88889,28.22601l-48.88889,28.22601z" fill="#cedcff"/><path d="M575.55556,224.59595v56.45203l-48.88889,28.22601v-56.45203z" fill="#454972"/></g><g><path d="M575.55556,224.59595l48.88889,-28.22601l48.88889,28.22601v56.45203l-48.88889,28.22601l-48.88889,-28.22601z" fill="#9091e0"/><path d="M575.55556,224.59595l48.88889,-28.22601l48.88889,28.22601l-48.88889,28.22601z" fill="#d8d9ff"/><path d="M673.33333,224.59595v56.45203l-48.88889,28.22601v-56.45203z" fill="#484870"/></g><g><path d="M673.33333,224.59595l48.88889,-28.22601l48.88889,28.22601v56.45203l-48.88889,28.22601l-48.88889,-28.22601z" fill="#9192d9"/><path d="M673.33333,224.59595l48.88889,-28.22601l48.88889,28.22601l-48.88889,28.22601z" fill="#dadbff"/><path d="M771.11111,224.59595v56.45203l-48.88889,28.22601v-56.45203z" fill="#49496c"/></g><g><path d="M771.11111,224.59595l48.88889,-28.22601l48.88889,28.22601v56.45203l-48.88889,28.22601l-48.88889,-28.22601z" fill="#8d95dc"/><path d="M771.11111,224.59595l48.88889,-28.22601l48.88889,28.22601l-48.88889,28.22601z" fill="#d4dfff"/><path d="M868.88889,224.59595v56.45203l-48.88889,28.22601v-56.45203z" fill="#474a6e"/></g><g><path d="M868.88889,224.59595l48.88889,-28.22601l48.88889,28.22601v56.45203l-48.88889,28.22601l-48.88889,-28.22601z" fill="#8b98de"/><path d="M868.88889,224.59595l48.88889,-28.22601l48.88889,28.22601l-48.88889,28.22601z" fill="#d0e4ff"/><path d="M966.66667,224.59595v56.45203l-48.88889,28.22601v-56.45203z" fill="#454c6f"/></g><g><path d="M966.66667,224.59595l48.88889,-28.22601l48.88889,28.22601v56.45203l-48.88889,28.22601l-48.88889,-28.22601z" fill="#c271cc"/><path d="M966.66667,224.59595l48.88889,-28.22601l48.88889,28.22601l-48.88889,28.22601z" fill="#ffaaff"/><path d="M1064.44444,224.59595v56.45203l-48.88889,28.22601v-56.45203z" fill="#613966"/></g><g><path d="M1064.44444,224.59595l48.88889,-28.22601l48.88889,28.22601v56.45203l-48.88889,28.22601l-48.88889,-28.22601z" fill="#c478c8"/><path d="M1064.44444,224.59595l48.88889,-28.22601l48.88889,28.22601l-48.88889,28.22601z" fill="#ffb4ff"/><path d="M1162.22222,224.59595v56.45203l-48.88889,28.22601v-56.45203z" fill="#623c64"/></g><g><path d="M1162.22222,224.59595l48.88889,-28.22601l48.88889,28.22601v56.45203l-48.88889,28.22601l-48.88889,-28.22601z" fill="#c38edb"/><path d="M1162.22222,224.59595l48.88889,-28.22601l48.88889,28.22601l-48.88889,28.22601z" fill="#ffd4ff"/><path d="M1260,224.59595v56.45203l-48.88889,28.22601v-56.45203z" fill="#61476e"/></g><g><path d="M-60,309.27399l48.88889,-28.22601l48.88889,28.22601v56.45203l-48.88889,28.22601l-48.88889,-28.22601z" fill="#36686e"/><path d="M-60,309.27399l48.88889,-28.22601l48.88889,28.22601l-48.88889,28.22601z" fill="#519ca6"/><path d="M37.77778,309.27399v56.45203l-48.88889,28.22601v-56.45203z" fill="#1b3437"/></g><g><path d="M37.77778,309.27399l48.88889,-28.22601l48.88889,28.22601v56.45203l-48.88889,28.22601l-48.88889,-28.22601z" fill="#64bdef"/><path d="M37.77778,309.27399l48.88889,-28.22601l48.88889,28.22601l-48.88889,28.22601z" fill="#97ffff"/><path d="M135.55556,309.27399v56.45203l-48.88889,28.22601v-56.45203z" fill="#325f78"/></g><g><path d="M135.55556,309.27399l48.88889,-28.22601l48.88889,28.22601v56.45203l-48.88889,28.22601l-48.88889,-28.22601z" fill="#60c8f2"/><path d="M135.55556,309.27399l48.88889,-28.22601l48.88889,28.22601l-48.88889,28.22601z" fill="#91ffff"/><path d="M233.33333,309.27399v56.45203l-48.88889,28.22601v-56.45203z" fill="#306479"/></g><g><path d="M233.33333,309.27399l48.88889,-28.22601l48.88889,28.22601v56.45203l-48.88889,28.22601l-48.88889,-28.22601z" fill="#6dc6fc"/><path d="M233.33333,309.27399l48.88889,-28.22601l48.88889,28.22601l-48.88889,28.22601z" fill="#a4ffff"/><path d="M331.11111,309.27399v56.45203l-48.88889,28.22601v-56.45203z" fill="#37637e"/></g><g><path d="M331.11111,309.27399l48.88889,-28.22601l48.88889,28.22601v56.45203l-48.88889,28.22601l-48.88889,-28.22601z" fill="#6ab7e0"/><path d="M331.11111,309.27399l48.88889,-28.22601l48.88889,28.22601l-48.88889,28.22601z" fill="#9fffff"/><path d="M428.88889,309.27399v56.45203l-48.88889,28.22601v-56.45203z" fill="#355c70"/></g><g><path d="M428.88889,309.27399l48.88889,-28.22601l48.88889,28.22601v56.45203l-48.88889,28.22601l-48.88889,-28.22601z" fill="#53d0f5"/><path d="M428.88889,309.27399l48.88889,-28.22601l48.88889,28.22601l-48.88889,28.22601z" fill="#7cffff"/><path d="M526.66667,309.27399v56.45203l-48.88889,28.22601v-56.45203z" fill="#29687b"/></g><g><path d="M526.66667,309.27399l48.88889,-28.22601l48.88889,28.22601v56.45203l-48.88889,28.22601l-48.88889,-28.22601z" fill="#5cb7dd"/><path d="M526.66667,309.27399l48.88889,-28.22601l48.88889,28.22601l-48.88889,28.22601z" fill="#8affff"/><path d="M624.44444,309.27399v56.45203l-48.88889,28.22601v-56.45203z" fill="#2e5b6e"/></g><g><path d="M624.44444,309.27399l48.88889,-28.22601l48.88889,28.22601v56.45203l-48.88889,28.22601l-48.88889,-28.22601z" fill="#6fa8d6"/><path d="M624.44444,309.27399l48.88889,-28.22601l48.88889,28.22601l-48.88889,28.22601z" fill="#a6fbff"/><path d="M722.22222,309.27399v56.45203l-48.88889,28.22601v-56.45203z" fill="#37546b"/></g><g><path d="M722.22222,309.27399l48.88889,-28.22601l48.88889,28.22601v56.45203l-48.88889,28.22601l-48.88889,-28.22601z" fill="#77a6d1"/><path d="M722.22222,309.27399l48.88889,-28.22601l48.88889,28.22601l-48.88889,28.22601z" fill="#b2f9ff"/><path d="M820,309.27399v56.45203l-48.88889,28.22601v-56.45203z" fill="#3b5368"/></g><g><path d="M820,309.27399l48.88889,-28.22601l48.88889,28.22601v56.45203l-48.88889,28.22601l-48.88889,-28.22601z" fill="#59b9df"/><path d="M820,309.27399l48.88889,-28.22601l48.88889,28.22601l-48.88889,28.22601z" fill="#86ffff"/><path d="M917.77778,309.27399v56.45203l-48.88889,28.22601v-56.45203z" fill="#2d5c6f"/></g><g><path d="M917.77778,309.27399l48.88889,-28.22601l48.88889,28.22601v56.45203l-48.88889,28.22601l-48.88889,-28.22601z" fill="#64caef"/><path d="M917.77778,309.27399l48.88889,-28.22601l48.88889,28.22601l-48.88889,28.22601z" fill="#96ffff"/><path d="M1015.55556,309.27399v56.45203l-48.88889,28.22601v-56.45203z" fill="#326578"/></g><g><path d="M1015.55556,309.27399l48.88889,-28.22601l48.88889,28.22601v56.45203l-48.88889,28.22601l-48.88889,-28.22601z" fill="#a98fc3"/><path d="M1015.55556,309.27399l48.88889,-28.22601l48.88889,28.22601l-48.88889,28.22601z" fill="#fed6ff"/><path d="M1113.33333,309.27399v56.45203l-48.88889,28.22601v-56.45203z" fill="#554761"/></g><g><path d="M1113.33333,309.27399l48.88889,-28.22601l48.88889,28.22601v56.45203l-48.88889,28.22601l-48.88889,-28.22601z" fill="#a1a6da"/><path d="M1113.33333,309.27399l48.88889,-28.22601l48.88889,28.22601l-48.88889,28.22601z" fill="#f2faff"/><path d="M1211.11111,309.27399v56.45203l-48.88889,28.22601v-56.45203z" fill="#51536d"/></g><g><path d="M-11.11111,393.95203l48.88889,-28.22601l48.88889,28.22601v56.45203l-48.88889,28.22601l-48.88889,-28.22601z" fill="#90609c"/><path d="M-11.11111,393.95203l48.88889,-28.22601l48.88889,28.22601l-48.88889,28.22601z" fill="#d890ea"/><path d="M86.66667,393.95203v56.45203l-48.88889,28.22601v-56.45203z" fill="#48304e"/></g><g><path d="M86.66667,393.95203l48.88889,-28.22601l48.88889,28.22601v56.45203l-48.88889,28.22601l-48.88889,-28.22601z" fill="#9faefe"/><path d="M86.66667,393.95203l48.88889,-28.22601l48.88889,28.22601l-48.88889,28.22601z" fill="#efffff"/><path d="M184.44444,393.95203v56.45203l-48.88889,28.22601v-56.45203z" fill="#50577f"/></g><g><path d="M184.44444,393.95203l48.88889,-28.22601l48.88889,28.22601v56.45203l-48.88889,28.22601l-48.88889,-28.22601z" fill="#9fabf5"/><path d="M184.44444,393.95203l48.88889,-28.22601l48.88889,28.22601l-48.88889,28.22601z" fill="#efffff"/><path d="M282.22222,393.95203v56.45203l-48.88889,28.22601v-56.45203z" fill="#50557b"/></g><g><path d="M282.22222,393.95203l48.88889,-28.22601l48.88889,28.22601v56.45203l-48.88889,28.22601l-48.88889,-28.22601z" fill="#a69dec"/><path d="M282.22222,393.95203l48.88889,-28.22601l48.88889,28.22601l-48.88889,28.22601z" fill="#f9ebff"/><path d="M380,393.95203v56.45203l-48.88889,28.22601v-56.45203z" fill="#534e76"/></g><g><path d="M380,393.95203l48.88889,-28.22601l48.88889,28.22601v56.45203l-48.88889,28.22601l-48.88889,-28.22601z" fill="#9bbaff"/><path d="M380,393.95203l48.88889,-28.22601l48.88889,28.22601l-48.88889,28.22601z" fill="#e9ffff"/><path d="M477.77778,393.95203v56.45203l-48.88889,28.22601v-56.45203z" fill="#4e5d80"/></g><g><path d="M477.77778,393.95203l48.88889,-28.22601l48.88889,28.22601v56.45203l-48.88889,28.22601l-48.88889,-28.22601z" fill="#a198db"/><path d="M477.77778,393.95203l48.88889,-28.22601l48.88889,28.22601l-48.88889,28.22601z" fill="#f1e4ff"/><path d="M575.55556,393.95203v56.45203l-48.88889,28.22601v-56.45203z" fill="#504c6d"/></g><g><path d="M575.55556,393.95203l48.88889,-28.22601l48.88889,28.22601v56.45203l-48.88889,28.22601l-48.88889,-28.22601z" fill="#9db8ff"/><path d="M575.55556,393.95203l48.88889,-28.22601l48.88889,28.22601l-48.88889,28.22601z" fill="#ebffff"/><path d="M673.33333,393.95203v56.45203l-48.88889,28.22601v-56.45203z" fill="#4e5c80"/></g><g><path d="M673.33333,393.95203l48.88889,-28.22601l48.88889,28.22601v56.45203l-48.88889,28.22601l-48.88889,-28.22601z" fill="#a1b2ff"/><path d="M673.33333,393.95203l48.88889,-28.22601l48.88889,28.22601l-48.88889,28.22601z" fill="#f2ffff"/><path d="M771.11111,393.95203v56.45203l-48.88889,28.22601v-56.45203z" fill="#51597f"/></g><g><path d="M771.11111,393.95203l48.88889,-28.22601l48.88889,28.22601v56.45203l-48.88889,28.22601l-48.88889,-28.22601z" fill="#a298e2"/><path d="M771.11111,393.95203l48.88889,-28.22601l48.88889,28.22601l-48.88889,28.22601z" fill="#f4e4ff"/><path d="M868.88889,393.95203v56.45203l-48.88889,28.22601v-56.45203z" fill="#514c71"/></g><g><path d="M868.88889,393.95203l48.88889,-28.22601l48.88889,28.22601v56.45203l-48.88889,28.22601l-48.88889,-28.22601z" fill="#a1b0f8"/><path d="M868.88889,393.95203l48.88889,-28.22601l48.88889,28.22601l-48.88889,28.22601z" fill="#f1ffff"/><path d="M966.66667,393.95203v56.45203l-48.88889,28.22601v-56.45203z" fill="#50587c"/></g><g><path d="M966.66667,393.95203l48.88889,-28.22601l48.88889,28.22601v56.45203l-48.88889,28.22601l-48.88889,-28.22601z" fill="#a0b6ff"/><path d="M966.66667,393.95203l48.88889,-28.22601l48.88889,28.22601l-48.88889,28.22601z" fill="#f0ffff"/><path d="M1064.44444,393.95203v56.45203l-48.88889,28.22601v-56.45203z" fill="#505b80"/></g><g><path d="M1064.44444,393.95203l48.88889,-28.22601l48.88889,28.22601v56.45203l-48.88889,28.22601l-48.88889,-28.22601z" fill="#9aaee9"/><path d="M1064.44444,393.95203l48.88889,-28.22601l48.88889,28.22601l-48.88889,28.22601z" fill="#e6ffff"/><path d="M1162.22222,393.95203v56.45203l-48.88889,28.22601v-56.45203z" fill="#4d5775"/></g><g><path d="M1162.22222,393.95203l48.88889,-28.22601l48.88889,28.22601v56.45203l-48.88889,28.22601l-48.88889,-28.22601z" fill="#8fc7ff"/><path d="M1162.22222,393.95203l48.88889,-28.22601l48.88889,28.22601l-48.88889,28.22601z" fill="#d7ffff"/><path d="M1260,393.95203v56.45203l-48.88889,28.22601v-56.45203z" fill="#486480"/></g><g><path d="M-60,478.63007l48.88889,-28.22601l48.88889,28.22601v56.45203l-48.88889,28.22601l-48.88889,-28.22601z" fill="#632d63"/><path d="M-60,478.63007l48.88889,-28.22601l48.88889,28.22601l-48.88889,28.22601z" fill="#954395"/><path d="M37.77778,478.63007v56.45203l-48.88889,28.22601v-56.45203z" fill="#321632"/></g><g><path d="M37.77778,478.63007l48.88889,-28.22601l48.88889,28.22601v56.45203l-48.88889,28.22601l-48.88889,-28.22601z" fill="#af7ee9"/><path d="M37.77778,478.63007l48.88889,-28.22601l48.88889,28.22601l-48.88889,28.22601z" fill="#ffbcff"/><path d="M135.55556,478.63007v56.45203l-48.88889,28.22601v-56.45203z" fill="#583f75"/></g><g><path d="M135.55556,478.63007l48.88889,-28.22601l48.88889,28.22601v56.45203l-48.88889,28.22601l-48.88889,-28.22601z" fill="#a892f4"/><path d="M135.55556,478.63007l48.88889,-28.22601l48.88889,28.22601l-48.88889,28.22601z" fill="#fcdbff"/><path d="M233.33333,478.63007v56.45203l-48.88889,28.22601v-56.45203z" fill="#54497a"/></g><g><path d="M233.33333,478.63007l48.88889,-28.22601l48.88889,28.22601v56.45203l-48.88889,28.22601l-48.88889,-28.22601z" fill="#ac83e9"/><path d="M233.33333,478.63007l48.88889,-28.22601l48.88889,28.22601l-48.88889,28.22601z" fill="#ffc4ff"/><path d="M331.11111,478.63007v56.45203l-48.88889,28.22601v-56.45203z" fill="#564175"/></g><g><path d="M331.11111,478.63007l48.88889,-28.22601l48.88889,28.22601v56.45203l-48.88889,28.22601l-48.88889,-28.22601z" fill="#a695fe"/><path d="M331.11111,478.63007l48.88889,-28.22601l48.88889,28.22601l-48.88889,28.22601z" fill="#f9dfff"/><path d="M428.88889,478.63007v56.45203l-48.88889,28.22601v-56.45203z" fill="#534a7f"/></g><g><path d="M428.88889,478.63007l48.88889,-28.22601l48.88889,28.22601v56.45203l-48.88889,28.22601l-48.88889,-28.22601z" fill="#b17dea"/><path d="M428.88889,478.63007l48.88889,-28.22601l48.88889,28.22601l-48.88889,28.22601z" fill="#ffbcff"/><path d="M526.66667,478.63007v56.45203l-48.88889,28.22601v-56.45203z" fill="#583f75"/></g><g><path d="M526.66667,478.63007l48.88889,-28.22601l48.88889,28.22601v56.45203l-48.88889,28.22601l-48.88889,-28.22601z" fill="#b275dd"/><path d="M526.66667,478.63007l48.88889,-28.22601l48.88889,28.22601l-48.88889,28.22601z" fill="#ffb0ff"/><path d="M624.44444,478.63007v56.45203l-48.88889,28.22601v-56.45203z" fill="#593b6f"/></g><g><path d="M624.44444,478.63007l48.88889,-28.22601l48.88889,28.22601v56.45203l-48.88889,28.22601l-48.88889,-28.22601z" fill="#a49aff"/><path d="M624.44444,478.63007l48.88889,-28.22601l48.88889,28.22601l-48.88889,28.22601z" fill="#f7e7ff"/><path d="M722.22222,478.63007v56.45203l-48.88889,28.22601v-56.45203z" fill="#524d7f"/></g><g><path d="M722.22222,478.63007l48.88889,-28.22601l48.88889,28.22601v56.45203l-48.88889,28.22601l-48.88889,-28.22601z" fill="#a991f6"/><path d="M722.22222,478.63007l48.88889,-28.22601l48.88889,28.22601l-48.88889,28.22601z" fill="#fddaff"/><path d="M820,478.63007v56.45203l-48.88889,28.22601v-56.45203z" fill="#54497b"/></g><g><path d="M820,478.63007l48.88889,-28.22601l48.88889,28.22601v56.45203l-48.88889,28.22601l-48.88889,-28.22601z" fill="#ab8cf1"/><path d="M820,478.63007l48.88889,-28.22601l48.88889,28.22601l-48.88889,28.22601z" fill="#ffd3ff"/><path d="M917.77778,478.63007v56.45203l-48.88889,28.22601v-56.45203z" fill="#554678"/></g><g><path d="M917.77778,478.63007l48.88889,-28.22601l48.88889,28.22601v56.45203l-48.88889,28.22601l-48.88889,-28.22601z" fill="#a59aff"/><path d="M917.77778,478.63007l48.88889,-28.22601l48.88889,28.22601l-48.88889,28.22601z" fill="#f7e7ff"/><path d="M1015.55556,478.63007v56.45203l-48.88889,28.22601v-56.45203z" fill="#524d7f"/></g><g><path d="M1015.55556,478.63007l48.88889,-28.22601l48.88889,28.22601v56.45203l-48.88889,28.22601l-48.88889,-28.22601z" fill="#a898fa"/><path d="M1015.55556,478.63007l48.88889,-28.22601l48.88889,28.22601l-48.88889,28.22601z" fill="#fce5ff"/><path d="M1113.33333,478.63007v56.45203l-48.88889,28.22601v-56.45203z" fill="#544c7d"/></g><g><path d="M1113.33333,478.63007l48.88889,-28.22601l48.88889,28.22601v56.45203l-48.88889,28.22601l-48.88889,-28.22601z" fill="#80badb"/><path d="M1113.33333,478.63007l48.88889,-28.22601l48.88889,28.22601l-48.88889,28.22601z" fill="#c0ffff"/><path d="M1211.11111,478.63007v56.45203l-48.88889,28.22601v-56.45203z" fill="#405d6d"/></g><g><path d="M-11.11111,563.30811l48.88889,-28.22601l48.88889,28.22601v56.45203l-48.88889,28.22601l-48.88889,-28.22601z" fill="#8c58b5"/><path d="M-11.11111,563.30811l48.88889,-28.22601l48.88889,28.22601l-48.88889,28.22601z" fill="#d284ff"/><path d="M86.66667,563.30811v56.45203l-48.88889,28.22601v-56.45203z" fill="#462c5a"/></g><g><path d="M86.66667,563.30811l48.88889,-28.22601l48.88889,28.22601v56.45203l-48.88889,28.22601l-48.88889,-28.22601z" fill="#bc5fe4"/><path d="M86.66667,563.30811l48.88889,-28.22601l48.88889,28.22601l-48.88889,28.22601z" fill="#ff8fff"/><path d="M184.44444,563.30811v56.45203l-48.88889,28.22601v-56.45203z" fill="#5e3072"/></g><g><path d="M184.44444,563.30811l48.88889,-28.22601l48.88889,28.22601v56.45203l-48.88889,28.22601l-48.88889,-28.22601z" fill="#9785e3"/><path d="M184.44444,563.30811l48.88889,-28.22601l48.88889,28.22601l-48.88889,28.22601z" fill="#e3c7ff"/><path d="M282.22222,563.30811v56.45203l-48.88889,28.22601v-56.45203z" fill="#4c4271"/></g><g><path d="M282.22222,563.30811l48.88889,-28.22601l48.88889,28.22601v56.45203l-48.88889,28.22601l-48.88889,-28.22601z" fill="#68abec"/><path d="M282.22222,563.30811l48.88889,-28.22601l48.88889,28.22601l-48.88889,28.22601z" fill="#9dffff"/><path d="M380,563.30811v56.45203l-48.88889,28.22601v-56.45203z" fill="#345676"/></g><g><path d="M380,563.30811l48.88889,-28.22601l48.88889,28.22601v56.45203l-48.88889,28.22601l-48.88889,-28.22601z" fill="#6eb9ff"/><path d="M380,563.30811l48.88889,-28.22601l48.88889,28.22601l-48.88889,28.22601z" fill="#a5ffff"/><path d="M477.77778,563.30811v56.45203l-48.88889,28.22601v-56.45203z" fill="#375c7f"/></g><g><path d="M477.77778,563.30811l48.88889,-28.22601l48.88889,28.22601v56.45203l-48.88889,28.22601l-48.88889,-28.22601z" fill="#b567e0"/><path d="M477.77778,563.30811l48.88889,-28.22601l48.88889,28.22601l-48.88889,28.22601z" fill="#ff9bff"/><path d="M575.55556,563.30811v56.45203l-48.88889,28.22601v-56.45203z" fill="#5a3470"/></g><g><path d="M575.55556,563.30811l48.88889,-28.22601l48.88889,28.22601v56.45203l-48.88889,28.22601l-48.88889,-28.22601z" fill="#a591ff"/><path d="M575.55556,563.30811l48.88889,-28.22601l48.88889,28.22601l-48.88889,28.22601z" fill="#f8d9ff"/><path d="M673.33333,563.30811v56.45203l-48.88889,28.22601v-56.45203z" fill="#53487f"/></g><g><path d="M673.33333,563.30811l48.88889,-28.22601l48.88889,28.22601v56.45203l-48.88889,28.22601l-48.88889,-28.22601z" fill="#8da3fd"/><path d="M673.33333,563.30811l48.88889,-28.22601l48.88889,28.22601l-48.88889,28.22601z" fill="#d3f4ff"/><path d="M771.11111,563.30811v56.45203l-48.88889,28.22601v-56.45203z" fill="#46517e"/></g><g><path d="M771.11111,563.30811l48.88889,-28.22601l48.88889,28.22601v56.45203l-48.88889,28.22601l-48.88889,-28.22601z" fill="#a677e1"/><path d="M771.11111,563.30811l48.88889,-28.22601l48.88889,28.22601l-48.88889,28.22601z" fill="#f9b2ff"/><path d="M868.88889,563.30811v56.45203l-48.88889,28.22601v-56.45203z" fill="#533b70"/></g><g><path d="M868.88889,563.30811l48.88889,-28.22601l48.88889,28.22601v56.45203l-48.88889,28.22601l-48.88889,-28.22601z" fill="#979bfd"/><path d="M868.88889,563.30811l48.88889,-28.22601l48.88889,28.22601l-48.88889,28.22601z" fill="#e3e8ff"/><path d="M966.66667,563.30811v56.45203l-48.88889,28.22601v-56.45203z" fill="#4c4d7f"/></g><g><path d="M966.66667,563.30811l48.88889,-28.22601l48.88889,28.22601v56.45203l-48.88889,28.22601l-48.88889,-28.22601z" fill="#9b99ff"/><path d="M966.66667,563.30811l48.88889,-28.22601l48.88889,28.22601l-48.88889,28.22601z" fill="#e9e5ff"/><path d="M1064.44444,563.30811v56.45203l-48.88889,28.22601v-56.45203z" fill="#4e4c7f"/></g><g><path d="M1064.44444,563.30811l48.88889,-28.22601l48.88889,28.22601v56.45203l-48.88889,28.22601l-48.88889,-28.22601z" fill="#9a9cef"/><path d="M1064.44444,563.30811l48.88889,-28.22601l48.88889,28.22601l-48.88889,28.22601z" fill="#e6ebff"/><path d="M1162.22222,563.30811v56.45203l-48.88889,28.22601v-56.45203z" fill="#4d4e78"/></g><g><path d="M1162.22222,563.30811l48.88889,-28.22601l48.88889,28.22601v56.45203l-48.88889,28.22601l-48.88889,-28.22601z" fill="#79d2ff"/><path d="M1162.22222,563.30811l48.88889,-28.22601l48.88889,28.22601l-48.88889,28.22601z" fill="#b5ffff"/><path d="M1260,563.30811v56.45203l-48.88889,28.22601v-56.45203z" fill="#3c6980"/></g><g><path d="M-60,647.98614l48.88889,-28.22601l48.88889,28.22601v56.45203l-48.88889,28.22601l-48.88889,-28.22601z" fill="#294f4f"/><path d="M-60,647.98614l48.88889,-28.22601l48.88889,28.22601l-48.88889,28.22601z" fill="#3d7777"/><path d="M37.77778,647.98614v56.45203l-48.88889,28.22601v-56.45203z" fill="#142828"/></g><g><path d="M37.77778,647.98614l48.88889,-28.22601l48.88889,28.22601v56.45203l-48.88889,28.22601l-48.88889,-28.22601z" fill="#8992e7"/><path d="M37.77778,647.98614l48.88889,-28.22601l48.88889,28.22601l-48.88889,28.22601z" fill="#cddaff"/><path d="M135.55556,647.98614v56.45203l-48.88889,28.22601v-56.45203z" fill="#444974"/></g><g><path d="M135.55556,647.98614l48.88889,-28.22601l48.88889,28.22601v56.45203l-48.88889,28.22601l-48.88889,-28.22601z" fill="#7e93d9"/><path d="M135.55556,647.98614l48.88889,-28.22601l48.88889,28.22601l-48.88889,28.22601z" fill="#bddcff"/><path d="M233.33333,647.98614v56.45203l-48.88889,28.22601v-56.45203z" fill="#3f496c"/></g><g><path d="M233.33333,647.98614l48.88889,-28.22601l48.88889,28.22601v56.45203l-48.88889,28.22601l-48.88889,-28.22601z" fill="#818ed5"/><path d="M233.33333,647.98614l48.88889,-28.22601l48.88889,28.22601l-48.88889,28.22601z" fill="#c2d5ff"/><path d="M331.11111,647.98614v56.45203l-48.88889,28.22601v-56.45203z" fill="#41476b"/></g><g><path d="M331.11111,647.98614l48.88889,-28.22601l48.88889,28.22601v56.45203l-48.88889,28.22601l-48.88889,-28.22601z" fill="#7f93d7"/><path d="M331.11111,647.98614l48.88889,-28.22601l48.88889,28.22601l-48.88889,28.22601z" fill="#bfddff"/><path d="M428.88889,647.98614v56.45203l-48.88889,28.22601v-56.45203z" fill="#404a6c"/></g><g><path d="M428.88889,647.98614l48.88889,-28.22601l48.88889,28.22601v56.45203l-48.88889,28.22601l-48.88889,-28.22601z" fill="#79a2e5"/><path d="M428.88889,647.98614l48.88889,-28.22601l48.88889,28.22601l-48.88889,28.22601z" fill="#b5f3ff"/><path d="M526.66667,647.98614v56.45203l-48.88889,28.22601v-56.45203z" fill="#3c5173"/></g><g><path d="M526.66667,647.98614l48.88889,-28.22601l48.88889,28.22601v56.45203l-48.88889,28.22601l-48.88889,-28.22601z" fill="#56b7e1"/><path d="M526.66667,647.98614l48.88889,-28.22601l48.88889,28.22601l-48.88889,28.22601z" fill="#81ffff"/><path d="M624.44444,647.98614v56.45203l-48.88889,28.22601v-56.45203z" fill="#2b5c70"/></g><g><path d="M624.44444,647.98614l48.88889,-28.22601l48.88889,28.22601v56.45203l-48.88889,28.22601l-48.88889,-28.22601z" fill="#7698d4"/><path d="M624.44444,647.98614l48.88889,-28.22601l48.88889,28.22601l-48.88889,28.22601z" fill="#b1e4ff"/><path d="M722.22222,647.98614v56.45203l-48.88889,28.22601v-56.45203z" fill="#3b4c6a"/></g><g><path d="M722.22222,647.98614l48.88889,-28.22601l48.88889,28.22601v56.45203l-48.88889,28.22601l-48.88889,-28.22601z" fill="#69a7da"/><path d="M722.22222,647.98614l48.88889,-28.22601l48.88889,28.22601l-48.88889,28.22601z" fill="#9dfbff"/><path d="M820,647.98614v56.45203l-48.88889,28.22601v-56.45203z" fill="#34546d"/></g><g><path d="M820,647.98614l48.88889,-28.22601l48.88889,28.22601v56.45203l-48.88889,28.22601l-48.88889,-28.22601z" fill="#5bb3d4"/><path d="M820,647.98614l48.88889,-28.22601l48.88889,28.22601l-48.88889,28.22601z" fill="#89ffff"/><path d="M917.77778,647.98614v56.45203l-48.88889,28.22601v-56.45203z" fill="#2e5a6a"/></g><g><path d="M917.77778,647.98614l48.88889,-28.22601l48.88889,28.22601v56.45203l-48.88889,28.22601l-48.88889,-28.22601z" fill="#6f9ad2"/><path d="M917.77778,647.98614l48.88889,-28.22601l48.88889,28.22601l-48.88889,28.22601z" fill="#a6e7ff"/><path d="M1015.55556,647.98614v56.45203l-48.88889,28.22601v-56.45203z" fill="#374d69"/></g><g><path d="M1015.55556,647.98614l48.88889,-28.22601l48.88889,28.22601v56.45203l-48.88889,28.22601l-48.88889,-28.22601z" fill="#8698dc"/><path d="M1015.55556,647.98614l48.88889,-28.22601l48.88889,28.22601l-48.88889,28.22601z" fill="#c9e4ff"/><path d="M1113.33333,647.98614v56.45203l-48.88889,28.22601v-56.45203z" fill="#434c6e"/></g><g><path d="M1113.33333,647.98614l48.88889,-28.22601l48.88889,28.22601v56.45203l-48.88889,28.22601l-48.88889,-28.22601z" fill="#a780d4"/><path d="M1113.33333,647.98614l48.88889,-28.22601l48.88889,28.22601l-48.88889,28.22601z" fill="#fbc0ff"/><path d="M1211.11111,647.98614v56.45203l-48.88889,28.22601v-56.45203z" fill="#54406a"/></g><g><path d="M-11.11111,732.66418l48.88889,-28.22601l48.88889,28.22601v56.45203l-48.88889,28.22601l-48.88889,-28.22601z" fill="#000000"/><path d="M-11.11111,732.66418l48.88889,-28.22601l48.88889,28.22601l-48.88889,28.22601z" fill="#ffffff"/><path d="M86.66667,732.66418v56.45203l-48.88889,28.22601v-56.45203z" fill="#000000"/></g><g><path d="M86.66667,732.66418l48.88889,-28.22601l48.88889,28.22601v56.45203l-48.88889,28.22601l-48.88889,-28.22601z" fill="#000000"/><path d="M86.66667,732.66418l48.88889,-28.22601l48.88889,28.22601l-48.88889,28.22601z" fill="#ffffff"/><path d="M184.44444,732.66418v56.45203l-48.88889,28.22601v-56.45203z" fill="#000000"/></g><g><path d="M184.44444,732.66418l48.88889,-28.22601l48.88889,28.22601v56.45203l-48.88889,28.22601l-48.88889,-28.22601z" fill="#000000"/><path d="M184.44444,732.66418l48.88889,-28.22601l48.88889,28.22601l-48.88889,28.22601z" fill="#ffffff"/><path d="M282.22222,732.66418v56.45203l-48.88889,28.22601v-56.45203z" fill="#000000"/></g><g><path d="M282.22222,732.66418l48.88889,-28.22601l48.88889,28.22601v56.45203l-48.88889,28.22601l-48.88889,-28.22601z" fill="#000000"/><path d="M282.22222,732.66418l48.88889,-28.22601l48.88889,28.22601l-48.88889,28.22601z" fill="#ffffff"/><path d="M380,732.66418v56.45203l-48.88889,28.22601v-56.45203z" fill="#000000"/></g><g><path d="M380,732.66418l48.88889,-28.22601l48.88889,28.22601v56.45203l-48.88889,28.22601l-48.88889,-28.22601z" fill="#000000"/><path d="M380,732.66418l48.88889,-28.22601l48.88889,28.22601l-48.88889,28.22601z" fill="#ffffff"/><path d="M477.77778,732.66418v56.45203l-48.88889,28.22601v-56.45203z" fill="#000000"/></g><g><path d="M477.77778,732.66418l48.88889,-28.22601l48.88889,28.22601v56.45203l-48.88889,28.22601l-48.88889,-28.22601z" fill="#000000"/><path d="M477.77778,732.66418l48.88889,-28.22601l48.88889,28.22601l-48.88889,28.22601z" fill="#ffffff"/><path d="M575.55556,732.66418v56.45203l-48.88889,28.22601v-56.45203z" fill="#000000"/></g><g><path d="M575.55556,732.66418l48.88889,-28.22601l48.88889,28.22601v56.45203l-48.88889,28.22601l-48.88889,-28.22601z" fill="#000000"/><path d="M575.55556,732.66418l48.88889,-28.22601l48.88889,28.22601l-48.88889,28.22601z" fill="#ffffff"/><path d="M673.33333,732.66418v56.45203l-48.88889,28.22601v-56.45203z" fill="#000000"/></g><g><path d="M673.33333,732.66418l48.88889,-28.22601l48.88889,28.22601v56.45203l-48.88889,28.22601l-48.88889,-28.22601z" fill="#000000"/><path d="M673.33333,732.66418l48.88889,-28.22601l48.88889,28.22601l-48.88889,28.22601z" fill="#ffffff"/><path d="M771.11111,732.66418v56.45203l-48.88889,28.22601v-56.45203z" fill="#000000"/></g><g><path d="M771.11111,732.66418l48.88889,-28.22601l48.88889,28.22601v56.45203l-48.88889,28.22601l-48.88889,-28.22601z" fill="#000000"/><path d="M771.11111,732.66418l48.88889,-28.22601l48.88889,28.22601l-48.88889,28.22601z" fill="#ffffff"/><path d="M868.88889,732.66418v56.45203l-48.88889,28.22601v-56.45203z" fill="#000000"/></g><g><path d="M868.88889,732.66418l48.88889,-28.22601l48.88889,28.22601v56.45203l-48.88889,28.22601l-48.88889,-28.22601z" fill="#000000"/><path d="M868.88889,732.66418l48.88889,-28.22601l48.88889,28.22601l-48.88889,28.22601z" fill="#ffffff"/><path d="M966.66667,732.66418v56.45203l-48.88889,28.22601v-56.45203z" fill="#000000"/></g><g><path d="M966.66667,732.66418l48.88889,-28.22601l48.88889,28.22601v56.45203l-48.88889,28.22601l-48.88889,-28.22601z" fill="#000000"/><path d="M966.66667,732.66418l48.88889,-28.22601l48.88889,28.22601l-48.88889,28.22601z" fill="#ffffff"/><path d="M1064.44444,732.66418v56.45203l-48.88889,28.22601v-56.45203z" fill="#000000"/></g><g><path d="M1064.44444,732.66418l48.88889,-28.22601l48.88889,28.22601v56.45203l-48.88889,28.22601l-48.88889,-28.22601z" fill="#000000"/><path d="M1064.44444,732.66418l48.88889,-28.22601l48.88889,28.22601l-48.88889,28.22601z" fill="#ffffff"/><path d="M1162.22222,732.66418v56.45203l-48.88889,28.22601v-56.45203z" fill="#000000"/></g><g><path d="M1162.22222,732.66418l48.88889,-28.22601l48.88889,28.22601v56.45203l-48.88889,28.22601l-48.88889,-28.22601z" fill="#000000"/><path d="M1162.22222,732.66418l48.88889,-28.22601l48.88889,28.22601l-48.88889,28.22601z" fill="#ffffff"/><path d="M1260,732.66418v56.45203l-48.88889,28.22601v-56.45203z" fill="#000000"/></g><g><path d="M-60,817.34222l48.88889,-28.22601l48.88889,28.22601v56.45203l-48.88889,28.22601l-48.88889,-28.22601z" fill="#000000"/><path d="M-60,817.34222l48.88889,-28.22601l48.88889,28.22601l-48.88889,28.22601z" fill="#ffffff"/><path d="M37.77778,817.34222v56.45203l-48.88889,28.22601v-56.45203z" fill="#000000"/></g><g><path d="M37.77778,817.34222l48.88889,-28.22601l48.88889,28.22601v56.45203l-48.88889,28.22601l-48.88889,-28.22601z" fill="#000000"/><path d="M37.77778,817.34222l48.88889,-28.22601l48.88889,28.22601l-48.88889,28.22601z" fill="#ffffff"/><path d="M135.55556,817.34222v56.45203l-48.88889,28.22601v-56.45203z" fill="#000000"/></g><g><path d="M135.55556,817.34222l48.88889,-28.22601l48.88889,28.22601v56.45203l-48.88889,28.22601l-48.88889,-28.22601z" fill="#000000"/><path d="M135.55556,817.34222l48.88889,-28.22601l48.88889,28.22601l-48.88889,28.22601z" fill="#ffffff"/><path d="M233.33333,817.34222v56.45203l-48.88889,28.22601v-56.45203z" fill="#000000"/></g><g><path d="M233.33333,817.34222l48.88889,-28.22601l48.88889,28.22601v56.45203l-48.88889,28.22601l-48.88889,-28.22601z" fill="#000000"/><path d="M233.33333,817.34222l48.88889,-28.22601l48.88889,28.22601l-48.88889,28.22601z" fill="#ffffff"/><path d="M331.11111,817.34222v56.45203l-48.88889,28.22601v-56.45203z" fill="#000000"/></g><g><path d="M331.11111,817.34222l48.88889,-28.22601l48.88889,28.22601v56.45203l-48.88889,28.22601l-48.88889,-28.22601z" fill="#000000"/><path d="M331.11111,817.34222l48.88889,-28.22601l48.88889,28.22601l-48.88889,28.22601z" fill="#ffffff"/><path d="M428.88889,817.34222v56.45203l-48.88889,28.22601v-56.45203z" fill="#000000"/></g><g><path d="M428.88889,817.34222l48.88889,-28.22601l48.88889,28.22601v56.45203l-48.88889,28.22601l-48.88889,-28.22601z" fill="#000000"/><path d="M428.88889,817.34222l48.88889,-28.22601l48.88889,28.22601l-48.88889,28.22601z" fill="#ffffff"/><path d="M526.66667,817.34222v56.45203l-48.88889,28.22601v-56.45203z" fill="#000000"/></g><g><path d="M526.66667,817.34222l48.88889,-28.22601l48.88889,28.22601v56.45203l-48.88889,28.22601l-48.88889,-28.22601z" fill="#000000"/><path d="M526.66667,817.34222l48.88889,-28.22601l48.88889,28.22601l-48.88889,28.22601z" fill="#ffffff"/><path d="M624.44444,817.34222v56.45203l-48.88889,28.22601v-56.45203z" fill="#000000"/></g><g><path d="M624.44444,817.34222l48.88889,-28.22601l48.88889,28.22601v56.45203l-48.88889,28.22601l-48.88889,-28.22601z" fill="#000000"/><path d="M624.44444,817.34222l48.88889,-28.22601l48.88889,28.22601l-48.88889,28.22601z" fill="#ffffff"/><path d="M722.22222,817.34222v56.45203l-48.88889,28.22601v-56.45203z" fill="#000000"/></g><g><path d="M722.22222,817.34222l48.88889,-28.22601l48.88889,28.22601v56.45203l-48.88889,28.22601l-48.88889,-28.22601z" fill="#000000"/><path d="M722.22222,817.34222l48.88889,-28.22601l48.88889,28.22601l-48.88889,28.22601z" fill="#ffffff"/><path d="M820,817.34222v56.45203l-48.88889,28.22601v-56.45203z" fill="#000000"/></g><g><path d="M820,817.34222l48.88889,-28.22601l48.88889,28.22601v56.45203l-48.88889,28.22601l-48.88889,-28.22601z" fill="#000000"/><path d="M820,817.34222l48.88889,-28.22601l48.88889,28.22601l-48.88889,28.22601z" fill="#ffffff"/><path d="M917.77778,817.34222v56.45203l-48.88889,28.22601v-56.45203z" fill="#000000"/></g><g><path d="M917.77778,817.34222l48.88889,-28.22601l48.88889,28.22601v56.45203l-48.88889,28.22601l-48.88889,-28.22601z" fill="#000000"/><path d="M917.77778,817.34222l48.88889,-28.22601l48.88889,28.22601l-48.88889,28.22601z" fill="#ffffff"/><path d="M1015.55556,817.34222v56.45203l-48.88889,28.22601v-56.45203z" fill="#000000"/></g><g><path d="M1015.55556,817.34222l48.88889,-28.22601l48.88889,28.22601v56.45203l-48.88889,28.22601l-48.88889,-28.22601z" fill="#000000"/><path d="M1015.55556,817.34222l48.88889,-28.22601l48.88889,28.22601l-48.88889,28.22601z" fill="#ffffff"/><path d="M1113.33333,817.34222v56.45203l-48.88889,28.22601v-56.45203z" fill="#000000"/></g><g><path d="M1113.33333,817.34222l48.88889,-28.22601l48.88889,28.22601v56.45203l-48.88889,28.22601l-48.88889,-28.22601z" fill="#000000"/><path d="M1113.33333,817.34222l48.88889,-28.22601l48.88889,28.22601l-48.88889,28.22601z" fill="#ffffff"/><path d="M1211.11111,817.34222v56.45203l-48.88889,28.22601v-56.45203z" fill="#000000"/></g></g></g></svg>