<svg version="1.1" xmlns="http://www.w3.org/2000/svg" xmlns:xlink="http://www.w3.org/1999/xlink" width="1200" height="675" viewBox="0,0,1200,675"><g fill="none" fill-rule="nonzero" stroke="none" stroke-width="1" stroke-linecap="butt" stroke-linejoin="miter" stroke-miterlimit="10" stroke-dasharray="" stroke-dashoffset="0" font-family="none" font-weight="none" font-size="none" text-anchor="none" style="mix-blend-mode: normal"><g><g><path d="M-60,-198.79425l48.88889,-28.22601l48.88889,28.22601v56.45203l-48.88889,28.22601l-48.88889,-28.22601z" fill="#000000"/><path d="M-60,-198.79425l48.88889,-28.22601l48.88889,28.22601l-48.88889,28.22601z" fill="#ffffff"/><path d="M37.77778,-198.79425v56.45203l-48.88889,28.22601v-56.45203z" fill="#000000"/></g><g><path d="M37.77778,-198.79425l48.88889,-28.22601l48.88889,28.22601v56.45203l-48.88889,28.22601l-48.88889,-28.22601z" fill="#000000"/><path d="M37.77778,-198.79425l48.88889,-28.22601l48.88889,28.22601l-48.88889,28.22601z" fill="#ffffff"/><path d="M135.55556,-198.79425v56.45203l-48.88889,28.22601v-56.45203z" fill="#000000"/></g><g><path d="M135.55556,-198.79425l48.88889,-28.22601l48.88889,28.22601v56.45203l-48.88889,28.22601l-48.88889,-28.22601z" fill="#000000"/><path d="M135.55556,-198.79425l48.88889,-28.22601l48.88889,28.22601l-48.88889,28.22601z" fill="#ffffff"/><path d="M233.33333,-198.79425v56.45203l-48.88889,28.22601v-56.45203z" fill="#000000"/></g><g><path d="M233.33333,-198.79425l48.88889,-28.22601l48.88889,28.22601v56.45203l-48.88889,28.22601l-48.88889,-28.22601z" fill="#000000"/><path d="M233.33333,-198.79425l48.88889,-28.22601l48.88889,28.22601l-48.88889,28.22601z" fill="#ffffff"/><path d="M331.11111,-198.79425v56.45203l-48.88889,28.22601v-56.45203z" fill="#000000"/></g><g><path d="M331.11111,-198.79425l48.88889,-28.22601l48.88889,28.22601v56.45203l-48.88889,28.22601l-48.88889,-28.22601z" fill="#000000"/><path d="M331.11111,-198.79425l48.88889,-28.22601l48.88889,28.22601l-48.88889,28.22601z" fill="#ffffff"/><path d="M428.88889,-198.79425v56.45203l-48.88889,28.22601v-56.45203z" fill="#000000"/></g><g><path d="M428.88889,-198.79425l48.88889,-28.22601l48.88889,28.22601v56.45203l-48.88889,28.22601l-48.88889,-28.22601z" fill="#000000"/><path d="M428.88889,-198.79425l48.88889,-28.22601l48.88889,28.22601l-48.88889,28.22601z" fill="#ffffff"/><path d="M526.66667,-198.79425v56.45203l-48.88889,28.22601v-56.45203z" fill="#000000"/></g><g><path d="M526.66667,-198.79425l48.88889,-28.22601l48.88889,28.22601v56.45203l-48.88889,28.22601l-48.88889,-28.22601z" fill="#000000"/><path d="M526.66667,-198.79425l48.88889,-28.22601l48.88889,28.22601l-48.88889,28.22601z" fill="#ffffff"/><path d="M624.44444,-198.79425v56.45203l-48.88889,28.22601v-56.45203z" fill="#000000"/></g><g><path d="M624.44444,-198.79425l48.88889,-28.22601l48.88889,28.22601v56.45203l-48.88889,28.22601l-48.88889,-28.22601z" fill="#000000"/><path d="M624.44444,-198.79425l48.88889,-28.22601l48.88889,28.22601l-48.88889,28.22601z" fill="#ffffff"/><path d="M722.22222,-198.79425v56.45203l-48.88889,28.22601v-56.45203z" fill="#000000"/></g><g><path d="M722.22222,-198.79425l48.88889,-28.22601l48.88889,28.22601v56.45203l-48.88889,28.22601l-48.88889,-28.22601z" fill="#000000"/><path d="M722.22222,-198.79425l48.88889,-28.22601l48.88889,28.22601l-48.88889,28.22601z" fill="#ffffff"/><path d="M820,-198.79425v56.45203l-48.88889,28.22601v-56.45203z" fill="#000000"/></g><g><path d="M820,-198.79425l48.88889,-28.22601l48.88889,28.22601v56.45203l-48.88889,28.22601l-48.88889,-28.22601z" fill="#000000"/><path d="M820,-198.79425l48.88889,-28.22601l48.88889,28.22601l-48.88889,28.22601z" fill="#ffffff"/><path d="M917.77778,-198.79425v56.45203l-48.88889,28.22601v-56.45203z" fill="#000000"/></g><g><path d="M917.77778,-198.79425l48.88889,-28.22601l48.88889,28.22601v56.45203l-48.88889,28.22601l-48.88889,-28.22601z" fill="#000000"/><path d="M917.77778,-198.79425l48.88889,-28.22601l48.88889,28.22601l-48.88889,28.22601z" fill="#ffffff"/><path d="M1015.55556,-198.79425v56.45203l-48.88889,28.22601v-56.45203z" fill="#000000"/></g><g><path d="M1015.55556,-198.79425l48.88889,-28.22601l48.88889,28.22601v56.45203l-48.88889,28.22601l-48.88889,-28.22601z" fill="#000000"/><path d="M1015.55556,-198.79425l48.88889,-28.22601l48.88889,28.22601l-48.88889,28.22601z" fill="#ffffff"/><path d="M1113.33333,-198.79425v56.45203l-48.88889,28.22601v-56.45203z" fill="#000000"/></g><g><path d="M1113.33333,-198.79425l48.88889,-28.22601l48.88889,28.22601v56.45203l-48.88889,28.22601l-48.88889,-28.22601z" fill="#000000"/><path d="M1113.33333,-198.79425l48.88889,-28.22601l48.88889,28.22601l-48.88889,28.22601z" fill="#ffffff"/><path d="M1211.11111,-198.79425v56.45203l-48.88889,28.22601v-56.45203z" fill="#000000"/></g><g><path d="M-11.11111,-114.11621l48.88889,-28.22601l48.88889,28.22601v56.45203l-48.88889,28.22601l-48.88889,-28.22601z" fill="#000000"/><path d="M-11.11111,-114.11621l48.88889,-28.22601l48.88889,28.22601l-48.88889,28.22601z" fill="#ffffff"/><path d="M86.66667,-114.11621v56.45203l-48.88889,28.22601v-56.45203z" fill="#000000"/></g><g><path d="M86.66667,-114.11621l48.88889,-28.22601l48.88889,28.22601v56.45203l-48.88889,28.22601l-48.88889,-28.22601z" fill="#000000"/><path d="M86.66667,-114.11621l48.88889,-28.22601l48.88889,28.22601l-48.88889,28.22601z" fill="#ffffff"/><path d="M184.44444,-114.11621v56.45203l-48.88889,28.22601v-56.45203z" fill="#000000"/></g><g><path d="M184.44444,-114.11621l48.88889,-28.22601l48.88889,28.22601v56.45203l-48.88889,28.22601l-48.88889,-28.22601z" fill="#000000"/><path d="M184.44444,-114.11621l48.88889,-28.22601l48.88889,28.22601l-48.88889,28.22601z" fill="#ffffff"/><path d="M282.22222,-114.11621v56.45203l-48.88889,28.22601v-56.45203z" fill="#000000"/></g><g><path d="M282.22222,-114.11621l48.88889,-28.22601l48.88889,28.22601v56.45203l-48.88889,28.22601l-48.88889,-28.22601z" fill="#000000"/><path d="M282.22222,-114.11621l48.88889,-28.22601l48.88889,28.22601l-48.88889,28.22601z" fill="#ffffff"/><path d="M380,-114.11621v56.45203l-48.88889,28.22601v-56.45203z" fill="#000000"/></g><g><path d="M380,-114.11621l48.88889,-28.22601l48.88889,28.22601v56.45203l-48.88889,28.22601l-48.88889,-28.22601z" fill="#000000"/><path d="M380,-114.11621l48.88889,-28.22601l48.88889,28.22601l-48.88889,28.22601z" fill="#ffffff"/><path d="M477.77778,-114.11621v56.45203l-48.88889,28.22601v-56.45203z" fill="#000000"/></g><g><path d="M477.77778,-114.11621l48.88889,-28.22601l48.88889,28.22601v56.45203l-48.88889,28.22601l-48.88889,-28.22601z" fill="#000000"/><path d="M477.77778,-114.11621l48.88889,-28.22601l48.88889,28.22601l-48.88889,28.22601z" fill="#ffffff"/><path d="M575.55556,-114.11621v56.45203l-48.88889,28.22601v-56.45203z" fill="#000000"/></g><g><path d="M575.55556,-114.11621l48.88889,-28.22601l48.88889,28.22601v56.45203l-48.88889,28.22601l-48.88889,-28.22601z" fill="#000000"/><path d="M575.55556,-114.11621l48.88889,-28.22601l48.88889,28.22601l-48.88889,28.22601z" fill="#ffffff"/><path d="M673.33333,-114.11621v56.45203l-48.88889,28.22601v-56.45203z" fill="#000000"/></g><g><path d="M673.33333,-114.11621l48.88889,-28.22601l48.88889,28.22601v56.45203l-48.88889,28.22601l-48.88889,-28.22601z" fill="#000000"/><path d="M673.33333,-114.11621l48.88889,-28.22601l48.88889,28.22601l-48.88889,28.22601z" fill="#ffffff"/><path d="M771.11111,-114.11621v56.45203l-48.88889,28.22601v-56.45203z" fill="#000000"/></g><g><path d="M771.11111,-114.11621l48.88889,-28.22601l48.88889,28.22601v56.45203l-48.88889,28.22601l-48.88889,-28.22601z" fill="#000000"/><path d="M771.11111,-114.11621l48.88889,-28.22601l48.88889,28.22601l-48.88889,28.22601z" fill="#ffffff"/><path d="M868.88889,-114.11621v56.45203l-48.88889,28.22601v-56.45203z" fill="#000000"/></g><g><path d="M868.88889,-114.11621l48.88889,-28.22601l48.88889,28.22601v56.45203l-48.88889,28.22601l-48.88889,-28.22601z" fill="#000000"/><path d="M868.88889,-114.11621l48.88889,-28.22601l48.88889,28.22601l-48.88889,28.22601z" fill="#ffffff"/><path d="M966.66667,-114.11621v56.45203l-48.88889,28.22601v-56.45203z" fill="#000000"/></g><g><path d="M966.66667,-114.11621l48.88889,-28.22601l48.88889,28.22601v56.45203l-48.88889,28.22601l-48.88889,-28.22601z" fill="#000000"/><path d="M966.66667,-114.11621l48.88889,-28.22601l48.88889,28.22601l-48.88889,28.22601z" fill="#ffffff"/><path d="M1064.44444,-114.11621v56.45203l-48.88889,28.22601v-56.45203z" fill="#000000"/></g><g><path d="M1064.44444,-114.11621l48.88889,-28.22601l48.88889,28.22601v56.45203l-48.88889,28.22601l-48.88889,-28.22601z" fill="#000000"/><path d="M1064.44444,-114.11621l48.88889,-28.22601l48.88889,28.22601l-48.88889,28.22601z" fill="#ffffff"/><path d="M1162.22222,-114.11621v56.45203l-48.88889,28.22601v-56.45203z" fill="#000000"/></g><g><path d="M1162.22222,-114.11621l48.88889,-28.22601l48.88889,28.22601v56.45203l-48.88889,28.22601l-48.88889,-28.22601z" fill="#000000"/><path d="M1162.22222,-114.11621l48.88889,-28.22601l48.88889,28.22601l-48.88889,28.22601z" fill="#ffffff"/><path d="M1260,-114.11621v56.45203l-48.88889,28.22601v-56.45203z" fill="#000000"/></g><g><path d="M-60,-29.43817l48.88889,-28.22601l48.88889,28.22601v56.45203l-48.88889,28.22601l-48.88889,-28.22601z" fill="#8a668b"/><path d="M-60,-29.43817l48.88889,-28.22601l48.88889,28.22601l-48.88889,28.22601z" fill="#cf99d0"/><path d="M37.77778,-29.43817v56.45203l-48.88889,28.22601v-56.45203z" fill="#453345"/></g><g><path d="M37.77778,-29.43817l48.88889,-28.22601l48.88889,28.22601v56.45203l-48.88889,28.22601l-48.88889,-28.22601z" fill="#d89ee2"/><path d="M37.77778,-29.43817l48.88889,-28.22601l48.88889,28.22601l-48.88889,28.22601z" fill="#ffedff"/><path d="M135.55556,-29.43817v56.45203l-48.88889,28.22601v-56.45203z" fill="#6c4f71"/></g><g><path d="M135.55556,-29.43817l48.88889,-28.22601l48.88889,28.22601v56.45203l-48.88889,28.22601l-48.88889,-28.22601z" fill="#d2a2e1"/><path d="M135.55556,-29.43817l48.88889,-28.22601l48.88889,28.22601l-48.88889,28.22601z" fill="#fff2ff"/><path d="M233.33333,-29.43817v56.45203l-48.88889,28.22601v-56.45203z" fill="#695170"/></g><g><path d="M233.33333,-29.43817l48.88889,-28.22601l48.88889,28.22601v56.45203l-48.88889,28.22601l-48.88889,-28.22601z" fill="#d3a3e0"/><path d="M233.33333,-29.43817l48.88889,-28.22601l48.88889,28.22601l-48.88889,28.22601z" fill="#fff5ff"/><path d="M331.11111,-29.43817v56.45203l-48.88889,28.22601v-56.45203z" fill="#6a5270"/></g><g><path d="M331.11111,-29.43817l48.88889,-28.22601l48.88889,28.22601v56.45203l-48.88889,28.22601l-48.88889,-28.22601z" fill="#d49bd7"/><path d="M331.11111,-29.43817l48.88889,-28.22601l48.88889,28.22601l-48.88889,28.22601z" fill="#ffe8ff"/><path d="M428.88889,-29.43817v56.45203l-48.88889,28.22601v-56.45203z" fill="#6a4d6c"/></g><g><path d="M428.88889,-29.43817l48.88889,-28.22601l48.88889,28.22601v56.45203l-48.88889,28.22601l-48.88889,-28.22601z" fill="#d39bd3"/><path d="M428.88889,-29.43817l48.88889,-28.22601l48.88889,28.22601l-48.88889,28.22601z" fill="#ffe9ff"/><path d="M526.66667,-29.43817v56.45203l-48.88889,28.22601v-56.45203z" fill="#694e69"/></g><g><path d="M526.66667,-29.43817l48.88889,-28.22601l48.88889,28.22601v56.45203l-48.88889,28.22601l-48.88889,-28.22601z" fill="#d39bd3"/><path d="M526.66667,-29.43817l48.88889,-28.22601l48.88889,28.22601l-48.88889,28.22601z" fill="#ffe8ff"/><path d="M624.44444,-29.43817v56.45203l-48.88889,28.22601v-56.45203z" fill="#6a4d6a"/></g><g><path d="M624.44444,-29.43817l48.88889,-28.22601l48.88889,28.22601v56.45203l-48.88889,28.22601l-48.88889,-28.22601z" fill="#d495d4"/><path d="M624.44444,-29.43817l48.88889,-28.22601l48.88889,28.22601l-48.88889,28.22601z" fill="#ffdfff"/><path d="M722.22222,-29.43817v56.45203l-48.88889,28.22601v-56.45203z" fill="#6a4a6a"/></g><g><path d="M722.22222,-29.43817l48.88889,-28.22601l48.88889,28.22601v56.45203l-48.88889,28.22601l-48.88889,-28.22601z" fill="#cd9ccd"/><path d="M722.22222,-29.43817l48.88889,-28.22601l48.88889,28.22601l-48.88889,28.22601z" fill="#ffeaff"/><path d="M820,-29.43817v56.45203l-48.88889,28.22601v-56.45203z" fill="#664e66"/></g><g><path d="M820,-29.43817l48.88889,-28.22601l48.88889,28.22601v56.45203l-48.88889,28.22601l-48.88889,-28.22601z" fill="#cc9ecc"/><path d="M820,-29.43817l48.88889,-28.22601l48.88889,28.22601l-48.88889,28.22601z" fill="#ffedff"/><path d="M917.77778,-29.43817v56.45203l-48.88889,28.22601v-56.45203z" fill="#664f66"/></g><g><path d="M917.77778,-29.43817l48.88889,-28.22601l48.88889,28.22601v56.45203l-48.88889,28.22601l-48.88889,-28.22601z" fill="#cd9ccd"/><path d="M917.77778,-29.43817l48.88889,-28.22601l48.88889,28.22601l-48.88889,28.22601z" fill="#ffebff"/><path d="M1015.55556,-29.43817v56.45203l-48.88889,28.22601v-56.45203z" fill="#674e67"/></g><g><path d="M1015.55556,-29.43817l48.88889,-28.22601l48.88889,28.22601v56.45203l-48.88889,28.22601l-48.88889,-28.22601z" fill="#cba1cb"/><path d="M1015.55556,-29.43817l48.88889,-28.22601l48.88889,28.22601l-48.88889,28.22601z" fill="#fff2ff"/><path d="M1113.33333,-29.43817v56.45203l-48.88889,28.22601v-56.45203z" fill="#665166"/></g><g><path d="M1113.33333,-29.43817l48.88889,-28.22601l48.88889,28.22601v56.45203l-48.88889,28.22601l-48.88889,-28.22601z" fill="#caa1ca"/><path d="M1113.33333,-29.43817l48.88889,-28.22601l48.88889,28.22601l-48.88889,28.22601z" fill="#fff1ff"/><path d="M1211.11111,-29.43817v56.45203l-48.88889,28.22601v-56.45203z" fill="#655065"/></g><g><path d="M-11.11111,55.23987l48.88889,-28.22601l48.88889,28.22601v56.45203l-48.88889,28.22601l-48.88889,-28.22601z" fill="#ad62c5"/><path d="M-11.11111,55.23987l48.88889,-28.22601l48.88889,28.22601l-48.88889,28.22601z" fill="#ff93ff"/><path d="M86.66667,55.23987v56.45203l-48.88889,28.22601v-56.45203z" fill="#573163"/></g><g><path d="M86.66667,55.23987l48.88889,-28.22601l48.88889,28.22601v56.45203l-48.88889,28.22601l-48.88889,-28.22601z" fill="#c37ade"/><path d="M86.66667,55.23987l48.88889,-28.22601l48.88889,28.22601l-48.88889,28.22601z" fill="#ffb7ff"/><path d="M184.44444,55.23987v56.45203l-48.88889,28.22601v-56.45203z" fill="#613d6f"/></g><g><path d="M184.44444,55.23987l48.88889,-28.22601l48.88889,28.22601v56.45203l-48.88889,28.22601l-48.88889,-28.22601z" fill="#c570e3"/><path d="M184.44444,55.23987l48.88889,-28.22601l48.88889,28.22601l-48.88889,28.22601z" fill="#ffa8ff"/><path d="M282.22222,55.23987v56.45203l-48.88889,28.22601v-56.45203z" fill="#633871"/></g><g><path d="M282.22222,55.23987l48.88889,-28.22601l48.88889,28.22601v56.45203l-48.88889,28.22601l-48.88889,-28.22601z" fill="#de5ede"/><path d="M282.22222,55.23987l48.88889,-28.22601l48.88889,28.22601l-48.88889,28.22601z" fill="#ff8eff"/><path d="M380,55.23987v56.45203l-48.88889,28.22601v-56.45203z" fill="#6f2f6f"/></g><g><path d="M380,55.23987l48.88889,-28.22601l48.88889,28.22601v56.45203l-48.88889,28.22601l-48.88889,-28.22601z" fill="#e05ae0"/><path d="M380,55.23987l48.88889,-28.22601l48.88889,28.22601l-48.88889,28.22601z" fill="#ff88ff"/><path d="M477.77778,55.23987v56.45203l-48.88889,28.22601v-56.45203z" fill="#702d70"/></g><g><path d="M477.77778,55.23987l48.88889,-28.22601l48.88889,28.22601v56.45203l-48.88889,28.22601l-48.88889,-28.22601z" fill="#da63da"/><path d="M477.77778,55.23987l48.88889,-28.22601l48.88889,28.22601l-48.88889,28.22601z" fill="#ff95ff"/><path d="M575.55556,55.23987v56.45203l-48.88889,28.22601v-56.45203z" fill="#6d326d"/></g><g><path d="M575.55556,55.23987l48.88889,-28.22601l48.88889,28.22601v56.45203l-48.88889,28.22601l-48.88889,-28.22601z" fill="#cc7dcc"/><path d="M575.55556,55.23987l48.88889,-28.22601l48.88889,28.22601l-48.88889,28.22601z" fill="#ffbcff"/><path d="M673.33333,55.23987v56.45203l-48.88889,28.22601v-56.45203z" fill="#663f66"/></g><g><path d="M673.33333,55.23987l48.88889,-28.22601l48.88889,28.22601v56.45203l-48.88889,28.22601l-48.88889,-28.22601z" fill="#c481cf"/><path d="M673.33333,55.23987l48.88889,-28.22601l48.88889,28.22601l-48.88889,28.22601z" fill="#ffc2ff"/><path d="M771.11111,55.23987v56.45203l-48.88889,28.22601v-56.45203z" fill="#624167"/></g><g><path d="M771.11111,55.23987l48.88889,-28.22601l48.88889,28.22601v56.45203l-48.88889,28.22601l-48.88889,-28.22601z" fill="#cf72cf"/><path d="M771.11111,55.23987l48.88889,-28.22601l48.88889,28.22601l-48.88889,28.22601z" fill="#ffabff"/><path d="M868.88889,55.23987v56.45203l-48.88889,28.22601v-56.45203z" fill="#673967"/></g><g><path d="M868.88889,55.23987l48.88889,-28.22601l48.88889,28.22601v56.45203l-48.88889,28.22601l-48.88889,-28.22601z" fill="#e051e0"/><path d="M868.88889,55.23987l48.88889,-28.22601l48.88889,28.22601l-48.88889,28.22601z" fill="#ff7aff"/><path d="M966.66667,55.23987v56.45203l-48.88889,28.22601v-56.45203z" fill="#702970"/></g><g><path d="M966.66667,55.23987l48.88889,-28.22601l48.88889,28.22601v56.45203l-48.88889,28.22601l-48.88889,-28.22601z" fill="#df55df"/><path d="M966.66667,55.23987l48.88889,-28.22601l48.88889,28.22601l-48.88889,28.22601z" fill="#ff7fff"/><path d="M1064.44444,55.23987v56.45203l-48.88889,28.22601v-56.45203z" fill="#702a70"/></g><g><path d="M1064.44444,55.23987l48.88889,-28.22601l48.88889,28.22601v56.45203l-48.88889,28.22601l-48.88889,-28.22601z" fill="#ce76ce"/><path d="M1064.44444,55.23987l48.88889,-28.22601l48.88889,28.22601l-48.88889,28.22601z" fill="#ffb1ff"/><path d="M1162.22222,55.23987v56.45203l-48.88889,28.22601v-56.45203z" fill="#673b67"/></g><g><path d="M1162.22222,55.23987l48.88889,-28.22601l48.88889,28.22601v56.45203l-48.88889,28.22601l-48.88889,-28.22601z" fill="#d85bd8"/><path d="M1162.22222,55.23987l48.88889,-28.22601l48.88889,28.22601l-48.88889,28.22601z" fill="#ff88ff"/><path d="M1260,55.23987v56.45203l-48.88889,28.22601v-56.45203z" fill="#6c2d6c"/></g><g><path d="M-60,139.91791l48.88889,-28.22601l48.88889,28.22601v56.45203l-48.88889,28.22601l-48.88889,-28.22601z" fill="#6f4a79"/><path d="M-60,139.91791l48.88889,-28.22601l48.88889,28.22601l-48.88889,28.22601z" fill="#a76fb6"/><path d="M37.77778,139.91791v56.45203l-48.88889,28.22601v-56.45203z" fill="#38253d"/></g><g><path d="M37.77778,139.91791l48.88889,-28.22601l48.88889,28.22601v56.45203l-48.88889,28.22601l-48.88889,-28.22601z" fill="#7faae3"/><path d="M37.77778,139.91791l48.88889,-28.22601l48.88889,28.22601l-48.88889,28.22601z" fill="#bfffff"/><path d="M135.55556,139.91791v56.45203l-48.88889,28.22601v-56.45203z" fill="#405572"/></g><g><path d="M135.55556,139.91791l48.88889,-28.22601l48.88889,28.22601v56.45203l-48.88889,28.22601l-48.88889,-28.22601z" fill="#8ba3e9"/><path d="M135.55556,139.91791l48.88889,-28.22601l48.88889,28.22601l-48.88889,28.22601z" fill="#d1f4ff"/><path d="M233.33333,139.91791v56.45203l-48.88889,28.22601v-56.45203z" fill="#465175"/></g><g><path d="M233.33333,139.91791l48.88889,-28.22601l48.88889,28.22601v56.45203l-48.88889,28.22601l-48.88889,-28.22601z" fill="#82a8de"/><path d="M233.33333,139.91791l48.88889,-28.22601l48.88889,28.22601l-48.88889,28.22601z" fill="#c2fcff"/><path d="M331.11111,139.91791v56.45203l-48.88889,28.22601v-56.45203z" fill="#41546f"/></g><g><path d="M331.11111,139.91791l48.88889,-28.22601l48.88889,28.22601v56.45203l-48.88889,28.22601l-48.88889,-28.22601z" fill="#8d99e3"/><path d="M331.11111,139.91791l48.88889,-28.22601l48.88889,28.22601l-48.88889,28.22601z" fill="#d3e5ff"/><path d="M428.88889,139.91791v56.45203l-48.88889,28.22601v-56.45203z" fill="#464c72"/></g><g><path d="M428.88889,139.91791l48.88889,-28.22601l48.88889,28.22601v56.45203l-48.88889,28.22601l-48.88889,-28.22601z" fill="#889be3"/><path d="M428.88889,139.91791l48.88889,-28.22601l48.88889,28.22601l-48.88889,28.22601z" fill="#cce8ff"/><path d="M526.66667,139.91791v56.45203l-48.88889,28.22601v-56.45203z" fill="#444d72"/></g><g><path d="M526.66667,139.91791l48.88889,-28.22601l48.88889,28.22601v56.45203l-48.88889,28.22601l-48.88889,-28.22601z" fill="#9892d8"/><path d="M526.66667,139.91791l48.88889,-28.22601l48.88889,28.22601l-48.88889,28.22601z" fill="#e4dbff"/><path d="M624.44444,139.91791v56.45203l-48.88889,28.22601v-56.45203z" fill="#4c496c"/></g><g><path d="M624.44444,139.91791l48.88889,-28.22601l48.88889,28.22601v56.45203l-48.88889,28.22601l-48.88889,-28.22601z" fill="#a786d3"/><path d="M624.44444,139.91791l48.88889,-28.22601l48.88889,28.22601l-48.88889,28.22601z" fill="#fbc9ff"/><path d="M722.22222,139.91791v56.45203l-48.88889,28.22601v-56.45203z" fill="#544369"/></g><g><path d="M722.22222,139.91791l48.88889,-28.22601l48.88889,28.22601v56.45203l-48.88889,28.22601l-48.88889,-28.22601z" fill="#82a4de"/><path d="M722.22222,139.91791l48.88889,-28.22601l48.88889,28.22601l-48.88889,28.22601z" fill="#c3f5ff"/><path d="M820,139.91791v56.45203l-48.88889,28.22601v-56.45203z" fill="#41526f"/></g><g><path d="M820,139.91791l48.88889,-28.22601l48.88889,28.22601v56.45203l-48.88889,28.22601l-48.88889,-28.22601z" fill="#c670c6"/><path d="M820,139.91791l48.88889,-28.22601l48.88889,28.22601l-48.88889,28.22601z" fill="#ffa9ff"/><path d="M917.77778,139.91791v56.45203l-48.88889,28.22601v-56.45203z" fill="#633863"/></g><g><path d="M917.77778,139.91791l48.88889,-28.22601l48.88889,28.22601v56.45203l-48.88889,28.22601l-48.88889,-28.22601z" fill="#c473ca"/><path d="M917.77778,139.91791l48.88889,-28.22601l48.88889,28.22601l-48.88889,28.22601z" fill="#ffadff"/><path d="M1015.55556,139.91791v56.45203l-48.88889,28.22601v-56.45203z" fill="#623a65"/></g><g><path d="M1015.55556,139.91791l48.88889,-28.22601l48.88889,28.22601v56.45203l-48.88889,28.22601l-48.88889,-28.22601z" fill="#c474c4"/><path d="M1015.55556,139.91791l48.88889,-28.22601l48.88889,28.22601l-48.88889,28.22601z" fill="#ffaeff"/><path d="M1113.33333,139.91791v56.45203l-48.88889,28.22601v-56.45203z" fill="#623a62"/></g><g><path d="M1113.33333,139.91791l48.88889,-28.22601l48.88889,28.22601v56.45203l-48.88889,28.22601l-48.88889,-28.22601z" fill="#bb82bb"/><path d="M1113.33333,139.91791l48.88889,-28.22601l48.88889,28.22601l-48.88889,28.22601z" fill="#ffc4ff"/><path d="M1211.11111,139.91791v56.45203l-48.88889,28.22601v-56.45203z" fill="#5d415d"/></g><g><path d="M-11.11111,224.59595l48.88889,-28.22601l48.88889,28.22601v56.45203l-48.88889,28.22601l-48.88889,-28.22601z" fill="#678cc1"/><path d="M-11.11111,224.59595l48.88889,-28.22601l48.88889,28.22601l-48.88889,28.22601z" fill="#9bd1ff"/><path d="M86.66667,224.59595v56.45203l-48.88889,28.22601v-56.45203z" fill="#344661"/></g><g><path d="M86.66667,224.59595l48.88889,-28.22601l48.88889,28.22601v56.45203l-48.88889,28.22601l-48.88889,-28.22601z" fill="#82a7f5"/><path d="M86.66667,224.59595l48.88889,-28.22601l48.88889,28.22601l-48.88889,28.22601z" fill="#c4faff"/><path d="M184.44444,224.59595v56.45203l-48.88889,28.22601v-56.45203z" fill="#41537a"/></g><g><path d="M184.44444,224.59595l48.88889,-28.22601l48.88889,28.22601v56.45203l-48.88889,28.22601l-48.88889,-28.22601z" fill="#80b2fb"/><path d="M184.44444,224.59595l48.88889,-28.22601l48.88889,28.22601l-48.88889,28.22601z" fill="#c0ffff"/><path d="M282.22222,224.59595v56.45203l-48.88889,28.22601v-56.45203z" fill="#40597e"/></g><g><path d="M282.22222,224.59595l48.88889,-28.22601l48.88889,28.22601v56.45203l-48.88889,28.22601l-48.88889,-28.22601z" fill="#849fe7"/><path d="M282.22222,224.59595l48.88889,-28.22601l48.88889,28.22601l-48.88889,28.22601z" fill="#c5efff"/><path d="M380,224.59595v56.45203l-48.88889,28.22601v-56.45203z" fill="#425073"/></g><g><path d="M380,224.59595l48.88889,-28.22601l48.88889,28.22601v56.45203l-48.88889,28.22601l-48.88889,-28.22601z" fill="#65afeb"/><path d="M380,224.59595l48.88889,-28.22601l48.88889,28.22601l-48.88889,28.22601z" fill="#98ffff"/><path d="M477.77778,224.59595v56.45203l-48.88889,28.22601v-56.45203z" fill="#335875"/></g><g><path d="M477.77778,224.59595l48.88889,-28.22601l48.88889,28.22601v56.45203l-48.88889,28.22601l-48.88889,-28.22601z" fill="#878fd4"/><path d="M477.77778,224.59595l48.88889,-28.22601l48.88889,28.22601l-48.88889,28.22601z" fill="#cad7ff"/><path d="M575.55556,224.59595v56.45203l-48.88889,28.22601v-56.45203z" fill="#43486a"/></g><g><path d="M575.55556,224.59595l48.88889,-28.22601l48.88889,28.22601v56.45203l-48.88889,28.22601l-48.88889,-28.22601z" fill="#8d8bd2"/><path d="M575.55556,224.59595l48.88889,-28.22601l48.88889,28.22601l-48.88889,28.22601z" fill="#d3d0ff"/><path d="M673.33333,224.59595v56.45203l-48.88889,28.22601v-56.45203z" fill="#464569"/></g><g><path d="M673.33333,224.59595l48.88889,-28.22601l48.88889,28.22601v56.45203l-48.88889,28.22601l-48.88889,-28.22601z" fill="#739ed9"/><path d="M673.33333,224.59595l48.88889,-28.22601l48.88889,28.22601l-48.88889,28.22601z" fill="#adeeff"/><path d="M771.11111,224.59595v56.45203l-48.88889,28.22601v-56.45203z" fill="#3a4f6d"/></g><g><path d="M771.11111,224.59595l48.88889,-28.22601l48.88889,28.22601v56.45203l-48.88889,28.22601l-48.88889,-28.22601z" fill="#83a7e7"/><path d="M771.11111,224.59595l48.88889,-28.22601l48.88889,28.22601l-48.88889,28.22601z" fill="#c5faff"/><path d="M868.88889,224.59595v56.45203l-48.88889,28.22601v-56.45203z" fill="#425374"/></g><g><path d="M868.88889,224.59595l48.88889,-28.22601l48.88889,28.22601v56.45203l-48.88889,28.22601l-48.88889,-28.22601z" fill="#bc64c2"/><path d="M868.88889,224.59595l48.88889,-28.22601l48.88889,28.22601l-48.88889,28.22601z" fill="#ff96ff"/><path d="M966.66667,224.59595v56.45203l-48.88889,28.22601v-56.45203z" fill="#5e3261"/></g><g><path d="M966.66667,224.59595l48.88889,-28.22601l48.88889,28.22601v56.45203l-48.88889,28.22601l-48.88889,-28.22601z" fill="#af81d2"/><path d="M966.66667,224.59595l48.88889,-28.22601l48.88889,28.22601l-48.88889,28.22601z" fill="#ffc2ff"/><path d="M1064.44444,224.59595v56.45203l-48.88889,28.22601v-56.45203z" fill="#574169"/></g><g><path d="M1064.44444,224.59595l48.88889,-28.22601l48.88889,28.22601v56.45203l-48.88889,28.22601l-48.88889,-28.22601z" fill="#b073bb"/><path d="M1064.44444,224.59595l48.88889,-28.22601l48.88889,28.22601l-48.88889,28.22601z" fill="#ffacff"/><path d="M1162.22222,224.59595v56.45203l-48.88889,28.22601v-56.45203z" fill="#58395e"/></g><g><path d="M1162.22222,224.59595l48.88889,-28.22601l48.88889,28.22601v56.45203l-48.88889,28.22601l-48.88889,-28.22601z" fill="#8fbcd6"/><path d="M1162.22222,224.59595l48.88889,-28.22601l48.88889,28.22601l-48.88889,28.22601z" fill="#d6ffff"/><path d="M1260,224.59595v56.45203l-48.88889,28.22601v-56.45203z" fill="#475e6b"/></g><g><path d="M-60,309.27399l48.88889,-28.22601l48.88889,28.22601v56.45203l-48.88889,28.22601l-48.88889,-28.22601z" fill="#543b5e"/><path d="M-60,309.27399l48.88889,-28.22601l48.88889,28.22601l-48.88889,28.22601z" fill="#7e588d"/><path d="M37.77778,309.27399v56.45203l-48.88889,28.22601v-56.45203z" fill="#2a1d2f"/></g><g><path d="M37.77778,309.27399l48.88889,-28.22601l48.88889,28.22601v56.45203l-48.88889,28.22601l-48.88889,-28.22601z" fill="#899eef"/><path d="M37.77778,309.27399l48.88889,-28.22601l48.88889,28.22601l-48.88889,28.22601z" fill="#cdedff"/><path d="M135.55556,309.27399v56.45203l-48.88889,28.22601v-56.45203z" fill="#444f77"/></g><g><path d="M135.55556,309.27399l48.88889,-28.22601l48.88889,28.22601v56.45203l-48.88889,28.22601l-48.88889,-28.22601z" fill="#8ca1f7"/><path d="M135.55556,309.27399l48.88889,-28.22601l48.88889,28.22601l-48.88889,28.22601z" fill="#d2f2ff"/><path d="M233.33333,309.27399v56.45203l-48.88889,28.22601v-56.45203z" fill="#46517b"/></g><g><path d="M233.33333,309.27399l48.88889,-28.22601l48.88889,28.22601v56.45203l-48.88889,28.22601l-48.88889,-28.22601z" fill="#8aa1f0"/><path d="M233.33333,309.27399l48.88889,-28.22601l48.88889,28.22601l-48.88889,28.22601z" fill="#cff1ff"/><path d="M331.11111,309.27399v56.45203l-48.88889,28.22601v-56.45203z" fill="#455078"/></g><g><path d="M331.11111,309.27399l48.88889,-28.22601l48.88889,28.22601v56.45203l-48.88889,28.22601l-48.88889,-28.22601z" fill="#86affc"/><path d="M331.11111,309.27399l48.88889,-28.22601l48.88889,28.22601l-48.88889,28.22601z" fill="#c9ffff"/><path d="M428.88889,309.27399v56.45203l-48.88889,28.22601v-56.45203z" fill="#43587e"/></g><g><path d="M428.88889,309.27399l48.88889,-28.22601l48.88889,28.22601v56.45203l-48.88889,28.22601l-48.88889,-28.22601z" fill="#88a6f3"/><path d="M428.88889,309.27399l48.88889,-28.22601l48.88889,28.22601l-48.88889,28.22601z" fill="#ccf8ff"/><path d="M526.66667,309.27399v56.45203l-48.88889,28.22601v-56.45203z" fill="#44537a"/></g><g><path d="M526.66667,309.27399l48.88889,-28.22601l48.88889,28.22601v56.45203l-48.88889,28.22601l-48.88889,-28.22601z" fill="#89abfe"/><path d="M526.66667,309.27399l48.88889,-28.22601l48.88889,28.22601l-48.88889,28.22601z" fill="#ceffff"/><path d="M624.44444,309.27399v56.45203l-48.88889,28.22601v-56.45203z" fill="#45567f"/></g><g><path d="M624.44444,309.27399l48.88889,-28.22601l48.88889,28.22601v56.45203l-48.88889,28.22601l-48.88889,-28.22601z" fill="#8b9ceb"/><path d="M624.44444,309.27399l48.88889,-28.22601l48.88889,28.22601l-48.88889,28.22601z" fill="#d0ebff"/><path d="M722.22222,309.27399v56.45203l-48.88889,28.22601v-56.45203z" fill="#454e76"/></g><g><path d="M722.22222,309.27399l48.88889,-28.22601l48.88889,28.22601v56.45203l-48.88889,28.22601l-48.88889,-28.22601z" fill="#88aefb"/><path d="M722.22222,309.27399l48.88889,-28.22601l48.88889,28.22601l-48.88889,28.22601z" fill="#ccffff"/><path d="M820,309.27399v56.45203l-48.88889,28.22601v-56.45203z" fill="#44577e"/></g><g><path d="M820,309.27399l48.88889,-28.22601l48.88889,28.22601v56.45203l-48.88889,28.22601l-48.88889,-28.22601z" fill="#9ca5fb"/><path d="M820,309.27399l48.88889,-28.22601l48.88889,28.22601l-48.88889,28.22601z" fill="#ebf7ff"/><path d="M917.77778,309.27399v56.45203l-48.88889,28.22601v-56.45203z" fill="#4e527d"/></g><g><path d="M917.77778,309.27399l48.88889,-28.22601l48.88889,28.22601v56.45203l-48.88889,28.22601l-48.88889,-28.22601z" fill="#9b99ec"/><path d="M917.77778,309.27399l48.88889,-28.22601l48.88889,28.22601l-48.88889,28.22601z" fill="#e9e5ff"/><path d="M1015.55556,309.27399v56.45203l-48.88889,28.22601v-56.45203z" fill="#4e4c76"/></g><g><path d="M1015.55556,309.27399l48.88889,-28.22601l48.88889,28.22601v56.45203l-48.88889,28.22601l-48.88889,-28.22601z" fill="#93b3f3"/><path d="M1015.55556,309.27399l48.88889,-28.22601l48.88889,28.22601l-48.88889,28.22601z" fill="#dcffff"/><path d="M1113.33333,309.27399v56.45203l-48.88889,28.22601v-56.45203z" fill="#495a79"/></g><g><path d="M1113.33333,309.27399l48.88889,-28.22601l48.88889,28.22601v56.45203l-48.88889,28.22601l-48.88889,-28.22601z" fill="#7ed1f5"/><path d="M1113.33333,309.27399l48.88889,-28.22601l48.88889,28.22601l-48.88889,28.22601z" fill="#beffff"/><path d="M1211.11111,309.27399v56.45203l-48.88889,28.22601v-56.45203z" fill="#3f687b"/></g><g><path d="M-11.11111,393.95203l48.88889,-28.22601l48.88889,28.22601v56.45203l-48.88889,28.22601l-48.88889,-28.22601z" fill="#89589f"/><path d="M-11.11111,393.95203l48.88889,-28.22601l48.88889,28.22601l-48.88889,28.22601z" fill="#ce84ee"/><path d="M86.66667,393.95203v56.45203l-48.88889,28.22601v-56.45203z" fill="#452c4f"/></g><g><path d="M86.66667,393.95203l48.88889,-28.22601l48.88889,28.22601v56.45203l-48.88889,28.22601l-48.88889,-28.22601z" fill="#9c96ef"/><path d="M86.66667,393.95203l48.88889,-28.22601l48.88889,28.22601l-48.88889,28.22601z" fill="#eae1ff"/><path d="M184.44444,393.95203v56.45203l-48.88889,28.22601v-56.45203z" fill="#4e4b78"/></g><g><path d="M184.44444,393.95203l48.88889,-28.22601l48.88889,28.22601v56.45203l-48.88889,28.22601l-48.88889,-28.22601z" fill="#a088e6"/><path d="M184.44444,393.95203l48.88889,-28.22601l48.88889,28.22601l-48.88889,28.22601z" fill="#f1ccff"/><path d="M282.22222,393.95203v56.45203l-48.88889,28.22601v-56.45203z" fill="#504473"/></g><g><path d="M282.22222,393.95203l48.88889,-28.22601l48.88889,28.22601v56.45203l-48.88889,28.22601l-48.88889,-28.22601z" fill="#99a3ff"/><path d="M282.22222,393.95203l48.88889,-28.22601l48.88889,28.22601l-48.88889,28.22601z" fill="#e5f5ff"/><path d="M380,393.95203v56.45203l-48.88889,28.22601v-56.45203z" fill="#4c527f"/></g><g><path d="M380,393.95203l48.88889,-28.22601l48.88889,28.22601v56.45203l-48.88889,28.22601l-48.88889,-28.22601z" fill="#a470c7"/><path d="M380,393.95203l48.88889,-28.22601l48.88889,28.22601l-48.88889,28.22601z" fill="#f6a8ff"/><path d="M477.77778,393.95203v56.45203l-48.88889,28.22601v-56.45203z" fill="#523863"/></g><g><path d="M477.77778,393.95203l48.88889,-28.22601l48.88889,28.22601v56.45203l-48.88889,28.22601l-48.88889,-28.22601z" fill="#9ca0fa"/><path d="M477.77778,393.95203l48.88889,-28.22601l48.88889,28.22601l-48.88889,28.22601z" fill="#eaf0ff"/><path d="M575.55556,393.95203v56.45203l-48.88889,28.22601v-56.45203z" fill="#4e507d"/></g><g><path d="M575.55556,393.95203l48.88889,-28.22601l48.88889,28.22601v56.45203l-48.88889,28.22601l-48.88889,-28.22601z" fill="#96a9fa"/><path d="M575.55556,393.95203l48.88889,-28.22601l48.88889,28.22601l-48.88889,28.22601z" fill="#e2fdff"/><path d="M673.33333,393.95203v56.45203l-48.88889,28.22601v-56.45203z" fill="#4b547d"/></g><g><path d="M673.33333,393.95203l48.88889,-28.22601l48.88889,28.22601v56.45203l-48.88889,28.22601l-48.88889,-28.22601z" fill="#9f90e8"/><path d="M673.33333,393.95203l48.88889,-28.22601l48.88889,28.22601l-48.88889,28.22601z" fill="#eed8ff"/><path d="M771.11111,393.95203v56.45203l-48.88889,28.22601v-56.45203z" fill="#4f4874"/></g><g><path d="M771.11111,393.95203l48.88889,-28.22601l48.88889,28.22601v56.45203l-48.88889,28.22601l-48.88889,-28.22601z" fill="#a596ff"/><path d="M771.11111,393.95203l48.88889,-28.22601l48.88889,28.22601l-48.88889,28.22601z" fill="#f8e0ff"/><path d="M868.88889,393.95203v56.45203l-48.88889,28.22601v-56.45203z" fill="#534b80"/></g><g><path d="M868.88889,393.95203l48.88889,-28.22601l48.88889,28.22601v56.45203l-48.88889,28.22601l-48.88889,-28.22601z" fill="#9f88de"/><path d="M868.88889,393.95203l48.88889,-28.22601l48.88889,28.22601l-48.88889,28.22601z" fill="#eeccff"/><path d="M966.66667,393.95203v56.45203l-48.88889,28.22601v-56.45203z" fill="#4f446f"/></g><g><path d="M966.66667,393.95203l48.88889,-28.22601l48.88889,28.22601v56.45203l-48.88889,28.22601l-48.88889,-28.22601z" fill="#98a6fb"/><path d="M966.66667,393.95203l48.88889,-28.22601l48.88889,28.22601l-48.88889,28.22601z" fill="#e4faff"/><path d="M1064.44444,393.95203v56.45203l-48.88889,28.22601v-56.45203z" fill="#4c537d"/></g><g><path d="M1064.44444,393.95203l48.88889,-28.22601l48.88889,28.22601v56.45203l-48.88889,28.22601l-48.88889,-28.22601z" fill="#95a7f0"/><path d="M1064.44444,393.95203l48.88889,-28.22601l48.88889,28.22601l-48.88889,28.22601z" fill="#dffbff"/><path d="M1162.22222,393.95203v56.45203l-48.88889,28.22601v-56.45203z" fill="#4a5478"/></g><g><path d="M1162.22222,393.95203l48.88889,-28.22601l48.88889,28.22601v56.45203l-48.88889,28.22601l-48.88889,-28.22601z" fill="#998fe2"/><path d="M1162.22222,393.95203l48.88889,-28.22601l48.88889,28.22601l-48.88889,28.22601z" fill="#e5d7ff"/><path d="M1260,393.95203v56.45203l-48.88889,28.22601v-56.45203z" fill="#4c4871"/></g><g><path d="M-60,478.63007l48.88889,-28.22601l48.88889,28.22601v56.45203l-48.88889,28.22601l-48.88889,-28.22601z" fill="#633271"/><path d="M-60,478.63007l48.88889,-28.22601l48.88889,28.22601l-48.88889,28.22601z" fill="#954ba9"/><path d="M37.77778,478.63007v56.45203l-48.88889,28.22601v-56.45203z" fill="#321938"/></g><g><path d="M37.77778,478.63007l48.88889,-28.22601l48.88889,28.22601v56.45203l-48.88889,28.22601l-48.88889,-28.22601z" fill="#b36ef3"/><path d="M37.77778,478.63007l48.88889,-28.22601l48.88889,28.22601l-48.88889,28.22601z" fill="#ffa5ff"/><path d="M135.55556,478.63007v56.45203l-48.88889,28.22601v-56.45203z" fill="#5a377a"/></g><g><path d="M135.55556,478.63007l48.88889,-28.22601l48.88889,28.22601v56.45203l-48.88889,28.22601l-48.88889,-28.22601z" fill="#9387e3"/><path d="M135.55556,478.63007l48.88889,-28.22601l48.88889,28.22601l-48.88889,28.22601z" fill="#dccbff"/><path d="M233.33333,478.63007v56.45203l-48.88889,28.22601v-56.45203z" fill="#494472"/></g><g><path d="M233.33333,478.63007l48.88889,-28.22601l48.88889,28.22601v56.45203l-48.88889,28.22601l-48.88889,-28.22601z" fill="#8297f3"/><path d="M233.33333,478.63007l48.88889,-28.22601l48.88889,28.22601l-48.88889,28.22601z" fill="#c3e2ff"/><path d="M331.11111,478.63007v56.45203l-48.88889,28.22601v-56.45203z" fill="#414b79"/></g><g><path d="M331.11111,478.63007l48.88889,-28.22601l48.88889,28.22601v56.45203l-48.88889,28.22601l-48.88889,-28.22601z" fill="#72b0f8"/><path d="M331.11111,478.63007l48.88889,-28.22601l48.88889,28.22601l-48.88889,28.22601z" fill="#aaffff"/><path d="M428.88889,478.63007v56.45203l-48.88889,28.22601v-56.45203z" fill="#39587c"/></g><g><path d="M428.88889,478.63007l48.88889,-28.22601l48.88889,28.22601v56.45203l-48.88889,28.22601l-48.88889,-28.22601z" fill="#a57def"/><path d="M428.88889,478.63007l48.88889,-28.22601l48.88889,28.22601l-48.88889,28.22601z" fill="#f7bbff"/><path d="M526.66667,478.63007v56.45203l-48.88889,28.22601v-56.45203z" fill="#523e78"/></g><g><path d="M526.66667,478.63007l48.88889,-28.22601l48.88889,28.22601v56.45203l-48.88889,28.22601l-48.88889,-28.22601z" fill="#968ff6"/><path d="M526.66667,478.63007l48.88889,-28.22601l48.88889,28.22601l-48.88889,28.22601z" fill="#e2d7ff"/><path d="M624.44444,478.63007v56.45203l-48.88889,28.22601v-56.45203z" fill="#4b487b"/></g><g><path d="M624.44444,478.63007l48.88889,-28.22601l48.88889,28.22601v56.45203l-48.88889,28.22601l-48.88889,-28.22601z" fill="#8a92eb"/><path d="M624.44444,478.63007l48.88889,-28.22601l48.88889,28.22601l-48.88889,28.22601z" fill="#d0dbff"/><path d="M722.22222,478.63007v56.45203l-48.88889,28.22601v-56.45203z" fill="#454976"/></g><g><path d="M722.22222,478.63007l48.88889,-28.22601l48.88889,28.22601v56.45203l-48.88889,28.22601l-48.88889,-28.22601z" fill="#83a3f6"/><path d="M722.22222,478.63007l48.88889,-28.22601l48.88889,28.22601l-48.88889,28.22601z" fill="#c5f5ff"/><path d="M820,478.63007v56.45203l-48.88889,28.22601v-56.45203z" fill="#42527b"/></g><g><path d="M820,478.63007l48.88889,-28.22601l48.88889,28.22601v56.45203l-48.88889,28.22601l-48.88889,-28.22601z" fill="#9b92fa"/><path d="M820,478.63007l48.88889,-28.22601l48.88889,28.22601l-48.88889,28.22601z" fill="#e9dbff"/><path d="M917.77778,478.63007v56.45203l-48.88889,28.22601v-56.45203z" fill="#4e497d"/></g><g><path d="M917.77778,478.63007l48.88889,-28.22601l48.88889,28.22601v56.45203l-48.88889,28.22601l-48.88889,-28.22601z" fill="#ac84f3"/><path d="M917.77778,478.63007l48.88889,-28.22601l48.88889,28.22601l-48.88889,28.22601z" fill="#ffc6ff"/><path d="M1015.55556,478.63007v56.45203l-48.88889,28.22601v-56.45203z" fill="#564279"/></g><g><path d="M1015.55556,478.63007l48.88889,-28.22601l48.88889,28.22601v56.45203l-48.88889,28.22601l-48.88889,-28.22601z" fill="#b383f4"/><path d="M1015.55556,478.63007l48.88889,-28.22601l48.88889,28.22601l-48.88889,28.22601z" fill="#ffc5ff"/><path d="M1113.33333,478.63007v56.45203l-48.88889,28.22601v-56.45203z" fill="#59427a"/></g><g><path d="M1113.33333,478.63007l48.88889,-28.22601l48.88889,28.22601v56.45203l-48.88889,28.22601l-48.88889,-28.22601z" fill="#8da2e0"/><path d="M1113.33333,478.63007l48.88889,-28.22601l48.88889,28.22601l-48.88889,28.22601z" fill="#d4f3ff"/><path d="M1211.11111,478.63007v56.45203l-48.88889,28.22601v-56.45203z" fill="#475170"/></g><g><path d="M-11.11111,563.30811l48.88889,-28.22601l48.88889,28.22601v56.45203l-48.88889,28.22601l-48.88889,-28.22601z" fill="#5d78b1"/><path d="M-11.11111,563.30811l48.88889,-28.22601l48.88889,28.22601l-48.88889,28.22601z" fill="#8bb5ff"/><path d="M86.66667,563.30811v56.45203l-48.88889,28.22601v-56.45203z" fill="#2e3c58"/></g><g><path d="M86.66667,563.30811l48.88889,-28.22601l48.88889,28.22601v56.45203l-48.88889,28.22601l-48.88889,-28.22601z" fill="#7b8ddf"/><path d="M86.66667,563.30811l48.88889,-28.22601l48.88889,28.22601l-48.88889,28.22601z" fill="#b9d4ff"/><path d="M184.44444,563.30811v56.45203l-48.88889,28.22601v-56.45203z" fill="#3e4770"/></g><g><path d="M184.44444,563.30811l48.88889,-28.22601l48.88889,28.22601v56.45203l-48.88889,28.22601l-48.88889,-28.22601z" fill="#8e7fe4"/><path d="M184.44444,563.30811l48.88889,-28.22601l48.88889,28.22601l-48.88889,28.22601z" fill="#d6beff"/><path d="M282.22222,563.30811v56.45203l-48.88889,28.22601v-56.45203z" fill="#473f72"/></g><g><path d="M282.22222,563.30811l48.88889,-28.22601l48.88889,28.22601v56.45203l-48.88889,28.22601l-48.88889,-28.22601z" fill="#8f7cdd"/><path d="M282.22222,563.30811l48.88889,-28.22601l48.88889,28.22601l-48.88889,28.22601z" fill="#d6baff"/><path d="M380,563.30811v56.45203l-48.88889,28.22601v-56.45203z" fill="#473e6f"/></g><g><path d="M380,563.30811l48.88889,-28.22601l48.88889,28.22601v56.45203l-48.88889,28.22601l-48.88889,-28.22601z" fill="#7f86d5"/><path d="M380,563.30811l48.88889,-28.22601l48.88889,28.22601l-48.88889,28.22601z" fill="#bec9ff"/><path d="M477.77778,563.30811v56.45203l-48.88889,28.22601v-56.45203z" fill="#3f436b"/></g><g><path d="M477.77778,563.30811l48.88889,-28.22601l48.88889,28.22601v56.45203l-48.88889,28.22601l-48.88889,-28.22601z" fill="#8783dc"/><path d="M477.77778,563.30811l48.88889,-28.22601l48.88889,28.22601l-48.88889,28.22601z" fill="#cac4ff"/><path d="M575.55556,563.30811v56.45203l-48.88889,28.22601v-56.45203z" fill="#43416e"/></g><g><path d="M575.55556,563.30811l48.88889,-28.22601l48.88889,28.22601v56.45203l-48.88889,28.22601l-48.88889,-28.22601z" fill="#64a2e5"/><path d="M575.55556,563.30811l48.88889,-28.22601l48.88889,28.22601l-48.88889,28.22601z" fill="#95f3ff"/><path d="M673.33333,563.30811v56.45203l-48.88889,28.22601v-56.45203z" fill="#325173"/></g><g><path d="M673.33333,563.30811l48.88889,-28.22601l48.88889,28.22601v56.45203l-48.88889,28.22601l-48.88889,-28.22601z" fill="#817fca"/><path d="M673.33333,563.30811l48.88889,-28.22601l48.88889,28.22601l-48.88889,28.22601z" fill="#c2beff"/><path d="M771.11111,563.30811v56.45203l-48.88889,28.22601v-56.45203z" fill="#413f65"/></g><g><path d="M771.11111,563.30811l48.88889,-28.22601l48.88889,28.22601v56.45203l-48.88889,28.22601l-48.88889,-28.22601z" fill="#6d99e7"/><path d="M771.11111,563.30811l48.88889,-28.22601l48.88889,28.22601l-48.88889,28.22601z" fill="#a4e5ff"/><path d="M868.88889,563.30811v56.45203l-48.88889,28.22601v-56.45203z" fill="#374c74"/></g><g><path d="M868.88889,563.30811l48.88889,-28.22601l48.88889,28.22601v56.45203l-48.88889,28.22601l-48.88889,-28.22601z" fill="#c747cc"/><path d="M868.88889,563.30811l48.88889,-28.22601l48.88889,28.22601l-48.88889,28.22601z" fill="#ff6aff"/><path d="M966.66667,563.30811v56.45203l-48.88889,28.22601v-56.45203z" fill="#642366"/></g><g><path d="M966.66667,563.30811l48.88889,-28.22601l48.88889,28.22601v56.45203l-48.88889,28.22601l-48.88889,-28.22601z" fill="#cb45cd"/><path d="M966.66667,563.30811l48.88889,-28.22601l48.88889,28.22601l-48.88889,28.22601z" fill="#ff68ff"/><path d="M1064.44444,563.30811v56.45203l-48.88889,28.22601v-56.45203z" fill="#652367"/></g><g><path d="M1064.44444,563.30811l48.88889,-28.22601l48.88889,28.22601v56.45203l-48.88889,28.22601l-48.88889,-28.22601z" fill="#ac63c0"/><path d="M1064.44444,563.30811l48.88889,-28.22601l48.88889,28.22601l-48.88889,28.22601z" fill="#ff95ff"/><path d="M1162.22222,563.30811v56.45203l-48.88889,28.22601v-56.45203z" fill="#563260"/></g><g><path d="M1162.22222,563.30811l48.88889,-28.22601l48.88889,28.22601v56.45203l-48.88889,28.22601l-48.88889,-28.22601z" fill="#849cc1"/><path d="M1162.22222,563.30811l48.88889,-28.22601l48.88889,28.22601l-48.88889,28.22601z" fill="#c6eaff"/><path d="M1260,563.30811v56.45203l-48.88889,28.22601v-56.45203z" fill="#424e61"/></g><g><path d="M-60,647.98614l48.88889,-28.22601l48.88889,28.22601v56.45203l-48.88889,28.22601l-48.88889,-28.22601z" fill="#286e85"/><path d="M-60,647.98614l48.88889,-28.22601l48.88889,28.22601l-48.88889,28.22601z" fill="#3ba6c7"/><path d="M37.77778,647.98614v56.45203l-48.88889,28.22601v-56.45203z" fill="#143742"/></g><g><path d="M37.77778,647.98614l48.88889,-28.22601l48.88889,28.22601v56.45203l-48.88889,28.22601l-48.88889,-28.22601z" fill="#47b7e4"/><path d="M37.77778,647.98614l48.88889,-28.22601l48.88889,28.22601l-48.88889,28.22601z" fill="#6bffff"/><path d="M135.55556,647.98614v56.45203l-48.88889,28.22601v-56.45203z" fill="#245b72"/></g><g><path d="M135.55556,647.98614l48.88889,-28.22601l48.88889,28.22601v56.45203l-48.88889,28.22601l-48.88889,-28.22601z" fill="#45b9e4"/><path d="M135.55556,647.98614l48.88889,-28.22601l48.88889,28.22601l-48.88889,28.22601z" fill="#67ffff"/><path d="M233.33333,647.98614v56.45203l-48.88889,28.22601v-56.45203z" fill="#225c72"/></g><g><path d="M233.33333,647.98614l48.88889,-28.22601l48.88889,28.22601v56.45203l-48.88889,28.22601l-48.88889,-28.22601z" fill="#4eb4e6"/><path d="M233.33333,647.98614l48.88889,-28.22601l48.88889,28.22601l-48.88889,28.22601z" fill="#74ffff"/><path d="M331.11111,647.98614v56.45203l-48.88889,28.22601v-56.45203z" fill="#275a73"/></g><g><path d="M331.11111,647.98614l48.88889,-28.22601l48.88889,28.22601v56.45203l-48.88889,28.22601l-48.88889,-28.22601z" fill="#45b8e3"/><path d="M331.11111,647.98614l48.88889,-28.22601l48.88889,28.22601l-48.88889,28.22601z" fill="#68ffff"/><path d="M428.88889,647.98614v56.45203l-48.88889,28.22601v-56.45203z" fill="#235c71"/></g><g><path d="M428.88889,647.98614l48.88889,-28.22601l48.88889,28.22601v56.45203l-48.88889,28.22601l-48.88889,-28.22601z" fill="#50aedd"/><path d="M428.88889,647.98614l48.88889,-28.22601l48.88889,28.22601l-48.88889,28.22601z" fill="#78ffff"/><path d="M526.66667,647.98614v56.45203l-48.88889,28.22601v-56.45203z" fill="#28576f"/></g><g><path d="M526.66667,647.98614l48.88889,-28.22601l48.88889,28.22601v56.45203l-48.88889,28.22601l-48.88889,-28.22601z" fill="#4faedc"/><path d="M526.66667,647.98614l48.88889,-28.22601l48.88889,28.22601l-48.88889,28.22601z" fill="#76ffff"/><path d="M624.44444,647.98614v56.45203l-48.88889,28.22601v-56.45203z" fill="#27576e"/></g><g><path d="M624.44444,647.98614l48.88889,-28.22601l48.88889,28.22601v56.45203l-48.88889,28.22601l-48.88889,-28.22601z" fill="#48b5de"/><path d="M624.44444,647.98614l48.88889,-28.22601l48.88889,28.22601l-48.88889,28.22601z" fill="#6cffff"/><path d="M722.22222,647.98614v56.45203l-48.88889,28.22601v-56.45203z" fill="#245a6f"/></g><g><path d="M722.22222,647.98614l48.88889,-28.22601l48.88889,28.22601v56.45203l-48.88889,28.22601l-48.88889,-28.22601z" fill="#4faedd"/><path d="M722.22222,647.98614l48.88889,-28.22601l48.88889,28.22601l-48.88889,28.22601z" fill="#77ffff"/><path d="M820,647.98614v56.45203l-48.88889,28.22601v-56.45203z" fill="#28576e"/></g><g><path d="M820,647.98614l48.88889,-28.22601l48.88889,28.22601v56.45203l-48.88889,28.22601l-48.88889,-28.22601z" fill="#718bc9"/><path d="M820,647.98614l48.88889,-28.22601l48.88889,28.22601l-48.88889,28.22601z" fill="#aad1ff"/><path d="M917.77778,647.98614v56.45203l-48.88889,28.22601v-56.45203z" fill="#394664"/></g><g><path d="M917.77778,647.98614l48.88889,-28.22601l48.88889,28.22601v56.45203l-48.88889,28.22601l-48.88889,-28.22601z" fill="#955b95"/><path d="M917.77778,647.98614l48.88889,-28.22601l48.88889,28.22601l-48.88889,28.22601z" fill="#e088e0"/><path d="M1015.55556,647.98614v56.45203l-48.88889,28.22601v-56.45203z" fill="#4b2d4b"/></g><g><path d="M1015.55556,647.98614l48.88889,-28.22601l48.88889,28.22601v56.45203l-48.88889,28.22601l-48.88889,-28.22601z" fill="#8d608d"/><path d="M1015.55556,647.98614l48.88889,-28.22601l48.88889,28.22601l-48.88889,28.22601z" fill="#d490d4"/><path d="M1113.33333,647.98614v56.45203l-48.88889,28.22601v-56.45203z" fill="#473047"/></g><g><path d="M1113.33333,647.98614l48.88889,-28.22601l48.88889,28.22601v56.45203l-48.88889,28.22601l-48.88889,-28.22601z" fill="#8f5f90"/><path d="M1113.33333,647.98614l48.88889,-28.22601l48.88889,28.22601l-48.88889,28.22601z" fill="#d68fd8"/><path d="M1211.11111,647.98614v56.45203l-48.88889,28.22601v-56.45203z" fill="#473048"/></g><g><path d="M-11.11111,732.66418l48.88889,-28.22601l48.88889,28.22601v56.45203l-48.88889,28.22601l-48.88889,-28.22601z" fill="#000000"/><path d="M-11.11111,732.66418l48.88889,-28.22601l48.88889,28.22601l-48.88889,28.22601z" fill="#ffffff"/><path d="M86.66667,732.66418v56.45203l-48.88889,28.22601v-56.45203z" fill="#000000"/></g><g><path d="M86.66667,732.66418l48.88889,-28.22601l48.88889,28.22601v56.45203l-48.88889,28.22601l-48.88889,-28.22601z" fill="#000000"/><path d="M86.66667,732.66418l48.88889,-28.22601l48.88889,28.22601l-48.88889,28.22601z" fill="#ffffff"/><path d="M184.44444,732.66418v56.45203l-48.88889,28.22601v-56.45203z" fill="#000000"/></g><g><path d="M184.44444,732.66418l48.88889,-28.22601l48.88889,28.22601v56.45203l-48.88889,28.22601l-48.88889,-28.22601z" fill="#000000"/><path d="M184.44444,732.66418l48.88889,-28.22601l48.88889,28.22601l-48.88889,28.22601z" fill="#ffffff"/><path d="M282.22222,732.66418v56.45203l-48.88889,28.22601v-56.45203z" fill="#000000"/></g><g><path d="M282.22222,732.66418l48.88889,-28.22601l48.88889,28.22601v56.45203l-48.88889,28.22601l-48.88889,-28.22601z" fill="#000000"/><path d="M282.22222,732.66418l48.88889,-28.22601l48.88889,28.22601l-48.88889,28.22601z" fill="#ffffff"/><path d="M380,732.66418v56.45203l-48.88889,28.22601v-56.45203z" fill="#000000"/></g><g><path d="M380,732.66418l48.88889,-28.22601l48.88889,28.22601v56.45203l-48.88889,28.22601l-48.88889,-28.22601z" fill="#000000"/><path d="M380,732.66418l48.88889,-28.22601l48.88889,28.22601l-48.88889,28.22601z" fill="#ffffff"/><path d="M477.77778,732.66418v56.45203l-48.88889,28.22601v-56.45203z" fill="#000000"/></g><g><path d="M477.77778,732.66418l48.88889,-28.22601l48.88889,28.22601v56.45203l-48.88889,28.22601l-48.88889,-28.22601z" fill="#000000"/><path d="M477.77778,732.66418l48.88889,-28.22601l48.88889,28.22601l-48.88889,28.22601z" fill="#ffffff"/><path d="M575.55556,732.66418v56.45203l-48.88889,28.22601v-56.45203z" fill="#000000"/></g><g><path d="M575.55556,732.66418l48.88889,-28.22601l48.88889,28.22601v56.45203l-48.88889,28.22601l-48.88889,-28.22601z" fill="#000000"/><path d="M575.55556,732.66418l48.88889,-28.22601l48.88889,28.22601l-48.88889,28.22601z" fill="#ffffff"/><path d="M673.33333,732.66418v56.45203l-48.88889,28.22601v-56.45203z" fill="#000000"/></g><g><path d="M673.33333,732.66418l48.88889,-28.22601l48.88889,28.22601v56.45203l-48.88889,28.22601l-48.88889,-28.22601z" fill="#000000"/><path d="M673.33333,732.66418l48.88889,-28.22601l48.88889,28.22601l-48.88889,28.22601z" fill="#ffffff"/><path d="M771.11111,732.66418v56.45203l-48.88889,28.22601v-56.45203z" fill="#000000"/></g><g><path d="M771.11111,732.66418l48.88889,-28.22601l48.88889,28.22601v56.45203l-48.88889,28.22601l-48.88889,-28.22601z" fill="#000000"/><path d="M771.11111,732.66418l48.88889,-28.22601l48.88889,28.22601l-48.88889,28.22601z" fill="#ffffff"/><path d="M868.88889,732.66418v56.45203l-48.88889,28.22601v-56.45203z" fill="#000000"/></g><g><path d="M868.88889,732.66418l48.88889,-28.22601l48.88889,28.22601v56.45203l-48.88889,28.22601l-48.88889,-28.22601z" fill="#000000"/><path d="M868.88889,732.66418l48.88889,-28.22601l48.88889,28.22601l-48.88889,28.22601z" fill="#ffffff"/><path d="M966.66667,732.66418v56.45203l-48.88889,28.22601v-56.45203z" fill="#000000"/></g><g><path d="M966.66667,732.66418l48.88889,-28.22601l48.88889,28.22601v56.45203l-48.88889,28.22601l-48.88889,-28.22601z" fill="#000000"/><path d="M966.66667,732.66418l48.88889,-28.22601l48.88889,28.22601l-48.88889,28.22601z" fill="#ffffff"/><path d="M1064.44444,732.66418v56.45203l-48.88889,28.22601v-56.45203z" fill="#000000"/></g><g><path d="M1064.44444,732.66418l48.88889,-28.22601l48.88889,28.22601v56.45203l-48.88889,28.22601l-48.88889,-28.22601z" fill="#000000"/><path d="M1064.44444,732.66418l48.88889,-28.22601l48.88889,28.22601l-48.88889,28.22601z" fill="#ffffff"/><path d="M1162.22222,732.66418v56.45203l-48.88889,28.22601v-56.45203z" fill="#000000"/></g><g><path d="M1162.22222,732.66418l48.88889,-28.22601l48.88889,28.22601v56.45203l-48.88889,28.22601l-48.88889,-28.22601z" fill="#000000"/><path d="M1162.22222,732.66418l48.88889,-28.22601l48.88889,28.22601l-48.88889,28.22601z" fill="#ffffff"/><path d="M1260,732.66418v56.45203l-48.88889,28.22601v-56.45203z" fill="#000000"/></g><g><path d="M-60,817.34222l48.88889,-28.22601l48.88889,28.22601v56.45203l-48.88889,28.22601l-48.88889,-28.22601z" fill="#000000"/><path d="M-60,817.34222l48.88889,-28.22601l48.88889,28.22601l-48.88889,28.22601z" fill="#ffffff"/><path d="M37.77778,817.34222v56.45203l-48.88889,28.22601v-56.45203z" fill="#000000"/></g><g><path d="M37.77778,817.34222l48.88889,-28.22601l48.88889,28.22601v56.45203l-48.88889,28.22601l-48.88889,-28.22601z" fill="#000000"/><path d="M37.77778,817.34222l48.88889,-28.22601l48.88889,28.22601l-48.88889,28.22601z" fill="#ffffff"/><path d="M135.55556,817.34222v56.45203l-48.88889,28.22601v-56.45203z" fill="#000000"/></g><g><path d="M135.55556,817.34222l48.88889,-28.22601l48.88889,28.22601v56.45203l-48.88889,28.22601l-48.88889,-28.22601z" fill="#000000"/><path d="M135.55556,817.34222l48.88889,-28.22601l48.88889,28.22601l-48.88889,28.22601z" fill="#ffffff"/><path d="M233.33333,817.34222v56.45203l-48.88889,28.22601v-56.45203z" fill="#000000"/></g><g><path d="M233.33333,817.34222l48.88889,-28.22601l48.88889,28.22601v56.45203l-48.88889,28.22601l-48.88889,-28.22601z" fill="#000000"/><path d="M233.33333,817.34222l48.88889,-28.22601l48.88889,28.22601l-48.88889,28.22601z" fill="#ffffff"/><path d="M331.11111,817.34222v56.45203l-48.88889,28.22601v-56.45203z" fill="#000000"/></g><g><path d="M331.11111,817.34222l48.88889,-28.22601l48.88889,28.22601v56.45203l-48.88889,28.22601l-48.88889,-28.22601z" fill="#000000"/><path d="M331.11111,817.34222l48.88889,-28.22601l48.88889,28.22601l-48.88889,28.22601z" fill="#ffffff"/><path d="M428.88889,817.34222v56.45203l-48.88889,28.22601v-56.45203z" fill="#000000"/></g><g><path d="M428.88889,817.34222l48.88889,-28.22601l48.88889,28.22601v56.45203l-48.88889,28.22601l-48.88889,-28.22601z" fill="#000000"/><path d="M428.88889,817.34222l48.88889,-28.22601l48.88889,28.22601l-48.88889,28.22601z" fill="#ffffff"/><path d="M526.66667,817.34222v56.45203l-48.88889,28.22601v-56.45203z" fill="#000000"/></g><g><path d="M526.66667,817.34222l48.88889,-28.22601l48.88889,28.22601v56.45203l-48.88889,28.22601l-48.88889,-28.22601z" fill="#000000"/><path d="M526.66667,817.34222l48.88889,-28.22601l48.88889,28.22601l-48.88889,28.22601z" fill="#ffffff"/><path d="M624.44444,817.34222v56.45203l-48.88889,28.22601v-56.45203z" fill="#000000"/></g><g><path d="M624.44444,817.34222l48.88889,-28.22601l48.88889,28.22601v56.45203l-48.88889,28.22601l-48.88889,-28.22601z" fill="#000000"/><path d="M624.44444,817.34222l48.88889,-28.22601l48.88889,28.22601l-48.88889,28.22601z" fill="#ffffff"/><path d="M722.22222,817.34222v56.45203l-48.88889,28.22601v-56.45203z" fill="#000000"/></g><g><path d="M722.22222,817.34222l48.88889,-28.22601l48.88889,28.22601v56.45203l-48.88889,28.22601l-48.88889,-28.22601z" fill="#000000"/><path d="M722.22222,817.34222l48.88889,-28.22601l48.88889,28.22601l-48.88889,28.22601z" fill="#ffffff"/><path d="M820,817.34222v56.45203l-48.88889,28.22601v-56.45203z" fill="#000000"/></g><g><path d="M820,817.34222l48.88889,-28.22601l48.88889,28.22601v56.45203l-48.88889,28.22601l-48.88889,-28.22601z" fill="#000000"/><path d="M820,817.34222l48.88889,-28.22601l48.88889,28.22601l-48.88889,28.22601z" fill="#ffffff"/><path d="M917.77778,817.34222v56.45203l-48.88889,28.22601v-56.45203z" fill="#000000"/></g><g><path d="M917.77778,817.34222l48.88889,-28.22601l48.88889,28.22601v56.45203l-48.88889,28.22601l-48.88889,-28.22601z" fill="#000000"/><path d="M917.77778,817.34222l48.88889,-28.22601l48.88889,28.22601l-48.88889,28.22601z" fill="#ffffff"/><path d="M1015.55556,817.34222v56.45203l-48.88889,28.22601v-56.45203z" fill="#000000"/></g><g><path d="M1015.55556,817.34222l48.88889,-28.22601l48.88889,28.22601v56.45203l-48.88889,28.22601l-48.88889,-28.22601z" fill="#000000"/><path d="M1015.55556,817.34222l48.88889,-28.22601l48.88889,28.22601l-48.88889,28.22601z" fill="#ffffff"/><path d="M1113.33333,817.34222v56.45203l-48.88889,28.22601v-56.45203z" fill="#000000"/></g><g><path d="M1113.33333,817.34222l48.88889,-28.22601l48.88889,28.22601v56.45203l-48.88889,28.22601l-48.88889,-28.22601z" fill="#000000"/><path d="M1113.33333,817.34222l48.88889,-28.22601l48.88889,28.22601l-48.88889,28.22601z" fill="#ffffff"/><path d="M1211.11111,817.34222v56.45203l-48.88889,28.22601v-56.45203z" fill="#000000"/></g></g></g></svg>