<svg version="1.1" xmlns="http://www.w3.org/2000/svg" xmlns:xlink="http://www.w3.org/1999/xlink" width="1200" height="675" viewBox="0,0,1200,675"><g fill="none" fill-rule="nonzero" stroke="none" stroke-width="1" stroke-linecap="butt" stroke-linejoin="miter" stroke-miterlimit="10" stroke-dasharray="" stroke-dashoffset="0" font-family="none" font-weight="none" font-size="none" text-anchor="none" style="mix-blend-mode: normal"><g><g><path d="M-126,-252.42368l53.77778,-31.04861l53.77778,31.04861v62.09723l-53.77778,31.04861l-53.77778,-31.04861z" fill="#000000"/><path d="M-126,-252.42368l53.77778,-31.04861l53.77778,31.04861l-53.77778,31.04861z" fill="#ffffff"/><path d="M-18.44444,-252.42368v62.09723l-53.77778,31.04861v-62.09723z" fill="#000000"/></g><g><path d="M-18.44444,-252.42368l53.77778,-31.04861l53.77778,31.04861v62.09723l-53.77778,31.04861l-53.77778,-31.04861z" fill="#000000"/><path d="M-18.44444,-252.42368l53.77778,-31.04861l53.77778,31.04861l-53.77778,31.04861z" fill="#ffffff"/><path d="M89.11111,-252.42368v62.09723l-53.77778,31.04861v-62.09723z" fill="#000000"/></g><g><path d="M89.11111,-252.42368l53.77778,-31.04861l53.77778,31.04861v62.09723l-53.77778,31.04861l-53.77778,-31.04861z" fill="#000000"/><path d="M89.11111,-252.42368l53.77778,-31.04861l53.77778,31.04861l-53.77778,31.04861z" fill="#ffffff"/><path d="M196.66667,-252.42368v62.09723l-53.77778,31.04861v-62.09723z" fill="#000000"/></g><g><path d="M196.66667,-252.42368l53.77778,-31.04861l53.77778,31.04861v62.09723l-53.77778,31.04861l-53.77778,-31.04861z" fill="#000000"/><path d="M196.66667,-252.42368l53.77778,-31.04861l53.77778,31.04861l-53.77778,31.04861z" fill="#ffffff"/><path d="M304.22222,-252.42368v62.09723l-53.77778,31.04861v-62.09723z" fill="#000000"/></g><g><path d="M304.22222,-252.42368l53.77778,-31.04861l53.77778,31.04861v62.09723l-53.77778,31.04861l-53.77778,-31.04861z" fill="#000000"/><path d="M304.22222,-252.42368l53.77778,-31.04861l53.77778,31.04861l-53.77778,31.04861z" fill="#ffffff"/><path d="M411.77778,-252.42368v62.09723l-53.77778,31.04861v-62.09723z" fill="#000000"/></g><g><path d="M411.77778,-252.42368l53.77778,-31.04861l53.77778,31.04861v62.09723l-53.77778,31.04861l-53.77778,-31.04861z" fill="#000000"/><path d="M411.77778,-252.42368l53.77778,-31.04861l53.77778,31.04861l-53.77778,31.04861z" fill="#ffffff"/><path d="M519.33333,-252.42368v62.09723l-53.77778,31.04861v-62.09723z" fill="#000000"/></g><g><path d="M519.33333,-252.42368l53.77778,-31.04861l53.77778,31.04861v62.09723l-53.77778,31.04861l-53.77778,-31.04861z" fill="#000000"/><path d="M519.33333,-252.42368l53.77778,-31.04861l53.77778,31.04861l-53.77778,31.04861z" fill="#ffffff"/><path d="M626.88889,-252.42368v62.09723l-53.77778,31.04861v-62.09723z" fill="#000000"/></g><g><path d="M626.88889,-252.42368l53.77778,-31.04861l53.77778,31.04861v62.09723l-53.77778,31.04861l-53.77778,-31.04861z" fill="#000000"/><path d="M626.88889,-252.42368l53.77778,-31.04861l53.77778,31.04861l-53.77778,31.04861z" fill="#ffffff"/><path d="M734.44444,-252.42368v62.09723l-53.77778,31.04861v-62.09723z" fill="#000000"/></g><g><path d="M734.44444,-252.42368l53.77778,-31.04861l53.77778,31.04861v62.09723l-53.77778,31.04861l-53.77778,-31.04861z" fill="#000000"/><path d="M734.44444,-252.42368l53.77778,-31.04861l53.77778,31.04861l-53.77778,31.04861z" fill="#ffffff"/><path d="M842,-252.42368v62.09723l-53.77778,31.04861v-62.09723z" fill="#000000"/></g><g><path d="M842,-252.42368l53.77778,-31.04861l53.77778,31.04861v62.09723l-53.77778,31.04861l-53.77778,-31.04861z" fill="#000000"/><path d="M842,-252.42368l53.77778,-31.04861l53.77778,31.04861l-53.77778,31.04861z" fill="#ffffff"/><path d="M949.55556,-252.42368v62.09723l-53.77778,31.04861v-62.09723z" fill="#000000"/></g><g><path d="M949.55556,-252.42368l53.77778,-31.04861l53.77778,31.04861v62.09723l-53.77778,31.04861l-53.77778,-31.04861z" fill="#000000"/><path d="M949.55556,-252.42368l53.77778,-31.04861l53.77778,31.04861l-53.77778,31.04861z" fill="#ffffff"/><path d="M1057.11111,-252.42368v62.09723l-53.77778,31.04861v-62.09723z" fill="#000000"/></g><g><path d="M1057.11111,-252.42368l53.77778,-31.04861l53.77778,31.04861v62.09723l-53.77778,31.04861l-53.77778,-31.04861z" fill="#000000"/><path d="M1057.11111,-252.42368l53.77778,-31.04861l53.77778,31.04861l-53.77778,31.04861z" fill="#ffffff"/><path d="M1164.66667,-252.42368v62.09723l-53.77778,31.04861v-62.09723z" fill="#000000"/></g><g><path d="M1164.66667,-252.42368l53.77778,-31.04861l53.77778,31.04861v62.09723l-53.77778,31.04861l-53.77778,-31.04861z" fill="#000000"/><path d="M1164.66667,-252.42368l53.77778,-31.04861l53.77778,31.04861l-53.77778,31.04861z" fill="#ffffff"/><path d="M1272.22222,-252.42368v62.09723l-53.77778,31.04861v-62.09723z" fill="#000000"/></g><g><path d="M-72.22222,-159.27783l53.77778,-31.04861l53.77778,31.04861v62.09723l-53.77778,31.04861l-53.77778,-31.04861z" fill="#000000"/><path d="M-72.22222,-159.27783l53.77778,-31.04861l53.77778,31.04861l-53.77778,31.04861z" fill="#ffffff"/><path d="M35.33333,-159.27783v62.09723l-53.77778,31.04861v-62.09723z" fill="#000000"/></g><g><path d="M35.33333,-159.27783l53.77778,-31.04861l53.77778,31.04861v62.09723l-53.77778,31.04861l-53.77778,-31.04861z" fill="#000000"/><path d="M35.33333,-159.27783l53.77778,-31.04861l53.77778,31.04861l-53.77778,31.04861z" fill="#ffffff"/><path d="M142.88889,-159.27783v62.09723l-53.77778,31.04861v-62.09723z" fill="#000000"/></g><g><path d="M142.88889,-159.27783l53.77778,-31.04861l53.77778,31.04861v62.09723l-53.77778,31.04861l-53.77778,-31.04861z" fill="#000000"/><path d="M142.88889,-159.27783l53.77778,-31.04861l53.77778,31.04861l-53.77778,31.04861z" fill="#ffffff"/><path d="M250.44444,-159.27783v62.09723l-53.77778,31.04861v-62.09723z" fill="#000000"/></g><g><path d="M250.44444,-159.27783l53.77778,-31.04861l53.77778,31.04861v62.09723l-53.77778,31.04861l-53.77778,-31.04861z" fill="#000000"/><path d="M250.44444,-159.27783l53.77778,-31.04861l53.77778,31.04861l-53.77778,31.04861z" fill="#ffffff"/><path d="M358,-159.27783v62.09723l-53.77778,31.04861v-62.09723z" fill="#000000"/></g><g><path d="M358,-159.27783l53.77778,-31.04861l53.77778,31.04861v62.09723l-53.77778,31.04861l-53.77778,-31.04861z" fill="#000000"/><path d="M358,-159.27783l53.77778,-31.04861l53.77778,31.04861l-53.77778,31.04861z" fill="#ffffff"/><path d="M465.55556,-159.27783v62.09723l-53.77778,31.04861v-62.09723z" fill="#000000"/></g><g><path d="M465.55556,-159.27783l53.77778,-31.04861l53.77778,31.04861v62.09723l-53.77778,31.04861l-53.77778,-31.04861z" fill="#000000"/><path d="M465.55556,-159.27783l53.77778,-31.04861l53.77778,31.04861l-53.77778,31.04861z" fill="#ffffff"/><path d="M573.11111,-159.27783v62.09723l-53.77778,31.04861v-62.09723z" fill="#000000"/></g><g><path d="M573.11111,-159.27783l53.77778,-31.04861l53.77778,31.04861v62.09723l-53.77778,31.04861l-53.77778,-31.04861z" fill="#000000"/><path d="M573.11111,-159.27783l53.77778,-31.04861l53.77778,31.04861l-53.77778,31.04861z" fill="#ffffff"/><path d="M680.66667,-159.27783v62.09723l-53.77778,31.04861v-62.09723z" fill="#000000"/></g><g><path d="M680.66667,-159.27783l53.77778,-31.04861l53.77778,31.04861v62.09723l-53.77778,31.04861l-53.77778,-31.04861z" fill="#000000"/><path d="M680.66667,-159.27783l53.77778,-31.04861l53.77778,31.04861l-53.77778,31.04861z" fill="#ffffff"/><path d="M788.22222,-159.27783v62.09723l-53.77778,31.04861v-62.09723z" fill="#000000"/></g><g><path d="M788.22222,-159.27783l53.77778,-31.04861l53.77778,31.04861v62.09723l-53.77778,31.04861l-53.77778,-31.04861z" fill="#000000"/><path d="M788.22222,-159.27783l53.77778,-31.04861l53.77778,31.04861l-53.77778,31.04861z" fill="#ffffff"/><path d="M895.77778,-159.27783v62.09723l-53.77778,31.04861v-62.09723z" fill="#000000"/></g><g><path d="M895.77778,-159.27783l53.77778,-31.04861l53.77778,31.04861v62.09723l-53.77778,31.04861l-53.77778,-31.04861z" fill="#000000"/><path d="M895.77778,-159.27783l53.77778,-31.04861l53.77778,31.04861l-53.77778,31.04861z" fill="#ffffff"/><path d="M1003.33333,-159.27783v62.09723l-53.77778,31.04861v-62.09723z" fill="#000000"/></g><g><path d="M1003.33333,-159.27783l53.77778,-31.04861l53.77778,31.04861v62.09723l-53.77778,31.04861l-53.77778,-31.04861z" fill="#000000"/><path d="M1003.33333,-159.27783l53.77778,-31.04861l53.77778,31.04861l-53.77778,31.04861z" fill="#ffffff"/><path d="M1110.88889,-159.27783v62.09723l-53.77778,31.04861v-62.09723z" fill="#000000"/></g><g><path d="M1110.88889,-159.27783l53.77778,-31.04861l53.77778,31.04861v62.09723l-53.77778,31.04861l-53.77778,-31.04861z" fill="#000000"/><path d="M1110.88889,-159.27783l53.77778,-31.04861l53.77778,31.04861l-53.77778,31.04861z" fill="#ffffff"/><path d="M1218.44444,-159.27783v62.09723l-53.77778,31.04861v-62.09723z" fill="#000000"/></g><g><path d="M1218.44444,-159.27783l53.77778,-31.04861l53.77778,31.04861v62.09723l-53.77778,31.04861l-53.77778,-31.04861z" fill="#000000"/><path d="M1218.44444,-159.27783l53.77778,-31.04861l53.77778,31.04861l-53.77778,31.04861z" fill="#ffffff"/><path d="M1326,-159.27783v62.09723l-53.77778,31.04861v-62.09723z" fill="#000000"/></g><g><path d="M-126,-66.13199l53.77778,-31.04861l53.77778,31.04861v62.09723l-53.77778,31.04861l-53.77778,-31.04861z" fill="#836784"/><path d="M-126,-66.13199l53.77778,-31.04861l53.77778,31.04861l-53.77778,31.04861z" fill="#c59ac6"/><path d="M-18.44444,-66.13199v62.09723l-53.77778,31.04861v-62.09723z" fill="#423342"/></g><g><path d="M-18.44444,-66.13199l53.77778,-31.04861l53.77778,31.04861v62.09723l-53.77778,31.04861l-53.77778,-31.04861z" fill="#d09fdb"/><path d="M-18.44444,-66.13199l53.77778,-31.04861l53.77778,31.04861l-53.77778,31.04861z" fill="#ffefff"/><path d="M89.11111,-66.13199v62.09723l-53.77778,31.04861v-62.09723z" fill="#68506e"/></g><g><path d="M89.11111,-66.13199l53.77778,-31.04861l53.77778,31.04861v62.09723l-53.77778,31.04861l-53.77778,-31.04861z" fill="#c4aad8"/><path d="M89.11111,-66.13199l53.77778,-31.04861l53.77778,31.04861l-53.77778,31.04861z" fill="#ffffff"/><path d="M196.66667,-66.13199v62.09723l-53.77778,31.04861v-62.09723z" fill="#62556c"/></g><g><path d="M196.66667,-66.13199l53.77778,-31.04861l53.77778,31.04861v62.09723l-53.77778,31.04861l-53.77778,-31.04861z" fill="#bfb0d4"/><path d="M196.66667,-66.13199l53.77778,-31.04861l53.77778,31.04861l-53.77778,31.04861z" fill="#ffffff"/><path d="M304.22222,-66.13199v62.09723l-53.77778,31.04861v-62.09723z" fill="#60586a"/></g><g><path d="M304.22222,-66.13199l53.77778,-31.04861l53.77778,31.04861v62.09723l-53.77778,31.04861l-53.77778,-31.04861z" fill="#cca1d7"/><path d="M304.22222,-66.13199l53.77778,-31.04861l53.77778,31.04861l-53.77778,31.04861z" fill="#fff2ff"/><path d="M411.77778,-66.13199v62.09723l-53.77778,31.04861v-62.09723z" fill="#66516c"/></g><g><path d="M411.77778,-66.13199l53.77778,-31.04861l53.77778,31.04861v62.09723l-53.77778,31.04861l-53.77778,-31.04861z" fill="#c69ec6"/><path d="M411.77778,-66.13199l53.77778,-31.04861l53.77778,31.04861l-53.77778,31.04861z" fill="#ffedff"/><path d="M519.33333,-66.13199v62.09723l-53.77778,31.04861v-62.09723z" fill="#634f63"/></g><g><path d="M519.33333,-66.13199l53.77778,-31.04861l53.77778,31.04861v62.09723l-53.77778,31.04861l-53.77778,-31.04861z" fill="#c89cc8"/><path d="M519.33333,-66.13199l53.77778,-31.04861l53.77778,31.04861l-53.77778,31.04861z" fill="#ffe9ff"/><path d="M626.88889,-66.13199v62.09723l-53.77778,31.04861v-62.09723z" fill="#644e64"/></g><g><path d="M626.88889,-66.13199l53.77778,-31.04861l53.77778,31.04861v62.09723l-53.77778,31.04861l-53.77778,-31.04861z" fill="#c99cc9"/><path d="M626.88889,-66.13199l53.77778,-31.04861l53.77778,31.04861l-53.77778,31.04861z" fill="#ffeaff"/><path d="M734.44444,-66.13199v62.09723l-53.77778,31.04861v-62.09723z" fill="#654e65"/></g><g><path d="M734.44444,-66.13199l53.77778,-31.04861l53.77778,31.04861v62.09723l-53.77778,31.04861l-53.77778,-31.04861z" fill="#c699c6"/><path d="M734.44444,-66.13199l53.77778,-31.04861l53.77778,31.04861l-53.77778,31.04861z" fill="#ffe5ff"/><path d="M842,-66.13199v62.09723l-53.77778,31.04861v-62.09723z" fill="#634c63"/></g><g><path d="M842,-66.13199l53.77778,-31.04861l53.77778,31.04861v62.09723l-53.77778,31.04861l-53.77778,-31.04861z" fill="#c29ac2"/><path d="M842,-66.13199l53.77778,-31.04861l53.77778,31.04861l-53.77778,31.04861z" fill="#ffe7ff"/><path d="M949.55556,-66.13199v62.09723l-53.77778,31.04861v-62.09723z" fill="#614d61"/></g><g><path d="M949.55556,-66.13199l53.77778,-31.04861l53.77778,31.04861v62.09723l-53.77778,31.04861l-53.77778,-31.04861z" fill="#bba7bb"/><path d="M949.55556,-66.13199l53.77778,-31.04861l53.77778,31.04861l-53.77778,31.04861z" fill="#fffaff"/><path d="M1057.11111,-66.13199v62.09723l-53.77778,31.04861v-62.09723z" fill="#5d535d"/></g><g><path d="M1057.11111,-66.13199l53.77778,-31.04861l53.77778,31.04861v62.09723l-53.77778,31.04861l-53.77778,-31.04861z" fill="#bf9fbf"/><path d="M1057.11111,-66.13199l53.77778,-31.04861l53.77778,31.04861l-53.77778,31.04861z" fill="#ffeeff"/><path d="M1164.66667,-66.13199v62.09723l-53.77778,31.04861v-62.09723z" fill="#604f60"/></g><g><path d="M1164.66667,-66.13199l53.77778,-31.04861l53.77778,31.04861v62.09723l-53.77778,31.04861l-53.77778,-31.04861z" fill="#bca6bc"/><path d="M1164.66667,-66.13199l53.77778,-31.04861l53.77778,31.04861l-53.77778,31.04861z" fill="#fff9ff"/><path d="M1272.22222,-66.13199v62.09723l-53.77778,31.04861v-62.09723z" fill="#5e535e"/></g><g><path d="M-72.22222,27.01386l53.77778,-31.04861l53.77778,31.04861v62.09723l-53.77778,31.04861l-53.77778,-31.04861z" fill="#ad5fad"/><path d="M-72.22222,27.01386l53.77778,-31.04861l53.77778,31.04861l-53.77778,31.04861z" fill="#ff8eff"/><path d="M35.33333,27.01386v62.09723l-53.77778,31.04861v-62.09723z" fill="#562f56"/></g><g><path d="M35.33333,27.01386l53.77778,-31.04861l53.77778,31.04861v62.09723l-53.77778,31.04861l-53.77778,-31.04861z" fill="#d06dd1"/><path d="M35.33333,27.01386l53.77778,-31.04861l53.77778,31.04861l-53.77778,31.04861z" fill="#ffa4ff"/><path d="M142.88889,27.01386v62.09723l-53.77778,31.04861v-62.09723z" fill="#683768"/></g><g><path d="M142.88889,27.01386l53.77778,-31.04861l53.77778,31.04861v62.09723l-53.77778,31.04861l-53.77778,-31.04861z" fill="#cd6dce"/><path d="M142.88889,27.01386l53.77778,-31.04861l53.77778,31.04861l-53.77778,31.04861z" fill="#ffa3ff"/><path d="M250.44444,27.01386v62.09723l-53.77778,31.04861v-62.09723z" fill="#673667"/></g><g><path d="M250.44444,27.01386l53.77778,-31.04861l53.77778,31.04861v62.09723l-53.77778,31.04861l-53.77778,-31.04861z" fill="#d269d2"/><path d="M250.44444,27.01386l53.77778,-31.04861l53.77778,31.04861l-53.77778,31.04861z" fill="#ff9eff"/><path d="M358,27.01386v62.09723l-53.77778,31.04861v-62.09723z" fill="#693569"/></g><g><path d="M358,27.01386l53.77778,-31.04861l53.77778,31.04861v62.09723l-53.77778,31.04861l-53.77778,-31.04861z" fill="#ce6ace"/><path d="M358,27.01386l53.77778,-31.04861l53.77778,31.04861l-53.77778,31.04861z" fill="#ff9fff"/><path d="M465.55556,27.01386v62.09723l-53.77778,31.04861v-62.09723z" fill="#673567"/></g><g><path d="M465.55556,27.01386l53.77778,-31.04861l53.77778,31.04861v62.09723l-53.77778,31.04861l-53.77778,-31.04861z" fill="#d06cd0"/><path d="M465.55556,27.01386l53.77778,-31.04861l53.77778,31.04861l-53.77778,31.04861z" fill="#ffa1ff"/><path d="M573.11111,27.01386v62.09723l-53.77778,31.04861v-62.09723z" fill="#683668"/></g><g><path d="M573.11111,27.01386l53.77778,-31.04861l53.77778,31.04861v62.09723l-53.77778,31.04861l-53.77778,-31.04861z" fill="#cd6dcd"/><path d="M573.11111,27.01386l53.77778,-31.04861l53.77778,31.04861l-53.77778,31.04861z" fill="#ffa4ff"/><path d="M680.66667,27.01386v62.09723l-53.77778,31.04861v-62.09723z" fill="#673767"/></g><g><path d="M680.66667,27.01386l53.77778,-31.04861l53.77778,31.04861v62.09723l-53.77778,31.04861l-53.77778,-31.04861z" fill="#cf6ccf"/><path d="M680.66667,27.01386l53.77778,-31.04861l53.77778,31.04861l-53.77778,31.04861z" fill="#ffa1ff"/><path d="M788.22222,27.01386v62.09723l-53.77778,31.04861v-62.09723z" fill="#683668"/></g><g><path d="M788.22222,27.01386l53.77778,-31.04861l53.77778,31.04861v62.09723l-53.77778,31.04861l-53.77778,-31.04861z" fill="#e047e0"/><path d="M788.22222,27.01386l53.77778,-31.04861l53.77778,31.04861l-53.77778,31.04861z" fill="#ff6bff"/><path d="M895.77778,27.01386v62.09723l-53.77778,31.04861v-62.09723z" fill="#702470"/></g><g><path d="M895.77778,27.01386l53.77778,-31.04861l53.77778,31.04861v62.09723l-53.77778,31.04861l-53.77778,-31.04861z" fill="#e04be0"/><path d="M895.77778,27.01386l53.77778,-31.04861l53.77778,31.04861l-53.77778,31.04861z" fill="#ff71ff"/><path d="M1003.33333,27.01386v62.09723l-53.77778,31.04861v-62.09723z" fill="#702670"/></g><g><path d="M1003.33333,27.01386l53.77778,-31.04861l53.77778,31.04861v62.09723l-53.77778,31.04861l-53.77778,-31.04861z" fill="#dc54dc"/><path d="M1003.33333,27.01386l53.77778,-31.04861l53.77778,31.04861l-53.77778,31.04861z" fill="#ff7fff"/><path d="M1110.88889,27.01386v62.09723l-53.77778,31.04861v-62.09723z" fill="#6e2a6e"/></g><g><path d="M1110.88889,27.01386l53.77778,-31.04861l53.77778,31.04861v62.09723l-53.77778,31.04861l-53.77778,-31.04861z" fill="#cf69cf"/><path d="M1110.88889,27.01386l53.77778,-31.04861l53.77778,31.04861l-53.77778,31.04861z" fill="#ff9eff"/><path d="M1218.44444,27.01386v62.09723l-53.77778,31.04861v-62.09723z" fill="#673567"/></g><g><path d="M1218.44444,27.01386l53.77778,-31.04861l53.77778,31.04861v62.09723l-53.77778,31.04861l-53.77778,-31.04861z" fill="#db51db"/><path d="M1218.44444,27.01386l53.77778,-31.04861l53.77778,31.04861l-53.77778,31.04861z" fill="#ff79ff"/><path d="M1326,27.01386v62.09723l-53.77778,31.04861v-62.09723z" fill="#6d286d"/></g><g><path d="M-126,120.1597l53.77778,-31.04861l53.77778,31.04861v62.09723l-53.77778,31.04861l-53.77778,-31.04861z" fill="#7c337c"/><path d="M-126,120.1597l53.77778,-31.04861l53.77778,31.04861l-53.77778,31.04861z" fill="#b94cb9"/><path d="M-18.44444,120.1597v62.09723l-53.77778,31.04861v-62.09723z" fill="#3e193e"/></g><g><path d="M-18.44444,120.1597l53.77778,-31.04861l53.77778,31.04861v62.09723l-53.77778,31.04861l-53.77778,-31.04861z" fill="#e159e1"/><path d="M-18.44444,120.1597l53.77778,-31.04861l53.77778,31.04861l-53.77778,31.04861z" fill="#ff86ff"/><path d="M89.11111,120.1597v62.09723l-53.77778,31.04861v-62.09723z" fill="#702d70"/></g><g><path d="M89.11111,120.1597l53.77778,-31.04861l53.77778,31.04861v62.09723l-53.77778,31.04861l-53.77778,-31.04861z" fill="#dd57dd"/><path d="M89.11111,120.1597l53.77778,-31.04861l53.77778,31.04861l-53.77778,31.04861z" fill="#ff83ff"/><path d="M196.66667,120.1597v62.09723l-53.77778,31.04861v-62.09723z" fill="#6e2c6e"/></g><g><path d="M196.66667,120.1597l53.77778,-31.04861l53.77778,31.04861v62.09723l-53.77778,31.04861l-53.77778,-31.04861z" fill="#e552e5"/><path d="M196.66667,120.1597l53.77778,-31.04861l53.77778,31.04861l-53.77778,31.04861z" fill="#ff7bff"/><path d="M304.22222,120.1597v62.09723l-53.77778,31.04861v-62.09723z" fill="#722972"/></g><g><path d="M304.22222,120.1597l53.77778,-31.04861l53.77778,31.04861v62.09723l-53.77778,31.04861l-53.77778,-31.04861z" fill="#d15dd1"/><path d="M304.22222,120.1597l53.77778,-31.04861l53.77778,31.04861l-53.77778,31.04861z" fill="#ff8cff"/><path d="M411.77778,120.1597v62.09723l-53.77778,31.04861v-62.09723z" fill="#692f69"/></g><g><path d="M411.77778,120.1597l53.77778,-31.04861l53.77778,31.04861v62.09723l-53.77778,31.04861l-53.77778,-31.04861z" fill="#d05ed0"/><path d="M411.77778,120.1597l53.77778,-31.04861l53.77778,31.04861l-53.77778,31.04861z" fill="#ff8eff"/><path d="M519.33333,120.1597v62.09723l-53.77778,31.04861v-62.09723z" fill="#682f68"/></g><g><path d="M519.33333,120.1597l53.77778,-31.04861l53.77778,31.04861v62.09723l-53.77778,31.04861l-53.77778,-31.04861z" fill="#d15ed1"/><path d="M519.33333,120.1597l53.77778,-31.04861l53.77778,31.04861l-53.77778,31.04861z" fill="#ff8cff"/><path d="M626.88889,120.1597v62.09723l-53.77778,31.04861v-62.09723z" fill="#682f68"/></g><g><path d="M626.88889,120.1597l53.77778,-31.04861l53.77778,31.04861v62.09723l-53.77778,31.04861l-53.77778,-31.04861z" fill="#d459d4"/><path d="M626.88889,120.1597l53.77778,-31.04861l53.77778,31.04861l-53.77778,31.04861z" fill="#ff86ff"/><path d="M734.44444,120.1597v62.09723l-53.77778,31.04861v-62.09723z" fill="#6a2d6a"/></g><g><path d="M734.44444,120.1597l53.77778,-31.04861l53.77778,31.04861v62.09723l-53.77778,31.04861l-53.77778,-31.04861z" fill="#d259d2"/><path d="M734.44444,120.1597l53.77778,-31.04861l53.77778,31.04861l-53.77778,31.04861z" fill="#ff86ff"/><path d="M842,120.1597v62.09723l-53.77778,31.04861v-62.09723z" fill="#692d69"/></g><g><path d="M842,120.1597l53.77778,-31.04861l53.77778,31.04861v62.09723l-53.77778,31.04861l-53.77778,-31.04861z" fill="#db49db"/><path d="M842,120.1597l53.77778,-31.04861l53.77778,31.04861l-53.77778,31.04861z" fill="#ff6dff"/><path d="M949.55556,120.1597v62.09723l-53.77778,31.04861v-62.09723z" fill="#6e246e"/></g><g><path d="M949.55556,120.1597l53.77778,-31.04861l53.77778,31.04861v62.09723l-53.77778,31.04861l-53.77778,-31.04861z" fill="#db4bdb"/><path d="M949.55556,120.1597l53.77778,-31.04861l53.77778,31.04861l-53.77778,31.04861z" fill="#ff70ff"/><path d="M1057.11111,120.1597v62.09723l-53.77778,31.04861v-62.09723z" fill="#6e256e"/></g><g><path d="M1057.11111,120.1597l53.77778,-31.04861l53.77778,31.04861v62.09723l-53.77778,31.04861l-53.77778,-31.04861z" fill="#d15cd1"/><path d="M1057.11111,120.1597l53.77778,-31.04861l53.77778,31.04861l-53.77778,31.04861z" fill="#ff8aff"/><path d="M1164.66667,120.1597v62.09723l-53.77778,31.04861v-62.09723z" fill="#682e68"/></g><g><path d="M1164.66667,120.1597l53.77778,-31.04861l53.77778,31.04861v62.09723l-53.77778,31.04861l-53.77778,-31.04861z" fill="#c073c0"/><path d="M1164.66667,120.1597l53.77778,-31.04861l53.77778,31.04861l-53.77778,31.04861z" fill="#ffadff"/><path d="M1272.22222,120.1597v62.09723l-53.77778,31.04861v-62.09723z" fill="#603a60"/></g><g><path d="M-72.22222,213.30554l53.77778,-31.04861l53.77778,31.04861v62.09723l-53.77778,31.04861l-53.77778,-31.04861z" fill="#ba4bc0"/><path d="M-72.22222,213.30554l53.77778,-31.04861l53.77778,31.04861l-53.77778,31.04861z" fill="#ff70ff"/><path d="M35.33333,213.30554v62.09723l-53.77778,31.04861v-62.09723z" fill="#5d2560"/></g><g><path d="M35.33333,213.30554l53.77778,-31.04861l53.77778,31.04861v62.09723l-53.77778,31.04861l-53.77778,-31.04861z" fill="#d361e2"/><path d="M35.33333,213.30554l53.77778,-31.04861l53.77778,31.04861l-53.77778,31.04861z" fill="#ff92ff"/><path d="M142.88889,213.30554v62.09723l-53.77778,31.04861v-62.09723z" fill="#693171"/></g><g><path d="M142.88889,213.30554l53.77778,-31.04861l53.77778,31.04861v62.09723l-53.77778,31.04861l-53.77778,-31.04861z" fill="#cf65e0"/><path d="M142.88889,213.30554l53.77778,-31.04861l53.77778,31.04861l-53.77778,31.04861z" fill="#ff97ff"/><path d="M250.44444,213.30554v62.09723l-53.77778,31.04861v-62.09723z" fill="#673270"/></g><g><path d="M250.44444,213.30554l53.77778,-31.04861l53.77778,31.04861v62.09723l-53.77778,31.04861l-53.77778,-31.04861z" fill="#c36cd3"/><path d="M250.44444,213.30554l53.77778,-31.04861l53.77778,31.04861l-53.77778,31.04861z" fill="#ffa2ff"/><path d="M358,213.30554v62.09723l-53.77778,31.04861v-62.09723z" fill="#613669"/></g><g><path d="M358,213.30554l53.77778,-31.04861l53.77778,31.04861v62.09723l-53.77778,31.04861l-53.77778,-31.04861z" fill="#c866d6"/><path d="M358,213.30554l53.77778,-31.04861l53.77778,31.04861l-53.77778,31.04861z" fill="#ff99ff"/><path d="M465.55556,213.30554v62.09723l-53.77778,31.04861v-62.09723z" fill="#64336b"/></g><g><path d="M465.55556,213.30554l53.77778,-31.04861l53.77778,31.04861v62.09723l-53.77778,31.04861l-53.77778,-31.04861z" fill="#c661c8"/><path d="M465.55556,213.30554l53.77778,-31.04861l53.77778,31.04861l-53.77778,31.04861z" fill="#ff91ff"/><path d="M573.11111,213.30554v62.09723l-53.77778,31.04861v-62.09723z" fill="#633064"/></g><g><path d="M573.11111,213.30554l53.77778,-31.04861l53.77778,31.04861v62.09723l-53.77778,31.04861l-53.77778,-31.04861z" fill="#cb59cb"/><path d="M573.11111,213.30554l53.77778,-31.04861l53.77778,31.04861l-53.77778,31.04861z" fill="#ff86ff"/><path d="M680.66667,213.30554v62.09723l-53.77778,31.04861v-62.09723z" fill="#662d66"/></g><g><path d="M680.66667,213.30554l53.77778,-31.04861l53.77778,31.04861v62.09723l-53.77778,31.04861l-53.77778,-31.04861z" fill="#c95dc9"/><path d="M680.66667,213.30554l53.77778,-31.04861l53.77778,31.04861l-53.77778,31.04861z" fill="#ff8cff"/><path d="M788.22222,213.30554v62.09723l-53.77778,31.04861v-62.09723z" fill="#642f64"/></g><g><path d="M788.22222,213.30554l53.77778,-31.04861l53.77778,31.04861v62.09723l-53.77778,31.04861l-53.77778,-31.04861z" fill="#c95fc9"/><path d="M788.22222,213.30554l53.77778,-31.04861l53.77778,31.04861l-53.77778,31.04861z" fill="#ff8eff"/><path d="M895.77778,213.30554v62.09723l-53.77778,31.04861v-62.09723z" fill="#642f64"/></g><g><path d="M895.77778,213.30554l53.77778,-31.04861l53.77778,31.04861v62.09723l-53.77778,31.04861l-53.77778,-31.04861z" fill="#c85fc8"/><path d="M895.77778,213.30554l53.77778,-31.04861l53.77778,31.04861l-53.77778,31.04861z" fill="#ff8fff"/><path d="M1003.33333,213.30554v62.09723l-53.77778,31.04861v-62.09723z" fill="#643064"/></g><g><path d="M1003.33333,213.30554l53.77778,-31.04861l53.77778,31.04861v62.09723l-53.77778,31.04861l-53.77778,-31.04861z" fill="#c662c9"/><path d="M1003.33333,213.30554l53.77778,-31.04861l53.77778,31.04861l-53.77778,31.04861z" fill="#ff93ff"/><path d="M1110.88889,213.30554v62.09723l-53.77778,31.04861v-62.09723z" fill="#633164"/></g><g><path d="M1110.88889,213.30554l53.77778,-31.04861l53.77778,31.04861v62.09723l-53.77778,31.04861l-53.77778,-31.04861z" fill="#c170c4"/><path d="M1110.88889,213.30554l53.77778,-31.04861l53.77778,31.04861l-53.77778,31.04861z" fill="#ffa8ff"/><path d="M1218.44444,213.30554v62.09723l-53.77778,31.04861v-62.09723z" fill="#603862"/></g><g><path d="M1218.44444,213.30554l53.77778,-31.04861l53.77778,31.04861v62.09723l-53.77778,31.04861l-53.77778,-31.04861z" fill="#bf87d9"/><path d="M1218.44444,213.30554l53.77778,-31.04861l53.77778,31.04861l-53.77778,31.04861z" fill="#ffcbff"/><path d="M1326,213.30554v62.09723l-53.77778,31.04861v-62.09723z" fill="#60446c"/></g><g><path d="M-126,306.45139l53.77778,-31.04861l53.77778,31.04861v62.09723l-53.77778,31.04861l-53.77778,-31.04861z" fill="#554155"/><path d="M-126,306.45139l53.77778,-31.04861l53.77778,31.04861l-53.77778,31.04861z" fill="#806180"/><path d="M-18.44444,306.45139v62.09723l-53.77778,31.04861v-62.09723z" fill="#2b202b"/></g><g><path d="M-18.44444,306.45139l53.77778,-31.04861l53.77778,31.04861v62.09723l-53.77778,31.04861l-53.77778,-31.04861z" fill="#b983e2"/><path d="M-18.44444,306.45139l53.77778,-31.04861l53.77778,31.04861l-53.77778,31.04861z" fill="#ffc5ff"/><path d="M89.11111,306.45139v62.09723l-53.77778,31.04861v-62.09723z" fill="#5c4271"/></g><g><path d="M89.11111,306.45139l53.77778,-31.04861l53.77778,31.04861v62.09723l-53.77778,31.04861l-53.77778,-31.04861z" fill="#a8a2ec"/><path d="M89.11111,306.45139l53.77778,-31.04861l53.77778,31.04861l-53.77778,31.04861z" fill="#fdf3ff"/><path d="M196.66667,306.45139v62.09723l-53.77778,31.04861v-62.09723z" fill="#545176"/></g><g><path d="M196.66667,306.45139l53.77778,-31.04861l53.77778,31.04861v62.09723l-53.77778,31.04861l-53.77778,-31.04861z" fill="#a8adf7"/><path d="M196.66667,306.45139l53.77778,-31.04861l53.77778,31.04861l-53.77778,31.04861z" fill="#fdffff"/><path d="M304.22222,306.45139v62.09723l-53.77778,31.04861v-62.09723z" fill="#54577b"/></g><g><path d="M304.22222,306.45139l53.77778,-31.04861l53.77778,31.04861v62.09723l-53.77778,31.04861l-53.77778,-31.04861z" fill="#a790c9"/><path d="M304.22222,306.45139l53.77778,-31.04861l53.77778,31.04861l-53.77778,31.04861z" fill="#fbd8ff"/><path d="M411.77778,306.45139v62.09723l-53.77778,31.04861v-62.09723z" fill="#544865"/></g><g><path d="M411.77778,306.45139l53.77778,-31.04861l53.77778,31.04861v62.09723l-53.77778,31.04861l-53.77778,-31.04861z" fill="#a2a1e3"/><path d="M411.77778,306.45139l53.77778,-31.04861l53.77778,31.04861l-53.77778,31.04861z" fill="#f3f2ff"/><path d="M519.33333,306.45139v62.09723l-53.77778,31.04861v-62.09723z" fill="#515171"/></g><g><path d="M519.33333,306.45139l53.77778,-31.04861l53.77778,31.04861v62.09723l-53.77778,31.04861l-53.77778,-31.04861z" fill="#aa7ebc"/><path d="M519.33333,306.45139l53.77778,-31.04861l53.77778,31.04861l-53.77778,31.04861z" fill="#ffbdff"/><path d="M626.88889,306.45139v62.09723l-53.77778,31.04861v-62.09723z" fill="#553f5e"/></g><g><path d="M626.88889,306.45139l53.77778,-31.04861l53.77778,31.04861v62.09723l-53.77778,31.04861l-53.77778,-31.04861z" fill="#ae6eb0"/><path d="M626.88889,306.45139l53.77778,-31.04861l53.77778,31.04861l-53.77778,31.04861z" fill="#ffa6ff"/><path d="M734.44444,306.45139v62.09723l-53.77778,31.04861v-62.09723z" fill="#573758"/></g><g><path d="M734.44444,306.45139l53.77778,-31.04861l53.77778,31.04861v62.09723l-53.77778,31.04861l-53.77778,-31.04861z" fill="#a388bb"/><path d="M734.44444,306.45139l53.77778,-31.04861l53.77778,31.04861l-53.77778,31.04861z" fill="#f5ccff"/><path d="M842,306.45139v62.09723l-53.77778,31.04861v-62.09723z" fill="#52445e"/></g><g><path d="M842,306.45139l53.77778,-31.04861l53.77778,31.04861v62.09723l-53.77778,31.04861l-53.77778,-31.04861z" fill="#aa7ebc"/><path d="M842,306.45139l53.77778,-31.04861l53.77778,31.04861l-53.77778,31.04861z" fill="#ffbdff"/><path d="M949.55556,306.45139v62.09723l-53.77778,31.04861v-62.09723z" fill="#553f5e"/></g><g><path d="M949.55556,306.45139l53.77778,-31.04861l53.77778,31.04861v62.09723l-53.77778,31.04861l-53.77778,-31.04861z" fill="#a39bd3"/><path d="M949.55556,306.45139l53.77778,-31.04861l53.77778,31.04861l-53.77778,31.04861z" fill="#f4e9ff"/><path d="M1057.11111,306.45139v62.09723l-53.77778,31.04861v-62.09723z" fill="#514e69"/></g><g><path d="M1057.11111,306.45139l53.77778,-31.04861l53.77778,31.04861v62.09723l-53.77778,31.04861l-53.77778,-31.04861z" fill="#a489bf"/><path d="M1057.11111,306.45139l53.77778,-31.04861l53.77778,31.04861l-53.77778,31.04861z" fill="#f7cdff"/><path d="M1164.66667,306.45139v62.09723l-53.77778,31.04861v-62.09723z" fill="#524460"/></g><g><path d="M1164.66667,306.45139l53.77778,-31.04861l53.77778,31.04861v62.09723l-53.77778,31.04861l-53.77778,-31.04861z" fill="#9ca2d8"/><path d="M1164.66667,306.45139l53.77778,-31.04861l53.77778,31.04861l-53.77778,31.04861z" fill="#eaf2ff"/><path d="M1272.22222,306.45139v62.09723l-53.77778,31.04861v-62.09723z" fill="#4e516c"/></g><g><path d="M-72.22222,399.59723l53.77778,-31.04861l53.77778,31.04861v62.09723l-53.77778,31.04861l-53.77778,-31.04861z" fill="#8c5998"/><path d="M-72.22222,399.59723l53.77778,-31.04861l53.77778,31.04861l-53.77778,31.04861z" fill="#d285e4"/><path d="M35.33333,399.59723v62.09723l-53.77778,31.04861v-62.09723z" fill="#462c4c"/></g><g><path d="M35.33333,399.59723l53.77778,-31.04861l53.77778,31.04861v62.09723l-53.77778,31.04861l-53.77778,-31.04861z" fill="#9aaafe"/><path d="M35.33333,399.59723l53.77778,-31.04861l53.77778,31.04861l-53.77778,31.04861z" fill="#e7feff"/><path d="M142.88889,399.59723v62.09723l-53.77778,31.04861v-62.09723z" fill="#4d557f"/></g><g><path d="M142.88889,399.59723l53.77778,-31.04861l53.77778,31.04861v62.09723l-53.77778,31.04861l-53.77778,-31.04861z" fill="#9ba6f5"/><path d="M142.88889,399.59723l53.77778,-31.04861l53.77778,31.04861l-53.77778,31.04861z" fill="#e8f9ff"/><path d="M250.44444,399.59723v62.09723l-53.77778,31.04861v-62.09723z" fill="#4d537a"/></g><g><path d="M250.44444,399.59723l53.77778,-31.04861l53.77778,31.04861v62.09723l-53.77778,31.04861l-53.77778,-31.04861z" fill="#a197eb"/><path d="M250.44444,399.59723l53.77778,-31.04861l53.77778,31.04861l-53.77778,31.04861z" fill="#f2e3ff"/><path d="M358,399.59723v62.09723l-53.77778,31.04861v-62.09723z" fill="#514c75"/></g><g><path d="M358,399.59723l53.77778,-31.04861l53.77778,31.04861v62.09723l-53.77778,31.04861l-53.77778,-31.04861z" fill="#96b6ff"/><path d="M358,399.59723l53.77778,-31.04861l53.77778,31.04861l-53.77778,31.04861z" fill="#e1ffff"/><path d="M465.55556,399.59723v62.09723l-53.77778,31.04861v-62.09723z" fill="#4b5b80"/></g><g><path d="M465.55556,399.59723l53.77778,-31.04861l53.77778,31.04861v62.09723l-53.77778,31.04861l-53.77778,-31.04861z" fill="#9c92d9"/><path d="M465.55556,399.59723l53.77778,-31.04861l53.77778,31.04861l-53.77778,31.04861z" fill="#eadbff"/><path d="M573.11111,399.59723v62.09723l-53.77778,31.04861v-62.09723z" fill="#4e496c"/></g><g><path d="M573.11111,399.59723l53.77778,-31.04861l53.77778,31.04861v62.09723l-53.77778,31.04861l-53.77778,-31.04861z" fill="#98b4ff"/><path d="M573.11111,399.59723l53.77778,-31.04861l53.77778,31.04861l-53.77778,31.04861z" fill="#e3ffff"/><path d="M680.66667,399.59723v62.09723l-53.77778,31.04861v-62.09723z" fill="#4c5a80"/></g><g><path d="M680.66667,399.59723l53.77778,-31.04861l53.77778,31.04861v62.09723l-53.77778,31.04861l-53.77778,-31.04861z" fill="#9dadff"/><path d="M680.66667,399.59723l53.77778,-31.04861l53.77778,31.04861l-53.77778,31.04861z" fill="#ebffff"/><path d="M788.22222,399.59723v62.09723l-53.77778,31.04861v-62.09723z" fill="#4e577f"/></g><g><path d="M788.22222,399.59723l53.77778,-31.04861l53.77778,31.04861v62.09723l-53.77778,31.04861l-53.77778,-31.04861z" fill="#9e92e0"/><path d="M788.22222,399.59723l53.77778,-31.04861l53.77778,31.04861l-53.77778,31.04861z" fill="#eddbff"/><path d="M895.77778,399.59723v62.09723l-53.77778,31.04861v-62.09723z" fill="#4f4970"/></g><g><path d="M895.77778,399.59723l53.77778,-31.04861l53.77778,31.04861v62.09723l-53.77778,31.04861l-53.77778,-31.04861z" fill="#9cacf8"/><path d="M895.77778,399.59723l53.77778,-31.04861l53.77778,31.04861l-53.77778,31.04861z" fill="#eaffff"/><path d="M1003.33333,399.59723v62.09723l-53.77778,31.04861v-62.09723z" fill="#4e567c"/></g><g><path d="M1003.33333,399.59723l53.77778,-31.04861l53.77778,31.04861v62.09723l-53.77778,31.04861l-53.77778,-31.04861z" fill="#9bb2ff"/><path d="M1003.33333,399.59723l53.77778,-31.04861l53.77778,31.04861l-53.77778,31.04861z" fill="#e8ffff"/><path d="M1110.88889,399.59723v62.09723l-53.77778,31.04861v-62.09723z" fill="#4d5980"/></g><g><path d="M1110.88889,399.59723l53.77778,-31.04861l53.77778,31.04861v62.09723l-53.77778,31.04861l-53.77778,-31.04861z" fill="#94a9e8"/><path d="M1110.88889,399.59723l53.77778,-31.04861l53.77778,31.04861l-53.77778,31.04861z" fill="#defeff"/><path d="M1218.44444,399.59723v62.09723l-53.77778,31.04861v-62.09723z" fill="#4a5574"/></g><g><path d="M1218.44444,399.59723l53.77778,-31.04861l53.77778,31.04861v62.09723l-53.77778,31.04861l-53.77778,-31.04861z" fill="#89c4ff"/><path d="M1218.44444,399.59723l53.77778,-31.04861l53.77778,31.04861l-53.77778,31.04861z" fill="#cdffff"/><path d="M1326,399.59723v62.09723l-53.77778,31.04861v-62.09723z" fill="#446280"/></g><g><path d="M-126,492.74307l53.77778,-31.04861l53.77778,31.04861v62.09723l-53.77778,31.04861l-53.77778,-31.04861z" fill="#602760"/><path d="M-126,492.74307l53.77778,-31.04861l53.77778,31.04861l-53.77778,31.04861z" fill="#913b91"/><path d="M-18.44444,492.74307v62.09723l-53.77778,31.04861v-62.09723z" fill="#301430"/></g><g><path d="M-18.44444,492.74307l53.77778,-31.04861l53.77778,31.04861v62.09723l-53.77778,31.04861l-53.77778,-31.04861z" fill="#ab77e8"/><path d="M-18.44444,492.74307l53.77778,-31.04861l53.77778,31.04861l-53.77778,31.04861z" fill="#ffb2ff"/><path d="M89.11111,492.74307v62.09723l-53.77778,31.04861v-62.09723z" fill="#553b74"/></g><g><path d="M89.11111,492.74307l53.77778,-31.04861l53.77778,31.04861v62.09723l-53.77778,31.04861l-53.77778,-31.04861z" fill="#a38cf4"/><path d="M89.11111,492.74307l53.77778,-31.04861l53.77778,31.04861l-53.77778,31.04861z" fill="#f5d3ff"/><path d="M196.66667,492.74307v62.09723l-53.77778,31.04861v-62.09723z" fill="#52467a"/></g><g><path d="M196.66667,492.74307l53.77778,-31.04861l53.77778,31.04861v62.09723l-53.77778,31.04861l-53.77778,-31.04861z" fill="#a87ce8"/><path d="M196.66667,492.74307l53.77778,-31.04861l53.77778,31.04861l-53.77778,31.04861z" fill="#fcbaff"/><path d="M304.22222,492.74307v62.09723l-53.77778,31.04861v-62.09723z" fill="#543e74"/></g><g><path d="M304.22222,492.74307l53.77778,-31.04861l53.77778,31.04861v62.09723l-53.77778,31.04861l-53.77778,-31.04861z" fill="#a28ffe"/><path d="M304.22222,492.74307l53.77778,-31.04861l53.77778,31.04861l-53.77778,31.04861z" fill="#f3d7ff"/><path d="M411.77778,492.74307v62.09723l-53.77778,31.04861v-62.09723z" fill="#51487f"/></g><g><path d="M411.77778,492.74307l53.77778,-31.04861l53.77778,31.04861v62.09723l-53.77778,31.04861l-53.77778,-31.04861z" fill="#ac77e9"/><path d="M411.77778,492.74307l53.77778,-31.04861l53.77778,31.04861l-53.77778,31.04861z" fill="#ffb2ff"/><path d="M519.33333,492.74307v62.09723l-53.77778,31.04861v-62.09723z" fill="#563b74"/></g><g><path d="M519.33333,492.74307l53.77778,-31.04861l53.77778,31.04861v62.09723l-53.77778,31.04861l-53.77778,-31.04861z" fill="#ae6edc"/><path d="M519.33333,492.74307l53.77778,-31.04861l53.77778,31.04861l-53.77778,31.04861z" fill="#ffa5ff"/><path d="M626.88889,492.74307v62.09723l-53.77778,31.04861v-62.09723z" fill="#57376e"/></g><g><path d="M626.88889,492.74307l53.77778,-31.04861l53.77778,31.04861v62.09723l-53.77778,31.04861l-53.77778,-31.04861z" fill="#9f95ff"/><path d="M626.88889,492.74307l53.77778,-31.04861l53.77778,31.04861l-53.77778,31.04861z" fill="#efdfff"/><path d="M734.44444,492.74307v62.09723l-53.77778,31.04861v-62.09723z" fill="#504a7f"/></g><g><path d="M734.44444,492.74307l53.77778,-31.04861l53.77778,31.04861v62.09723l-53.77778,31.04861l-53.77778,-31.04861z" fill="#a48cf5"/><path d="M734.44444,492.74307l53.77778,-31.04861l53.77778,31.04861l-53.77778,31.04861z" fill="#f6d1ff"/><path d="M842,492.74307v62.09723l-53.77778,31.04861v-62.09723z" fill="#52467b"/></g><g><path d="M842,492.74307l53.77778,-31.04861l53.77778,31.04861v62.09723l-53.77778,31.04861l-53.77778,-31.04861z" fill="#a686f0"/><path d="M842,492.74307l53.77778,-31.04861l53.77778,31.04861l-53.77778,31.04861z" fill="#f9caff"/><path d="M949.55556,492.74307v62.09723l-53.77778,31.04861v-62.09723z" fill="#534378"/></g><g><path d="M949.55556,492.74307l53.77778,-31.04861l53.77778,31.04861v62.09723l-53.77778,31.04861l-53.77778,-31.04861z" fill="#a095ff"/><path d="M949.55556,492.74307l53.77778,-31.04861l53.77778,31.04861l-53.77778,31.04861z" fill="#f0dfff"/><path d="M1057.11111,492.74307v62.09723l-53.77778,31.04861v-62.09723z" fill="#504a7f"/></g><g><path d="M1057.11111,492.74307l53.77778,-31.04861l53.77778,31.04861v62.09723l-53.77778,31.04861l-53.77778,-31.04861z" fill="#a493fa"/><path d="M1057.11111,492.74307l53.77778,-31.04861l53.77778,31.04861l-53.77778,31.04861z" fill="#f5ddff"/><path d="M1164.66667,492.74307v62.09723l-53.77778,31.04861v-62.09723z" fill="#524a7d"/></g><g><path d="M1164.66667,492.74307l53.77778,-31.04861l53.77778,31.04861v62.09723l-53.77778,31.04861l-53.77778,-31.04861z" fill="#79b6d9"/><path d="M1164.66667,492.74307l53.77778,-31.04861l53.77778,31.04861l-53.77778,31.04861z" fill="#b6ffff"/><path d="M1272.22222,492.74307v62.09723l-53.77778,31.04861v-62.09723z" fill="#3d5b6c"/></g><g><path d="M-72.22222,585.88892l53.77778,-31.04861l53.77778,31.04861v62.09723l-53.77778,31.04861l-53.77778,-31.04861z" fill="#aa34b0"/><path d="M-72.22222,585.88892l53.77778,-31.04861l53.77778,31.04861l-53.77778,31.04861z" fill="#ff4eff"/><path d="M35.33333,585.88892v62.09723l-53.77778,31.04861v-62.09723z" fill="#551a58"/></g><g><path d="M35.33333,585.88892l53.77778,-31.04861l53.77778,31.04861v62.09723l-53.77778,31.04861l-53.77778,-31.04861z" fill="#c74ee0"/><path d="M35.33333,585.88892l53.77778,-31.04861l53.77778,31.04861l-53.77778,31.04861z" fill="#ff75ff"/><path d="M142.88889,585.88892v62.09723l-53.77778,31.04861v-62.09723z" fill="#632770"/></g><g><path d="M142.88889,585.88892l53.77778,-31.04861l53.77778,31.04861v62.09723l-53.77778,31.04861l-53.77778,-31.04861z" fill="#bc5ee0"/><path d="M142.88889,585.88892l53.77778,-31.04861l53.77778,31.04861l-53.77778,31.04861z" fill="#ff8dff"/><path d="M250.44444,585.88892v62.09723l-53.77778,31.04861v-62.09723z" fill="#5e2f70"/></g><g><path d="M250.44444,585.88892l53.77778,-31.04861l53.77778,31.04861v62.09723l-53.77778,31.04861l-53.77778,-31.04861z" fill="#ab6fe2"/><path d="M250.44444,585.88892l53.77778,-31.04861l53.77778,31.04861l-53.77778,31.04861z" fill="#ffa6ff"/><path d="M358,585.88892v62.09723l-53.77778,31.04861v-62.09723z" fill="#563771"/></g><g><path d="M358,585.88892l53.77778,-31.04861l53.77778,31.04861v62.09723l-53.77778,31.04861l-53.77778,-31.04861z" fill="#af7eff"/><path d="M358,585.88892l53.77778,-31.04861l53.77778,31.04861l-53.77778,31.04861z" fill="#ffbdff"/><path d="M465.55556,585.88892v62.09723l-53.77778,31.04861v-62.09723z" fill="#573f7f"/></g><g><path d="M465.55556,585.88892l53.77778,-31.04861l53.77778,31.04861v62.09723l-53.77778,31.04861l-53.77778,-31.04861z" fill="#c153df"/><path d="M465.55556,585.88892l53.77778,-31.04861l53.77778,31.04861l-53.77778,31.04861z" fill="#ff7cff"/><path d="M573.11111,585.88892v62.09723l-53.77778,31.04861v-62.09723z" fill="#61296f"/></g><g><path d="M573.11111,585.88892l53.77778,-31.04861l53.77778,31.04861v62.09723l-53.77778,31.04861l-53.77778,-31.04861z" fill="#b17eff"/><path d="M573.11111,585.88892l53.77778,-31.04861l53.77778,31.04861l-53.77778,31.04861z" fill="#ffbdff"/><path d="M680.66667,585.88892v62.09723l-53.77778,31.04861v-62.09723z" fill="#593f7f"/></g><g><path d="M680.66667,585.88892l53.77778,-31.04861l53.77778,31.04861v62.09723l-53.77778,31.04861l-53.77778,-31.04861z" fill="#a787fc"/><path d="M680.66667,585.88892l53.77778,-31.04861l53.77778,31.04861l-53.77778,31.04861z" fill="#fbcaff"/><path d="M788.22222,585.88892v62.09723l-53.77778,31.04861v-62.09723z" fill="#54437e"/></g><g><path d="M788.22222,585.88892l53.77778,-31.04861l53.77778,31.04861v62.09723l-53.77778,31.04861l-53.77778,-31.04861z" fill="#b561df"/><path d="M788.22222,585.88892l53.77778,-31.04861l53.77778,31.04861l-53.77778,31.04861z" fill="#ff92ff"/><path d="M895.77778,585.88892v62.09723l-53.77778,31.04861v-62.09723z" fill="#5a3170"/></g><g><path d="M895.77778,585.88892l53.77778,-31.04861l53.77778,31.04861v62.09723l-53.77778,31.04861l-53.77778,-31.04861z" fill="#b37cfd"/><path d="M895.77778,585.88892l53.77778,-31.04861l53.77778,31.04861l-53.77778,31.04861z" fill="#ffbbff"/><path d="M1003.33333,585.88892v62.09723l-53.77778,31.04861v-62.09723z" fill="#593e7f"/></g><g><path d="M1003.33333,585.88892l53.77778,-31.04861l53.77778,31.04861v62.09723l-53.77778,31.04861l-53.77778,-31.04861z" fill="#bb78ff"/><path d="M1003.33333,585.88892l53.77778,-31.04861l53.77778,31.04861l-53.77778,31.04861z" fill="#ffb4ff"/><path d="M1110.88889,585.88892v62.09723l-53.77778,31.04861v-62.09723z" fill="#5e3c7f"/></g><g><path d="M1110.88889,585.88892l53.77778,-31.04861l53.77778,31.04861v62.09723l-53.77778,31.04861l-53.77778,-31.04861z" fill="#9497ee"/><path d="M1110.88889,585.88892l53.77778,-31.04861l53.77778,31.04861l-53.77778,31.04861z" fill="#dee3ff"/><path d="M1218.44444,585.88892v62.09723l-53.77778,31.04861v-62.09723z" fill="#4a4c77"/></g><g><path d="M1218.44444,585.88892l53.77778,-31.04861l53.77778,31.04861v62.09723l-53.77778,31.04861l-53.77778,-31.04861z" fill="#72d0ff"/><path d="M1218.44444,585.88892l53.77778,-31.04861l53.77778,31.04861l-53.77778,31.04861z" fill="#abffff"/><path d="M1326,585.88892v62.09723l-53.77778,31.04861v-62.09723z" fill="#396880"/></g><g><path d="M-126,679.03476l53.77778,-31.04861l53.77778,31.04861v62.09723l-53.77778,31.04861l-53.77778,-31.04861z" fill="#323232"/><path d="M-126,679.03476l53.77778,-31.04861l53.77778,31.04861l-53.77778,31.04861z" fill="#4b4b4b"/><path d="M-18.44444,679.03476v62.09723l-53.77778,31.04861v-62.09723z" fill="#191919"/></g><g><path d="M-18.44444,679.03476l53.77778,-31.04861l53.77778,31.04861v62.09723l-53.77778,31.04861l-53.77778,-31.04861z" fill="#b164cb"/><path d="M-18.44444,679.03476l53.77778,-31.04861l53.77778,31.04861l-53.77778,31.04861z" fill="#ff95ff"/><path d="M89.11111,679.03476v62.09723l-53.77778,31.04861v-62.09723z" fill="#583266"/></g><g><path d="M89.11111,679.03476l53.77778,-31.04861l53.77778,31.04861v62.09723l-53.77778,31.04861l-53.77778,-31.04861z" fill="#a36bba"/><path d="M89.11111,679.03476l53.77778,-31.04861l53.77778,31.04861l-53.77778,31.04861z" fill="#f4a1ff"/><path d="M196.66667,679.03476v62.09723l-53.77778,31.04861v-62.09723z" fill="#51365d"/></g><g><path d="M196.66667,679.03476l53.77778,-31.04861l53.77778,31.04861v62.09723l-53.77778,31.04861l-53.77778,-31.04861z" fill="#a855a8"/><path d="M196.66667,679.03476l53.77778,-31.04861l53.77778,31.04861l-53.77778,31.04861z" fill="#fd80fd"/><path d="M304.22222,679.03476v62.09723l-53.77778,31.04861v-62.09723z" fill="#542b54"/></g><g><path d="M304.22222,679.03476l53.77778,-31.04861l53.77778,31.04861v62.09723l-53.77778,31.04861l-53.77778,-31.04861z" fill="#a264b1"/><path d="M304.22222,679.03476l53.77778,-31.04861l53.77778,31.04861l-53.77778,31.04861z" fill="#f295ff"/><path d="M411.77778,679.03476v62.09723l-53.77778,31.04861v-62.09723z" fill="#513259"/></g><g><path d="M411.77778,679.03476l53.77778,-31.04861l53.77778,31.04861v62.09723l-53.77778,31.04861l-53.77778,-31.04861z" fill="#9680cb"/><path d="M411.77778,679.03476l53.77778,-31.04861l53.77778,31.04861l-53.77778,31.04861z" fill="#e1c0ff"/><path d="M519.33333,679.03476v62.09723l-53.77778,31.04861v-62.09723z" fill="#4b4066"/></g><g><path d="M519.33333,679.03476l53.77778,-31.04861l53.77778,31.04861v62.09723l-53.77778,31.04861l-53.77778,-31.04861z" fill="#9c7bce"/><path d="M519.33333,679.03476l53.77778,-31.04861l53.77778,31.04861l-53.77778,31.04861z" fill="#eab8ff"/><path d="M626.88889,679.03476v62.09723l-53.77778,31.04861v-62.09723z" fill="#4e3d67"/></g><g><path d="M626.88889,679.03476l53.77778,-31.04861l53.77778,31.04861v62.09723l-53.77778,31.04861l-53.77778,-31.04861z" fill="#a85cb0"/><path d="M626.88889,679.03476l53.77778,-31.04861l53.77778,31.04861l-53.77778,31.04861z" fill="#fc8aff"/><path d="M734.44444,679.03476v62.09723l-53.77778,31.04861v-62.09723z" fill="#542e58"/></g><g><path d="M734.44444,679.03476l53.77778,-31.04861l53.77778,31.04861v62.09723l-53.77778,31.04861l-53.77778,-31.04861z" fill="#947cc2"/><path d="M734.44444,679.03476l53.77778,-31.04861l53.77778,31.04861l-53.77778,31.04861z" fill="#debaff"/><path d="M842,679.03476v62.09723l-53.77778,31.04861v-62.09723z" fill="#4a3e61"/></g><g><path d="M842,679.03476l53.77778,-31.04861l53.77778,31.04861v62.09723l-53.77778,31.04861l-53.77778,-31.04861z" fill="#977dc6"/><path d="M842,679.03476l53.77778,-31.04861l53.77778,31.04861l-53.77778,31.04861z" fill="#e3bcff"/><path d="M949.55556,679.03476v62.09723l-53.77778,31.04861v-62.09723z" fill="#4c3f63"/></g><g><path d="M949.55556,679.03476l53.77778,-31.04861l53.77778,31.04861v62.09723l-53.77778,31.04861l-53.77778,-31.04861z" fill="#b353b6"/><path d="M949.55556,679.03476l53.77778,-31.04861l53.77778,31.04861l-53.77778,31.04861z" fill="#ff7dff"/><path d="M1057.11111,679.03476v62.09723l-53.77778,31.04861v-62.09723z" fill="#5a2a5b"/></g><g><path d="M1057.11111,679.03476l53.77778,-31.04861l53.77778,31.04861v62.09723l-53.77778,31.04861l-53.77778,-31.04861z" fill="#967cc3"/><path d="M1057.11111,679.03476l53.77778,-31.04861l53.77778,31.04861l-53.77778,31.04861z" fill="#e0baff"/><path d="M1164.66667,679.03476v62.09723l-53.77778,31.04861v-62.09723z" fill="#4b3e62"/></g><g><path d="M1164.66667,679.03476l53.77778,-31.04861l53.77778,31.04861v62.09723l-53.77778,31.04861l-53.77778,-31.04861z" fill="#a279d2"/><path d="M1164.66667,679.03476l53.77778,-31.04861l53.77778,31.04861l-53.77778,31.04861z" fill="#f3b5ff"/><path d="M1272.22222,679.03476v62.09723l-53.77778,31.04861v-62.09723z" fill="#513c69"/></g><g><path d="M-72.22222,772.1806l53.77778,-31.04861l53.77778,31.04861v62.09723l-53.77778,31.04861l-53.77778,-31.04861z" fill="#000000"/><path d="M-72.22222,772.1806l53.77778,-31.04861l53.77778,31.04861l-53.77778,31.04861z" fill="#ffffff"/><path d="M35.33333,772.1806v62.09723l-53.77778,31.04861v-62.09723z" fill="#000000"/></g><g><path d="M35.33333,772.1806l53.77778,-31.04861l53.77778,31.04861v62.09723l-53.77778,31.04861l-53.77778,-31.04861z" fill="#000000"/><path d="M35.33333,772.1806l53.77778,-31.04861l53.77778,31.04861l-53.77778,31.04861z" fill="#ffffff"/><path d="M142.88889,772.1806v62.09723l-53.77778,31.04861v-62.09723z" fill="#000000"/></g><g><path d="M142.88889,772.1806l53.77778,-31.04861l53.77778,31.04861v62.09723l-53.77778,31.04861l-53.77778,-31.04861z" fill="#000000"/><path d="M142.88889,772.1806l53.77778,-31.04861l53.77778,31.04861l-53.77778,31.04861z" fill="#ffffff"/><path d="M250.44444,772.1806v62.09723l-53.77778,31.04861v-62.09723z" fill="#000000"/></g><g><path d="M250.44444,772.1806l53.77778,-31.04861l53.77778,31.04861v62.09723l-53.77778,31.04861l-53.77778,-31.04861z" fill="#000000"/><path d="M250.44444,772.1806l53.77778,-31.04861l53.77778,31.04861l-53.77778,31.04861z" fill="#ffffff"/><path d="M358,772.1806v62.09723l-53.77778,31.04861v-62.09723z" fill="#000000"/></g><g><path d="M358,772.1806l53.77778,-31.04861l53.77778,31.04861v62.09723l-53.77778,31.04861l-53.77778,-31.04861z" fill="#000000"/><path d="M358,772.1806l53.77778,-31.04861l53.77778,31.04861l-53.77778,31.04861z" fill="#ffffff"/><path d="M465.55556,772.1806v62.09723l-53.77778,31.04861v-62.09723z" fill="#000000"/></g><g><path d="M465.55556,772.1806l53.77778,-31.04861l53.77778,31.04861v62.09723l-53.77778,31.04861l-53.77778,-31.04861z" fill="#000000"/><path d="M465.55556,772.1806l53.77778,-31.04861l53.77778,31.04861l-53.77778,31.04861z" fill="#ffffff"/><path d="M573.11111,772.1806v62.09723l-53.77778,31.04861v-62.09723z" fill="#000000"/></g><g><path d="M573.11111,772.1806l53.77778,-31.04861l53.77778,31.04861v62.09723l-53.77778,31.04861l-53.77778,-31.04861z" fill="#000000"/><path d="M573.11111,772.1806l53.77778,-31.04861l53.77778,31.04861l-53.77778,31.04861z" fill="#ffffff"/><path d="M680.66667,772.1806v62.09723l-53.77778,31.04861v-62.09723z" fill="#000000"/></g><g><path d="M680.66667,772.1806l53.77778,-31.04861l53.77778,31.04861v62.09723l-53.77778,31.04861l-53.77778,-31.04861z" fill="#000000"/><path d="M680.66667,772.1806l53.77778,-31.04861l53.77778,31.04861l-53.77778,31.04861z" fill="#ffffff"/><path d="M788.22222,772.1806v62.09723l-53.77778,31.04861v-62.09723z" fill="#000000"/></g><g><path d="M788.22222,772.1806l53.77778,-31.04861l53.77778,31.04861v62.09723l-53.77778,31.04861l-53.77778,-31.04861z" fill="#000000"/><path d="M788.22222,772.1806l53.77778,-31.04861l53.77778,31.04861l-53.77778,31.04861z" fill="#ffffff"/><path d="M895.77778,772.1806v62.09723l-53.77778,31.04861v-62.09723z" fill="#000000"/></g><g><path d="M895.77778,772.1806l53.77778,-31.04861l53.77778,31.04861v62.09723l-53.77778,31.04861l-53.77778,-31.04861z" fill="#000000"/><path d="M895.77778,772.1806l53.77778,-31.04861l53.77778,31.04861l-53.77778,31.04861z" fill="#ffffff"/><path d="M1003.33333,772.1806v62.09723l-53.77778,31.04861v-62.09723z" fill="#000000"/></g><g><path d="M1003.33333,772.1806l53.77778,-31.04861l53.77778,31.04861v62.09723l-53.77778,31.04861l-53.77778,-31.04861z" fill="#000000"/><path d="M1003.33333,772.1806l53.77778,-31.04861l53.77778,31.04861l-53.77778,31.04861z" fill="#ffffff"/><path d="M1110.88889,772.1806v62.09723l-53.77778,31.04861v-62.09723z" fill="#000000"/></g><g><path d="M1110.88889,772.1806l53.77778,-31.04861l53.77778,31.04861v62.09723l-53.77778,31.04861l-53.77778,-31.04861z" fill="#000000"/><path d="M1110.88889,772.1806l53.77778,-31.04861l53.77778,31.04861l-53.77778,31.04861z" fill="#ffffff"/><path d="M1218.44444,772.1806v62.09723l-53.77778,31.04861v-62.09723z" fill="#000000"/></g><g><path d="M1218.44444,772.1806l53.77778,-31.04861l53.77778,31.04861v62.09723l-53.77778,31.04861l-53.77778,-31.04861z" fill="#000000"/><path d="M1218.44444,772.1806l53.77778,-31.04861l53.77778,31.04861l-53.77778,31.04861z" fill="#ffffff"/><path d="M1326,772.1806v62.09723l-53.77778,31.04861v-62.09723z" fill="#000000"/></g><g><path d="M-126,865.32645l53.77778,-31.04861l53.77778,31.04861v62.09723l-53.77778,31.04861l-53.77778,-31.04861z" fill="#000000"/><path d="M-126,865.32645l53.77778,-31.04861l53.77778,31.04861l-53.77778,31.04861z" fill="#ffffff"/><path d="M-18.44444,865.32645v62.09723l-53.77778,31.04861v-62.09723z" fill="#000000"/></g><g><path d="M-18.44444,865.32645l53.77778,-31.04861l53.77778,31.04861v62.09723l-53.77778,31.04861l-53.77778,-31.04861z" fill="#000000"/><path d="M-18.44444,865.32645l53.77778,-31.04861l53.77778,31.04861l-53.77778,31.04861z" fill="#ffffff"/><path d="M89.11111,865.32645v62.09723l-53.77778,31.04861v-62.09723z" fill="#000000"/></g><g><path d="M89.11111,865.32645l53.77778,-31.04861l53.77778,31.04861v62.09723l-53.77778,31.04861l-53.77778,-31.04861z" fill="#000000"/><path d="M89.11111,865.32645l53.77778,-31.04861l53.77778,31.04861l-53.77778,31.04861z" fill="#ffffff"/><path d="M196.66667,865.32645v62.09723l-53.77778,31.04861v-62.09723z" fill="#000000"/></g><g><path d="M196.66667,865.32645l53.77778,-31.04861l53.77778,31.04861v62.09723l-53.77778,31.04861l-53.77778,-31.04861z" fill="#000000"/><path d="M196.66667,865.32645l53.77778,-31.04861l53.77778,31.04861l-53.77778,31.04861z" fill="#ffffff"/><path d="M304.22222,865.32645v62.09723l-53.77778,31.04861v-62.09723z" fill="#000000"/></g><g><path d="M304.22222,865.32645l53.77778,-31.04861l53.77778,31.04861v62.09723l-53.77778,31.04861l-53.77778,-31.04861z" fill="#000000"/><path d="M304.22222,865.32645l53.77778,-31.04861l53.77778,31.04861l-53.77778,31.04861z" fill="#ffffff"/><path d="M411.77778,865.32645v62.09723l-53.77778,31.04861v-62.09723z" fill="#000000"/></g><g><path d="M411.77778,865.32645l53.77778,-31.04861l53.77778,31.04861v62.09723l-53.77778,31.04861l-53.77778,-31.04861z" fill="#000000"/><path d="M411.77778,865.32645l53.77778,-31.04861l53.77778,31.04861l-53.77778,31.04861z" fill="#ffffff"/><path d="M519.33333,865.32645v62.09723l-53.77778,31.04861v-62.09723z" fill="#000000"/></g><g><path d="M519.33333,865.32645l53.77778,-31.04861l53.77778,31.04861v62.09723l-53.77778,31.04861l-53.77778,-31.04861z" fill="#000000"/><path d="M519.33333,865.32645l53.77778,-31.04861l53.77778,31.04861l-53.77778,31.04861z" fill="#ffffff"/><path d="M626.88889,865.32645v62.09723l-53.77778,31.04861v-62.09723z" fill="#000000"/></g><g><path d="M626.88889,865.32645l53.77778,-31.04861l53.77778,31.04861v62.09723l-53.77778,31.04861l-53.77778,-31.04861z" fill="#000000"/><path d="M626.88889,865.32645l53.77778,-31.04861l53.77778,31.04861l-53.77778,31.04861z" fill="#ffffff"/><path d="M734.44444,865.32645v62.09723l-53.77778,31.04861v-62.09723z" fill="#000000"/></g><g><path d="M734.44444,865.32645l53.77778,-31.04861l53.77778,31.04861v62.09723l-53.77778,31.04861l-53.77778,-31.04861z" fill="#000000"/><path d="M734.44444,865.32645l53.77778,-31.04861l53.77778,31.04861l-53.77778,31.04861z" fill="#ffffff"/><path d="M842,865.32645v62.09723l-53.77778,31.04861v-62.09723z" fill="#000000"/></g><g><path d="M842,865.32645l53.77778,-31.04861l53.77778,31.04861v62.09723l-53.77778,31.04861l-53.77778,-31.04861z" fill="#000000"/><path d="M842,865.32645l53.77778,-31.04861l53.77778,31.04861l-53.77778,31.04861z" fill="#ffffff"/><path d="M949.55556,865.32645v62.09723l-53.77778,31.04861v-62.09723z" fill="#000000"/></g><g><path d="M949.55556,865.32645l53.77778,-31.04861l53.77778,31.04861v62.09723l-53.77778,31.04861l-53.77778,-31.04861z" fill="#000000"/><path d="M949.55556,865.32645l53.77778,-31.04861l53.77778,31.04861l-53.77778,31.04861z" fill="#ffffff"/><path d="M1057.11111,865.32645v62.09723l-53.77778,31.04861v-62.09723z" fill="#000000"/></g><g><path d="M1057.11111,865.32645l53.77778,-31.04861l53.77778,31.04861v62.09723l-53.77778,31.04861l-53.77778,-31.04861z" fill="#000000"/><path d="M1057.11111,865.32645l53.77778,-31.04861l53.77778,31.04861l-53.77778,31.04861z" fill="#ffffff"/><path d="M1164.66667,865.32645v62.09723l-53.77778,31.04861v-62.09723z" fill="#000000"/></g><g><path d="M1164.66667,865.32645l53.77778,-31.04861l53.77778,31.04861v62.09723l-53.77778,31.04861l-53.77778,-31.04861z" fill="#000000"/><path d="M1164.66667,865.32645l53.77778,-31.04861l53.77778,31.04861l-53.77778,31.04861z" fill="#ffffff"/><path d="M1272.22222,865.32645v62.09723l-53.77778,31.04861v-62.09723z" fill="#000000"/></g></g></g></svg>