<svg version="1.1" xmlns="http://www.w3.org/2000/svg" xmlns:xlink="http://www.w3.org/1999/xlink" width="1200" height="675" viewBox="0,0,1200,675"><g fill="none" fill-rule="nonzero" stroke="none" stroke-width="1" stroke-linecap="butt" stroke-linejoin="miter" stroke-miterlimit="10" stroke-dasharray="" stroke-dashoffset="0" font-family="none" font-weight="none" font-size="none" text-anchor="none" style="mix-blend-mode: normal"><g><g><path d="M-126,-221.37506l96.8,-55.88751l96.8,55.88751v111.77501l-96.8,55.88751l-96.8,-55.88751z" fill="#000000"/><path d="M-126,-221.37506l96.8,-55.88751l96.8,55.88751l-96.8,55.88751z" fill="#ffffff"/><path d="M67.6,-221.37506v111.77501l-96.8,55.88751v-111.77501z" fill="#000000"/></g><g><path d="M67.6,-221.37506l96.8,-55.88751l96.8,55.88751v111.77501l-96.8,55.88751l-96.8,-55.88751z" fill="#000000"/><path d="M67.6,-221.37506l96.8,-55.88751l96.8,55.88751l-96.8,55.88751z" fill="#ffffff"/><path d="M261.2,-221.37506v111.77501l-96.8,55.88751v-111.77501z" fill="#000000"/></g><g><path d="M261.2,-221.37506l96.8,-55.88751l96.8,55.88751v111.77501l-96.8,55.88751l-96.8,-55.88751z" fill="#000000"/><path d="M261.2,-221.37506l96.8,-55.88751l96.8,55.88751l-96.8,55.88751z" fill="#ffffff"/><path d="M454.8,-221.37506v111.77501l-96.8,55.88751v-111.77501z" fill="#000000"/></g><g><path d="M454.8,-221.37506l96.8,-55.88751l96.8,55.88751v111.77501l-96.8,55.88751l-96.8,-55.88751z" fill="#000000"/><path d="M454.8,-221.37506l96.8,-55.88751l96.8,55.88751l-96.8,55.88751z" fill="#ffffff"/><path d="M648.4,-221.37506v111.77501l-96.8,55.88751v-111.77501z" fill="#000000"/></g><g><path d="M648.4,-221.37506l96.8,-55.88751l96.8,55.88751v111.77501l-96.8,55.88751l-96.8,-55.88751z" fill="#000000"/><path d="M648.4,-221.37506l96.8,-55.88751l96.8,55.88751l-96.8,55.88751z" fill="#ffffff"/><path d="M842,-221.37506v111.77501l-96.8,55.88751v-111.77501z" fill="#000000"/></g><g><path d="M842,-221.37506l96.8,-55.88751l96.8,55.88751v111.77501l-96.8,55.88751l-96.8,-55.88751z" fill="#000000"/><path d="M842,-221.37506l96.8,-55.88751l96.8,55.88751l-96.8,55.88751z" fill="#ffffff"/><path d="M1035.6,-221.37506v111.77501l-96.8,55.88751v-111.77501z" fill="#000000"/></g><g><path d="M1035.6,-221.37506l96.8,-55.88751l96.8,55.88751v111.77501l-96.8,55.88751l-96.8,-55.88751z" fill="#000000"/><path d="M1035.6,-221.37506l96.8,-55.88751l96.8,55.88751l-96.8,55.88751z" fill="#ffffff"/><path d="M1229.2,-221.37506v111.77501l-96.8,55.88751v-111.77501z" fill="#000000"/></g><g><path d="M-29.2,-53.71254l96.8,-55.88751l96.8,55.88751v111.77501l-96.8,55.88751l-96.8,-55.88751z" fill="#b876c4"/><path d="M-29.2,-53.71254l96.8,-55.88751l96.8,55.88751l-96.8,55.88751z" fill="#ffb1ff"/><path d="M164.4,-53.71254v111.77501l-96.8,55.88751v-111.77501z" fill="#5c3b62"/></g><g><path d="M164.4,-53.71254l96.8,-55.88751l96.8,55.88751v111.77501l-96.8,55.88751l-96.8,-55.88751z" fill="#c26ac5"/><path d="M164.4,-53.71254l96.8,-55.88751l96.8,55.88751l-96.8,55.88751z" fill="#ffa0ff"/><path d="M358,-53.71254v111.77501l-96.8,55.88751v-111.77501z" fill="#613563"/></g><g><path d="M358,-53.71254l96.8,-55.88751l96.8,55.88751v111.77501l-96.8,55.88751l-96.8,-55.88751z" fill="#bf6cbf"/><path d="M358,-53.71254l96.8,-55.88751l96.8,55.88751l-96.8,55.88751z" fill="#ffa1ff"/><path d="M551.6,-53.71254v111.77501l-96.8,55.88751v-111.77501z" fill="#5f365f"/></g><g><path d="M551.6,-53.71254l96.8,-55.88751l96.8,55.88751v111.77501l-96.8,55.88751l-96.8,-55.88751z" fill="#c06bc0"/><path d="M551.6,-53.71254l96.8,-55.88751l96.8,55.88751l-96.8,55.88751z" fill="#ffa1ff"/><path d="M745.2,-53.71254v111.77501l-96.8,55.88751v-111.77501z" fill="#603660"/></g><g><path d="M745.2,-53.71254l96.8,-55.88751l96.8,55.88751v111.77501l-96.8,55.88751l-96.8,-55.88751z" fill="#c166c1"/><path d="M745.2,-53.71254l96.8,-55.88751l96.8,55.88751l-96.8,55.88751z" fill="#ff98ff"/><path d="M938.8,-53.71254v111.77501l-96.8,55.88751v-111.77501z" fill="#613361"/></g><g><path d="M938.8,-53.71254l96.8,-55.88751l96.8,55.88751v111.77501l-96.8,55.88751l-96.8,-55.88751z" fill="#bc6abd"/><path d="M938.8,-53.71254l96.8,-55.88751l96.8,55.88751l-96.8,55.88751z" fill="#ff9fff"/><path d="M1132.4,-53.71254v111.77501l-96.8,55.88751v-111.77501z" fill="#5e355e"/></g><g><path d="M1132.4,-53.71254l96.8,-55.88751l96.8,55.88751v111.77501l-96.8,55.88751l-96.8,-55.88751z" fill="#b270b2"/><path d="M1132.4,-53.71254l96.8,-55.88751l96.8,55.88751l-96.8,55.88751z" fill="#ffa8ff"/><path d="M1326,-53.71254v111.77501l-96.8,55.88751v-111.77501z" fill="#593859"/></g><g><path d="M-126,113.94998l96.8,-55.88751l96.8,55.88751v111.77501l-96.8,55.88751l-96.8,-55.88751z" fill="#5980ac"/><path d="M-126,113.94998l96.8,-55.88751l96.8,55.88751l-96.8,55.88751z" fill="#86bfff"/><path d="M67.6,113.94998v111.77501l-96.8,55.88751v-111.77501z" fill="#2d4056"/></g><g><path d="M67.6,113.94998l96.8,-55.88751l96.8,55.88751v111.77501l-96.8,55.88751l-96.8,-55.88751z" fill="#7f8ad4"/><path d="M67.6,113.94998l96.8,-55.88751l96.8,55.88751l-96.8,55.88751z" fill="#becfff"/><path d="M261.2,113.94998v111.77501l-96.8,55.88751v-111.77501z" fill="#3f456a"/></g><g><path d="M261.2,113.94998l96.8,-55.88751l96.8,55.88751v111.77501l-96.8,55.88751l-96.8,-55.88751z" fill="#9771d0"/><path d="M261.2,113.94998l96.8,-55.88751l96.8,55.88751l-96.8,55.88751z" fill="#e3a9ff"/><path d="M454.8,113.94998v111.77501l-96.8,55.88751v-111.77501z" fill="#4c3868"/></g><g><path d="M454.8,113.94998l96.8,-55.88751l96.8,55.88751v111.77501l-96.8,55.88751l-96.8,-55.88751z" fill="#8e73c0"/><path d="M454.8,113.94998l96.8,-55.88751l96.8,55.88751l-96.8,55.88751z" fill="#d5acff"/><path d="M648.4,113.94998v111.77501l-96.8,55.88751v-111.77501z" fill="#473960"/></g><g><path d="M648.4,113.94998l96.8,-55.88751l96.8,55.88751v111.77501l-96.8,55.88751l-96.8,-55.88751z" fill="#8f78cc"/><path d="M648.4,113.94998l96.8,-55.88751l96.8,55.88751l-96.8,55.88751z" fill="#d6b4ff"/><path d="M842,113.94998v111.77501l-96.8,55.88751v-111.77501z" fill="#473c66"/></g><g><path d="M842,113.94998l96.8,-55.88751l96.8,55.88751v111.77501l-96.8,55.88751l-96.8,-55.88751z" fill="#8475ba"/><path d="M842,113.94998l96.8,-55.88751l96.8,55.88751l-96.8,55.88751z" fill="#c6b0ff"/><path d="M1035.6,113.94998v111.77501l-96.8,55.88751v-111.77501z" fill="#423b5d"/></g><g><path d="M1035.6,113.94998l96.8,-55.88751l96.8,55.88751v111.77501l-96.8,55.88751l-96.8,-55.88751z" fill="#807399"/><path d="M1035.6,113.94998l96.8,-55.88751l96.8,55.88751l-96.8,55.88751z" fill="#c0ace5"/><path d="M1229.2,113.94998v111.77501l-96.8,55.88751v-111.77501z" fill="#40394c"/></g><g><path d="M-29.2,281.61249l96.8,-55.88751l96.8,55.88751v111.77501l-96.8,55.88751l-96.8,-55.88751z" fill="#679fe6"/><path d="M-29.2,281.61249l96.8,-55.88751l96.8,55.88751l-96.8,55.88751z" fill="#9beeff"/><path d="M164.4,281.61249v111.77501l-96.8,55.88751v-111.77501z" fill="#344f73"/></g><g><path d="M164.4,281.61249l96.8,-55.88751l96.8,55.88751v111.77501l-96.8,55.88751l-96.8,-55.88751z" fill="#54b9ef"/><path d="M164.4,281.61249l96.8,-55.88751l96.8,55.88751l-96.8,55.88751z" fill="#7fffff"/><path d="M358,281.61249v111.77501l-96.8,55.88751v-111.77501z" fill="#2a5c77"/></g><g><path d="M358,281.61249l96.8,-55.88751l96.8,55.88751v111.77501l-96.8,55.88751l-96.8,-55.88751z" fill="#57b0e8"/><path d="M358,281.61249l96.8,-55.88751l96.8,55.88751l-96.8,55.88751z" fill="#82ffff"/><path d="M551.6,281.61249v111.77501l-96.8,55.88751v-111.77501z" fill="#2b5874"/></g><g><path d="M551.6,281.61249l96.8,-55.88751l96.8,55.88751v111.77501l-96.8,55.88751l-96.8,-55.88751z" fill="#52a9d7"/><path d="M551.6,281.61249l96.8,-55.88751l96.8,55.88751l-96.8,55.88751z" fill="#7bfeff"/><path d="M745.2,281.61249v111.77501l-96.8,55.88751v-111.77501z" fill="#29556b"/></g><g><path d="M745.2,281.61249l96.8,-55.88751l96.8,55.88751v111.77501l-96.8,55.88751l-96.8,-55.88751z" fill="#56a5d6"/><path d="M745.2,281.61249l96.8,-55.88751l96.8,55.88751l-96.8,55.88751z" fill="#80f7ff"/><path d="M938.8,281.61249v111.77501l-96.8,55.88751v-111.77501z" fill="#2b526b"/></g><g><path d="M938.8,281.61249l96.8,-55.88751l96.8,55.88751v111.77501l-96.8,55.88751l-96.8,-55.88751z" fill="#49b8d8"/><path d="M938.8,281.61249l96.8,-55.88751l96.8,55.88751l-96.8,55.88751z" fill="#6dffff"/><path d="M1132.4,281.61249v111.77501l-96.8,55.88751v-111.77501z" fill="#245c6c"/></g><g><path d="M1132.4,281.61249l96.8,-55.88751l96.8,55.88751v111.77501l-96.8,55.88751l-96.8,-55.88751z" fill="#49b5c1"/><path d="M1132.4,281.61249l96.8,-55.88751l96.8,55.88751l-96.8,55.88751z" fill="#6dffff"/><path d="M1326,281.61249v111.77501l-96.8,55.88751v-111.77501z" fill="#245b61"/></g><g><path d="M-126,449.27501l96.8,-55.88751l96.8,55.88751v111.77501l-96.8,55.88751l-96.8,-55.88751z" fill="#516785"/><path d="M-126,449.27501l96.8,-55.88751l96.8,55.88751l-96.8,55.88751z" fill="#7a9ac8"/><path d="M67.6,449.27501v111.77501l-96.8,55.88751v-111.77501z" fill="#293343"/></g><g><path d="M67.6,449.27501l96.8,-55.88751l96.8,55.88751v111.77501l-96.8,55.88751l-96.8,-55.88751z" fill="#51ccee"/><path d="M67.6,449.27501l96.8,-55.88751l96.8,55.88751l-96.8,55.88751z" fill="#79ffff"/><path d="M261.2,449.27501v111.77501l-96.8,55.88751v-111.77501z" fill="#286677"/></g><g><path d="M261.2,449.27501l96.8,-55.88751l96.8,55.88751v111.77501l-96.8,55.88751l-96.8,-55.88751z" fill="#55c9f2"/><path d="M261.2,449.27501l96.8,-55.88751l96.8,55.88751l-96.8,55.88751z" fill="#7fffff"/><path d="M454.8,449.27501v111.77501l-96.8,55.88751v-111.77501z" fill="#2a6579"/></g><g><path d="M454.8,449.27501l96.8,-55.88751l96.8,55.88751v111.77501l-96.8,55.88751l-96.8,-55.88751z" fill="#53b3cf"/><path d="M454.8,449.27501l96.8,-55.88751l96.8,55.88751l-96.8,55.88751z" fill="#7dffff"/><path d="M648.4,449.27501v111.77501l-96.8,55.88751v-111.77501z" fill="#2a5968"/></g><g><path d="M648.4,449.27501l96.8,-55.88751l96.8,55.88751v111.77501l-96.8,55.88751l-96.8,-55.88751z" fill="#4adaf4"/><path d="M648.4,449.27501l96.8,-55.88751l96.8,55.88751l-96.8,55.88751z" fill="#6fffff"/><path d="M842,449.27501v111.77501l-96.8,55.88751v-111.77501z" fill="#256d7a"/></g><g><path d="M842,449.27501l96.8,-55.88751l96.8,55.88751v111.77501l-96.8,55.88751l-96.8,-55.88751z" fill="#4bd2ec"/><path d="M842,449.27501l96.8,-55.88751l96.8,55.88751l-96.8,55.88751z" fill="#70ffff"/><path d="M1035.6,449.27501v111.77501l-96.8,55.88751v-111.77501z" fill="#256976"/></g><g><path d="M1035.6,449.27501l96.8,-55.88751l96.8,55.88751v111.77501l-96.8,55.88751l-96.8,-55.88751z" fill="#4acbdd"/><path d="M1035.6,449.27501l96.8,-55.88751l96.8,55.88751l-96.8,55.88751z" fill="#6fffff"/><path d="M1229.2,449.27501v111.77501l-96.8,55.88751v-111.77501z" fill="#25666e"/></g><g><path d="M-29.2,616.93753l96.8,-55.88751l96.8,55.88751v111.77501l-96.8,55.88751l-96.8,-55.88751z" fill="#7782de"/><path d="M-29.2,616.93753l96.8,-55.88751l96.8,55.88751l-96.8,55.88751z" fill="#b3c3ff"/><path d="M164.4,616.93753v111.77501l-96.8,55.88751v-111.77501z" fill="#3c416f"/></g><g><path d="M164.4,616.93753l96.8,-55.88751l96.8,55.88751v111.77501l-96.8,55.88751l-96.8,-55.88751z" fill="#688ad0"/><path d="M164.4,616.93753l96.8,-55.88751l96.8,55.88751l-96.8,55.88751z" fill="#9bceff"/><path d="M358,616.93753v111.77501l-96.8,55.88751v-111.77501z" fill="#344568"/></g><g><path d="M358,616.93753l96.8,-55.88751l96.8,55.88751v111.77501l-96.8,55.88751l-96.8,-55.88751z" fill="#6a9eec"/><path d="M358,616.93753l96.8,-55.88751l96.8,55.88751l-96.8,55.88751z" fill="#9fecff"/><path d="M551.6,616.93753v111.77501l-96.8,55.88751v-111.77501z" fill="#354f76"/></g><g><path d="M551.6,616.93753l96.8,-55.88751l96.8,55.88751v111.77501l-96.8,55.88751l-96.8,-55.88751z" fill="#5fa1de"/><path d="M551.6,616.93753l96.8,-55.88751l96.8,55.88751l-96.8,55.88751z" fill="#8ef1ff"/><path d="M745.2,616.93753v111.77501l-96.8,55.88751v-111.77501z" fill="#2f506f"/></g><g><path d="M745.2,616.93753l96.8,-55.88751l96.8,55.88751v111.77501l-96.8,55.88751l-96.8,-55.88751z" fill="#25e0e0"/><path d="M745.2,616.93753l96.8,-55.88751l96.8,55.88751l-96.8,55.88751z" fill="#37ffff"/><path d="M938.8,616.93753v111.77501l-96.8,55.88751v-111.77501z" fill="#127070"/></g><g><path d="M938.8,616.93753l96.8,-55.88751l96.8,55.88751v111.77501l-96.8,55.88751l-96.8,-55.88751z" fill="#27dfdf"/><path d="M938.8,616.93753l96.8,-55.88751l96.8,55.88751l-96.8,55.88751z" fill="#3affff"/><path d="M1132.4,616.93753v111.77501l-96.8,55.88751v-111.77501z" fill="#136f6f"/></g><g><path d="M1132.4,616.93753l96.8,-55.88751l96.8,55.88751v111.77501l-96.8,55.88751l-96.8,-55.88751z" fill="#30dcdc"/><path d="M1132.4,616.93753l96.8,-55.88751l96.8,55.88751l-96.8,55.88751z" fill="#48ffff"/><path d="M1326,616.93753v111.77501l-96.8,55.88751v-111.77501z" fill="#186e6e"/></g><g><path d="M-126,784.60005l96.8,-55.88751l96.8,55.88751v111.77501l-96.8,55.88751l-96.8,-55.88751z" fill="#000000"/><path d="M-126,784.60005l96.8,-55.88751l96.8,55.88751l-96.8,55.88751z" fill="#ffffff"/><path d="M67.6,784.60005v111.77501l-96.8,55.88751v-111.77501z" fill="#000000"/></g><g><path d="M67.6,784.60005l96.8,-55.88751l96.8,55.88751v111.77501l-96.8,55.88751l-96.8,-55.88751z" fill="#000000"/><path d="M67.6,784.60005l96.8,-55.88751l96.8,55.88751l-96.8,55.88751z" fill="#ffffff"/><path d="M261.2,784.60005v111.77501l-96.8,55.88751v-111.77501z" fill="#000000"/></g><g><path d="M261.2,784.60005l96.8,-55.88751l96.8,55.88751v111.77501l-96.8,55.88751l-96.8,-55.88751z" fill="#000000"/><path d="M261.2,784.60005l96.8,-55.88751l96.8,55.88751l-96.8,55.88751z" fill="#ffffff"/><path d="M454.8,784.60005v111.77501l-96.8,55.88751v-111.77501z" fill="#000000"/></g><g><path d="M454.8,784.60005l96.8,-55.88751l96.8,55.88751v111.77501l-96.8,55.88751l-96.8,-55.88751z" fill="#000000"/><path d="M454.8,784.60005l96.8,-55.88751l96.8,55.88751l-96.8,55.88751z" fill="#ffffff"/><path d="M648.4,784.60005v111.77501l-96.8,55.88751v-111.77501z" fill="#000000"/></g><g><path d="M648.4,784.60005l96.8,-55.88751l96.8,55.88751v111.77501l-96.8,55.88751l-96.8,-55.88751z" fill="#000000"/><path d="M648.4,784.60005l96.8,-55.88751l96.8,55.88751l-96.8,55.88751z" fill="#ffffff"/><path d="M842,784.60005v111.77501l-96.8,55.88751v-111.77501z" fill="#000000"/></g><g><path d="M842,784.60005l96.8,-55.88751l96.8,55.88751v111.77501l-96.8,55.88751l-96.8,-55.88751z" fill="#000000"/><path d="M842,784.60005l96.8,-55.88751l96.8,55.88751l-96.8,55.88751z" fill="#ffffff"/><path d="M1035.6,784.60005v111.77501l-96.8,55.88751v-111.77501z" fill="#000000"/></g><g><path d="M1035.6,784.60005l96.8,-55.88751l96.8,55.88751v111.77501l-96.8,55.88751l-96.8,-55.88751z" fill="#000000"/><path d="M1035.6,784.60005l96.8,-55.88751l96.8,55.88751l-96.8,55.88751z" fill="#ffffff"/><path d="M1229.2,784.60005v111.77501l-96.8,55.88751v-111.77501z" fill="#000000"/></g></g></g></svg>