<svg version="1.1" xmlns="http://www.w3.org/2000/svg" xmlns:xlink="http://www.w3.org/1999/xlink" width="1200" height="630" viewBox="0,0,1200,630"><g fill="none" fill-rule="nonzero" stroke="none" stroke-width="1" stroke-linecap="butt" stroke-linejoin="miter" stroke-miterlimit="10" stroke-dasharray="" stroke-dashoffset="0" font-family="none" font-weight="none" font-size="none" text-anchor="none" style="mix-blend-mode: normal"><g><g><path d="M-126,-243.87506l96.8,-55.88751l96.8,55.88751v111.77501l-96.8,55.88751l-96.8,-55.88751z" fill="#000000"/><path d="M-126,-243.87506l96.8,-55.88751l96.8,55.88751l-96.8,55.88751z" fill="#ffffff"/><path d="M67.6,-243.87506v111.77501l-96.8,55.88751v-111.77501z" fill="#000000"/></g><g><path d="M67.6,-243.87506l96.8,-55.88751l96.8,55.88751v111.77501l-96.8,55.88751l-96.8,-55.88751z" fill="#000000"/><path d="M67.6,-243.87506l96.8,-55.88751l96.8,55.88751l-96.8,55.88751z" fill="#ffffff"/><path d="M261.2,-243.87506v111.77501l-96.8,55.88751v-111.77501z" fill="#000000"/></g><g><path d="M261.2,-243.87506l96.8,-55.88751l96.8,55.88751v111.77501l-96.8,55.88751l-96.8,-55.88751z" fill="#000000"/><path d="M261.2,-243.87506l96.8,-55.88751l96.8,55.88751l-96.8,55.88751z" fill="#ffffff"/><path d="M454.8,-243.87506v111.77501l-96.8,55.88751v-111.77501z" fill="#000000"/></g><g><path d="M454.8,-243.87506l96.8,-55.88751l96.8,55.88751v111.77501l-96.8,55.88751l-96.8,-55.88751z" fill="#000000"/><path d="M454.8,-243.87506l96.8,-55.88751l96.8,55.88751l-96.8,55.88751z" fill="#ffffff"/><path d="M648.4,-243.87506v111.77501l-96.8,55.88751v-111.77501z" fill="#000000"/></g><g><path d="M648.4,-243.87506l96.8,-55.88751l96.8,55.88751v111.77501l-96.8,55.88751l-96.8,-55.88751z" fill="#000000"/><path d="M648.4,-243.87506l96.8,-55.88751l96.8,55.88751l-96.8,55.88751z" fill="#ffffff"/><path d="M842,-243.87506v111.77501l-96.8,55.88751v-111.77501z" fill="#000000"/></g><g><path d="M842,-243.87506l96.8,-55.88751l96.8,55.88751v111.77501l-96.8,55.88751l-96.8,-55.88751z" fill="#000000"/><path d="M842,-243.87506l96.8,-55.88751l96.8,55.88751l-96.8,55.88751z" fill="#ffffff"/><path d="M1035.6,-243.87506v111.77501l-96.8,55.88751v-111.77501z" fill="#000000"/></g><g><path d="M1035.6,-243.87506l96.8,-55.88751l96.8,55.88751v111.77501l-96.8,55.88751l-96.8,-55.88751z" fill="#000000"/><path d="M1035.6,-243.87506l96.8,-55.88751l96.8,55.88751l-96.8,55.88751z" fill="#ffffff"/><path d="M1229.2,-243.87506v111.77501l-96.8,55.88751v-111.77501z" fill="#000000"/></g><g><path d="M-29.2,-76.21254l96.8,-55.88751l96.8,55.88751v111.77501l-96.8,55.88751l-96.8,-55.88751z" fill="#d574dc"/><path d="M-29.2,-76.21254l96.8,-55.88751l96.8,55.88751l-96.8,55.88751z" fill="#ffaeff"/><path d="M164.4,-76.21254v111.77501l-96.8,55.88751v-111.77501z" fill="#6a3a6e"/></g><g><path d="M164.4,-76.21254l96.8,-55.88751l96.8,55.88751v111.77501l-96.8,55.88751l-96.8,-55.88751z" fill="#d670d9"/><path d="M164.4,-76.21254l96.8,-55.88751l96.8,55.88751l-96.8,55.88751z" fill="#ffa8ff"/><path d="M358,-76.21254v111.77501l-96.8,55.88751v-111.77501z" fill="#6b386d"/></g><g><path d="M358,-76.21254l96.8,-55.88751l96.8,55.88751v111.77501l-96.8,55.88751l-96.8,-55.88751z" fill="#da6dda"/><path d="M358,-76.21254l96.8,-55.88751l96.8,55.88751l-96.8,55.88751z" fill="#ffa3ff"/><path d="M551.6,-76.21254v111.77501l-96.8,55.88751v-111.77501z" fill="#6d366d"/></g><g><path d="M551.6,-76.21254l96.8,-55.88751l96.8,55.88751v111.77501l-96.8,55.88751l-96.8,-55.88751z" fill="#c38ad7"/><path d="M551.6,-76.21254l96.8,-55.88751l96.8,55.88751l-96.8,55.88751z" fill="#ffcfff"/><path d="M745.2,-76.21254v111.77501l-96.8,55.88751v-111.77501z" fill="#62456c"/></g><g><path d="M745.2,-76.21254l96.8,-55.88751l96.8,55.88751v111.77501l-96.8,55.88751l-96.8,-55.88751z" fill="#ca84de"/><path d="M745.2,-76.21254l96.8,-55.88751l96.8,55.88751l-96.8,55.88751z" fill="#ffc6ff"/><path d="M938.8,-76.21254v111.77501l-96.8,55.88751v-111.77501z" fill="#65426f"/></g><g><path d="M938.8,-76.21254l96.8,-55.88751l96.8,55.88751v111.77501l-96.8,55.88751l-96.8,-55.88751z" fill="#cd84dd"/><path d="M938.8,-76.21254l96.8,-55.88751l96.8,55.88751l-96.8,55.88751z" fill="#ffc7ff"/><path d="M1132.4,-76.21254v111.77501l-96.8,55.88751v-111.77501z" fill="#67426e"/></g><g><path d="M1132.4,-76.21254l96.8,-55.88751l96.8,55.88751v111.77501l-96.8,55.88751l-96.8,-55.88751z" fill="#ca86db"/><path d="M1132.4,-76.21254l96.8,-55.88751l96.8,55.88751l-96.8,55.88751z" fill="#ffc8ff"/><path d="M1326,-76.21254v111.77501l-96.8,55.88751v-111.77501z" fill="#65436e"/></g><g><path d="M-126,91.44998l96.8,-55.88751l96.8,55.88751v111.77501l-96.8,55.88751l-96.8,-55.88751z" fill="#7872be"/><path d="M-126,91.44998l96.8,-55.88751l96.8,55.88751l-96.8,55.88751z" fill="#b3abff"/><path d="M67.6,91.44998v111.77501l-96.8,55.88751v-111.77501z" fill="#3c395f"/></g><g><path d="M67.6,91.44998l96.8,-55.88751l96.8,55.88751v111.77501l-96.8,55.88751l-96.8,-55.88751z" fill="#9d81e4"/><path d="M67.6,91.44998l96.8,-55.88751l96.8,55.88751l-96.8,55.88751z" fill="#ebc1ff"/><path d="M261.2,91.44998v111.77501l-96.8,55.88751v-111.77501z" fill="#4e4072"/></g><g><path d="M261.2,91.44998l96.8,-55.88751l96.8,55.88751v111.77501l-96.8,55.88751l-96.8,-55.88751z" fill="#9687de"/><path d="M261.2,91.44998l96.8,-55.88751l96.8,55.88751l-96.8,55.88751z" fill="#e2cbff"/><path d="M454.8,91.44998v111.77501l-96.8,55.88751v-111.77501z" fill="#4b446f"/></g><g><path d="M454.8,91.44998l96.8,-55.88751l96.8,55.88751v111.77501l-96.8,55.88751l-96.8,-55.88751z" fill="#9585db"/><path d="M454.8,91.44998l96.8,-55.88751l96.8,55.88751l-96.8,55.88751z" fill="#e0c8ff"/><path d="M648.4,91.44998v111.77501l-96.8,55.88751v-111.77501z" fill="#4b436e"/></g><g><path d="M648.4,91.44998l96.8,-55.88751l96.8,55.88751v111.77501l-96.8,55.88751l-96.8,-55.88751z" fill="#b175d7"/><path d="M648.4,91.44998l96.8,-55.88751l96.8,55.88751l-96.8,55.88751z" fill="#ffb0ff"/><path d="M842,91.44998v111.77501l-96.8,55.88751v-111.77501z" fill="#593b6b"/></g><g><path d="M842,91.44998l96.8,-55.88751l96.8,55.88751v111.77501l-96.8,55.88751l-96.8,-55.88751z" fill="#b66dd1"/><path d="M842,91.44998l96.8,-55.88751l96.8,55.88751l-96.8,55.88751z" fill="#ffa4ff"/><path d="M1035.6,91.44998v111.77501l-96.8,55.88751v-111.77501z" fill="#5b3769"/></g><g><path d="M1035.6,91.44998l96.8,-55.88751l96.8,55.88751v111.77501l-96.8,55.88751l-96.8,-55.88751z" fill="#9a91c4"/><path d="M1035.6,91.44998l96.8,-55.88751l96.8,55.88751l-96.8,55.88751z" fill="#e6d9ff"/><path d="M1229.2,91.44998v111.77501l-96.8,55.88751v-111.77501z" fill="#4d4862"/></g><g><path d="M-29.2,259.11249l96.8,-55.88751l96.8,55.88751v111.77501l-96.8,55.88751l-96.8,-55.88751z" fill="#8a8ff2"/><path d="M-29.2,259.11249l96.8,-55.88751l96.8,55.88751l-96.8,55.88751z" fill="#cfd6ff"/><path d="M164.4,259.11249v111.77501l-96.8,55.88751v-111.77501z" fill="#454779"/></g><g><path d="M164.4,259.11249l96.8,-55.88751l96.8,55.88751v111.77501l-96.8,55.88751l-96.8,-55.88751z" fill="#7f9ef6"/><path d="M164.4,259.11249l96.8,-55.88751l96.8,55.88751l-96.8,55.88751z" fill="#bfecff"/><path d="M358,259.11249v111.77501l-96.8,55.88751v-111.77501z" fill="#404f7b"/></g><g><path d="M358,259.11249l96.8,-55.88751l96.8,55.88751v111.77501l-96.8,55.88751l-96.8,-55.88751z" fill="#8299f1"/><path d="M358,259.11249l96.8,-55.88751l96.8,55.88751l-96.8,55.88751z" fill="#c4e6ff"/><path d="M551.6,259.11249v111.77501l-96.8,55.88751v-111.77501z" fill="#414d78"/></g><g><path d="M551.6,259.11249l96.8,-55.88751l96.8,55.88751v111.77501l-96.8,55.88751l-96.8,-55.88751z" fill="#7ca0e5"/><path d="M551.6,259.11249l96.8,-55.88751l96.8,55.88751l-96.8,55.88751z" fill="#bbf0ff"/><path d="M745.2,259.11249v111.77501l-96.8,55.88751v-111.77501z" fill="#3e5072"/></g><g><path d="M745.2,259.11249l96.8,-55.88751l96.8,55.88751v111.77501l-96.8,55.88751l-96.8,-55.88751z" fill="#8f95e0"/><path d="M745.2,259.11249l96.8,-55.88751l96.8,55.88751l-96.8,55.88751z" fill="#d6e0ff"/><path d="M938.8,259.11249v111.77501l-96.8,55.88751v-111.77501z" fill="#474b70"/></g><g><path d="M938.8,259.11249l96.8,-55.88751l96.8,55.88751v111.77501l-96.8,55.88751l-96.8,-55.88751z" fill="#7fb0e1"/><path d="M938.8,259.11249l96.8,-55.88751l96.8,55.88751l-96.8,55.88751z" fill="#beffff"/><path d="M1132.4,259.11249v111.77501l-96.8,55.88751v-111.77501z" fill="#3f5871"/></g><g><path d="M1132.4,259.11249l96.8,-55.88751l96.8,55.88751v111.77501l-96.8,55.88751l-96.8,-55.88751z" fill="#7db6e2"/><path d="M1132.4,259.11249l96.8,-55.88751l96.8,55.88751l-96.8,55.88751z" fill="#bbffff"/><path d="M1326,259.11249v111.77501l-96.8,55.88751v-111.77501z" fill="#3e5b71"/></g><g><path d="M-126,426.77501l96.8,-55.88751l96.8,55.88751v111.77501l-96.8,55.88751l-96.8,-55.88751z" fill="#666792"/><path d="M-126,426.77501l96.8,-55.88751l96.8,55.88751l-96.8,55.88751z" fill="#9a9adb"/><path d="M67.6,426.77501v111.77501l-96.8,55.88751v-111.77501z" fill="#333349"/></g><g><path d="M67.6,426.77501l96.8,-55.88751l96.8,55.88751v111.77501l-96.8,55.88751l-96.8,-55.88751z" fill="#77b2ed"/><path d="M67.6,426.77501l96.8,-55.88751l96.8,55.88751l-96.8,55.88751z" fill="#b2ffff"/><path d="M261.2,426.77501v111.77501l-96.8,55.88751v-111.77501z" fill="#3b5977"/></g><g><path d="M261.2,426.77501l96.8,-55.88751l96.8,55.88751v111.77501l-96.8,55.88751l-96.8,-55.88751z" fill="#6ac7f5"/><path d="M261.2,426.77501l96.8,-55.88751l96.8,55.88751l-96.8,55.88751z" fill="#9fffff"/><path d="M454.8,426.77501v111.77501l-96.8,55.88751v-111.77501z" fill="#35647b"/></g><g><path d="M454.8,426.77501l96.8,-55.88751l96.8,55.88751v111.77501l-96.8,55.88751l-96.8,-55.88751z" fill="#71aad5"/><path d="M454.8,426.77501l96.8,-55.88751l96.8,55.88751l-96.8,55.88751z" fill="#aaffff"/><path d="M648.4,426.77501v111.77501l-96.8,55.88751v-111.77501z" fill="#39556a"/></g><g><path d="M648.4,426.77501l96.8,-55.88751l96.8,55.88751v111.77501l-96.8,55.88751l-96.8,-55.88751z" fill="#67d1f8"/><path d="M648.4,426.77501l96.8,-55.88751l96.8,55.88751l-96.8,55.88751z" fill="#9bffff"/><path d="M842,426.77501v111.77501l-96.8,55.88751v-111.77501z" fill="#34697c"/></g><g><path d="M842,426.77501l96.8,-55.88751l96.8,55.88751v111.77501l-96.8,55.88751l-96.8,-55.88751z" fill="#6eccf1"/><path d="M842,426.77501l96.8,-55.88751l96.8,55.88751l-96.8,55.88751z" fill="#a5ffff"/><path d="M1035.6,426.77501v111.77501l-96.8,55.88751v-111.77501z" fill="#376679"/></g><g><path d="M1035.6,426.77501l96.8,-55.88751l96.8,55.88751v111.77501l-96.8,55.88751l-96.8,-55.88751z" fill="#59dde1"/><path d="M1035.6,426.77501l96.8,-55.88751l96.8,55.88751l-96.8,55.88751z" fill="#86ffff"/><path d="M1229.2,426.77501v111.77501l-96.8,55.88751v-111.77501z" fill="#2d6f71"/></g><g><path d="M-29.2,594.43753l96.8,-55.88751l96.8,55.88751v111.77501l-96.8,55.88751l-96.8,-55.88751z" fill="#31c0d2"/><path d="M-29.2,594.43753l96.8,-55.88751l96.8,55.88751l-96.8,55.88751z" fill="#4affff"/><path d="M164.4,594.43753v111.77501l-96.8,55.88751v-111.77501z" fill="#196069"/></g><g><path d="M164.4,594.43753l96.8,-55.88751l96.8,55.88751v111.77501l-96.8,55.88751l-96.8,-55.88751z" fill="#5b8cc0"/><path d="M164.4,594.43753l96.8,-55.88751l96.8,55.88751l-96.8,55.88751z" fill="#88d2ff"/><path d="M358,594.43753v111.77501l-96.8,55.88751v-111.77501z" fill="#2d4660"/></g><g><path d="M358,594.43753l96.8,-55.88751l96.8,55.88751v111.77501l-96.8,55.88751l-96.8,-55.88751z" fill="#2ed5ef"/><path d="M358,594.43753l96.8,-55.88751l96.8,55.88751l-96.8,55.88751z" fill="#46ffff"/><path d="M551.6,594.43753v111.77501l-96.8,55.88751v-111.77501z" fill="#176b77"/></g><g><path d="M551.6,594.43753l96.8,-55.88751l96.8,55.88751v111.77501l-96.8,55.88751l-96.8,-55.88751z" fill="#5da2df"/><path d="M551.6,594.43753l96.8,-55.88751l96.8,55.88751l-96.8,55.88751z" fill="#8cf3ff"/><path d="M745.2,594.43753v111.77501l-96.8,55.88751v-111.77501z" fill="#2f516f"/></g><g><path d="M745.2,594.43753l96.8,-55.88751l96.8,55.88751v111.77501l-96.8,55.88751l-96.8,-55.88751z" fill="#6e98e1"/><path d="M745.2,594.43753l96.8,-55.88751l96.8,55.88751l-96.8,55.88751z" fill="#a6e4ff"/><path d="M938.8,594.43753v111.77501l-96.8,55.88751v-111.77501z" fill="#374c71"/></g><g><path d="M938.8,594.43753l96.8,-55.88751l96.8,55.88751v111.77501l-96.8,55.88751l-96.8,-55.88751z" fill="#7394dd"/><path d="M938.8,594.43753l96.8,-55.88751l96.8,55.88751l-96.8,55.88751z" fill="#acdeff"/><path d="M1132.4,594.43753v111.77501l-96.8,55.88751v-111.77501z" fill="#394a6e"/></g><g><path d="M1132.4,594.43753l96.8,-55.88751l96.8,55.88751v111.77501l-96.8,55.88751l-96.8,-55.88751z" fill="#30dcdc"/><path d="M1132.4,594.43753l96.8,-55.88751l96.8,55.88751l-96.8,55.88751z" fill="#48ffff"/><path d="M1326,594.43753v111.77501l-96.8,55.88751v-111.77501z" fill="#186e6e"/></g><g><path d="M-126,762.10005l96.8,-55.88751l96.8,55.88751v111.77501l-96.8,55.88751l-96.8,-55.88751z" fill="#000000"/><path d="M-126,762.10005l96.8,-55.88751l96.8,55.88751l-96.8,55.88751z" fill="#ffffff"/><path d="M67.6,762.10005v111.77501l-96.8,55.88751v-111.77501z" fill="#000000"/></g><g><path d="M67.6,762.10005l96.8,-55.88751l96.8,55.88751v111.77501l-96.8,55.88751l-96.8,-55.88751z" fill="#000000"/><path d="M67.6,762.10005l96.8,-55.88751l96.8,55.88751l-96.8,55.88751z" fill="#ffffff"/><path d="M261.2,762.10005v111.77501l-96.8,55.88751v-111.77501z" fill="#000000"/></g><g><path d="M261.2,762.10005l96.8,-55.88751l96.8,55.88751v111.77501l-96.8,55.88751l-96.8,-55.88751z" fill="#000000"/><path d="M261.2,762.10005l96.8,-55.88751l96.8,55.88751l-96.8,55.88751z" fill="#ffffff"/><path d="M454.8,762.10005v111.77501l-96.8,55.88751v-111.77501z" fill="#000000"/></g><g><path d="M454.8,762.10005l96.8,-55.88751l96.8,55.88751v111.77501l-96.8,55.88751l-96.8,-55.88751z" fill="#000000"/><path d="M454.8,762.10005l96.8,-55.88751l96.8,55.88751l-96.8,55.88751z" fill="#ffffff"/><path d="M648.4,762.10005v111.77501l-96.8,55.88751v-111.77501z" fill="#000000"/></g><g><path d="M648.4,762.10005l96.8,-55.88751l96.8,55.88751v111.77501l-96.8,55.88751l-96.8,-55.88751z" fill="#000000"/><path d="M648.4,762.10005l96.8,-55.88751l96.8,55.88751l-96.8,55.88751z" fill="#ffffff"/><path d="M842,762.10005v111.77501l-96.8,55.88751v-111.77501z" fill="#000000"/></g><g><path d="M842,762.10005l96.8,-55.88751l96.8,55.88751v111.77501l-96.8,55.88751l-96.8,-55.88751z" fill="#000000"/><path d="M842,762.10005l96.8,-55.88751l96.8,55.88751l-96.8,55.88751z" fill="#ffffff"/><path d="M1035.6,762.10005v111.77501l-96.8,55.88751v-111.77501z" fill="#000000"/></g><g><path d="M1035.6,762.10005l96.8,-55.88751l96.8,55.88751v111.77501l-96.8,55.88751l-96.8,-55.88751z" fill="#000000"/><path d="M1035.6,762.10005l96.8,-55.88751l96.8,55.88751l-96.8,55.88751z" fill="#ffffff"/><path d="M1229.2,762.10005v111.77501l-96.8,55.88751v-111.77501z" fill="#000000"/></g></g></g></svg>