<svg version="1.1" xmlns="http://www.w3.org/2000/svg" xmlns:xlink="http://www.w3.org/1999/xlink" width="1200" height="675" viewBox="0,0,1200,675"><g fill="none" fill-rule="nonzero" stroke="none" stroke-width="1" stroke-linecap="butt" stroke-linejoin="miter" stroke-miterlimit="10" stroke-dasharray="" stroke-dashoffset="0" font-family="none" font-weight="none" font-size="none" text-anchor="none" style="mix-blend-mode: normal"><g><g><path d="M-126,-221.37506l96.8,-55.88751l96.8,55.88751v111.77501l-96.8,55.88751l-96.8,-55.88751z" fill="#000000"/><path d="M-126,-221.37506l96.8,-55.88751l96.8,55.88751l-96.8,55.88751z" fill="#ffffff"/><path d="M67.6,-221.37506v111.77501l-96.8,55.88751v-111.77501z" fill="#000000"/></g><g><path d="M67.6,-221.37506l96.8,-55.88751l96.8,55.88751v111.77501l-96.8,55.88751l-96.8,-55.88751z" fill="#000000"/><path d="M67.6,-221.37506l96.8,-55.88751l96.8,55.88751l-96.8,55.88751z" fill="#ffffff"/><path d="M261.2,-221.37506v111.77501l-96.8,55.88751v-111.77501z" fill="#000000"/></g><g><path d="M261.2,-221.37506l96.8,-55.88751l96.8,55.88751v111.77501l-96.8,55.88751l-96.8,-55.88751z" fill="#000000"/><path d="M261.2,-221.37506l96.8,-55.88751l96.8,55.88751l-96.8,55.88751z" fill="#ffffff"/><path d="M454.8,-221.37506v111.77501l-96.8,55.88751v-111.77501z" fill="#000000"/></g><g><path d="M454.8,-221.37506l96.8,-55.88751l96.8,55.88751v111.77501l-96.8,55.88751l-96.8,-55.88751z" fill="#000000"/><path d="M454.8,-221.37506l96.8,-55.88751l96.8,55.88751l-96.8,55.88751z" fill="#ffffff"/><path d="M648.4,-221.37506v111.77501l-96.8,55.88751v-111.77501z" fill="#000000"/></g><g><path d="M648.4,-221.37506l96.8,-55.88751l96.8,55.88751v111.77501l-96.8,55.88751l-96.8,-55.88751z" fill="#000000"/><path d="M648.4,-221.37506l96.8,-55.88751l96.8,55.88751l-96.8,55.88751z" fill="#ffffff"/><path d="M842,-221.37506v111.77501l-96.8,55.88751v-111.77501z" fill="#000000"/></g><g><path d="M842,-221.37506l96.8,-55.88751l96.8,55.88751v111.77501l-96.8,55.88751l-96.8,-55.88751z" fill="#000000"/><path d="M842,-221.37506l96.8,-55.88751l96.8,55.88751l-96.8,55.88751z" fill="#ffffff"/><path d="M1035.6,-221.37506v111.77501l-96.8,55.88751v-111.77501z" fill="#000000"/></g><g><path d="M1035.6,-221.37506l96.8,-55.88751l96.8,55.88751v111.77501l-96.8,55.88751l-96.8,-55.88751z" fill="#000000"/><path d="M1035.6,-221.37506l96.8,-55.88751l96.8,55.88751l-96.8,55.88751z" fill="#ffffff"/><path d="M1229.2,-221.37506v111.77501l-96.8,55.88751v-111.77501z" fill="#000000"/></g><g><path d="M-29.2,-53.71254l96.8,-55.88751l96.8,55.88751v111.77501l-96.8,55.88751l-96.8,-55.88751z" fill="#9573a2"/><path d="M-29.2,-53.71254l96.8,-55.88751l96.8,55.88751l-96.8,55.88751z" fill="#dfadf3"/><path d="M164.4,-53.71254v111.77501l-96.8,55.88751v-111.77501z" fill="#4a3a51"/></g><g><path d="M164.4,-53.71254l96.8,-55.88751l96.8,55.88751v111.77501l-96.8,55.88751l-96.8,-55.88751z" fill="#8c7290"/><path d="M164.4,-53.71254l96.8,-55.88751l96.8,55.88751l-96.8,55.88751z" fill="#d1acd8"/><path d="M358,-53.71254v111.77501l-96.8,55.88751v-111.77501z" fill="#463948"/></g><g><path d="M358,-53.71254l96.8,-55.88751l96.8,55.88751v111.77501l-96.8,55.88751l-96.8,-55.88751z" fill="#887288"/><path d="M358,-53.71254l96.8,-55.88751l96.8,55.88751l-96.8,55.88751z" fill="#ccabcc"/><path d="M551.6,-53.71254v111.77501l-96.8,55.88751v-111.77501z" fill="#443944"/></g><g><path d="M551.6,-53.71254l96.8,-55.88751l96.8,55.88751v111.77501l-96.8,55.88751l-96.8,-55.88751z" fill="#857485"/><path d="M551.6,-53.71254l96.8,-55.88751l96.8,55.88751l-96.8,55.88751z" fill="#c8aec8"/><path d="M745.2,-53.71254v111.77501l-96.8,55.88751v-111.77501z" fill="#433a43"/></g><g><path d="M745.2,-53.71254l96.8,-55.88751l96.8,55.88751v111.77501l-96.8,55.88751l-96.8,-55.88751z" fill="#8b6d8b"/><path d="M745.2,-53.71254l96.8,-55.88751l96.8,55.88751l-96.8,55.88751z" fill="#d1a3d1"/><path d="M938.8,-53.71254v111.77501l-96.8,55.88751v-111.77501z" fill="#463646"/></g><g><path d="M938.8,-53.71254l96.8,-55.88751l96.8,55.88751v111.77501l-96.8,55.88751l-96.8,-55.88751z" fill="#887088"/><path d="M938.8,-53.71254l96.8,-55.88751l96.8,55.88751l-96.8,55.88751z" fill="#cca7cc"/><path d="M1132.4,-53.71254v111.77501l-96.8,55.88751v-111.77501z" fill="#443844"/></g><g><path d="M1132.4,-53.71254l96.8,-55.88751l96.8,55.88751v111.77501l-96.8,55.88751l-96.8,-55.88751z" fill="#8b6d8b"/><path d="M1132.4,-53.71254l96.8,-55.88751l96.8,55.88751l-96.8,55.88751z" fill="#d0a4d0"/><path d="M1326,-53.71254v111.77501l-96.8,55.88751v-111.77501z" fill="#453745"/></g><g><path d="M-126,113.94998l96.8,-55.88751l96.8,55.88751v111.77501l-96.8,55.88751l-96.8,-55.88751z" fill="#4b78a0"/><path d="M-126,113.94998l96.8,-55.88751l96.8,55.88751l-96.8,55.88751z" fill="#70b3f0"/><path d="M67.6,113.94998v111.77501l-96.8,55.88751v-111.77501z" fill="#253c50"/></g><g><path d="M67.6,113.94998l96.8,-55.88751l96.8,55.88751v111.77501l-96.8,55.88751l-96.8,-55.88751z" fill="#5f89b0"/><path d="M67.6,113.94998l96.8,-55.88751l96.8,55.88751l-96.8,55.88751z" fill="#8eceff"/><path d="M261.2,113.94998v111.77501l-96.8,55.88751v-111.77501z" fill="#2f4558"/></g><g><path d="M261.2,113.94998l96.8,-55.88751l96.8,55.88751v111.77501l-96.8,55.88751l-96.8,-55.88751z" fill="#7177ad"/><path d="M261.2,113.94998l96.8,-55.88751l96.8,55.88751l-96.8,55.88751z" fill="#a9b3ff"/><path d="M454.8,113.94998v111.77501l-96.8,55.88751v-111.77501z" fill="#383c56"/></g><g><path d="M454.8,113.94998l96.8,-55.88751l96.8,55.88751v111.77501l-96.8,55.88751l-96.8,-55.88751z" fill="#717ab7"/><path d="M454.8,113.94998l96.8,-55.88751l96.8,55.88751l-96.8,55.88751z" fill="#aab7ff"/><path d="M648.4,113.94998v111.77501l-96.8,55.88751v-111.77501z" fill="#393d5b"/></g><g><path d="M648.4,113.94998l96.8,-55.88751l96.8,55.88751v111.77501l-96.8,55.88751l-96.8,-55.88751z" fill="#6a7aa9"/><path d="M648.4,113.94998l96.8,-55.88751l96.8,55.88751l-96.8,55.88751z" fill="#a0b7fd"/><path d="M842,113.94998v111.77501l-96.8,55.88751v-111.77501z" fill="#353d54"/></g><g><path d="M842,113.94998l96.8,-55.88751l96.8,55.88751v111.77501l-96.8,55.88751l-96.8,-55.88751z" fill="#716ba3"/><path d="M842,113.94998l96.8,-55.88751l96.8,55.88751l-96.8,55.88751z" fill="#a9a0f5"/><path d="M1035.6,113.94998v111.77501l-96.8,55.88751v-111.77501z" fill="#383552"/></g><g><path d="M1035.6,113.94998l96.8,-55.88751l96.8,55.88751v111.77501l-96.8,55.88751l-96.8,-55.88751z" fill="#5c7180"/><path d="M1035.6,113.94998l96.8,-55.88751l96.8,55.88751l-96.8,55.88751z" fill="#89aac1"/><path d="M1229.2,113.94998v111.77501l-96.8,55.88751v-111.77501z" fill="#2e3940"/></g><g><path d="M-29.2,281.61249l96.8,-55.88751l96.8,55.88751v111.77501l-96.8,55.88751l-96.8,-55.88751z" fill="#30cce3"/><path d="M-29.2,281.61249l96.8,-55.88751l96.8,55.88751l-96.8,55.88751z" fill="#48ffff"/><path d="M164.4,281.61249v111.77501l-96.8,55.88751v-111.77501z" fill="#186671"/></g><g><path d="M164.4,281.61249l96.8,-55.88751l96.8,55.88751v111.77501l-96.8,55.88751l-96.8,-55.88751z" fill="#2adae8"/><path d="M164.4,281.61249l96.8,-55.88751l96.8,55.88751l-96.8,55.88751z" fill="#3effff"/><path d="M358,281.61249v111.77501l-96.8,55.88751v-111.77501z" fill="#156d74"/></g><g><path d="M358,281.61249l96.8,-55.88751l96.8,55.88751v111.77501l-96.8,55.88751l-96.8,-55.88751z" fill="#40c3ea"/><path d="M358,281.61249l96.8,-55.88751l96.8,55.88751l-96.8,55.88751z" fill="#60ffff"/><path d="M551.6,281.61249v111.77501l-96.8,55.88751v-111.77501z" fill="#206275"/></g><g><path d="M551.6,281.61249l96.8,-55.88751l96.8,55.88751v111.77501l-96.8,55.88751l-96.8,-55.88751z" fill="#3ab3cb"/><path d="M551.6,281.61249l96.8,-55.88751l96.8,55.88751l-96.8,55.88751z" fill="#57ffff"/><path d="M745.2,281.61249v111.77501l-96.8,55.88751v-111.77501z" fill="#1d5a66"/></g><g><path d="M745.2,281.61249l96.8,-55.88751l96.8,55.88751v111.77501l-96.8,55.88751l-96.8,-55.88751z" fill="#3eb4d5"/><path d="M745.2,281.61249l96.8,-55.88751l96.8,55.88751l-96.8,55.88751z" fill="#5effff"/><path d="M938.8,281.61249v111.77501l-96.8,55.88751v-111.77501z" fill="#1f5a6b"/></g><g><path d="M938.8,281.61249l96.8,-55.88751l96.8,55.88751v111.77501l-96.8,55.88751l-96.8,-55.88751z" fill="#20d8d8"/><path d="M938.8,281.61249l96.8,-55.88751l96.8,55.88751l-96.8,55.88751z" fill="#30ffff"/><path d="M1132.4,281.61249v111.77501l-96.8,55.88751v-111.77501z" fill="#106c6c"/></g><g><path d="M1132.4,281.61249l96.8,-55.88751l96.8,55.88751v111.77501l-96.8,55.88751l-96.8,-55.88751z" fill="#1adede"/><path d="M1132.4,281.61249l96.8,-55.88751l96.8,55.88751l-96.8,55.88751z" fill="#26ffff"/><path d="M1326,281.61249v111.77501l-96.8,55.88751v-111.77501z" fill="#0d6f6f"/></g><g><path d="M-126,449.27501l96.8,-55.88751l96.8,55.88751v111.77501l-96.8,55.88751l-96.8,-55.88751z" fill="#2e7272"/><path d="M-126,449.27501l96.8,-55.88751l96.8,55.88751l-96.8,55.88751z" fill="#45abab"/><path d="M67.6,449.27501v111.77501l-96.8,55.88751v-111.77501z" fill="#173939"/></g><g><path d="M67.6,449.27501l96.8,-55.88751l96.8,55.88751v111.77501l-96.8,55.88751l-96.8,-55.88751z" fill="#2ce7eb"/><path d="M67.6,449.27501l96.8,-55.88751l96.8,55.88751l-96.8,55.88751z" fill="#42ffff"/><path d="M261.2,449.27501v111.77501l-96.8,55.88751v-111.77501z" fill="#167375"/></g><g><path d="M261.2,449.27501l96.8,-55.88751l96.8,55.88751v111.77501l-96.8,55.88751l-96.8,-55.88751z" fill="#24f0f0"/><path d="M261.2,449.27501l96.8,-55.88751l96.8,55.88751l-96.8,55.88751z" fill="#37ffff"/><path d="M454.8,449.27501v111.77501l-96.8,55.88751v-111.77501z" fill="#127878"/></g><g><path d="M454.8,449.27501l96.8,-55.88751l96.8,55.88751v111.77501l-96.8,55.88751l-96.8,-55.88751z" fill="#3ac3d0"/><path d="M454.8,449.27501l96.8,-55.88751l96.8,55.88751l-96.8,55.88751z" fill="#57ffff"/><path d="M648.4,449.27501v111.77501l-96.8,55.88751v-111.77501z" fill="#1d6268"/></g><g><path d="M648.4,449.27501l96.8,-55.88751l96.8,55.88751v111.77501l-96.8,55.88751l-96.8,-55.88751z" fill="#32e6f4"/><path d="M648.4,449.27501l96.8,-55.88751l96.8,55.88751l-96.8,55.88751z" fill="#4bffff"/><path d="M842,449.27501v111.77501l-96.8,55.88751v-111.77501z" fill="#19737a"/></g><g><path d="M842,449.27501l96.8,-55.88751l96.8,55.88751v111.77501l-96.8,55.88751l-96.8,-55.88751z" fill="#36dae8"/><path d="M842,449.27501l96.8,-55.88751l96.8,55.88751l-96.8,55.88751z" fill="#51ffff"/><path d="M1035.6,449.27501v111.77501l-96.8,55.88751v-111.77501z" fill="#1b6d74"/></g><g><path d="M1035.6,449.27501l96.8,-55.88751l96.8,55.88751v111.77501l-96.8,55.88751l-96.8,-55.88751z" fill="#3bd0db"/><path d="M1035.6,449.27501l96.8,-55.88751l96.8,55.88751l-96.8,55.88751z" fill="#59ffff"/><path d="M1229.2,449.27501v111.77501l-96.8,55.88751v-111.77501z" fill="#1e686d"/></g><g><path d="M-29.2,616.93753l96.8,-55.88751l96.8,55.88751v111.77501l-96.8,55.88751l-96.8,-55.88751z" fill="#33bdd0"/><path d="M-29.2,616.93753l96.8,-55.88751l96.8,55.88751l-96.8,55.88751z" fill="#4cffff"/><path d="M164.4,616.93753v111.77501l-96.8,55.88751v-111.77501z" fill="#195e68"/></g><g><path d="M164.4,616.93753l96.8,-55.88751l96.8,55.88751v111.77501l-96.8,55.88751l-96.8,-55.88751z" fill="#5d85bb"/><path d="M164.4,616.93753l96.8,-55.88751l96.8,55.88751l-96.8,55.88751z" fill="#8cc7ff"/><path d="M358,616.93753v111.77501l-96.8,55.88751v-111.77501z" fill="#2f425d"/></g><g><path d="M358,616.93753l96.8,-55.88751l96.8,55.88751v111.77501l-96.8,55.88751l-96.8,-55.88751z" fill="#20e4ef"/><path d="M358,616.93753l96.8,-55.88751l96.8,55.88751l-96.8,55.88751z" fill="#30ffff"/><path d="M551.6,616.93753v111.77501l-96.8,55.88751v-111.77501z" fill="#107277"/></g><g><path d="M551.6,616.93753l96.8,-55.88751l96.8,55.88751v111.77501l-96.8,55.88751l-96.8,-55.88751z" fill="#58aae4"/><path d="M551.6,616.93753l96.8,-55.88751l96.8,55.88751l-96.8,55.88751z" fill="#83ffff"/><path d="M745.2,616.93753v111.77501l-96.8,55.88751v-111.77501z" fill="#2c5572"/></g><g><path d="M745.2,616.93753l96.8,-55.88751l96.8,55.88751v111.77501l-96.8,55.88751l-96.8,-55.88751z" fill="#5fa2dc"/><path d="M745.2,616.93753l96.8,-55.88751l96.8,55.88751l-96.8,55.88751z" fill="#8ff2ff"/><path d="M938.8,616.93753v111.77501l-96.8,55.88751v-111.77501z" fill="#30516e"/></g><g><path d="M938.8,616.93753l96.8,-55.88751l96.8,55.88751v111.77501l-96.8,55.88751l-96.8,-55.88751z" fill="#738ad8"/><path d="M938.8,616.93753l96.8,-55.88751l96.8,55.88751l-96.8,55.88751z" fill="#accfff"/><path d="M1132.4,616.93753v111.77501l-96.8,55.88751v-111.77501z" fill="#39456c"/></g><g><path d="M1132.4,616.93753l96.8,-55.88751l96.8,55.88751v111.77501l-96.8,55.88751l-96.8,-55.88751z" fill="#2fd4dd"/><path d="M1132.4,616.93753l96.8,-55.88751l96.8,55.88751l-96.8,55.88751z" fill="#47ffff"/><path d="M1326,616.93753v111.77501l-96.8,55.88751v-111.77501z" fill="#186a6f"/></g><g><path d="M-126,784.60005l96.8,-55.88751l96.8,55.88751v111.77501l-96.8,55.88751l-96.8,-55.88751z" fill="#000000"/><path d="M-126,784.60005l96.8,-55.88751l96.8,55.88751l-96.8,55.88751z" fill="#ffffff"/><path d="M67.6,784.60005v111.77501l-96.8,55.88751v-111.77501z" fill="#000000"/></g><g><path d="M67.6,784.60005l96.8,-55.88751l96.8,55.88751v111.77501l-96.8,55.88751l-96.8,-55.88751z" fill="#000000"/><path d="M67.6,784.60005l96.8,-55.88751l96.8,55.88751l-96.8,55.88751z" fill="#ffffff"/><path d="M261.2,784.60005v111.77501l-96.8,55.88751v-111.77501z" fill="#000000"/></g><g><path d="M261.2,784.60005l96.8,-55.88751l96.8,55.88751v111.77501l-96.8,55.88751l-96.8,-55.88751z" fill="#000000"/><path d="M261.2,784.60005l96.8,-55.88751l96.8,55.88751l-96.8,55.88751z" fill="#ffffff"/><path d="M454.8,784.60005v111.77501l-96.8,55.88751v-111.77501z" fill="#000000"/></g><g><path d="M454.8,784.60005l96.8,-55.88751l96.8,55.88751v111.77501l-96.8,55.88751l-96.8,-55.88751z" fill="#000000"/><path d="M454.8,784.60005l96.8,-55.88751l96.8,55.88751l-96.8,55.88751z" fill="#ffffff"/><path d="M648.4,784.60005v111.77501l-96.8,55.88751v-111.77501z" fill="#000000"/></g><g><path d="M648.4,784.60005l96.8,-55.88751l96.8,55.88751v111.77501l-96.8,55.88751l-96.8,-55.88751z" fill="#000000"/><path d="M648.4,784.60005l96.8,-55.88751l96.8,55.88751l-96.8,55.88751z" fill="#ffffff"/><path d="M842,784.60005v111.77501l-96.8,55.88751v-111.77501z" fill="#000000"/></g><g><path d="M842,784.60005l96.8,-55.88751l96.8,55.88751v111.77501l-96.8,55.88751l-96.8,-55.88751z" fill="#000000"/><path d="M842,784.60005l96.8,-55.88751l96.8,55.88751l-96.8,55.88751z" fill="#ffffff"/><path d="M1035.6,784.60005v111.77501l-96.8,55.88751v-111.77501z" fill="#000000"/></g><g><path d="M1035.6,784.60005l96.8,-55.88751l96.8,55.88751v111.77501l-96.8,55.88751l-96.8,-55.88751z" fill="#000000"/><path d="M1035.6,784.60005l96.8,-55.88751l96.8,55.88751l-96.8,55.88751z" fill="#ffffff"/><path d="M1229.2,784.60005v111.77501l-96.8,55.88751v-111.77501z" fill="#000000"/></g></g></g></svg>