<svg version="1.1" xmlns="http://www.w3.org/2000/svg" xmlns:xlink="http://www.w3.org/1999/xlink" width="1200" height="675" viewBox="0,0,1200,675"><g fill="none" fill-rule="nonzero" stroke="none" stroke-width="1" stroke-linecap="butt" stroke-linejoin="miter" stroke-miterlimit="10" stroke-dasharray="" stroke-dashoffset="0" font-family="none" font-weight="none" font-size="none" text-anchor="none" style="mix-blend-mode: normal"><g><g><path d="M-126,-252.42368l53.77778,-31.04861l53.77778,31.04861v62.09723l-53.77778,31.04861l-53.77778,-31.04861z" fill="#000000"/><path d="M-126,-252.42368l53.77778,-31.04861l53.77778,31.04861l-53.77778,31.04861z" fill="#ffffff"/><path d="M-18.44444,-252.42368v62.09723l-53.77778,31.04861v-62.09723z" fill="#000000"/></g><g><path d="M-18.44444,-252.42368l53.77778,-31.04861l53.77778,31.04861v62.09723l-53.77778,31.04861l-53.77778,-31.04861z" fill="#000000"/><path d="M-18.44444,-252.42368l53.77778,-31.04861l53.77778,31.04861l-53.77778,31.04861z" fill="#ffffff"/><path d="M89.11111,-252.42368v62.09723l-53.77778,31.04861v-62.09723z" fill="#000000"/></g><g><path d="M89.11111,-252.42368l53.77778,-31.04861l53.77778,31.04861v62.09723l-53.77778,31.04861l-53.77778,-31.04861z" fill="#000000"/><path d="M89.11111,-252.42368l53.77778,-31.04861l53.77778,31.04861l-53.77778,31.04861z" fill="#ffffff"/><path d="M196.66667,-252.42368v62.09723l-53.77778,31.04861v-62.09723z" fill="#000000"/></g><g><path d="M196.66667,-252.42368l53.77778,-31.04861l53.77778,31.04861v62.09723l-53.77778,31.04861l-53.77778,-31.04861z" fill="#000000"/><path d="M196.66667,-252.42368l53.77778,-31.04861l53.77778,31.04861l-53.77778,31.04861z" fill="#ffffff"/><path d="M304.22222,-252.42368v62.09723l-53.77778,31.04861v-62.09723z" fill="#000000"/></g><g><path d="M304.22222,-252.42368l53.77778,-31.04861l53.77778,31.04861v62.09723l-53.77778,31.04861l-53.77778,-31.04861z" fill="#000000"/><path d="M304.22222,-252.42368l53.77778,-31.04861l53.77778,31.04861l-53.77778,31.04861z" fill="#ffffff"/><path d="M411.77778,-252.42368v62.09723l-53.77778,31.04861v-62.09723z" fill="#000000"/></g><g><path d="M411.77778,-252.42368l53.77778,-31.04861l53.77778,31.04861v62.09723l-53.77778,31.04861l-53.77778,-31.04861z" fill="#000000"/><path d="M411.77778,-252.42368l53.77778,-31.04861l53.77778,31.04861l-53.77778,31.04861z" fill="#ffffff"/><path d="M519.33333,-252.42368v62.09723l-53.77778,31.04861v-62.09723z" fill="#000000"/></g><g><path d="M519.33333,-252.42368l53.77778,-31.04861l53.77778,31.04861v62.09723l-53.77778,31.04861l-53.77778,-31.04861z" fill="#000000"/><path d="M519.33333,-252.42368l53.77778,-31.04861l53.77778,31.04861l-53.77778,31.04861z" fill="#ffffff"/><path d="M626.88889,-252.42368v62.09723l-53.77778,31.04861v-62.09723z" fill="#000000"/></g><g><path d="M626.88889,-252.42368l53.77778,-31.04861l53.77778,31.04861v62.09723l-53.77778,31.04861l-53.77778,-31.04861z" fill="#000000"/><path d="M626.88889,-252.42368l53.77778,-31.04861l53.77778,31.04861l-53.77778,31.04861z" fill="#ffffff"/><path d="M734.44444,-252.42368v62.09723l-53.77778,31.04861v-62.09723z" fill="#000000"/></g><g><path d="M734.44444,-252.42368l53.77778,-31.04861l53.77778,31.04861v62.09723l-53.77778,31.04861l-53.77778,-31.04861z" fill="#000000"/><path d="M734.44444,-252.42368l53.77778,-31.04861l53.77778,31.04861l-53.77778,31.04861z" fill="#ffffff"/><path d="M842,-252.42368v62.09723l-53.77778,31.04861v-62.09723z" fill="#000000"/></g><g><path d="M842,-252.42368l53.77778,-31.04861l53.77778,31.04861v62.09723l-53.77778,31.04861l-53.77778,-31.04861z" fill="#000000"/><path d="M842,-252.42368l53.77778,-31.04861l53.77778,31.04861l-53.77778,31.04861z" fill="#ffffff"/><path d="M949.55556,-252.42368v62.09723l-53.77778,31.04861v-62.09723z" fill="#000000"/></g><g><path d="M949.55556,-252.42368l53.77778,-31.04861l53.77778,31.04861v62.09723l-53.77778,31.04861l-53.77778,-31.04861z" fill="#000000"/><path d="M949.55556,-252.42368l53.77778,-31.04861l53.77778,31.04861l-53.77778,31.04861z" fill="#ffffff"/><path d="M1057.11111,-252.42368v62.09723l-53.77778,31.04861v-62.09723z" fill="#000000"/></g><g><path d="M1057.11111,-252.42368l53.77778,-31.04861l53.77778,31.04861v62.09723l-53.77778,31.04861l-53.77778,-31.04861z" fill="#000000"/><path d="M1057.11111,-252.42368l53.77778,-31.04861l53.77778,31.04861l-53.77778,31.04861z" fill="#ffffff"/><path d="M1164.66667,-252.42368v62.09723l-53.77778,31.04861v-62.09723z" fill="#000000"/></g><g><path d="M1164.66667,-252.42368l53.77778,-31.04861l53.77778,31.04861v62.09723l-53.77778,31.04861l-53.77778,-31.04861z" fill="#000000"/><path d="M1164.66667,-252.42368l53.77778,-31.04861l53.77778,31.04861l-53.77778,31.04861z" fill="#ffffff"/><path d="M1272.22222,-252.42368v62.09723l-53.77778,31.04861v-62.09723z" fill="#000000"/></g><g><path d="M-72.22222,-159.27783l53.77778,-31.04861l53.77778,31.04861v62.09723l-53.77778,31.04861l-53.77778,-31.04861z" fill="#000000"/><path d="M-72.22222,-159.27783l53.77778,-31.04861l53.77778,31.04861l-53.77778,31.04861z" fill="#ffffff"/><path d="M35.33333,-159.27783v62.09723l-53.77778,31.04861v-62.09723z" fill="#000000"/></g><g><path d="M35.33333,-159.27783l53.77778,-31.04861l53.77778,31.04861v62.09723l-53.77778,31.04861l-53.77778,-31.04861z" fill="#000000"/><path d="M35.33333,-159.27783l53.77778,-31.04861l53.77778,31.04861l-53.77778,31.04861z" fill="#ffffff"/><path d="M142.88889,-159.27783v62.09723l-53.77778,31.04861v-62.09723z" fill="#000000"/></g><g><path d="M142.88889,-159.27783l53.77778,-31.04861l53.77778,31.04861v62.09723l-53.77778,31.04861l-53.77778,-31.04861z" fill="#000000"/><path d="M142.88889,-159.27783l53.77778,-31.04861l53.77778,31.04861l-53.77778,31.04861z" fill="#ffffff"/><path d="M250.44444,-159.27783v62.09723l-53.77778,31.04861v-62.09723z" fill="#000000"/></g><g><path d="M250.44444,-159.27783l53.77778,-31.04861l53.77778,31.04861v62.09723l-53.77778,31.04861l-53.77778,-31.04861z" fill="#000000"/><path d="M250.44444,-159.27783l53.77778,-31.04861l53.77778,31.04861l-53.77778,31.04861z" fill="#ffffff"/><path d="M358,-159.27783v62.09723l-53.77778,31.04861v-62.09723z" fill="#000000"/></g><g><path d="M358,-159.27783l53.77778,-31.04861l53.77778,31.04861v62.09723l-53.77778,31.04861l-53.77778,-31.04861z" fill="#000000"/><path d="M358,-159.27783l53.77778,-31.04861l53.77778,31.04861l-53.77778,31.04861z" fill="#ffffff"/><path d="M465.55556,-159.27783v62.09723l-53.77778,31.04861v-62.09723z" fill="#000000"/></g><g><path d="M465.55556,-159.27783l53.77778,-31.04861l53.77778,31.04861v62.09723l-53.77778,31.04861l-53.77778,-31.04861z" fill="#000000"/><path d="M465.55556,-159.27783l53.77778,-31.04861l53.77778,31.04861l-53.77778,31.04861z" fill="#ffffff"/><path d="M573.11111,-159.27783v62.09723l-53.77778,31.04861v-62.09723z" fill="#000000"/></g><g><path d="M573.11111,-159.27783l53.77778,-31.04861l53.77778,31.04861v62.09723l-53.77778,31.04861l-53.77778,-31.04861z" fill="#000000"/><path d="M573.11111,-159.27783l53.77778,-31.04861l53.77778,31.04861l-53.77778,31.04861z" fill="#ffffff"/><path d="M680.66667,-159.27783v62.09723l-53.77778,31.04861v-62.09723z" fill="#000000"/></g><g><path d="M680.66667,-159.27783l53.77778,-31.04861l53.77778,31.04861v62.09723l-53.77778,31.04861l-53.77778,-31.04861z" fill="#000000"/><path d="M680.66667,-159.27783l53.77778,-31.04861l53.77778,31.04861l-53.77778,31.04861z" fill="#ffffff"/><path d="M788.22222,-159.27783v62.09723l-53.77778,31.04861v-62.09723z" fill="#000000"/></g><g><path d="M788.22222,-159.27783l53.77778,-31.04861l53.77778,31.04861v62.09723l-53.77778,31.04861l-53.77778,-31.04861z" fill="#000000"/><path d="M788.22222,-159.27783l53.77778,-31.04861l53.77778,31.04861l-53.77778,31.04861z" fill="#ffffff"/><path d="M895.77778,-159.27783v62.09723l-53.77778,31.04861v-62.09723z" fill="#000000"/></g><g><path d="M895.77778,-159.27783l53.77778,-31.04861l53.77778,31.04861v62.09723l-53.77778,31.04861l-53.77778,-31.04861z" fill="#000000"/><path d="M895.77778,-159.27783l53.77778,-31.04861l53.77778,31.04861l-53.77778,31.04861z" fill="#ffffff"/><path d="M1003.33333,-159.27783v62.09723l-53.77778,31.04861v-62.09723z" fill="#000000"/></g><g><path d="M1003.33333,-159.27783l53.77778,-31.04861l53.77778,31.04861v62.09723l-53.77778,31.04861l-53.77778,-31.04861z" fill="#000000"/><path d="M1003.33333,-159.27783l53.77778,-31.04861l53.77778,31.04861l-53.77778,31.04861z" fill="#ffffff"/><path d="M1110.88889,-159.27783v62.09723l-53.77778,31.04861v-62.09723z" fill="#000000"/></g><g><path d="M1110.88889,-159.27783l53.77778,-31.04861l53.77778,31.04861v62.09723l-53.77778,31.04861l-53.77778,-31.04861z" fill="#000000"/><path d="M1110.88889,-159.27783l53.77778,-31.04861l53.77778,31.04861l-53.77778,31.04861z" fill="#ffffff"/><path d="M1218.44444,-159.27783v62.09723l-53.77778,31.04861v-62.09723z" fill="#000000"/></g><g><path d="M1218.44444,-159.27783l53.77778,-31.04861l53.77778,31.04861v62.09723l-53.77778,31.04861l-53.77778,-31.04861z" fill="#000000"/><path d="M1218.44444,-159.27783l53.77778,-31.04861l53.77778,31.04861l-53.77778,31.04861z" fill="#ffffff"/><path d="M1326,-159.27783v62.09723l-53.77778,31.04861v-62.09723z" fill="#000000"/></g><g><path d="M-126,-66.13199l53.77778,-31.04861l53.77778,31.04861v62.09723l-53.77778,31.04861l-53.77778,-31.04861z" fill="#5d545e"/><path d="M-126,-66.13199l53.77778,-31.04861l53.77778,31.04861l-53.77778,31.04861z" fill="#8c7d8d"/><path d="M-18.44444,-66.13199v62.09723l-53.77778,31.04861v-62.09723z" fill="#2f2a2f"/></g><g><path d="M-18.44444,-66.13199l53.77778,-31.04861l53.77778,31.04861v62.09723l-53.77778,31.04861l-53.77778,-31.04861z" fill="#a0a1b7"/><path d="M-18.44444,-66.13199l53.77778,-31.04861l53.77778,31.04861l-53.77778,31.04861z" fill="#f0f2ff"/><path d="M89.11111,-66.13199v62.09723l-53.77778,31.04861v-62.09723z" fill="#50515b"/></g><g><path d="M89.11111,-66.13199l53.77778,-31.04861l53.77778,31.04861v62.09723l-53.77778,31.04861l-53.77778,-31.04861z" fill="#a19fb7"/><path d="M89.11111,-66.13199l53.77778,-31.04861l53.77778,31.04861l-53.77778,31.04861z" fill="#f2eeff"/><path d="M196.66667,-66.13199v62.09723l-53.77778,31.04861v-62.09723z" fill="#514f5c"/></g><g><path d="M196.66667,-66.13199l53.77778,-31.04861l53.77778,31.04861v62.09723l-53.77778,31.04861l-53.77778,-31.04861z" fill="#a696b2"/><path d="M196.66667,-66.13199l53.77778,-31.04861l53.77778,31.04861l-53.77778,31.04861z" fill="#f8e2ff"/><path d="M304.22222,-66.13199v62.09723l-53.77778,31.04861v-62.09723z" fill="#534b59"/></g><g><path d="M304.22222,-66.13199l53.77778,-31.04861l53.77778,31.04861v62.09723l-53.77778,31.04861l-53.77778,-31.04861z" fill="#a38ea3"/><path d="M304.22222,-66.13199l53.77778,-31.04861l53.77778,31.04861l-53.77778,31.04861z" fill="#f5d5f5"/><path d="M411.77778,-66.13199v62.09723l-53.77778,31.04861v-62.09723z" fill="#524752"/></g><g><path d="M411.77778,-66.13199l53.77778,-31.04861l53.77778,31.04861v62.09723l-53.77778,31.04861l-53.77778,-31.04861z" fill="#a18fa1"/><path d="M411.77778,-66.13199l53.77778,-31.04861l53.77778,31.04861l-53.77778,31.04861z" fill="#f1d7f1"/><path d="M519.33333,-66.13199v62.09723l-53.77778,31.04861v-62.09723z" fill="#504850"/></g><g><path d="M519.33333,-66.13199l53.77778,-31.04861l53.77778,31.04861v62.09723l-53.77778,31.04861l-53.77778,-31.04861z" fill="#a58da5"/><path d="M519.33333,-66.13199l53.77778,-31.04861l53.77778,31.04861l-53.77778,31.04861z" fill="#f8d3f8"/><path d="M626.88889,-66.13199v62.09723l-53.77778,31.04861v-62.09723z" fill="#534653"/></g><g><path d="M626.88889,-66.13199l53.77778,-31.04861l53.77778,31.04861v62.09723l-53.77778,31.04861l-53.77778,-31.04861z" fill="#a091a0"/><path d="M626.88889,-66.13199l53.77778,-31.04861l53.77778,31.04861l-53.77778,31.04861z" fill="#f0d9f0"/><path d="M734.44444,-66.13199v62.09723l-53.77778,31.04861v-62.09723z" fill="#504850"/></g><g><path d="M734.44444,-66.13199l53.77778,-31.04861l53.77778,31.04861v62.09723l-53.77778,31.04861l-53.77778,-31.04861z" fill="#a18fa1"/><path d="M734.44444,-66.13199l53.77778,-31.04861l53.77778,31.04861l-53.77778,31.04861z" fill="#f2d7f2"/><path d="M842,-66.13199v62.09723l-53.77778,31.04861v-62.09723z" fill="#514851"/></g><g><path d="M842,-66.13199l53.77778,-31.04861l53.77778,31.04861v62.09723l-53.77778,31.04861l-53.77778,-31.04861z" fill="#a091a0"/><path d="M842,-66.13199l53.77778,-31.04861l53.77778,31.04861l-53.77778,31.04861z" fill="#efd9ef"/><path d="M949.55556,-66.13199v62.09723l-53.77778,31.04861v-62.09723z" fill="#504850"/></g><g><path d="M949.55556,-66.13199l53.77778,-31.04861l53.77778,31.04861v62.09723l-53.77778,31.04861l-53.77778,-31.04861z" fill="#9f919f"/><path d="M949.55556,-66.13199l53.77778,-31.04861l53.77778,31.04861l-53.77778,31.04861z" fill="#efd9ef"/><path d="M1057.11111,-66.13199v62.09723l-53.77778,31.04861v-62.09723z" fill="#504850"/></g><g><path d="M1057.11111,-66.13199l53.77778,-31.04861l53.77778,31.04861v62.09723l-53.77778,31.04861l-53.77778,-31.04861z" fill="#9d929d"/><path d="M1057.11111,-66.13199l53.77778,-31.04861l53.77778,31.04861l-53.77778,31.04861z" fill="#ebdbeb"/><path d="M1164.66667,-66.13199v62.09723l-53.77778,31.04861v-62.09723z" fill="#4e494e"/></g><g><path d="M1164.66667,-66.13199l53.77778,-31.04861l53.77778,31.04861v62.09723l-53.77778,31.04861l-53.77778,-31.04861z" fill="#9c929c"/><path d="M1164.66667,-66.13199l53.77778,-31.04861l53.77778,31.04861l-53.77778,31.04861z" fill="#eadbea"/><path d="M1272.22222,-66.13199v62.09723l-53.77778,31.04861v-62.09723z" fill="#4e494e"/></g><g><path d="M-72.22222,27.01386l53.77778,-31.04861l53.77778,31.04861v62.09723l-53.77778,31.04861l-53.77778,-31.04861z" fill="#a74eb1"/><path d="M-72.22222,27.01386l53.77778,-31.04861l53.77778,31.04861l-53.77778,31.04861z" fill="#fa74ff"/><path d="M35.33333,27.01386v62.09723l-53.77778,31.04861v-62.09723z" fill="#532758"/></g><g><path d="M35.33333,27.01386l53.77778,-31.04861l53.77778,31.04861v62.09723l-53.77778,31.04861l-53.77778,-31.04861z" fill="#b56bbd"/><path d="M35.33333,27.01386l53.77778,-31.04861l53.77778,31.04861l-53.77778,31.04861z" fill="#ffa1ff"/><path d="M142.88889,27.01386v62.09723l-53.77778,31.04861v-62.09723z" fill="#5b365f"/></g><g><path d="M142.88889,27.01386l53.77778,-31.04861l53.77778,31.04861v62.09723l-53.77778,31.04861l-53.77778,-31.04861z" fill="#d04fd0"/><path d="M142.88889,27.01386l53.77778,-31.04861l53.77778,31.04861l-53.77778,31.04861z" fill="#ff76ff"/><path d="M250.44444,27.01386v62.09723l-53.77778,31.04861v-62.09723z" fill="#682768"/></g><g><path d="M250.44444,27.01386l53.77778,-31.04861l53.77778,31.04861v62.09723l-53.77778,31.04861l-53.77778,-31.04861z" fill="#d153d1"/><path d="M250.44444,27.01386l53.77778,-31.04861l53.77778,31.04861l-53.77778,31.04861z" fill="#ff7dff"/><path d="M358,27.01386v62.09723l-53.77778,31.04861v-62.09723z" fill="#682a68"/></g><g><path d="M358,27.01386l53.77778,-31.04861l53.77778,31.04861v62.09723l-53.77778,31.04861l-53.77778,-31.04861z" fill="#c35bc3"/><path d="M358,27.01386l53.77778,-31.04861l53.77778,31.04861l-53.77778,31.04861z" fill="#ff89ff"/><path d="M465.55556,27.01386v62.09723l-53.77778,31.04861v-62.09723z" fill="#612e61"/></g><g><path d="M465.55556,27.01386l53.77778,-31.04861l53.77778,31.04861v62.09723l-53.77778,31.04861l-53.77778,-31.04861z" fill="#c858c8"/><path d="M465.55556,27.01386l53.77778,-31.04861l53.77778,31.04861l-53.77778,31.04861z" fill="#ff84ff"/><path d="M573.11111,27.01386v62.09723l-53.77778,31.04861v-62.09723z" fill="#642c64"/></g><g><path d="M573.11111,27.01386l53.77778,-31.04861l53.77778,31.04861v62.09723l-53.77778,31.04861l-53.77778,-31.04861z" fill="#c25cc2"/><path d="M573.11111,27.01386l53.77778,-31.04861l53.77778,31.04861l-53.77778,31.04861z" fill="#ff8aff"/><path d="M680.66667,27.01386v62.09723l-53.77778,31.04861v-62.09723z" fill="#612e61"/></g><g><path d="M680.66667,27.01386l53.77778,-31.04861l53.77778,31.04861v62.09723l-53.77778,31.04861l-53.77778,-31.04861z" fill="#ad6dad"/><path d="M680.66667,27.01386l53.77778,-31.04861l53.77778,31.04861l-53.77778,31.04861z" fill="#ffa4ff"/><path d="M788.22222,27.01386v62.09723l-53.77778,31.04861v-62.09723z" fill="#563756"/></g><g><path d="M788.22222,27.01386l53.77778,-31.04861l53.77778,31.04861v62.09723l-53.77778,31.04861l-53.77778,-31.04861z" fill="#cb4bcb"/><path d="M788.22222,27.01386l53.77778,-31.04861l53.77778,31.04861l-53.77778,31.04861z" fill="#ff70ff"/><path d="M895.77778,27.01386v62.09723l-53.77778,31.04861v-62.09723z" fill="#652565"/></g><g><path d="M895.77778,27.01386l53.77778,-31.04861l53.77778,31.04861v62.09723l-53.77778,31.04861l-53.77778,-31.04861z" fill="#bf58bf"/><path d="M895.77778,27.01386l53.77778,-31.04861l53.77778,31.04861l-53.77778,31.04861z" fill="#ff84ff"/><path d="M1003.33333,27.01386v62.09723l-53.77778,31.04861v-62.09723z" fill="#602c60"/></g><g><path d="M1003.33333,27.01386l53.77778,-31.04861l53.77778,31.04861v62.09723l-53.77778,31.04861l-53.77778,-31.04861z" fill="#b85ebd"/><path d="M1003.33333,27.01386l53.77778,-31.04861l53.77778,31.04861l-53.77778,31.04861z" fill="#ff8dff"/><path d="M1110.88889,27.01386v62.09723l-53.77778,31.04861v-62.09723z" fill="#5c2f5f"/></g><g><path d="M1110.88889,27.01386l53.77778,-31.04861l53.77778,31.04861v62.09723l-53.77778,31.04861l-53.77778,-31.04861z" fill="#a96ba9"/><path d="M1110.88889,27.01386l53.77778,-31.04861l53.77778,31.04861l-53.77778,31.04861z" fill="#fda0fd"/><path d="M1218.44444,27.01386v62.09723l-53.77778,31.04861v-62.09723z" fill="#543554"/></g><g><path d="M1218.44444,27.01386l53.77778,-31.04861l53.77778,31.04861v62.09723l-53.77778,31.04861l-53.77778,-31.04861z" fill="#af5caf"/><path d="M1218.44444,27.01386l53.77778,-31.04861l53.77778,31.04861l-53.77778,31.04861z" fill="#ff8aff"/><path d="M1326,27.01386v62.09723l-53.77778,31.04861v-62.09723z" fill="#582e58"/></g><g><path d="M-126,120.1597l53.77778,-31.04861l53.77778,31.04861v62.09723l-53.77778,31.04861l-53.77778,-31.04861z" fill="#593c68"/><path d="M-126,120.1597l53.77778,-31.04861l53.77778,31.04861l-53.77778,31.04861z" fill="#865a9d"/><path d="M-18.44444,120.1597v62.09723l-53.77778,31.04861v-62.09723z" fill="#2d1e34"/></g><g><path d="M-18.44444,120.1597l53.77778,-31.04861l53.77778,31.04861v62.09723l-53.77778,31.04861l-53.77778,-31.04861z" fill="#8f84e8"/><path d="M-18.44444,120.1597l53.77778,-31.04861l53.77778,31.04861l-53.77778,31.04861z" fill="#d7c7ff"/><path d="M89.11111,120.1597v62.09723l-53.77778,31.04861v-62.09723z" fill="#484274"/></g><g><path d="M89.11111,120.1597l53.77778,-31.04861l53.77778,31.04861v62.09723l-53.77778,31.04861l-53.77778,-31.04861z" fill="#808dcd"/><path d="M89.11111,120.1597l53.77778,-31.04861l53.77778,31.04861l-53.77778,31.04861z" fill="#c0d3ff"/><path d="M196.66667,120.1597v62.09723l-53.77778,31.04861v-62.09723z" fill="#404666"/></g><g><path d="M196.66667,120.1597l53.77778,-31.04861l53.77778,31.04861v62.09723l-53.77778,31.04861l-53.77778,-31.04861z" fill="#9f72cf"/><path d="M196.66667,120.1597l53.77778,-31.04861l53.77778,31.04861l-53.77778,31.04861z" fill="#eeabff"/><path d="M304.22222,120.1597v62.09723l-53.77778,31.04861v-62.09723z" fill="#4f3968"/></g><g><path d="M304.22222,120.1597l53.77778,-31.04861l53.77778,31.04861v62.09723l-53.77778,31.04861l-53.77778,-31.04861z" fill="#a16fd1"/><path d="M304.22222,120.1597l53.77778,-31.04861l53.77778,31.04861l-53.77778,31.04861z" fill="#f1a6ff"/><path d="M411.77778,120.1597v62.09723l-53.77778,31.04861v-62.09723z" fill="#503769"/></g><g><path d="M411.77778,120.1597l53.77778,-31.04861l53.77778,31.04861v62.09723l-53.77778,31.04861l-53.77778,-31.04861z" fill="#a26fd7"/><path d="M411.77778,120.1597l53.77778,-31.04861l53.77778,31.04861l-53.77778,31.04861z" fill="#f3a6ff"/><path d="M519.33333,120.1597v62.09723l-53.77778,31.04861v-62.09723z" fill="#51376b"/></g><g><path d="M519.33333,120.1597l53.77778,-31.04861l53.77778,31.04861v62.09723l-53.77778,31.04861l-53.77778,-31.04861z" fill="#9f70cd"/><path d="M519.33333,120.1597l53.77778,-31.04861l53.77778,31.04861l-53.77778,31.04861z" fill="#efa7ff"/><path d="M626.88889,120.1597v62.09723l-53.77778,31.04861v-62.09723z" fill="#503866"/></g><g><path d="M626.88889,120.1597l53.77778,-31.04861l53.77778,31.04861v62.09723l-53.77778,31.04861l-53.77778,-31.04861z" fill="#a36ed0"/><path d="M626.88889,120.1597l53.77778,-31.04861l53.77778,31.04861l-53.77778,31.04861z" fill="#f4a5ff"/><path d="M734.44444,120.1597v62.09723l-53.77778,31.04861v-62.09723z" fill="#513768"/></g><g><path d="M734.44444,120.1597l53.77778,-31.04861l53.77778,31.04861v62.09723l-53.77778,31.04861l-53.77778,-31.04861z" fill="#917ccc"/><path d="M734.44444,120.1597l53.77778,-31.04861l53.77778,31.04861l-53.77778,31.04861z" fill="#d9baff"/><path d="M842,120.1597v62.09723l-53.77778,31.04861v-62.09723z" fill="#483e66"/></g><g><path d="M842,120.1597l53.77778,-31.04861l53.77778,31.04861v62.09723l-53.77778,31.04861l-53.77778,-31.04861z" fill="#b15bd7"/><path d="M842,120.1597l53.77778,-31.04861l53.77778,31.04861l-53.77778,31.04861z" fill="#ff89ff"/><path d="M949.55556,120.1597v62.09723l-53.77778,31.04861v-62.09723z" fill="#592e6b"/></g><g><path d="M949.55556,120.1597l53.77778,-31.04861l53.77778,31.04861v62.09723l-53.77778,31.04861l-53.77778,-31.04861z" fill="#9573cb"/><path d="M949.55556,120.1597l53.77778,-31.04861l53.77778,31.04861l-53.77778,31.04861z" fill="#e0adff"/><path d="M1057.11111,120.1597v62.09723l-53.77778,31.04861v-62.09723z" fill="#4b3a65"/></g><g><path d="M1057.11111,120.1597l53.77778,-31.04861l53.77778,31.04861v62.09723l-53.77778,31.04861l-53.77778,-31.04861z" fill="#8979a7"/><path d="M1057.11111,120.1597l53.77778,-31.04861l53.77778,31.04861l-53.77778,31.04861z" fill="#ceb5fa"/><path d="M1164.66667,120.1597v62.09723l-53.77778,31.04861v-62.09723z" fill="#453c53"/></g><g><path d="M1164.66667,120.1597l53.77778,-31.04861l53.77778,31.04861v62.09723l-53.77778,31.04861l-53.77778,-31.04861z" fill="#8f6b8f"/><path d="M1164.66667,120.1597l53.77778,-31.04861l53.77778,31.04861l-53.77778,31.04861z" fill="#d7a1d7"/><path d="M1272.22222,120.1597v62.09723l-53.77778,31.04861v-62.09723z" fill="#483648"/></g><g><path d="M-72.22222,213.30554l53.77778,-31.04861l53.77778,31.04861v62.09723l-53.77778,31.04861l-53.77778,-31.04861z" fill="#4886b7"/><path d="M-72.22222,213.30554l53.77778,-31.04861l53.77778,31.04861l-53.77778,31.04861z" fill="#6ccaff"/><path d="M35.33333,213.30554v62.09723l-53.77778,31.04861v-62.09723z" fill="#24435c"/></g><g><path d="M35.33333,213.30554l53.77778,-31.04861l53.77778,31.04861v62.09723l-53.77778,31.04861l-53.77778,-31.04861z" fill="#8c79e3"/><path d="M35.33333,213.30554l53.77778,-31.04861l53.77778,31.04861l-53.77778,31.04861z" fill="#d2b5ff"/><path d="M142.88889,213.30554v62.09723l-53.77778,31.04861v-62.09723z" fill="#463c72"/></g><g><path d="M142.88889,213.30554l53.77778,-31.04861l53.77778,31.04861v62.09723l-53.77778,31.04861l-53.77778,-31.04861z" fill="#5ea3e5"/><path d="M142.88889,213.30554l53.77778,-31.04861l53.77778,31.04861l-53.77778,31.04861z" fill="#8ef4ff"/><path d="M250.44444,213.30554v62.09723l-53.77778,31.04861v-62.09723z" fill="#2f5172"/></g><g><path d="M250.44444,213.30554l53.77778,-31.04861l53.77778,31.04861v62.09723l-53.77778,31.04861l-53.77778,-31.04861z" fill="#7b8cf6"/><path d="M250.44444,213.30554l53.77778,-31.04861l53.77778,31.04861l-53.77778,31.04861z" fill="#b9d2ff"/><path d="M358,213.30554v62.09723l-53.77778,31.04861v-62.09723z" fill="#3e467b"/></g><g><path d="M358,213.30554l53.77778,-31.04861l53.77778,31.04861v62.09723l-53.77778,31.04861l-53.77778,-31.04861z" fill="#679dd4"/><path d="M358,213.30554l53.77778,-31.04861l53.77778,31.04861l-53.77778,31.04861z" fill="#9becff"/><path d="M465.55556,213.30554v62.09723l-53.77778,31.04861v-62.09723z" fill="#344f6a"/></g><g><path d="M465.55556,213.30554l53.77778,-31.04861l53.77778,31.04861v62.09723l-53.77778,31.04861l-53.77778,-31.04861z" fill="#698eda"/><path d="M465.55556,213.30554l53.77778,-31.04861l53.77778,31.04861l-53.77778,31.04861z" fill="#9ed6ff"/><path d="M573.11111,213.30554v62.09723l-53.77778,31.04861v-62.09723z" fill="#35476d"/></g><g><path d="M573.11111,213.30554l53.77778,-31.04861l53.77778,31.04861v62.09723l-53.77778,31.04861l-53.77778,-31.04861z" fill="#9757ba"/><path d="M573.11111,213.30554l53.77778,-31.04861l53.77778,31.04861l-53.77778,31.04861z" fill="#e382ff"/><path d="M680.66667,213.30554v62.09723l-53.77778,31.04861v-62.09723z" fill="#4c2b5d"/></g><g><path d="M680.66667,213.30554l53.77778,-31.04861l53.77778,31.04861v62.09723l-53.77778,31.04861l-53.77778,-31.04861z" fill="#638fcf"/><path d="M680.66667,213.30554l53.77778,-31.04861l53.77778,31.04861l-53.77778,31.04861z" fill="#95d7ff"/><path d="M788.22222,213.30554v62.09723l-53.77778,31.04861v-62.09723z" fill="#324868"/></g><g><path d="M788.22222,213.30554l53.77778,-31.04861l53.77778,31.04861v62.09723l-53.77778,31.04861l-53.77778,-31.04861z" fill="#5b8bb1"/><path d="M788.22222,213.30554l53.77778,-31.04861l53.77778,31.04861l-53.77778,31.04861z" fill="#89d1ff"/><path d="M895.77778,213.30554v62.09723l-53.77778,31.04861v-62.09723z" fill="#2e4658"/></g><g><path d="M895.77778,213.30554l53.77778,-31.04861l53.77778,31.04861v62.09723l-53.77778,31.04861l-53.77778,-31.04861z" fill="#5691af"/><path d="M895.77778,213.30554l53.77778,-31.04861l53.77778,31.04861l-53.77778,31.04861z" fill="#81d9ff"/><path d="M1003.33333,213.30554v62.09723l-53.77778,31.04861v-62.09723z" fill="#2b4858"/></g><g><path d="M1003.33333,213.30554l53.77778,-31.04861l53.77778,31.04861v62.09723l-53.77778,31.04861l-53.77778,-31.04861z" fill="#4d9fb8"/><path d="M1003.33333,213.30554l53.77778,-31.04861l53.77778,31.04861l-53.77778,31.04861z" fill="#73efff"/><path d="M1110.88889,213.30554v62.09723l-53.77778,31.04861v-62.09723z" fill="#26505c"/></g><g><path d="M1110.88889,213.30554l53.77778,-31.04861l53.77778,31.04861v62.09723l-53.77778,31.04861l-53.77778,-31.04861z" fill="#74617c"/><path d="M1110.88889,213.30554l53.77778,-31.04861l53.77778,31.04861l-53.77778,31.04861z" fill="#ae92b9"/><path d="M1218.44444,213.30554v62.09723l-53.77778,31.04861v-62.09723z" fill="#3a313e"/></g><g><path d="M1218.44444,213.30554l53.77778,-31.04861l53.77778,31.04861v62.09723l-53.77778,31.04861l-53.77778,-31.04861z" fill="#44c6c6"/><path d="M1218.44444,213.30554l53.77778,-31.04861l53.77778,31.04861l-53.77778,31.04861z" fill="#66ffff"/><path d="M1326,213.30554v62.09723l-53.77778,31.04861v-62.09723z" fill="#226363"/></g><g><path d="M-126,306.45139l53.77778,-31.04861l53.77778,31.04861v62.09723l-53.77778,31.04861l-53.77778,-31.04861z" fill="#2d526a"/><path d="M-126,306.45139l53.77778,-31.04861l53.77778,31.04861l-53.77778,31.04861z" fill="#437b9f"/><path d="M-18.44444,306.45139v62.09723l-53.77778,31.04861v-62.09723z" fill="#162935"/></g><g><path d="M-18.44444,306.45139l53.77778,-31.04861l53.77778,31.04861v62.09723l-53.77778,31.04861l-53.77778,-31.04861z" fill="#39cae2"/><path d="M-18.44444,306.45139l53.77778,-31.04861l53.77778,31.04861l-53.77778,31.04861z" fill="#55ffff"/><path d="M89.11111,306.45139v62.09723l-53.77778,31.04861v-62.09723z" fill="#1c6571"/></g><g><path d="M89.11111,306.45139l53.77778,-31.04861l53.77778,31.04861v62.09723l-53.77778,31.04861l-53.77778,-31.04861z" fill="#48c0eb"/><path d="M89.11111,306.45139l53.77778,-31.04861l53.77778,31.04861l-53.77778,31.04861z" fill="#6cffff"/><path d="M196.66667,306.45139v62.09723l-53.77778,31.04861v-62.09723z" fill="#246075"/></g><g><path d="M196.66667,306.45139l53.77778,-31.04861l53.77778,31.04861v62.09723l-53.77778,31.04861l-53.77778,-31.04861z" fill="#33ddfa"/><path d="M196.66667,306.45139l53.77778,-31.04861l53.77778,31.04861l-53.77778,31.04861z" fill="#4cffff"/><path d="M304.22222,306.45139v62.09723l-53.77778,31.04861v-62.09723z" fill="#196e7d"/></g><g><path d="M304.22222,306.45139l53.77778,-31.04861l53.77778,31.04861v62.09723l-53.77778,31.04861l-53.77778,-31.04861z" fill="#5e9bda"/><path d="M304.22222,306.45139l53.77778,-31.04861l53.77778,31.04861l-53.77778,31.04861z" fill="#8de8ff"/><path d="M411.77778,306.45139v62.09723l-53.77778,31.04861v-62.09723z" fill="#2f4d6d"/></g><g><path d="M411.77778,306.45139l53.77778,-31.04861l53.77778,31.04861v62.09723l-53.77778,31.04861l-53.77778,-31.04861z" fill="#46baec"/><path d="M411.77778,306.45139l53.77778,-31.04861l53.77778,31.04861l-53.77778,31.04861z" fill="#69ffff"/><path d="M519.33333,306.45139v62.09723l-53.77778,31.04861v-62.09723z" fill="#235d76"/></g><g><path d="M519.33333,306.45139l53.77778,-31.04861l53.77778,31.04861v62.09723l-53.77778,31.04861l-53.77778,-31.04861z" fill="#48aedc"/><path d="M519.33333,306.45139l53.77778,-31.04861l53.77778,31.04861l-53.77778,31.04861z" fill="#6cffff"/><path d="M626.88889,306.45139v62.09723l-53.77778,31.04861v-62.09723z" fill="#24576e"/></g><g><path d="M626.88889,306.45139l53.77778,-31.04861l53.77778,31.04861v62.09723l-53.77778,31.04861l-53.77778,-31.04861z" fill="#48a5cf"/><path d="M626.88889,306.45139l53.77778,-31.04861l53.77778,31.04861l-53.77778,31.04861z" fill="#6df8ff"/><path d="M734.44444,306.45139v62.09723l-53.77778,31.04861v-62.09723z" fill="#245368"/></g><g><path d="M734.44444,306.45139l53.77778,-31.04861l53.77778,31.04861v62.09723l-53.77778,31.04861l-53.77778,-31.04861z" fill="#539cc9"/><path d="M734.44444,306.45139l53.77778,-31.04861l53.77778,31.04861l-53.77778,31.04861z" fill="#7ce9ff"/><path d="M842,306.45139v62.09723l-53.77778,31.04861v-62.09723z" fill="#294e64"/></g><g><path d="M842,306.45139l53.77778,-31.04861l53.77778,31.04861v62.09723l-53.77778,31.04861l-53.77778,-31.04861z" fill="#38beda"/><path d="M842,306.45139l53.77778,-31.04861l53.77778,31.04861l-53.77778,31.04861z" fill="#54ffff"/><path d="M949.55556,306.45139v62.09723l-53.77778,31.04861v-62.09723z" fill="#1c5f6d"/></g><g><path d="M949.55556,306.45139l53.77778,-31.04861l53.77778,31.04861v62.09723l-53.77778,31.04861l-53.77778,-31.04861z" fill="#22e6e8"/><path d="M949.55556,306.45139l53.77778,-31.04861l53.77778,31.04861l-53.77778,31.04861z" fill="#32ffff"/><path d="M1057.11111,306.45139v62.09723l-53.77778,31.04861v-62.09723z" fill="#117374"/></g><g><path d="M1057.11111,306.45139l53.77778,-31.04861l53.77778,31.04861v62.09723l-53.77778,31.04861l-53.77778,-31.04861z" fill="#42a2a7"/><path d="M1057.11111,306.45139l53.77778,-31.04861l53.77778,31.04861l-53.77778,31.04861z" fill="#63f4fa"/><path d="M1164.66667,306.45139v62.09723l-53.77778,31.04861v-62.09723z" fill="#215153"/></g><g><path d="M1164.66667,306.45139l53.77778,-31.04861l53.77778,31.04861v62.09723l-53.77778,31.04861l-53.77778,-31.04861z" fill="#3fb8b8"/><path d="M1164.66667,306.45139l53.77778,-31.04861l53.77778,31.04861l-53.77778,31.04861z" fill="#5fffff"/><path d="M1272.22222,306.45139v62.09723l-53.77778,31.04861v-62.09723z" fill="#205c5c"/></g><g><path d="M-72.22222,399.59723l53.77778,-31.04861l53.77778,31.04861v62.09723l-53.77778,31.04861l-53.77778,-31.04861z" fill="#554e68"/><path d="M-72.22222,399.59723l53.77778,-31.04861l53.77778,31.04861l-53.77778,31.04861z" fill="#7f749d"/><path d="M35.33333,399.59723v62.09723l-53.77778,31.04861v-62.09723z" fill="#2a2734"/></g><g><path d="M35.33333,399.59723l53.77778,-31.04861l53.77778,31.04861v62.09723l-53.77778,31.04861l-53.77778,-31.04861z" fill="#49d7f8"/><path d="M35.33333,399.59723l53.77778,-31.04861l53.77778,31.04861l-53.77778,31.04861z" fill="#6effff"/><path d="M142.88889,399.59723v62.09723l-53.77778,31.04861v-62.09723z" fill="#256c7c"/></g><g><path d="M142.88889,399.59723l53.77778,-31.04861l53.77778,31.04861v62.09723l-53.77778,31.04861l-53.77778,-31.04861z" fill="#4fcce9"/><path d="M142.88889,399.59723l53.77778,-31.04861l53.77778,31.04861l-53.77778,31.04861z" fill="#76ffff"/><path d="M250.44444,399.59723v62.09723l-53.77778,31.04861v-62.09723z" fill="#276674"/></g><g><path d="M250.44444,399.59723l53.77778,-31.04861l53.77778,31.04861v62.09723l-53.77778,31.04861l-53.77778,-31.04861z" fill="#4fc0d8"/><path d="M250.44444,399.59723l53.77778,-31.04861l53.77778,31.04861l-53.77778,31.04861z" fill="#77ffff"/><path d="M358,399.59723v62.09723l-53.77778,31.04861v-62.09723z" fill="#28606c"/></g><g><path d="M358,399.59723l53.77778,-31.04861l53.77778,31.04861v62.09723l-53.77778,31.04861l-53.77778,-31.04861z" fill="#4cdeff"/><path d="M358,399.59723l53.77778,-31.04861l53.77778,31.04861l-53.77778,31.04861z" fill="#72ffff"/><path d="M465.55556,399.59723v62.09723l-53.77778,31.04861v-62.09723z" fill="#266f7f"/></g><g><path d="M465.55556,399.59723l53.77778,-31.04861l53.77778,31.04861v62.09723l-53.77778,31.04861l-53.77778,-31.04861z" fill="#4db4cb"/><path d="M465.55556,399.59723l53.77778,-31.04861l53.77778,31.04861l-53.77778,31.04861z" fill="#74ffff"/><path d="M573.11111,399.59723v62.09723l-53.77778,31.04861v-62.09723z" fill="#275a65"/></g><g><path d="M573.11111,399.59723l53.77778,-31.04861l53.77778,31.04861v62.09723l-53.77778,31.04861l-53.77778,-31.04861z" fill="#4ddfff"/><path d="M573.11111,399.59723l53.77778,-31.04861l53.77778,31.04861l-53.77778,31.04861z" fill="#74ffff"/><path d="M680.66667,399.59723v62.09723l-53.77778,31.04861v-62.09723z" fill="#27707f"/></g><g><path d="M680.66667,399.59723l53.77778,-31.04861l53.77778,31.04861v62.09723l-53.77778,31.04861l-53.77778,-31.04861z" fill="#4fddff"/><path d="M680.66667,399.59723l53.77778,-31.04861l53.77778,31.04861l-53.77778,31.04861z" fill="#76ffff"/><path d="M788.22222,399.59723v62.09723l-53.77778,31.04861v-62.09723z" fill="#276f7f"/></g><g><path d="M788.22222,399.59723l53.77778,-31.04861l53.77778,31.04861v62.09723l-53.77778,31.04861l-53.77778,-31.04861z" fill="#4fb7d2"/><path d="M788.22222,399.59723l53.77778,-31.04861l53.77778,31.04861l-53.77778,31.04861z" fill="#77ffff"/><path d="M895.77778,399.59723v62.09723l-53.77778,31.04861v-62.09723z" fill="#285b69"/></g><g><path d="M895.77778,399.59723l53.77778,-31.04861l53.77778,31.04861v62.09723l-53.77778,31.04861l-53.77778,-31.04861z" fill="#36f4f4"/><path d="M895.77778,399.59723l53.77778,-31.04861l53.77778,31.04861l-53.77778,31.04861z" fill="#51ffff"/><path d="M1003.33333,399.59723v62.09723l-53.77778,31.04861v-62.09723z" fill="#1b7a7a"/></g><g><path d="M1003.33333,399.59723l53.77778,-31.04861l53.77778,31.04861v62.09723l-53.77778,31.04861l-53.77778,-31.04861z" fill="#31ffff"/><path d="M1003.33333,399.59723l53.77778,-31.04861l53.77778,31.04861l-53.77778,31.04861z" fill="#4affff"/><path d="M1110.88889,399.59723v62.09723l-53.77778,31.04861v-62.09723z" fill="#198080"/></g><g><path d="M1110.88889,399.59723l53.77778,-31.04861l53.77778,31.04861v62.09723l-53.77778,31.04861l-53.77778,-31.04861z" fill="#34dfdf"/><path d="M1110.88889,399.59723l53.77778,-31.04861l53.77778,31.04861l-53.77778,31.04861z" fill="#4effff"/><path d="M1218.44444,399.59723v62.09723l-53.77778,31.04861v-62.09723z" fill="#1a7070"/></g><g><path d="M1218.44444,399.59723l53.77778,-31.04861l53.77778,31.04861v62.09723l-53.77778,31.04861l-53.77778,-31.04861z" fill="#25ffff"/><path d="M1218.44444,399.59723l53.77778,-31.04861l53.77778,31.04861l-53.77778,31.04861z" fill="#37ffff"/><path d="M1326,399.59723v62.09723l-53.77778,31.04861v-62.09723z" fill="#128080"/></g><g><path d="M-126,492.74307l53.77778,-31.04861l53.77778,31.04861v62.09723l-53.77778,31.04861l-53.77778,-31.04861z" fill="#452145"/><path d="M-126,492.74307l53.77778,-31.04861l53.77778,31.04861l-53.77778,31.04861z" fill="#673267"/><path d="M-18.44444,492.74307v62.09723l-53.77778,31.04861v-62.09723z" fill="#221122"/></g><g><path d="M-18.44444,492.74307l53.77778,-31.04861l53.77778,31.04861v62.09723l-53.77778,31.04861l-53.77778,-31.04861z" fill="#5ba5d1"/><path d="M-18.44444,492.74307l53.77778,-31.04861l53.77778,31.04861l-53.77778,31.04861z" fill="#89f8ff"/><path d="M89.11111,492.74307v62.09723l-53.77778,31.04861v-62.09723z" fill="#2e5368"/></g><g><path d="M89.11111,492.74307l53.77778,-31.04861l53.77778,31.04861v62.09723l-53.77778,31.04861l-53.77778,-31.04861z" fill="#5bc7f1"/><path d="M89.11111,492.74307l53.77778,-31.04861l53.77778,31.04861l-53.77778,31.04861z" fill="#88ffff"/><path d="M196.66667,492.74307v62.09723l-53.77778,31.04861v-62.09723z" fill="#2d6379"/></g><g><path d="M196.66667,492.74307l53.77778,-31.04861l53.77778,31.04861v62.09723l-53.77778,31.04861l-53.77778,-31.04861z" fill="#5cb7e2"/><path d="M196.66667,492.74307l53.77778,-31.04861l53.77778,31.04861l-53.77778,31.04861z" fill="#8affff"/><path d="M304.22222,492.74307v62.09723l-53.77778,31.04861v-62.09723z" fill="#2e5b71"/></g><g><path d="M304.22222,492.74307l53.77778,-31.04861l53.77778,31.04861v62.09723l-53.77778,31.04861l-53.77778,-31.04861z" fill="#30f2f8"/><path d="M304.22222,492.74307l53.77778,-31.04861l53.77778,31.04861l-53.77778,31.04861z" fill="#48ffff"/><path d="M411.77778,492.74307v62.09723l-53.77778,31.04861v-62.09723z" fill="#18797c"/></g><g><path d="M411.77778,492.74307l53.77778,-31.04861l53.77778,31.04861v62.09723l-53.77778,31.04861l-53.77778,-31.04861z" fill="#36dce0"/><path d="M411.77778,492.74307l53.77778,-31.04861l53.77778,31.04861l-53.77778,31.04861z" fill="#50ffff"/><path d="M519.33333,492.74307v62.09723l-53.77778,31.04861v-62.09723z" fill="#1b6e70"/></g><g><path d="M519.33333,492.74307l53.77778,-31.04861l53.77778,31.04861v62.09723l-53.77778,31.04861l-53.77778,-31.04861z" fill="#38cdcd"/><path d="M519.33333,492.74307l53.77778,-31.04861l53.77778,31.04861l-53.77778,31.04861z" fill="#55ffff"/><path d="M626.88889,492.74307v62.09723l-53.77778,31.04861v-62.09723z" fill="#1c6767"/></g><g><path d="M626.88889,492.74307l53.77778,-31.04861l53.77778,31.04861v62.09723l-53.77778,31.04861l-53.77778,-31.04861z" fill="#31f7fe"/><path d="M626.88889,492.74307l53.77778,-31.04861l53.77778,31.04861l-53.77778,31.04861z" fill="#49ffff"/><path d="M734.44444,492.74307v62.09723l-53.77778,31.04861v-62.09723z" fill="#187c7f"/></g><g><path d="M734.44444,492.74307l53.77778,-31.04861l53.77778,31.04861v62.09723l-53.77778,31.04861l-53.77778,-31.04861z" fill="#2ff1f1"/><path d="M734.44444,492.74307l53.77778,-31.04861l53.77778,31.04861l-53.77778,31.04861z" fill="#46ffff"/><path d="M842,492.74307v62.09723l-53.77778,31.04861v-62.09723z" fill="#177979"/></g><g><path d="M842,492.74307l53.77778,-31.04861l53.77778,31.04861v62.09723l-53.77778,31.04861l-53.77778,-31.04861z" fill="#38dbde"/><path d="M842,492.74307l53.77778,-31.04861l53.77778,31.04861l-53.77778,31.04861z" fill="#54ffff"/><path d="M949.55556,492.74307v62.09723l-53.77778,31.04861v-62.09723z" fill="#1c6d6f"/></g><g><path d="M949.55556,492.74307l53.77778,-31.04861l53.77778,31.04861v62.09723l-53.77778,31.04861l-53.77778,-31.04861z" fill="#2cfefe"/><path d="M949.55556,492.74307l53.77778,-31.04861l53.77778,31.04861l-53.77778,31.04861z" fill="#42ffff"/><path d="M1057.11111,492.74307v62.09723l-53.77778,31.04861v-62.09723z" fill="#167f7f"/></g><g><path d="M1057.11111,492.74307l53.77778,-31.04861l53.77778,31.04861v62.09723l-53.77778,31.04861l-53.77778,-31.04861z" fill="#39f6f6"/><path d="M1057.11111,492.74307l53.77778,-31.04861l53.77778,31.04861l-53.77778,31.04861z" fill="#55ffff"/><path d="M1164.66667,492.74307v62.09723l-53.77778,31.04861v-62.09723z" fill="#1c7b7b"/></g><g><path d="M1164.66667,492.74307l53.77778,-31.04861l53.77778,31.04861v62.09723l-53.77778,31.04861l-53.77778,-31.04861z" fill="#38c3c3"/><path d="M1164.66667,492.74307l53.77778,-31.04861l53.77778,31.04861l-53.77778,31.04861z" fill="#54ffff"/><path d="M1272.22222,492.74307v62.09723l-53.77778,31.04861v-62.09723z" fill="#1c6161"/></g><g><path d="M-72.22222,585.88892l53.77778,-31.04861l53.77778,31.04861v62.09723l-53.77778,31.04861l-53.77778,-31.04861z" fill="#258994"/><path d="M-72.22222,585.88892l53.77778,-31.04861l53.77778,31.04861l-53.77778,31.04861z" fill="#38cddd"/><path d="M35.33333,585.88892v62.09723l-53.77778,31.04861v-62.09723z" fill="#13444a"/></g><g><path d="M35.33333,585.88892l53.77778,-31.04861l53.77778,31.04861v62.09723l-53.77778,31.04861l-53.77778,-31.04861z" fill="#5d8dc9"/><path d="M35.33333,585.88892l53.77778,-31.04861l53.77778,31.04861l-53.77778,31.04861z" fill="#8bd4ff"/><path d="M142.88889,585.88892v62.09723l-53.77778,31.04861v-62.09723z" fill="#2e4764"/></g><g><path d="M142.88889,585.88892l53.77778,-31.04861l53.77778,31.04861v62.09723l-53.77778,31.04861l-53.77778,-31.04861z" fill="#5a97cb"/><path d="M142.88889,585.88892l53.77778,-31.04861l53.77778,31.04861l-53.77778,31.04861z" fill="#86e3ff"/><path d="M250.44444,585.88892v62.09723l-53.77778,31.04861v-62.09723z" fill="#2d4c66"/></g><g><path d="M250.44444,585.88892l53.77778,-31.04861l53.77778,31.04861v62.09723l-53.77778,31.04861l-53.77778,-31.04861z" fill="#2cd2d5"/><path d="M250.44444,585.88892l53.77778,-31.04861l53.77778,31.04861l-53.77778,31.04861z" fill="#41ffff"/><path d="M358,585.88892v62.09723l-53.77778,31.04861v-62.09723z" fill="#16696b"/></g><g><path d="M358,585.88892l53.77778,-31.04861l53.77778,31.04861v62.09723l-53.77778,31.04861l-53.77778,-31.04861z" fill="#3fd9ff"/><path d="M358,585.88892l53.77778,-31.04861l53.77778,31.04861l-53.77778,31.04861z" fill="#5effff"/><path d="M465.55556,585.88892v62.09723l-53.77778,31.04861v-62.09723z" fill="#1f6c7f"/></g><g><path d="M465.55556,585.88892l53.77778,-31.04861l53.77778,31.04861v62.09723l-53.77778,31.04861l-53.77778,-31.04861z" fill="#7a88e2"/><path d="M465.55556,585.88892l53.77778,-31.04861l53.77778,31.04861l-53.77778,31.04861z" fill="#b7ccff"/><path d="M573.11111,585.88892v62.09723l-53.77778,31.04861v-62.09723z" fill="#3d4471"/></g><g><path d="M573.11111,585.88892l53.77778,-31.04861l53.77778,31.04861v62.09723l-53.77778,31.04861l-53.77778,-31.04861z" fill="#6ab1fc"/><path d="M573.11111,585.88892l53.77778,-31.04861l53.77778,31.04861l-53.77778,31.04861z" fill="#9fffff"/><path d="M680.66667,585.88892v62.09723l-53.77778,31.04861v-62.09723z" fill="#35587e"/></g><g><path d="M680.66667,585.88892l53.77778,-31.04861l53.77778,31.04861v62.09723l-53.77778,31.04861l-53.77778,-31.04861z" fill="#6baffa"/><path d="M680.66667,585.88892l53.77778,-31.04861l53.77778,31.04861l-53.77778,31.04861z" fill="#a0ffff"/><path d="M788.22222,585.88892v62.09723l-53.77778,31.04861v-62.09723z" fill="#35587d"/></g><g><path d="M788.22222,585.88892l53.77778,-31.04861l53.77778,31.04861v62.09723l-53.77778,31.04861l-53.77778,-31.04861z" fill="#689ee9"/><path d="M788.22222,585.88892l53.77778,-31.04861l53.77778,31.04861l-53.77778,31.04861z" fill="#9dedff"/><path d="M895.77778,585.88892v62.09723l-53.77778,31.04861v-62.09723z" fill="#344f74"/></g><g><path d="M895.77778,585.88892l53.77778,-31.04861l53.77778,31.04861v62.09723l-53.77778,31.04861l-53.77778,-31.04861z" fill="#56ccfc"/><path d="M895.77778,585.88892l53.77778,-31.04861l53.77778,31.04861l-53.77778,31.04861z" fill="#80ffff"/><path d="M1003.33333,585.88892v62.09723l-53.77778,31.04861v-62.09723z" fill="#2b667e"/></g><g><path d="M1003.33333,585.88892l53.77778,-31.04861l53.77778,31.04861v62.09723l-53.77778,31.04861l-53.77778,-31.04861z" fill="#8790fe"/><path d="M1003.33333,585.88892l53.77778,-31.04861l53.77778,31.04861l-53.77778,31.04861z" fill="#cad9ff"/><path d="M1110.88889,585.88892v62.09723l-53.77778,31.04861v-62.09723z" fill="#43487f"/></g><g><path d="M1110.88889,585.88892l53.77778,-31.04861l53.77778,31.04861v62.09723l-53.77778,31.04861l-53.77778,-31.04861z" fill="#26e9e9"/><path d="M1110.88889,585.88892l53.77778,-31.04861l53.77778,31.04861l-53.77778,31.04861z" fill="#39ffff"/><path d="M1218.44444,585.88892v62.09723l-53.77778,31.04861v-62.09723z" fill="#137575"/></g><g><path d="M1218.44444,585.88892l53.77778,-31.04861l53.77778,31.04861v62.09723l-53.77778,31.04861l-53.77778,-31.04861z" fill="#19ffff"/><path d="M1218.44444,585.88892l53.77778,-31.04861l53.77778,31.04861l-53.77778,31.04861z" fill="#25ffff"/><path d="M1326,585.88892v62.09723l-53.77778,31.04861v-62.09723z" fill="#0c8080"/></g><g><path d="M-126,679.03476l53.77778,-31.04861l53.77778,31.04861v62.09723l-53.77778,31.04861l-53.77778,-31.04861z" fill="#202020"/><path d="M-126,679.03476l53.77778,-31.04861l53.77778,31.04861l-53.77778,31.04861z" fill="#303030"/><path d="M-18.44444,679.03476v62.09723l-53.77778,31.04861v-62.09723z" fill="#101010"/></g><g><path d="M-18.44444,679.03476l53.77778,-31.04861l53.77778,31.04861v62.09723l-53.77778,31.04861l-53.77778,-31.04861z" fill="#3eacd0"/><path d="M-18.44444,679.03476l53.77778,-31.04861l53.77778,31.04861l-53.77778,31.04861z" fill="#5cffff"/><path d="M89.11111,679.03476v62.09723l-53.77778,31.04861v-62.09723z" fill="#1f5668"/></g><g><path d="M89.11111,679.03476l53.77778,-31.04861l53.77778,31.04861v62.09723l-53.77778,31.04861l-53.77778,-31.04861z" fill="#6d88db"/><path d="M89.11111,679.03476l53.77778,-31.04861l53.77778,31.04861l-53.77778,31.04861z" fill="#a4cbff"/><path d="M196.66667,679.03476v62.09723l-53.77778,31.04861v-62.09723z" fill="#37446d"/></g><g><path d="M196.66667,679.03476l53.77778,-31.04861l53.77778,31.04861v62.09723l-53.77778,31.04861l-53.77778,-31.04861z" fill="#6877bd"/><path d="M196.66667,679.03476l53.77778,-31.04861l53.77778,31.04861l-53.77778,31.04861z" fill="#9cb3ff"/><path d="M304.22222,679.03476v62.09723l-53.77778,31.04861v-62.09723z" fill="#343c5e"/></g><g><path d="M304.22222,679.03476l53.77778,-31.04861l53.77778,31.04861v62.09723l-53.77778,31.04861l-53.77778,-31.04861z" fill="#2caaaa"/><path d="M304.22222,679.03476l53.77778,-31.04861l53.77778,31.04861l-53.77778,31.04861z" fill="#42ffff"/><path d="M411.77778,679.03476v62.09723l-53.77778,31.04861v-62.09723z" fill="#165555"/></g><g><path d="M411.77778,679.03476l53.77778,-31.04861l53.77778,31.04861v62.09723l-53.77778,31.04861l-53.77778,-31.04861z" fill="#3bb4cc"/><path d="M411.77778,679.03476l53.77778,-31.04861l53.77778,31.04861l-53.77778,31.04861z" fill="#58ffff"/><path d="M519.33333,679.03476v62.09723l-53.77778,31.04861v-62.09723z" fill="#1d5a66"/></g><g><path d="M519.33333,679.03476l53.77778,-31.04861l53.77778,31.04861v62.09723l-53.77778,31.04861l-53.77778,-31.04861z" fill="#8a65c6"/><path d="M519.33333,679.03476l53.77778,-31.04861l53.77778,31.04861l-53.77778,31.04861z" fill="#cf98ff"/><path d="M626.88889,679.03476v62.09723l-53.77778,31.04861v-62.09723z" fill="#453363"/></g><g><path d="M626.88889,679.03476l53.77778,-31.04861l53.77778,31.04861v62.09723l-53.77778,31.04861l-53.77778,-31.04861z" fill="#52595b"/><path d="M626.88889,679.03476l53.77778,-31.04861l53.77778,31.04861l-53.77778,31.04861z" fill="#7b8589"/><path d="M734.44444,679.03476v62.09723l-53.77778,31.04861v-62.09723z" fill="#292c2e"/></g><g><path d="M734.44444,679.03476l53.77778,-31.04861l53.77778,31.04861v62.09723l-53.77778,31.04861l-53.77778,-31.04861z" fill="#5f88ba"/><path d="M734.44444,679.03476l53.77778,-31.04861l53.77778,31.04861l-53.77778,31.04861z" fill="#8eccff"/><path d="M842,679.03476v62.09723l-53.77778,31.04861v-62.09723z" fill="#2f445d"/></g><g><path d="M842,679.03476l53.77778,-31.04861l53.77778,31.04861v62.09723l-53.77778,31.04861l-53.77778,-31.04861z" fill="#7c6ebb"/><path d="M842,679.03476l53.77778,-31.04861l53.77778,31.04861l-53.77778,31.04861z" fill="#baa5ff"/><path d="M949.55556,679.03476v62.09723l-53.77778,31.04861v-62.09723z" fill="#3e375e"/></g><g><path d="M949.55556,679.03476l53.77778,-31.04861l53.77778,31.04861v62.09723l-53.77778,31.04861l-53.77778,-31.04861z" fill="#85418b"/><path d="M949.55556,679.03476l53.77778,-31.04861l53.77778,31.04861l-53.77778,31.04861z" fill="#c762d0"/><path d="M1057.11111,679.03476v62.09723l-53.77778,31.04861v-62.09723z" fill="#422145"/></g><g><path d="M1057.11111,679.03476l53.77778,-31.04861l53.77778,31.04861v62.09723l-53.77778,31.04861l-53.77778,-31.04861z" fill="#697db7"/><path d="M1057.11111,679.03476l53.77778,-31.04861l53.77778,31.04861l-53.77778,31.04861z" fill="#9dbbff"/><path d="M1164.66667,679.03476v62.09723l-53.77778,31.04861v-62.09723z" fill="#343e5c"/></g><g><path d="M1164.66667,679.03476l53.77778,-31.04861l53.77778,31.04861v62.09723l-53.77778,31.04861l-53.77778,-31.04861z" fill="#3aa5a5"/><path d="M1164.66667,679.03476l53.77778,-31.04861l53.77778,31.04861l-53.77778,31.04861z" fill="#56f8f8"/><path d="M1272.22222,679.03476v62.09723l-53.77778,31.04861v-62.09723z" fill="#1d5353"/></g><g><path d="M-72.22222,772.1806l53.77778,-31.04861l53.77778,31.04861v62.09723l-53.77778,31.04861l-53.77778,-31.04861z" fill="#000000"/><path d="M-72.22222,772.1806l53.77778,-31.04861l53.77778,31.04861l-53.77778,31.04861z" fill="#ffffff"/><path d="M35.33333,772.1806v62.09723l-53.77778,31.04861v-62.09723z" fill="#000000"/></g><g><path d="M35.33333,772.1806l53.77778,-31.04861l53.77778,31.04861v62.09723l-53.77778,31.04861l-53.77778,-31.04861z" fill="#000000"/><path d="M35.33333,772.1806l53.77778,-31.04861l53.77778,31.04861l-53.77778,31.04861z" fill="#ffffff"/><path d="M142.88889,772.1806v62.09723l-53.77778,31.04861v-62.09723z" fill="#000000"/></g><g><path d="M142.88889,772.1806l53.77778,-31.04861l53.77778,31.04861v62.09723l-53.77778,31.04861l-53.77778,-31.04861z" fill="#000000"/><path d="M142.88889,772.1806l53.77778,-31.04861l53.77778,31.04861l-53.77778,31.04861z" fill="#ffffff"/><path d="M250.44444,772.1806v62.09723l-53.77778,31.04861v-62.09723z" fill="#000000"/></g><g><path d="M250.44444,772.1806l53.77778,-31.04861l53.77778,31.04861v62.09723l-53.77778,31.04861l-53.77778,-31.04861z" fill="#000000"/><path d="M250.44444,772.1806l53.77778,-31.04861l53.77778,31.04861l-53.77778,31.04861z" fill="#ffffff"/><path d="M358,772.1806v62.09723l-53.77778,31.04861v-62.09723z" fill="#000000"/></g><g><path d="M358,772.1806l53.77778,-31.04861l53.77778,31.04861v62.09723l-53.77778,31.04861l-53.77778,-31.04861z" fill="#000000"/><path d="M358,772.1806l53.77778,-31.04861l53.77778,31.04861l-53.77778,31.04861z" fill="#ffffff"/><path d="M465.55556,772.1806v62.09723l-53.77778,31.04861v-62.09723z" fill="#000000"/></g><g><path d="M465.55556,772.1806l53.77778,-31.04861l53.77778,31.04861v62.09723l-53.77778,31.04861l-53.77778,-31.04861z" fill="#000000"/><path d="M465.55556,772.1806l53.77778,-31.04861l53.77778,31.04861l-53.77778,31.04861z" fill="#ffffff"/><path d="M573.11111,772.1806v62.09723l-53.77778,31.04861v-62.09723z" fill="#000000"/></g><g><path d="M573.11111,772.1806l53.77778,-31.04861l53.77778,31.04861v62.09723l-53.77778,31.04861l-53.77778,-31.04861z" fill="#000000"/><path d="M573.11111,772.1806l53.77778,-31.04861l53.77778,31.04861l-53.77778,31.04861z" fill="#ffffff"/><path d="M680.66667,772.1806v62.09723l-53.77778,31.04861v-62.09723z" fill="#000000"/></g><g><path d="M680.66667,772.1806l53.77778,-31.04861l53.77778,31.04861v62.09723l-53.77778,31.04861l-53.77778,-31.04861z" fill="#000000"/><path d="M680.66667,772.1806l53.77778,-31.04861l53.77778,31.04861l-53.77778,31.04861z" fill="#ffffff"/><path d="M788.22222,772.1806v62.09723l-53.77778,31.04861v-62.09723z" fill="#000000"/></g><g><path d="M788.22222,772.1806l53.77778,-31.04861l53.77778,31.04861v62.09723l-53.77778,31.04861l-53.77778,-31.04861z" fill="#000000"/><path d="M788.22222,772.1806l53.77778,-31.04861l53.77778,31.04861l-53.77778,31.04861z" fill="#ffffff"/><path d="M895.77778,772.1806v62.09723l-53.77778,31.04861v-62.09723z" fill="#000000"/></g><g><path d="M895.77778,772.1806l53.77778,-31.04861l53.77778,31.04861v62.09723l-53.77778,31.04861l-53.77778,-31.04861z" fill="#000000"/><path d="M895.77778,772.1806l53.77778,-31.04861l53.77778,31.04861l-53.77778,31.04861z" fill="#ffffff"/><path d="M1003.33333,772.1806v62.09723l-53.77778,31.04861v-62.09723z" fill="#000000"/></g><g><path d="M1003.33333,772.1806l53.77778,-31.04861l53.77778,31.04861v62.09723l-53.77778,31.04861l-53.77778,-31.04861z" fill="#000000"/><path d="M1003.33333,772.1806l53.77778,-31.04861l53.77778,31.04861l-53.77778,31.04861z" fill="#ffffff"/><path d="M1110.88889,772.1806v62.09723l-53.77778,31.04861v-62.09723z" fill="#000000"/></g><g><path d="M1110.88889,772.1806l53.77778,-31.04861l53.77778,31.04861v62.09723l-53.77778,31.04861l-53.77778,-31.04861z" fill="#000000"/><path d="M1110.88889,772.1806l53.77778,-31.04861l53.77778,31.04861l-53.77778,31.04861z" fill="#ffffff"/><path d="M1218.44444,772.1806v62.09723l-53.77778,31.04861v-62.09723z" fill="#000000"/></g><g><path d="M1218.44444,772.1806l53.77778,-31.04861l53.77778,31.04861v62.09723l-53.77778,31.04861l-53.77778,-31.04861z" fill="#000000"/><path d="M1218.44444,772.1806l53.77778,-31.04861l53.77778,31.04861l-53.77778,31.04861z" fill="#ffffff"/><path d="M1326,772.1806v62.09723l-53.77778,31.04861v-62.09723z" fill="#000000"/></g><g><path d="M-126,865.32645l53.77778,-31.04861l53.77778,31.04861v62.09723l-53.77778,31.04861l-53.77778,-31.04861z" fill="#000000"/><path d="M-126,865.32645l53.77778,-31.04861l53.77778,31.04861l-53.77778,31.04861z" fill="#ffffff"/><path d="M-18.44444,865.32645v62.09723l-53.77778,31.04861v-62.09723z" fill="#000000"/></g><g><path d="M-18.44444,865.32645l53.77778,-31.04861l53.77778,31.04861v62.09723l-53.77778,31.04861l-53.77778,-31.04861z" fill="#000000"/><path d="M-18.44444,865.32645l53.77778,-31.04861l53.77778,31.04861l-53.77778,31.04861z" fill="#ffffff"/><path d="M89.11111,865.32645v62.09723l-53.77778,31.04861v-62.09723z" fill="#000000"/></g><g><path d="M89.11111,865.32645l53.77778,-31.04861l53.77778,31.04861v62.09723l-53.77778,31.04861l-53.77778,-31.04861z" fill="#000000"/><path d="M89.11111,865.32645l53.77778,-31.04861l53.77778,31.04861l-53.77778,31.04861z" fill="#ffffff"/><path d="M196.66667,865.32645v62.09723l-53.77778,31.04861v-62.09723z" fill="#000000"/></g><g><path d="M196.66667,865.32645l53.77778,-31.04861l53.77778,31.04861v62.09723l-53.77778,31.04861l-53.77778,-31.04861z" fill="#000000"/><path d="M196.66667,865.32645l53.77778,-31.04861l53.77778,31.04861l-53.77778,31.04861z" fill="#ffffff"/><path d="M304.22222,865.32645v62.09723l-53.77778,31.04861v-62.09723z" fill="#000000"/></g><g><path d="M304.22222,865.32645l53.77778,-31.04861l53.77778,31.04861v62.09723l-53.77778,31.04861l-53.77778,-31.04861z" fill="#000000"/><path d="M304.22222,865.32645l53.77778,-31.04861l53.77778,31.04861l-53.77778,31.04861z" fill="#ffffff"/><path d="M411.77778,865.32645v62.09723l-53.77778,31.04861v-62.09723z" fill="#000000"/></g><g><path d="M411.77778,865.32645l53.77778,-31.04861l53.77778,31.04861v62.09723l-53.77778,31.04861l-53.77778,-31.04861z" fill="#000000"/><path d="M411.77778,865.32645l53.77778,-31.04861l53.77778,31.04861l-53.77778,31.04861z" fill="#ffffff"/><path d="M519.33333,865.32645v62.09723l-53.77778,31.04861v-62.09723z" fill="#000000"/></g><g><path d="M519.33333,865.32645l53.77778,-31.04861l53.77778,31.04861v62.09723l-53.77778,31.04861l-53.77778,-31.04861z" fill="#000000"/><path d="M519.33333,865.32645l53.77778,-31.04861l53.77778,31.04861l-53.77778,31.04861z" fill="#ffffff"/><path d="M626.88889,865.32645v62.09723l-53.77778,31.04861v-62.09723z" fill="#000000"/></g><g><path d="M626.88889,865.32645l53.77778,-31.04861l53.77778,31.04861v62.09723l-53.77778,31.04861l-53.77778,-31.04861z" fill="#000000"/><path d="M626.88889,865.32645l53.77778,-31.04861l53.77778,31.04861l-53.77778,31.04861z" fill="#ffffff"/><path d="M734.44444,865.32645v62.09723l-53.77778,31.04861v-62.09723z" fill="#000000"/></g><g><path d="M734.44444,865.32645l53.77778,-31.04861l53.77778,31.04861v62.09723l-53.77778,31.04861l-53.77778,-31.04861z" fill="#000000"/><path d="M734.44444,865.32645l53.77778,-31.04861l53.77778,31.04861l-53.77778,31.04861z" fill="#ffffff"/><path d="M842,865.32645v62.09723l-53.77778,31.04861v-62.09723z" fill="#000000"/></g><g><path d="M842,865.32645l53.77778,-31.04861l53.77778,31.04861v62.09723l-53.77778,31.04861l-53.77778,-31.04861z" fill="#000000"/><path d="M842,865.32645l53.77778,-31.04861l53.77778,31.04861l-53.77778,31.04861z" fill="#ffffff"/><path d="M949.55556,865.32645v62.09723l-53.77778,31.04861v-62.09723z" fill="#000000"/></g><g><path d="M949.55556,865.32645l53.77778,-31.04861l53.77778,31.04861v62.09723l-53.77778,31.04861l-53.77778,-31.04861z" fill="#000000"/><path d="M949.55556,865.32645l53.77778,-31.04861l53.77778,31.04861l-53.77778,31.04861z" fill="#ffffff"/><path d="M1057.11111,865.32645v62.09723l-53.77778,31.04861v-62.09723z" fill="#000000"/></g><g><path d="M1057.11111,865.32645l53.77778,-31.04861l53.77778,31.04861v62.09723l-53.77778,31.04861l-53.77778,-31.04861z" fill="#000000"/><path d="M1057.11111,865.32645l53.77778,-31.04861l53.77778,31.04861l-53.77778,31.04861z" fill="#ffffff"/><path d="M1164.66667,865.32645v62.09723l-53.77778,31.04861v-62.09723z" fill="#000000"/></g><g><path d="M1164.66667,865.32645l53.77778,-31.04861l53.77778,31.04861v62.09723l-53.77778,31.04861l-53.77778,-31.04861z" fill="#000000"/><path d="M1164.66667,865.32645l53.77778,-31.04861l53.77778,31.04861l-53.77778,31.04861z" fill="#ffffff"/><path d="M1272.22222,865.32645v62.09723l-53.77778,31.04861v-62.09723z" fill="#000000"/></g></g></g></svg>