<svg version="1.1" xmlns="http://www.w3.org/2000/svg" xmlns:xlink="http://www.w3.org/1999/xlink" width="1200" height="630" viewBox="0,0,1200,630"><g fill="none" fill-rule="nonzero" stroke="none" stroke-width="1" stroke-linecap="butt" stroke-linejoin="miter" stroke-miterlimit="10" stroke-dasharray="" stroke-dashoffset="0" font-family="none" font-weight="none" font-size="none" text-anchor="none" style="mix-blend-mode: normal"><g><g><path d="M-126,-243.87506l96.8,-55.88751l96.8,55.88751v111.77501l-96.8,55.88751l-96.8,-55.88751z" fill="#000000"/><path d="M-126,-243.87506l96.8,-55.88751l96.8,55.88751l-96.8,55.88751z" fill="#ffffff"/><path d="M67.6,-243.87506v111.77501l-96.8,55.88751v-111.77501z" fill="#000000"/></g><g><path d="M67.6,-243.87506l96.8,-55.88751l96.8,55.88751v111.77501l-96.8,55.88751l-96.8,-55.88751z" fill="#000000"/><path d="M67.6,-243.87506l96.8,-55.88751l96.8,55.88751l-96.8,55.88751z" fill="#ffffff"/><path d="M261.2,-243.87506v111.77501l-96.8,55.88751v-111.77501z" fill="#000000"/></g><g><path d="M261.2,-243.87506l96.8,-55.88751l96.8,55.88751v111.77501l-96.8,55.88751l-96.8,-55.88751z" fill="#000000"/><path d="M261.2,-243.87506l96.8,-55.88751l96.8,55.88751l-96.8,55.88751z" fill="#ffffff"/><path d="M454.8,-243.87506v111.77501l-96.8,55.88751v-111.77501z" fill="#000000"/></g><g><path d="M454.8,-243.87506l96.8,-55.88751l96.8,55.88751v111.77501l-96.8,55.88751l-96.8,-55.88751z" fill="#000000"/><path d="M454.8,-243.87506l96.8,-55.88751l96.8,55.88751l-96.8,55.88751z" fill="#ffffff"/><path d="M648.4,-243.87506v111.77501l-96.8,55.88751v-111.77501z" fill="#000000"/></g><g><path d="M648.4,-243.87506l96.8,-55.88751l96.8,55.88751v111.77501l-96.8,55.88751l-96.8,-55.88751z" fill="#000000"/><path d="M648.4,-243.87506l96.8,-55.88751l96.8,55.88751l-96.8,55.88751z" fill="#ffffff"/><path d="M842,-243.87506v111.77501l-96.8,55.88751v-111.77501z" fill="#000000"/></g><g><path d="M842,-243.87506l96.8,-55.88751l96.8,55.88751v111.77501l-96.8,55.88751l-96.8,-55.88751z" fill="#000000"/><path d="M842,-243.87506l96.8,-55.88751l96.8,55.88751l-96.8,55.88751z" fill="#ffffff"/><path d="M1035.6,-243.87506v111.77501l-96.8,55.88751v-111.77501z" fill="#000000"/></g><g><path d="M1035.6,-243.87506l96.8,-55.88751l96.8,55.88751v111.77501l-96.8,55.88751l-96.8,-55.88751z" fill="#000000"/><path d="M1035.6,-243.87506l96.8,-55.88751l96.8,55.88751l-96.8,55.88751z" fill="#ffffff"/><path d="M1229.2,-243.87506v111.77501l-96.8,55.88751v-111.77501z" fill="#000000"/></g><g><path d="M-29.2,-76.21254l96.8,-55.88751l96.8,55.88751v111.77501l-96.8,55.88751l-96.8,-55.88751z" fill="#ba75c5"/><path d="M-29.2,-76.21254l96.8,-55.88751l96.8,55.88751l-96.8,55.88751z" fill="#ffafff"/><path d="M164.4,-76.21254v111.77501l-96.8,55.88751v-111.77501z" fill="#5d3a63"/></g><g><path d="M164.4,-76.21254l96.8,-55.88751l96.8,55.88751v111.77501l-96.8,55.88751l-96.8,-55.88751z" fill="#c36ac7"/><path d="M164.4,-76.21254l96.8,-55.88751l96.8,55.88751l-96.8,55.88751z" fill="#ff9fff"/><path d="M358,-76.21254v111.77501l-96.8,55.88751v-111.77501z" fill="#623564"/></g><g><path d="M358,-76.21254l96.8,-55.88751l96.8,55.88751v111.77501l-96.8,55.88751l-96.8,-55.88751z" fill="#bc6cbc"/><path d="M358,-76.21254l96.8,-55.88751l96.8,55.88751l-96.8,55.88751z" fill="#ffa2ff"/><path d="M551.6,-76.21254v111.77501l-96.8,55.88751v-111.77501z" fill="#5e365e"/></g><g><path d="M551.6,-76.21254l96.8,-55.88751l96.8,55.88751v111.77501l-96.8,55.88751l-96.8,-55.88751z" fill="#b96fb9"/><path d="M551.6,-76.21254l96.8,-55.88751l96.8,55.88751l-96.8,55.88751z" fill="#ffa6ff"/><path d="M745.2,-76.21254v111.77501l-96.8,55.88751v-111.77501z" fill="#5d375d"/></g><g><path d="M745.2,-76.21254l96.8,-55.88751l96.8,55.88751v111.77501l-96.8,55.88751l-96.8,-55.88751z" fill="#ba69ba"/><path d="M745.2,-76.21254l96.8,-55.88751l96.8,55.88751l-96.8,55.88751z" fill="#ff9eff"/><path d="M938.8,-76.21254v111.77501l-96.8,55.88751v-111.77501z" fill="#5d355d"/></g><g><path d="M938.8,-76.21254l96.8,-55.88751l96.8,55.88751v111.77501l-96.8,55.88751l-96.8,-55.88751z" fill="#b370b3"/><path d="M938.8,-76.21254l96.8,-55.88751l96.8,55.88751l-96.8,55.88751z" fill="#ffa7ff"/><path d="M1132.4,-76.21254v111.77501l-96.8,55.88751v-111.77501z" fill="#593859"/></g><g><path d="M1132.4,-76.21254l96.8,-55.88751l96.8,55.88751v111.77501l-96.8,55.88751l-96.8,-55.88751z" fill="#a974a9"/><path d="M1132.4,-76.21254l96.8,-55.88751l96.8,55.88751l-96.8,55.88751z" fill="#fdaefd"/><path d="M1326,-76.21254v111.77501l-96.8,55.88751v-111.77501z" fill="#543a54"/></g><g><path d="M-126,91.44998l96.8,-55.88751l96.8,55.88751v111.77501l-96.8,55.88751l-96.8,-55.88751z" fill="#6279b4"/><path d="M-126,91.44998l96.8,-55.88751l96.8,55.88751l-96.8,55.88751z" fill="#94b5ff"/><path d="M67.6,91.44998v111.77501l-96.8,55.88751v-111.77501z" fill="#313c5a"/></g><g><path d="M67.6,91.44998l96.8,-55.88751l96.8,55.88751v111.77501l-96.8,55.88751l-96.8,-55.88751z" fill="#7a8cce"/><path d="M67.6,91.44998l96.8,-55.88751l96.8,55.88751l-96.8,55.88751z" fill="#b8d1ff"/><path d="M261.2,91.44998v111.77501l-96.8,55.88751v-111.77501z" fill="#3d4667"/></g><g><path d="M261.2,91.44998l96.8,-55.88751l96.8,55.88751v111.77501l-96.8,55.88751l-96.8,-55.88751z" fill="#9673d0"/><path d="M261.2,91.44998l96.8,-55.88751l96.8,55.88751l-96.8,55.88751z" fill="#e1acff"/><path d="M454.8,91.44998v111.77501l-96.8,55.88751v-111.77501z" fill="#4b3968"/></g><g><path d="M454.8,91.44998l96.8,-55.88751l96.8,55.88751v111.77501l-96.8,55.88751l-96.8,-55.88751z" fill="#956fc7"/><path d="M454.8,91.44998l96.8,-55.88751l96.8,55.88751l-96.8,55.88751z" fill="#e0a6ff"/><path d="M648.4,91.44998v111.77501l-96.8,55.88751v-111.77501z" fill="#4b3764"/></g><g><path d="M648.4,91.44998l96.8,-55.88751l96.8,55.88751v111.77501l-96.8,55.88751l-96.8,-55.88751z" fill="#837fc0"/><path d="M648.4,91.44998l96.8,-55.88751l96.8,55.88751l-96.8,55.88751z" fill="#c5beff"/><path d="M842,91.44998v111.77501l-96.8,55.88751v-111.77501z" fill="#423f60"/></g><g><path d="M842,91.44998l96.8,-55.88751l96.8,55.88751v111.77501l-96.8,55.88751l-96.8,-55.88751z" fill="#8b71c1"/><path d="M842,91.44998l96.8,-55.88751l96.8,55.88751l-96.8,55.88751z" fill="#d0aaff"/><path d="M1035.6,91.44998v111.77501l-96.8,55.88751v-111.77501z" fill="#453961"/></g><g><path d="M1035.6,91.44998l96.8,-55.88751l96.8,55.88751v111.77501l-96.8,55.88751l-96.8,-55.88751z" fill="#807399"/><path d="M1035.6,91.44998l96.8,-55.88751l96.8,55.88751l-96.8,55.88751z" fill="#c0ace5"/><path d="M1229.2,91.44998v111.77501l-96.8,55.88751v-111.77501z" fill="#40394c"/></g><g><path d="M-29.2,259.11249l96.8,-55.88751l96.8,55.88751v111.77501l-96.8,55.88751l-96.8,-55.88751z" fill="#64a2e6"/><path d="M-29.2,259.11249l96.8,-55.88751l96.8,55.88751l-96.8,55.88751z" fill="#96f4ff"/><path d="M164.4,259.11249v111.77501l-96.8,55.88751v-111.77501z" fill="#325173"/></g><g><path d="M164.4,259.11249l96.8,-55.88751l96.8,55.88751v111.77501l-96.8,55.88751l-96.8,-55.88751z" fill="#52bcf0"/><path d="M164.4,259.11249l96.8,-55.88751l96.8,55.88751l-96.8,55.88751z" fill="#7bffff"/><path d="M358,259.11249v111.77501l-96.8,55.88751v-111.77501z" fill="#295e78"/></g><g><path d="M358,259.11249l96.8,-55.88751l96.8,55.88751v111.77501l-96.8,55.88751l-96.8,-55.88751z" fill="#5dadee"/><path d="M358,259.11249l96.8,-55.88751l96.8,55.88751l-96.8,55.88751z" fill="#8cffff"/><path d="M551.6,259.11249v111.77501l-96.8,55.88751v-111.77501z" fill="#2f5677"/></g><g><path d="M551.6,259.11249l96.8,-55.88751l96.8,55.88751v111.77501l-96.8,55.88751l-96.8,-55.88751z" fill="#5da0dd"/><path d="M551.6,259.11249l96.8,-55.88751l96.8,55.88751l-96.8,55.88751z" fill="#8cf0ff"/><path d="M745.2,259.11249v111.77501l-96.8,55.88751v-111.77501z" fill="#2f506e"/></g><g><path d="M745.2,259.11249l96.8,-55.88751l96.8,55.88751v111.77501l-96.8,55.88751l-96.8,-55.88751z" fill="#54a6d6"/><path d="M745.2,259.11249l96.8,-55.88751l96.8,55.88751l-96.8,55.88751z" fill="#7ef9ff"/><path d="M938.8,259.11249v111.77501l-96.8,55.88751v-111.77501z" fill="#2a536b"/></g><g><path d="M938.8,259.11249l96.8,-55.88751l96.8,55.88751v111.77501l-96.8,55.88751l-96.8,-55.88751z" fill="#36ccd8"/><path d="M938.8,259.11249l96.8,-55.88751l96.8,55.88751l-96.8,55.88751z" fill="#51ffff"/><path d="M1132.4,259.11249v111.77501l-96.8,55.88751v-111.77501z" fill="#1b666c"/></g><g><path d="M1132.4,259.11249l96.8,-55.88751l96.8,55.88751v111.77501l-96.8,55.88751l-96.8,-55.88751z" fill="#42bdc3"/><path d="M1132.4,259.11249l96.8,-55.88751l96.8,55.88751l-96.8,55.88751z" fill="#64ffff"/><path d="M1326,259.11249v111.77501l-96.8,55.88751v-111.77501z" fill="#215e62"/></g><g><path d="M-126,426.77501l96.8,-55.88751l96.8,55.88751v111.77501l-96.8,55.88751l-96.8,-55.88751z" fill="#496b83"/><path d="M-126,426.77501l96.8,-55.88751l96.8,55.88751l-96.8,55.88751z" fill="#6ea1c5"/><path d="M67.6,426.77501v111.77501l-96.8,55.88751v-111.77501z" fill="#253642"/></g><g><path d="M67.6,426.77501l96.8,-55.88751l96.8,55.88751v111.77501l-96.8,55.88751l-96.8,-55.88751z" fill="#53c6ec"/><path d="M67.6,426.77501l96.8,-55.88751l96.8,55.88751l-96.8,55.88751z" fill="#7dffff"/><path d="M261.2,426.77501v111.77501l-96.8,55.88751v-111.77501z" fill="#2a6376"/></g><g><path d="M261.2,426.77501l96.8,-55.88751l96.8,55.88751v111.77501l-96.8,55.88751l-96.8,-55.88751z" fill="#36e9f1"/><path d="M261.2,426.77501l96.8,-55.88751l96.8,55.88751l-96.8,55.88751z" fill="#51ffff"/><path d="M454.8,426.77501v111.77501l-96.8,55.88751v-111.77501z" fill="#1b7479"/></g><g><path d="M454.8,426.77501l96.8,-55.88751l96.8,55.88751v111.77501l-96.8,55.88751l-96.8,-55.88751z" fill="#44c3d0"/><path d="M454.8,426.77501l96.8,-55.88751l96.8,55.88751l-96.8,55.88751z" fill="#66ffff"/><path d="M648.4,426.77501v111.77501l-96.8,55.88751v-111.77501z" fill="#226268"/></g><g><path d="M648.4,426.77501l96.8,-55.88751l96.8,55.88751v111.77501l-96.8,55.88751l-96.8,-55.88751z" fill="#39eaf4"/><path d="M648.4,426.77501l96.8,-55.88751l96.8,55.88751l-96.8,55.88751z" fill="#55ffff"/><path d="M842,426.77501v111.77501l-96.8,55.88751v-111.77501z" fill="#1c757a"/></g><g><path d="M842,426.77501l96.8,-55.88751l96.8,55.88751v111.77501l-96.8,55.88751l-96.8,-55.88751z" fill="#38e5ea"/><path d="M842,426.77501l96.8,-55.88751l96.8,55.88751l-96.8,55.88751z" fill="#54ffff"/><path d="M1035.6,426.77501v111.77501l-96.8,55.88751v-111.77501z" fill="#1c7275"/></g><g><path d="M1035.6,426.77501l96.8,-55.88751l96.8,55.88751v111.77501l-96.8,55.88751l-96.8,-55.88751z" fill="#3dd9dc"/><path d="M1035.6,426.77501l96.8,-55.88751l96.8,55.88751l-96.8,55.88751z" fill="#5bffff"/><path d="M1229.2,426.77501v111.77501l-96.8,55.88751v-111.77501z" fill="#1e6d6e"/></g><g><path d="M-29.2,594.43753l96.8,-55.88751l96.8,55.88751v111.77501l-96.8,55.88751l-96.8,-55.88751z" fill="#52a0d8"/><path d="M-29.2,594.43753l96.8,-55.88751l96.8,55.88751l-96.8,55.88751z" fill="#7bf0ff"/><path d="M164.4,594.43753v111.77501l-96.8,55.88751v-111.77501z" fill="#29506c"/></g><g><path d="M164.4,594.43753l96.8,-55.88751l96.8,55.88751v111.77501l-96.8,55.88751l-96.8,-55.88751z" fill="#3daac2"/><path d="M164.4,594.43753l96.8,-55.88751l96.8,55.88751l-96.8,55.88751z" fill="#5cffff"/><path d="M358,594.43753v111.77501l-96.8,55.88751v-111.77501z" fill="#1f5561"/></g><g><path d="M358,594.43753l96.8,-55.88751l96.8,55.88751v111.77501l-96.8,55.88751l-96.8,-55.88751z" fill="#51afe0"/><path d="M358,594.43753l96.8,-55.88751l96.8,55.88751l-96.8,55.88751z" fill="#79ffff"/><path d="M551.6,594.43753v111.77501l-96.8,55.88751v-111.77501z" fill="#285770"/></g><g><path d="M551.6,594.43753l96.8,-55.88751l96.8,55.88751v111.77501l-96.8,55.88751l-96.8,-55.88751z" fill="#7189d2"/><path d="M551.6,594.43753l96.8,-55.88751l96.8,55.88751l-96.8,55.88751z" fill="#a9cdff"/><path d="M745.2,594.43753v111.77501l-96.8,55.88751v-111.77501z" fill="#384469"/></g><g><path d="M745.2,594.43753l96.8,-55.88751l96.8,55.88751v111.77501l-96.8,55.88751l-96.8,-55.88751z" fill="#6e92de"/><path d="M745.2,594.43753l96.8,-55.88751l96.8,55.88751l-96.8,55.88751z" fill="#a6dbff"/><path d="M938.8,594.43753v111.77501l-96.8,55.88751v-111.77501z" fill="#37496f"/></g><g><path d="M938.8,594.43753l96.8,-55.88751l96.8,55.88751v111.77501l-96.8,55.88751l-96.8,-55.88751z" fill="#6d93dc"/><path d="M938.8,594.43753l96.8,-55.88751l96.8,55.88751l-96.8,55.88751z" fill="#a3ddff"/><path d="M1132.4,594.43753v111.77501l-96.8,55.88751v-111.77501z" fill="#364a6e"/></g><g><path d="M1132.4,594.43753l96.8,-55.88751l96.8,55.88751v111.77501l-96.8,55.88751l-96.8,-55.88751z" fill="#27dcdc"/><path d="M1132.4,594.43753l96.8,-55.88751l96.8,55.88751l-96.8,55.88751z" fill="#3bffff"/><path d="M1326,594.43753v111.77501l-96.8,55.88751v-111.77501z" fill="#146e6e"/></g><g><path d="M-126,762.10005l96.8,-55.88751l96.8,55.88751v111.77501l-96.8,55.88751l-96.8,-55.88751z" fill="#000000"/><path d="M-126,762.10005l96.8,-55.88751l96.8,55.88751l-96.8,55.88751z" fill="#ffffff"/><path d="M67.6,762.10005v111.77501l-96.8,55.88751v-111.77501z" fill="#000000"/></g><g><path d="M67.6,762.10005l96.8,-55.88751l96.8,55.88751v111.77501l-96.8,55.88751l-96.8,-55.88751z" fill="#000000"/><path d="M67.6,762.10005l96.8,-55.88751l96.8,55.88751l-96.8,55.88751z" fill="#ffffff"/><path d="M261.2,762.10005v111.77501l-96.8,55.88751v-111.77501z" fill="#000000"/></g><g><path d="M261.2,762.10005l96.8,-55.88751l96.8,55.88751v111.77501l-96.8,55.88751l-96.8,-55.88751z" fill="#000000"/><path d="M261.2,762.10005l96.8,-55.88751l96.8,55.88751l-96.8,55.88751z" fill="#ffffff"/><path d="M454.8,762.10005v111.77501l-96.8,55.88751v-111.77501z" fill="#000000"/></g><g><path d="M454.8,762.10005l96.8,-55.88751l96.8,55.88751v111.77501l-96.8,55.88751l-96.8,-55.88751z" fill="#000000"/><path d="M454.8,762.10005l96.8,-55.88751l96.8,55.88751l-96.8,55.88751z" fill="#ffffff"/><path d="M648.4,762.10005v111.77501l-96.8,55.88751v-111.77501z" fill="#000000"/></g><g><path d="M648.4,762.10005l96.8,-55.88751l96.8,55.88751v111.77501l-96.8,55.88751l-96.8,-55.88751z" fill="#000000"/><path d="M648.4,762.10005l96.8,-55.88751l96.8,55.88751l-96.8,55.88751z" fill="#ffffff"/><path d="M842,762.10005v111.77501l-96.8,55.88751v-111.77501z" fill="#000000"/></g><g><path d="M842,762.10005l96.8,-55.88751l96.8,55.88751v111.77501l-96.8,55.88751l-96.8,-55.88751z" fill="#000000"/><path d="M842,762.10005l96.8,-55.88751l96.8,55.88751l-96.8,55.88751z" fill="#ffffff"/><path d="M1035.6,762.10005v111.77501l-96.8,55.88751v-111.77501z" fill="#000000"/></g><g><path d="M1035.6,762.10005l96.8,-55.88751l96.8,55.88751v111.77501l-96.8,55.88751l-96.8,-55.88751z" fill="#000000"/><path d="M1035.6,762.10005l96.8,-55.88751l96.8,55.88751l-96.8,55.88751z" fill="#ffffff"/><path d="M1229.2,762.10005v111.77501l-96.8,55.88751v-111.77501z" fill="#000000"/></g></g></g></svg>