<svg version="1.1" xmlns="http://www.w3.org/2000/svg" xmlns:xlink="http://www.w3.org/1999/xlink" width="1200" height="675" viewBox="0,0,1200,675"><g fill="none" fill-rule="nonzero" stroke="none" stroke-width="1" stroke-linecap="butt" stroke-linejoin="miter" stroke-miterlimit="10" stroke-dasharray="" stroke-dashoffset="0" font-family="none" font-weight="none" font-size="none" text-anchor="none" style="mix-blend-mode: normal"><g><g><path d="M-126,-221.37506l96.8,-55.88751l96.8,55.88751v111.77501l-96.8,55.88751l-96.8,-55.88751z" fill="#000000"/><path d="M-126,-221.37506l96.8,-55.88751l96.8,55.88751l-96.8,55.88751z" fill="#ffffff"/><path d="M67.6,-221.37506v111.77501l-96.8,55.88751v-111.77501z" fill="#000000"/></g><g><path d="M67.6,-221.37506l96.8,-55.88751l96.8,55.88751v111.77501l-96.8,55.88751l-96.8,-55.88751z" fill="#000000"/><path d="M67.6,-221.37506l96.8,-55.88751l96.8,55.88751l-96.8,55.88751z" fill="#ffffff"/><path d="M261.2,-221.37506v111.77501l-96.8,55.88751v-111.77501z" fill="#000000"/></g><g><path d="M261.2,-221.37506l96.8,-55.88751l96.8,55.88751v111.77501l-96.8,55.88751l-96.8,-55.88751z" fill="#000000"/><path d="M261.2,-221.37506l96.8,-55.88751l96.8,55.88751l-96.8,55.88751z" fill="#ffffff"/><path d="M454.8,-221.37506v111.77501l-96.8,55.88751v-111.77501z" fill="#000000"/></g><g><path d="M454.8,-221.37506l96.8,-55.88751l96.8,55.88751v111.77501l-96.8,55.88751l-96.8,-55.88751z" fill="#000000"/><path d="M454.8,-221.37506l96.8,-55.88751l96.8,55.88751l-96.8,55.88751z" fill="#ffffff"/><path d="M648.4,-221.37506v111.77501l-96.8,55.88751v-111.77501z" fill="#000000"/></g><g><path d="M648.4,-221.37506l96.8,-55.88751l96.8,55.88751v111.77501l-96.8,55.88751l-96.8,-55.88751z" fill="#000000"/><path d="M648.4,-221.37506l96.8,-55.88751l96.8,55.88751l-96.8,55.88751z" fill="#ffffff"/><path d="M842,-221.37506v111.77501l-96.8,55.88751v-111.77501z" fill="#000000"/></g><g><path d="M842,-221.37506l96.8,-55.88751l96.8,55.88751v111.77501l-96.8,55.88751l-96.8,-55.88751z" fill="#000000"/><path d="M842,-221.37506l96.8,-55.88751l96.8,55.88751l-96.8,55.88751z" fill="#ffffff"/><path d="M1035.6,-221.37506v111.77501l-96.8,55.88751v-111.77501z" fill="#000000"/></g><g><path d="M1035.6,-221.37506l96.8,-55.88751l96.8,55.88751v111.77501l-96.8,55.88751l-96.8,-55.88751z" fill="#000000"/><path d="M1035.6,-221.37506l96.8,-55.88751l96.8,55.88751l-96.8,55.88751z" fill="#ffffff"/><path d="M1229.2,-221.37506v111.77501l-96.8,55.88751v-111.77501z" fill="#000000"/></g><g><path d="M-29.2,-53.71254l96.8,-55.88751l96.8,55.88751v111.77501l-96.8,55.88751l-96.8,-55.88751z" fill="#bd70c9"/><path d="M-29.2,-53.71254l96.8,-55.88751l96.8,55.88751l-96.8,55.88751z" fill="#ffa8ff"/><path d="M164.4,-53.71254v111.77501l-96.8,55.88751v-111.77501z" fill="#5e3864"/></g><g><path d="M164.4,-53.71254l96.8,-55.88751l96.8,55.88751v111.77501l-96.8,55.88751l-96.8,-55.88751z" fill="#cf6cda"/><path d="M164.4,-53.71254l96.8,-55.88751l96.8,55.88751l-96.8,55.88751z" fill="#ffa2ff"/><path d="M358,-53.71254v111.77501l-96.8,55.88751v-111.77501z" fill="#67366d"/></g><g><path d="M358,-53.71254l96.8,-55.88751l96.8,55.88751v111.77501l-96.8,55.88751l-96.8,-55.88751z" fill="#c781dc"/><path d="M358,-53.71254l96.8,-55.88751l96.8,55.88751l-96.8,55.88751z" fill="#ffc1ff"/><path d="M551.6,-53.71254v111.77501l-96.8,55.88751v-111.77501z" fill="#63406e"/></g><g><path d="M551.6,-53.71254l96.8,-55.88751l96.8,55.88751v111.77501l-96.8,55.88751l-96.8,-55.88751z" fill="#ce7ed7"/><path d="M551.6,-53.71254l96.8,-55.88751l96.8,55.88751l-96.8,55.88751z" fill="#ffbdff"/><path d="M745.2,-53.71254v111.77501l-96.8,55.88751v-111.77501z" fill="#673f6c"/></g><g><path d="M745.2,-53.71254l96.8,-55.88751l96.8,55.88751v111.77501l-96.8,55.88751l-96.8,-55.88751z" fill="#c986da"/><path d="M745.2,-53.71254l96.8,-55.88751l96.8,55.88751l-96.8,55.88751z" fill="#ffcaff"/><path d="M938.8,-53.71254v111.77501l-96.8,55.88751v-111.77501z" fill="#64436d"/></g><g><path d="M938.8,-53.71254l96.8,-55.88751l96.8,55.88751v111.77501l-96.8,55.88751l-96.8,-55.88751z" fill="#c28ecf"/><path d="M938.8,-53.71254l96.8,-55.88751l96.8,55.88751l-96.8,55.88751z" fill="#ffd6ff"/><path d="M1132.4,-53.71254v111.77501l-96.8,55.88751v-111.77501z" fill="#614768"/></g><g><path d="M1132.4,-53.71254l96.8,-55.88751l96.8,55.88751v111.77501l-96.8,55.88751l-96.8,-55.88751z" fill="#b39dc8"/><path d="M1132.4,-53.71254l96.8,-55.88751l96.8,55.88751l-96.8,55.88751z" fill="#ffebff"/><path d="M1326,-53.71254v111.77501l-96.8,55.88751v-111.77501z" fill="#5a4e64"/></g><g><path d="M-126,113.94998l96.8,-55.88751l96.8,55.88751v111.77501l-96.8,55.88751l-96.8,-55.88751z" fill="#5781b4"/><path d="M-126,113.94998l96.8,-55.88751l96.8,55.88751l-96.8,55.88751z" fill="#83c2ff"/><path d="M67.6,113.94998v111.77501l-96.8,55.88751v-111.77501z" fill="#2c415a"/></g><g><path d="M67.6,113.94998l96.8,-55.88751l96.8,55.88751v111.77501l-96.8,55.88751l-96.8,-55.88751z" fill="#a167d1"/><path d="M67.6,113.94998l96.8,-55.88751l96.8,55.88751l-96.8,55.88751z" fill="#f19aff"/><path d="M261.2,113.94998v111.77501l-96.8,55.88751v-111.77501z" fill="#503369"/></g><g><path d="M261.2,113.94998l96.8,-55.88751l96.8,55.88751v111.77501l-96.8,55.88751l-96.8,-55.88751z" fill="#997ee6"/><path d="M261.2,113.94998l96.8,-55.88751l96.8,55.88751l-96.8,55.88751z" fill="#e6bdff"/><path d="M454.8,113.94998v111.77501l-96.8,55.88751v-111.77501z" fill="#4d3f73"/></g><g><path d="M454.8,113.94998l96.8,-55.88751l96.8,55.88751v111.77501l-96.8,55.88751l-96.8,-55.88751z" fill="#9581eb"/><path d="M454.8,113.94998l96.8,-55.88751l96.8,55.88751l-96.8,55.88751z" fill="#e0c1ff"/><path d="M648.4,113.94998v111.77501l-96.8,55.88751v-111.77501z" fill="#4b4075"/></g><g><path d="M648.4,113.94998l96.8,-55.88751l96.8,55.88751v111.77501l-96.8,55.88751l-96.8,-55.88751z" fill="#b56cd9"/><path d="M648.4,113.94998l96.8,-55.88751l96.8,55.88751l-96.8,55.88751z" fill="#ffa2ff"/><path d="M842,113.94998v111.77501l-96.8,55.88751v-111.77501z" fill="#5a366c"/></g><g><path d="M842,113.94998l96.8,-55.88751l96.8,55.88751v111.77501l-96.8,55.88751l-96.8,-55.88751z" fill="#b070d5"/><path d="M842,113.94998l96.8,-55.88751l96.8,55.88751l-96.8,55.88751z" fill="#ffa8ff"/><path d="M1035.6,113.94998v111.77501l-96.8,55.88751v-111.77501z" fill="#58386b"/></g><g><path d="M1035.6,113.94998l96.8,-55.88751l96.8,55.88751v111.77501l-96.8,55.88751l-96.8,-55.88751z" fill="#a27fd3"/><path d="M1035.6,113.94998l96.8,-55.88751l96.8,55.88751l-96.8,55.88751z" fill="#f3bfff"/><path d="M1229.2,113.94998v111.77501l-96.8,55.88751v-111.77501z" fill="#514069"/></g><g><path d="M-29.2,281.61249l96.8,-55.88751l96.8,55.88751v111.77501l-96.8,55.88751l-96.8,-55.88751z" fill="#739ced"/><path d="M-29.2,281.61249l96.8,-55.88751l96.8,55.88751l-96.8,55.88751z" fill="#adeaff"/><path d="M164.4,281.61249v111.77501l-96.8,55.88751v-111.77501z" fill="#3a4e77"/></g><g><path d="M164.4,281.61249l96.8,-55.88751l96.8,55.88751v111.77501l-96.8,55.88751l-96.8,-55.88751z" fill="#5fb6fa"/><path d="M164.4,281.61249l96.8,-55.88751l96.8,55.88751l-96.8,55.88751z" fill="#8fffff"/><path d="M358,281.61249v111.77501l-96.8,55.88751v-111.77501z" fill="#305b7d"/></g><g><path d="M358,281.61249l96.8,-55.88751l96.8,55.88751v111.77501l-96.8,55.88751l-96.8,-55.88751z" fill="#62b8fa"/><path d="M358,281.61249l96.8,-55.88751l96.8,55.88751l-96.8,55.88751z" fill="#92ffff"/><path d="M551.6,281.61249v111.77501l-96.8,55.88751v-111.77501z" fill="#315c7d"/></g><g><path d="M551.6,281.61249l96.8,-55.88751l96.8,55.88751v111.77501l-96.8,55.88751l-96.8,-55.88751z" fill="#8595e6"/><path d="M551.6,281.61249l96.8,-55.88751l96.8,55.88751l-96.8,55.88751z" fill="#c8dfff"/><path d="M745.2,281.61249v111.77501l-96.8,55.88751v-111.77501z" fill="#434a73"/></g><g><path d="M745.2,281.61249l96.8,-55.88751l96.8,55.88751v111.77501l-96.8,55.88751l-96.8,-55.88751z" fill="#998dd7"/><path d="M745.2,281.61249l96.8,-55.88751l96.8,55.88751l-96.8,55.88751z" fill="#e6d4ff"/><path d="M938.8,281.61249v111.77501l-96.8,55.88751v-111.77501z" fill="#4d476c"/></g><g><path d="M938.8,281.61249l96.8,-55.88751l96.8,55.88751v111.77501l-96.8,55.88751l-96.8,-55.88751z" fill="#9b91de"/><path d="M938.8,281.61249l96.8,-55.88751l96.8,55.88751l-96.8,55.88751z" fill="#e8d9ff"/><path d="M1132.4,281.61249v111.77501l-96.8,55.88751v-111.77501z" fill="#4d486f"/></g><g><path d="M1132.4,281.61249l96.8,-55.88751l96.8,55.88751v111.77501l-96.8,55.88751l-96.8,-55.88751z" fill="#9f90e6"/><path d="M1132.4,281.61249l96.8,-55.88751l96.8,55.88751l-96.8,55.88751z" fill="#efd8ff"/><path d="M1326,281.61249v111.77501l-96.8,55.88751v-111.77501z" fill="#504873"/></g><g><path d="M-126,449.27501l96.8,-55.88751l96.8,55.88751v111.77501l-96.8,55.88751l-96.8,-55.88751z" fill="#316871"/><path d="M-126,449.27501l96.8,-55.88751l96.8,55.88751l-96.8,55.88751z" fill="#499ca9"/><path d="M67.6,449.27501v111.77501l-96.8,55.88751v-111.77501z" fill="#183438"/></g><g><path d="M67.6,449.27501l96.8,-55.88751l96.8,55.88751v111.77501l-96.8,55.88751l-96.8,-55.88751z" fill="#2be1eb"/><path d="M67.6,449.27501l96.8,-55.88751l96.8,55.88751l-96.8,55.88751z" fill="#41ffff"/><path d="M261.2,449.27501v111.77501l-96.8,55.88751v-111.77501z" fill="#167076"/></g><g><path d="M261.2,449.27501l96.8,-55.88751l96.8,55.88751v111.77501l-96.8,55.88751l-96.8,-55.88751z" fill="#24eef2"/><path d="M261.2,449.27501l96.8,-55.88751l96.8,55.88751l-96.8,55.88751z" fill="#37ffff"/><path d="M454.8,449.27501v111.77501l-96.8,55.88751v-111.77501z" fill="#127779"/></g><g><path d="M454.8,449.27501l96.8,-55.88751l96.8,55.88751v111.77501l-96.8,55.88751l-96.8,-55.88751z" fill="#45bed0"/><path d="M454.8,449.27501l96.8,-55.88751l96.8,55.88751l-96.8,55.88751z" fill="#67ffff"/><path d="M648.4,449.27501v111.77501l-96.8,55.88751v-111.77501z" fill="#225f68"/></g><g><path d="M648.4,449.27501l96.8,-55.88751l96.8,55.88751v111.77501l-96.8,55.88751l-96.8,-55.88751z" fill="#44d8f4"/><path d="M648.4,449.27501l96.8,-55.88751l96.8,55.88751l-96.8,55.88751z" fill="#65ffff"/><path d="M842,449.27501v111.77501l-96.8,55.88751v-111.77501z" fill="#226c7a"/></g><g><path d="M842,449.27501l96.8,-55.88751l96.8,55.88751v111.77501l-96.8,55.88751l-96.8,-55.88751z" fill="#3ddae8"/><path d="M842,449.27501l96.8,-55.88751l96.8,55.88751l-96.8,55.88751z" fill="#5bffff"/><path d="M1035.6,449.27501v111.77501l-96.8,55.88751v-111.77501z" fill="#1e6d74"/></g><g><path d="M1035.6,449.27501l96.8,-55.88751l96.8,55.88751v111.77501l-96.8,55.88751l-96.8,-55.88751z" fill="#42d0db"/><path d="M1035.6,449.27501l96.8,-55.88751l96.8,55.88751l-96.8,55.88751z" fill="#63ffff"/><path d="M1229.2,449.27501v111.77501l-96.8,55.88751v-111.77501z" fill="#21686e"/></g><g><path d="M-29.2,616.93753l96.8,-55.88751l96.8,55.88751v111.77501l-96.8,55.88751l-96.8,-55.88751z" fill="#776ec7"/><path d="M-29.2,616.93753l96.8,-55.88751l96.8,55.88751l-96.8,55.88751z" fill="#b2a5ff"/><path d="M164.4,616.93753v111.77501l-96.8,55.88751v-111.77501z" fill="#3b3764"/></g><g><path d="M164.4,616.93753l96.8,-55.88751l96.8,55.88751v111.77501l-96.8,55.88751l-96.8,-55.88751z" fill="#7d58b0"/><path d="M164.4,616.93753l96.8,-55.88751l96.8,55.88751l-96.8,55.88751z" fill="#bc84ff"/><path d="M358,616.93753v111.77501l-96.8,55.88751v-111.77501z" fill="#3f2c58"/></g><g><path d="M358,616.93753l96.8,-55.88751l96.8,55.88751v111.77501l-96.8,55.88751l-96.8,-55.88751z" fill="#3cb8d2"/><path d="M358,616.93753l96.8,-55.88751l96.8,55.88751l-96.8,55.88751z" fill="#5bffff"/><path d="M551.6,616.93753v111.77501l-96.8,55.88751v-111.77501z" fill="#1e5c69"/></g><g><path d="M551.6,616.93753l96.8,-55.88751l96.8,55.88751v111.77501l-96.8,55.88751l-96.8,-55.88751z" fill="#7383d7"/><path d="M551.6,616.93753l96.8,-55.88751l96.8,55.88751l-96.8,55.88751z" fill="#adc5ff"/><path d="M745.2,616.93753v111.77501l-96.8,55.88751v-111.77501z" fill="#3a426c"/></g><g><path d="M745.2,616.93753l96.8,-55.88751l96.8,55.88751v111.77501l-96.8,55.88751l-96.8,-55.88751z" fill="#5d9dd9"/><path d="M745.2,616.93753l96.8,-55.88751l96.8,55.88751l-96.8,55.88751z" fill="#8bebff"/><path d="M938.8,616.93753v111.77501l-96.8,55.88751v-111.77501z" fill="#2e4e6c"/></g><g><path d="M938.8,616.93753l96.8,-55.88751l96.8,55.88751v111.77501l-96.8,55.88751l-96.8,-55.88751z" fill="#7086d7"/><path d="M938.8,616.93753l96.8,-55.88751l96.8,55.88751l-96.8,55.88751z" fill="#a8caff"/><path d="M1132.4,616.93753v111.77501l-96.8,55.88751v-111.77501z" fill="#38436c"/></g><g><path d="M1132.4,616.93753l96.8,-55.88751l96.8,55.88751v111.77501l-96.8,55.88751l-96.8,-55.88751z" fill="#32cedd"/><path d="M1132.4,616.93753l96.8,-55.88751l96.8,55.88751l-96.8,55.88751z" fill="#4affff"/><path d="M1326,616.93753v111.77501l-96.8,55.88751v-111.77501z" fill="#19676e"/></g><g><path d="M-126,784.60005l96.8,-55.88751l96.8,55.88751v111.77501l-96.8,55.88751l-96.8,-55.88751z" fill="#000000"/><path d="M-126,784.60005l96.8,-55.88751l96.8,55.88751l-96.8,55.88751z" fill="#ffffff"/><path d="M67.6,784.60005v111.77501l-96.8,55.88751v-111.77501z" fill="#000000"/></g><g><path d="M67.6,784.60005l96.8,-55.88751l96.8,55.88751v111.77501l-96.8,55.88751l-96.8,-55.88751z" fill="#000000"/><path d="M67.6,784.60005l96.8,-55.88751l96.8,55.88751l-96.8,55.88751z" fill="#ffffff"/><path d="M261.2,784.60005v111.77501l-96.8,55.88751v-111.77501z" fill="#000000"/></g><g><path d="M261.2,784.60005l96.8,-55.88751l96.8,55.88751v111.77501l-96.8,55.88751l-96.8,-55.88751z" fill="#000000"/><path d="M261.2,784.60005l96.8,-55.88751l96.8,55.88751l-96.8,55.88751z" fill="#ffffff"/><path d="M454.8,784.60005v111.77501l-96.8,55.88751v-111.77501z" fill="#000000"/></g><g><path d="M454.8,784.60005l96.8,-55.88751l96.8,55.88751v111.77501l-96.8,55.88751l-96.8,-55.88751z" fill="#000000"/><path d="M454.8,784.60005l96.8,-55.88751l96.8,55.88751l-96.8,55.88751z" fill="#ffffff"/><path d="M648.4,784.60005v111.77501l-96.8,55.88751v-111.77501z" fill="#000000"/></g><g><path d="M648.4,784.60005l96.8,-55.88751l96.8,55.88751v111.77501l-96.8,55.88751l-96.8,-55.88751z" fill="#000000"/><path d="M648.4,784.60005l96.8,-55.88751l96.8,55.88751l-96.8,55.88751z" fill="#ffffff"/><path d="M842,784.60005v111.77501l-96.8,55.88751v-111.77501z" fill="#000000"/></g><g><path d="M842,784.60005l96.8,-55.88751l96.8,55.88751v111.77501l-96.8,55.88751l-96.8,-55.88751z" fill="#000000"/><path d="M842,784.60005l96.8,-55.88751l96.8,55.88751l-96.8,55.88751z" fill="#ffffff"/><path d="M1035.6,784.60005v111.77501l-96.8,55.88751v-111.77501z" fill="#000000"/></g><g><path d="M1035.6,784.60005l96.8,-55.88751l96.8,55.88751v111.77501l-96.8,55.88751l-96.8,-55.88751z" fill="#000000"/><path d="M1035.6,784.60005l96.8,-55.88751l96.8,55.88751l-96.8,55.88751z" fill="#ffffff"/><path d="M1229.2,784.60005v111.77501l-96.8,55.88751v-111.77501z" fill="#000000"/></g></g></g></svg>