<svg version="1.1" xmlns="http://www.w3.org/2000/svg" xmlns:xlink="http://www.w3.org/1999/xlink" width="1200" height="675" viewBox="0,0,1200,675"><g fill="none" fill-rule="nonzero" stroke="none" stroke-width="1" stroke-linecap="butt" stroke-linejoin="miter" stroke-miterlimit="10" stroke-dasharray="" stroke-dashoffset="0" font-family="none" font-weight="none" font-size="none" text-anchor="none" style="mix-blend-mode: normal"><g><g><path d="M-126,-252.42368l53.77778,-31.04861l53.77778,31.04861v62.09723l-53.77778,31.04861l-53.77778,-31.04861z" fill="#000000"/><path d="M-126,-252.42368l53.77778,-31.04861l53.77778,31.04861l-53.77778,31.04861z" fill="#ffffff"/><path d="M-18.44444,-252.42368v62.09723l-53.77778,31.04861v-62.09723z" fill="#000000"/></g><g><path d="M-18.44444,-252.42368l53.77778,-31.04861l53.77778,31.04861v62.09723l-53.77778,31.04861l-53.77778,-31.04861z" fill="#000000"/><path d="M-18.44444,-252.42368l53.77778,-31.04861l53.77778,31.04861l-53.77778,31.04861z" fill="#ffffff"/><path d="M89.11111,-252.42368v62.09723l-53.77778,31.04861v-62.09723z" fill="#000000"/></g><g><path d="M89.11111,-252.42368l53.77778,-31.04861l53.77778,31.04861v62.09723l-53.77778,31.04861l-53.77778,-31.04861z" fill="#000000"/><path d="M89.11111,-252.42368l53.77778,-31.04861l53.77778,31.04861l-53.77778,31.04861z" fill="#ffffff"/><path d="M196.66667,-252.42368v62.09723l-53.77778,31.04861v-62.09723z" fill="#000000"/></g><g><path d="M196.66667,-252.42368l53.77778,-31.04861l53.77778,31.04861v62.09723l-53.77778,31.04861l-53.77778,-31.04861z" fill="#000000"/><path d="M196.66667,-252.42368l53.77778,-31.04861l53.77778,31.04861l-53.77778,31.04861z" fill="#ffffff"/><path d="M304.22222,-252.42368v62.09723l-53.77778,31.04861v-62.09723z" fill="#000000"/></g><g><path d="M304.22222,-252.42368l53.77778,-31.04861l53.77778,31.04861v62.09723l-53.77778,31.04861l-53.77778,-31.04861z" fill="#000000"/><path d="M304.22222,-252.42368l53.77778,-31.04861l53.77778,31.04861l-53.77778,31.04861z" fill="#ffffff"/><path d="M411.77778,-252.42368v62.09723l-53.77778,31.04861v-62.09723z" fill="#000000"/></g><g><path d="M411.77778,-252.42368l53.77778,-31.04861l53.77778,31.04861v62.09723l-53.77778,31.04861l-53.77778,-31.04861z" fill="#000000"/><path d="M411.77778,-252.42368l53.77778,-31.04861l53.77778,31.04861l-53.77778,31.04861z" fill="#ffffff"/><path d="M519.33333,-252.42368v62.09723l-53.77778,31.04861v-62.09723z" fill="#000000"/></g><g><path d="M519.33333,-252.42368l53.77778,-31.04861l53.77778,31.04861v62.09723l-53.77778,31.04861l-53.77778,-31.04861z" fill="#000000"/><path d="M519.33333,-252.42368l53.77778,-31.04861l53.77778,31.04861l-53.77778,31.04861z" fill="#ffffff"/><path d="M626.88889,-252.42368v62.09723l-53.77778,31.04861v-62.09723z" fill="#000000"/></g><g><path d="M626.88889,-252.42368l53.77778,-31.04861l53.77778,31.04861v62.09723l-53.77778,31.04861l-53.77778,-31.04861z" fill="#000000"/><path d="M626.88889,-252.42368l53.77778,-31.04861l53.77778,31.04861l-53.77778,31.04861z" fill="#ffffff"/><path d="M734.44444,-252.42368v62.09723l-53.77778,31.04861v-62.09723z" fill="#000000"/></g><g><path d="M734.44444,-252.42368l53.77778,-31.04861l53.77778,31.04861v62.09723l-53.77778,31.04861l-53.77778,-31.04861z" fill="#000000"/><path d="M734.44444,-252.42368l53.77778,-31.04861l53.77778,31.04861l-53.77778,31.04861z" fill="#ffffff"/><path d="M842,-252.42368v62.09723l-53.77778,31.04861v-62.09723z" fill="#000000"/></g><g><path d="M842,-252.42368l53.77778,-31.04861l53.77778,31.04861v62.09723l-53.77778,31.04861l-53.77778,-31.04861z" fill="#000000"/><path d="M842,-252.42368l53.77778,-31.04861l53.77778,31.04861l-53.77778,31.04861z" fill="#ffffff"/><path d="M949.55556,-252.42368v62.09723l-53.77778,31.04861v-62.09723z" fill="#000000"/></g><g><path d="M949.55556,-252.42368l53.77778,-31.04861l53.77778,31.04861v62.09723l-53.77778,31.04861l-53.77778,-31.04861z" fill="#000000"/><path d="M949.55556,-252.42368l53.77778,-31.04861l53.77778,31.04861l-53.77778,31.04861z" fill="#ffffff"/><path d="M1057.11111,-252.42368v62.09723l-53.77778,31.04861v-62.09723z" fill="#000000"/></g><g><path d="M1057.11111,-252.42368l53.77778,-31.04861l53.77778,31.04861v62.09723l-53.77778,31.04861l-53.77778,-31.04861z" fill="#000000"/><path d="M1057.11111,-252.42368l53.77778,-31.04861l53.77778,31.04861l-53.77778,31.04861z" fill="#ffffff"/><path d="M1164.66667,-252.42368v62.09723l-53.77778,31.04861v-62.09723z" fill="#000000"/></g><g><path d="M1164.66667,-252.42368l53.77778,-31.04861l53.77778,31.04861v62.09723l-53.77778,31.04861l-53.77778,-31.04861z" fill="#000000"/><path d="M1164.66667,-252.42368l53.77778,-31.04861l53.77778,31.04861l-53.77778,31.04861z" fill="#ffffff"/><path d="M1272.22222,-252.42368v62.09723l-53.77778,31.04861v-62.09723z" fill="#000000"/></g><g><path d="M-72.22222,-159.27783l53.77778,-31.04861l53.77778,31.04861v62.09723l-53.77778,31.04861l-53.77778,-31.04861z" fill="#000000"/><path d="M-72.22222,-159.27783l53.77778,-31.04861l53.77778,31.04861l-53.77778,31.04861z" fill="#ffffff"/><path d="M35.33333,-159.27783v62.09723l-53.77778,31.04861v-62.09723z" fill="#000000"/></g><g><path d="M35.33333,-159.27783l53.77778,-31.04861l53.77778,31.04861v62.09723l-53.77778,31.04861l-53.77778,-31.04861z" fill="#000000"/><path d="M35.33333,-159.27783l53.77778,-31.04861l53.77778,31.04861l-53.77778,31.04861z" fill="#ffffff"/><path d="M142.88889,-159.27783v62.09723l-53.77778,31.04861v-62.09723z" fill="#000000"/></g><g><path d="M142.88889,-159.27783l53.77778,-31.04861l53.77778,31.04861v62.09723l-53.77778,31.04861l-53.77778,-31.04861z" fill="#000000"/><path d="M142.88889,-159.27783l53.77778,-31.04861l53.77778,31.04861l-53.77778,31.04861z" fill="#ffffff"/><path d="M250.44444,-159.27783v62.09723l-53.77778,31.04861v-62.09723z" fill="#000000"/></g><g><path d="M250.44444,-159.27783l53.77778,-31.04861l53.77778,31.04861v62.09723l-53.77778,31.04861l-53.77778,-31.04861z" fill="#000000"/><path d="M250.44444,-159.27783l53.77778,-31.04861l53.77778,31.04861l-53.77778,31.04861z" fill="#ffffff"/><path d="M358,-159.27783v62.09723l-53.77778,31.04861v-62.09723z" fill="#000000"/></g><g><path d="M358,-159.27783l53.77778,-31.04861l53.77778,31.04861v62.09723l-53.77778,31.04861l-53.77778,-31.04861z" fill="#000000"/><path d="M358,-159.27783l53.77778,-31.04861l53.77778,31.04861l-53.77778,31.04861z" fill="#ffffff"/><path d="M465.55556,-159.27783v62.09723l-53.77778,31.04861v-62.09723z" fill="#000000"/></g><g><path d="M465.55556,-159.27783l53.77778,-31.04861l53.77778,31.04861v62.09723l-53.77778,31.04861l-53.77778,-31.04861z" fill="#000000"/><path d="M465.55556,-159.27783l53.77778,-31.04861l53.77778,31.04861l-53.77778,31.04861z" fill="#ffffff"/><path d="M573.11111,-159.27783v62.09723l-53.77778,31.04861v-62.09723z" fill="#000000"/></g><g><path d="M573.11111,-159.27783l53.77778,-31.04861l53.77778,31.04861v62.09723l-53.77778,31.04861l-53.77778,-31.04861z" fill="#000000"/><path d="M573.11111,-159.27783l53.77778,-31.04861l53.77778,31.04861l-53.77778,31.04861z" fill="#ffffff"/><path d="M680.66667,-159.27783v62.09723l-53.77778,31.04861v-62.09723z" fill="#000000"/></g><g><path d="M680.66667,-159.27783l53.77778,-31.04861l53.77778,31.04861v62.09723l-53.77778,31.04861l-53.77778,-31.04861z" fill="#000000"/><path d="M680.66667,-159.27783l53.77778,-31.04861l53.77778,31.04861l-53.77778,31.04861z" fill="#ffffff"/><path d="M788.22222,-159.27783v62.09723l-53.77778,31.04861v-62.09723z" fill="#000000"/></g><g><path d="M788.22222,-159.27783l53.77778,-31.04861l53.77778,31.04861v62.09723l-53.77778,31.04861l-53.77778,-31.04861z" fill="#000000"/><path d="M788.22222,-159.27783l53.77778,-31.04861l53.77778,31.04861l-53.77778,31.04861z" fill="#ffffff"/><path d="M895.77778,-159.27783v62.09723l-53.77778,31.04861v-62.09723z" fill="#000000"/></g><g><path d="M895.77778,-159.27783l53.77778,-31.04861l53.77778,31.04861v62.09723l-53.77778,31.04861l-53.77778,-31.04861z" fill="#000000"/><path d="M895.77778,-159.27783l53.77778,-31.04861l53.77778,31.04861l-53.77778,31.04861z" fill="#ffffff"/><path d="M1003.33333,-159.27783v62.09723l-53.77778,31.04861v-62.09723z" fill="#000000"/></g><g><path d="M1003.33333,-159.27783l53.77778,-31.04861l53.77778,31.04861v62.09723l-53.77778,31.04861l-53.77778,-31.04861z" fill="#000000"/><path d="M1003.33333,-159.27783l53.77778,-31.04861l53.77778,31.04861l-53.77778,31.04861z" fill="#ffffff"/><path d="M1110.88889,-159.27783v62.09723l-53.77778,31.04861v-62.09723z" fill="#000000"/></g><g><path d="M1110.88889,-159.27783l53.77778,-31.04861l53.77778,31.04861v62.09723l-53.77778,31.04861l-53.77778,-31.04861z" fill="#000000"/><path d="M1110.88889,-159.27783l53.77778,-31.04861l53.77778,31.04861l-53.77778,31.04861z" fill="#ffffff"/><path d="M1218.44444,-159.27783v62.09723l-53.77778,31.04861v-62.09723z" fill="#000000"/></g><g><path d="M1218.44444,-159.27783l53.77778,-31.04861l53.77778,31.04861v62.09723l-53.77778,31.04861l-53.77778,-31.04861z" fill="#000000"/><path d="M1218.44444,-159.27783l53.77778,-31.04861l53.77778,31.04861l-53.77778,31.04861z" fill="#ffffff"/><path d="M1326,-159.27783v62.09723l-53.77778,31.04861v-62.09723z" fill="#000000"/></g><g><path d="M-126,-66.13199l53.77778,-31.04861l53.77778,31.04861v62.09723l-53.77778,31.04861l-53.77778,-31.04861z" fill="#534854"/><path d="M-126,-66.13199l53.77778,-31.04861l53.77778,31.04861l-53.77778,31.04861z" fill="#7d6b7d"/><path d="M-18.44444,-66.13199v62.09723l-53.77778,31.04861v-62.09723z" fill="#2a242a"/></g><g><path d="M-18.44444,-66.13199l53.77778,-31.04861l53.77778,31.04861v62.09723l-53.77778,31.04861l-53.77778,-31.04861z" fill="#a0acb5"/><path d="M-18.44444,-66.13199l53.77778,-31.04861l53.77778,31.04861l-53.77778,31.04861z" fill="#efffff"/><path d="M89.11111,-66.13199v62.09723l-53.77778,31.04861v-62.09723z" fill="#50565a"/></g><g><path d="M89.11111,-66.13199l53.77778,-31.04861l53.77778,31.04861v62.09723l-53.77778,31.04861l-53.77778,-31.04861z" fill="#a2afb5"/><path d="M89.11111,-66.13199l53.77778,-31.04861l53.77778,31.04861l-53.77778,31.04861z" fill="#f3ffff"/><path d="M196.66667,-66.13199v62.09723l-53.77778,31.04861v-62.09723z" fill="#51575b"/></g><g><path d="M196.66667,-66.13199l53.77778,-31.04861l53.77778,31.04861v62.09723l-53.77778,31.04861l-53.77778,-31.04861z" fill="#aaa4b5"/><path d="M196.66667,-66.13199l53.77778,-31.04861l53.77778,31.04861l-53.77778,31.04861z" fill="#fff7ff"/><path d="M304.22222,-66.13199v62.09723l-53.77778,31.04861v-62.09723z" fill="#55525a"/></g><g><path d="M304.22222,-66.13199l53.77778,-31.04861l53.77778,31.04861v62.09723l-53.77778,31.04861l-53.77778,-31.04861z" fill="#ab9cab"/><path d="M304.22222,-66.13199l53.77778,-31.04861l53.77778,31.04861l-53.77778,31.04861z" fill="#ffeaff"/><path d="M411.77778,-66.13199v62.09723l-53.77778,31.04861v-62.09723z" fill="#554e55"/></g><g><path d="M411.77778,-66.13199l53.77778,-31.04861l53.77778,31.04861v62.09723l-53.77778,31.04861l-53.77778,-31.04861z" fill="#a79da7"/><path d="M411.77778,-66.13199l53.77778,-31.04861l53.77778,31.04861l-53.77778,31.04861z" fill="#fbecfb"/><path d="M519.33333,-66.13199v62.09723l-53.77778,31.04861v-62.09723z" fill="#544f54"/></g><g><path d="M519.33333,-66.13199l53.77778,-31.04861l53.77778,31.04861v62.09723l-53.77778,31.04861l-53.77778,-31.04861z" fill="#a69ea6"/><path d="M519.33333,-66.13199l53.77778,-31.04861l53.77778,31.04861l-53.77778,31.04861z" fill="#f9eef9"/><path d="M626.88889,-66.13199v62.09723l-53.77778,31.04861v-62.09723z" fill="#534f53"/></g><g><path d="M626.88889,-66.13199l53.77778,-31.04861l53.77778,31.04861v62.09723l-53.77778,31.04861l-53.77778,-31.04861z" fill="#a1a1a1"/><path d="M626.88889,-66.13199l53.77778,-31.04861l53.77778,31.04861l-53.77778,31.04861z" fill="#f1f1f1"/><path d="M734.44444,-66.13199v62.09723l-53.77778,31.04861v-62.09723z" fill="#505050"/></g><g><path d="M734.44444,-66.13199l53.77778,-31.04861l53.77778,31.04861v62.09723l-53.77778,31.04861l-53.77778,-31.04861z" fill="#a1a1a1"/><path d="M734.44444,-66.13199l53.77778,-31.04861l53.77778,31.04861l-53.77778,31.04861z" fill="#f1f1f1"/><path d="M842,-66.13199v62.09723l-53.77778,31.04861v-62.09723z" fill="#505050"/></g><g><path d="M842,-66.13199l53.77778,-31.04861l53.77778,31.04861v62.09723l-53.77778,31.04861l-53.77778,-31.04861z" fill="#a1a1a1"/><path d="M842,-66.13199l53.77778,-31.04861l53.77778,31.04861l-53.77778,31.04861z" fill="#f1f1f1"/><path d="M949.55556,-66.13199v62.09723l-53.77778,31.04861v-62.09723z" fill="#505050"/></g><g><path d="M949.55556,-66.13199l53.77778,-31.04861l53.77778,31.04861v62.09723l-53.77778,31.04861l-53.77778,-31.04861z" fill="#a1a1a1"/><path d="M949.55556,-66.13199l53.77778,-31.04861l53.77778,31.04861l-53.77778,31.04861z" fill="#f1f1f1"/><path d="M1057.11111,-66.13199v62.09723l-53.77778,31.04861v-62.09723z" fill="#505050"/></g><g><path d="M1057.11111,-66.13199l53.77778,-31.04861l53.77778,31.04861v62.09723l-53.77778,31.04861l-53.77778,-31.04861z" fill="#a1a1a1"/><path d="M1057.11111,-66.13199l53.77778,-31.04861l53.77778,31.04861l-53.77778,31.04861z" fill="#f1f1f1"/><path d="M1164.66667,-66.13199v62.09723l-53.77778,31.04861v-62.09723z" fill="#505050"/></g><g><path d="M1164.66667,-66.13199l53.77778,-31.04861l53.77778,31.04861v62.09723l-53.77778,31.04861l-53.77778,-31.04861z" fill="#a1a1a1"/><path d="M1164.66667,-66.13199l53.77778,-31.04861l53.77778,31.04861l-53.77778,31.04861z" fill="#f1f1f1"/><path d="M1272.22222,-66.13199v62.09723l-53.77778,31.04861v-62.09723z" fill="#505050"/></g><g><path d="M-72.22222,27.01386l53.77778,-31.04861l53.77778,31.04861v62.09723l-53.77778,31.04861l-53.77778,-31.04861z" fill="#a244a2"/><path d="M-72.22222,27.01386l53.77778,-31.04861l53.77778,31.04861l-53.77778,31.04861z" fill="#f366f3"/><path d="M35.33333,27.01386v62.09723l-53.77778,31.04861v-62.09723z" fill="#512251"/></g><g><path d="M35.33333,27.01386l53.77778,-31.04861l53.77778,31.04861v62.09723l-53.77778,31.04861l-53.77778,-31.04861z" fill="#db62db"/><path d="M35.33333,27.01386l53.77778,-31.04861l53.77778,31.04861l-53.77778,31.04861z" fill="#ff93ff"/><path d="M142.88889,27.01386v62.09723l-53.77778,31.04861v-62.09723z" fill="#6d316d"/></g><g><path d="M142.88889,27.01386l53.77778,-31.04861l53.77778,31.04861v62.09723l-53.77778,31.04861l-53.77778,-31.04861z" fill="#de55e6"/><path d="M142.88889,27.01386l53.77778,-31.04861l53.77778,31.04861l-53.77778,31.04861z" fill="#ff80ff"/><path d="M250.44444,27.01386v62.09723l-53.77778,31.04861v-62.09723z" fill="#6f2b73"/></g><g><path d="M250.44444,27.01386l53.77778,-31.04861l53.77778,31.04861v62.09723l-53.77778,31.04861l-53.77778,-31.04861z" fill="#df5adf"/><path d="M250.44444,27.01386l53.77778,-31.04861l53.77778,31.04861l-53.77778,31.04861z" fill="#ff87ff"/><path d="M358,27.01386v62.09723l-53.77778,31.04861v-62.09723z" fill="#6f2d6f"/></g><g><path d="M358,27.01386l53.77778,-31.04861l53.77778,31.04861v62.09723l-53.77778,31.04861l-53.77778,-31.04861z" fill="#dc5edc"/><path d="M358,27.01386l53.77778,-31.04861l53.77778,31.04861l-53.77778,31.04861z" fill="#ff8eff"/><path d="M465.55556,27.01386v62.09723l-53.77778,31.04861v-62.09723z" fill="#6e2f6e"/></g><g><path d="M465.55556,27.01386l53.77778,-31.04861l53.77778,31.04861v62.09723l-53.77778,31.04861l-53.77778,-31.04861z" fill="#da60da"/><path d="M465.55556,27.01386l53.77778,-31.04861l53.77778,31.04861l-53.77778,31.04861z" fill="#ff90ff"/><path d="M573.11111,27.01386v62.09723l-53.77778,31.04861v-62.09723z" fill="#6d306d"/></g><g><path d="M573.11111,27.01386l53.77778,-31.04861l53.77778,31.04861v62.09723l-53.77778,31.04861l-53.77778,-31.04861z" fill="#d75dd7"/><path d="M573.11111,27.01386l53.77778,-31.04861l53.77778,31.04861l-53.77778,31.04861z" fill="#ff8bff"/><path d="M680.66667,27.01386v62.09723l-53.77778,31.04861v-62.09723z" fill="#6b2e6b"/></g><g><path d="M680.66667,27.01386l53.77778,-31.04861l53.77778,31.04861v62.09723l-53.77778,31.04861l-53.77778,-31.04861z" fill="#c274c2"/><path d="M680.66667,27.01386l53.77778,-31.04861l53.77778,31.04861l-53.77778,31.04861z" fill="#ffaeff"/><path d="M788.22222,27.01386v62.09723l-53.77778,31.04861v-62.09723z" fill="#613a61"/></g><g><path d="M788.22222,27.01386l53.77778,-31.04861l53.77778,31.04861v62.09723l-53.77778,31.04861l-53.77778,-31.04861z" fill="#d650d6"/><path d="M788.22222,27.01386l53.77778,-31.04861l53.77778,31.04861l-53.77778,31.04861z" fill="#ff78ff"/><path d="M895.77778,27.01386v62.09723l-53.77778,31.04861v-62.09723z" fill="#6b286b"/></g><g><path d="M895.77778,27.01386l53.77778,-31.04861l53.77778,31.04861v62.09723l-53.77778,31.04861l-53.77778,-31.04861z" fill="#c762c7"/><path d="M895.77778,27.01386l53.77778,-31.04861l53.77778,31.04861l-53.77778,31.04861z" fill="#ff93ff"/><path d="M1003.33333,27.01386v62.09723l-53.77778,31.04861v-62.09723z" fill="#643164"/></g><g><path d="M1003.33333,27.01386l53.77778,-31.04861l53.77778,31.04861v62.09723l-53.77778,31.04861l-53.77778,-31.04861z" fill="#cb61cc"/><path d="M1003.33333,27.01386l53.77778,-31.04861l53.77778,31.04861l-53.77778,31.04861z" fill="#ff91ff"/><path d="M1110.88889,27.01386v62.09723l-53.77778,31.04861v-62.09723z" fill="#653066"/></g><g><path d="M1110.88889,27.01386l53.77778,-31.04861l53.77778,31.04861v62.09723l-53.77778,31.04861l-53.77778,-31.04861z" fill="#d45fd4"/><path d="M1110.88889,27.01386l53.77778,-31.04861l53.77778,31.04861l-53.77778,31.04861z" fill="#ff8fff"/><path d="M1218.44444,27.01386v62.09723l-53.77778,31.04861v-62.09723z" fill="#6a306a"/></g><g><path d="M1218.44444,27.01386l53.77778,-31.04861l53.77778,31.04861v62.09723l-53.77778,31.04861l-53.77778,-31.04861z" fill="#c55ac5"/><path d="M1218.44444,27.01386l53.77778,-31.04861l53.77778,31.04861l-53.77778,31.04861z" fill="#ff88ff"/><path d="M1326,27.01386v62.09723l-53.77778,31.04861v-62.09723z" fill="#622d62"/></g><g><path d="M-126,120.1597l53.77778,-31.04861l53.77778,31.04861v62.09723l-53.77778,31.04861l-53.77778,-31.04861z" fill="#3a394c"/><path d="M-126,120.1597l53.77778,-31.04861l53.77778,31.04861l-53.77778,31.04861z" fill="#565673"/><path d="M-18.44444,120.1597v62.09723l-53.77778,31.04861v-62.09723z" fill="#1d1d26"/></g><g><path d="M-18.44444,120.1597l53.77778,-31.04861l53.77778,31.04861v62.09723l-53.77778,31.04861l-53.77778,-31.04861z" fill="#6f9fd7"/><path d="M-18.44444,120.1597l53.77778,-31.04861l53.77778,31.04861l-53.77778,31.04861z" fill="#a7eeff"/><path d="M89.11111,120.1597v62.09723l-53.77778,31.04861v-62.09723z" fill="#384f6b"/></g><g><path d="M89.11111,120.1597l53.77778,-31.04861l53.77778,31.04861v62.09723l-53.77778,31.04861l-53.77778,-31.04861z" fill="#8693dd"/><path d="M89.11111,120.1597l53.77778,-31.04861l53.77778,31.04861l-53.77778,31.04861z" fill="#c9ddff"/><path d="M196.66667,120.1597v62.09723l-53.77778,31.04861v-62.09723z" fill="#434a6e"/></g><g><path d="M196.66667,120.1597l53.77778,-31.04861l53.77778,31.04861v62.09723l-53.77778,31.04861l-53.77778,-31.04861z" fill="#928ade"/><path d="M196.66667,120.1597l53.77778,-31.04861l53.77778,31.04861l-53.77778,31.04861z" fill="#dbceff"/><path d="M304.22222,120.1597v62.09723l-53.77778,31.04861v-62.09723z" fill="#49456f"/></g><g><path d="M304.22222,120.1597l53.77778,-31.04861l53.77778,31.04861v62.09723l-53.77778,31.04861l-53.77778,-31.04861z" fill="#ae6dd5"/><path d="M304.22222,120.1597l53.77778,-31.04861l53.77778,31.04861l-53.77778,31.04861z" fill="#ffa3ff"/><path d="M411.77778,120.1597v62.09723l-53.77778,31.04861v-62.09723z" fill="#57366a"/></g><g><path d="M411.77778,120.1597l53.77778,-31.04861l53.77778,31.04861v62.09723l-53.77778,31.04861l-53.77778,-31.04861z" fill="#b369cf"/><path d="M411.77778,120.1597l53.77778,-31.04861l53.77778,31.04861l-53.77778,31.04861z" fill="#ff9dff"/><path d="M519.33333,120.1597v62.09723l-53.77778,31.04861v-62.09723z" fill="#593468"/></g><g><path d="M519.33333,120.1597l53.77778,-31.04861l53.77778,31.04861v62.09723l-53.77778,31.04861l-53.77778,-31.04861z" fill="#ac6fd0"/><path d="M519.33333,120.1597l53.77778,-31.04861l53.77778,31.04861l-53.77778,31.04861z" fill="#ffa6ff"/><path d="M626.88889,120.1597v62.09723l-53.77778,31.04861v-62.09723z" fill="#563768"/></g><g><path d="M626.88889,120.1597l53.77778,-31.04861l53.77778,31.04861v62.09723l-53.77778,31.04861l-53.77778,-31.04861z" fill="#ad70dd"/><path d="M626.88889,120.1597l53.77778,-31.04861l53.77778,31.04861l-53.77778,31.04861z" fill="#ffa8ff"/><path d="M734.44444,120.1597v62.09723l-53.77778,31.04861v-62.09723z" fill="#56386f"/></g><g><path d="M734.44444,120.1597l53.77778,-31.04861l53.77778,31.04861v62.09723l-53.77778,31.04861l-53.77778,-31.04861z" fill="#ac71e9"/><path d="M734.44444,120.1597l53.77778,-31.04861l53.77778,31.04861l-53.77778,31.04861z" fill="#ffa9ff"/><path d="M842,120.1597v62.09723l-53.77778,31.04861v-62.09723z" fill="#563874"/></g><g><path d="M842,120.1597l53.77778,-31.04861l53.77778,31.04861v62.09723l-53.77778,31.04861l-53.77778,-31.04861z" fill="#b065d4"/><path d="M842,120.1597l53.77778,-31.04861l53.77778,31.04861l-53.77778,31.04861z" fill="#ff97ff"/><path d="M949.55556,120.1597v62.09723l-53.77778,31.04861v-62.09723z" fill="#58326a"/></g><g><path d="M949.55556,120.1597l53.77778,-31.04861l53.77778,31.04861v62.09723l-53.77778,31.04861l-53.77778,-31.04861z" fill="#878cdd"/><path d="M949.55556,120.1597l53.77778,-31.04861l53.77778,31.04861l-53.77778,31.04861z" fill="#cad2ff"/><path d="M1057.11111,120.1597v62.09723l-53.77778,31.04861v-62.09723z" fill="#43466e"/></g><g><path d="M1057.11111,120.1597l53.77778,-31.04861l53.77778,31.04861v62.09723l-53.77778,31.04861l-53.77778,-31.04861z" fill="#bd62bd"/><path d="M1057.11111,120.1597l53.77778,-31.04861l53.77778,31.04861l-53.77778,31.04861z" fill="#ff93ff"/><path d="M1164.66667,120.1597v62.09723l-53.77778,31.04861v-62.09723z" fill="#5e315e"/></g><g><path d="M1164.66667,120.1597l53.77778,-31.04861l53.77778,31.04861v62.09723l-53.77778,31.04861l-53.77778,-31.04861z" fill="#b764b7"/><path d="M1164.66667,120.1597l53.77778,-31.04861l53.77778,31.04861l-53.77778,31.04861z" fill="#ff96ff"/><path d="M1272.22222,120.1597v62.09723l-53.77778,31.04861v-62.09723z" fill="#5c325c"/></g><g><path d="M-72.22222,213.30554l53.77778,-31.04861l53.77778,31.04861v62.09723l-53.77778,31.04861l-53.77778,-31.04861z" fill="#5a6380"/><path d="M-72.22222,213.30554l53.77778,-31.04861l53.77778,31.04861l-53.77778,31.04861z" fill="#8895c0"/><path d="M35.33333,213.30554v62.09723l-53.77778,31.04861v-62.09723z" fill="#2d3240"/></g><g><path d="M35.33333,213.30554l53.77778,-31.04861l53.77778,31.04861v62.09723l-53.77778,31.04861l-53.77778,-31.04861z" fill="#9183e3"/><path d="M35.33333,213.30554l53.77778,-31.04861l53.77778,31.04861l-53.77778,31.04861z" fill="#d9c5ff"/><path d="M142.88889,213.30554v62.09723l-53.77778,31.04861v-62.09723z" fill="#484271"/></g><g><path d="M142.88889,213.30554l53.77778,-31.04861l53.77778,31.04861v62.09723l-53.77778,31.04861l-53.77778,-31.04861z" fill="#6fa7e5"/><path d="M142.88889,213.30554l53.77778,-31.04861l53.77778,31.04861l-53.77778,31.04861z" fill="#a7fbff"/><path d="M250.44444,213.30554v62.09723l-53.77778,31.04861v-62.09723z" fill="#385473"/></g><g><path d="M250.44444,213.30554l53.77778,-31.04861l53.77778,31.04861v62.09723l-53.77778,31.04861l-53.77778,-31.04861z" fill="#8b7fdc"/><path d="M250.44444,213.30554l53.77778,-31.04861l53.77778,31.04861l-53.77778,31.04861z" fill="#d1bfff"/><path d="M358,213.30554v62.09723l-53.77778,31.04861v-62.09723z" fill="#46406e"/></g><g><path d="M358,213.30554l53.77778,-31.04861l53.77778,31.04861v62.09723l-53.77778,31.04861l-53.77778,-31.04861z" fill="#58b0dd"/><path d="M358,213.30554l53.77778,-31.04861l53.77778,31.04861l-53.77778,31.04861z" fill="#85ffff"/><path d="M465.55556,213.30554v62.09723l-53.77778,31.04861v-62.09723z" fill="#2c586e"/></g><g><path d="M465.55556,213.30554l53.77778,-31.04861l53.77778,31.04861v62.09723l-53.77778,31.04861l-53.77778,-31.04861z" fill="#807c8a"/><path d="M465.55556,213.30554l53.77778,-31.04861l53.77778,31.04861l-53.77778,31.04861z" fill="#bfb9d0"/><path d="M573.11111,213.30554v62.09723l-53.77778,31.04861v-62.09723z" fill="#403e45"/></g><g><path d="M573.11111,213.30554l53.77778,-31.04861l53.77778,31.04861v62.09723l-53.77778,31.04861l-53.77778,-31.04861z" fill="#6c92c5"/><path d="M573.11111,213.30554l53.77778,-31.04861l53.77778,31.04861l-53.77778,31.04861z" fill="#a2dbff"/><path d="M680.66667,213.30554v62.09723l-53.77778,31.04861v-62.09723z" fill="#364963"/></g><g><path d="M680.66667,213.30554l53.77778,-31.04861l53.77778,31.04861v62.09723l-53.77778,31.04861l-53.77778,-31.04861z" fill="#5ea2c5"/><path d="M680.66667,213.30554l53.77778,-31.04861l53.77778,31.04861l-53.77778,31.04861z" fill="#8df2ff"/><path d="M788.22222,213.30554v62.09723l-53.77778,31.04861v-62.09723z" fill="#2f5163"/></g><g><path d="M788.22222,213.30554l53.77778,-31.04861l53.77778,31.04861v62.09723l-53.77778,31.04861l-53.77778,-31.04861z" fill="#7091cc"/><path d="M788.22222,213.30554l53.77778,-31.04861l53.77778,31.04861l-53.77778,31.04861z" fill="#a7d9ff"/><path d="M895.77778,213.30554v62.09723l-53.77778,31.04861v-62.09723z" fill="#384866"/></g><g><path d="M895.77778,213.30554l53.77778,-31.04861l53.77778,31.04861v62.09723l-53.77778,31.04861l-53.77778,-31.04861z" fill="#6c8f9d"/><path d="M895.77778,213.30554l53.77778,-31.04861l53.77778,31.04861l-53.77778,31.04861z" fill="#a2d6ec"/><path d="M1003.33333,213.30554v62.09723l-53.77778,31.04861v-62.09723z" fill="#36474f"/></g><g><path d="M1003.33333,213.30554l53.77778,-31.04861l53.77778,31.04861v62.09723l-53.77778,31.04861l-53.77778,-31.04861z" fill="#609fa7"/><path d="M1003.33333,213.30554l53.77778,-31.04861l53.77778,31.04861l-53.77778,31.04861z" fill="#90effa"/><path d="M1110.88889,213.30554v62.09723l-53.77778,31.04861v-62.09723z" fill="#305053"/></g><g><path d="M1110.88889,213.30554l53.77778,-31.04861l53.77778,31.04861v62.09723l-53.77778,31.04861l-53.77778,-31.04861z" fill="#7c7d82"/><path d="M1110.88889,213.30554l53.77778,-31.04861l53.77778,31.04861l-53.77778,31.04861z" fill="#b9bbc3"/><path d="M1218.44444,213.30554v62.09723l-53.77778,31.04861v-62.09723z" fill="#3e3e41"/></g><g><path d="M1218.44444,213.30554l53.77778,-31.04861l53.77778,31.04861v62.09723l-53.77778,31.04861l-53.77778,-31.04861z" fill="#5fcece"/><path d="M1218.44444,213.30554l53.77778,-31.04861l53.77778,31.04861l-53.77778,31.04861z" fill="#8effff"/><path d="M1326,213.30554v62.09723l-53.77778,31.04861v-62.09723z" fill="#2f6767"/></g><g><path d="M-126,306.45139l53.77778,-31.04861l53.77778,31.04861v62.09723l-53.77778,31.04861l-53.77778,-31.04861z" fill="#184e50"/><path d="M-126,306.45139l53.77778,-31.04861l53.77778,31.04861l-53.77778,31.04861z" fill="#237578"/><path d="M-18.44444,306.45139v62.09723l-53.77778,31.04861v-62.09723z" fill="#0c2728"/></g><g><path d="M-18.44444,306.45139l53.77778,-31.04861l53.77778,31.04861v62.09723l-53.77778,31.04861l-53.77778,-31.04861z" fill="#6e9df0"/><path d="M-18.44444,306.45139l53.77778,-31.04861l53.77778,31.04861l-53.77778,31.04861z" fill="#a4ebff"/><path d="M89.11111,306.45139v62.09723l-53.77778,31.04861v-62.09723z" fill="#374e78"/></g><g><path d="M89.11111,306.45139l53.77778,-31.04861l53.77778,31.04861v62.09723l-53.77778,31.04861l-53.77778,-31.04861z" fill="#878efa"/><path d="M89.11111,306.45139l53.77778,-31.04861l53.77778,31.04861l-53.77778,31.04861z" fill="#cbd5ff"/><path d="M196.66667,306.45139v62.09723l-53.77778,31.04861v-62.09723z" fill="#44477d"/></g><g><path d="M196.66667,306.45139l53.77778,-31.04861l53.77778,31.04861v62.09723l-53.77778,31.04861l-53.77778,-31.04861z" fill="#7f94fd"/><path d="M196.66667,306.45139l53.77778,-31.04861l53.77778,31.04861l-53.77778,31.04861z" fill="#bfdeff"/><path d="M304.22222,306.45139v62.09723l-53.77778,31.04861v-62.09723z" fill="#404a7e"/></g><g><path d="M304.22222,306.45139l53.77778,-31.04861l53.77778,31.04861v62.09723l-53.77778,31.04861l-53.77778,-31.04861z" fill="#8a82ea"/><path d="M304.22222,306.45139l53.77778,-31.04861l53.77778,31.04861l-53.77778,31.04861z" fill="#cfc3ff"/><path d="M411.77778,306.45139v62.09723l-53.77778,31.04861v-62.09723z" fill="#454175"/></g><g><path d="M411.77778,306.45139l53.77778,-31.04861l53.77778,31.04861v62.09723l-53.77778,31.04861l-53.77778,-31.04861z" fill="#9584fc"/><path d="M411.77778,306.45139l53.77778,-31.04861l53.77778,31.04861l-53.77778,31.04861z" fill="#e0c7ff"/><path d="M519.33333,306.45139v62.09723l-53.77778,31.04861v-62.09723z" fill="#4b427e"/></g><g><path d="M519.33333,306.45139l53.77778,-31.04861l53.77778,31.04861v62.09723l-53.77778,31.04861l-53.77778,-31.04861z" fill="#6ea2f9"/><path d="M519.33333,306.45139l53.77778,-31.04861l53.77778,31.04861l-53.77778,31.04861z" fill="#a5f3ff"/><path d="M626.88889,306.45139v62.09723l-53.77778,31.04861v-62.09723z" fill="#37517c"/></g><g><path d="M626.88889,306.45139l53.77778,-31.04861l53.77778,31.04861v62.09723l-53.77778,31.04861l-53.77778,-31.04861z" fill="#63a7f0"/><path d="M626.88889,306.45139l53.77778,-31.04861l53.77778,31.04861l-53.77778,31.04861z" fill="#95faff"/><path d="M734.44444,306.45139v62.09723l-53.77778,31.04861v-62.09723z" fill="#325378"/></g><g><path d="M734.44444,306.45139l53.77778,-31.04861l53.77778,31.04861v62.09723l-53.77778,31.04861l-53.77778,-31.04861z" fill="#8787f4"/><path d="M734.44444,306.45139l53.77778,-31.04861l53.77778,31.04861l-53.77778,31.04861z" fill="#cbcbff"/><path d="M842,306.45139v62.09723l-53.77778,31.04861v-62.09723z" fill="#44447a"/></g><g><path d="M842,306.45139l53.77778,-31.04861l53.77778,31.04861v62.09723l-53.77778,31.04861l-53.77778,-31.04861z" fill="#6aa2f4"/><path d="M842,306.45139l53.77778,-31.04861l53.77778,31.04861l-53.77778,31.04861z" fill="#a0f4ff"/><path d="M949.55556,306.45139v62.09723l-53.77778,31.04861v-62.09723z" fill="#35517a"/></g><g><path d="M949.55556,306.45139l53.77778,-31.04861l53.77778,31.04861v62.09723l-53.77778,31.04861l-53.77778,-31.04861z" fill="#5fb1f8"/><path d="M949.55556,306.45139l53.77778,-31.04861l53.77778,31.04861l-53.77778,31.04861z" fill="#8effff"/><path d="M1057.11111,306.45139v62.09723l-53.77778,31.04861v-62.09723z" fill="#2f587c"/></g><g><path d="M1057.11111,306.45139l53.77778,-31.04861l53.77778,31.04861v62.09723l-53.77778,31.04861l-53.77778,-31.04861z" fill="#b46bd9"/><path d="M1057.11111,306.45139l53.77778,-31.04861l53.77778,31.04861l-53.77778,31.04861z" fill="#ffa1ff"/><path d="M1164.66667,306.45139v62.09723l-53.77778,31.04861v-62.09723z" fill="#5a366d"/></g><g><path d="M1164.66667,306.45139l53.77778,-31.04861l53.77778,31.04861v62.09723l-53.77778,31.04861l-53.77778,-31.04861z" fill="#a682e2"/><path d="M1164.66667,306.45139l53.77778,-31.04861l53.77778,31.04861l-53.77778,31.04861z" fill="#fac3ff"/><path d="M1272.22222,306.45139v62.09723l-53.77778,31.04861v-62.09723z" fill="#534171"/></g><g><path d="M-72.22222,399.59723l53.77778,-31.04861l53.77778,31.04861v62.09723l-53.77778,31.04861l-53.77778,-31.04861z" fill="#4c535b"/><path d="M-72.22222,399.59723l53.77778,-31.04861l53.77778,31.04861l-53.77778,31.04861z" fill="#737d89"/><path d="M35.33333,399.59723v62.09723l-53.77778,31.04861v-62.09723z" fill="#262a2e"/></g><g><path d="M35.33333,399.59723l53.77778,-31.04861l53.77778,31.04861v62.09723l-53.77778,31.04861l-53.77778,-31.04861z" fill="#63e5f8"/><path d="M35.33333,399.59723l53.77778,-31.04861l53.77778,31.04861l-53.77778,31.04861z" fill="#95ffff"/><path d="M142.88889,399.59723v62.09723l-53.77778,31.04861v-62.09723z" fill="#32737c"/></g><g><path d="M142.88889,399.59723l53.77778,-31.04861l53.77778,31.04861v62.09723l-53.77778,31.04861l-53.77778,-31.04861z" fill="#61e4e9"/><path d="M142.88889,399.59723l53.77778,-31.04861l53.77778,31.04861l-53.77778,31.04861z" fill="#91ffff"/><path d="M250.44444,399.59723v62.09723l-53.77778,31.04861v-62.09723z" fill="#307275"/></g><g><path d="M250.44444,399.59723l53.77778,-31.04861l53.77778,31.04861v62.09723l-53.77778,31.04861l-53.77778,-31.04861z" fill="#75c3de"/><path d="M250.44444,399.59723l53.77778,-31.04861l53.77778,31.04861l-53.77778,31.04861z" fill="#afffff"/><path d="M358,399.59723v62.09723l-53.77778,31.04861v-62.09723z" fill="#3a616f"/></g><g><path d="M358,399.59723l53.77778,-31.04861l53.77778,31.04861v62.09723l-53.77778,31.04861l-53.77778,-31.04861z" fill="#5bf8ff"/><path d="M358,399.59723l53.77778,-31.04861l53.77778,31.04861l-53.77778,31.04861z" fill="#89ffff"/><path d="M465.55556,399.59723v62.09723l-53.77778,31.04861v-62.09723z" fill="#2e7c7f"/></g><g><path d="M465.55556,399.59723l53.77778,-31.04861l53.77778,31.04861v62.09723l-53.77778,31.04861l-53.77778,-31.04861z" fill="#62ced4"/><path d="M465.55556,399.59723l53.77778,-31.04861l53.77778,31.04861l-53.77778,31.04861z" fill="#93ffff"/><path d="M573.11111,399.59723v62.09723l-53.77778,31.04861v-62.09723z" fill="#31676a"/></g><g><path d="M573.11111,399.59723l53.77778,-31.04861l53.77778,31.04861v62.09723l-53.77778,31.04861l-53.77778,-31.04861z" fill="#5df9ff"/><path d="M573.11111,399.59723l53.77778,-31.04861l53.77778,31.04861l-53.77778,31.04861z" fill="#8bffff"/><path d="M680.66667,399.59723v62.09723l-53.77778,31.04861v-62.09723z" fill="#2e7c7f"/></g><g><path d="M680.66667,399.59723l53.77778,-31.04861l53.77778,31.04861v62.09723l-53.77778,31.04861l-53.77778,-31.04861z" fill="#75d9ff"/><path d="M680.66667,399.59723l53.77778,-31.04861l53.77778,31.04861l-53.77778,31.04861z" fill="#afffff"/><path d="M788.22222,399.59723v62.09723l-53.77778,31.04861v-62.09723z" fill="#3a6d7f"/></g><g><path d="M788.22222,399.59723l53.77778,-31.04861l53.77778,31.04861v62.09723l-53.77778,31.04861l-53.77778,-31.04861z" fill="#68cbda"/><path d="M788.22222,399.59723l53.77778,-31.04861l53.77778,31.04861l-53.77778,31.04861z" fill="#9dffff"/><path d="M895.77778,399.59723v62.09723l-53.77778,31.04861v-62.09723z" fill="#34656d"/></g><g><path d="M895.77778,399.59723l53.77778,-31.04861l53.77778,31.04861v62.09723l-53.77778,31.04861l-53.77778,-31.04861z" fill="#61eff6"/><path d="M895.77778,399.59723l53.77778,-31.04861l53.77778,31.04861l-53.77778,31.04861z" fill="#92ffff"/><path d="M1003.33333,399.59723v62.09723l-53.77778,31.04861v-62.09723z" fill="#31787b"/></g><g><path d="M1003.33333,399.59723l53.77778,-31.04861l53.77778,31.04861v62.09723l-53.77778,31.04861l-53.77778,-31.04861z" fill="#5cf9ff"/><path d="M1003.33333,399.59723l53.77778,-31.04861l53.77778,31.04861l-53.77778,31.04861z" fill="#8affff"/><path d="M1110.88889,399.59723v62.09723l-53.77778,31.04861v-62.09723z" fill="#2e7d80"/></g><g><path d="M1110.88889,399.59723l53.77778,-31.04861l53.77778,31.04861v62.09723l-53.77778,31.04861l-53.77778,-31.04861z" fill="#60dee5"/><path d="M1110.88889,399.59723l53.77778,-31.04861l53.77778,31.04861l-53.77778,31.04861z" fill="#90ffff"/><path d="M1218.44444,399.59723v62.09723l-53.77778,31.04861v-62.09723z" fill="#306f73"/></g><g><path d="M1218.44444,399.59723l53.77778,-31.04861l53.77778,31.04861v62.09723l-53.77778,31.04861l-53.77778,-31.04861z" fill="#4effff"/><path d="M1218.44444,399.59723l53.77778,-31.04861l53.77778,31.04861l-53.77778,31.04861z" fill="#75ffff"/><path d="M1326,399.59723v62.09723l-53.77778,31.04861v-62.09723z" fill="#278080"/></g><g><path d="M-126,492.74307l53.77778,-31.04861l53.77778,31.04861v62.09723l-53.77778,31.04861l-53.77778,-31.04861z" fill="#202020"/><path d="M-126,492.74307l53.77778,-31.04861l53.77778,31.04861l-53.77778,31.04861z" fill="#303030"/><path d="M-18.44444,492.74307v62.09723l-53.77778,31.04861v-62.09723z" fill="#101010"/></g><g><path d="M-18.44444,492.74307l53.77778,-31.04861l53.77778,31.04861v62.09723l-53.77778,31.04861l-53.77778,-31.04861z" fill="#9787db"/><path d="M-18.44444,492.74307l53.77778,-31.04861l53.77778,31.04861l-53.77778,31.04861z" fill="#e2caff"/><path d="M89.11111,492.74307v62.09723l-53.77778,31.04861v-62.09723z" fill="#4b436d"/></g><g><path d="M89.11111,492.74307l53.77778,-31.04861l53.77778,31.04861v62.09723l-53.77778,31.04861l-53.77778,-31.04861z" fill="#91b5ff"/><path d="M89.11111,492.74307l53.77778,-31.04861l53.77778,31.04861l-53.77778,31.04861z" fill="#d9ffff"/><path d="M196.66667,492.74307v62.09723l-53.77778,31.04861v-62.09723z" fill="#485b7f"/></g><g><path d="M196.66667,492.74307l53.77778,-31.04861l53.77778,31.04861v62.09723l-53.77778,31.04861l-53.77778,-31.04861z" fill="#9da3fc"/><path d="M196.66667,492.74307l53.77778,-31.04861l53.77778,31.04861l-53.77778,31.04861z" fill="#ebf5ff"/><path d="M304.22222,492.74307v62.09723l-53.77778,31.04861v-62.09723z" fill="#4e527e"/></g><g><path d="M304.22222,492.74307l53.77778,-31.04861l53.77778,31.04861v62.09723l-53.77778,31.04861l-53.77778,-31.04861z" fill="#a78ff9"/><path d="M304.22222,492.74307l53.77778,-31.04861l53.77778,31.04861l-53.77778,31.04861z" fill="#fbd7ff"/><path d="M411.77778,492.74307v62.09723l-53.77778,31.04861v-62.09723z" fill="#54487d"/></g><g><path d="M411.77778,492.74307l53.77778,-31.04861l53.77778,31.04861v62.09723l-53.77778,31.04861l-53.77778,-31.04861z" fill="#90aef3"/><path d="M411.77778,492.74307l53.77778,-31.04861l53.77778,31.04861l-53.77778,31.04861z" fill="#d8ffff"/><path d="M519.33333,492.74307v62.09723l-53.77778,31.04861v-62.09723z" fill="#485779"/></g><g><path d="M519.33333,492.74307l53.77778,-31.04861l53.77778,31.04861v62.09723l-53.77778,31.04861l-53.77778,-31.04861z" fill="#95abf4"/><path d="M519.33333,492.74307l53.77778,-31.04861l53.77778,31.04861l-53.77778,31.04861z" fill="#e0ffff"/><path d="M626.88889,492.74307v62.09723l-53.77778,31.04861v-62.09723z" fill="#4b557a"/></g><g><path d="M626.88889,492.74307l53.77778,-31.04861l53.77778,31.04861v62.09723l-53.77778,31.04861l-53.77778,-31.04861z" fill="#99acff"/><path d="M626.88889,492.74307l53.77778,-31.04861l53.77778,31.04861l-53.77778,31.04861z" fill="#e6ffff"/><path d="M734.44444,492.74307v62.09723l-53.77778,31.04861v-62.09723z" fill="#4d567f"/></g><g><path d="M734.44444,492.74307l53.77778,-31.04861l53.77778,31.04861v62.09723l-53.77778,31.04861l-53.77778,-31.04861z" fill="#8eb7fb"/><path d="M734.44444,492.74307l53.77778,-31.04861l53.77778,31.04861l-53.77778,31.04861z" fill="#d4ffff"/><path d="M842,492.74307v62.09723l-53.77778,31.04861v-62.09723z" fill="#475b7d"/></g><g><path d="M842,492.74307l53.77778,-31.04861l53.77778,31.04861v62.09723l-53.77778,31.04861l-53.77778,-31.04861z" fill="#8eabe7"/><path d="M842,492.74307l53.77778,-31.04861l53.77778,31.04861l-53.77778,31.04861z" fill="#d6ffff"/><path d="M949.55556,492.74307v62.09723l-53.77778,31.04861v-62.09723z" fill="#475674"/></g><g><path d="M949.55556,492.74307l53.77778,-31.04861l53.77778,31.04861v62.09723l-53.77778,31.04861l-53.77778,-31.04861z" fill="#87c5fe"/><path d="M949.55556,492.74307l53.77778,-31.04861l53.77778,31.04861l-53.77778,31.04861z" fill="#caffff"/><path d="M1057.11111,492.74307v62.09723l-53.77778,31.04861v-62.09723z" fill="#43637f"/></g><g><path d="M1057.11111,492.74307l53.77778,-31.04861l53.77778,31.04861v62.09723l-53.77778,31.04861l-53.77778,-31.04861z" fill="#7fd2f9"/><path d="M1057.11111,492.74307l53.77778,-31.04861l53.77778,31.04861l-53.77778,31.04861z" fill="#bfffff"/><path d="M1164.66667,492.74307v62.09723l-53.77778,31.04861v-62.09723z" fill="#40697d"/></g><g><path d="M1164.66667,492.74307l53.77778,-31.04861l53.77778,31.04861v62.09723l-53.77778,31.04861l-53.77778,-31.04861z" fill="#79b9da"/><path d="M1164.66667,492.74307l53.77778,-31.04861l53.77778,31.04861l-53.77778,31.04861z" fill="#b5ffff"/><path d="M1272.22222,492.74307v62.09723l-53.77778,31.04861v-62.09723z" fill="#3c5c6d"/></g><g><path d="M-72.22222,585.88892l53.77778,-31.04861l53.77778,31.04861v62.09723l-53.77778,31.04861l-53.77778,-31.04861z" fill="#635192"/><path d="M-72.22222,585.88892l53.77778,-31.04861l53.77778,31.04861l-53.77778,31.04861z" fill="#9479da"/><path d="M35.33333,585.88892v62.09723l-53.77778,31.04861v-62.09723z" fill="#312849"/></g><g><path d="M35.33333,585.88892l53.77778,-31.04861l53.77778,31.04861v62.09723l-53.77778,31.04861l-53.77778,-31.04861z" fill="#ab6bf6"/><path d="M35.33333,585.88892l53.77778,-31.04861l53.77778,31.04861l-53.77778,31.04861z" fill="#ffa1ff"/><path d="M142.88889,585.88892v62.09723l-53.77778,31.04861v-62.09723z" fill="#55367b"/></g><g><path d="M142.88889,585.88892l53.77778,-31.04861l53.77778,31.04861v62.09723l-53.77778,31.04861l-53.77778,-31.04861z" fill="#a966df"/><path d="M142.88889,585.88892l53.77778,-31.04861l53.77778,31.04861l-53.77778,31.04861z" fill="#fe9aff"/><path d="M250.44444,585.88892v62.09723l-53.77778,31.04861v-62.09723z" fill="#55336f"/></g><g><path d="M250.44444,585.88892l53.77778,-31.04861l53.77778,31.04861v62.09723l-53.77778,31.04861l-53.77778,-31.04861z" fill="#a777f8"/><path d="M250.44444,585.88892l53.77778,-31.04861l53.77778,31.04861l-53.77778,31.04861z" fill="#fbb3ff"/><path d="M358,585.88892v62.09723l-53.77778,31.04861v-62.09723z" fill="#543c7c"/></g><g><path d="M358,585.88892l53.77778,-31.04861l53.77778,31.04861v62.09723l-53.77778,31.04861l-53.77778,-31.04861z" fill="#8c92ff"/><path d="M358,585.88892l53.77778,-31.04861l53.77778,31.04861l-53.77778,31.04861z" fill="#d2daff"/><path d="M465.55556,585.88892v62.09723l-53.77778,31.04861v-62.09723z" fill="#46497f"/></g><g><path d="M465.55556,585.88892l53.77778,-31.04861l53.77778,31.04861v62.09723l-53.77778,31.04861l-53.77778,-31.04861z" fill="#919ef8"/><path d="M465.55556,585.88892l53.77778,-31.04861l53.77778,31.04861l-53.77778,31.04861z" fill="#d9edff"/><path d="M573.11111,585.88892v62.09723l-53.77778,31.04861v-62.09723z" fill="#484f7c"/></g><g><path d="M573.11111,585.88892l53.77778,-31.04861l53.77778,31.04861v62.09723l-53.77778,31.04861l-53.77778,-31.04861z" fill="#a97afd"/><path d="M573.11111,585.88892l53.77778,-31.04861l53.77778,31.04861l-53.77778,31.04861z" fill="#feb8ff"/><path d="M680.66667,585.88892v62.09723l-53.77778,31.04861v-62.09723z" fill="#553d7e"/></g><g><path d="M680.66667,585.88892l53.77778,-31.04861l53.77778,31.04861v62.09723l-53.77778,31.04861l-53.77778,-31.04861z" fill="#9ea4fa"/><path d="M680.66667,585.88892l53.77778,-31.04861l53.77778,31.04861l-53.77778,31.04861z" fill="#edf7ff"/><path d="M788.22222,585.88892v62.09723l-53.77778,31.04861v-62.09723z" fill="#4f527d"/></g><g><path d="M788.22222,585.88892l53.77778,-31.04861l53.77778,31.04861v62.09723l-53.77778,31.04861l-53.77778,-31.04861z" fill="#96a8f4"/><path d="M788.22222,585.88892l53.77778,-31.04861l53.77778,31.04861l-53.77778,31.04861z" fill="#e1fdff"/><path d="M895.77778,585.88892v62.09723l-53.77778,31.04861v-62.09723z" fill="#4b547a"/></g><g><path d="M895.77778,585.88892l53.77778,-31.04861l53.77778,31.04861v62.09723l-53.77778,31.04861l-53.77778,-31.04861z" fill="#8bc4fd"/><path d="M895.77778,585.88892l53.77778,-31.04861l53.77778,31.04861l-53.77778,31.04861z" fill="#d0ffff"/><path d="M1003.33333,585.88892v62.09723l-53.77778,31.04861v-62.09723z" fill="#45627f"/></g><g><path d="M1003.33333,585.88892l53.77778,-31.04861l53.77778,31.04861v62.09723l-53.77778,31.04861l-53.77778,-31.04861z" fill="#85c7fd"/><path d="M1003.33333,585.88892l53.77778,-31.04861l53.77778,31.04861l-53.77778,31.04861z" fill="#c8ffff"/><path d="M1110.88889,585.88892v62.09723l-53.77778,31.04861v-62.09723z" fill="#43647f"/></g><g><path d="M1110.88889,585.88892l53.77778,-31.04861l53.77778,31.04861v62.09723l-53.77778,31.04861l-53.77778,-31.04861z" fill="#76cdf0"/><path d="M1110.88889,585.88892l53.77778,-31.04861l53.77778,31.04861l-53.77778,31.04861z" fill="#b1ffff"/><path d="M1218.44444,585.88892v62.09723l-53.77778,31.04861v-62.09723z" fill="#3b6678"/></g><g><path d="M1218.44444,585.88892l53.77778,-31.04861l53.77778,31.04861v62.09723l-53.77778,31.04861l-53.77778,-31.04861z" fill="#71d8ff"/><path d="M1218.44444,585.88892l53.77778,-31.04861l53.77778,31.04861l-53.77778,31.04861z" fill="#aaffff"/><path d="M1326,585.88892v62.09723l-53.77778,31.04861v-62.09723z" fill="#396c80"/></g><g><path d="M-126,679.03476l53.77778,-31.04861l53.77778,31.04861v62.09723l-53.77778,31.04861l-53.77778,-31.04861z" fill="#183f3f"/><path d="M-126,679.03476l53.77778,-31.04861l53.77778,31.04861l-53.77778,31.04861z" fill="#245e5e"/><path d="M-18.44444,679.03476v62.09723l-53.77778,31.04861v-62.09723z" fill="#0c1f1f"/></g><g><path d="M-18.44444,679.03476l53.77778,-31.04861l53.77778,31.04861v62.09723l-53.77778,31.04861l-53.77778,-31.04861z" fill="#59acd1"/><path d="M-18.44444,679.03476l53.77778,-31.04861l53.77778,31.04861l-53.77778,31.04861z" fill="#85ffff"/><path d="M89.11111,679.03476v62.09723l-53.77778,31.04861v-62.09723z" fill="#2c5669"/></g><g><path d="M89.11111,679.03476l53.77778,-31.04861l53.77778,31.04861v62.09723l-53.77778,31.04861l-53.77778,-31.04861z" fill="#698bc2"/><path d="M89.11111,679.03476l53.77778,-31.04861l53.77778,31.04861l-53.77778,31.04861z" fill="#9ed0ff"/><path d="M196.66667,679.03476v62.09723l-53.77778,31.04861v-62.09723z" fill="#354561"/></g><g><path d="M196.66667,679.03476l53.77778,-31.04861l53.77778,31.04861v62.09723l-53.77778,31.04861l-53.77778,-31.04861z" fill="#6584a1"/><path d="M196.66667,679.03476l53.77778,-31.04861l53.77778,31.04861l-53.77778,31.04861z" fill="#97c6f2"/><path d="M304.22222,679.03476v62.09723l-53.77778,31.04861v-62.09723z" fill="#324251"/></g><g><path d="M304.22222,679.03476l53.77778,-31.04861l53.77778,31.04861v62.09723l-53.77778,31.04861l-53.77778,-31.04861z" fill="#39c7d0"/><path d="M304.22222,679.03476l53.77778,-31.04861l53.77778,31.04861l-53.77778,31.04861z" fill="#56ffff"/><path d="M411.77778,679.03476v62.09723l-53.77778,31.04861v-62.09723z" fill="#1d6368"/></g><g><path d="M411.77778,679.03476l53.77778,-31.04861l53.77778,31.04861v62.09723l-53.77778,31.04861l-53.77778,-31.04861z" fill="#778bd9"/><path d="M411.77778,679.03476l53.77778,-31.04861l53.77778,31.04861l-53.77778,31.04861z" fill="#b3d1ff"/><path d="M519.33333,679.03476v62.09723l-53.77778,31.04861v-62.09723z" fill="#3c466c"/></g><g><path d="M519.33333,679.03476l53.77778,-31.04861l53.77778,31.04861v62.09723l-53.77778,31.04861l-53.77778,-31.04861z" fill="#49b9c9"/><path d="M519.33333,679.03476l53.77778,-31.04861l53.77778,31.04861l-53.77778,31.04861z" fill="#6dffff"/><path d="M626.88889,679.03476v62.09723l-53.77778,31.04861v-62.09723z" fill="#245c65"/></g><g><path d="M626.88889,679.03476l53.77778,-31.04861l53.77778,31.04861v62.09723l-53.77778,31.04861l-53.77778,-31.04861z" fill="#717791"/><path d="M626.88889,679.03476l53.77778,-31.04861l53.77778,31.04861l-53.77778,31.04861z" fill="#a9b2da"/><path d="M734.44444,679.03476v62.09723l-53.77778,31.04861v-62.09723z" fill="#383b49"/></g><g><path d="M734.44444,679.03476l53.77778,-31.04861l53.77778,31.04861v62.09723l-53.77778,31.04861l-53.77778,-31.04861z" fill="#5cacac"/><path d="M734.44444,679.03476l53.77778,-31.04861l53.77778,31.04861l-53.77778,31.04861z" fill="#89ffff"/><path d="M842,679.03476v62.09723l-53.77778,31.04861v-62.09723z" fill="#2e5656"/></g><g><path d="M842,679.03476l53.77778,-31.04861l53.77778,31.04861v62.09723l-53.77778,31.04861l-53.77778,-31.04861z" fill="#5faeae"/><path d="M842,679.03476l53.77778,-31.04861l53.77778,31.04861l-53.77778,31.04861z" fill="#8fffff"/><path d="M949.55556,679.03476v62.09723l-53.77778,31.04861v-62.09723z" fill="#305757"/></g><g><path d="M949.55556,679.03476l53.77778,-31.04861l53.77778,31.04861v62.09723l-53.77778,31.04861l-53.77778,-31.04861z" fill="#6e7373"/><path d="M949.55556,679.03476l53.77778,-31.04861l53.77778,31.04861l-53.77778,31.04861z" fill="#a5acac"/><path d="M1057.11111,679.03476v62.09723l-53.77778,31.04861v-62.09723z" fill="#373939"/></g><g><path d="M1057.11111,679.03476l53.77778,-31.04861l53.77778,31.04861v62.09723l-53.77778,31.04861l-53.77778,-31.04861z" fill="#5cadad"/><path d="M1057.11111,679.03476l53.77778,-31.04861l53.77778,31.04861l-53.77778,31.04861z" fill="#8affff"/><path d="M1164.66667,679.03476v62.09723l-53.77778,31.04861v-62.09723z" fill="#2e5757"/></g><g><path d="M1164.66667,679.03476l53.77778,-31.04861l53.77778,31.04861v62.09723l-53.77778,31.04861l-53.77778,-31.04861z" fill="#5db2b2"/><path d="M1164.66667,679.03476l53.77778,-31.04861l53.77778,31.04861l-53.77778,31.04861z" fill="#8bffff"/><path d="M1272.22222,679.03476v62.09723l-53.77778,31.04861v-62.09723z" fill="#2e5959"/></g><g><path d="M-72.22222,772.1806l53.77778,-31.04861l53.77778,31.04861v62.09723l-53.77778,31.04861l-53.77778,-31.04861z" fill="#000000"/><path d="M-72.22222,772.1806l53.77778,-31.04861l53.77778,31.04861l-53.77778,31.04861z" fill="#ffffff"/><path d="M35.33333,772.1806v62.09723l-53.77778,31.04861v-62.09723z" fill="#000000"/></g><g><path d="M35.33333,772.1806l53.77778,-31.04861l53.77778,31.04861v62.09723l-53.77778,31.04861l-53.77778,-31.04861z" fill="#000000"/><path d="M35.33333,772.1806l53.77778,-31.04861l53.77778,31.04861l-53.77778,31.04861z" fill="#ffffff"/><path d="M142.88889,772.1806v62.09723l-53.77778,31.04861v-62.09723z" fill="#000000"/></g><g><path d="M142.88889,772.1806l53.77778,-31.04861l53.77778,31.04861v62.09723l-53.77778,31.04861l-53.77778,-31.04861z" fill="#000000"/><path d="M142.88889,772.1806l53.77778,-31.04861l53.77778,31.04861l-53.77778,31.04861z" fill="#ffffff"/><path d="M250.44444,772.1806v62.09723l-53.77778,31.04861v-62.09723z" fill="#000000"/></g><g><path d="M250.44444,772.1806l53.77778,-31.04861l53.77778,31.04861v62.09723l-53.77778,31.04861l-53.77778,-31.04861z" fill="#000000"/><path d="M250.44444,772.1806l53.77778,-31.04861l53.77778,31.04861l-53.77778,31.04861z" fill="#ffffff"/><path d="M358,772.1806v62.09723l-53.77778,31.04861v-62.09723z" fill="#000000"/></g><g><path d="M358,772.1806l53.77778,-31.04861l53.77778,31.04861v62.09723l-53.77778,31.04861l-53.77778,-31.04861z" fill="#000000"/><path d="M358,772.1806l53.77778,-31.04861l53.77778,31.04861l-53.77778,31.04861z" fill="#ffffff"/><path d="M465.55556,772.1806v62.09723l-53.77778,31.04861v-62.09723z" fill="#000000"/></g><g><path d="M465.55556,772.1806l53.77778,-31.04861l53.77778,31.04861v62.09723l-53.77778,31.04861l-53.77778,-31.04861z" fill="#000000"/><path d="M465.55556,772.1806l53.77778,-31.04861l53.77778,31.04861l-53.77778,31.04861z" fill="#ffffff"/><path d="M573.11111,772.1806v62.09723l-53.77778,31.04861v-62.09723z" fill="#000000"/></g><g><path d="M573.11111,772.1806l53.77778,-31.04861l53.77778,31.04861v62.09723l-53.77778,31.04861l-53.77778,-31.04861z" fill="#000000"/><path d="M573.11111,772.1806l53.77778,-31.04861l53.77778,31.04861l-53.77778,31.04861z" fill="#ffffff"/><path d="M680.66667,772.1806v62.09723l-53.77778,31.04861v-62.09723z" fill="#000000"/></g><g><path d="M680.66667,772.1806l53.77778,-31.04861l53.77778,31.04861v62.09723l-53.77778,31.04861l-53.77778,-31.04861z" fill="#000000"/><path d="M680.66667,772.1806l53.77778,-31.04861l53.77778,31.04861l-53.77778,31.04861z" fill="#ffffff"/><path d="M788.22222,772.1806v62.09723l-53.77778,31.04861v-62.09723z" fill="#000000"/></g><g><path d="M788.22222,772.1806l53.77778,-31.04861l53.77778,31.04861v62.09723l-53.77778,31.04861l-53.77778,-31.04861z" fill="#000000"/><path d="M788.22222,772.1806l53.77778,-31.04861l53.77778,31.04861l-53.77778,31.04861z" fill="#ffffff"/><path d="M895.77778,772.1806v62.09723l-53.77778,31.04861v-62.09723z" fill="#000000"/></g><g><path d="M895.77778,772.1806l53.77778,-31.04861l53.77778,31.04861v62.09723l-53.77778,31.04861l-53.77778,-31.04861z" fill="#000000"/><path d="M895.77778,772.1806l53.77778,-31.04861l53.77778,31.04861l-53.77778,31.04861z" fill="#ffffff"/><path d="M1003.33333,772.1806v62.09723l-53.77778,31.04861v-62.09723z" fill="#000000"/></g><g><path d="M1003.33333,772.1806l53.77778,-31.04861l53.77778,31.04861v62.09723l-53.77778,31.04861l-53.77778,-31.04861z" fill="#000000"/><path d="M1003.33333,772.1806l53.77778,-31.04861l53.77778,31.04861l-53.77778,31.04861z" fill="#ffffff"/><path d="M1110.88889,772.1806v62.09723l-53.77778,31.04861v-62.09723z" fill="#000000"/></g><g><path d="M1110.88889,772.1806l53.77778,-31.04861l53.77778,31.04861v62.09723l-53.77778,31.04861l-53.77778,-31.04861z" fill="#000000"/><path d="M1110.88889,772.1806l53.77778,-31.04861l53.77778,31.04861l-53.77778,31.04861z" fill="#ffffff"/><path d="M1218.44444,772.1806v62.09723l-53.77778,31.04861v-62.09723z" fill="#000000"/></g><g><path d="M1218.44444,772.1806l53.77778,-31.04861l53.77778,31.04861v62.09723l-53.77778,31.04861l-53.77778,-31.04861z" fill="#000000"/><path d="M1218.44444,772.1806l53.77778,-31.04861l53.77778,31.04861l-53.77778,31.04861z" fill="#ffffff"/><path d="M1326,772.1806v62.09723l-53.77778,31.04861v-62.09723z" fill="#000000"/></g><g><path d="M-126,865.32645l53.77778,-31.04861l53.77778,31.04861v62.09723l-53.77778,31.04861l-53.77778,-31.04861z" fill="#000000"/><path d="M-126,865.32645l53.77778,-31.04861l53.77778,31.04861l-53.77778,31.04861z" fill="#ffffff"/><path d="M-18.44444,865.32645v62.09723l-53.77778,31.04861v-62.09723z" fill="#000000"/></g><g><path d="M-18.44444,865.32645l53.77778,-31.04861l53.77778,31.04861v62.09723l-53.77778,31.04861l-53.77778,-31.04861z" fill="#000000"/><path d="M-18.44444,865.32645l53.77778,-31.04861l53.77778,31.04861l-53.77778,31.04861z" fill="#ffffff"/><path d="M89.11111,865.32645v62.09723l-53.77778,31.04861v-62.09723z" fill="#000000"/></g><g><path d="M89.11111,865.32645l53.77778,-31.04861l53.77778,31.04861v62.09723l-53.77778,31.04861l-53.77778,-31.04861z" fill="#000000"/><path d="M89.11111,865.32645l53.77778,-31.04861l53.77778,31.04861l-53.77778,31.04861z" fill="#ffffff"/><path d="M196.66667,865.32645v62.09723l-53.77778,31.04861v-62.09723z" fill="#000000"/></g><g><path d="M196.66667,865.32645l53.77778,-31.04861l53.77778,31.04861v62.09723l-53.77778,31.04861l-53.77778,-31.04861z" fill="#000000"/><path d="M196.66667,865.32645l53.77778,-31.04861l53.77778,31.04861l-53.77778,31.04861z" fill="#ffffff"/><path d="M304.22222,865.32645v62.09723l-53.77778,31.04861v-62.09723z" fill="#000000"/></g><g><path d="M304.22222,865.32645l53.77778,-31.04861l53.77778,31.04861v62.09723l-53.77778,31.04861l-53.77778,-31.04861z" fill="#000000"/><path d="M304.22222,865.32645l53.77778,-31.04861l53.77778,31.04861l-53.77778,31.04861z" fill="#ffffff"/><path d="M411.77778,865.32645v62.09723l-53.77778,31.04861v-62.09723z" fill="#000000"/></g><g><path d="M411.77778,865.32645l53.77778,-31.04861l53.77778,31.04861v62.09723l-53.77778,31.04861l-53.77778,-31.04861z" fill="#000000"/><path d="M411.77778,865.32645l53.77778,-31.04861l53.77778,31.04861l-53.77778,31.04861z" fill="#ffffff"/><path d="M519.33333,865.32645v62.09723l-53.77778,31.04861v-62.09723z" fill="#000000"/></g><g><path d="M519.33333,865.32645l53.77778,-31.04861l53.77778,31.04861v62.09723l-53.77778,31.04861l-53.77778,-31.04861z" fill="#000000"/><path d="M519.33333,865.32645l53.77778,-31.04861l53.77778,31.04861l-53.77778,31.04861z" fill="#ffffff"/><path d="M626.88889,865.32645v62.09723l-53.77778,31.04861v-62.09723z" fill="#000000"/></g><g><path d="M626.88889,865.32645l53.77778,-31.04861l53.77778,31.04861v62.09723l-53.77778,31.04861l-53.77778,-31.04861z" fill="#000000"/><path d="M626.88889,865.32645l53.77778,-31.04861l53.77778,31.04861l-53.77778,31.04861z" fill="#ffffff"/><path d="M734.44444,865.32645v62.09723l-53.77778,31.04861v-62.09723z" fill="#000000"/></g><g><path d="M734.44444,865.32645l53.77778,-31.04861l53.77778,31.04861v62.09723l-53.77778,31.04861l-53.77778,-31.04861z" fill="#000000"/><path d="M734.44444,865.32645l53.77778,-31.04861l53.77778,31.04861l-53.77778,31.04861z" fill="#ffffff"/><path d="M842,865.32645v62.09723l-53.77778,31.04861v-62.09723z" fill="#000000"/></g><g><path d="M842,865.32645l53.77778,-31.04861l53.77778,31.04861v62.09723l-53.77778,31.04861l-53.77778,-31.04861z" fill="#000000"/><path d="M842,865.32645l53.77778,-31.04861l53.77778,31.04861l-53.77778,31.04861z" fill="#ffffff"/><path d="M949.55556,865.32645v62.09723l-53.77778,31.04861v-62.09723z" fill="#000000"/></g><g><path d="M949.55556,865.32645l53.77778,-31.04861l53.77778,31.04861v62.09723l-53.77778,31.04861l-53.77778,-31.04861z" fill="#000000"/><path d="M949.55556,865.32645l53.77778,-31.04861l53.77778,31.04861l-53.77778,31.04861z" fill="#ffffff"/><path d="M1057.11111,865.32645v62.09723l-53.77778,31.04861v-62.09723z" fill="#000000"/></g><g><path d="M1057.11111,865.32645l53.77778,-31.04861l53.77778,31.04861v62.09723l-53.77778,31.04861l-53.77778,-31.04861z" fill="#000000"/><path d="M1057.11111,865.32645l53.77778,-31.04861l53.77778,31.04861l-53.77778,31.04861z" fill="#ffffff"/><path d="M1164.66667,865.32645v62.09723l-53.77778,31.04861v-62.09723z" fill="#000000"/></g><g><path d="M1164.66667,865.32645l53.77778,-31.04861l53.77778,31.04861v62.09723l-53.77778,31.04861l-53.77778,-31.04861z" fill="#000000"/><path d="M1164.66667,865.32645l53.77778,-31.04861l53.77778,31.04861l-53.77778,31.04861z" fill="#ffffff"/><path d="M1272.22222,865.32645v62.09723l-53.77778,31.04861v-62.09723z" fill="#000000"/></g></g></g></svg>