<svg version="1.1" xmlns="http://www.w3.org/2000/svg" xmlns:xlink="http://www.w3.org/1999/xlink" width="1200" height="675" viewBox="0,0,1200,675"><g fill="none" fill-rule="nonzero" stroke="none" stroke-width="1" stroke-linecap="butt" stroke-linejoin="miter" stroke-miterlimit="10" stroke-dasharray="" stroke-dashoffset="0" font-family="none" font-weight="none" font-size="none" text-anchor="none" style="mix-blend-mode: normal"><g><g><path d="M-126,-252.42368l53.77778,-31.04861l53.77778,31.04861v62.09723l-53.77778,31.04861l-53.77778,-31.04861z" fill="#000000"/><path d="M-126,-252.42368l53.77778,-31.04861l53.77778,31.04861l-53.77778,31.04861z" fill="#ffffff"/><path d="M-18.44444,-252.42368v62.09723l-53.77778,31.04861v-62.09723z" fill="#000000"/></g><g><path d="M-18.44444,-252.42368l53.77778,-31.04861l53.77778,31.04861v62.09723l-53.77778,31.04861l-53.77778,-31.04861z" fill="#000000"/><path d="M-18.44444,-252.42368l53.77778,-31.04861l53.77778,31.04861l-53.77778,31.04861z" fill="#ffffff"/><path d="M89.11111,-252.42368v62.09723l-53.77778,31.04861v-62.09723z" fill="#000000"/></g><g><path d="M89.11111,-252.42368l53.77778,-31.04861l53.77778,31.04861v62.09723l-53.77778,31.04861l-53.77778,-31.04861z" fill="#000000"/><path d="M89.11111,-252.42368l53.77778,-31.04861l53.77778,31.04861l-53.77778,31.04861z" fill="#ffffff"/><path d="M196.66667,-252.42368v62.09723l-53.77778,31.04861v-62.09723z" fill="#000000"/></g><g><path d="M196.66667,-252.42368l53.77778,-31.04861l53.77778,31.04861v62.09723l-53.77778,31.04861l-53.77778,-31.04861z" fill="#000000"/><path d="M196.66667,-252.42368l53.77778,-31.04861l53.77778,31.04861l-53.77778,31.04861z" fill="#ffffff"/><path d="M304.22222,-252.42368v62.09723l-53.77778,31.04861v-62.09723z" fill="#000000"/></g><g><path d="M304.22222,-252.42368l53.77778,-31.04861l53.77778,31.04861v62.09723l-53.77778,31.04861l-53.77778,-31.04861z" fill="#000000"/><path d="M304.22222,-252.42368l53.77778,-31.04861l53.77778,31.04861l-53.77778,31.04861z" fill="#ffffff"/><path d="M411.77778,-252.42368v62.09723l-53.77778,31.04861v-62.09723z" fill="#000000"/></g><g><path d="M411.77778,-252.42368l53.77778,-31.04861l53.77778,31.04861v62.09723l-53.77778,31.04861l-53.77778,-31.04861z" fill="#000000"/><path d="M411.77778,-252.42368l53.77778,-31.04861l53.77778,31.04861l-53.77778,31.04861z" fill="#ffffff"/><path d="M519.33333,-252.42368v62.09723l-53.77778,31.04861v-62.09723z" fill="#000000"/></g><g><path d="M519.33333,-252.42368l53.77778,-31.04861l53.77778,31.04861v62.09723l-53.77778,31.04861l-53.77778,-31.04861z" fill="#000000"/><path d="M519.33333,-252.42368l53.77778,-31.04861l53.77778,31.04861l-53.77778,31.04861z" fill="#ffffff"/><path d="M626.88889,-252.42368v62.09723l-53.77778,31.04861v-62.09723z" fill="#000000"/></g><g><path d="M626.88889,-252.42368l53.77778,-31.04861l53.77778,31.04861v62.09723l-53.77778,31.04861l-53.77778,-31.04861z" fill="#000000"/><path d="M626.88889,-252.42368l53.77778,-31.04861l53.77778,31.04861l-53.77778,31.04861z" fill="#ffffff"/><path d="M734.44444,-252.42368v62.09723l-53.77778,31.04861v-62.09723z" fill="#000000"/></g><g><path d="M734.44444,-252.42368l53.77778,-31.04861l53.77778,31.04861v62.09723l-53.77778,31.04861l-53.77778,-31.04861z" fill="#000000"/><path d="M734.44444,-252.42368l53.77778,-31.04861l53.77778,31.04861l-53.77778,31.04861z" fill="#ffffff"/><path d="M842,-252.42368v62.09723l-53.77778,31.04861v-62.09723z" fill="#000000"/></g><g><path d="M842,-252.42368l53.77778,-31.04861l53.77778,31.04861v62.09723l-53.77778,31.04861l-53.77778,-31.04861z" fill="#000000"/><path d="M842,-252.42368l53.77778,-31.04861l53.77778,31.04861l-53.77778,31.04861z" fill="#ffffff"/><path d="M949.55556,-252.42368v62.09723l-53.77778,31.04861v-62.09723z" fill="#000000"/></g><g><path d="M949.55556,-252.42368l53.77778,-31.04861l53.77778,31.04861v62.09723l-53.77778,31.04861l-53.77778,-31.04861z" fill="#000000"/><path d="M949.55556,-252.42368l53.77778,-31.04861l53.77778,31.04861l-53.77778,31.04861z" fill="#ffffff"/><path d="M1057.11111,-252.42368v62.09723l-53.77778,31.04861v-62.09723z" fill="#000000"/></g><g><path d="M1057.11111,-252.42368l53.77778,-31.04861l53.77778,31.04861v62.09723l-53.77778,31.04861l-53.77778,-31.04861z" fill="#000000"/><path d="M1057.11111,-252.42368l53.77778,-31.04861l53.77778,31.04861l-53.77778,31.04861z" fill="#ffffff"/><path d="M1164.66667,-252.42368v62.09723l-53.77778,31.04861v-62.09723z" fill="#000000"/></g><g><path d="M1164.66667,-252.42368l53.77778,-31.04861l53.77778,31.04861v62.09723l-53.77778,31.04861l-53.77778,-31.04861z" fill="#000000"/><path d="M1164.66667,-252.42368l53.77778,-31.04861l53.77778,31.04861l-53.77778,31.04861z" fill="#ffffff"/><path d="M1272.22222,-252.42368v62.09723l-53.77778,31.04861v-62.09723z" fill="#000000"/></g><g><path d="M-72.22222,-159.27783l53.77778,-31.04861l53.77778,31.04861v62.09723l-53.77778,31.04861l-53.77778,-31.04861z" fill="#000000"/><path d="M-72.22222,-159.27783l53.77778,-31.04861l53.77778,31.04861l-53.77778,31.04861z" fill="#ffffff"/><path d="M35.33333,-159.27783v62.09723l-53.77778,31.04861v-62.09723z" fill="#000000"/></g><g><path d="M35.33333,-159.27783l53.77778,-31.04861l53.77778,31.04861v62.09723l-53.77778,31.04861l-53.77778,-31.04861z" fill="#000000"/><path d="M35.33333,-159.27783l53.77778,-31.04861l53.77778,31.04861l-53.77778,31.04861z" fill="#ffffff"/><path d="M142.88889,-159.27783v62.09723l-53.77778,31.04861v-62.09723z" fill="#000000"/></g><g><path d="M142.88889,-159.27783l53.77778,-31.04861l53.77778,31.04861v62.09723l-53.77778,31.04861l-53.77778,-31.04861z" fill="#000000"/><path d="M142.88889,-159.27783l53.77778,-31.04861l53.77778,31.04861l-53.77778,31.04861z" fill="#ffffff"/><path d="M250.44444,-159.27783v62.09723l-53.77778,31.04861v-62.09723z" fill="#000000"/></g><g><path d="M250.44444,-159.27783l53.77778,-31.04861l53.77778,31.04861v62.09723l-53.77778,31.04861l-53.77778,-31.04861z" fill="#000000"/><path d="M250.44444,-159.27783l53.77778,-31.04861l53.77778,31.04861l-53.77778,31.04861z" fill="#ffffff"/><path d="M358,-159.27783v62.09723l-53.77778,31.04861v-62.09723z" fill="#000000"/></g><g><path d="M358,-159.27783l53.77778,-31.04861l53.77778,31.04861v62.09723l-53.77778,31.04861l-53.77778,-31.04861z" fill="#000000"/><path d="M358,-159.27783l53.77778,-31.04861l53.77778,31.04861l-53.77778,31.04861z" fill="#ffffff"/><path d="M465.55556,-159.27783v62.09723l-53.77778,31.04861v-62.09723z" fill="#000000"/></g><g><path d="M465.55556,-159.27783l53.77778,-31.04861l53.77778,31.04861v62.09723l-53.77778,31.04861l-53.77778,-31.04861z" fill="#000000"/><path d="M465.55556,-159.27783l53.77778,-31.04861l53.77778,31.04861l-53.77778,31.04861z" fill="#ffffff"/><path d="M573.11111,-159.27783v62.09723l-53.77778,31.04861v-62.09723z" fill="#000000"/></g><g><path d="M573.11111,-159.27783l53.77778,-31.04861l53.77778,31.04861v62.09723l-53.77778,31.04861l-53.77778,-31.04861z" fill="#000000"/><path d="M573.11111,-159.27783l53.77778,-31.04861l53.77778,31.04861l-53.77778,31.04861z" fill="#ffffff"/><path d="M680.66667,-159.27783v62.09723l-53.77778,31.04861v-62.09723z" fill="#000000"/></g><g><path d="M680.66667,-159.27783l53.77778,-31.04861l53.77778,31.04861v62.09723l-53.77778,31.04861l-53.77778,-31.04861z" fill="#000000"/><path d="M680.66667,-159.27783l53.77778,-31.04861l53.77778,31.04861l-53.77778,31.04861z" fill="#ffffff"/><path d="M788.22222,-159.27783v62.09723l-53.77778,31.04861v-62.09723z" fill="#000000"/></g><g><path d="M788.22222,-159.27783l53.77778,-31.04861l53.77778,31.04861v62.09723l-53.77778,31.04861l-53.77778,-31.04861z" fill="#000000"/><path d="M788.22222,-159.27783l53.77778,-31.04861l53.77778,31.04861l-53.77778,31.04861z" fill="#ffffff"/><path d="M895.77778,-159.27783v62.09723l-53.77778,31.04861v-62.09723z" fill="#000000"/></g><g><path d="M895.77778,-159.27783l53.77778,-31.04861l53.77778,31.04861v62.09723l-53.77778,31.04861l-53.77778,-31.04861z" fill="#000000"/><path d="M895.77778,-159.27783l53.77778,-31.04861l53.77778,31.04861l-53.77778,31.04861z" fill="#ffffff"/><path d="M1003.33333,-159.27783v62.09723l-53.77778,31.04861v-62.09723z" fill="#000000"/></g><g><path d="M1003.33333,-159.27783l53.77778,-31.04861l53.77778,31.04861v62.09723l-53.77778,31.04861l-53.77778,-31.04861z" fill="#000000"/><path d="M1003.33333,-159.27783l53.77778,-31.04861l53.77778,31.04861l-53.77778,31.04861z" fill="#ffffff"/><path d="M1110.88889,-159.27783v62.09723l-53.77778,31.04861v-62.09723z" fill="#000000"/></g><g><path d="M1110.88889,-159.27783l53.77778,-31.04861l53.77778,31.04861v62.09723l-53.77778,31.04861l-53.77778,-31.04861z" fill="#000000"/><path d="M1110.88889,-159.27783l53.77778,-31.04861l53.77778,31.04861l-53.77778,31.04861z" fill="#ffffff"/><path d="M1218.44444,-159.27783v62.09723l-53.77778,31.04861v-62.09723z" fill="#000000"/></g><g><path d="M1218.44444,-159.27783l53.77778,-31.04861l53.77778,31.04861v62.09723l-53.77778,31.04861l-53.77778,-31.04861z" fill="#000000"/><path d="M1218.44444,-159.27783l53.77778,-31.04861l53.77778,31.04861l-53.77778,31.04861z" fill="#ffffff"/><path d="M1326,-159.27783v62.09723l-53.77778,31.04861v-62.09723z" fill="#000000"/></g><g><path d="M-126,-66.13199l53.77778,-31.04861l53.77778,31.04861v62.09723l-53.77778,31.04861l-53.77778,-31.04861z" fill="#635464"/><path d="M-126,-66.13199l53.77778,-31.04861l53.77778,31.04861l-53.77778,31.04861z" fill="#957e95"/><path d="M-18.44444,-66.13199v62.09723l-53.77778,31.04861v-62.09723z" fill="#322a32"/></g><g><path d="M-18.44444,-66.13199l53.77778,-31.04861l53.77778,31.04861v62.09723l-53.77778,31.04861l-53.77778,-31.04861z" fill="#baa6cc"/><path d="M-18.44444,-66.13199l53.77778,-31.04861l53.77778,31.04861l-53.77778,31.04861z" fill="#fff9ff"/><path d="M89.11111,-66.13199v62.09723l-53.77778,31.04861v-62.09723z" fill="#5d5366"/></g><g><path d="M89.11111,-66.13199l53.77778,-31.04861l53.77778,31.04861v62.09723l-53.77778,31.04861l-53.77778,-31.04861z" fill="#b7aec8"/><path d="M89.11111,-66.13199l53.77778,-31.04861l53.77778,31.04861l-53.77778,31.04861z" fill="#ffffff"/><path d="M196.66667,-66.13199v62.09723l-53.77778,31.04861v-62.09723z" fill="#5b5764"/></g><g><path d="M196.66667,-66.13199l53.77778,-31.04861l53.77778,31.04861v62.09723l-53.77778,31.04861l-53.77778,-31.04861z" fill="#baa5c3"/><path d="M196.66667,-66.13199l53.77778,-31.04861l53.77778,31.04861l-53.77778,31.04861z" fill="#fff7ff"/><path d="M304.22222,-66.13199v62.09723l-53.77778,31.04861v-62.09723z" fill="#5d5262"/></g><g><path d="M304.22222,-66.13199l53.77778,-31.04861l53.77778,31.04861v62.09723l-53.77778,31.04861l-53.77778,-31.04861z" fill="#bba1bb"/><path d="M304.22222,-66.13199l53.77778,-31.04861l53.77778,31.04861l-53.77778,31.04861z" fill="#fff2ff"/><path d="M411.77778,-66.13199v62.09723l-53.77778,31.04861v-62.09723z" fill="#5e515e"/></g><g><path d="M411.77778,-66.13199l53.77778,-31.04861l53.77778,31.04861v62.09723l-53.77778,31.04861l-53.77778,-31.04861z" fill="#bb9fbb"/><path d="M411.77778,-66.13199l53.77778,-31.04861l53.77778,31.04861l-53.77778,31.04861z" fill="#ffefff"/><path d="M519.33333,-66.13199v62.09723l-53.77778,31.04861v-62.09723z" fill="#5d505d"/></g><g><path d="M519.33333,-66.13199l53.77778,-31.04861l53.77778,31.04861v62.09723l-53.77778,31.04861l-53.77778,-31.04861z" fill="#bda0bd"/><path d="M519.33333,-66.13199l53.77778,-31.04861l53.77778,31.04861l-53.77778,31.04861z" fill="#fff0ff"/><path d="M626.88889,-66.13199v62.09723l-53.77778,31.04861v-62.09723z" fill="#5e505e"/></g><g><path d="M626.88889,-66.13199l53.77778,-31.04861l53.77778,31.04861v62.09723l-53.77778,31.04861l-53.77778,-31.04861z" fill="#bc9fbc"/><path d="M626.88889,-66.13199l53.77778,-31.04861l53.77778,31.04861l-53.77778,31.04861z" fill="#ffefff"/><path d="M734.44444,-66.13199v62.09723l-53.77778,31.04861v-62.09723z" fill="#5e505e"/></g><g><path d="M734.44444,-66.13199l53.77778,-31.04861l53.77778,31.04861v62.09723l-53.77778,31.04861l-53.77778,-31.04861z" fill="#baa2ba"/><path d="M734.44444,-66.13199l53.77778,-31.04861l53.77778,31.04861l-53.77778,31.04861z" fill="#fff3ff"/><path d="M842,-66.13199v62.09723l-53.77778,31.04861v-62.09723z" fill="#5d515d"/></g><g><path d="M842,-66.13199l53.77778,-31.04861l53.77778,31.04861v62.09723l-53.77778,31.04861l-53.77778,-31.04861z" fill="#bba2bb"/><path d="M842,-66.13199l53.77778,-31.04861l53.77778,31.04861l-53.77778,31.04861z" fill="#fff3ff"/><path d="M949.55556,-66.13199v62.09723l-53.77778,31.04861v-62.09723z" fill="#5e515e"/></g><g><path d="M949.55556,-66.13199l53.77778,-31.04861l53.77778,31.04861v62.09723l-53.77778,31.04861l-53.77778,-31.04861z" fill="#b9a0b9"/><path d="M949.55556,-66.13199l53.77778,-31.04861l53.77778,31.04861l-53.77778,31.04861z" fill="#fff0ff"/><path d="M1057.11111,-66.13199v62.09723l-53.77778,31.04861v-62.09723z" fill="#5d505d"/></g><g><path d="M1057.11111,-66.13199l53.77778,-31.04861l53.77778,31.04861v62.09723l-53.77778,31.04861l-53.77778,-31.04861z" fill="#b8a3b8"/><path d="M1057.11111,-66.13199l53.77778,-31.04861l53.77778,31.04861l-53.77778,31.04861z" fill="#fff5ff"/><path d="M1164.66667,-66.13199v62.09723l-53.77778,31.04861v-62.09723z" fill="#5c525c"/></g><g><path d="M1164.66667,-66.13199l53.77778,-31.04861l53.77778,31.04861v62.09723l-53.77778,31.04861l-53.77778,-31.04861z" fill="#afacaf"/><path d="M1164.66667,-66.13199l53.77778,-31.04861l53.77778,31.04861l-53.77778,31.04861z" fill="#ffffff"/><path d="M1272.22222,-66.13199v62.09723l-53.77778,31.04861v-62.09723z" fill="#585658"/></g><g><path d="M-72.22222,27.01386l53.77778,-31.04861l53.77778,31.04861v62.09723l-53.77778,31.04861l-53.77778,-31.04861z" fill="#b050b0"/><path d="M-72.22222,27.01386l53.77778,-31.04861l53.77778,31.04861l-53.77778,31.04861z" fill="#ff78ff"/><path d="M35.33333,27.01386v62.09723l-53.77778,31.04861v-62.09723z" fill="#582858"/></g><g><path d="M35.33333,27.01386l53.77778,-31.04861l53.77778,31.04861v62.09723l-53.77778,31.04861l-53.77778,-31.04861z" fill="#ef54ef"/><path d="M35.33333,27.01386l53.77778,-31.04861l53.77778,31.04861l-53.77778,31.04861z" fill="#ff7eff"/><path d="M142.88889,27.01386v62.09723l-53.77778,31.04861v-62.09723z" fill="#772a77"/></g><g><path d="M142.88889,27.01386l53.77778,-31.04861l53.77778,31.04861v62.09723l-53.77778,31.04861l-53.77778,-31.04861z" fill="#f155f1"/><path d="M142.88889,27.01386l53.77778,-31.04861l53.77778,31.04861l-53.77778,31.04861z" fill="#ff7fff"/><path d="M250.44444,27.01386v62.09723l-53.77778,31.04861v-62.09723z" fill="#792a79"/></g><g><path d="M250.44444,27.01386l53.77778,-31.04861l53.77778,31.04861v62.09723l-53.77778,31.04861l-53.77778,-31.04861z" fill="#f051f0"/><path d="M250.44444,27.01386l53.77778,-31.04861l53.77778,31.04861l-53.77778,31.04861z" fill="#ff7aff"/><path d="M358,27.01386v62.09723l-53.77778,31.04861v-62.09723z" fill="#782978"/></g><g><path d="M358,27.01386l53.77778,-31.04861l53.77778,31.04861v62.09723l-53.77778,31.04861l-53.77778,-31.04861z" fill="#ec57ec"/><path d="M358,27.01386l53.77778,-31.04861l53.77778,31.04861l-53.77778,31.04861z" fill="#ff83ff"/><path d="M465.55556,27.01386v62.09723l-53.77778,31.04861v-62.09723z" fill="#762c76"/></g><g><path d="M465.55556,27.01386l53.77778,-31.04861l53.77778,31.04861v62.09723l-53.77778,31.04861l-53.77778,-31.04861z" fill="#f151f1"/><path d="M465.55556,27.01386l53.77778,-31.04861l53.77778,31.04861l-53.77778,31.04861z" fill="#ff79ff"/><path d="M573.11111,27.01386v62.09723l-53.77778,31.04861v-62.09723z" fill="#792879"/></g><g><path d="M573.11111,27.01386l53.77778,-31.04861l53.77778,31.04861v62.09723l-53.77778,31.04861l-53.77778,-31.04861z" fill="#f351f3"/><path d="M573.11111,27.01386l53.77778,-31.04861l53.77778,31.04861l-53.77778,31.04861z" fill="#ff7aff"/><path d="M680.66667,27.01386v62.09723l-53.77778,31.04861v-62.09723z" fill="#792979"/></g><g><path d="M680.66667,27.01386l53.77778,-31.04861l53.77778,31.04861v62.09723l-53.77778,31.04861l-53.77778,-31.04861z" fill="#ef52ef"/><path d="M680.66667,27.01386l53.77778,-31.04861l53.77778,31.04861l-53.77778,31.04861z" fill="#ff7bff"/><path d="M788.22222,27.01386v62.09723l-53.77778,31.04861v-62.09723z" fill="#782978"/></g><g><path d="M788.22222,27.01386l53.77778,-31.04861l53.77778,31.04861v62.09723l-53.77778,31.04861l-53.77778,-31.04861z" fill="#f538f5"/><path d="M788.22222,27.01386l53.77778,-31.04861l53.77778,31.04861l-53.77778,31.04861z" fill="#ff55ff"/><path d="M895.77778,27.01386v62.09723l-53.77778,31.04861v-62.09723z" fill="#7a1c7a"/></g><g><path d="M895.77778,27.01386l53.77778,-31.04861l53.77778,31.04861v62.09723l-53.77778,31.04861l-53.77778,-31.04861z" fill="#ed44ed"/><path d="M895.77778,27.01386l53.77778,-31.04861l53.77778,31.04861l-53.77778,31.04861z" fill="#ff67ff"/><path d="M1003.33333,27.01386v62.09723l-53.77778,31.04861v-62.09723z" fill="#762276"/></g><g><path d="M1003.33333,27.01386l53.77778,-31.04861l53.77778,31.04861v62.09723l-53.77778,31.04861l-53.77778,-31.04861z" fill="#e949e9"/><path d="M1003.33333,27.01386l53.77778,-31.04861l53.77778,31.04861l-53.77778,31.04861z" fill="#ff6eff"/><path d="M1110.88889,27.01386v62.09723l-53.77778,31.04861v-62.09723z" fill="#752575"/></g><g><path d="M1110.88889,27.01386l53.77778,-31.04861l53.77778,31.04861v62.09723l-53.77778,31.04861l-53.77778,-31.04861z" fill="#e55be5"/><path d="M1110.88889,27.01386l53.77778,-31.04861l53.77778,31.04861l-53.77778,31.04861z" fill="#ff89ff"/><path d="M1218.44444,27.01386v62.09723l-53.77778,31.04861v-62.09723z" fill="#732e73"/></g><g><path d="M1218.44444,27.01386l53.77778,-31.04861l53.77778,31.04861v62.09723l-53.77778,31.04861l-53.77778,-31.04861z" fill="#c96ac9"/><path d="M1218.44444,27.01386l53.77778,-31.04861l53.77778,31.04861l-53.77778,31.04861z" fill="#ff9eff"/><path d="M1326,27.01386v62.09723l-53.77778,31.04861v-62.09723z" fill="#643564"/></g><g><path d="M-126,120.1597l53.77778,-31.04861l53.77778,31.04861v62.09723l-53.77778,31.04861l-53.77778,-31.04861z" fill="#692d69"/><path d="M-126,120.1597l53.77778,-31.04861l53.77778,31.04861l-53.77778,31.04861z" fill="#9e449e"/><path d="M-18.44444,120.1597v62.09723l-53.77778,31.04861v-62.09723z" fill="#351735"/></g><g><path d="M-18.44444,120.1597l53.77778,-31.04861l53.77778,31.04861v62.09723l-53.77778,31.04861l-53.77778,-31.04861z" fill="#df4cdf"/><path d="M-18.44444,120.1597l53.77778,-31.04861l53.77778,31.04861l-53.77778,31.04861z" fill="#ff72ff"/><path d="M89.11111,120.1597v62.09723l-53.77778,31.04861v-62.09723z" fill="#702670"/></g><g><path d="M89.11111,120.1597l53.77778,-31.04861l53.77778,31.04861v62.09723l-53.77778,31.04861l-53.77778,-31.04861z" fill="#e649e6"/><path d="M89.11111,120.1597l53.77778,-31.04861l53.77778,31.04861l-53.77778,31.04861z" fill="#ff6dff"/><path d="M196.66667,120.1597v62.09723l-53.77778,31.04861v-62.09723z" fill="#732473"/></g><g><path d="M196.66667,120.1597l53.77778,-31.04861l53.77778,31.04861v62.09723l-53.77778,31.04861l-53.77778,-31.04861z" fill="#ea45ea"/><path d="M196.66667,120.1597l53.77778,-31.04861l53.77778,31.04861l-53.77778,31.04861z" fill="#ff68ff"/><path d="M304.22222,120.1597v62.09723l-53.77778,31.04861v-62.09723z" fill="#752375"/></g><g><path d="M304.22222,120.1597l53.77778,-31.04861l53.77778,31.04861v62.09723l-53.77778,31.04861l-53.77778,-31.04861z" fill="#e444e4"/><path d="M304.22222,120.1597l53.77778,-31.04861l53.77778,31.04861l-53.77778,31.04861z" fill="#ff66ff"/><path d="M411.77778,120.1597v62.09723l-53.77778,31.04861v-62.09723z" fill="#722272"/></g><g><path d="M411.77778,120.1597l53.77778,-31.04861l53.77778,31.04861v62.09723l-53.77778,31.04861l-53.77778,-31.04861z" fill="#e548e5"/><path d="M411.77778,120.1597l53.77778,-31.04861l53.77778,31.04861l-53.77778,31.04861z" fill="#ff6dff"/><path d="M519.33333,120.1597v62.09723l-53.77778,31.04861v-62.09723z" fill="#732473"/></g><g><path d="M519.33333,120.1597l53.77778,-31.04861l53.77778,31.04861v62.09723l-53.77778,31.04861l-53.77778,-31.04861z" fill="#e04fe0"/><path d="M519.33333,120.1597l53.77778,-31.04861l53.77778,31.04861l-53.77778,31.04861z" fill="#ff76ff"/><path d="M626.88889,120.1597v62.09723l-53.77778,31.04861v-62.09723z" fill="#702770"/></g><g><path d="M626.88889,120.1597l53.77778,-31.04861l53.77778,31.04861v62.09723l-53.77778,31.04861l-53.77778,-31.04861z" fill="#e840e8"/><path d="M626.88889,120.1597l53.77778,-31.04861l53.77778,31.04861l-53.77778,31.04861z" fill="#ff61ff"/><path d="M734.44444,120.1597v62.09723l-53.77778,31.04861v-62.09723z" fill="#742074"/></g><g><path d="M734.44444,120.1597l53.77778,-31.04861l53.77778,31.04861v62.09723l-53.77778,31.04861l-53.77778,-31.04861z" fill="#ea37ea"/><path d="M734.44444,120.1597l53.77778,-31.04861l53.77778,31.04861l-53.77778,31.04861z" fill="#ff52ff"/><path d="M842,120.1597v62.09723l-53.77778,31.04861v-62.09723z" fill="#751b75"/></g><g><path d="M842,120.1597l53.77778,-31.04861l53.77778,31.04861v62.09723l-53.77778,31.04861l-53.77778,-31.04861z" fill="#e045e0"/><path d="M842,120.1597l53.77778,-31.04861l53.77778,31.04861l-53.77778,31.04861z" fill="#ff68ff"/><path d="M949.55556,120.1597v62.09723l-53.77778,31.04861v-62.09723z" fill="#702370"/></g><g><path d="M949.55556,120.1597l53.77778,-31.04861l53.77778,31.04861v62.09723l-53.77778,31.04861l-53.77778,-31.04861z" fill="#dd4ddd"/><path d="M949.55556,120.1597l53.77778,-31.04861l53.77778,31.04861l-53.77778,31.04861z" fill="#ff74ff"/><path d="M1057.11111,120.1597v62.09723l-53.77778,31.04861v-62.09723z" fill="#6e276e"/></g><g><path d="M1057.11111,120.1597l53.77778,-31.04861l53.77778,31.04861v62.09723l-53.77778,31.04861l-53.77778,-31.04861z" fill="#d958d9"/><path d="M1057.11111,120.1597l53.77778,-31.04861l53.77778,31.04861l-53.77778,31.04861z" fill="#ff84ff"/><path d="M1164.66667,120.1597v62.09723l-53.77778,31.04861v-62.09723z" fill="#6c2c6c"/></g><g><path d="M1164.66667,120.1597l53.77778,-31.04861l53.77778,31.04861v62.09723l-53.77778,31.04861l-53.77778,-31.04861z" fill="#ca66ca"/><path d="M1164.66667,120.1597l53.77778,-31.04861l53.77778,31.04861l-53.77778,31.04861z" fill="#ff99ff"/><path d="M1272.22222,120.1597v62.09723l-53.77778,31.04861v-62.09723z" fill="#653365"/></g><g><path d="M-72.22222,213.30554l53.77778,-31.04861l53.77778,31.04861v62.09723l-53.77778,31.04861l-53.77778,-31.04861z" fill="#954da1"/><path d="M-72.22222,213.30554l53.77778,-31.04861l53.77778,31.04861l-53.77778,31.04861z" fill="#e073f2"/><path d="M35.33333,213.30554v62.09723l-53.77778,31.04861v-62.09723z" fill="#4b2651"/></g><g><path d="M35.33333,213.30554l53.77778,-31.04861l53.77778,31.04861v62.09723l-53.77778,31.04861l-53.77778,-31.04861z" fill="#ce4de2"/><path d="M35.33333,213.30554l53.77778,-31.04861l53.77778,31.04861l-53.77778,31.04861z" fill="#ff73ff"/><path d="M142.88889,213.30554v62.09723l-53.77778,31.04861v-62.09723z" fill="#672671"/></g><g><path d="M142.88889,213.30554l53.77778,-31.04861l53.77778,31.04861v62.09723l-53.77778,31.04861l-53.77778,-31.04861z" fill="#c55edc"/><path d="M142.88889,213.30554l53.77778,-31.04861l53.77778,31.04861l-53.77778,31.04861z" fill="#ff8eff"/><path d="M250.44444,213.30554v62.09723l-53.77778,31.04861v-62.09723z" fill="#632f6e"/></g><g><path d="M250.44444,213.30554l53.77778,-31.04861l53.77778,31.04861v62.09723l-53.77778,31.04861l-53.77778,-31.04861z" fill="#d83fe0"/><path d="M250.44444,213.30554l53.77778,-31.04861l53.77778,31.04861l-53.77778,31.04861z" fill="#ff5eff"/><path d="M358,213.30554v62.09723l-53.77778,31.04861v-62.09723z" fill="#6c1f70"/></g><g><path d="M358,213.30554l53.77778,-31.04861l53.77778,31.04861v62.09723l-53.77778,31.04861l-53.77778,-31.04861z" fill="#d640de"/><path d="M358,213.30554l53.77778,-31.04861l53.77778,31.04861l-53.77778,31.04861z" fill="#ff60ff"/><path d="M465.55556,213.30554v62.09723l-53.77778,31.04861v-62.09723z" fill="#6b206f"/></g><g><path d="M465.55556,213.30554l53.77778,-31.04861l53.77778,31.04861v62.09723l-53.77778,31.04861l-53.77778,-31.04861z" fill="#ba62bc"/><path d="M465.55556,213.30554l53.77778,-31.04861l53.77778,31.04861l-53.77778,31.04861z" fill="#ff93ff"/><path d="M573.11111,213.30554v62.09723l-53.77778,31.04861v-62.09723z" fill="#5d315e"/></g><g><path d="M573.11111,213.30554l53.77778,-31.04861l53.77778,31.04861v62.09723l-53.77778,31.04861l-53.77778,-31.04861z" fill="#cc49cc"/><path d="M573.11111,213.30554l53.77778,-31.04861l53.77778,31.04861l-53.77778,31.04861z" fill="#ff6eff"/><path d="M680.66667,213.30554v62.09723l-53.77778,31.04861v-62.09723z" fill="#662566"/></g><g><path d="M680.66667,213.30554l53.77778,-31.04861l53.77778,31.04861v62.09723l-53.77778,31.04861l-53.77778,-31.04861z" fill="#c257c2"/><path d="M680.66667,213.30554l53.77778,-31.04861l53.77778,31.04861l-53.77778,31.04861z" fill="#ff83ff"/><path d="M788.22222,213.30554v62.09723l-53.77778,31.04861v-62.09723z" fill="#612c61"/></g><g><path d="M788.22222,213.30554l53.77778,-31.04861l53.77778,31.04861v62.09723l-53.77778,31.04861l-53.77778,-31.04861z" fill="#c94ec9"/><path d="M788.22222,213.30554l53.77778,-31.04861l53.77778,31.04861l-53.77778,31.04861z" fill="#ff75ff"/><path d="M895.77778,213.30554v62.09723l-53.77778,31.04861v-62.09723z" fill="#642764"/></g><g><path d="M895.77778,213.30554l53.77778,-31.04861l53.77778,31.04861v62.09723l-53.77778,31.04861l-53.77778,-31.04861z" fill="#ab6eab"/><path d="M895.77778,213.30554l53.77778,-31.04861l53.77778,31.04861l-53.77778,31.04861z" fill="#ffa5ff"/><path d="M1003.33333,213.30554v62.09723l-53.77778,31.04861v-62.09723z" fill="#563756"/></g><g><path d="M1003.33333,213.30554l53.77778,-31.04861l53.77778,31.04861v62.09723l-53.77778,31.04861l-53.77778,-31.04861z" fill="#b06fb4"/><path d="M1003.33333,213.30554l53.77778,-31.04861l53.77778,31.04861l-53.77778,31.04861z" fill="#ffa6ff"/><path d="M1110.88889,213.30554v62.09723l-53.77778,31.04861v-62.09723z" fill="#58375a"/></g><g><path d="M1110.88889,213.30554l53.77778,-31.04861l53.77778,31.04861v62.09723l-53.77778,31.04861l-53.77778,-31.04861z" fill="#a478a9"/><path d="M1110.88889,213.30554l53.77778,-31.04861l53.77778,31.04861l-53.77778,31.04861z" fill="#f6b4fd"/><path d="M1218.44444,213.30554v62.09723l-53.77778,31.04861v-62.09723z" fill="#523c54"/></g><g><path d="M1218.44444,213.30554l53.77778,-31.04861l53.77778,31.04861v62.09723l-53.77778,31.04861l-53.77778,-31.04861z" fill="#8fb0d5"/><path d="M1218.44444,213.30554l53.77778,-31.04861l53.77778,31.04861l-53.77778,31.04861z" fill="#d7ffff"/><path d="M1326,213.30554v62.09723l-53.77778,31.04861v-62.09723z" fill="#48586a"/></g><g><path d="M-126,306.45139l53.77778,-31.04861l53.77778,31.04861v62.09723l-53.77778,31.04861l-53.77778,-31.04861z" fill="#3e2a3e"/><path d="M-126,306.45139l53.77778,-31.04861l53.77778,31.04861l-53.77778,31.04861z" fill="#5d3f5d"/><path d="M-18.44444,306.45139v62.09723l-53.77778,31.04861v-62.09723z" fill="#1f151f"/></g><g><path d="M-18.44444,306.45139l53.77778,-31.04861l53.77778,31.04861v62.09723l-53.77778,31.04861l-53.77778,-31.04861z" fill="#de3beb"/><path d="M-18.44444,306.45139l53.77778,-31.04861l53.77778,31.04861l-53.77778,31.04861z" fill="#ff59ff"/><path d="M89.11111,306.45139v62.09723l-53.77778,31.04861v-62.09723z" fill="#6f1e76"/></g><g><path d="M89.11111,306.45139l53.77778,-31.04861l53.77778,31.04861v62.09723l-53.77778,31.04861l-53.77778,-31.04861z" fill="#e749fc"/><path d="M89.11111,306.45139l53.77778,-31.04861l53.77778,31.04861l-53.77778,31.04861z" fill="#ff6eff"/><path d="M196.66667,306.45139v62.09723l-53.77778,31.04861v-62.09723z" fill="#73257e"/></g><g><path d="M196.66667,306.45139l53.77778,-31.04861l53.77778,31.04861v62.09723l-53.77778,31.04861l-53.77778,-31.04861z" fill="#dc53fa"/><path d="M196.66667,306.45139l53.77778,-31.04861l53.77778,31.04861l-53.77778,31.04861z" fill="#ff7dff"/><path d="M304.22222,306.45139v62.09723l-53.77778,31.04861v-62.09723z" fill="#6e2a7d"/></g><g><path d="M304.22222,306.45139l53.77778,-31.04861l53.77778,31.04861v62.09723l-53.77778,31.04861l-53.77778,-31.04861z" fill="#f136f5"/><path d="M304.22222,306.45139l53.77778,-31.04861l53.77778,31.04861l-53.77778,31.04861z" fill="#ff52ff"/><path d="M411.77778,306.45139v62.09723l-53.77778,31.04861v-62.09723z" fill="#781b7a"/></g><g><path d="M411.77778,306.45139l53.77778,-31.04861l53.77778,31.04861v62.09723l-53.77778,31.04861l-53.77778,-31.04861z" fill="#e942f7"/><path d="M411.77778,306.45139l53.77778,-31.04861l53.77778,31.04861l-53.77778,31.04861z" fill="#ff64ff"/><path d="M519.33333,306.45139v62.09723l-53.77778,31.04861v-62.09723z" fill="#74217b"/></g><g><path d="M519.33333,306.45139l53.77778,-31.04861l53.77778,31.04861v62.09723l-53.77778,31.04861l-53.77778,-31.04861z" fill="#eb47f1"/><path d="M519.33333,306.45139l53.77778,-31.04861l53.77778,31.04861l-53.77778,31.04861z" fill="#ff6aff"/><path d="M626.88889,306.45139v62.09723l-53.77778,31.04861v-62.09723z" fill="#752378"/></g><g><path d="M626.88889,306.45139l53.77778,-31.04861l53.77778,31.04861v62.09723l-53.77778,31.04861l-53.77778,-31.04861z" fill="#eb40ec"/><path d="M626.88889,306.45139l53.77778,-31.04861l53.77778,31.04861l-53.77778,31.04861z" fill="#ff5fff"/><path d="M734.44444,306.45139v62.09723l-53.77778,31.04861v-62.09723z" fill="#762076"/></g><g><path d="M734.44444,306.45139l53.77778,-31.04861l53.77778,31.04861v62.09723l-53.77778,31.04861l-53.77778,-31.04861z" fill="#e945f3"/><path d="M734.44444,306.45139l53.77778,-31.04861l53.77778,31.04861l-53.77778,31.04861z" fill="#ff68ff"/><path d="M842,306.45139v62.09723l-53.77778,31.04861v-62.09723z" fill="#752379"/></g><g><path d="M842,306.45139l53.77778,-31.04861l53.77778,31.04861v62.09723l-53.77778,31.04861l-53.77778,-31.04861z" fill="#ee3df5"/><path d="M842,306.45139l53.77778,-31.04861l53.77778,31.04861l-53.77778,31.04861z" fill="#ff5bff"/><path d="M949.55556,306.45139v62.09723l-53.77778,31.04861v-62.09723z" fill="#771e7b"/></g><g><path d="M949.55556,306.45139l53.77778,-31.04861l53.77778,31.04861v62.09723l-53.77778,31.04861l-53.77778,-31.04861z" fill="#e54df0"/><path d="M949.55556,306.45139l53.77778,-31.04861l53.77778,31.04861l-53.77778,31.04861z" fill="#ff73ff"/><path d="M1057.11111,306.45139v62.09723l-53.77778,31.04861v-62.09723z" fill="#732678"/></g><g><path d="M1057.11111,306.45139l53.77778,-31.04861l53.77778,31.04861v62.09723l-53.77778,31.04861l-53.77778,-31.04861z" fill="#dd57ea"/><path d="M1057.11111,306.45139l53.77778,-31.04861l53.77778,31.04861l-53.77778,31.04861z" fill="#ff83ff"/><path d="M1164.66667,306.45139v62.09723l-53.77778,31.04861v-62.09723z" fill="#6e2c75"/></g><g><path d="M1164.66667,306.45139l53.77778,-31.04861l53.77778,31.04861v62.09723l-53.77778,31.04861l-53.77778,-31.04861z" fill="#a993eb"/><path d="M1164.66667,306.45139l53.77778,-31.04861l53.77778,31.04861l-53.77778,31.04861z" fill="#fddcff"/><path d="M1272.22222,306.45139v62.09723l-53.77778,31.04861v-62.09723z" fill="#544975"/></g><g><path d="M-72.22222,399.59723l53.77778,-31.04861l53.77778,31.04861v62.09723l-53.77778,31.04861l-53.77778,-31.04861z" fill="#734e81"/><path d="M-72.22222,399.59723l53.77778,-31.04861l53.77778,31.04861l-53.77778,31.04861z" fill="#ac75c2"/><path d="M35.33333,399.59723v62.09723l-53.77778,31.04861v-62.09723z" fill="#392741"/></g><g><path d="M35.33333,399.59723l53.77778,-31.04861l53.77778,31.04861v62.09723l-53.77778,31.04861l-53.77778,-31.04861z" fill="#7fc4fd"/><path d="M35.33333,399.59723l53.77778,-31.04861l53.77778,31.04861l-53.77778,31.04861z" fill="#bfffff"/><path d="M142.88889,399.59723v62.09723l-53.77778,31.04861v-62.09723z" fill="#40627e"/></g><g><path d="M142.88889,399.59723l53.77778,-31.04861l53.77778,31.04861v62.09723l-53.77778,31.04861l-53.77778,-31.04861z" fill="#83bcf0"/><path d="M142.88889,399.59723l53.77778,-31.04861l53.77778,31.04861l-53.77778,31.04861z" fill="#c5ffff"/><path d="M250.44444,399.59723v62.09723l-53.77778,31.04861v-62.09723z" fill="#425e78"/></g><g><path d="M250.44444,399.59723l53.77778,-31.04861l53.77778,31.04861v62.09723l-53.77778,31.04861l-53.77778,-31.04861z" fill="#87b2e4"/><path d="M250.44444,399.59723l53.77778,-31.04861l53.77778,31.04861l-53.77778,31.04861z" fill="#caffff"/><path d="M358,399.59723v62.09723l-53.77778,31.04861v-62.09723z" fill="#435972"/></g><g><path d="M358,399.59723l53.77778,-31.04861l53.77778,31.04861v62.09723l-53.77778,31.04861l-53.77778,-31.04861z" fill="#7cd2ff"/><path d="M358,399.59723l53.77778,-31.04861l53.77778,31.04861l-53.77778,31.04861z" fill="#baffff"/><path d="M465.55556,399.59723v62.09723l-53.77778,31.04861v-62.09723z" fill="#3e697f"/></g><g><path d="M465.55556,399.59723l53.77778,-31.04861l53.77778,31.04861v62.09723l-53.77778,31.04861l-53.77778,-31.04861z" fill="#84a9d6"/><path d="M465.55556,399.59723l53.77778,-31.04861l53.77778,31.04861l-53.77778,31.04861z" fill="#c6fdff"/><path d="M573.11111,399.59723v62.09723l-53.77778,31.04861v-62.09723z" fill="#42546b"/></g><g><path d="M573.11111,399.59723l53.77778,-31.04861l53.77778,31.04861v62.09723l-53.77778,31.04861l-53.77778,-31.04861z" fill="#80cfff"/><path d="M573.11111,399.59723l53.77778,-31.04861l53.77778,31.04861l-53.77778,31.04861z" fill="#c0ffff"/><path d="M680.66667,399.59723v62.09723l-53.77778,31.04861v-62.09723z" fill="#40677f"/></g><g><path d="M680.66667,399.59723l53.77778,-31.04861l53.77778,31.04861v62.09723l-53.77778,31.04861l-53.77778,-31.04861z" fill="#79d8ff"/><path d="M680.66667,399.59723l53.77778,-31.04861l53.77778,31.04861l-53.77778,31.04861z" fill="#b5ffff"/><path d="M788.22222,399.59723v62.09723l-53.77778,31.04861v-62.09723z" fill="#3c6c7f"/></g><g><path d="M788.22222,399.59723l53.77778,-31.04861l53.77778,31.04861v62.09723l-53.77778,31.04861l-53.77778,-31.04861z" fill="#87a9db"/><path d="M788.22222,399.59723l53.77778,-31.04861l53.77778,31.04861l-53.77778,31.04861z" fill="#cafeff"/><path d="M895.77778,399.59723v62.09723l-53.77778,31.04861v-62.09723z" fill="#43556d"/></g><g><path d="M895.77778,399.59723l53.77778,-31.04861l53.77778,31.04861v62.09723l-53.77778,31.04861l-53.77778,-31.04861z" fill="#7dcff6"/><path d="M895.77778,399.59723l53.77778,-31.04861l53.77778,31.04861l-53.77778,31.04861z" fill="#bbffff"/><path d="M1003.33333,399.59723v62.09723l-53.77778,31.04861v-62.09723z" fill="#3e677b"/></g><g><path d="M1003.33333,399.59723l53.77778,-31.04861l53.77778,31.04861v62.09723l-53.77778,31.04861l-53.77778,-31.04861z" fill="#7bd7ff"/><path d="M1003.33333,399.59723l53.77778,-31.04861l53.77778,31.04861l-53.77778,31.04861z" fill="#b8ffff"/><path d="M1110.88889,399.59723v62.09723l-53.77778,31.04861v-62.09723z" fill="#3d6b80"/></g><g><path d="M1110.88889,399.59723l53.77778,-31.04861l53.77778,31.04861v62.09723l-53.77778,31.04861l-53.77778,-31.04861z" fill="#7bc0e6"/><path d="M1110.88889,399.59723l53.77778,-31.04861l53.77778,31.04861l-53.77778,31.04861z" fill="#b9ffff"/><path d="M1218.44444,399.59723v62.09723l-53.77778,31.04861v-62.09723z" fill="#3e6073"/></g><g><path d="M1218.44444,399.59723l53.77778,-31.04861l53.77778,31.04861v62.09723l-53.77778,31.04861l-53.77778,-31.04861z" fill="#5df2ff"/><path d="M1218.44444,399.59723l53.77778,-31.04861l53.77778,31.04861l-53.77778,31.04861z" fill="#8cffff"/><path d="M1326,399.59723v62.09723l-53.77778,31.04861v-62.09723z" fill="#2f7980"/></g><g><path d="M-126,492.74307l53.77778,-31.04861l53.77778,31.04861v62.09723l-53.77778,31.04861l-53.77778,-31.04861z" fill="#421f42"/><path d="M-126,492.74307l53.77778,-31.04861l53.77778,31.04861l-53.77778,31.04861z" fill="#632e63"/><path d="M-18.44444,492.74307v62.09723l-53.77778,31.04861v-62.09723z" fill="#210f21"/></g><g><path d="M-18.44444,492.74307l53.77778,-31.04861l53.77778,31.04861v62.09723l-53.77778,31.04861l-53.77778,-31.04861z" fill="#bb60e9"/><path d="M-18.44444,492.74307l53.77778,-31.04861l53.77778,31.04861l-53.77778,31.04861z" fill="#ff91ff"/><path d="M89.11111,492.74307v62.09723l-53.77778,31.04861v-62.09723z" fill="#5e3074"/></g><g><path d="M89.11111,492.74307l53.77778,-31.04861l53.77778,31.04861v62.09723l-53.77778,31.04861l-53.77778,-31.04861z" fill="#d554fe"/><path d="M89.11111,492.74307l53.77778,-31.04861l53.77778,31.04861l-53.77778,31.04861z" fill="#ff7eff"/><path d="M196.66667,492.74307v62.09723l-53.77778,31.04861v-62.09723z" fill="#6a2a7f"/></g><g><path d="M196.66667,492.74307l53.77778,-31.04861l53.77778,31.04861v62.09723l-53.77778,31.04861l-53.77778,-31.04861z" fill="#c467f9"/><path d="M196.66667,492.74307l53.77778,-31.04861l53.77778,31.04861l-53.77778,31.04861z" fill="#ff9bff"/><path d="M304.22222,492.74307v62.09723l-53.77778,31.04861v-62.09723z" fill="#62347c"/></g><g><path d="M304.22222,492.74307l53.77778,-31.04861l53.77778,31.04861v62.09723l-53.77778,31.04861l-53.77778,-31.04861z" fill="#b579fd"/><path d="M304.22222,492.74307l53.77778,-31.04861l53.77778,31.04861l-53.77778,31.04861z" fill="#ffb6ff"/><path d="M411.77778,492.74307v62.09723l-53.77778,31.04861v-62.09723z" fill="#5a3d7f"/></g><g><path d="M411.77778,492.74307l53.77778,-31.04861l53.77778,31.04861v62.09723l-53.77778,31.04861l-53.77778,-31.04861z" fill="#c561f4"/><path d="M411.77778,492.74307l53.77778,-31.04861l53.77778,31.04861l-53.77778,31.04861z" fill="#ff92ff"/><path d="M519.33333,492.74307v62.09723l-53.77778,31.04861v-62.09723z" fill="#63317a"/></g><g><path d="M519.33333,492.74307l53.77778,-31.04861l53.77778,31.04861v62.09723l-53.77778,31.04861l-53.77778,-31.04861z" fill="#b977f7"/><path d="M519.33333,492.74307l53.77778,-31.04861l53.77778,31.04861l-53.77778,31.04861z" fill="#ffb2ff"/><path d="M626.88889,492.74307v62.09723l-53.77778,31.04861v-62.09723z" fill="#5c3b7c"/></g><g><path d="M626.88889,492.74307l53.77778,-31.04861l53.77778,31.04861v62.09723l-53.77778,31.04861l-53.77778,-31.04861z" fill="#ac8eff"/><path d="M626.88889,492.74307l53.77778,-31.04861l53.77778,31.04861l-53.77778,31.04861z" fill="#ffd5ff"/><path d="M734.44444,492.74307v62.09723l-53.77778,31.04861v-62.09723z" fill="#564780"/></g><g><path d="M734.44444,492.74307l53.77778,-31.04861l53.77778,31.04861v62.09723l-53.77778,31.04861l-53.77778,-31.04861z" fill="#b481fc"/><path d="M734.44444,492.74307l53.77778,-31.04861l53.77778,31.04861l-53.77778,31.04861z" fill="#ffc1ff"/><path d="M842,492.74307v62.09723l-53.77778,31.04861v-62.09723z" fill="#5a407e"/></g><g><path d="M842,492.74307l53.77778,-31.04861l53.77778,31.04861v62.09723l-53.77778,31.04861l-53.77778,-31.04861z" fill="#9e92ee"/><path d="M842,492.74307l53.77778,-31.04861l53.77778,31.04861l-53.77778,31.04861z" fill="#eddbff"/><path d="M949.55556,492.74307v62.09723l-53.77778,31.04861v-62.09723z" fill="#4f4977"/></g><g><path d="M949.55556,492.74307l53.77778,-31.04861l53.77778,31.04861v62.09723l-53.77778,31.04861l-53.77778,-31.04861z" fill="#70dcfe"/><path d="M949.55556,492.74307l53.77778,-31.04861l53.77778,31.04861l-53.77778,31.04861z" fill="#a8ffff"/><path d="M1057.11111,492.74307v62.09723l-53.77778,31.04861v-62.09723z" fill="#386e7f"/></g><g><path d="M1057.11111,492.74307l53.77778,-31.04861l53.77778,31.04861v62.09723l-53.77778,31.04861l-53.77778,-31.04861z" fill="#62f2f8"/><path d="M1057.11111,492.74307l53.77778,-31.04861l53.77778,31.04861l-53.77778,31.04861z" fill="#93ffff"/><path d="M1164.66667,492.74307v62.09723l-53.77778,31.04861v-62.09723z" fill="#31797c"/></g><g><path d="M1164.66667,492.74307l53.77778,-31.04861l53.77778,31.04861v62.09723l-53.77778,31.04861l-53.77778,-31.04861z" fill="#5ccece"/><path d="M1164.66667,492.74307l53.77778,-31.04861l53.77778,31.04861l-53.77778,31.04861z" fill="#8affff"/><path d="M1272.22222,492.74307v62.09723l-53.77778,31.04861v-62.09723z" fill="#2e6767"/></g><g><path d="M-72.22222,585.88892l53.77778,-31.04861l53.77778,31.04861v62.09723l-53.77778,31.04861l-53.77778,-31.04861z" fill="#654083"/><path d="M-72.22222,585.88892l53.77778,-31.04861l53.77778,31.04861l-53.77778,31.04861z" fill="#9860c4"/><path d="M35.33333,585.88892v62.09723l-53.77778,31.04861v-62.09723z" fill="#332041"/></g><g><path d="M35.33333,585.88892l53.77778,-31.04861l53.77778,31.04861v62.09723l-53.77778,31.04861l-53.77778,-31.04861z" fill="#be4fec"/><path d="M35.33333,585.88892l53.77778,-31.04861l53.77778,31.04861l-53.77778,31.04861z" fill="#ff77ff"/><path d="M142.88889,585.88892v62.09723l-53.77778,31.04861v-62.09723z" fill="#5f2876"/></g><g><path d="M142.88889,585.88892l53.77778,-31.04861l53.77778,31.04861v62.09723l-53.77778,31.04861l-53.77778,-31.04861z" fill="#bf43d1"/><path d="M142.88889,585.88892l53.77778,-31.04861l53.77778,31.04861l-53.77778,31.04861z" fill="#ff64ff"/><path d="M250.44444,585.88892v62.09723l-53.77778,31.04861v-62.09723z" fill="#5f2168"/></g><g><path d="M250.44444,585.88892l53.77778,-31.04861l53.77778,31.04861v62.09723l-53.77778,31.04861l-53.77778,-31.04861z" fill="#c34eec"/><path d="M250.44444,585.88892l53.77778,-31.04861l53.77778,31.04861l-53.77778,31.04861z" fill="#ff75ff"/><path d="M358,585.88892v62.09723l-53.77778,31.04861v-62.09723z" fill="#612776"/></g><g><path d="M358,585.88892l53.77778,-31.04861l53.77778,31.04861v62.09723l-53.77778,31.04861l-53.77778,-31.04861z" fill="#b666fe"/><path d="M358,585.88892l53.77778,-31.04861l53.77778,31.04861l-53.77778,31.04861z" fill="#ff9aff"/><path d="M465.55556,585.88892v62.09723l-53.77778,31.04861v-62.09723z" fill="#5b337f"/></g><g><path d="M465.55556,585.88892l53.77778,-31.04861l53.77778,31.04861v62.09723l-53.77778,31.04861l-53.77778,-31.04861z" fill="#b46af9"/><path d="M465.55556,585.88892l53.77778,-31.04861l53.77778,31.04861l-53.77778,31.04861z" fill="#ff9fff"/><path d="M573.11111,585.88892v62.09723l-53.77778,31.04861v-62.09723z" fill="#5a357c"/></g><g><path d="M573.11111,585.88892l53.77778,-31.04861l53.77778,31.04861v62.09723l-53.77778,31.04861l-53.77778,-31.04861z" fill="#ca4efd"/><path d="M573.11111,585.88892l53.77778,-31.04861l53.77778,31.04861l-53.77778,31.04861z" fill="#ff75ff"/><path d="M680.66667,585.88892v62.09723l-53.77778,31.04861v-62.09723z" fill="#65277e"/></g><g><path d="M680.66667,585.88892l53.77778,-31.04861l53.77778,31.04861v62.09723l-53.77778,31.04861l-53.77778,-31.04861z" fill="#a087fb"/><path d="M680.66667,585.88892l53.77778,-31.04861l53.77778,31.04861l-53.77778,31.04861z" fill="#f0caff"/><path d="M788.22222,585.88892v62.09723l-53.77778,31.04861v-62.09723z" fill="#50437e"/></g><g><path d="M788.22222,585.88892l53.77778,-31.04861l53.77778,31.04861v62.09723l-53.77778,31.04861l-53.77778,-31.04861z" fill="#9f8afd"/><path d="M788.22222,585.88892l53.77778,-31.04861l53.77778,31.04861l-53.77778,31.04861z" fill="#efd0ff"/><path d="M895.77778,585.88892v62.09723l-53.77778,31.04861v-62.09723z" fill="#50457e"/></g><g><path d="M895.77778,585.88892l53.77778,-31.04861l53.77778,31.04861v62.09723l-53.77778,31.04861l-53.77778,-31.04861z" fill="#8ea4fe"/><path d="M895.77778,585.88892l53.77778,-31.04861l53.77778,31.04861l-53.77778,31.04861z" fill="#d5f5ff"/><path d="M1003.33333,585.88892v62.09723l-53.77778,31.04861v-62.09723z" fill="#47527f"/></g><g><path d="M1003.33333,585.88892l53.77778,-31.04861l53.77778,31.04861v62.09723l-53.77778,31.04861l-53.77778,-31.04861z" fill="#69d2fd"/><path d="M1003.33333,585.88892l53.77778,-31.04861l53.77778,31.04861l-53.77778,31.04861z" fill="#9effff"/><path d="M1110.88889,585.88892v62.09723l-53.77778,31.04861v-62.09723z" fill="#35697e"/></g><g><path d="M1110.88889,585.88892l53.77778,-31.04861l53.77778,31.04861v62.09723l-53.77778,31.04861l-53.77778,-31.04861z" fill="#46ecec"/><path d="M1110.88889,585.88892l53.77778,-31.04861l53.77778,31.04861l-53.77778,31.04861z" fill="#68ffff"/><path d="M1218.44444,585.88892v62.09723l-53.77778,31.04861v-62.09723z" fill="#237676"/></g><g><path d="M1218.44444,585.88892l53.77778,-31.04861l53.77778,31.04861v62.09723l-53.77778,31.04861l-53.77778,-31.04861z" fill="#3bffff"/><path d="M1218.44444,585.88892l53.77778,-31.04861l53.77778,31.04861l-53.77778,31.04861z" fill="#58ffff"/><path d="M1326,585.88892v62.09723l-53.77778,31.04861v-62.09723z" fill="#1d8080"/></g><g><path d="M-126,679.03476l53.77778,-31.04861l53.77778,31.04861v62.09723l-53.77778,31.04861l-53.77778,-31.04861z" fill="#1a1a1a"/><path d="M-126,679.03476l53.77778,-31.04861l53.77778,31.04861l-53.77778,31.04861z" fill="#262626"/><path d="M-18.44444,679.03476v62.09723l-53.77778,31.04861v-62.09723z" fill="#0d0d0d"/></g><g><path d="M-18.44444,679.03476l53.77778,-31.04861l53.77778,31.04861v62.09723l-53.77778,31.04861l-53.77778,-31.04861z" fill="#727db0"/><path d="M-18.44444,679.03476l53.77778,-31.04861l53.77778,31.04861l-53.77778,31.04861z" fill="#abbcff"/><path d="M89.11111,679.03476v62.09723l-53.77778,31.04861v-62.09723z" fill="#393f58"/></g><g><path d="M89.11111,679.03476l53.77778,-31.04861l53.77778,31.04861v62.09723l-53.77778,31.04861l-53.77778,-31.04861z" fill="#9254a4"/><path d="M89.11111,679.03476l53.77778,-31.04861l53.77778,31.04861l-53.77778,31.04861z" fill="#dc7ff6"/><path d="M196.66667,679.03476v62.09723l-53.77778,31.04861v-62.09723z" fill="#492a52"/></g><g><path d="M196.66667,679.03476l53.77778,-31.04861l53.77778,31.04861v62.09723l-53.77778,31.04861l-53.77778,-31.04861z" fill="#7a577a"/><path d="M196.66667,679.03476l53.77778,-31.04861l53.77778,31.04861l-53.77778,31.04861z" fill="#b782b7"/><path d="M304.22222,679.03476v62.09723l-53.77778,31.04861v-62.09723z" fill="#3d2b3d"/></g><g><path d="M304.22222,679.03476l53.77778,-31.04861l53.77778,31.04861v62.09723l-53.77778,31.04861l-53.77778,-31.04861z" fill="#668696"/><path d="M304.22222,679.03476l53.77778,-31.04861l53.77778,31.04861l-53.77778,31.04861z" fill="#99c8e2"/><path d="M411.77778,679.03476v62.09723l-53.77778,31.04861v-62.09723z" fill="#33434b"/></g><g><path d="M411.77778,679.03476l53.77778,-31.04861l53.77778,31.04861v62.09723l-53.77778,31.04861l-53.77778,-31.04861z" fill="#8f67c2"/><path d="M411.77778,679.03476l53.77778,-31.04861l53.77778,31.04861l-53.77778,31.04861z" fill="#d79bff"/><path d="M519.33333,679.03476v62.09723l-53.77778,31.04861v-62.09723z" fill="#483461"/></g><g><path d="M519.33333,679.03476l53.77778,-31.04861l53.77778,31.04861v62.09723l-53.77778,31.04861l-53.77778,-31.04861z" fill="#9366c4"/><path d="M519.33333,679.03476l53.77778,-31.04861l53.77778,31.04861l-53.77778,31.04861z" fill="#dc9aff"/><path d="M626.88889,679.03476v62.09723l-53.77778,31.04861v-62.09723z" fill="#493362"/></g><g><path d="M626.88889,679.03476l53.77778,-31.04861l53.77778,31.04861v62.09723l-53.77778,31.04861l-53.77778,-31.04861z" fill="#7b5a80"/><path d="M626.88889,679.03476l53.77778,-31.04861l53.77778,31.04861l-53.77778,31.04861z" fill="#b987bf"/><path d="M734.44444,679.03476v62.09723l-53.77778,31.04861v-62.09723z" fill="#3e2d40"/></g><g><path d="M734.44444,679.03476l53.77778,-31.04861l53.77778,31.04861v62.09723l-53.77778,31.04861l-53.77778,-31.04861z" fill="#50a8a8"/><path d="M734.44444,679.03476l53.77778,-31.04861l53.77778,31.04861l-53.77778,31.04861z" fill="#78fbfb"/><path d="M842,679.03476v62.09723l-53.77778,31.04861v-62.09723z" fill="#285454"/></g><g><path d="M842,679.03476l53.77778,-31.04861l53.77778,31.04861v62.09723l-53.77778,31.04861l-53.77778,-31.04861z" fill="#54a9a9"/><path d="M842,679.03476l53.77778,-31.04861l53.77778,31.04861l-53.77778,31.04861z" fill="#7efefe"/><path d="M949.55556,679.03476v62.09723l-53.77778,31.04861v-62.09723z" fill="#2a5555"/></g><g><path d="M949.55556,679.03476l53.77778,-31.04861l53.77778,31.04861v62.09723l-53.77778,31.04861l-53.77778,-31.04861z" fill="#636969"/><path d="M949.55556,679.03476l53.77778,-31.04861l53.77778,31.04861l-53.77778,31.04861z" fill="#959d9d"/><path d="M1057.11111,679.03476v62.09723l-53.77778,31.04861v-62.09723z" fill="#323434"/></g><g><path d="M1057.11111,679.03476l53.77778,-31.04861l53.77778,31.04861v62.09723l-53.77778,31.04861l-53.77778,-31.04861z" fill="#50a9a9"/><path d="M1057.11111,679.03476l53.77778,-31.04861l53.77778,31.04861l-53.77778,31.04861z" fill="#78fdfd"/><path d="M1164.66667,679.03476v62.09723l-53.77778,31.04861v-62.09723z" fill="#285454"/></g><g><path d="M1164.66667,679.03476l53.77778,-31.04861l53.77778,31.04861v62.09723l-53.77778,31.04861l-53.77778,-31.04861z" fill="#51aeae"/><path d="M1164.66667,679.03476l53.77778,-31.04861l53.77778,31.04861l-53.77778,31.04861z" fill="#79ffff"/><path d="M1272.22222,679.03476v62.09723l-53.77778,31.04861v-62.09723z" fill="#285757"/></g><g><path d="M-72.22222,772.1806l53.77778,-31.04861l53.77778,31.04861v62.09723l-53.77778,31.04861l-53.77778,-31.04861z" fill="#000000"/><path d="M-72.22222,772.1806l53.77778,-31.04861l53.77778,31.04861l-53.77778,31.04861z" fill="#ffffff"/><path d="M35.33333,772.1806v62.09723l-53.77778,31.04861v-62.09723z" fill="#000000"/></g><g><path d="M35.33333,772.1806l53.77778,-31.04861l53.77778,31.04861v62.09723l-53.77778,31.04861l-53.77778,-31.04861z" fill="#000000"/><path d="M35.33333,772.1806l53.77778,-31.04861l53.77778,31.04861l-53.77778,31.04861z" fill="#ffffff"/><path d="M142.88889,772.1806v62.09723l-53.77778,31.04861v-62.09723z" fill="#000000"/></g><g><path d="M142.88889,772.1806l53.77778,-31.04861l53.77778,31.04861v62.09723l-53.77778,31.04861l-53.77778,-31.04861z" fill="#000000"/><path d="M142.88889,772.1806l53.77778,-31.04861l53.77778,31.04861l-53.77778,31.04861z" fill="#ffffff"/><path d="M250.44444,772.1806v62.09723l-53.77778,31.04861v-62.09723z" fill="#000000"/></g><g><path d="M250.44444,772.1806l53.77778,-31.04861l53.77778,31.04861v62.09723l-53.77778,31.04861l-53.77778,-31.04861z" fill="#000000"/><path d="M250.44444,772.1806l53.77778,-31.04861l53.77778,31.04861l-53.77778,31.04861z" fill="#ffffff"/><path d="M358,772.1806v62.09723l-53.77778,31.04861v-62.09723z" fill="#000000"/></g><g><path d="M358,772.1806l53.77778,-31.04861l53.77778,31.04861v62.09723l-53.77778,31.04861l-53.77778,-31.04861z" fill="#000000"/><path d="M358,772.1806l53.77778,-31.04861l53.77778,31.04861l-53.77778,31.04861z" fill="#ffffff"/><path d="M465.55556,772.1806v62.09723l-53.77778,31.04861v-62.09723z" fill="#000000"/></g><g><path d="M465.55556,772.1806l53.77778,-31.04861l53.77778,31.04861v62.09723l-53.77778,31.04861l-53.77778,-31.04861z" fill="#000000"/><path d="M465.55556,772.1806l53.77778,-31.04861l53.77778,31.04861l-53.77778,31.04861z" fill="#ffffff"/><path d="M573.11111,772.1806v62.09723l-53.77778,31.04861v-62.09723z" fill="#000000"/></g><g><path d="M573.11111,772.1806l53.77778,-31.04861l53.77778,31.04861v62.09723l-53.77778,31.04861l-53.77778,-31.04861z" fill="#000000"/><path d="M573.11111,772.1806l53.77778,-31.04861l53.77778,31.04861l-53.77778,31.04861z" fill="#ffffff"/><path d="M680.66667,772.1806v62.09723l-53.77778,31.04861v-62.09723z" fill="#000000"/></g><g><path d="M680.66667,772.1806l53.77778,-31.04861l53.77778,31.04861v62.09723l-53.77778,31.04861l-53.77778,-31.04861z" fill="#000000"/><path d="M680.66667,772.1806l53.77778,-31.04861l53.77778,31.04861l-53.77778,31.04861z" fill="#ffffff"/><path d="M788.22222,772.1806v62.09723l-53.77778,31.04861v-62.09723z" fill="#000000"/></g><g><path d="M788.22222,772.1806l53.77778,-31.04861l53.77778,31.04861v62.09723l-53.77778,31.04861l-53.77778,-31.04861z" fill="#000000"/><path d="M788.22222,772.1806l53.77778,-31.04861l53.77778,31.04861l-53.77778,31.04861z" fill="#ffffff"/><path d="M895.77778,772.1806v62.09723l-53.77778,31.04861v-62.09723z" fill="#000000"/></g><g><path d="M895.77778,772.1806l53.77778,-31.04861l53.77778,31.04861v62.09723l-53.77778,31.04861l-53.77778,-31.04861z" fill="#000000"/><path d="M895.77778,772.1806l53.77778,-31.04861l53.77778,31.04861l-53.77778,31.04861z" fill="#ffffff"/><path d="M1003.33333,772.1806v62.09723l-53.77778,31.04861v-62.09723z" fill="#000000"/></g><g><path d="M1003.33333,772.1806l53.77778,-31.04861l53.77778,31.04861v62.09723l-53.77778,31.04861l-53.77778,-31.04861z" fill="#000000"/><path d="M1003.33333,772.1806l53.77778,-31.04861l53.77778,31.04861l-53.77778,31.04861z" fill="#ffffff"/><path d="M1110.88889,772.1806v62.09723l-53.77778,31.04861v-62.09723z" fill="#000000"/></g><g><path d="M1110.88889,772.1806l53.77778,-31.04861l53.77778,31.04861v62.09723l-53.77778,31.04861l-53.77778,-31.04861z" fill="#000000"/><path d="M1110.88889,772.1806l53.77778,-31.04861l53.77778,31.04861l-53.77778,31.04861z" fill="#ffffff"/><path d="M1218.44444,772.1806v62.09723l-53.77778,31.04861v-62.09723z" fill="#000000"/></g><g><path d="M1218.44444,772.1806l53.77778,-31.04861l53.77778,31.04861v62.09723l-53.77778,31.04861l-53.77778,-31.04861z" fill="#000000"/><path d="M1218.44444,772.1806l53.77778,-31.04861l53.77778,31.04861l-53.77778,31.04861z" fill="#ffffff"/><path d="M1326,772.1806v62.09723l-53.77778,31.04861v-62.09723z" fill="#000000"/></g><g><path d="M-126,865.32645l53.77778,-31.04861l53.77778,31.04861v62.09723l-53.77778,31.04861l-53.77778,-31.04861z" fill="#000000"/><path d="M-126,865.32645l53.77778,-31.04861l53.77778,31.04861l-53.77778,31.04861z" fill="#ffffff"/><path d="M-18.44444,865.32645v62.09723l-53.77778,31.04861v-62.09723z" fill="#000000"/></g><g><path d="M-18.44444,865.32645l53.77778,-31.04861l53.77778,31.04861v62.09723l-53.77778,31.04861l-53.77778,-31.04861z" fill="#000000"/><path d="M-18.44444,865.32645l53.77778,-31.04861l53.77778,31.04861l-53.77778,31.04861z" fill="#ffffff"/><path d="M89.11111,865.32645v62.09723l-53.77778,31.04861v-62.09723z" fill="#000000"/></g><g><path d="M89.11111,865.32645l53.77778,-31.04861l53.77778,31.04861v62.09723l-53.77778,31.04861l-53.77778,-31.04861z" fill="#000000"/><path d="M89.11111,865.32645l53.77778,-31.04861l53.77778,31.04861l-53.77778,31.04861z" fill="#ffffff"/><path d="M196.66667,865.32645v62.09723l-53.77778,31.04861v-62.09723z" fill="#000000"/></g><g><path d="M196.66667,865.32645l53.77778,-31.04861l53.77778,31.04861v62.09723l-53.77778,31.04861l-53.77778,-31.04861z" fill="#000000"/><path d="M196.66667,865.32645l53.77778,-31.04861l53.77778,31.04861l-53.77778,31.04861z" fill="#ffffff"/><path d="M304.22222,865.32645v62.09723l-53.77778,31.04861v-62.09723z" fill="#000000"/></g><g><path d="M304.22222,865.32645l53.77778,-31.04861l53.77778,31.04861v62.09723l-53.77778,31.04861l-53.77778,-31.04861z" fill="#000000"/><path d="M304.22222,865.32645l53.77778,-31.04861l53.77778,31.04861l-53.77778,31.04861z" fill="#ffffff"/><path d="M411.77778,865.32645v62.09723l-53.77778,31.04861v-62.09723z" fill="#000000"/></g><g><path d="M411.77778,865.32645l53.77778,-31.04861l53.77778,31.04861v62.09723l-53.77778,31.04861l-53.77778,-31.04861z" fill="#000000"/><path d="M411.77778,865.32645l53.77778,-31.04861l53.77778,31.04861l-53.77778,31.04861z" fill="#ffffff"/><path d="M519.33333,865.32645v62.09723l-53.77778,31.04861v-62.09723z" fill="#000000"/></g><g><path d="M519.33333,865.32645l53.77778,-31.04861l53.77778,31.04861v62.09723l-53.77778,31.04861l-53.77778,-31.04861z" fill="#000000"/><path d="M519.33333,865.32645l53.77778,-31.04861l53.77778,31.04861l-53.77778,31.04861z" fill="#ffffff"/><path d="M626.88889,865.32645v62.09723l-53.77778,31.04861v-62.09723z" fill="#000000"/></g><g><path d="M626.88889,865.32645l53.77778,-31.04861l53.77778,31.04861v62.09723l-53.77778,31.04861l-53.77778,-31.04861z" fill="#000000"/><path d="M626.88889,865.32645l53.77778,-31.04861l53.77778,31.04861l-53.77778,31.04861z" fill="#ffffff"/><path d="M734.44444,865.32645v62.09723l-53.77778,31.04861v-62.09723z" fill="#000000"/></g><g><path d="M734.44444,865.32645l53.77778,-31.04861l53.77778,31.04861v62.09723l-53.77778,31.04861l-53.77778,-31.04861z" fill="#000000"/><path d="M734.44444,865.32645l53.77778,-31.04861l53.77778,31.04861l-53.77778,31.04861z" fill="#ffffff"/><path d="M842,865.32645v62.09723l-53.77778,31.04861v-62.09723z" fill="#000000"/></g><g><path d="M842,865.32645l53.77778,-31.04861l53.77778,31.04861v62.09723l-53.77778,31.04861l-53.77778,-31.04861z" fill="#000000"/><path d="M842,865.32645l53.77778,-31.04861l53.77778,31.04861l-53.77778,31.04861z" fill="#ffffff"/><path d="M949.55556,865.32645v62.09723l-53.77778,31.04861v-62.09723z" fill="#000000"/></g><g><path d="M949.55556,865.32645l53.77778,-31.04861l53.77778,31.04861v62.09723l-53.77778,31.04861l-53.77778,-31.04861z" fill="#000000"/><path d="M949.55556,865.32645l53.77778,-31.04861l53.77778,31.04861l-53.77778,31.04861z" fill="#ffffff"/><path d="M1057.11111,865.32645v62.09723l-53.77778,31.04861v-62.09723z" fill="#000000"/></g><g><path d="M1057.11111,865.32645l53.77778,-31.04861l53.77778,31.04861v62.09723l-53.77778,31.04861l-53.77778,-31.04861z" fill="#000000"/><path d="M1057.11111,865.32645l53.77778,-31.04861l53.77778,31.04861l-53.77778,31.04861z" fill="#ffffff"/><path d="M1164.66667,865.32645v62.09723l-53.77778,31.04861v-62.09723z" fill="#000000"/></g><g><path d="M1164.66667,865.32645l53.77778,-31.04861l53.77778,31.04861v62.09723l-53.77778,31.04861l-53.77778,-31.04861z" fill="#000000"/><path d="M1164.66667,865.32645l53.77778,-31.04861l53.77778,31.04861l-53.77778,31.04861z" fill="#ffffff"/><path d="M1272.22222,865.32645v62.09723l-53.77778,31.04861v-62.09723z" fill="#000000"/></g></g></g></svg>