<svg version="1.1" xmlns="http://www.w3.org/2000/svg" xmlns:xlink="http://www.w3.org/1999/xlink" width="1200" height="675" viewBox="0,0,1200,675"><g fill="none" fill-rule="nonzero" stroke="none" stroke-width="1" stroke-linecap="butt" stroke-linejoin="miter" stroke-miterlimit="10" stroke-dasharray="" stroke-dashoffset="0" font-family="none" font-weight="none" font-size="none" text-anchor="none" style="mix-blend-mode: normal"><g><g><path d="M-126,-221.37506l96.8,-55.88751l96.8,55.88751v111.77501l-96.8,55.88751l-96.8,-55.88751z" fill="#000000"/><path d="M-126,-221.37506l96.8,-55.88751l96.8,55.88751l-96.8,55.88751z" fill="#ffffff"/><path d="M67.6,-221.37506v111.77501l-96.8,55.88751v-111.77501z" fill="#000000"/></g><g><path d="M67.6,-221.37506l96.8,-55.88751l96.8,55.88751v111.77501l-96.8,55.88751l-96.8,-55.88751z" fill="#000000"/><path d="M67.6,-221.37506l96.8,-55.88751l96.8,55.88751l-96.8,55.88751z" fill="#ffffff"/><path d="M261.2,-221.37506v111.77501l-96.8,55.88751v-111.77501z" fill="#000000"/></g><g><path d="M261.2,-221.37506l96.8,-55.88751l96.8,55.88751v111.77501l-96.8,55.88751l-96.8,-55.88751z" fill="#000000"/><path d="M261.2,-221.37506l96.8,-55.88751l96.8,55.88751l-96.8,55.88751z" fill="#ffffff"/><path d="M454.8,-221.37506v111.77501l-96.8,55.88751v-111.77501z" fill="#000000"/></g><g><path d="M454.8,-221.37506l96.8,-55.88751l96.8,55.88751v111.77501l-96.8,55.88751l-96.8,-55.88751z" fill="#000000"/><path d="M454.8,-221.37506l96.8,-55.88751l96.8,55.88751l-96.8,55.88751z" fill="#ffffff"/><path d="M648.4,-221.37506v111.77501l-96.8,55.88751v-111.77501z" fill="#000000"/></g><g><path d="M648.4,-221.37506l96.8,-55.88751l96.8,55.88751v111.77501l-96.8,55.88751l-96.8,-55.88751z" fill="#000000"/><path d="M648.4,-221.37506l96.8,-55.88751l96.8,55.88751l-96.8,55.88751z" fill="#ffffff"/><path d="M842,-221.37506v111.77501l-96.8,55.88751v-111.77501z" fill="#000000"/></g><g><path d="M842,-221.37506l96.8,-55.88751l96.8,55.88751v111.77501l-96.8,55.88751l-96.8,-55.88751z" fill="#000000"/><path d="M842,-221.37506l96.8,-55.88751l96.8,55.88751l-96.8,55.88751z" fill="#ffffff"/><path d="M1035.6,-221.37506v111.77501l-96.8,55.88751v-111.77501z" fill="#000000"/></g><g><path d="M1035.6,-221.37506l96.8,-55.88751l96.8,55.88751v111.77501l-96.8,55.88751l-96.8,-55.88751z" fill="#000000"/><path d="M1035.6,-221.37506l96.8,-55.88751l96.8,55.88751l-96.8,55.88751z" fill="#ffffff"/><path d="M1229.2,-221.37506v111.77501l-96.8,55.88751v-111.77501z" fill="#000000"/></g><g><path d="M-29.2,-53.71254l96.8,-55.88751l96.8,55.88751v111.77501l-96.8,55.88751l-96.8,-55.88751z" fill="#bf7bc8"/><path d="M-29.2,-53.71254l96.8,-55.88751l96.8,55.88751l-96.8,55.88751z" fill="#ffb8ff"/><path d="M164.4,-53.71254v111.77501l-96.8,55.88751v-111.77501z" fill="#603d64"/></g><g><path d="M164.4,-53.71254l96.8,-55.88751l96.8,55.88751v111.77501l-96.8,55.88751l-96.8,-55.88751z" fill="#c977cc"/><path d="M164.4,-53.71254l96.8,-55.88751l96.8,55.88751l-96.8,55.88751z" fill="#ffb3ff"/><path d="M358,-53.71254v111.77501l-96.8,55.88751v-111.77501z" fill="#643c66"/></g><g><path d="M358,-53.71254l96.8,-55.88751l96.8,55.88751v111.77501l-96.8,55.88751l-96.8,-55.88751z" fill="#c47ac4"/><path d="M358,-53.71254l96.8,-55.88751l96.8,55.88751l-96.8,55.88751z" fill="#ffb8ff"/><path d="M551.6,-53.71254v111.77501l-96.8,55.88751v-111.77501z" fill="#623d62"/></g><g><path d="M551.6,-53.71254l96.8,-55.88751l96.8,55.88751v111.77501l-96.8,55.88751l-96.8,-55.88751z" fill="#bb7ebb"/><path d="M551.6,-53.71254l96.8,-55.88751l96.8,55.88751l-96.8,55.88751z" fill="#ffbeff"/><path d="M745.2,-53.71254v111.77501l-96.8,55.88751v-111.77501z" fill="#5e3f5e"/></g><g><path d="M745.2,-53.71254l96.8,-55.88751l96.8,55.88751v111.77501l-96.8,55.88751l-96.8,-55.88751z" fill="#b67cb6"/><path d="M745.2,-53.71254l96.8,-55.88751l96.8,55.88751l-96.8,55.88751z" fill="#ffbaff"/><path d="M938.8,-53.71254v111.77501l-96.8,55.88751v-111.77501z" fill="#5b3e5b"/></g><g><path d="M938.8,-53.71254l96.8,-55.88751l96.8,55.88751v111.77501l-96.8,55.88751l-96.8,-55.88751z" fill="#b57fb6"/><path d="M938.8,-53.71254l96.8,-55.88751l96.8,55.88751l-96.8,55.88751z" fill="#ffbeff"/><path d="M1132.4,-53.71254v111.77501l-96.8,55.88751v-111.77501z" fill="#5a3f5b"/></g><g><path d="M1132.4,-53.71254l96.8,-55.88751l96.8,55.88751v111.77501l-96.8,55.88751l-96.8,-55.88751z" fill="#bb77bb"/><path d="M1132.4,-53.71254l96.8,-55.88751l96.8,55.88751l-96.8,55.88751z" fill="#ffb3ff"/><path d="M1326,-53.71254v111.77501l-96.8,55.88751v-111.77501z" fill="#5e3c5e"/></g><g><path d="M-126,113.94998l96.8,-55.88751l96.8,55.88751v111.77501l-96.8,55.88751l-96.8,-55.88751z" fill="#527792"/><path d="M-126,113.94998l96.8,-55.88751l96.8,55.88751l-96.8,55.88751z" fill="#7bb2dc"/><path d="M67.6,113.94998v111.77501l-96.8,55.88751v-111.77501z" fill="#293b49"/></g><g><path d="M67.6,113.94998l96.8,-55.88751l96.8,55.88751v111.77501l-96.8,55.88751l-96.8,-55.88751z" fill="#9e7cdc"/><path d="M67.6,113.94998l96.8,-55.88751l96.8,55.88751l-96.8,55.88751z" fill="#edbaff"/><path d="M261.2,113.94998v111.77501l-96.8,55.88751v-111.77501z" fill="#4f3e6e"/></g><g><path d="M261.2,113.94998l96.8,-55.88751l96.8,55.88751v111.77501l-96.8,55.88751l-96.8,-55.88751z" fill="#997cd6"/><path d="M261.2,113.94998l96.8,-55.88751l96.8,55.88751l-96.8,55.88751z" fill="#e5baff"/><path d="M454.8,113.94998v111.77501l-96.8,55.88751v-111.77501z" fill="#4c3e6b"/></g><g><path d="M454.8,113.94998l96.8,-55.88751l96.8,55.88751v111.77501l-96.8,55.88751l-96.8,-55.88751z" fill="#a170c2"/><path d="M454.8,113.94998l96.8,-55.88751l96.8,55.88751l-96.8,55.88751z" fill="#f2a8ff"/><path d="M648.4,113.94998v111.77501l-96.8,55.88751v-111.77501z" fill="#513861"/></g><g><path d="M648.4,113.94998l96.8,-55.88751l96.8,55.88751v111.77501l-96.8,55.88751l-96.8,-55.88751z" fill="#9d79db"/><path d="M648.4,113.94998l96.8,-55.88751l96.8,55.88751l-96.8,55.88751z" fill="#ebb6ff"/><path d="M842,113.94998v111.77501l-96.8,55.88751v-111.77501z" fill="#4e3d6d"/></g><g><path d="M842,113.94998l96.8,-55.88751l96.8,55.88751v111.77501l-96.8,55.88751l-96.8,-55.88751z" fill="#8e7dcd"/><path d="M842,113.94998l96.8,-55.88751l96.8,55.88751l-96.8,55.88751z" fill="#d6bcff"/><path d="M1035.6,113.94998v111.77501l-96.8,55.88751v-111.77501z" fill="#473f67"/></g><g><path d="M1035.6,113.94998l96.8,-55.88751l96.8,55.88751v111.77501l-96.8,55.88751l-96.8,-55.88751z" fill="#aa68aa"/><path d="M1035.6,113.94998l96.8,-55.88751l96.8,55.88751l-96.8,55.88751z" fill="#fe9cff"/><path d="M1229.2,113.94998v111.77501l-96.8,55.88751v-111.77501z" fill="#553455"/></g><g><path d="M-29.2,281.61249l96.8,-55.88751l96.8,55.88751v111.77501l-96.8,55.88751l-96.8,-55.88751z" fill="#7e99eb"/><path d="M-29.2,281.61249l96.8,-55.88751l96.8,55.88751l-96.8,55.88751z" fill="#bce5ff"/><path d="M164.4,281.61249v111.77501l-96.8,55.88751v-111.77501z" fill="#3f4c75"/></g><g><path d="M164.4,281.61249l96.8,-55.88751l96.8,55.88751v111.77501l-96.8,55.88751l-96.8,-55.88751z" fill="#819bf4"/><path d="M164.4,281.61249l96.8,-55.88751l96.8,55.88751l-96.8,55.88751z" fill="#c1e8ff"/><path d="M358,281.61249v111.77501l-96.8,55.88751v-111.77501z" fill="#404d7a"/></g><g><path d="M358,281.61249l96.8,-55.88751l96.8,55.88751v111.77501l-96.8,55.88751l-96.8,-55.88751z" fill="#78a6ef"/><path d="M358,281.61249l96.8,-55.88751l96.8,55.88751l-96.8,55.88751z" fill="#b4f9ff"/><path d="M551.6,281.61249v111.77501l-96.8,55.88751v-111.77501z" fill="#3c5377"/></g><g><path d="M551.6,281.61249l96.8,-55.88751l96.8,55.88751v111.77501l-96.8,55.88751l-96.8,-55.88751z" fill="#65b1ee"/><path d="M551.6,281.61249l96.8,-55.88751l96.8,55.88751l-96.8,55.88751z" fill="#98ffff"/><path d="M745.2,281.61249v111.77501l-96.8,55.88751v-111.77501z" fill="#335977"/></g><g><path d="M745.2,281.61249l96.8,-55.88751l96.8,55.88751v111.77501l-96.8,55.88751l-96.8,-55.88751z" fill="#77a0ed"/><path d="M745.2,281.61249l96.8,-55.88751l96.8,55.88751l-96.8,55.88751z" fill="#b2f0ff"/><path d="M938.8,281.61249v111.77501l-96.8,55.88751v-111.77501z" fill="#3b5076"/></g><g><path d="M938.8,281.61249l96.8,-55.88751l96.8,55.88751v111.77501l-96.8,55.88751l-96.8,-55.88751z" fill="#73ace4"/><path d="M938.8,281.61249l96.8,-55.88751l96.8,55.88751l-96.8,55.88751z" fill="#acffff"/><path d="M1132.4,281.61249v111.77501l-96.8,55.88751v-111.77501z" fill="#395672"/></g><g><path d="M1132.4,281.61249l96.8,-55.88751l96.8,55.88751v111.77501l-96.8,55.88751l-96.8,-55.88751z" fill="#85a6dc"/><path d="M1132.4,281.61249l96.8,-55.88751l96.8,55.88751l-96.8,55.88751z" fill="#c8f9ff"/><path d="M1326,281.61249v111.77501l-96.8,55.88751v-111.77501z" fill="#43536e"/></g><g><path d="M-126,449.27501l96.8,-55.88751l96.8,55.88751v111.77501l-96.8,55.88751l-96.8,-55.88751z" fill="#605c81"/><path d="M-126,449.27501l96.8,-55.88751l96.8,55.88751l-96.8,55.88751z" fill="#908ac1"/><path d="M67.6,449.27501v111.77501l-96.8,55.88751v-111.77501z" fill="#302e40"/></g><g><path d="M67.6,449.27501l96.8,-55.88751l96.8,55.88751v111.77501l-96.8,55.88751l-96.8,-55.88751z" fill="#87bcfc"/><path d="M67.6,449.27501l96.8,-55.88751l96.8,55.88751l-96.8,55.88751z" fill="#caffff"/><path d="M261.2,449.27501v111.77501l-96.8,55.88751v-111.77501z" fill="#435e7e"/></g><g><path d="M261.2,449.27501l96.8,-55.88751l96.8,55.88751v111.77501l-96.8,55.88751l-96.8,-55.88751z" fill="#92a8f4"/><path d="M261.2,449.27501l96.8,-55.88751l96.8,55.88751l-96.8,55.88751z" fill="#dbfcff"/><path d="M454.8,449.27501v111.77501l-96.8,55.88751v-111.77501z" fill="#49547a"/></g><g><path d="M454.8,449.27501l96.8,-55.88751l96.8,55.88751v111.77501l-96.8,55.88751l-96.8,-55.88751z" fill="#8ab1e9"/><path d="M454.8,449.27501l96.8,-55.88751l96.8,55.88751l-96.8,55.88751z" fill="#ceffff"/><path d="M648.4,449.27501v111.77501l-96.8,55.88751v-111.77501z" fill="#455975"/></g><g><path d="M648.4,449.27501l96.8,-55.88751l96.8,55.88751v111.77501l-96.8,55.88751l-96.8,-55.88751z" fill="#8abbf9"/><path d="M648.4,449.27501l96.8,-55.88751l96.8,55.88751l-96.8,55.88751z" fill="#cfffff"/><path d="M842,449.27501v111.77501l-96.8,55.88751v-111.77501z" fill="#455e7c"/></g><g><path d="M842,449.27501l96.8,-55.88751l96.8,55.88751v111.77501l-96.8,55.88751l-96.8,-55.88751z" fill="#82c1ef"/><path d="M842,449.27501l96.8,-55.88751l96.8,55.88751l-96.8,55.88751z" fill="#c3ffff"/><path d="M1035.6,449.27501v111.77501l-96.8,55.88751v-111.77501z" fill="#416178"/></g><g><path d="M1035.6,449.27501l96.8,-55.88751l96.8,55.88751v111.77501l-96.8,55.88751l-96.8,-55.88751z" fill="#79c9e7"/><path d="M1035.6,449.27501l96.8,-55.88751l96.8,55.88751l-96.8,55.88751z" fill="#b6ffff"/><path d="M1229.2,449.27501v111.77501l-96.8,55.88751v-111.77501z" fill="#3d6474"/></g><g><path d="M-29.2,616.93753l96.8,-55.88751l96.8,55.88751v111.77501l-96.8,55.88751l-96.8,-55.88751z" fill="#7a8ce3"/><path d="M-29.2,616.93753l96.8,-55.88751l96.8,55.88751l-96.8,55.88751z" fill="#b8d2ff"/><path d="M164.4,616.93753v111.77501l-96.8,55.88751v-111.77501z" fill="#3d4672"/></g><g><path d="M164.4,616.93753l96.8,-55.88751l96.8,55.88751v111.77501l-96.8,55.88751l-96.8,-55.88751z" fill="#8b7dd4"/><path d="M164.4,616.93753l96.8,-55.88751l96.8,55.88751l-96.8,55.88751z" fill="#d1bbff"/><path d="M358,616.93753v111.77501l-96.8,55.88751v-111.77501z" fill="#463e6a"/></g><g><path d="M358,616.93753l96.8,-55.88751l96.8,55.88751v111.77501l-96.8,55.88751l-96.8,-55.88751z" fill="#6aaef0"/><path d="M358,616.93753l96.8,-55.88751l96.8,55.88751l-96.8,55.88751z" fill="#9fffff"/><path d="M551.6,616.93753v111.77501l-96.8,55.88751v-111.77501z" fill="#355778"/></g><g><path d="M551.6,616.93753l96.8,-55.88751l96.8,55.88751v111.77501l-96.8,55.88751l-96.8,-55.88751z" fill="#8592da"/><path d="M551.6,616.93753l96.8,-55.88751l96.8,55.88751l-96.8,55.88751z" fill="#c7daff"/><path d="M745.2,616.93753v111.77501l-96.8,55.88751v-111.77501z" fill="#42496d"/></g><g><path d="M745.2,616.93753l96.8,-55.88751l96.8,55.88751v111.77501l-96.8,55.88751l-96.8,-55.88751z" fill="#79b7de"/><path d="M745.2,616.93753l96.8,-55.88751l96.8,55.88751l-96.8,55.88751z" fill="#b6ffff"/><path d="M938.8,616.93753v111.77501l-96.8,55.88751v-111.77501z" fill="#3d5b6f"/></g><g><path d="M938.8,616.93753l96.8,-55.88751l96.8,55.88751v111.77501l-96.8,55.88751l-96.8,-55.88751z" fill="#71bad4"/><path d="M938.8,616.93753l96.8,-55.88751l96.8,55.88751l-96.8,55.88751z" fill="#aaffff"/><path d="M1132.4,616.93753v111.77501l-96.8,55.88751v-111.77501z" fill="#395d6a"/></g><g><path d="M1132.4,616.93753l96.8,-55.88751l96.8,55.88751v111.77501l-96.8,55.88751l-96.8,-55.88751z" fill="#65cfe1"/><path d="M1132.4,616.93753l96.8,-55.88751l96.8,55.88751l-96.8,55.88751z" fill="#98ffff"/><path d="M1326,616.93753v111.77501l-96.8,55.88751v-111.77501z" fill="#336871"/></g><g><path d="M-126,784.60005l96.8,-55.88751l96.8,55.88751v111.77501l-96.8,55.88751l-96.8,-55.88751z" fill="#000000"/><path d="M-126,784.60005l96.8,-55.88751l96.8,55.88751l-96.8,55.88751z" fill="#ffffff"/><path d="M67.6,784.60005v111.77501l-96.8,55.88751v-111.77501z" fill="#000000"/></g><g><path d="M67.6,784.60005l96.8,-55.88751l96.8,55.88751v111.77501l-96.8,55.88751l-96.8,-55.88751z" fill="#000000"/><path d="M67.6,784.60005l96.8,-55.88751l96.8,55.88751l-96.8,55.88751z" fill="#ffffff"/><path d="M261.2,784.60005v111.77501l-96.8,55.88751v-111.77501z" fill="#000000"/></g><g><path d="M261.2,784.60005l96.8,-55.88751l96.8,55.88751v111.77501l-96.8,55.88751l-96.8,-55.88751z" fill="#000000"/><path d="M261.2,784.60005l96.8,-55.88751l96.8,55.88751l-96.8,55.88751z" fill="#ffffff"/><path d="M454.8,784.60005v111.77501l-96.8,55.88751v-111.77501z" fill="#000000"/></g><g><path d="M454.8,784.60005l96.8,-55.88751l96.8,55.88751v111.77501l-96.8,55.88751l-96.8,-55.88751z" fill="#000000"/><path d="M454.8,784.60005l96.8,-55.88751l96.8,55.88751l-96.8,55.88751z" fill="#ffffff"/><path d="M648.4,784.60005v111.77501l-96.8,55.88751v-111.77501z" fill="#000000"/></g><g><path d="M648.4,784.60005l96.8,-55.88751l96.8,55.88751v111.77501l-96.8,55.88751l-96.8,-55.88751z" fill="#000000"/><path d="M648.4,784.60005l96.8,-55.88751l96.8,55.88751l-96.8,55.88751z" fill="#ffffff"/><path d="M842,784.60005v111.77501l-96.8,55.88751v-111.77501z" fill="#000000"/></g><g><path d="M842,784.60005l96.8,-55.88751l96.8,55.88751v111.77501l-96.8,55.88751l-96.8,-55.88751z" fill="#000000"/><path d="M842,784.60005l96.8,-55.88751l96.8,55.88751l-96.8,55.88751z" fill="#ffffff"/><path d="M1035.6,784.60005v111.77501l-96.8,55.88751v-111.77501z" fill="#000000"/></g><g><path d="M1035.6,784.60005l96.8,-55.88751l96.8,55.88751v111.77501l-96.8,55.88751l-96.8,-55.88751z" fill="#000000"/><path d="M1035.6,784.60005l96.8,-55.88751l96.8,55.88751l-96.8,55.88751z" fill="#ffffff"/><path d="M1229.2,784.60005v111.77501l-96.8,55.88751v-111.77501z" fill="#000000"/></g></g></g></svg>