<svg version="1.1" xmlns="http://www.w3.org/2000/svg" xmlns:xlink="http://www.w3.org/1999/xlink" width="1200" height="630" viewBox="0,0,1200,630"><g fill="none" fill-rule="nonzero" stroke="none" stroke-width="1" stroke-linecap="butt" stroke-linejoin="miter" stroke-miterlimit="10" stroke-dasharray="" stroke-dashoffset="0" font-family="none" font-weight="none" font-size="none" text-anchor="none" style="mix-blend-mode: normal"><g><g><path d="M-126,-243.87506l96.8,-55.88751l96.8,55.88751v111.77501l-96.8,55.88751l-96.8,-55.88751z" fill="#000000"/><path d="M-126,-243.87506l96.8,-55.88751l96.8,55.88751l-96.8,55.88751z" fill="#ffffff"/><path d="M67.6,-243.87506v111.77501l-96.8,55.88751v-111.77501z" fill="#000000"/></g><g><path d="M67.6,-243.87506l96.8,-55.88751l96.8,55.88751v111.77501l-96.8,55.88751l-96.8,-55.88751z" fill="#000000"/><path d="M67.6,-243.87506l96.8,-55.88751l96.8,55.88751l-96.8,55.88751z" fill="#ffffff"/><path d="M261.2,-243.87506v111.77501l-96.8,55.88751v-111.77501z" fill="#000000"/></g><g><path d="M261.2,-243.87506l96.8,-55.88751l96.8,55.88751v111.77501l-96.8,55.88751l-96.8,-55.88751z" fill="#000000"/><path d="M261.2,-243.87506l96.8,-55.88751l96.8,55.88751l-96.8,55.88751z" fill="#ffffff"/><path d="M454.8,-243.87506v111.77501l-96.8,55.88751v-111.77501z" fill="#000000"/></g><g><path d="M454.8,-243.87506l96.8,-55.88751l96.8,55.88751v111.77501l-96.8,55.88751l-96.8,-55.88751z" fill="#000000"/><path d="M454.8,-243.87506l96.8,-55.88751l96.8,55.88751l-96.8,55.88751z" fill="#ffffff"/><path d="M648.4,-243.87506v111.77501l-96.8,55.88751v-111.77501z" fill="#000000"/></g><g><path d="M648.4,-243.87506l96.8,-55.88751l96.8,55.88751v111.77501l-96.8,55.88751l-96.8,-55.88751z" fill="#000000"/><path d="M648.4,-243.87506l96.8,-55.88751l96.8,55.88751l-96.8,55.88751z" fill="#ffffff"/><path d="M842,-243.87506v111.77501l-96.8,55.88751v-111.77501z" fill="#000000"/></g><g><path d="M842,-243.87506l96.8,-55.88751l96.8,55.88751v111.77501l-96.8,55.88751l-96.8,-55.88751z" fill="#000000"/><path d="M842,-243.87506l96.8,-55.88751l96.8,55.88751l-96.8,55.88751z" fill="#ffffff"/><path d="M1035.6,-243.87506v111.77501l-96.8,55.88751v-111.77501z" fill="#000000"/></g><g><path d="M1035.6,-243.87506l96.8,-55.88751l96.8,55.88751v111.77501l-96.8,55.88751l-96.8,-55.88751z" fill="#000000"/><path d="M1035.6,-243.87506l96.8,-55.88751l96.8,55.88751l-96.8,55.88751z" fill="#ffffff"/><path d="M1229.2,-243.87506v111.77501l-96.8,55.88751v-111.77501z" fill="#000000"/></g><g><path d="M-29.2,-76.21254l96.8,-55.88751l96.8,55.88751v111.77501l-96.8,55.88751l-96.8,-55.88751z" fill="#e88fd3"/><path d="M-29.2,-76.21254l96.8,-55.88751l96.8,55.88751l-96.8,55.88751z" fill="#ffd7ff"/><path d="M164.4,-76.21254v111.77501l-96.8,55.88751v-111.77501z" fill="#744869"/></g><g><path d="M164.4,-76.21254l96.8,-55.88751l96.8,55.88751v111.77501l-96.8,55.88751l-96.8,-55.88751z" fill="#ed85f2"/><path d="M164.4,-76.21254l96.8,-55.88751l96.8,55.88751l-96.8,55.88751z" fill="#ffc7ff"/><path d="M358,-76.21254v111.77501l-96.8,55.88751v-111.77501z" fill="#774279"/></g><g><path d="M358,-76.21254l96.8,-55.88751l96.8,55.88751v111.77501l-96.8,55.88751l-96.8,-55.88751z" fill="#f184f1"/><path d="M358,-76.21254l96.8,-55.88751l96.8,55.88751l-96.8,55.88751z" fill="#ffc6ff"/><path d="M551.6,-76.21254v111.77501l-96.8,55.88751v-111.77501z" fill="#794279"/></g><g><path d="M551.6,-76.21254l96.8,-55.88751l96.8,55.88751v111.77501l-96.8,55.88751l-96.8,-55.88751z" fill="#f289f2"/><path d="M551.6,-76.21254l96.8,-55.88751l96.8,55.88751l-96.8,55.88751z" fill="#ffcdff"/><path d="M745.2,-76.21254v111.77501l-96.8,55.88751v-111.77501z" fill="#794479"/></g><g><path d="M745.2,-76.21254l96.8,-55.88751l96.8,55.88751v111.77501l-96.8,55.88751l-96.8,-55.88751z" fill="#f181f1"/><path d="M745.2,-76.21254l96.8,-55.88751l96.8,55.88751l-96.8,55.88751z" fill="#ffc1ff"/><path d="M938.8,-76.21254v111.77501l-96.8,55.88751v-111.77501z" fill="#794079"/></g><g><path d="M938.8,-76.21254l96.8,-55.88751l96.8,55.88751v111.77501l-96.8,55.88751l-96.8,-55.88751z" fill="#ef86ef"/><path d="M938.8,-76.21254l96.8,-55.88751l96.8,55.88751l-96.8,55.88751z" fill="#ffcaff"/><path d="M1132.4,-76.21254v111.77501l-96.8,55.88751v-111.77501z" fill="#784378"/></g><g><path d="M1132.4,-76.21254l96.8,-55.88751l96.8,55.88751v111.77501l-96.8,55.88751l-96.8,-55.88751z" fill="#f18cf1"/><path d="M1132.4,-76.21254l96.8,-55.88751l96.8,55.88751l-96.8,55.88751z" fill="#ffd2ff"/><path d="M1326,-76.21254v111.77501l-96.8,55.88751v-111.77501z" fill="#784678"/></g><g><path d="M-126,91.44998l96.8,-55.88751l96.8,55.88751v111.77501l-96.8,55.88751l-96.8,-55.88751z" fill="#8b79ce"/><path d="M-126,91.44998l96.8,-55.88751l96.8,55.88751l-96.8,55.88751z" fill="#d1b6ff"/><path d="M67.6,91.44998v111.77501l-96.8,55.88751v-111.77501z" fill="#463d67"/></g><g><path d="M67.6,91.44998l96.8,-55.88751l96.8,55.88751v111.77501l-96.8,55.88751l-96.8,-55.88751z" fill="#ad84f6"/><path d="M67.6,91.44998l96.8,-55.88751l96.8,55.88751l-96.8,55.88751z" fill="#ffc7ff"/><path d="M261.2,91.44998v111.77501l-96.8,55.88751v-111.77501z" fill="#57427b"/></g><g><path d="M261.2,91.44998l96.8,-55.88751l96.8,55.88751v111.77501l-96.8,55.88751l-96.8,-55.88751z" fill="#c071f7"/><path d="M261.2,91.44998l96.8,-55.88751l96.8,55.88751l-96.8,55.88751z" fill="#ffa9ff"/><path d="M454.8,91.44998v111.77501l-96.8,55.88751v-111.77501z" fill="#60387c"/></g><g><path d="M454.8,91.44998l96.8,-55.88751l96.8,55.88751v111.77501l-96.8,55.88751l-96.8,-55.88751z" fill="#b87af6"/><path d="M454.8,91.44998l96.8,-55.88751l96.8,55.88751l-96.8,55.88751z" fill="#ffb8ff"/><path d="M648.4,91.44998v111.77501l-96.8,55.88751v-111.77501z" fill="#5c3d7b"/></g><g><path d="M648.4,91.44998l96.8,-55.88751l96.8,55.88751v111.77501l-96.8,55.88751l-96.8,-55.88751z" fill="#c279f7"/><path d="M648.4,91.44998l96.8,-55.88751l96.8,55.88751l-96.8,55.88751z" fill="#ffb6ff"/><path d="M842,91.44998v111.77501l-96.8,55.88751v-111.77501z" fill="#613d7b"/></g><g><path d="M842,91.44998l96.8,-55.88751l96.8,55.88751v111.77501l-96.8,55.88751l-96.8,-55.88751z" fill="#d35ef8"/><path d="M842,91.44998l96.8,-55.88751l96.8,55.88751l-96.8,55.88751z" fill="#ff8dff"/><path d="M1035.6,91.44998v111.77501l-96.8,55.88751v-111.77501z" fill="#692f7c"/></g><g><path d="M1035.6,91.44998l96.8,-55.88751l96.8,55.88751v111.77501l-96.8,55.88751l-96.8,-55.88751z" fill="#c784f7"/><path d="M1035.6,91.44998l96.8,-55.88751l96.8,55.88751l-96.8,55.88751z" fill="#ffc6ff"/><path d="M1229.2,91.44998v111.77501l-96.8,55.88751v-111.77501z" fill="#63427c"/></g><g><path d="M-29.2,259.11249l96.8,-55.88751l96.8,55.88751v111.77501l-96.8,55.88751l-96.8,-55.88751z" fill="#9c8bfa"/><path d="M-29.2,259.11249l96.8,-55.88751l96.8,55.88751l-96.8,55.88751z" fill="#ead1ff"/><path d="M164.4,259.11249v111.77501l-96.8,55.88751v-111.77501z" fill="#4e467d"/></g><g><path d="M164.4,259.11249l96.8,-55.88751l96.8,55.88751v111.77501l-96.8,55.88751l-96.8,-55.88751z" fill="#9f86fe"/><path d="M164.4,259.11249l96.8,-55.88751l96.8,55.88751l-96.8,55.88751z" fill="#eec9ff"/><path d="M358,259.11249v111.77501l-96.8,55.88751v-111.77501z" fill="#4f437f"/></g><g><path d="M358,259.11249l96.8,-55.88751l96.8,55.88751v111.77501l-96.8,55.88751l-96.8,-55.88751z" fill="#9e8efe"/><path d="M358,259.11249l96.8,-55.88751l96.8,55.88751l-96.8,55.88751z" fill="#edd5ff"/><path d="M551.6,259.11249v111.77501l-96.8,55.88751v-111.77501z" fill="#4f477f"/></g><g><path d="M551.6,259.11249l96.8,-55.88751l96.8,55.88751v111.77501l-96.8,55.88751l-96.8,-55.88751z" fill="#9d8dfd"/><path d="M551.6,259.11249l96.8,-55.88751l96.8,55.88751l-96.8,55.88751z" fill="#ecd4ff"/><path d="M745.2,259.11249v111.77501l-96.8,55.88751v-111.77501z" fill="#4f477f"/></g><g><path d="M745.2,259.11249l96.8,-55.88751l96.8,55.88751v111.77501l-96.8,55.88751l-96.8,-55.88751z" fill="#9398fb"/><path d="M745.2,259.11249l96.8,-55.88751l96.8,55.88751l-96.8,55.88751z" fill="#dde4ff"/><path d="M938.8,259.11249v111.77501l-96.8,55.88751v-111.77501z" fill="#4a4c7e"/></g><g><path d="M938.8,259.11249l96.8,-55.88751l96.8,55.88751v111.77501l-96.8,55.88751l-96.8,-55.88751z" fill="#9a96fd"/><path d="M938.8,259.11249l96.8,-55.88751l96.8,55.88751l-96.8,55.88751z" fill="#e7e1ff"/><path d="M1132.4,259.11249v111.77501l-96.8,55.88751v-111.77501z" fill="#4d4b7f"/></g><g><path d="M1132.4,259.11249l96.8,-55.88751l96.8,55.88751v111.77501l-96.8,55.88751l-96.8,-55.88751z" fill="#cd8bfb"/><path d="M1132.4,259.11249l96.8,-55.88751l96.8,55.88751l-96.8,55.88751z" fill="#ffd1ff"/><path d="M1326,259.11249v111.77501l-96.8,55.88751v-111.77501z" fill="#66467e"/></g><g><path d="M-126,426.77501l96.8,-55.88751l96.8,55.88751v111.77501l-96.8,55.88751l-96.8,-55.88751z" fill="#9262a6"/><path d="M-126,426.77501l96.8,-55.88751l96.8,55.88751l-96.8,55.88751z" fill="#db93f9"/><path d="M67.6,426.77501v111.77501l-96.8,55.88751v-111.77501z" fill="#493153"/></g><g><path d="M67.6,426.77501l96.8,-55.88751l96.8,55.88751v111.77501l-96.8,55.88751l-96.8,-55.88751z" fill="#c690fc"/><path d="M67.6,426.77501l96.8,-55.88751l96.8,55.88751l-96.8,55.88751z" fill="#ffd8ff"/><path d="M261.2,426.77501v111.77501l-96.8,55.88751v-111.77501z" fill="#63487e"/></g><g><path d="M261.2,426.77501l96.8,-55.88751l96.8,55.88751v111.77501l-96.8,55.88751l-96.8,-55.88751z" fill="#ca89f9"/><path d="M261.2,426.77501l96.8,-55.88751l96.8,55.88751l-96.8,55.88751z" fill="#ffcdff"/><path d="M454.8,426.77501v111.77501l-96.8,55.88751v-111.77501z" fill="#65447d"/></g><g><path d="M454.8,426.77501l96.8,-55.88751l96.8,55.88751v111.77501l-96.8,55.88751l-96.8,-55.88751z" fill="#c48cf1"/><path d="M454.8,426.77501l96.8,-55.88751l96.8,55.88751l-96.8,55.88751z" fill="#ffd1ff"/><path d="M648.4,426.77501v111.77501l-96.8,55.88751v-111.77501z" fill="#624678"/></g><g><path d="M648.4,426.77501l96.8,-55.88751l96.8,55.88751v111.77501l-96.8,55.88751l-96.8,-55.88751z" fill="#c792fb"/><path d="M648.4,426.77501l96.8,-55.88751l96.8,55.88751l-96.8,55.88751z" fill="#ffdbff"/><path d="M842,426.77501v111.77501l-96.8,55.88751v-111.77501z" fill="#63497e"/></g><g><path d="M842,426.77501l96.8,-55.88751l96.8,55.88751v111.77501l-96.8,55.88751l-96.8,-55.88751z" fill="#bca5f8"/><path d="M842,426.77501l96.8,-55.88751l96.8,55.88751l-96.8,55.88751z" fill="#fff7ff"/><path d="M1035.6,426.77501v111.77501l-96.8,55.88751v-111.77501z" fill="#5e527c"/></g><g><path d="M1035.6,426.77501l96.8,-55.88751l96.8,55.88751v111.77501l-96.8,55.88751l-96.8,-55.88751z" fill="#a7caee"/><path d="M1035.6,426.77501l96.8,-55.88751l96.8,55.88751l-96.8,55.88751z" fill="#fbffff"/><path d="M1229.2,426.77501v111.77501l-96.8,55.88751v-111.77501z" fill="#546577"/></g><g><path d="M-29.2,594.43753l96.8,-55.88751l96.8,55.88751v111.77501l-96.8,55.88751l-96.8,-55.88751z" fill="#8e82e5"/><path d="M-29.2,594.43753l96.8,-55.88751l96.8,55.88751l-96.8,55.88751z" fill="#d4c3ff"/><path d="M164.4,594.43753v111.77501l-96.8,55.88751v-111.77501z" fill="#474172"/></g><g><path d="M164.4,594.43753l96.8,-55.88751l96.8,55.88751v111.77501l-96.8,55.88751l-96.8,-55.88751z" fill="#9182d7"/><path d="M164.4,594.43753l96.8,-55.88751l96.8,55.88751l-96.8,55.88751z" fill="#dac3ff"/><path d="M358,594.43753v111.77501l-96.8,55.88751v-111.77501z" fill="#49416c"/></g><g><path d="M358,594.43753l96.8,-55.88751l96.8,55.88751v111.77501l-96.8,55.88751l-96.8,-55.88751z" fill="#8594ea"/><path d="M358,594.43753l96.8,-55.88751l96.8,55.88751l-96.8,55.88751z" fill="#c8deff"/><path d="M551.6,594.43753v111.77501l-96.8,55.88751v-111.77501z" fill="#434a75"/></g><g><path d="M551.6,594.43753l96.8,-55.88751l96.8,55.88751v111.77501l-96.8,55.88751l-96.8,-55.88751z" fill="#977fed"/><path d="M551.6,594.43753l96.8,-55.88751l96.8,55.88751l-96.8,55.88751z" fill="#e3bfff"/><path d="M745.2,594.43753v111.77501l-96.8,55.88751v-111.77501z" fill="#4c4077"/></g><g><path d="M745.2,594.43753l96.8,-55.88751l96.8,55.88751v111.77501l-96.8,55.88751l-96.8,-55.88751z" fill="#a879f9"/><path d="M745.2,594.43753l96.8,-55.88751l96.8,55.88751l-96.8,55.88751z" fill="#fbb5ff"/><path d="M938.8,594.43753v111.77501l-96.8,55.88751v-111.77501z" fill="#543c7d"/></g><g><path d="M938.8,594.43753l96.8,-55.88751l96.8,55.88751v111.77501l-96.8,55.88751l-96.8,-55.88751z" fill="#d062f0"/><path d="M938.8,594.43753l96.8,-55.88751l96.8,55.88751l-96.8,55.88751z" fill="#ff92ff"/><path d="M1132.4,594.43753v111.77501l-96.8,55.88751v-111.77501z" fill="#683178"/></g><g><path d="M1132.4,594.43753l96.8,-55.88751l96.8,55.88751v111.77501l-96.8,55.88751l-96.8,-55.88751z" fill="#97bdf0"/><path d="M1132.4,594.43753l96.8,-55.88751l96.8,55.88751l-96.8,55.88751z" fill="#e2ffff"/><path d="M1326,594.43753v111.77501l-96.8,55.88751v-111.77501z" fill="#4b5e78"/></g><g><path d="M-126,762.10005l96.8,-55.88751l96.8,55.88751v111.77501l-96.8,55.88751l-96.8,-55.88751z" fill="#000000"/><path d="M-126,762.10005l96.8,-55.88751l96.8,55.88751l-96.8,55.88751z" fill="#ffffff"/><path d="M67.6,762.10005v111.77501l-96.8,55.88751v-111.77501z" fill="#000000"/></g><g><path d="M67.6,762.10005l96.8,-55.88751l96.8,55.88751v111.77501l-96.8,55.88751l-96.8,-55.88751z" fill="#000000"/><path d="M67.6,762.10005l96.8,-55.88751l96.8,55.88751l-96.8,55.88751z" fill="#ffffff"/><path d="M261.2,762.10005v111.77501l-96.8,55.88751v-111.77501z" fill="#000000"/></g><g><path d="M261.2,762.10005l96.8,-55.88751l96.8,55.88751v111.77501l-96.8,55.88751l-96.8,-55.88751z" fill="#000000"/><path d="M261.2,762.10005l96.8,-55.88751l96.8,55.88751l-96.8,55.88751z" fill="#ffffff"/><path d="M454.8,762.10005v111.77501l-96.8,55.88751v-111.77501z" fill="#000000"/></g><g><path d="M454.8,762.10005l96.8,-55.88751l96.8,55.88751v111.77501l-96.8,55.88751l-96.8,-55.88751z" fill="#000000"/><path d="M454.8,762.10005l96.8,-55.88751l96.8,55.88751l-96.8,55.88751z" fill="#ffffff"/><path d="M648.4,762.10005v111.77501l-96.8,55.88751v-111.77501z" fill="#000000"/></g><g><path d="M648.4,762.10005l96.8,-55.88751l96.8,55.88751v111.77501l-96.8,55.88751l-96.8,-55.88751z" fill="#000000"/><path d="M648.4,762.10005l96.8,-55.88751l96.8,55.88751l-96.8,55.88751z" fill="#ffffff"/><path d="M842,762.10005v111.77501l-96.8,55.88751v-111.77501z" fill="#000000"/></g><g><path d="M842,762.10005l96.8,-55.88751l96.8,55.88751v111.77501l-96.8,55.88751l-96.8,-55.88751z" fill="#000000"/><path d="M842,762.10005l96.8,-55.88751l96.8,55.88751l-96.8,55.88751z" fill="#ffffff"/><path d="M1035.6,762.10005v111.77501l-96.8,55.88751v-111.77501z" fill="#000000"/></g><g><path d="M1035.6,762.10005l96.8,-55.88751l96.8,55.88751v111.77501l-96.8,55.88751l-96.8,-55.88751z" fill="#000000"/><path d="M1035.6,762.10005l96.8,-55.88751l96.8,55.88751l-96.8,55.88751z" fill="#ffffff"/><path d="M1229.2,762.10005v111.77501l-96.8,55.88751v-111.77501z" fill="#000000"/></g></g></g></svg>