<svg version="1.1" xmlns="http://www.w3.org/2000/svg" xmlns:xlink="http://www.w3.org/1999/xlink" width="1200" height="630" viewBox="0,0,1200,630"><g fill="none" fill-rule="nonzero" stroke="none" stroke-width="1" stroke-linecap="butt" stroke-linejoin="miter" stroke-miterlimit="10" stroke-dasharray="" stroke-dashoffset="0" font-family="none" font-weight="none" font-size="none" text-anchor="none" style="mix-blend-mode: normal"><g><g><path d="M-126,-243.87506l96.8,-55.88751l96.8,55.88751v111.77501l-96.8,55.88751l-96.8,-55.88751z" fill="#000000"/><path d="M-126,-243.87506l96.8,-55.88751l96.8,55.88751l-96.8,55.88751z" fill="#ffffff"/><path d="M67.6,-243.87506v111.77501l-96.8,55.88751v-111.77501z" fill="#000000"/></g><g><path d="M67.6,-243.87506l96.8,-55.88751l96.8,55.88751v111.77501l-96.8,55.88751l-96.8,-55.88751z" fill="#000000"/><path d="M67.6,-243.87506l96.8,-55.88751l96.8,55.88751l-96.8,55.88751z" fill="#ffffff"/><path d="M261.2,-243.87506v111.77501l-96.8,55.88751v-111.77501z" fill="#000000"/></g><g><path d="M261.2,-243.87506l96.8,-55.88751l96.8,55.88751v111.77501l-96.8,55.88751l-96.8,-55.88751z" fill="#000000"/><path d="M261.2,-243.87506l96.8,-55.88751l96.8,55.88751l-96.8,55.88751z" fill="#ffffff"/><path d="M454.8,-243.87506v111.77501l-96.8,55.88751v-111.77501z" fill="#000000"/></g><g><path d="M454.8,-243.87506l96.8,-55.88751l96.8,55.88751v111.77501l-96.8,55.88751l-96.8,-55.88751z" fill="#000000"/><path d="M454.8,-243.87506l96.8,-55.88751l96.8,55.88751l-96.8,55.88751z" fill="#ffffff"/><path d="M648.4,-243.87506v111.77501l-96.8,55.88751v-111.77501z" fill="#000000"/></g><g><path d="M648.4,-243.87506l96.8,-55.88751l96.8,55.88751v111.77501l-96.8,55.88751l-96.8,-55.88751z" fill="#000000"/><path d="M648.4,-243.87506l96.8,-55.88751l96.8,55.88751l-96.8,55.88751z" fill="#ffffff"/><path d="M842,-243.87506v111.77501l-96.8,55.88751v-111.77501z" fill="#000000"/></g><g><path d="M842,-243.87506l96.8,-55.88751l96.8,55.88751v111.77501l-96.8,55.88751l-96.8,-55.88751z" fill="#000000"/><path d="M842,-243.87506l96.8,-55.88751l96.8,55.88751l-96.8,55.88751z" fill="#ffffff"/><path d="M1035.6,-243.87506v111.77501l-96.8,55.88751v-111.77501z" fill="#000000"/></g><g><path d="M1035.6,-243.87506l96.8,-55.88751l96.8,55.88751v111.77501l-96.8,55.88751l-96.8,-55.88751z" fill="#000000"/><path d="M1035.6,-243.87506l96.8,-55.88751l96.8,55.88751l-96.8,55.88751z" fill="#ffffff"/><path d="M1229.2,-243.87506v111.77501l-96.8,55.88751v-111.77501z" fill="#000000"/></g><g><path d="M-29.2,-76.21254l96.8,-55.88751l96.8,55.88751v111.77501l-96.8,55.88751l-96.8,-55.88751z" fill="#c772cf"/><path d="M-29.2,-76.21254l96.8,-55.88751l96.8,55.88751l-96.8,55.88751z" fill="#ffaaff"/><path d="M164.4,-76.21254v111.77501l-96.8,55.88751v-111.77501z" fill="#633967"/></g><g><path d="M164.4,-76.21254l96.8,-55.88751l96.8,55.88751v111.77501l-96.8,55.88751l-96.8,-55.88751z" fill="#c66ec9"/><path d="M164.4,-76.21254l96.8,-55.88751l96.8,55.88751l-96.8,55.88751z" fill="#ffa5ff"/><path d="M358,-76.21254v111.77501l-96.8,55.88751v-111.77501z" fill="#633765"/></g><g><path d="M358,-76.21254l96.8,-55.88751l96.8,55.88751v111.77501l-96.8,55.88751l-96.8,-55.88751z" fill="#c76ec7"/><path d="M358,-76.21254l96.8,-55.88751l96.8,55.88751l-96.8,55.88751z" fill="#ffa5ff"/><path d="M551.6,-76.21254v111.77501l-96.8,55.88751v-111.77501z" fill="#643764"/></g><g><path d="M551.6,-76.21254l96.8,-55.88751l96.8,55.88751v111.77501l-96.8,55.88751l-96.8,-55.88751z" fill="#c372c3"/><path d="M551.6,-76.21254l96.8,-55.88751l96.8,55.88751l-96.8,55.88751z" fill="#ffabff"/><path d="M745.2,-76.21254v111.77501l-96.8,55.88751v-111.77501z" fill="#613961"/></g><g><path d="M745.2,-76.21254l96.8,-55.88751l96.8,55.88751v111.77501l-96.8,55.88751l-96.8,-55.88751z" fill="#be6fbe"/><path d="M745.2,-76.21254l96.8,-55.88751l96.8,55.88751l-96.8,55.88751z" fill="#ffa7ff"/><path d="M938.8,-76.21254v111.77501l-96.8,55.88751v-111.77501z" fill="#5f385f"/></g><g><path d="M938.8,-76.21254l96.8,-55.88751l96.8,55.88751v111.77501l-96.8,55.88751l-96.8,-55.88751z" fill="#c970c9"/><path d="M938.8,-76.21254l96.8,-55.88751l96.8,55.88751l-96.8,55.88751z" fill="#ffa8ff"/><path d="M1132.4,-76.21254v111.77501l-96.8,55.88751v-111.77501z" fill="#653865"/></g><g><path d="M1132.4,-76.21254l96.8,-55.88751l96.8,55.88751v111.77501l-96.8,55.88751l-96.8,-55.88751z" fill="#bd78bd"/><path d="M1132.4,-76.21254l96.8,-55.88751l96.8,55.88751l-96.8,55.88751z" fill="#ffb4ff"/><path d="M1326,-76.21254v111.77501l-96.8,55.88751v-111.77501z" fill="#5f3c5f"/></g><g><path d="M-126,91.44998l96.8,-55.88751l96.8,55.88751v111.77501l-96.8,55.88751l-96.8,-55.88751z" fill="#627eb8"/><path d="M-126,91.44998l96.8,-55.88751l96.8,55.88751l-96.8,55.88751z" fill="#93bdff"/><path d="M67.6,91.44998v111.77501l-96.8,55.88751v-111.77501z" fill="#313f5c"/></g><g><path d="M67.6,91.44998l96.8,-55.88751l96.8,55.88751v111.77501l-96.8,55.88751l-96.8,-55.88751z" fill="#907bd4"/><path d="M67.6,91.44998l96.8,-55.88751l96.8,55.88751l-96.8,55.88751z" fill="#d8b8ff"/><path d="M261.2,91.44998v111.77501l-96.8,55.88751v-111.77501z" fill="#483d6a"/></g><g><path d="M261.2,91.44998l96.8,-55.88751l96.8,55.88751v111.77501l-96.8,55.88751l-96.8,-55.88751z" fill="#9e70d9"/><path d="M261.2,91.44998l96.8,-55.88751l96.8,55.88751l-96.8,55.88751z" fill="#eda8ff"/><path d="M454.8,91.44998v111.77501l-96.8,55.88751v-111.77501z" fill="#4f386c"/></g><g><path d="M454.8,91.44998l96.8,-55.88751l96.8,55.88751v111.77501l-96.8,55.88751l-96.8,-55.88751z" fill="#a960c8"/><path d="M454.8,91.44998l96.8,-55.88751l96.8,55.88751l-96.8,55.88751z" fill="#fd8fff"/><path d="M648.4,91.44998v111.77501l-96.8,55.88751v-111.77501z" fill="#543064"/></g><g><path d="M648.4,91.44998l96.8,-55.88751l96.8,55.88751v111.77501l-96.8,55.88751l-96.8,-55.88751z" fill="#9374c1"/><path d="M648.4,91.44998l96.8,-55.88751l96.8,55.88751l-96.8,55.88751z" fill="#dcaeff"/><path d="M842,91.44998v111.77501l-96.8,55.88751v-111.77501z" fill="#493a61"/></g><g><path d="M842,91.44998l96.8,-55.88751l96.8,55.88751v111.77501l-96.8,55.88751l-96.8,-55.88751z" fill="#9871de"/><path d="M842,91.44998l96.8,-55.88751l96.8,55.88751l-96.8,55.88751z" fill="#e4aaff"/><path d="M1035.6,91.44998v111.77501l-96.8,55.88751v-111.77501z" fill="#4c396f"/></g><g><path d="M1035.6,91.44998l96.8,-55.88751l96.8,55.88751v111.77501l-96.8,55.88751l-96.8,-55.88751z" fill="#af60ca"/><path d="M1035.6,91.44998l96.8,-55.88751l96.8,55.88751l-96.8,55.88751z" fill="#ff90ff"/><path d="M1229.2,91.44998v111.77501l-96.8,55.88751v-111.77501z" fill="#583065"/></g><g><path d="M-29.2,259.11249l96.8,-55.88751l96.8,55.88751v111.77501l-96.8,55.88751l-96.8,-55.88751z" fill="#5badeb"/><path d="M-29.2,259.11249l96.8,-55.88751l96.8,55.88751l-96.8,55.88751z" fill="#88ffff"/><path d="M164.4,259.11249v111.77501l-96.8,55.88751v-111.77501z" fill="#2d5675"/></g><g><path d="M164.4,259.11249l96.8,-55.88751l96.8,55.88751v111.77501l-96.8,55.88751l-96.8,-55.88751z" fill="#63abf2"/><path d="M164.4,259.11249l96.8,-55.88751l96.8,55.88751l-96.8,55.88751z" fill="#95ffff"/><path d="M358,259.11249v111.77501l-96.8,55.88751v-111.77501z" fill="#325679"/></g><g><path d="M358,259.11249l96.8,-55.88751l96.8,55.88751v111.77501l-96.8,55.88751l-96.8,-55.88751z" fill="#59b1ef"/><path d="M358,259.11249l96.8,-55.88751l96.8,55.88751l-96.8,55.88751z" fill="#85ffff"/><path d="M551.6,259.11249v111.77501l-96.8,55.88751v-111.77501z" fill="#2c5978"/></g><g><path d="M551.6,259.11249l96.8,-55.88751l96.8,55.88751v111.77501l-96.8,55.88751l-96.8,-55.88751z" fill="#6a94d7"/><path d="M551.6,259.11249l96.8,-55.88751l96.8,55.88751l-96.8,55.88751z" fill="#a0ddff"/><path d="M745.2,259.11249v111.77501l-96.8,55.88751v-111.77501z" fill="#354a6c"/></g><g><path d="M745.2,259.11249l96.8,-55.88751l96.8,55.88751v111.77501l-96.8,55.88751l-96.8,-55.88751z" fill="#3cc2d8"/><path d="M745.2,259.11249l96.8,-55.88751l96.8,55.88751l-96.8,55.88751z" fill="#5affff"/><path d="M938.8,259.11249v111.77501l-96.8,55.88751v-111.77501z" fill="#1e616c"/></g><g><path d="M938.8,259.11249l96.8,-55.88751l96.8,55.88751v111.77501l-96.8,55.88751l-96.8,-55.88751z" fill="#4cbde9"/><path d="M938.8,259.11249l96.8,-55.88751l96.8,55.88751l-96.8,55.88751z" fill="#72ffff"/><path d="M1132.4,259.11249v111.77501l-96.8,55.88751v-111.77501z" fill="#265e75"/></g><g><path d="M1132.4,259.11249l96.8,-55.88751l96.8,55.88751v111.77501l-96.8,55.88751l-96.8,-55.88751z" fill="#6b9ad1"/><path d="M1132.4,259.11249l96.8,-55.88751l96.8,55.88751l-96.8,55.88751z" fill="#a0e7ff"/><path d="M1326,259.11249v111.77501l-96.8,55.88751v-111.77501z" fill="#354d69"/></g><g><path d="M-126,426.77501l96.8,-55.88751l96.8,55.88751v111.77501l-96.8,55.88751l-96.8,-55.88751z" fill="#366d73"/><path d="M-126,426.77501l96.8,-55.88751l96.8,55.88751l-96.8,55.88751z" fill="#51a4ad"/><path d="M67.6,426.77501v111.77501l-96.8,55.88751v-111.77501z" fill="#1b373a"/></g><g><path d="M67.6,426.77501l96.8,-55.88751l96.8,55.88751v111.77501l-96.8,55.88751l-96.8,-55.88751z" fill="#39dcec"/><path d="M67.6,426.77501l96.8,-55.88751l96.8,55.88751l-96.8,55.88751z" fill="#55ffff"/><path d="M261.2,426.77501v111.77501l-96.8,55.88751v-111.77501z" fill="#1c6e76"/></g><g><path d="M261.2,426.77501l96.8,-55.88751l96.8,55.88751v111.77501l-96.8,55.88751l-96.8,-55.88751z" fill="#28eff1"/><path d="M261.2,426.77501l96.8,-55.88751l96.8,55.88751l-96.8,55.88751z" fill="#3cffff"/><path d="M454.8,426.77501v111.77501l-96.8,55.88751v-111.77501z" fill="#147778"/></g><g><path d="M454.8,426.77501l96.8,-55.88751l96.8,55.88751v111.77501l-96.8,55.88751l-96.8,-55.88751z" fill="#3cc2ce"/><path d="M454.8,426.77501l96.8,-55.88751l96.8,55.88751l-96.8,55.88751z" fill="#5affff"/><path d="M648.4,426.77501v111.77501l-96.8,55.88751v-111.77501z" fill="#1e6167"/></g><g><path d="M648.4,426.77501l96.8,-55.88751l96.8,55.88751v111.77501l-96.8,55.88751l-96.8,-55.88751z" fill="#2dedf4"/><path d="M648.4,426.77501l96.8,-55.88751l96.8,55.88751l-96.8,55.88751z" fill="#44ffff"/><path d="M842,426.77501v111.77501l-96.8,55.88751v-111.77501z" fill="#17777a"/></g><g><path d="M842,426.77501l96.8,-55.88751l96.8,55.88751v111.77501l-96.8,55.88751l-96.8,-55.88751z" fill="#2fe5e9"/><path d="M842,426.77501l96.8,-55.88751l96.8,55.88751l-96.8,55.88751z" fill="#47ffff"/><path d="M1035.6,426.77501v111.77501l-96.8,55.88751v-111.77501z" fill="#187274"/></g><g><path d="M1035.6,426.77501l96.8,-55.88751l96.8,55.88751v111.77501l-96.8,55.88751l-96.8,-55.88751z" fill="#35d9db"/><path d="M1035.6,426.77501l96.8,-55.88751l96.8,55.88751l-96.8,55.88751z" fill="#4fffff"/><path d="M1229.2,426.77501v111.77501l-96.8,55.88751v-111.77501z" fill="#1a6c6d"/></g><g><path d="M-29.2,594.43753l96.8,-55.88751l96.8,55.88751v111.77501l-96.8,55.88751l-96.8,-55.88751z" fill="#618bce"/><path d="M-29.2,594.43753l96.8,-55.88751l96.8,55.88751l-96.8,55.88751z" fill="#92d1ff"/><path d="M164.4,594.43753v111.77501l-96.8,55.88751v-111.77501z" fill="#314667"/></g><g><path d="M164.4,594.43753l96.8,-55.88751l96.8,55.88751v111.77501l-96.8,55.88751l-96.8,-55.88751z" fill="#5595c2"/><path d="M164.4,594.43753l96.8,-55.88751l96.8,55.88751l-96.8,55.88751z" fill="#80dfff"/><path d="M358,594.43753v111.77501l-96.8,55.88751v-111.77501z" fill="#2b4a61"/></g><g><path d="M358,594.43753l96.8,-55.88751l96.8,55.88751v111.77501l-96.8,55.88751l-96.8,-55.88751z" fill="#50b3e8"/><path d="M358,594.43753l96.8,-55.88751l96.8,55.88751l-96.8,55.88751z" fill="#78ffff"/><path d="M551.6,594.43753v111.77501l-96.8,55.88751v-111.77501z" fill="#285974"/></g><g><path d="M551.6,594.43753l96.8,-55.88751l96.8,55.88751v111.77501l-96.8,55.88751l-96.8,-55.88751z" fill="#53aae0"/><path d="M551.6,594.43753l96.8,-55.88751l96.8,55.88751l-96.8,55.88751z" fill="#7cffff"/><path d="M745.2,594.43753v111.77501l-96.8,55.88751v-111.77501z" fill="#295570"/></g><g><path d="M745.2,594.43753l96.8,-55.88751l96.8,55.88751v111.77501l-96.8,55.88751l-96.8,-55.88751z" fill="#5da2e5"/><path d="M745.2,594.43753l96.8,-55.88751l96.8,55.88751l-96.8,55.88751z" fill="#8cf4ff"/><path d="M938.8,594.43753v111.77501l-96.8,55.88751v-111.77501z" fill="#2f5172"/></g><g><path d="M938.8,594.43753l96.8,-55.88751l96.8,55.88751v111.77501l-96.8,55.88751l-96.8,-55.88751z" fill="#52afeb"/><path d="M938.8,594.43753l96.8,-55.88751l96.8,55.88751l-96.8,55.88751z" fill="#7affff"/><path d="M1132.4,594.43753v111.77501l-96.8,55.88751v-111.77501z" fill="#295876"/></g><g><path d="M1132.4,594.43753l96.8,-55.88751l96.8,55.88751v111.77501l-96.8,55.88751l-96.8,-55.88751z" fill="#27dcdc"/><path d="M1132.4,594.43753l96.8,-55.88751l96.8,55.88751l-96.8,55.88751z" fill="#3affff"/><path d="M1326,594.43753v111.77501l-96.8,55.88751v-111.77501z" fill="#136e6e"/></g><g><path d="M-126,762.10005l96.8,-55.88751l96.8,55.88751v111.77501l-96.8,55.88751l-96.8,-55.88751z" fill="#000000"/><path d="M-126,762.10005l96.8,-55.88751l96.8,55.88751l-96.8,55.88751z" fill="#ffffff"/><path d="M67.6,762.10005v111.77501l-96.8,55.88751v-111.77501z" fill="#000000"/></g><g><path d="M67.6,762.10005l96.8,-55.88751l96.8,55.88751v111.77501l-96.8,55.88751l-96.8,-55.88751z" fill="#000000"/><path d="M67.6,762.10005l96.8,-55.88751l96.8,55.88751l-96.8,55.88751z" fill="#ffffff"/><path d="M261.2,762.10005v111.77501l-96.8,55.88751v-111.77501z" fill="#000000"/></g><g><path d="M261.2,762.10005l96.8,-55.88751l96.8,55.88751v111.77501l-96.8,55.88751l-96.8,-55.88751z" fill="#000000"/><path d="M261.2,762.10005l96.8,-55.88751l96.8,55.88751l-96.8,55.88751z" fill="#ffffff"/><path d="M454.8,762.10005v111.77501l-96.8,55.88751v-111.77501z" fill="#000000"/></g><g><path d="M454.8,762.10005l96.8,-55.88751l96.8,55.88751v111.77501l-96.8,55.88751l-96.8,-55.88751z" fill="#000000"/><path d="M454.8,762.10005l96.8,-55.88751l96.8,55.88751l-96.8,55.88751z" fill="#ffffff"/><path d="M648.4,762.10005v111.77501l-96.8,55.88751v-111.77501z" fill="#000000"/></g><g><path d="M648.4,762.10005l96.8,-55.88751l96.8,55.88751v111.77501l-96.8,55.88751l-96.8,-55.88751z" fill="#000000"/><path d="M648.4,762.10005l96.8,-55.88751l96.8,55.88751l-96.8,55.88751z" fill="#ffffff"/><path d="M842,762.10005v111.77501l-96.8,55.88751v-111.77501z" fill="#000000"/></g><g><path d="M842,762.10005l96.8,-55.88751l96.8,55.88751v111.77501l-96.8,55.88751l-96.8,-55.88751z" fill="#000000"/><path d="M842,762.10005l96.8,-55.88751l96.8,55.88751l-96.8,55.88751z" fill="#ffffff"/><path d="M1035.6,762.10005v111.77501l-96.8,55.88751v-111.77501z" fill="#000000"/></g><g><path d="M1035.6,762.10005l96.8,-55.88751l96.8,55.88751v111.77501l-96.8,55.88751l-96.8,-55.88751z" fill="#000000"/><path d="M1035.6,762.10005l96.8,-55.88751l96.8,55.88751l-96.8,55.88751z" fill="#ffffff"/><path d="M1229.2,762.10005v111.77501l-96.8,55.88751v-111.77501z" fill="#000000"/></g></g></g></svg>