<svg width="358" height="322" viewBox="0 0 358 322" fill="none" xmlns="http://www.w3.org/2000/svg">
<style>
    #icon-eyes-mouth { fill: #64ACFF;} 
    #icon-face { fill: #1A1A1A;}

    @media (prefers-color-scheme: light) {
        #icon-eyes-mouth { fill: #64ACFF;} 
        #icon-face { fill: #1A1A1A;}
    }

    @media (prefers-color-scheme: dark) {
        #icon-eyes-mouth { fill: #1A1A1A;} 
        #icon-face { fill: #D328D7;}
    }
</style>
<rect x="71" y="71" width="216" height="216"  id="icon-eyes-mouth"/>
<path d="M35.4319 317.4V290.26C35.4319 287.807 34.2048 286.58 31.7506 286.58H4.60154C1.53385 286.58 0 285.047 0 281.98V219.42C0 216.353 1.53385 214.82 4.60154 214.82H31.7506C34.2048 214.82 35.4319 213.593 35.4319 211.14V183.54C35.4319 180.473 36.9657 178.94 40.0334 178.94H67.1825C69.6367 178.94 70.8638 177.713 70.8638 175.26V147.2C70.8638 144.747 69.6367 143.52 67.1825 143.52H40.0334C36.9657 143.52 35.4319 141.987 35.4319 138.92V110.86C35.4319 108.407 34.2048 107.18 31.7506 107.18H4.60154C1.53385 107.18 0 105.647 0 102.58V40.02C0 36.9533 1.53385 35.42 4.60154 35.42H31.7506C34.2048 35.42 35.4319 34.1933 35.4319 31.74V4.6C35.4319 1.53333 36.9657 0 40.0334 0H102.614C105.682 0 107.216 1.53333 107.216 4.6V31.74C107.216 34.1933 108.443 35.42 110.897 35.42H139.427C141.881 35.42 143.108 34.1933 143.108 31.74V4.6C143.108 1.53333 144.642 0 147.71 0H209.83C212.898 0 214.432 1.53333 214.432 4.6V31.74C214.432 34.1933 215.659 35.42 218.113 35.42H246.643C249.097 35.42 250.324 34.1933 250.324 31.74V4.6C250.324 1.53333 251.858 0 254.925 0H317.506C320.574 0 322.108 1.53333 322.108 4.6V31.74C322.108 34.1933 323.335 35.42 325.789 35.42H353.398C356.466 35.42 358 36.9533 358 40.02V102.58C358 105.647 356.466 107.18 353.398 107.18H326.249C323.795 107.18 322.568 108.407 322.568 110.86V138.46C322.568 141.527 321.034 143.06 317.967 143.06H290.357C287.903 143.06 286.676 144.287 286.676 146.74V175.26C286.676 177.713 287.903 178.94 290.357 178.94H317.506C320.574 178.94 322.108 180.473 322.108 183.54V211.14C322.108 213.593 323.335 214.82 325.789 214.82H353.398C356.466 214.82 358 216.353 358 219.42V281.98C358 285.047 356.466 286.58 353.398 286.58H326.249C323.795 286.58 322.568 287.807 322.568 290.26V317.4C322.568 320.467 321.034 322 317.967 322H40.0334C36.9657 322 35.4319 320.467 35.4319 317.4ZM75.0051 286.12H103.535C105.989 286.12 107.216 284.893 107.216 282.44V255.3C107.216 252.233 108.75 250.7 111.817 250.7H174.398C177.466 250.7 179 252.233 179 255.3V282.44C179 284.893 180.227 286.12 182.681 286.12H211.211C213.665 286.12 214.892 284.893 214.892 282.44V255.76C214.892 252.693 216.426 251.16 219.494 251.16H246.183C249.25 251.16 250.784 252.693 250.784 255.76V282.44C250.784 284.893 252.011 286.12 254.465 286.12H282.535C284.989 286.12 286.216 284.893 286.216 282.44V218.5C286.216 216.047 284.989 214.82 282.535 214.82H254.925C251.858 214.82 250.324 213.287 250.324 210.22V183.08C250.324 180.627 249.097 179.4 246.643 179.4H218.113C215.659 179.4 214.432 180.627 214.432 183.08V209.76C214.432 212.827 212.898 214.36 209.83 214.36H147.249C144.182 214.36 142.648 212.827 142.648 209.76V183.08C142.648 180.627 141.421 179.4 138.967 179.4H110.897C108.443 179.4 107.216 180.627 107.216 183.08V210.22C107.216 213.287 105.682 214.82 102.614 214.82H75.0051C72.551 214.82 71.3239 216.047 71.3239 218.5V282.44C71.3239 284.893 72.551 286.12 75.0051 286.12ZM75.0051 107.18H138.967C141.421 107.18 142.648 105.953 142.648 103.5V75.44C142.648 72.9867 141.421 71.76 138.967 71.76H75.0051C72.551 71.76 71.3239 72.9867 71.3239 75.44V103.5C71.3239 105.953 72.551 107.18 75.0051 107.18ZM218.573 106.72H282.535C284.989 106.72 286.216 105.493 286.216 103.04V75.44C286.216 72.9867 284.989 71.76 282.535 71.76H218.573C216.119 71.76 214.892 72.9867 214.892 75.44V103.04C214.892 105.493 216.119 106.72 218.573 106.72Z" id="icon-face"/>
</svg>
