<svg width="500" height="500" viewBox="0 0 500 500" fill="none" xmlns="http://www.w3.org/2000/svg">
<rect width="500" height="500" fill="white"/>
<path d="M144.763 243H184.283C185.843 243 186.883 241.96 186.883 240.4V152.52C186.883 150.7 188.443 150.18 189.483 151.74L247.723 241.18C248.503 242.22 249.543 243 250.843 243H288.283C289.843 243 290.883 241.96 290.883 240.4V63.6C290.883 62.04 289.843 61 288.283 61H248.763C247.203 61 246.163 62.04 246.163 63.6V159.28C246.163 161.36 244.603 161.62 243.563 160.06L185.323 62.82C184.543 61.78 183.503 61 182.203 61H144.763C143.203 61 142.163 62.04 142.163 63.6V240.4C142.163 241.96 143.203 243 144.763 243ZM318.022 243H461.802C463.362 243 464.402 241.96 464.402 240.4V208.94C464.402 207.38 463.362 206.34 461.802 206.34H389.002C387.442 206.34 386.922 205.04 387.702 203.74L470.382 64.12C471.422 62.3 470.642 61 468.562 61H324.782C323.222 61 322.182 62.04 322.182 63.6V95.06C322.182 96.62 323.222 97.66 324.782 97.66H397.582C399.142 97.66 399.662 98.96 398.882 100.26L316.202 239.88C315.162 241.7 315.942 243 318.022 243ZM69.6164 410.18L39.1964 432.28C37.8964 433.06 37.3764 434.36 38.1564 435.66C49.0764 455.42 72.2164 467.12 97.6964 467.12C134.876 467.12 166.076 440.86 166.076 387.56V284.6C166.076 283.04 165.036 282 163.476 282H123.956C122.396 282 121.356 283.04 121.356 284.6V390.94C121.356 430.2 86.7764 433.06 73.2564 410.96C72.4764 409.4 70.9164 409.14 69.6164 410.18ZM197.26 284.6V461.4C197.26 462.96 198.3 464 199.86 464H239.38C240.94 464 241.98 462.96 241.98 461.4V284.6C241.98 283.04 240.94 282 239.38 282H199.86C198.3 282 197.26 283.04 197.26 284.6ZM273.178 461.92V284.08C273.178 282.78 273.958 282 275.258 282H313.738C314.778 282 315.818 282.52 316.338 283.3L366.258 352.46C367.298 354.02 368.858 354.02 369.898 352.46L420.598 283.3C421.118 282.52 422.158 282 423.198 282H461.678C462.978 282 463.758 282.52 463.758 284.08L464.278 461.92C464.278 463.48 463.498 464 462.198 464H421.638C420.338 464 419.558 463.22 419.558 461.92V363.64C419.558 361.3 417.998 360.52 416.438 362.6L369.638 422.4C368.858 423.44 367.298 423.7 366.518 422.4L321.018 362.6C319.458 360.78 317.898 361.3 317.898 363.64V461.92C317.898 463.22 317.118 464 315.818 464H275.258C273.958 464 273.178 463.22 273.178 461.92Z" fill="#CC22A7"/>
</svg>
